<?xml version="1.0" encoding="UTF-8"?><svg id="_イヤー_2" xmlns="http://www.w3.org/2000/svg" xmlns:xlink="http://www.w3.org/1999/xlink" viewBox="0 0 1611.58 453.19"><defs><style>.cls-1{fill:url(#_称未設定グラデーション_17);}.cls-2{fill:#333;}.cls-3{fill:url(#_称未設定グラデーション_16);}</style><linearGradient id="_称未設定グラデーション_17" x1="-3269.14" y1="770.02" x2="-3269.79" y2="770.92" gradientTransform="translate(1285385.61 283375.96) scale(393.09 -367.45)" gradientUnits="userSpaceOnUse"><stop offset="0" stop-color="#54a2fd"/><stop offset="1" stop-color="#1489ff"/></linearGradient><linearGradient id="_称未設定グラデーション_16" x1="-3269.81" y1="769.96" x2="-3269.09" y2="770.96" gradientTransform="translate(1285376.22 283291) scale(393.09 -367.46)" gradientUnits="userSpaceOnUse"><stop offset="0" stop-color="#1f35e3"/><stop offset="1" stop-color="#1578ff"/></linearGradient></defs><g id="_イヤー_1-2"><path id="_ス_1172" class="cls-2" d="M746.92,277.13v-24.64h46.96c.45-.03,.91-.03,1.37-.03,30.29,0,50.38-14.4,50.38-53.08v-17.09c-10.2,19.19-30.89,30.58-55.78,30.58-38.39,0-74.97-26.38-74.97-76.77,0-44.98,32.98-77.97,79.76-77.97s79.17,31.49,79.17,79.16v60.88c0,56.48-34.18,78.77-77.42,79.16-5.16,.15-11.08,.21-17,.21-16.27,0-32.49-.41-32.49-.41Zm-3.25-141.03c0,29.98,20.4,50.08,50.98,50.08s50.98-20.1,50.98-50.08-20.4-51.58-50.98-51.58-50.98,21.59-50.98,51.58Zm200.17,0c0-44.98,32.99-77.97,79.77-77.97s79.17,32.98,79.17,77.97v10.49h-128.95c4.2,26.39,23.99,41.09,49.78,41.09,19.19,0,32.69-6,41.38-18.9h31.49c-11.39,27.6-38.39,45.29-72.88,45.29-46.78,0-79.77-32.99-79.77-77.97Zm30.89-14.99h98.05c-5.7-23.7-25.19-36.59-49.18-36.59s-43.18,13.2-48.88,36.59h0Zm-494.6,16.19c0-46.48,32.98-79.16,80.06-79.16s78.87,31.78,78.87,79.16v72.87h-26.09v-32.39c-9.89,24-31.79,36.29-57.57,36.29-38.69,0-75.27-27.89-75.27-76.78h0Zm28.79-1.19c0,29.98,20.39,51.58,50.97,51.58s50.98-21.6,50.98-51.58-20.39-51.58-50.98-51.58-50.97,21.59-50.97,51.58h0Zm780.02,75.83l-44.79-54.53-44.8,54.53h-36.74l63.17-76.9-63.17-76.9h36.74l44.8,54.52,44.79-54.52h36.76l-63.17,76.89,63.17,76.9h-36.76Z"/><path id="_ス_1171" class="cls-2" d="M1391.33,408.41v-7.46h13.4c.2-.02,.42-.03,.63-.03,9.1,0,15.13-4.31,15.13-15.95v-5.13c-3.05,5.77-9.27,9.19-16.75,9.19-11.54,0-22.52-7.93-22.52-23.07,0-13.51,9.9-23.42,23.96-23.42s23.79,9.46,23.79,23.79v18.29c0,16.92-10.21,23.64-23.15,23.78h-14.49Zm-1.47-42.44c0,9.02,6.13,15.05,15.32,15.05s15.32-6.03,15.32-15.05-6.12-15.5-15.32-15.5-15.32,6.49-15.32,15.5Zm-762.21,42.45v-7.46h13.41c.2-.02,.41-.03,.62-.03,9.1,0,15.14-4.31,15.14-15.95v-5.13c-3.06,5.77-9.28,9.19-16.76,9.19-11.54,0-22.53-7.93-22.53-23.07,0-13.51,9.91-23.42,23.97-23.42s23.79,9.46,23.79,23.79v18.29c0,16.92-10.22,23.64-23.15,23.78h-14.49Zm-1.47-42.44c0,9.02,6.13,15.05,15.32,15.05s15.32-6.03,15.32-15.05-6.13-15.5-15.32-15.5-15.32,6.49-15.32,15.5Zm948.46,9.74h8.66c.17,3.7,3.6,6.3,9.82,6.3s9.82-2.79,9.82-6.3c0-4.23-4.68-4.78-10.27-5.5-7.75-1-17.12-2.43-17.12-12.62,0-8.74,6.84-14.69,17.48-14.69s17.21,6.04,17.39,13.7h-8.47c-.27-3.43-3.42-5.95-8.82-5.95-5.68,0-8.92,2.7-8.92,6.22,0,4.23,4.68,4.68,10.18,5.41,7.75,.99,17.2,2.43,17.2,12.61,0,9.02-7.3,14.87-18.47,14.87s-18.2-5.94-18.47-14.05Zm-75.69-9.37c0-13.52,9.91-23.43,23.96-23.43s23.79,9.91,23.79,23.43v3.15h-38.75c1.26,7.93,7.21,12.35,14.95,12.35,5.77,0,9.83-1.81,12.43-5.68h9.46c-3.42,8.29-11.53,13.6-21.9,13.6-14.05,0-23.96-9.9-23.96-23.42Zm9.27-4.51h29.46c-1.71-7.12-7.57-10.99-14.78-10.99s-12.97,3.96-14.69,10.99Zm-200.98,4.51c0-13.53,9.91-23.43,23.97-23.43s23.79,9.91,23.79,23.43v3.15h-38.75c1.26,7.93,7.21,12.35,14.96,12.35,5.77,0,9.82-1.81,12.43-5.68h9.46c-3.42,8.29-11.53,13.6-21.89,13.6-14.06,0-23.97-9.9-23.97-23.42Zm9.28-4.51h29.46c-1.71-7.12-7.57-10.99-14.77-10.99s-12.98,3.96-14.68,10.99Zm-72.81,9.91v-43.43h8.56v15.76h24.5v7.85h-24.5v19.82c0,7.03,3.69,10.1,9.28,10.1s9.37-2.98,9.37-10.1v-.99h8.47v.99c0,12.07-7.2,18.02-17.84,18.02s-17.85-5.95-17.85-18.02h0Zm-79.11-5.04c0-13.97,9.91-23.79,24.05-23.79s23.7,9.55,23.7,23.79v21.89h-7.84v-9.73c-2.97,7.21-9.55,10.9-17.3,10.9-11.62,0-22.62-8.38-22.62-23.06Zm8.65-.36c0,9,6.13,15.5,15.32,15.5s15.32-6.49,15.32-15.5-6.13-15.5-15.32-15.5-15.32,6.48-15.32,15.5h0Zm-138.84,5.4v-43.43h8.56v15.76h24.5v7.85h-24.5v19.82c0,7.03,3.69,10.1,9.28,10.1s9.37-2.98,9.37-10.1v-.99h8.47v.99c0,12.07-7.21,18.02-17.84,18.02s-17.84-5.95-17.84-18.02h0Zm-66.68,3.97h8.65c.18,3.69,3.6,6.3,9.81,6.3s9.82-2.79,9.82-6.3c0-4.23-4.68-4.78-10.27-5.5-7.75-1-17.12-2.43-17.12-12.62,0-8.74,6.85-14.69,17.48-14.69s17.21,6.04,17.39,13.7h-8.47c-.27-3.43-3.43-5.95-8.83-5.95s-8.92,2.7-8.92,6.22c0,4.23,4.68,4.68,10.18,5.4,7.75,1,17.21,2.43,17.21,12.62,0,9.02-7.29,14.87-18.47,14.87s-18.2-5.94-18.47-14.05Zm-167.14-9.01c0-13.97,9.91-23.79,24.06-23.79s23.7,9.55,23.7,23.79v21.89h-7.84v-9.73c-2.98,7.21-9.55,10.9-17.3,10.9-11.63,0-22.62-8.38-22.62-23.06h0Zm8.65-.36c0,9,6.12,15.5,15.32,15.5s15.32-6.49,15.32-15.5-6.13-15.5-15.32-15.5-15.32,6.48-15.32,15.5h0Zm-72.17,5.4v-43.43h8.55v15.76h24.51v7.85h-24.51v19.82c0,7.03,3.7,10.1,9.28,10.1s9.37-2.98,9.37-10.1v-.99h8.47v.99c0,12.07-7.2,18.02-17.84,18.02s-17.84-5.95-17.84-18.02h0Zm-239.77-5.67c0-14.78,10.99-23.16,22.62-23.16,7.2,0,13.33,3.25,16.57,9.02v-27.31h8.56v41.36c0,14.5-9.91,23.78-23.7,23.78s-24.05-9.73-24.05-23.69h0Zm8.65,.27c0,9,6.12,15.5,15.32,15.5s15.22-6.49,15.22-15.5-6.12-15.5-15.22-15.5c-9.2,0-15.32,6.48-15.32,15.5h0Zm953.36,22.25v-44.51h8.56v44.51h-8.56Zm-359.57,0v-26.22c0-13.16,7.75-19.47,19.19-19.47s19.1,6.3,19.1,19.55v.45h-8.47v-.54c0-8.2-4.32-11.53-10.63-11.53s-10.63,3.33-10.63,11.53v26.22h-8.55Zm-218.41,0v-63.98h8.55v63.98h-8.55Zm-185.71,0v-44.51h8.56v44.51h-8.56Zm-117.6,0v-44.51h8.56v44.51h-8.56Zm879.57-57.57c-.09-3.19,2.42-5.85,5.61-5.95,.11,0,.23,0,.34,0,3.19-.1,5.85,2.41,5.95,5.59,0,.12,0,.24,0,.35,.1,3.23-2.44,5.93-5.67,6.03-.09,0-.19,0-.28,0-3.24,.05-5.9-2.53-5.95-5.77,0-.09,0-.18,0-.27h0Zm-763.69,0c-.09-3.19,2.42-5.85,5.61-5.94,.11,0,.22,0,.34,0,3.19-.1,5.85,2.41,5.95,5.6,0,.11,0,.23,0,.34,.1,3.23-2.43,5.93-5.66,6.03-.1,0-.19,0-.29,0-3.23,.05-5.9-2.52-5.95-5.76,0-.09,0-.19,0-.28h0Zm-117.59,0c-.09-3.19,2.41-5.85,5.6-5.94,.12,0,.23,0,.35,0,3.19-.1,5.85,2.41,5.95,5.6,0,.11,0,.23,0,.34,.1,3.23-2.43,5.93-5.66,6.03-.1,0-.19,0-.29,0-3.23,.06-5.89-2.51-5.95-5.74,0-.1,0-.19,0-.29h0Z"/><g id="X" transform="translate(0 0)"><path id="_ス_892" class="cls-1" d="M116.07,85.74H9.39L295.81,453.19h106.68L116.07,85.74Z"/><path id="_ス_891" class="cls-3" d="M286.41,0h106.68L106.68,367.46H0L286.41,0Z"/></g></g></svg>