<?xml version="1.0" encoding="UTF-8"?><svg xmlns="http://www.w3.org/2000/svg" width="125.76mm" height="47.19mm" viewBox="0 0 356.48 133.76"><defs><style>.d{fill:#040000;}</style></defs><g id="a"/><g id="b"><g id="c"><g><g><path class="d" d="M158.34,25.96h3.03c.43,0,.65,.19,.65,.58v1.88c0,.41-.22,.61-.65,.61h-3.03c-.24,0-.36,.12-.36,.36v14.36c0,.41-.22,.61-.65,.61h-2.27c-.41,0-.61-.2-.61-.61v-14.36c0-.24-.13-.36-.4-.36h-1.91c-.41,0-.61-.2-.61-.61v-1.88c0-.22,.04-.37,.13-.45,.08-.08,.25-.13,.49-.13h1.91c.26,0,.4-.12,.4-.36v-1.05c0-1.78,.46-3.15,1.37-4.11,.91-.96,2.25-1.44,4.01-1.44h1.59c.41,0,.61,.19,.61,.58v1.88c0,.41-.2,.61-.61,.61h-1.08c-.87,0-1.47,.21-1.82,.63-.35,.42-.52,1.1-.52,2.04v.87c0,.24,.12,.36,.36,.36Z"/><path class="d" d="M169.74,44.36h-2.27c-.41,0-.61-.2-.61-.61V19.61c0-.41,.2-.61,.61-.61h2.27c.41,0,.61,.2,.61,.61v24.14c0,.41-.2,.61-.61,.61Z"/><path class="d" d="M183.52,44.36h-1.41c-1.78,0-3.16-.49-4.13-1.48-.97-.99-1.46-2.36-1.46-4.11v-7.22c0-1.78,.49-3.16,1.46-4.13,.97-.97,2.35-1.46,4.13-1.46h8.08c.43,0,.65,.2,.65,.61v17.18c0,.41-.22,.61-.65,.61h-2.27c-.41,0-.61-.2-.61-.61v-1.3h-.14c-.58,1.28-1.79,1.91-3.64,1.91Zm3.79-6.13v-8.84c0-.24-.13-.36-.4-.36h-4.29c-1.73,0-2.6,.89-2.6,2.67v6.93c0,1.78,.87,2.67,2.6,2.67h1.73c1.97,0,2.96-1.02,2.96-3.07Z"/><path class="d" d="M197.71,29.02h-1.73c-.24,0-.4-.04-.49-.13-.08-.08-.13-.23-.13-.45v-1.88c0-.41,.2-.61,.61-.61h1.73c.24,0,.36-.12,.36-.36v-3.25c0-.41,.22-.61,.65-.61h2.27c.41,0,.61,.2,.61,.61v3.25c0,.24,.13,.36,.4,.36h3.36c.43,0,.65,.2,.65,.61v1.88c0,.39-.22,.58-.65,.58h-3.36c-.26,0-.4,.12-.4,.36v9.27c0,1.76,.9,2.63,2.71,2.63h1.41c.43,0,.65,.2,.65,.61v1.88c0,.39-.22,.58-.65,.58h-1.95c-1.78,0-3.18-.48-4.19-1.44-1.01-.96-1.52-2.32-1.52-4.08v-9.45c0-.24-.12-.36-.36-.36Z"/><path class="d" d="M227.58,25.96h3.03c.43,0,.65,.19,.65,.58v1.88c0,.41-.22,.61-.65,.61h-3.03c-.24,0-.36,.12-.36,.36v14.36c0,.41-.22,.61-.65,.61h-2.27c-.41,0-.61-.2-.61-.61v-14.36c0-.24-.13-.36-.4-.36h-1.91c-.41,0-.61-.2-.61-.61v-1.88c0-.22,.04-.37,.13-.45,.08-.08,.25-.13,.49-.13h1.91c.26,0,.4-.12,.4-.36v-1.05c0-1.78,.46-3.15,1.37-4.11,.91-.96,2.25-1.44,4.01-1.44h1.59c.41,0,.61,.19,.61,.58v1.88c0,.41-.2,.61-.61,.61h-1.08c-.87,0-1.47,.21-1.82,.63-.35,.42-.52,1.1-.52,2.04v.87c0,.24,.12,.36,.36,.36Z"/><path class="d" d="M236.1,22.89v-3.28c0-.38,.19-.58,.58-.58h2.35c.38,0,.58,.19,.58,.58v3.28c0,.41-.19,.61-.58,.61h-2.35c-.39,0-.58-.2-.58-.61Zm0,20.86V26.57c0-.41,.19-.61,.58-.61h2.31c.41,0,.61,.2,.61,.61v17.18c0,.24-.04,.4-.13,.49-.08,.08-.23,.13-.45,.13h-2.31c-.41,0-.61-.2-.61-.61Z"/><path class="d" d="M259.16,44.36h-7.79c-1.78,0-3.16-.49-4.13-1.48-.97-.99-1.46-2.36-1.46-4.11v-7.22c0-1.78,.49-3.16,1.46-4.13,.97-.97,2.35-1.46,4.13-1.46h2.96c1.78,0,3.16,.49,4.15,1.46,.99,.97,1.48,2.35,1.48,4.13v4.58c0,.43-.22,.65-.65,.65h-9.67c-.26,0-.4,.12-.4,.36v1.55c0,1.76,.88,2.63,2.63,2.63h7.29c.43,0,.65,.22,.65,.65v1.8c0,.39-.22,.58-.65,.58Zm-9.53-10.03h6.46c.24,0,.36-.12,.36-.36v-2.31c0-.91-.2-1.58-.61-2-.41-.42-1.07-.63-1.98-.63h-1.98c-.91,0-1.58,.21-1.98,.63-.41,.42-.61,1.09-.61,2v2.31c0,.24,.12,.36,.36,.36Z"/><path class="d" d="M268.79,44.36h-2.27c-.41,0-.61-.2-.61-.61V19.61c0-.41,.2-.61,.61-.61h2.27c.41,0,.61,.2,.61,.61v24.14c0,.41-.2,.61-.61,.61Z"/><path class="d" d="M282.79,44.36h-1.84c-1.73,0-3.06-.49-3.99-1.46-.93-.97-1.39-2.35-1.39-4.13v-7.22c0-1.8,.46-3.19,1.39-4.15,.93-.96,2.26-1.44,3.99-1.44h1.84c1.85,0,3.05,.64,3.61,1.91h.14v-8.26c0-.41,.2-.61,.61-.61h2.31c.41,0,.61,.2,.61,.61v24.14c0,.41-.2,.61-.61,.61h-2.31c-.41,0-.61-.2-.61-.61v-1.3h-.14c-.55,1.28-1.76,1.91-3.61,1.91Zm3.75-6.13v-6.13c0-2.04-.99-3.07-2.96-3.07h-1.91c-1.73,0-2.6,.89-2.6,2.67v6.93c0,1.78,.87,2.67,2.6,2.67h1.91c1.97,0,2.96-1.02,2.96-3.07Z"/><path class="d" d="M153.32,65.11h-1.73c-.24,0-.4-.04-.49-.13-.08-.08-.13-.23-.13-.45v-1.88c0-.41,.2-.61,.61-.61h1.73c.24,0,.36-.12,.36-.36v-3.25c0-.41,.22-.61,.65-.61h2.27c.41,0,.61,.2,.61,.61v3.25c0,.24,.13,.36,.4,.36h3.36c.43,0,.65,.2,.65,.61v1.88c0,.39-.22,.58-.65,.58h-3.36c-.26,0-.4,.12-.4,.36v9.27c0,1.76,.9,2.63,2.71,2.63h1.41c.43,0,.65,.2,.65,.61v1.88c0,.39-.22,.58-.65,.58h-1.95c-1.78,0-3.18-.48-4.19-1.44-1.01-.96-1.52-2.32-1.52-4.08v-9.45c0-.24-.12-.36-.36-.36Z"/><path class="d" d="M180.28,80.44h-7.79c-1.78,0-3.16-.49-4.13-1.48-.97-.99-1.46-2.36-1.46-4.11v-7.22c0-1.78,.49-3.16,1.46-4.13,.97-.97,2.35-1.46,4.13-1.46h2.96c1.78,0,3.16,.49,4.15,1.46,.99,.97,1.48,2.35,1.48,4.13v4.58c0,.43-.22,.65-.65,.65h-9.67c-.26,0-.4,.12-.4,.36v1.55c0,1.76,.88,2.63,2.63,2.63h7.29c.43,0,.65,.22,.65,.65v1.8c0,.39-.22,.58-.65,.58Zm-9.53-10.03h6.46c.24,0,.36-.12,.36-.36v-2.31c0-.91-.2-1.58-.61-2-.41-.42-1.07-.63-1.98-.63h-1.98c-.91,0-1.58,.21-1.98,.63-.41,.42-.61,1.09-.61,2v2.31c0,.24,.12,.36,.36,.36Z"/><path class="d" d="M198.03,77.99v1.88c0,.39-.22,.58-.65,.58h-5.3c-1.78,0-3.16-.49-4.13-1.48-.97-.99-1.46-2.36-1.46-4.11v-7.22c0-1.78,.49-3.16,1.46-4.13,.97-.97,2.35-1.46,4.13-1.46h5.3c.43,0,.65,.2,.65,.61v1.88c0,.39-.22,.58-.65,.58h-4.8c-1.73,0-2.6,.89-2.6,2.67v6.93c0,1.78,.87,2.67,2.6,2.67h4.8c.43,0,.65,.2,.65,.61Z"/><path class="d" d="M206.15,80.44h-2.27c-.41,0-.61-.2-.61-.61v-24.14c0-.41,.2-.61,.61-.61h2.27c.41,0,.61,.2,.61,.61v8.26h.14c.58-1.27,1.79-1.91,3.64-1.91h1.59c1.76,0,3.1,.48,4.04,1.44,.94,.96,1.41,2.35,1.41,4.15v12.2c0,.41-.22,.61-.65,.61h-2.27c-.41,0-.61-.2-.61-.61v-12.05c0-1.78-.88-2.67-2.63-2.67h-1.7c-1.97,0-2.96,1.02-2.96,3.07v11.66c0,.41-.2,.61-.61,.61Z"/><path class="d" d="M226.61,80.44h-2.27c-.41,0-.61-.2-.61-.61v-17.18c0-.41,.2-.61,.61-.61h2.27c.41,0,.61,.2,.61,.61v1.3h.14c.58-1.27,1.79-1.91,3.64-1.91h1.59c1.76,0,3.1,.48,4.04,1.44,.94,.96,1.41,2.35,1.41,4.15v12.2c0,.41-.22,.61-.65,.61h-2.27c-.41,0-.61-.2-.61-.61v-12.05c0-1.78-.88-2.67-2.63-2.67h-1.7c-1.97,0-2.96,1.02-2.96,3.07v11.66c0,.41-.2,.61-.61,.61Z"/><path class="d" d="M252.59,80.44h-3.18c-1.78,0-3.16-.49-4.13-1.48-.97-.99-1.46-2.36-1.46-4.11v-7.22c0-1.78,.49-3.16,1.46-4.13,.97-.97,2.35-1.46,4.13-1.46h3.18c1.76,0,3.13,.49,4.13,1.46,1,.97,1.5,2.35,1.5,4.13v7.22c0,1.76-.5,3.13-1.5,4.11-1,.99-2.38,1.48-4.13,1.48Zm-2.67-3.07h2.2c1.73,0,2.6-.88,2.6-2.63v-7c0-1.76-.87-2.63-2.6-2.63h-2.2c-.91,0-1.58,.21-1.98,.63-.41,.42-.61,1.09-.61,2v7c0,.91,.2,1.58,.61,2,.41,.42,1.07,.63,1.98,.63Z"/><path class="d" d="M267.24,80.44h-2.27c-.41,0-.61-.2-.61-.61v-24.14c0-.41,.2-.61,.61-.61h2.27c.41,0,.61,.2,.61,.61v24.14c0,.41-.2,.61-.61,.61Z"/><path class="d" d="M282.79,80.44h-3.18c-1.78,0-3.16-.49-4.13-1.48-.97-.99-1.46-2.36-1.46-4.11v-7.22c0-1.78,.49-3.16,1.46-4.13,.97-.97,2.35-1.46,4.13-1.46h3.18c1.76,0,3.13,.49,4.13,1.46,1,.97,1.5,2.35,1.5,4.13v7.22c0,1.76-.5,3.13-1.5,4.11-1,.99-2.38,1.48-4.13,1.48Zm-2.67-3.07h2.2c1.73,0,2.6-.88,2.6-2.63v-7c0-1.76-.87-2.63-2.6-2.63h-2.2c-.91,0-1.58,.21-1.98,.63-.41,.42-.61,1.09-.61,2v7c0,.91,.2,1.58,.61,2,.41,.42,1.07,.63,1.98,.63Z"/><path class="d" d="M301.09,79.54h-1.62c-1.73,0-3.06-.49-3.99-1.46-.93-.97-1.39-2.35-1.39-4.13v-6.32c0-1.78,.49-3.16,1.48-4.13,.99-.97,2.36-1.46,4.11-1.46h8.08c.43,0,.65,.2,.65,.61v17.86c0,1.76-.5,3.12-1.5,4.1-1,.97-2.38,1.46-4.13,1.46h-6.78c-.41,0-.61-.19-.61-.58v-1.88c0-.41,.2-.61,.61-.61h6.24c1.76,0,2.63-.89,2.63-2.67v-2.74h-.14c-.6,1.3-1.82,1.95-3.64,1.95Zm3.79-6.13v-7.94c0-.24-.13-.36-.4-.36h-4.29c-1.71,0-2.56,.89-2.56,2.67v5.99c0,1.78,.85,2.67,2.56,2.67h1.73c1.97,0,2.96-1.01,2.96-3.03Z"/><path class="d" d="M314.91,58.97v-3.28c0-.38,.19-.58,.58-.58h2.35c.38,0,.58,.19,.58,.58v3.28c0,.41-.19,.61-.58,.61h-2.35c-.39,0-.58-.2-.58-.61Zm0,20.86v-17.18c0-.41,.19-.61,.58-.61h2.31c.41,0,.61,.2,.61,.61v17.18c0,.24-.04,.4-.13,.49-.08,.08-.23,.13-.45,.13h-2.31c-.41,0-.61-.2-.61-.61Z"/><path class="d" d="M337.96,80.44h-7.79c-1.78,0-3.16-.49-4.13-1.48-.97-.99-1.46-2.36-1.46-4.11v-7.22c0-1.78,.49-3.16,1.46-4.13,.97-.97,2.35-1.46,4.13-1.46h2.96c1.78,0,3.16,.49,4.15,1.46,.99,.97,1.48,2.35,1.48,4.13v4.58c0,.43-.22,.65-.65,.65h-9.67c-.26,0-.4,.12-.4,.36v1.55c0,1.76,.88,2.63,2.63,2.63h7.29c.43,0,.65,.22,.65,.65v1.8c0,.39-.22,.58-.65,.58Zm-9.53-10.03h6.46c.24,0,.36-.12,.36-.36v-2.31c0-.91-.2-1.58-.61-2-.41-.42-1.07-.63-1.98-.63h-1.98c-.91,0-1.58,.21-1.98,.63-.41,.42-.61,1.09-.61,2v2.31c0,.24,.12,.36,.36,.36Z"/><path class="d" d="M351.1,80.44h-6.64c-.41,0-.61-.2-.61-.61v-1.77c0-.38,.2-.58,.61-.58h6.06c1.56,0,2.35-.54,2.35-1.62v-.43c0-.96-.57-1.7-1.7-2.2l-3.93-1.88c-1.23-.58-2.12-1.21-2.67-1.91-.55-.7-.83-1.61-.83-2.74,0-3.1,1.72-4.66,5.16-4.66h5.99c.38,0,.58,.2,.58,.61v1.77c0,.41-.19,.61-.58,.61h-5.27c-.72,0-1.28,.13-1.66,.38-.39,.25-.58,.58-.58,.99v.4c0,.77,.61,1.44,1.84,2.02l3.97,2.02c1.25,.55,2.11,1.21,2.58,1.97s.7,1.74,.7,2.94c0,3.13-1.79,4.69-5.38,4.69Z"/><path class="d" d="M160.72,93.94v21.98c0,.41-.2,.61-.61,.61h-2.27c-.41,0-.61-.2-.61-.61v-21.98c0-.41,.2-.61,.61-.61h2.27c.41,0,.61,.2,.61,.61Z"/><path class="d" d="M170.5,116.53h-2.27c-.41,0-.61-.2-.61-.61v-17.18c0-.41,.2-.61,.61-.61h2.27c.41,0,.61,.2,.61,.61v1.3h.14c.58-1.27,1.79-1.91,3.64-1.91h1.59c1.76,0,3.1,.48,4.04,1.44,.94,.96,1.41,2.35,1.41,4.15v12.2c0,.41-.22,.61-.65,.61h-2.27c-.41,0-.61-.2-.61-.61v-12.05c0-1.78-.88-2.67-2.63-2.67h-1.7c-1.97,0-2.96,1.02-2.96,3.07v11.66c0,.41-.2,.61-.61,.61Z"/><path class="d" d="M199.26,114.08v1.88c0,.39-.22,.58-.65,.58h-5.3c-1.78,0-3.16-.49-4.13-1.48-.97-.99-1.46-2.36-1.46-4.11v-7.22c0-1.78,.49-3.16,1.46-4.13,.97-.97,2.35-1.46,4.13-1.46h5.3c.43,0,.65,.2,.65,.61v1.88c0,.39-.22,.58-.65,.58h-4.8c-1.73,0-2.6,.89-2.6,2.67v6.93c0,1.78,.87,2.67,2.6,2.67h4.8c.43,0,.65,.2,.65,.61Z"/><path class="d" d="M207.63,111.51v4.4c0,.41-.19,.61-.58,.61h-2.45c-.41,0-.61-.2-.61-.61v-4.4c0-.38,.2-.58,.61-.58h2.45c.38,0,.58,.19,.58,.58Z"/></g><path class="d" d="M134.3,65.06l-.27-.27h0l-10.95-10.94-8.45,8.47-.21,.21-.21-.21-26.74-26.73-.21-.21,.21-.21,5.45-5.45,3.01-3.01-10.82-10.81-8.45,8.47-.21,.21-.21-.21-5.28-5.28-.21-.21,.21-.21,7.95-7.95L68.2,0,0,68.18l24.46,24.46,.21,.21-.21,.21-5.82,5.82,10.27,10.27,.04,.04,5.82-5.82,.21-.21,.21,.21,30.41,30.4,.45-.45,68.25-68.25ZM79.55,27.24l5.45-5.45,.21-.21,.21,.21,4.62,4.62,.21,.21-.21,.21L56.99,59.82l7.58,7.58,.21,.21-.21,.21-4.62,4.62-.21,.21-.21-.21-12.38-12.37-.21-.21,.21-.21L79.55,27.24ZM44.27,62.94l12.38,12.37,.21,.21-.21,.21-2.15,2.14-.21,.21-.21-.21-4.13-4.12-3.09-3.09-11.18,11.18-.21,.21-.21-.21-13.45-13.45-.21-.21,.21-.21L59.83,29.97l.21-.21,.21,.21,5.2,5.2,.21,.21-.21,.21-24.27,24.27,3.09,3.09Zm9.9,21.04l.21-.21,.21,.21,4.37,4.37,3.09,3.09,3.01-3.01,2.15-2.14,.21-.21,.21,.21,11.31,11.3,.21,.21-.21,.21-13.53,13.53-.21,.21-.21-.21-18.98-18.97-.21-.21,.21-.21,8.17-8.17Zm8.03,1.56l-.21,.21h-.02l-.21-.2-4.37-4.37-.21-.21,.21-.21,20.22-20.21,.21-.21,.21,.21,4.37,4.37,.21,.21-.08,.08h0l-.2,.22-20.12,20.11Zm16.22-10.47l9.7-9.86,.08-.08-7.38-7.38-3.09-3.09-3.01,3.01-6.85,6.85-.21,.21-.21-.21-4.46-4.45-.21-.21,.21-.21,13.26-13.26,.21-.21,.21,.21,26.74,26.73,.21,.21-.21,.21-13.26,13.26-.21,.21-.21-.21-11.31-11.3-.21-.21,.21-.21ZM63.13,10.83l5.12-5.12,.21-.21,.21,.21,4.54,4.54,.21,.21-.21,.21-5.12,5.12-.21,.21-.21-.21-4.54-4.54-.21-.21,.21-.21Zm-7.92,7.92l4.62-4.62,.21-.21,.21,.21,13.12,13.12,.21,.21-.21,.21-4.62,4.62-.21,.21-.21-.21-13.12-13.12-.21-.21,.21-.21ZM5.97,68.39l-.21-.21,.21-.21L51.91,22.05l.21-.21,.21,.21,4.54,4.54,.21,.21-.21,.21L15.84,68.18l16.54,16.54,.21,.21-.21,.21-4.62,4.62-.21,.21-.21-.21L5.97,68.39Zm23.1,34.9l-.21,.21-.21-.21-4.13-4.12-.21-.21,.21-.21,22.2-22.2,.21-.21,.21,.21,4.13,4.12,.21,.21-.21,.21-22.2,22.2Zm41.35,19.88l-4.62,4.62-.21,.21-.21-.21-27.31-27.31-.21-.21,.21-.21,4.62-4.62,.21-.21,.21,.21,27.31,27.31,.21,.21-.21,.21Zm16.83-16.83l-13.53,13.53-.21,.21-.21-.21-5.03-5.03-.21-.21,.21-.21,13.53-13.53,.21-.21,.21,.21,5.03,5.03,.21,.21-.21,.21Zm7.92-7.92l-4.62,4.62-.21,.21-.21-.21-19.64-19.63-.21-.21,.21-.21,4.62-4.62,.21-.21,.21,.21,19.64,19.63,.21,.21-.21,.21Zm16.56-16.56l-13.26,13.26-.21,.21-.21-.21-5.03-5.03-.21-.21,.21-.21,13.26-13.26,.21-.21,.21,.21,5.03,5.03,.21,.21-.21,.21Zm7.76-8.08l-4.62,4.62-.21,.21-.21-.21-.03-.03-34.86-34.85-.02-.02-.21-.21,.21-.21,4.62-4.62,.21-.21,.21,.21,26.74,26.73,3.3,3.3,4.87,4.87,.21,.21-.21,.21Zm8.75-8.75l-5.45,5.45-.21,.21-.21-.21-4.87-4.87-.21-.21,.21-.21,5.45-5.45,.21-.21,.21,.21,4.87,4.87,.21,.21-.21,.21Z"/></g></g></g></svg>