<?xml version="1.0" encoding="UTF-8"?>
<svg id="_レイヤー_2" data-name="レイヤー 2" xmlns="http://www.w3.org/2000/svg" viewBox="0 0 450.48 41.94">
  <defs>
    <style>
      .cls-1 {
        fill: #231815;
      }
    </style>
  </defs>
  <g id="_レイヤー_1-2" data-name="レイヤー 1">
    <g>
      <path class="cls-1" d="M.73,33.67c2.53,2.46,6.72,4.85,11.7,4.85s8.91-2.99,8.91-7.71c0-4.46-2.19-7.18-9.77-9.24C4.79,19.71,1.06,15.58,1.06,10.13S5.78,.16,13.1,.16c3.86,0,7.78,1.66,9.97,3.32l-.8,3.13c-2.66-1.86-6.32-3.19-9.18-3.19-5.19,0-8.31,2.79-8.31,6.72,0,3.26,1.86,6.12,8.31,7.85,7.78,2.06,11.97,5.92,11.97,12.37,0,7.58-6.45,11.44-12.63,11.44-5.79,0-10.24-2.33-12.43-4.46l.73-3.66Z"/>
      <path class="cls-1" d="M142.33,1.12h4.05V41.68h-4.05V1.12Z"/>
      <path class="cls-1" d="M158.64,41.68V1.12h.88l26.99,31.09V1.12h4V41.68h-.91l-26.77-30.71v30.71h-4.19Z"/>
      <g>
        <polygon class="cls-1" points="60.29 1.12 60.29 12.01 60.29 18.14 60.29 22.11 60.29 28.73 60.29 41.68 64.35 41.68 64.35 1.12 60.29 1.12"/>
        <polygon class="cls-1" points="39.64 18.14 39.64 12.01 39.64 1.12 35.59 1.12 35.59 41.68 39.64 41.68 39.64 28.73 39.64 22.11 39.64 18.14"/>
      </g>
      <path class="cls-1" d="M118.97,22.85c3.4-.02,6.07-.46,8-1.31,1.93-.86,3.41-2.12,4.45-3.8,1.04-1.67,1.56-3.62,1.56-5.82,0-2.65-.75-4.88-2.26-6.69-1.51-1.81-3.46-3-5.87-3.55-1.6-.37-4.65-.55-9.15-.55h-4.03v3.97h7.15c2.78,0,4.77,.24,5.96,.72,1.2,.48,2.16,1.27,2.9,2.38,.74,1.11,1.1,2.35,1.1,3.71s-.36,2.66-1.09,3.79c-.73,1.13-1.74,1.95-3.04,2.47-1.3,.52-3.3,.77-6.01,.77l-6.99-.06v3.97h2.29l14.59,18.83h5.01l-14.58-18.83Z"/>
      <path class="cls-1" d="M50.5,19.38v4.05h-12.88v-4.05h12.88Z"/>
      <polygon class="cls-1" points="90.79 1.12 89.79 1.12 70.63 41.68 75.15 41.68 90.26 9.58 105.32 41.68 109.7 41.68 90.79 1.12"/>
      <path class="cls-1" d="M208.67,2.86c-3.29,1.83-5.88,4.36-7.77,7.6-1.89,3.24-2.83,6.74-2.83,10.5,0,5.05,1.65,9.51,4.94,13.36,4.28,5,10.09,7.5,17.43,7.5,6.04,0,10.87-1.8,14.48-5.41,3.61-3.61,5.43-8.48,5.46-14.61h-17.11v3.83h12.65c-.52,3.67-2.19,6.66-5.02,8.96-2.82,2.3-6.28,3.45-10.36,3.45-3.36,0-6.46-.77-9.28-2.31-2.82-1.54-5.04-3.65-6.64-6.34-1.6-2.69-2.4-5.53-2.4-8.51s.77-5.68,2.32-8.3c1.55-2.62,3.73-4.69,6.54-6.22,2.58-1.4,5.3-2.13,8.13-2.25V.14c-3.9,.09-7.42,.99-10.55,2.72Z"/>
      <path class="cls-1" d="M262.09,0h8.07V15.94l11.39-15.94h9.59l-14.65,20.2,16.07,21.74h-9.47l-12.93-17.16v17.16h-8.07V0Z"/>
      <path class="cls-1" d="M295.68,0h8.83l8.06,15.55,8.03-15.55h8.72l-12.65,24.5v17.44h-8.29V24.5L295.68,0Z"/>
      <path class="cls-1" d="M351.56,0c5.64,0,10.49,2.04,14.55,6.12,4.06,4.08,6.09,9.06,6.09,14.93s-2,10.74-6.01,14.77c-4,4.03-8.86,6.04-14.58,6.04s-10.96-2.07-14.91-6.21c-3.96-4.14-5.94-9.05-5.94-14.74,0-3.81,.92-7.32,2.77-10.51,1.84-3.2,4.38-5.73,7.61-7.6,3.23-1.87,6.7-2.8,10.43-2.8Zm-.08,7.43c-3.69,0-6.79,1.28-9.3,3.85-2.51,2.57-3.77,5.83-3.77,9.78,0,4.41,1.58,7.9,4.75,10.46,2.46,2.01,5.28,3.01,8.46,3.01,3.6,0,6.66-1.3,9.2-3.9,2.53-2.6,3.8-5.81,3.8-9.62s-1.28-7.01-3.83-9.63-5.65-3.94-9.3-3.94Z"/>
      <path class="cls-1" d="M429.84,0c5.64,0,10.49,2.04,14.55,6.12,4.06,4.08,6.09,9.06,6.09,14.93s-2,10.74-6.01,14.77c-4,4.03-8.86,6.04-14.58,6.04s-10.96-2.07-14.91-6.21c-3.96-4.14-5.94-9.05-5.94-14.74,0-3.81,.92-7.32,2.77-10.51,1.84-3.2,4.38-5.73,7.61-7.6,3.23-1.87,6.7-2.8,10.43-2.8Zm-.08,7.43c-3.69,0-6.79,1.28-9.3,3.85-2.51,2.57-3.77,5.83-3.77,9.78,0,4.41,1.58,7.9,4.75,10.46,2.46,2.01,5.28,3.01,8.46,3.01,3.6,0,6.66-1.3,9.2-3.9,2.53-2.6,3.8-5.81,3.8-9.62s-1.28-7.01-3.83-9.63-5.65-3.94-9.3-3.94Z"/>
      <path class="cls-1" d="M373.96,0h33.45V8.11h-12.58V41.87h-8.34V8.11h-12.53V0Z"/>
    </g>
  </g>
</svg>