<?xml version="1.0" encoding="UTF-8"?><svg xmlns="http://www.w3.org/2000/svg" width="435" height="182.9" viewBox="0 0 435 182.9"><defs><style>.e{fill:#222;}</style></defs><g id="a"/><g id="b"><g id="c"><path id="d" class="e" d="M311.56,174.84c0-4.37,3.79-8.06,8.27-8.06,2.16-.08,4.25,.75,5.76,2.3l.26,.26-3.12,3.12-.26-.24c-.72-.67-1.66-1.03-2.64-1.03-1.93-.05-3.54,1.48-3.59,3.42,0,.08,0,.16,0,.24-.06,1.95,1.47,3.59,3.43,3.65,.05,0,.11,0,.16,0,.96-.02,1.88-.41,2.56-1.09l.26-.26,3.13,3.05-.25,.27c-1.49,1.56-3.54,2.44-5.7,2.44-4.87,0-8.27-3.31-8.27-8.06Zm23.51,4.75c0-1.83,1.48-3.31,3.31-3.31s3.31,1.48,3.31,3.31-1.48,3.31-3.31,3.31c-1.83,0-3.31-1.48-3.31-3.31h0Zm-87.94,2.96v-15.41h4.68v15.41h-4.68Zm-117.62,0v-26.41h4.9v26.41h-4.9Zm157.34,0v-7.71c0-2.15-1.48-3.65-3.59-3.65-1.93-.05-3.54,1.48-3.58,3.41,0,.08,0,.16,0,.24v7.71h-4.68v-7.71c0-4.98,4.33-8.06,8.34-8.06,4.83,0,8.2,3.31,8.2,8.06v7.71h-4.69Zm-103.46,0l-.11-.12-17.85-18.87v18.99h-4.9v-26.41h4.05l.11,.12,17.85,18.87v-18.99h4.9v26.41h-4.05Zm-82.11,0l-8.01-9.67-8.08,9.67h-5.82l11.03-13.21-10.96-13.21h5.96l.11,.13,7.83,9.53,8.08-9.67h5.82l-10.96,13.14,10.95,13.28h-5.96Zm145.42-24c.02-1.55,1.29-2.78,2.84-2.77,1.51-.02,2.75,1.2,2.77,2.71v.06c.02,1.55-1.22,2.82-2.77,2.84-1.56-.02-2.82-1.28-2.84-2.84h0Zm-55.76-52.55V.14h53.12V105.99h-53.12Zm160.29-22.22l-22.04,22.05V0l83.77,20.57L435,0V105.81l-83.77-22.04Zm-298.33,7.35L0,105.81V0L52.91,14.7,105.81,0V105.81l-52.9-14.7Z"/></g></g></svg>