<svg xmlns="http://www.w3.org/2000/svg" xml:space="preserve" id="レイヤー_1" x="0" y="0" style="enable-background:new 0 0 917.9 127.8" version="1.1" viewBox="0 0 917.9 127.8"><style>.st1{fill:none;stroke:#ddd}</style><g style="enable-background:new"><path d="M63.7 15.4H37.4v81.4H26.7V15.4H.5V5.7h63.2v9.7zM108.5 96.7H98.1V86.6h-.3c-4.5 7.8-11.2 11.7-20 11.7-6.5 0-11.5-1.7-15.2-5.1-3.7-3.4-5.5-8-5.5-13.6 0-12.1 7.2-19.2 21.5-21.2l19.5-2.7c0-11-4.5-16.6-13.4-16.6-7.8 0-14.9 2.7-21.2 8V36.3c6.4-4.1 13.8-6.1 22.1-6.1 15.3 0 22.9 8.1 22.9 24.2v42.3zM98.1 63.8 82.4 66c-4.8.7-8.5 1.9-10.9 3.6-2.5 1.7-3.7 4.8-3.7 9.1 0 3.2 1.1 5.8 3.4 7.8s5.3 3 9 3c5.2 0 9.4-1.8 12.8-5.4 3.4-3.6 5-8.2 5-13.7v-6.6zM182 96.7h-14.6l-28.7-31.2h-.3v31.2H128V.5h10.4v61h.3L166 31.7h13.6l-30.2 31.4L182 96.7zM245.3 96.7h-10.4V86.4h-.3c-4.3 7.9-11 11.8-20.1 11.8-15.5 0-23.2-9.2-23.2-27.7V31.7h10.3v37.2c0 13.7 5.2 20.6 15.7 20.6 5.1 0 9.3-1.9 12.5-5.6 3.3-3.7 4.9-8.6 4.9-14.7V31.7h10.4v65zM318 31.7l-29.9 75.4c-5.3 13.5-12.8 20.2-22.5 20.2-2.7 0-5-.3-6.8-.8v-9.3c2.2.8 4.3 1.1 6.2 1.1 5.2 0 9.2-3.1 11.8-9.4l5.2-12.3-25.4-64.9h11.6l17.6 50c.2.6.7 2.3 1.3 5h.4c.2-1 .6-2.6 1.3-4.8l18.5-50.1H318zM375.7 96.7h-10.4V86.6h-.3c-4.5 7.8-11.2 11.7-20 11.7-6.5 0-11.5-1.7-15.2-5.1-3.7-3.4-5.5-8-5.5-13.6 0-12.1 7.2-19.2 21.5-21.2l19.5-2.7c0-11-4.5-16.6-13.4-16.6-7.8 0-14.9 2.7-21.2 8V36.3c6.4-4.1 13.8-6.1 22.1-6.1 15.3 0 22.9 8.1 22.9 24.2v42.3zm-10.4-32.9L349.6 66c-4.8.7-8.5 1.9-10.9 3.6-2.5 1.7-3.7 4.8-3.7 9.1 0 3.2 1.1 5.8 3.4 7.8s5.3 3 9 3c5.2 0 9.4-1.8 12.8-5.4 3.4-3.6 5-8.2 5-13.7v-6.6zM443 96.7h-10.7v-91H443v91zM547.4 31.7l-19.5 65h-10.8l-13.4-46.5c-.5-1.8-.8-3.8-1-6h-.3c-.1 1.5-.6 3.5-1.3 5.9l-14.5 46.7h-10.4l-19.7-65h10.9l13.5 48.9c.4 1.5.7 3.4.9 5.8h.5c.1-1.9.5-3.9 1.1-6l15-48.8h9.5l13.5 49c.4 1.6.7 3.5 1 5.8h.5c.1-1.7.4-3.6 1.1-5.8l13.2-49h10.2zM606 96.7h-10.4V86.6h-.3c-4.5 7.8-11.2 11.7-20 11.7-6.5 0-11.5-1.7-15.2-5.1-3.7-3.4-5.5-8-5.5-13.6 0-12.1 7.2-19.2 21.5-21.2l19.5-2.7c0-11-4.5-16.6-13.4-16.6-7.8 0-14.9 2.7-21.2 8V36.3c6.4-4.1 13.8-6.1 22.1-6.1 15.3 0 22.9 8.1 22.9 24.2v42.3zm-10.4-32.9L579.9 66c-4.8.7-8.5 1.9-10.9 3.6-2.5 1.7-3.7 4.8-3.7 9.1 0 3.2 1.1 5.8 3.4 7.8s5.3 3 9 3c5.2 0 9.4-1.8 12.8-5.4 3.4-3.6 5-8.2 5-13.7v-6.6zM717.9 96.7h-10.4V59.4c0-7.2-1.1-12.4-3.3-15.6-2.2-3.2-6-4.8-11.2-4.8-4.4 0-8.2 2-11.3 6.1-3.1 4.1-4.7 8.9-4.7 14.6v37.1h-10.4V58.1c0-12.8-4.9-19.2-14.8-19.2-4.6 0-8.3 1.9-11.3 5.7-3 3.8-4.4 8.8-4.4 14.9v37.1h-10.4v-65H636V42h.3c4.6-7.9 11.3-11.8 20.2-11.8 4.4 0 8.3 1.2 11.6 3.7 3.3 2.5 5.6 5.7 6.8 9.7 4.8-9 12-13.5 21.6-13.5 14.3 0 21.5 8.8 21.5 26.5v40.1zM764.8 98.3c-9.6 0-17.3-3-23-9.1-5.7-6.1-8.6-14.1-8.6-24.2 0-10.9 3-19.4 9-25.6 6-6.1 14-9.2 24.2-9.2 9.7 0 17.3 3 22.7 9 5.4 6 8.2 14.2 8.2 24.8 0 10.4-2.9 18.7-8.8 24.9-6 6.2-13.9 9.4-23.7 9.4zm.7-59.3c-6.7 0-12 2.3-15.9 6.8-3.9 4.5-5.8 10.8-5.8 18.8 0 7.7 2 13.8 5.9 18.2s9.2 6.7 15.8 6.7c6.7 0 11.9-2.2 15.5-6.5 3.6-4.4 5.4-10.6 5.4-18.6 0-8.1-1.8-14.4-5.4-18.8-3.6-4.4-8.8-6.6-15.5-6.6zM843.9 96.1c-2.5 1.4-5.7 2-9.7 2-11.4 0-17.1-6.3-17.1-19V40.6H806v-8.9h11.2V15.9l10.4-3.4v19.2H844v8.9h-16.4v36.6c0 4.4.7 7.5 2.2 9.3 1.5 1.9 3.9 2.8 7.4 2.8 2.6 0 4.9-.7 6.8-2.2v9zM885 98.3c-9.6 0-17.3-3-23-9.1-5.7-6.1-8.6-14.1-8.6-24.2 0-10.9 3-19.4 9-25.6 6-6.1 14-9.2 24.2-9.2 9.7 0 17.3 3 22.7 9 5.4 6 8.2 14.2 8.2 24.8 0 10.4-2.9 18.7-8.8 24.9-6 6.2-13.9 9.4-23.7 9.4zm.7-59.3c-6.7 0-12 2.3-15.9 6.8-3.9 4.5-5.8 10.8-5.8 18.8 0 7.7 2 13.8 5.9 18.2s9.2 6.7 15.8 6.7c6.7 0 11.9-2.2 15.5-6.5 3.6-4.4 5.4-10.6 5.4-18.6 0-8.1-1.8-14.4-5.4-18.8-3.6-4.4-8.7-6.6-15.5-6.6z" class="st1"/></g></svg>