<svg xmlns="http://www.w3.org/2000/svg" width="212.241" height="563.163"><path fill="#fff" d="M73.202 79.031v-6.735l-3.848-6.828-5.033-1.463-3.834-5.58v-3.824l-4.96-9.725 2.687-23.659 6.765-8.833 4.482-4.955L84.58 1.962h17.5l16.6 6.667 6.917 16.353-1.034 19.938 3.512 1.044v6.506l-2.995 7.028-4.96.727-4.716 12.569a24.615 24.615 0 0 0-1.492 10.7v.19l5.272 6.511-3.512 8.472-25.552 9.613-18.265-9.613Z" data-name="パス 918"/><path fill="#fff" d="m178.258 291.518.371 5.009-4.965 19.68 9.8 6.253 2.395 10.267 8.642 1.39 10.574-2.936 5.867-15.978-1.312-4.385-10.804-25.719Z" data-name="パス 919"/><path fill="#fff" d="M93.945 511.744c.137 1.619-2.19 25.1-2.19 25.1l.634 4.58-19.177 10.51-34.482 6.979-15.992-4.443-4.16-4.229 2.117-8.252 4.019-3.809 16.093-5.196 17.2-15.056 7.545-1.185 1.9-5Z" data-name="パス 920"/><path fill="#fff" d="m99.744 509.91-2.253 18.475.351 11.208 27.356 16.5 21.913 2.268 12.852-5.862.493-6.277-8.321-10.891-16.5-19.568-6.662-9.872Z" data-name="パス 921"/><path d="M156.433 240.379c-.054 1.736-.151 3.473-.146 5.209 0 3.165.137 6.34.093 9.5-.044 3.731-.2 7.467-.341 11.218a3.942 3.942 0 0 1-1.463 3.258 2.058 2.058 0 0 0-.556 1.517c.063 6 .19 12 .278 18 .063 4.448.151 8.9.117 13.354-.024 3.741-.21 7.482-.317 11.218-.083 2.995-.141 5.994-.234 8.989-.122 4.268-.3 8.54-.385 12.813-.083 4.146.039 8.291-.127 12.437-.278 6.994-.7 13.983-1.1 20.972-.059 1.029-.385 2.039-.488 3.068-.176 2-.263 4-.4 6.009-.2 2.9-.38 5.809-.6 8.711-.234 3.116-.41 6.238-.775 9.335-.439 3.682-1.044 7.345-1.59 11.013a125.924 125.924 0 0 0-1.541 19.4c.024 4.234-.107 8.482-.4 12.681-.18 2.658-.858 5.277-1.161 7.93-.4 3.482-.6 6.989-.975 10.481-.546 5.282-1.151 10.564-1.731 15.841-.2 1.766-.356 3.536-.59 5.292-.366 2.751-.863 5.487-1.156 8.247-.249 2.365-.341 4.75-.424 7.13-.112 3.238-.112 6.477-.239 9.711a2.473 2.473 0 0 1-1.858 2.439c-2.624.839-5.277 1.624-7.8 2.673-2.678 1.1-5.526 1.063-8.291 1.336-3.716.371-7.511-.029-11.271-.073h-6.57c-.556 2.336-.634 4.6 1.049 6.477a10.7 10.7 0 0 0 2.653 1.883c.219.127.766-.107 1.058-.317a26.078 26.078 0 0 1 16.095-4.911c2.336.049 4.668.322 6.872.488a786.371 786.371 0 0 1-2-4.39c1.132-.141 1.951-.21 2.639.941 1.083 1.858 2.39 3.58 3.624 5.365 2.926 4.151 6.892 7.316 10.242 11.076a85.5 85.5 0 0 1 6.106 8.257 2.029 2.029 0 0 1-.234 1.951c-.693.658-1.361 0-1.834-.639-.975-1.356-1.922-2.76-2.975-4.058-2.556-3.146-5.17-6.243-7.75-9.369a35.786 35.786 0 0 1-1.551-1.985c-1.122-1.551-2.9-1.951-4.511-2.707a23.683 23.683 0 0 0-15.724-1.629 56.646 56.646 0 0 0-7.613 2.926.922.922 0 0 0-.385.722c0 1.3-.79 1.517-1.756 1.249-3.443-.941-7.131-4.726-6.7-8.584a22.114 22.114 0 0 1 .463-2.17c-1.044-.229-1.419.307-1.707 1.171a26.616 26.616 0 0 0-1.253 8.569c0 4.39-.385 8.779-.6 13.134v.142a12.633 12.633 0 0 1 1.951 1.38c2.063 2.229 3.794 4.877 6.17 6.692a66.77 66.77 0 0 0 9.725 5.74c2.4 1.263 5.014 2.127 7.472 3.292a20.729 20.729 0 0 1 2.8 1.951 8.2 8.2 0 0 0 5.033 1.731c2.375-.073 4.76 0 7.111-.258 2.268-.254 4.487-.873 6.735-1.307 1.9-.371 3.8-.751 5.721-1.049a4.642 4.642 0 0 1 2.107.073c2.463.844 4.243-.439 5.975-1.824a1.507 1.507 0 0 0 .361-1.239 15.139 15.139 0 0 0-3.238-6.394c-.488-.615-.824-1.346-1.3-1.951s-1.132-1.307-1.668-1.985a7.22 7.22 0 0 1-.571-1c.4-.18.975-.629 1.171-.488a11.822 11.822 0 0 1 2.439 1.912c1.024 1.083 1.883 2.317 2.858 3.448a15.1 15.1 0 0 1 3.092 7.184c.239 1.21.688 2.375.9 3.585.6 3.414-2.439 7.272-5.95 7.54-6.384.488-12.773.951-19.153 1.5-2.439.215-4.877.78-7.316.936a12.193 12.193 0 0 1-8.247-2.575 56.048 56.048 0 0 0-5.516-3.365 1.258 1.258 0 0 0-1.136 0 1.785 1.785 0 0 1-2.326-.117c-1.161-.907-2.195-1.98-3.356-2.887-1.7-1.327-3.546-2.478-5.185-3.877-2.926-2.512-5.906-5.028-8.052-8.291a6.073 6.073 0 0 1-.663-3.044c-.073-2.926 0-5.818 0-8.73 0-2.687-.278-5.365-.107-8.062.229-3.58.766-7.14 1.171-10.73-1.775-.346-2.863-.083-2.951 2.687-.117 3.726-.571 7.452-.546 11.174.029 5 .371 10 .61 14.993a2 2 0 0 1-.649 1.678c-2.439 2.6-5.809 3.594-8.779 5.253-3.18 1.77-6.511 3.292-9.633 5.155-1.873 1.117-3.9 1.176-5.887 1.517-7.633 1.312-15.3 2.482-22.923 3.8-2.341.4-4.619 1.166-6.945 1.678-.922.2-1.951.337-2.287-.458a12.633 12.633 0 0 1-3.087.488 28.358 28.358 0 0 1-11.866-3.872 5.255 5.255 0 0 1-1.312-1.1c-.2-.244-.171-.688-.244-1.039a2.868 2.868 0 0 1 1.049-.137c4.077 1.088 8.15 2.214 12.222 3.331l3.3.9c1.57-.429 3.414-1.053 5.316-1.434 5.711-1.141 11.442-2.195 17.168-3.263 3.317-.62 6.618-1.429 9.964-1.722 2.882-.258 5.131-1.5 7.506-2.926 3.058-1.868 6.423-3.224 9.628-4.877a18.9 18.9 0 0 0 4.038-2.439c.6-.546.58-1.795.839-2.726l-.293-.21c-1.058.556-2.146 1.068-3.175 1.678-3.707 2.2-7.589 4.165-11.013 6.74-2.312 1.741-4.746 1.98-7.316 2.3-5.765.712-11.54 1.346-17.285 2.2a69.917 69.917 0 0 0-7.287 1.849c-.127.034-.263.151-.371.122-.736-.18-1.77.419-2.141-.717-.19-.571.975-1.892 1.683-2.1 3.57-1.024 7.116-2.127 10.7-3.073a29.429 29.429 0 0 1 4.355-.6c5.258-.585 10.535-1.049 15.768-1.795 1.166-.166 2.19-1.317 3.278-2.014 3.414-2.19 6.828-4.453 10.311-6.516a2.319 2.319 0 0 0 1.463-2.18c.127-3.17.341-6.34.6-9.5.278-3.341.649-6.677.975-10.018 0-.2 0-.419.039-.907a10.508 10.508 0 0 0-1.463.9c-2.556 2.336-5.238 4.56-7.574 7.106a7.193 7.193 0 0 1-4.39 2.258c-1.234.214-2.473.795-3.677-.073a5.856 5.856 0 0 1-1.37-1.127c-2.439-3.243-5.5-5.2-9.657-4.877-1.2.083-2.385.839-3.575.839-2.619 0-4.233 1.649-6.038 3.107-2.322 1.883-4.765 3.614-7.062 5.521s-4.516 4.029-6.828 6.009a11.437 11.437 0 0 1-5.516 2.96c-2.692.522-5.18 2.122-7.755 3.258-.8.356-1.6.736-2.409 1.092-.975.424-1.814.234-2.166-.756s.234-1.58 1.122-1.912a50.4 50.4 0 0 1 6.414-2.307c4.692-1.034 8.218-3.824 11.705-6.872 3.346-2.926 6.926-5.58 10.374-8.389a33.49 33.49 0 0 0 2.7-2.487c1.741-1.7 3.99-1.751 6.194-1.951l3.458-.341c.141-.717.268-1.346.449-2.244a21.466 21.466 0 0 1-3.414-1.463 3.122 3.122 0 0 1-1.083-1.9 156.766 156.766 0 0 0-4.911-19.021c-1.127-3.375-2.244-6.76-3.209-10.184-1.014-3.585-1.824-7.228-2.751-10.837-1.512-5.882-3.126-11.735-4.531-17.636-1.234-5.18-2.395-10.384-3.278-15.607-.522-3.082-2.18-5.462-3.638-8.047-1.063-1.873-3.087-3.287-3.024-5.731.039-1.507.249-3.009.293-4.516.063-1.98.029-3.965.059-5.945.049-4.1.083-8.189.18-12.286.117-5.053.39-10.106.424-15.163.034-5.643-.2-11.286-.19-16.929a74.695 74.695 0 0 0-1.5-15.012 57.7 57.7 0 0 1-.488-6.584c-.249-2.79-.19-5.58-1.044-8.35-.7-2.273-.615-4.789-.917-7.189-.458-3.614-1.039-7.213-1.4-10.837-.288-2.839-.332-5.7-.488-8.555q-.268-5.336-.517-10.666c-.151-3.331-.219-6.667-.429-10-.2-3.068-.527-6.126-.8-9.189a4.6 4.6 0 0 1-.161-1.175c.488-2.517-1.073-3.9-2.858-5.126-.922-.634-1.917-1.171-2.848-1.795a5.2 5.2 0 0 1-2.478-3.9c-.078-.761-.385-1.5-.488-2.263-.244-1.77-.424-3.551-.639-5.423-3.9-.888-4.131-1.288-3.365-5.706a2.78 2.78 0 0 0-.541-1.951c-3.117-3.9-6.311-7.7-9.481-11.535a.865.865 0 0 1-.078-.107 7.8 7.8 0 0 0-3.994-2.926c-1.375-.434-2.044-2.736-1.639-4.7a52.836 52.836 0 0 0 .975-6.882c.19-2.751 0-5.531.215-8.291.2-2.839.663-5.658.975-8.491.322-3.151.488-6.34.893-9.457.488-3.7 1.083-7.389 1.819-11.047 1.239-6.14 2.7-12.232 3.9-18.377.712-3.58.975-7.248 1.731-10.818.873-4.131 2.1-8.184 3.1-12.286.654-2.663 1.336-5.331 1.746-8.033.975-6.526 1.683-13.105 2.814-19.606 1.039-5.984 2.575-11.886 3.741-17.851.707-3.619.956-7.287 1.683-10.837.663-3.258 1.624-4.677 5.414-5.121a86.874 86.874 0 0 0 10.242-1.863c5.4-1.3 10.788-2.682 16.095-4.316 3.673-1.132 7.17-2.814 10.793-4.121a40.087 40.087 0 0 1 5.853-1.58c1.463-.3 2.141.234 2.468 1.663q1.283 5.614 2.478 11.242a5.307 5.307 0 0 1-.088 1.132c-.034 1.117.044 2.244-.093 3.346-.18 1.463.936 1.9 1.766 2.648a23.48 23.48 0 0 0 14.671 5.853c3.195.21 6.433.6 9.535-.439 3.321-1.112 6.579-2.439 9.828-3.751a1.6 1.6 0 0 0 .649-1.351c-.488-2.843-1.078-5.672-1.678-8.491a12.542 12.542 0 0 0-.693-1.98 3.716 3.716 0 0 1 .566-3.946 2.151 2.151 0 0 1 1.624-.439c2.307.234 3.946 1.751 5.419 3.3 2.239 2.351 5.145 3.658 7.877 5.15 3.38 1.844 7.106 3.038 10.593 4.711 2.492 1.195 4.8 2.765 7.243 4.068 2.2 1.175 4.507 2.17 6.721 3.326 2.37 1.239 4.692 2.565 7.023 3.872 2.439 1.385 4.853 2.814 7.8 2.926a3.741 3.741 0 0 1 2.926 1.551c.59.761 1.77 1.049 2.653 1.609a2.268 2.268 0 0 1 .732.868 13.169 13.169 0 0 1 1.624 6.955c-.151 2.439.307 4.98-.137 7.36-.932 5.028.112 9.886.619 14.807.2 1.844.429 3.682.6 5.531.59 6.472 1.146 12.944 1.751 19.411.244 2.59.585 5.165.854 7.75.117 1.132.156 2.268.254 3.414q.517 5.936 1.058 11.861a16.026 16.026 0 0 0 .41 2.6 1.732 1.732 0 0 0 .8.922 9.167 9.167 0 0 0 1.463.488c1.5.561 2.975 2.078 1.848 4.311l-.117.234c-1.073 2.136-1.073 2.136.912 3.37 1.39.863 1.4 1.692.2 2.8a5.873 5.873 0 0 0-.9 1.658c2.18 1.41 2.263 2.17.975 4.433a6.116 6.116 0 0 0-.668 2.99c0 4.014 2.009 7.55 2.843 11.379.732 3.356 1.629 6.687 2.59 9.989.893 3.082 1.951 6.121 2.975 9.169.707 2.126 1.512 4.219 2.17 6.34 1.463 4.838 2.892 9.7 4.341 14.539q1.595 5.326 3.214 10.642c.41 1.346.834 2.7 1.322 4.019.81 2.195.488 3.248-1.5 4.438a53.066 53.066 0 0 1-20.909 6.828c-1.263.146-2.439.8-3.795.561a2.357 2.357 0 0 1-2.219-1.853c-.815-2.99-1.556-6.019-2.639-8.916-1.488-3.96-3.346-7.8-4.877-11.705-1.044-2.658-1.785-5.438-2.717-8.145q-2.765-8.047-5.6-16.095c-.454-1.278-1-2.522-1.522-3.775a6.831 6.831 0 0 0-.434-.751Zm-79.27-142.9-.385.073c-.049 3.614-.127 7.233-.137 10.847s.117 7.116.054 10.671c-.044 2.283-.341 4.555-.488 6.828-.278 3.785-.488 7.574-.81 11.354-.322 3.965-.751 7.921-1.063 11.881-.41 5.272-.79 10.545-1.112 15.822-.312 5.111-.658 10.242-.756 15.339-.1 5.643.063 11.3.107 16.944v5.131c.683-.239 1.2-.4 1.717-.6 4.238-1.653 8.457-3.375 12.725-4.955 4.5-1.663 9.072-3.126 13.554-4.824 3.024-1.141 5.965-2.521 8.925-3.824 2.165-.951 4.292-1.995 6.477-2.892a19.708 19.708 0 0 1 3.36-.936.936.936 0 0 1 .81.444 1.463 1.463 0 0 1-.229 1.063 2.064 2.064 0 0 1-.883.536c-1.566.7-3.141 1.375-4.707 2.058-5.487 2.395-10.915 4.921-16.47 7.135-3.99 1.59-8.169 2.687-12.193 4.131s-7.882 3.024-11.842 4.472a1.557 1.557 0 0 0-1.161 1.775c.083 3.872.127 7.74.171 11.608v4.5c2.439-1.766 4.526-3.3 6.633-4.828q6.55-4.741 13.1-9.472c2.995-2.161 5.975-4.336 9.008-6.433 2.439-1.7 4.97-3.3 7.472-4.926a24.539 24.539 0 0 1 3.385-2.039c.424-.185 1.151.3 1.741.488-.156.336-.219.81-.488.975-1.575 1.073-3.224 2.044-4.8 3.107-2.985 2.009-5.989 3.99-8.9 6.106-3.414 2.478-6.721 5.087-10.076 7.633-2.926 2.219-5.853 4.448-8.779 6.643-2.639 1.951-5.267 3.96-7.989 5.814-.79.536-1.327.854-1.21 1.951.4 3.858.717 7.721.975 11.588.063.849.337 1.132 1.19 1.175 2.161.1 4.316.288 6.472.488 4.092.371 8.194.683 12.266 1.195 4.936.619 9.754-.239 14.563-.975 3.248-.488 6.482-1.078 9.73-1.551a1.692 1.692 0 0 0 1.624-1.463c.317-1.322.776-2.609 1.127-3.9a24.07 24.07 0 0 0 .975-4.194c.337-4.521.571-9.052.741-13.583.161-4.355.161-8.721.293-13.076.1-3.3.229-6.594.463-9.886.244-3.478.58-6.95.975-10.418.527-4.877-.288-9.672-.707-14.481-.322-3.716-1.078-7.394-1.541-11.1-.419-3.365-.683-6.74-1.039-10.111-.488-4.624-1.01-9.242-1.5-13.866-.4-3.7-.736-7.4-1.151-11.1-.146-1.263-.488-2.5-.673-3.76a240.018 240.018 0 0 1-.707-5.092c-.337-2.483-.654-4.975-1.014-7.457-.278-1.878-.61-3.746-.912-5.57-2.546.975-4.8 1.926-7.1 2.761a27.65 27.65 0 0 1-5.506 1.717 33.311 33.311 0 0 1-12.339-.624 22.991 22.991 0 0 1-10.286-4.877q-.868-.693-1.678-1.429Zm6.54 300.087c1.088 0 1.829-.058 2.556 0 2.624.259 3.185 1.488 1.7 3.658a2.573 2.573 0 0 0-.317.707c-.424 1.419-.834 2.843-1.249 4.268-.288.975-.824 1.849-.41 3.024a82.92 82.92 0 0 1 2.658 8.574c1.346 5.7 2.473 11.452 3.726 17.173.463 2.117 1.151 4.19 1.517 6.341.883 5.1 1.756 10.2 2.395 15.329.683 5.5 1.088 11.042 1.624 16.583.176 1.819.38 3.643.576 5.463a32.745 32.745 0 0 0 .224-4.965c-.049-3.3-.171-6.609-.176-9.915 0-2.775.21-5.55.171-8.326-.029-1.839-.41-3.673-.488-5.516-.346-6.033-.722-12.061-.917-18.1-.146-4.511-.054-9.033-.034-13.549 0-2.863.1-5.726.141-8.594.044-3.263.161-6.526.083-9.784-.141-5.892-.488-11.774-.6-17.665-.083-3.931-.034-7.867.093-11.793.132-4.18.488-8.35.629-12.525.122-3.746.059-7.491.1-11.218.044-4 .088-8 .171-12.008.073-3.692.244-7.379.3-11.071.073-4.331.083-8.662.063-12.993a1.77 1.77 0 0 0-.576-1.341 13.144 13.144 0 0 0-6.389-2.253c-.727 0-1.2.039-1.229.917a16.706 16.706 0 0 1-.239 2.083c-.312 2.4-.707 4.8-.932 7.218-.488 5.365-.839 10.73-1.395 16.095-.488 4.546-1.171 9.067-1.722 13.6q-.727 5.936-1.341 11.886c-.571 5.653-1.175 11.3-1.6 16.963-.361 4.824-.488 9.657-.717 14.49-.063 1.336.38 1.888 1.673 2.073a8.413 8.413 0 0 1 1.161.224 1.4 1.4 0 0 1 .746 2.439c-.591.676-1.159 1.441-1.976 2.505ZM121.36 91.355c-1.044.488-1.551.814-1.049 1.751 2.258 4.185 4.458 8.4 6.706 12.6 1.5 2.8 3.112 5.55 4.56 8.384 1.156 2.263 2.131 4.619 3.273 7.126h-5.682c-1.341 1.312-1.039 2.468-.337 3.673.488.868.932 1.79 1.375 2.7q2.824 5.77 5.638 11.549c1.361 2.819 2.59 5.711 4.1 8.452.766 1.385 1.492 2.517.141 3.9-.141.141-.151.41-.239.61-1.848 4.253-1.463 8.9-2.341 13.329-.517 2.653-.527 5.4-.844 8.091-.254 2.165-.678 4.307-.922 6.467-.317 2.814-.488 5.643-.795 8.462-.317 2.99-.693 5.975-1.068 8.955-.424 3.414-.834 6.828-1.322 10.2-.512 3.58-1.044 7.155-1.687 10.73-.546 3-1.288 5.965-1.9 8.955s-1.2 5.979-1.736 8.984c-.151.858.117 1.741 1.122 1.848 1.132.117 1.346-.741 1.57-1.7.888-3.848 1.951-7.667 2.824-11.515q1.073-4.59 1.951-9.223c.424-2.312.658-4.658 1.019-6.984.332-2.161.795-4.3 1.053-6.467.424-3.5.673-7.023 1.088-10.52.639-5.4 1.4-10.793 2.024-16.2.712-6.165 1.268-12.349 2.014-18.533.2-1.707.39-3.512 1.575-4.941s.829-2.926.088-4.414c-1.78-3.6-3.512-7.218-5.277-10.823q-2.5-5.116-5.024-10.218c-.312-.639-.6-1.292-1.01-2.175h3.9a2.044 2.044 0 0 0 2.014-2.97 100.606 100.606 0 0 0-5.365-10.705c-2.624-4.277-4.931-8.745-7.448-13.091-1.253-2.136-2.634-4.16-3.99-6.282Zm-60.478 23.728c-1.41 1.658-2.7 3.073-3.873 4.575-2.341 3.009-4.614 6.067-6.926 9.1a3.414 3.414 0 0 0-.668 3.195 17.3 17.3 0 0 1 .673 2.673q.975 7.8 1.853 15.656c.366 3.185.6 6.384 1.019 9.559.683 5.219 1.463 10.428 2.2 15.636.488 3.375.975 6.755 1.488 10.125.356 2.3.873 4.585 1.161 6.892.536 4.258.917 8.535 1.463 12.788.3 2.39.746 4.76 1.234 7.116.078.376.727.634 1.112.941.288-.415.766-.81.819-1.253a8.58 8.58 0 0 0-.176-2.219c-.419-2.995-.893-5.984-1.288-8.984-.556-4.2-1.029-8.418-1.595-12.622-.385-2.843-.912-5.672-1.292-8.521q-1.127-8.457-2.156-16.924c-.727-6.023-1.38-12.057-2.092-18.08-.488-4.3-1.088-8.6-1.575-12.9a2.658 2.658 0 0 1 .429-1.712q2.526-3.414 5.2-6.682c1.9-2.336 3.785-4.711 5.853-6.877 1.219-1.268 1.312-2.595-.307-3.356a46.625 46.625 0 0 0-5.185-2.151c-2.1-.688-4.263-1.166-6.653-1.8.849-1.058 1.536-1.951 2.244-2.795 1.951-2.341 3.9-4.668 5.828-7.009 3-3.634 6-7.262 8.96-10.93a1.189 1.189 0 0 0 .034-1.092 2.146 2.146 0 0 0-1.395-.263c-.322.059-.58.488-.849.8-3.863 4.238-7.779 8.428-11.564 12.73-2.375 2.692-4.57 5.521-6.765 8.355a1.729 1.729 0 0 0 .975 2.882c.9.288 1.844.458 2.76.7 2.936.79 5.882 1.59 9.052 2.448Zm37.867 421.228a4.338 4.338 0 0 0 1.463 5.365c.668.551 1.366 1.058 2.009 1.634q4.175 3.7 8.335 7.428a12.657 12.657 0 0 1 2.151 1.951c1.107 1.556 2.078 3.165 4.39 2.707a.976.976 0 0 1 .488.146 69.725 69.725 0 0 1 6.594 2.97 12.994 12.994 0 0 0 8.613 1.561c4.429-.62 8.891-1 13.325-1.576 3.955-.512 8.008.18 11.905-1.166a4.647 4.647 0 0 0 3.009-4.921c-2.283 1.678-4.653 2.985-7.6 2.063a.607.607 0 0 0-.263 0c-1.849.371-3.7.736-5.55 1.112-2.756.566-5.492 1.312-8.291 1.663a49.533 49.533 0 0 1-7.516.229 9.6 9.6 0 0 1-5.658-1.819 23.116 23.116 0 0 0-3.9-2.4c-3.048-1.463-6.238-2.629-9.223-4.2a32.349 32.349 0 0 1-6.9-4.516c-2.653-2.487-4.931-5.477-7.379-8.228Zm-31.307-20.9c4.336.551 7.316 3.043 10.091 6.009.488-.127 1.034-.258 1.575-.424.727-.224 1.658-.268 2.126-.756 1.541-1.595 2.926-3.36 4.39-5.111-2.263 0-4.419.078-6.57 0-2.79-.122-5.57-.488-8.36-.522-1-.034-2.292-.649-3.248.8Z" data-name="パス 922"/><path d="M192.821 332.959a1.432 1.432 0 0 0 2.107.171c1.541-.946 3.146-1.81 4.609-2.873a10.763 10.763 0 0 0 2.361-2.439c2.366-3.317 4.653-6.691 6.96-10.047a4.62 4.62 0 0 0 .3-.649 9.3 9.3 0 0 0-5.258 1.7 3.328 3.328 0 0 1-3.585.322c-.975-.536-1.634.073-2.346.58a39.173 39.173 0 0 1-3.234 2.224c-1.219.7-2.5.024-3.239-1.326-.185-.332.024-.873.054-1.322.424.054.975-.044 1.248.19a1.3 1.3 0 0 0 1.975-.054c.873-.727 1.712-1.5 2.614-2.19a3.712 3.712 0 0 1 3.273-.849 2.082 2.082 0 0 0 1.146-.063c2.229-.8 4.438-1.678 6.667-2.478.941-.341 1.234-.561.488-1.571-.59-.771-.566-1.99-.927-2.965a26.12 26.12 0 0 0-1.19-2.439c-1.166-2.361-2.478-4.658-3.448-7.1-1.171-2.926-2.039-5.965-3.043-8.959a35.84 35.84 0 0 1-3.926 1.951c-2.721.907-5.526 1.556-8.262 2.439a16.428 16.428 0 0 1-7.687.537 1.184 1.184 0 0 1-.132 0c-1.214-.2-2.512-1.278-2.273-1.99.488-1.463 1.658-.556 2.561-.615a29.677 29.677 0 0 0 6.023-.527 67.556 67.556 0 0 0 8.779-3.024 33.942 33.942 0 0 0 5.453-3c1.014-.654 1.9-.854 2.629.093.824 1.063-.093 1.77-.834 2.438l-.537.458c2.336 5.175 4.76 10.4 7.057 15.685a54.554 54.554 0 0 1 2.2 6.341c.141.488-.3 1.136-.727 1.668.044.122.054.327.132.356 2.361.824 1.185 2.546.78 3.8-1.566 4.77-3.292 9.486-4.98 14.217-.488 1.331-1.736 1.688-2.868 2.034-1.663.512-3.414 1.224-5.082 1.092a7.84 7.84 0 0 0-3.819.693c-.9.361-2.146-.1-3.234-.229q-2.522-.307-5.033-.673c-.975-.146-1.863-.356-2.063-1.624-.273-1.717-.673-3.414-1.092-5.1-.122-.488-.556-.873-.766-1.346-.41-.912-.756-1.849-1.024-2.512l-2.517-1.175a32.421 32.421 0 0 1-4.492-2.131 7.238 7.238 0 0 1-2.8-2.961 7.558 7.558 0 0 1 .795-6.589 70.485 70.485 0 0 0 5.628-13.793c.293-.936.819-1.585 1.736-1.258.795.283.936 1.141.673 1.99a109.711 109.711 0 0 1-5.916 16.051 7.369 7.369 0 0 0-.737 2.224 1.463 1.463 0 0 0 .693 1.117c1.219.654 2.5 1.21 3.775 1.751.975.42 1.99.761 2.926 1.122-.273-2.341-.6-4.78-.815-7.228a2.132 2.132 0 0 1 .6-1.244c.639.18 1.687.449 1.761.849.634 3.312 1.034 6.672 1.614 10 .488 2.731 1.107 5.438 1.683 8.15a1.258 1.258 0 0 0 1.4 1.1 5.853 5.853 0 0 1 2.3.488c.9.424 1.312 0 1.712-.639 1.312-2.121 2.59-4.258 3.951-6.34.2-.307.766-.371 1.166-.551.127.414.488.936.337 1.229a34.012 34.012 0 0 1-2.039 3.663c-.675 1.058-1.49 2.102-2.241 3.15Zm13.169-7.048-4.248 5.853c3.4-.537 3.243-3.643 4.268-5.853Z" data-name="パス 923"/><path d="M126.394 46.421c-.22.068-.38.107-.541.161-.975.327-2.092.766-2.668-.322a5.077 5.077 0 0 1 0-2.5c.171-1.575.532-3.136.595-4.711.146-3.653.322-7.316.185-10.964a28.166 28.166 0 0 0-3.014-11.632 17.43 17.43 0 0 0-5.058-6.409c-.273-.2-.668-.293-.873-.541a13.822 13.822 0 0 1-.951-1.512c.6-.2 1.249-.619 1.814-.537 2.312.337 3.853 1.912 5.365 3.531 2.122 2.234 2.926 5.092 4.029 7.833 2.356 5.9 2.517 12.1 2.478 18.309a39.347 39.347 0 0 1-.746 5.809c-.112.736-.171 1.268.619 1.78a4.826 4.826 0 0 1 1.834 3.351c.849 4.107-.517 7.662-2.77 10.881-1.234 1.761-2.926 3.414-5.4 3.234a2.778 2.778 0 0 0-3.1 2.131c-.727 2-1.21 4.1-1.951 6.106a2.52 2.52 0 0 1-1.375 1.507c-1.058.244-1.741-.819-1.351-2 .936-2.858 1.951-5.706 2.926-8.545a31.248 31.248 0 0 1 1.527-3.77 2.053 2.053 0 0 1 1.395-1.063c.688-.029 1.078.6 1.044 1.4-.054 1.068.488 1.463 1.5 1.1a3.83 3.83 0 0 0 1.312-.561c3.034-2.682 4.97-6.994 3.482-11.354a7.508 7.508 0 0 0-.3-.712Z" data-name="パス 924"/><path d="m61.705 55.615-.829-.317a6.337 6.337 0 0 0 .185 1.809c1.166 2.726 2.658 5.194 5.955 6.389a21.238 21.238 0 0 1-.488-2.244 8.051 8.051 0 0 1 .151-1.556c.517.161 1.239.161 1.507.512a15.716 15.716 0 0 1 1.512 2.741c.975 2.092 1.922 4.214 2.9 6.311a34.26 34.26 0 0 1 1.536 3.16 1.939 1.939 0 0 1-.307 1.722c-.58.454-1.322.073-1.7-.6-1.39-2.439-2.751-4.936-4.17-7.5-3.531.829-5.623-1.575-7.545-4.112a8.584 8.584 0 0 1-1.873-7.135.639.639 0 0 0-.132-.439c-2.2-2.761-3.029-6.048-3.482-9.423a43.245 43.245 0 0 1 .2-13.778c.488-2.526.9-5.058 1.463-7.565 1-4.614 3.9-7.945 7.506-10.73a1.819 1.819 0 0 1 .917-.488 1.424 1.424 0 0 1 .946.458c.088.1-.122.615-.322.81a21.023 21.023 0 0 0-5.789 8.33c-1.629 4.809-2.044 9.789-2.356 14.812a41.456 41.456 0 0 0 1.219 12.905c.293 1.136.766 2.224 1.171 3.331.059.151.2.371.327.38 1.344.125 1.28 1.202 1.498 2.217Z" data-name="パス 925"/><path d="M113.767 52.718c2.122-1.01 4.126-2.034 6.2-2.892a1.919 1.919 0 0 1 1.775.3c.434.6.1 1.307-.727 1.648-2.229.927-4.419 1.951-6.672 2.814a1.89 1.89 0 0 0-1.258 1.595 13.776 13.776 0 0 1-1.366 3.731 5.7 5.7 0 0 1-5.194 2.551c-2.439 0-4.848-.073-7.252-.288-2.326-.21-3.521-1.522-4.009-3.9h-7.935a1.512 1.512 0 0 0-1.761 1.322c-.341 1.692-1.766 2.341-3.258 2.7a17.035 17.035 0 0 1-8.067.4 4.39 4.39 0 0 1-3.414-3.58 1.552 1.552 0 0 0-1.8-1.434 7.6 7.6 0 0 1-2.087-.156c-.38-.107-.644-.615-.975-.941.337-.307.634-.8 1.015-.868a9.594 9.594 0 0 1 2.078.049c.639.029 1.224.088 1.3-.863.029-.327.571-.61.878-.912.244.346.629.658.712 1.039.249 1.1.3 2.248.566 3.346.488 1.951 2.029 2.526 3.76 2.483a46.939 46.939 0 0 0 5.589-.6c1.8-.263 2.239-1.848 2.409-4.165.054-.658.224-1.3.337-1.951l.527-.18 1.59 2.136c1.77 0 3.9.039 6.038 0a7.433 7.433 0 0 0 2.4-.434c.307-.117.39-.78.619-1.171.283-.488.61-.927.917-1.39l.6.2c.054 1.029.132 2.053.156 3.082.068 3.185.424 3.59 3.755 3.9a49.838 49.838 0 0 0 6.716-.093 3.478 3.478 0 0 0 2.926-2.658c.215-1.507.254-3.039.39-4.56a2.683 2.683 0 0 1 .249-1.146c.2-.322.6-.7.912-.712s.654.4.922.678a4.113 4.113 0 0 1 .439.92Z" data-name="パス 926"/><path d="m112.694 45.061-.834 1.351a5.013 5.013 0 0 1 1.463.38 6.956 6.956 0 0 1 1.107 1.191c-.458.268-.951.8-1.37.756-3.414-.41-6.862-.79-10.091-2.2a4.156 4.156 0 0 0-2.361.054c-1.058.239-2.058.775-3.121.975-.488.1-1.073-.273-1.614-.429a14.941 14.941 0 0 1 .975-1.561c.141-.185.488-.2.683-.268-2.98-1.692-6.057-3.18-8.847-5.087a45.523 45.523 0 0 1-11.886-11.252c-.268-.385-.736-.722-.814-1.136a6.308 6.308 0 0 1 .156-1.741c.439.137 1 .141 1.3.419 2.229 2.141 4.3 4.463 6.628 6.482a43.757 43.757 0 0 0 11.891 7.672 56.163 56.163 0 0 0 8.233 2.678 25.12 25.12 0 0 0 5.116.18 3.718 3.718 0 0 1 3.386 1.536Z" data-name="パス 927"/><path d="M83.474 46.377c-5.106-4.419-9.754-9.233-12.681-15.461h-.424c-.346 1.029-.771 2.044-1.024 3.1a116.26 116.26 0 0 0-2.858 17.612 19.922 19.922 0 0 1-.732 3.7 1.673 1.673 0 0 1-1 1.044c-.3.073-.975-.4-1.078-.751a7.344 7.344 0 0 1-.38-2.648 76.015 76.015 0 0 1 4.429-21.426 28.88 28.88 0 0 1 1.7-3.677c.244-.434.854-.663 1.292-.975.239.385.488.775.717 1.156 1.492 2.37 2.834 4.848 4.511 7.072a47.428 47.428 0 0 0 8.628 8.75c1.59 1.249 3.224 2.439 4.785 3.731a4.611 4.611 0 0 1 .771 1.312c-.576.185-1.278.678-1.7.488a24.427 24.427 0 0 1-3.268-1.9c-.585-.361-1.161-.751-1.736-1.127Z" data-name="パス 928"/><path d="M90.849 0a92.71 92.71 0 0 1 10.73.975c2.439.488 4.668 1.873 6.984 2.868a8.383 8.383 0 0 1 1.766.873c.658.488 1.351 1.136.814 2.117s-1.356.712-2.1.444c-1.463-.522-2.819-1.2-4.263-1.707a49.336 49.336 0 0 0-6.443-2.039 43.025 43.025 0 0 0-16.583.307 25.279 25.279 0 0 0-9.457 3.79c-.488.337-.9.8-1.37 1.18s-1.078.975-1.7.341c-.541-.571-.2-1.132.254-1.727a10.876 10.876 0 0 1 4.955-3.541C77.904 2.564 81.323.999 85.127.769c1.892-.117 3.775-.351 5.667-.532Z" data-name="パス 929"/><path d="M22.708 548.226c1.6.259 3.024.415 4.39.717a52.059 52.059 0 0 0 12.354 1.1 4.471 4.471 0 0 1 1.79.234 1.127 1.127 0 0 1 .049 2.146c-2.239 1.058-4.643.751-7 .648a40.512 40.512 0 0 1-4.39-.58 15.637 15.637 0 0 1-7.369-3.043c-1.058.936-1.848.312-2.561-.7l-.3.161c.273 1.331.541 2.658.814 4a1.473 1.473 0 0 1-1.951-.975 10.1 10.1 0 0 1-.258-7.5 16.534 16.534 0 0 1 1.522-3.351c.488-.868 1.244-1.424 2.258-.732a1.1 1.1 0 0 1 .444.927 8.515 8.515 0 0 0 .208 6.948Z" data-name="パス 930"/><path d="M94.735 85.054c1.029.078 2.175.185 3.326.239a1.463 1.463 0 0 0 .9-.21c1.59-1.283 3.126-2.643 4.736-3.9a74.79 74.79 0 0 1 4.726-3.414c.341-.224.941-.054 1.419-.068-.058.566.093 1.331-.219 1.658a30.926 30.926 0 0 1-3.277 2.843c-2.126 1.653-4.258 3.317-6.467 4.877a4.492 4.492 0 0 1-2.292.585c-3.063.1-6.126.161-9.189.1a1.958 1.958 0 0 1-1.541-1.01c-.127-.81.639-1.244 1.463-1.3 2.094-.176 4.191-.288 6.415-.4Z" data-name="パス 931"/><path d="M94.985 77.338c-3.151.21-6.3.424-9.452.615a4.009 4.009 0 0 1-1.531-.107c-.346-.122-.883-.663-.819-.815.176-.454.576-1.112.941-1.151 4-.4 8.008-.658 12-1.063a22.24 22.24 0 0 0 3.78-.883c.8-.224 1.522-.044 1.663.678a1.751 1.751 0 0 1-.9 1.429c-1.819.678-3.707 1.161-5.565 1.717Z" data-name="パス 932"/><path d="m83.44 46.348.322 1.156c-.619 1.634-1.907 1.229-3.087.975-3.312-.663-6.6-1.41-10.037-1-.39.049-.854-.488-1.283-.771.3-.346.537-.849.917-1.01a13.78 13.78 0 0 1 7.091-.624 60.758 60.758 0 0 1 6.111 1.283Z" data-name="パス 933"/><path d="M90.751 72.295c-1.439-.488-2.761-.849-4.014-1.371a1.209 1.209 0 0 1-.488-1.1c.234-.415.81-.975 1.195-.917a14.243 14.243 0 0 1 3.731.81 2.046 2.046 0 0 1 .922 1.61c.024.293-.861.637-1.346.968Z" data-name="パス 934"/><path d="M88.702 81.382c-.3-1.073.132-1.59 1.088-1.683a23.672 23.672 0 0 1 3.214-.176 1.14 1.14 0 0 1 .814.81 1.463 1.463 0 0 1-.717 1.024 4.916 4.916 0 0 1-4.399.025Z" data-name="パス 935"/><path d="M76.977 55.142a1.38 1.38 0 0 1 1.463-1.336 2.113 2.113 0 0 1 2.227 1.772c.029.941-.775 1.57-1.868 1.59s-1.812-.59-1.822-2.026Z" data-name="パス 936"/><path d="M104.018 55.737a1.731 1.731 0 0 1-1.951-1.736c-.049-1.068.722-1.517 1.726-1.531s1.951.81 1.849 1.609a1.718 1.718 0 0 1-1.624 1.658Z" data-name="パス 937"/><path fill="#fff" d="M77.163 97.486q.81.722 1.629 1.463a22.663 22.663 0 0 0 10.286 4.877 33.312 33.312 0 0 0 12.339.624 28.983 28.983 0 0 0 5.506-1.717c2.3-.834 4.555-1.766 7.1-2.761.3 1.824.634 3.692.912 5.57.361 2.483.678 4.975 1.014 7.457.234 1.7.449 3.414.707 5.092.2 1.258.527 2.5.673 3.76.415 3.7.756 7.4 1.151 11.1.488 4.624 1.014 9.242 1.5 13.866.356 3.37.619 6.745 1.039 10.111.488 3.7 1.219 7.379 1.541 11.1.419 4.809 1.234 9.613.707 14.481-.376 3.468-.712 6.94-.975 10.418-.234 3.292-.366 6.589-.463 9.886-.132 4.355-.132 8.721-.293 13.076-.171 4.531-.4 9.062-.741 13.583a24.07 24.07 0 0 1-.975 4.194c-.351 1.317-.81 2.6-1.127 3.9a1.692 1.692 0 0 1-1.624 1.463c-3.248.488-6.482 1.053-9.73 1.551-4.824.737-9.628 1.595-14.563.975-4.073-.488-8.174-.824-12.266-1.195-2.156-.2-4.311-.38-6.472-.488-.854-.044-1.127-.327-1.19-1.175-.278-3.868-.59-7.73-.975-11.588-.117-1.112.419-1.429 1.21-1.951 2.722-1.853 5.365-3.843 7.989-5.814 2.926-2.195 5.853-4.424 8.779-6.643 3.356-2.546 6.667-5.155 10.076-7.633 2.926-2.117 5.911-4.1 8.9-6.106 1.58-1.063 3.229-2.034 4.8-3.107.263-.176.327-.649.488-.975-.59-.18-1.317-.668-1.741-.488a24.542 24.542 0 0 0-3.385 2.039c-2.5 1.629-5.019 3.229-7.472 4.926-3.034 2.1-6.014 4.272-9.008 6.433q-6.54 4.707-13.086 9.438c-2.107 1.527-4.209 3.063-6.633 4.828v-4.5c-.044-3.868-.088-7.735-.171-11.608a1.574 1.574 0 0 1 1.161-1.775c3.96-1.463 7.867-3.058 11.842-4.472s8.228-2.541 12.193-4.131c5.555-2.214 10.984-4.741 16.47-7.135 1.566-.683 3.141-1.361 4.707-2.058a2.063 2.063 0 0 0 .883-.537 1.463 1.463 0 0 0 .229-1.063.936.936 0 0 0-.81-.444 19.7 19.7 0 0 0-3.36.936c-2.185.9-4.311 1.951-6.477 2.892-2.96 1.3-5.9 2.682-8.925 3.824-4.482 1.7-9.057 3.16-13.554 4.824-4.268 1.58-8.486 3.3-12.725 4.955-.488.2-1.034.366-1.717.6v-5.131c-.044-5.648-.21-11.3-.107-16.944.1-5.116.444-10.242.756-15.339.322-5.277.7-10.549 1.112-15.822.312-3.96.741-7.916 1.063-11.881.307-3.78.532-7.569.81-11.354.161-2.278.458-4.55.488-6.828.063-3.556-.063-7.116-.054-10.671s.088-7.233.137-10.847Z" data-name="パス 938"/><path fill="#fff" d="M121.361 91.356c1.346 2.122 2.736 4.146 3.96 6.262 2.517 4.346 4.824 8.813 7.448 13.091a101.084 101.084 0 0 1 5.365 10.706 2.048 2.048 0 0 1-2.014 2.97h-3.9c.41.883.7 1.536 1.01 2.175q2.512 5.116 5.024 10.218c1.766 3.6 3.5 7.223 5.277 10.823.741 1.507 1.122 2.951-.088 4.414s-1.37 3.234-1.575 4.941c-.746 6.165-1.3 12.349-2.014 18.533-.619 5.4-1.385 10.793-2.024 16.2-.415 3.5-.663 7.018-1.088 10.52-.259 2.165-.722 4.307-1.054 6.467-.361 2.326-.6 4.672-1.019 6.984q-.853 4.633-1.951 9.223c-.9 3.848-1.951 7.667-2.824 11.515-.224.975-.439 1.819-1.57 1.7-1-.107-1.273-.975-1.122-1.848.536-3 1.127-5.994 1.736-8.984s1.351-5.955 1.9-8.955c.644-3.56 1.175-7.135 1.688-10.73.488-3.414.9-6.794 1.322-10.2.376-2.98.751-5.965 1.068-8.955.3-2.819.488-5.648.795-8.462.244-2.161.668-4.3.922-6.467.317-2.692.327-5.438.844-8.091.858-4.428.488-9.076 2.341-13.329.088-.2.1-.488.239-.61 1.351-1.366.624-2.5-.141-3.9-1.507-2.741-2.736-5.633-4.1-8.452q-2.775-5.775-5.609-11.53c-.444-.907-.868-1.829-1.375-2.7-.7-1.2-1-2.361.336-3.673h5.687c-1.141-2.507-2.117-4.877-3.273-7.126-1.463-2.834-3.058-5.58-4.56-8.384-2.248-4.194-4.448-8.413-6.706-12.6-.521-.932.006-1.258 1.045-1.746Z" data-name="パス 939"/><path fill="#fff" d="M60.888 115.083c-3.17-.858-6.116-1.658-9.067-2.439-.917-.244-1.858-.415-2.761-.7a1.732 1.732 0 0 1-.975-2.882c2.2-2.834 4.414-5.662 6.784-8.355 3.785-4.3 7.7-8.491 11.564-12.73.268-.293.527-.741.849-.8a2.146 2.146 0 0 1 1.395.263c.161.1.161.854-.034 1.092-2.96 3.668-5.96 7.316-8.959 10.93-1.951 2.341-3.9 4.667-5.828 7.009-.707.858-1.395 1.736-2.244 2.795 2.39.639 4.555 1.117 6.653 1.8a46.62 46.62 0 0 1 5.185 2.151c1.619.761 1.527 2.087.307 3.356-2.087 2.165-3.97 4.541-5.853 6.877q-2.678 3.287-5.2 6.682a2.658 2.658 0 0 0-.429 1.712c.488 4.3 1.068 8.6 1.575 12.9.712 6.023 1.366 12.057 2.092 18.08q1.024 8.472 2.156 16.924c.38 2.848.907 5.677 1.292 8.521.566 4.2 1.039 8.418 1.595 12.622.4 3 .868 5.989 1.288 8.984a8.578 8.578 0 0 1 .176 2.219c-.054.444-.532.839-.819 1.253-.385-.307-1.034-.566-1.112-.941-.488-2.356-.932-4.726-1.234-7.116-.532-4.253-.912-8.53-1.463-12.788-.288-2.307-.8-4.59-1.161-6.891-.522-3.37-1-6.75-1.488-10.125-.732-5.219-1.522-10.447-2.195-15.646-.415-3.175-.654-6.375-1.019-9.559q-.883-7.8-1.853-15.656a17.291 17.291 0 0 0-.673-2.673 3.414 3.414 0 0 1 .668-3.195c2.312-3.034 4.585-6.092 6.926-9.1 1.16-1.506 2.452-2.906 3.862-4.574Z" data-name="パス 940"/><path fill="#fff" d="M98.754 536.311c2.439 2.751 4.726 5.716 7.428 8.208a32.107 32.107 0 0 0 6.9 4.516c2.985 1.57 6.175 2.741 9.223 4.2a23.116 23.116 0 0 1 3.9 2.4 9.592 9.592 0 0 0 5.658 1.819 49.534 49.534 0 0 0 7.516-.229c2.785-.351 5.521-1.1 8.291-1.663 1.849-.375 3.7-.741 5.55-1.112a.607.607 0 0 1 .263 0c2.926.922 5.316-.385 7.6-2.063a4.647 4.647 0 0 1-3.009 4.921c-3.9 1.346-7.95.653-11.905 1.165-4.433.571-8.9.976-13.325 1.575a12.992 12.992 0 0 1-8.613-1.561 68.481 68.481 0 0 0-6.594-2.97.977.977 0 0 0-.488-.146c-2.312.458-3.282-1.151-4.389-2.707a14.539 14.539 0 0 0-2.151-1.951l-8.335-7.423c-.644-.576-1.341-1.083-2.009-1.634-1.862-1.475-2.272-3.075-1.511-5.345Z" data-name="パス 941"/><path fill="#fff" d="M67.447 515.412c.975-1.463 2.244-.839 3.263-.819 2.79.044 5.57.4 8.36.522 2.151.093 4.307 0 6.57 0-1.463 1.751-2.858 3.517-4.39 5.111-.488.488-1.4.532-2.126.756-.541.166-1.092.3-1.575.424-2.772-2.951-5.766-5.443-10.102-5.994Z" data-name="パス 942"/><path fill="#fff" d="M206.01 325.911c-1.024 2.209-.844 5.316-4.248 5.853Z" data-name="パス 943"/></svg>