<svg version="1.1" id="レイヤー_1" xmlns="http://www.w3.org/2000/svg" x="0" y="0" viewBox="0 0 466 556" style="enable-background:new 0 0 466 556" xml:space="preserve"><style>.st0{enable-background:new}.st1{fill:#222}.st3{fill:#fff}</style><g id="member_maeta" transform="translate(7275 6288)"><g id="グループ_54934" transform="translate(-7886.855 -6702.197)"><g class="st0"><path class="st1" d="m901.9 492.3-5.1 2.8 6.3 11.4-6.4 3.6-17.3-31.1 11.6-6.4c3.7-2 7-2.8 9.9-2.3s5.2 2.3 6.8 5.3c1.2 2.1 1.7 4.1 1.6 6.1-.1 1.9-.9 3.8-2.3 5.7l13.8 9 .2.3-6.9 3.8-12.2-8.2zm-8-2.3 5.2-2.9c1.6-.9 2.6-2 3.1-3.3.4-1.3.2-2.7-.6-4.1-.8-1.5-1.9-2.4-3.2-2.8-1.3-.4-2.8-.1-4.5.9l-5.1 2.9 5.1 9.3zM912.4 463.4c-.5-.9-.6-1.9-.3-2.8s1-1.7 2-2.3c1.1-.6 2.1-.8 3-.5 1 .3 1.7.8 2.2 1.8.5.9.6 1.9.3 2.8-.3.9-1 1.7-2 2.3s-2 .7-3 .5c-1-.3-1.7-.9-2.2-1.8zm22.7 25.4-6.2 3.4-12.8-23.1 6.2-3.4 12.8 23.1zM947.9 459.1c-.9.4-1.7.7-2.3 1.1-2.3 1.3-3.4 2.9-3.3 4.9l8.4 15.1-6.2 3.4-12.8-23.1 5.8-3.2 1.7 2.7c.1-2.8 1.2-4.8 3.4-6 .7-.4 1.4-.6 2.1-.8l3.2 5.9zM948.7 443.2c-.5-.9-.6-1.9-.3-2.8.3-.9 1-1.7 2-2.3 1.1-.6 2.1-.8 3-.5 1 .3 1.7.8 2.2 1.8.5.9.6 1.9.3 2.8-.3.9-1 1.7-2 2.3s-2 .7-3 .5c-1-.2-1.7-.8-2.2-1.8zm22.7 25.5-6.2 3.4-12.8-23.1 6.2-3.4 12.8 23.1zM984.1 449.5l-1 3.5 3.9 7-6.2 3.4-18.2-32.8 6.2-3.4 10.1 18.2.3-2.2 2.1-10.2 7.4-4.1-3 14.3 16.5 8.4-7.1 3.9-11-6zM1001.1 436.9c-1.3-2.3-2-4.6-2.1-6.9-.1-2.3.4-4.4 1.5-6.3 1.1-1.9 2.8-3.5 5-4.7 3.1-1.7 6.2-2.2 9.2-1.4 3 .8 5.6 2.8 7.6 5.9l.9 1.6c2 3.5 2.6 6.9 1.8 10.2-.8 3.2-2.9 5.8-6.2 7.6-3.3 1.8-6.6 2.3-9.8 1.2-3.2-1-5.8-3.4-7.8-7.1l-.1-.1zm6.4-3c1.2 2.2 2.6 3.6 4 4.3 1.5.7 3 .6 4.5-.2s2.3-2 2.5-3.7c.2-1.6-.4-3.7-1.8-6.2-1.2-2.2-2.5-3.6-4-4.3-1.5-.7-3-.7-4.5.2-1.5.8-2.3 2.1-2.5 3.7-.2 1.7.4 3.7 1.8 6.2z"/></g><g id="グループ_54932"><g class="st0"><path class="st1" d="m1046.7 452.5 9.1 25.8 9.1-25.8h9.6V488h-7.3v-9.7l.7-16.8-9.6 26.5h-5l-9.6-26.5.7 16.7v9.7h-7.3v-35.5h9.6z" transform="translate(2 -4)"/></g><g class="st0"><path class="st1" d="M1058.2 573.1v6.5h4.5v5.2h-4.5V598c0 1 .2 1.7.6 2.1.4.4 1.1.6 2.1.6.8 0 1.5-.1 2.1-.2v5.3c-1.4.4-2.8.6-4.3.6-4.9 0-7.5-2.5-7.6-7.5v-14.2h-3.9v-5.2h3.9V573h7.1z" transform="translate(2 -4)"/></g><g class="st0"><path class="st1" d="M1060 643.5c-.3-.6-.6-1.4-.7-2.4-1.7 1.9-3.9 2.9-6.7 2.9-2.6 0-4.7-.7-6.4-2.2-1.7-1.5-2.6-3.4-2.6-5.7 0-2.8 1-4.9 3.1-6.4s5.1-2.3 9-2.3h3.2v-1.5c0-1.2-.3-2.2-.9-2.9-.6-.7-1.6-1.1-3-1.1-1.2 0-2.1.3-2.8.9-.7.6-1 1.4-1 2.3h-7.1c0-1.5.5-2.9 1.4-4.2.9-1.3 2.3-2.3 4-3.1 1.7-.7 3.7-1.1 5.8-1.1 3.3 0 5.8.8 7.8 2.5 1.9 1.6 2.9 3.9 2.9 6.9v11.5c0 2.5.4 4.4 1 5.7v.4h-7zm-5.8-4.9c1 0 2-.2 2.9-.7.9-.5 1.5-1.1 2-1.9v-4.5h-2.6c-3.5 0-5.4 1.2-5.6 3.7v.4c0 .9.3 1.6.9 2.2.5.5 1.3.8 2.4.8z" transform="translate(2 -4)"/></g><g class="st0"><path class="st1" d="M1055.9 563c-3.9 0-7-1.2-9.5-3.6-2.4-2.4-3.7-5.5-3.7-9.5v-.7c0-2.7.5-5 1.5-7.1 1-2.1 2.5-3.7 4.4-4.8 1.9-1.1 4-1.7 6.4-1.7 3.6 0 6.5 1.1 8.5 3.4 2.1 2.3 3.1 5.5 3.1 9.7v2.9h-16.8c.2 1.7.9 3.1 2.1 4.2 1.1 1 2.6 1.6 4.4 1.6 2.7 0 4.8-1 6.4-3l3.5 3.9c-1.1 1.5-2.5 2.7-4.3 3.5-1.8.8-3.8 1.2-6 1.2zm-.8-21.7c-1.4 0-2.5.5-3.4 1.4-.9.9-1.4 2.3-1.7 4.1h9.8v-.6c0-1.6-.5-2.8-1.3-3.6-.8-.9-1.9-1.3-3.4-1.3z" transform="translate(2 -4)"/></g><g class="st0"><path class="st1" d="M1060 524.5c-.3-.6-.6-1.4-.7-2.4-1.7 1.9-3.9 2.9-6.7 2.9-2.6 0-4.7-.7-6.4-2.2-1.7-1.5-2.6-3.4-2.6-5.7 0-2.8 1-4.9 3.1-6.4s5.1-2.3 9-2.3h3.2v-1.5c0-1.2-.3-2.2-.9-2.9-.6-.7-1.6-1.1-3-1.1-1.2 0-2.1.3-2.8.9-.7.6-1 1.4-1 2.3h-7.1c0-1.5.5-2.9 1.4-4.2.9-1.3 2.3-2.3 4-3.1 1.7-.7 3.7-1.1 5.8-1.1 3.3 0 5.8.8 7.8 2.5 1.9 1.6 2.9 3.9 2.9 6.9v11.5c0 2.5.4 4.4 1 5.7v.4h-7zm-5.8-4.9c1 0 2-.2 2.9-.7.9-.5 1.5-1.1 2-1.9v-4.5h-2.6c-3.5 0-5.4 1.2-5.6 3.7v.4c0 .9.3 1.6.9 2.2.5.5 1.3.8 2.4.8z" transform="translate(2 -4)"/></g></g><g class="st0"><path class="st1" d="m622.8 660.1-6.2-11.2 3.3-1.8c1-.5 2-.8 3-.8s2 .3 2.8.9c.9.6 1.6 1.4 2.2 2.4l.3.6c.6 1.1.9 2.1.9 3.2 0 1-.2 2-.8 2.9-.5.9-1.3 1.6-2.3 2.1l-3.2 1.7zm-3.3-10.7 4.5 8.1 1.3-.7c1-.6 1.6-1.3 1.8-2.3.2-.9 0-2-.7-3.2l-.3-.6c-.7-1.2-1.5-2-2.3-2.3-.9-.3-1.8-.2-2.8.3l-1.5.7zM639.1 651.3c-1.2.7-2.3.8-3.5.5-1.1-.3-2.1-1.1-2.8-2.4l-.1-.2c-.5-.8-.7-1.7-.8-2.5 0-.8.1-1.6.5-2.3s.9-1.2 1.6-1.6c1.1-.6 2.2-.8 3.2-.4s1.9 1.2 2.6 2.6l.4.8-5.4 3c.4.7 1 1.1 1.6 1.2.6.2 1.2.1 1.8-.2.9-.5 1.4-1.2 1.5-2.2l1.5.4c-.1.7-.3 1.3-.7 1.9-.2.5-.7 1-1.4 1.4zm-4.2-7c-.5.3-.8.7-.9 1.2-.1.5 0 1.1.2 1.8l3.6-2-.1-.1c-.4-.6-.8-1-1.3-1.1-.5-.2-1-.1-1.5.2zM649.5 642.3c-.2-.3-.5-.5-.8-.5-.4 0-.9.1-1.6.3-.7.2-1.3.3-1.9.4-1.2.1-2-.3-2.5-1.2-.4-.7-.4-1.5-.1-2.3.3-.8 1-1.5 1.9-2 1-.6 1.9-.8 2.8-.6s1.5.6 2 1.4l-1.9 1c-.2-.4-.5-.6-.9-.7-.4-.1-.8 0-1.3.2-.4.2-.7.5-.8.8-.2.3-.1.7 0 1 .2.3.4.4.7.5.3 0 .9-.1 1.7-.3.8-.2 1.5-.4 2-.4s1 .1 1.4.3c.4.2.7.5.9 1 .4.7.4 1.5.1 2.3-.4.8-1 1.5-2.1 2-.7.4-1.4.6-2 .6-.7 0-1.3-.1-1.8-.3-.5-.3-.9-.6-1.2-1.1l1.8-1c.3.4.6.7 1.1.7.4.1.9 0 1.4-.3.5-.3.8-.6 1-.9.3-.3.3-.6.1-.9zM650.8 630.9c-.2-.3-.2-.6-.1-.9.1-.3.3-.5.6-.7s.7-.2.9-.2c.3.1.5.3.7.6.2.3.2.6.1.9-.1.3-.3.5-.6.7s-.7.2-.9.2c-.3-.2-.5-.3-.7-.6zm7.8 9.4-1.9 1-4.6-8.3 1.9-1 4.6 8.3zM660.3 633.8c-.7-1.3-1-2.5-.8-3.6.2-1.1.8-1.9 1.8-2.5.9-.5 1.9-.6 2.8-.2l-.4-.9 1.7-.9 4.5 8.1c.6 1.1.7 2.1.4 3.1-.3 1-1.1 1.8-2.2 2.5-.6.3-1.3.5-2 .6-.7.1-1.3 0-1.9-.3l.3-1.6c1 .4 1.8.3 2.7-.2.6-.3 1-.8 1.2-1.3.2-.5.1-1.1-.3-1.8l-.3-.6c-.2.9-.8 1.6-1.7 2.1-1 .5-2 .6-3 .2-1.1-.4-2-1.3-2.8-2.7zm2-.9c.5.8 1 1.4 1.6 1.7.6.3 1.2.3 1.8-.1.8-.4 1.1-1.1 1.1-1.9l-2-3.7c-.7-.4-1.4-.4-2.2 0-.6.3-1 .8-1 1.5-.1.8.2 1.6.7 2.5zM671.4 622.3l.6.9c.2-1.1.8-1.9 1.8-2.5 1.7-1 3.2-.5 4.3 1.5l3 5.5-1.9 1-3-5.4c-.3-.5-.6-.9-1-1-.4-.1-.8 0-1.3.2-.8.4-1.1 1.1-1.1 2l3.3 5.9-1.9 1-4.6-8.3 1.8-.8zM689.1 623.5c-1.2.7-2.3.8-3.5.5-1.1-.3-2.1-1.1-2.8-2.4l-.1-.2c-.5-.8-.7-1.7-.8-2.5 0-.8.1-1.6.5-2.3s.9-1.2 1.6-1.6c1.1-.6 2.2-.8 3.2-.4s1.9 1.2 2.6 2.6l.4.8-5.4 3c.4.7 1 1.1 1.6 1.2.6.2 1.2.1 1.8-.2.9-.5 1.4-1.2 1.5-2.2l1.5.4c-.1.7-.3 1.3-.7 1.9-.1.6-.7 1-1.4 1.4zm-4.1-7c-.5.3-.8.7-.9 1.2-.1.5 0 1.1.2 1.8l3.6-2-.1-.1c-.4-.6-.8-1-1.3-1.1-.5-.1-1-.1-1.5.2zM696.9 610.4c-.3.1-.5.2-.8.4-.9.5-1.2 1.1-1.2 1.9l3.2 5.7-1.9 1-4.6-8.3 1.8-1 .6.9c.1-1 .5-1.7 1.3-2.1.3-.1.5-.2.7-.3l.9 1.8z"/></g><g id="グループ_54933" transform="rotate(31.02 -175.953 1649.29)"><path id="パス_1293" d="m238.7 0 238.7 413.1H0L238.7 0z" style="fill:none"/><path id="パス_1294" class="st1" d="M238.7 20 17.3 403.1H460L238.7 20m0-20 238.7 413.1H0L238.7 0z"/></g><g id="グループ_54931" transform="translate(630.708 383)"><g id="グループ_54930" transform="translate(107.291 75.83)"><path id="パス_1244" class="st3" d="m44.1 208.4 28.7-6.5h31.6l21.1.9 2.1 4.5 1 5.7 10.6 23.1-1.2 17.2 1.2 30.8 3.4 25.6L160 473.4l-23.4 12 12.8 2.1-1.3 6.9-5.8 7.9-8.8 3.8-15.7 1.1-13.9-6.9.9-13.3 3.6-5.9-8.7-6.3-3.1-.1-7.8 3.6s1 13.9 1.1 14.6.1 9.4.1 9.4l-13.6 4.3-11.7 1.1-26.5-1.1-5-24.1-8.5-3.3L16 470l-4.9-4.5 21.3-125.7 6.8-73.1-1.9-26.1 4-26.4 2.8-5.8z"/><path id="パス_1245" class="st3" d="m123.7 158.6-4.9 22.3-5.5 10.8-68.5 5.1v10.6s65.6-5.5 65.8-5.1 16.2 6.9 16.2 6.9l15.4-35.1 3.3-19.7-21.8 4.2z"/><path id="パス_1246" class="st3" d="M72 75.6h7.7v-6.8l-15.1-.5-2.6-5-1.6-8.4.9-6.3-4.6-4.3 1.1-4.8c1-4.6 2.7-9.1 4.8-13.3l.4-.8 9.2-11.8 7.5-5.1 6.8-3.1C89.7 4 93.1 3.2 96.6 3l6.9-.2c6.8 1.2 13.3 4.5 19.6 9l10 20-2.9 17.2-15.5 18.8-3.6 1.8-5.3-.8 1.1 6 15.3 1.9-33.3 13L72 75.6z"/><path id="パス_1247" d="M126.5 294c.9 2.1 1.9 4.2 2.8 6.3.3.5.6 1.1.7 1.7 0 .8.2 1.6-1.2 1.8-.8.1-1.6 1.1-2.2 1.8-1.3 1.3-2 1.3-3-.2-3-4.4-6-8.8-9.2-13.1.3 1.4.5 2.8.9 4.2.9 3 1.9 6 2.8 9 .2.8.3 1.6-.9 1.8-.3.1-.7.2-.9.5-1.7 1.5-3.6 1.4-4.7-.7-1.4-2.8-2.5-5.7-3.8-8.6-.9-2.1-1.7-4.2-2.6-6.3l-.4.1c.2 2.8.5 5.6.7 8.5.2 2.2.3 4.4.5 6.6.1 1.2-.4 1.7-1.6 1.6-1.8-.1-1.9 0-1.9 1.8 0 2.5-.2 4.9-.2 7.3v7.6c-.1 4.5-.3 9-.4 13.6-.1 6.5-.2 13.1-.2 19.6-.1 5-.2 10-.2 15v15.8c0 2.7-.2 5.5-.4 8.2 0 .6-.7 1.1-1 1.6-.5-.5-1.3-1-1.4-1.6-.3-2.5-.4-5.1-.5-7.6-.1-4.9-.2-9.8-.2-14.7 0-2.5.1-4.9.1-7.3 0-3.6 0-7.3.1-10.9.1-4.9.4-9.9.6-14.8.2-4.8.2-9.5.5-14.3.4-6.4.9-12.8 1.3-19.2-.1-.6-.3-1.2-.6-1.7-.7-1.7-1.3-3.4-1.8-5.1-1-4.1-1.8-8.3-2.8-12.6-1.3 1.2-2.5 2.1-3.6 3.3-.7.7-1.5 1.2-2.2.7-.7-.5-1.1-1.3-1.1-2.1-.1-2 0-4 .4-6 .7-3.7 1-7.5.9-11.3-.1-3.5.7-7 2.3-10.1.2-.6.6-1.1 1-1.5.3-.3.9-.2 1.4-.3.1.4.1.9 0 1.3-.7 2.4-1.7 4.7-2 7.2-.3 2.6.2 5.2.1 7.8-.1 3.6-.4 7.1-.6 10.9.4-.5.9-.9 1.2-1.4.7-.9 1.2-1.9 2-2.7 1.3-1.5.9-3.2.8-4.9 0-.4.1-.9.2-1.3.4.1.8.2 1.3.3 1.2.2 2.5.2 3.7.1 3.3-.5 5.5-2.8 7.9-4.9.8-.7 1.4-1.4 2.9-1.1-.1.6.1 1.4-.2 1.7-2.7 2.5-5.3 5-9 5.9-1.4.3-2.8.4-4.3.4-.3 1.2-.7 2.6-1.1 4-.1.4-.1.7.1 1.1 1.2 4.4 2.4 8.9 3.7 13.3.4 1.5 1 3 1.4 4.5.2.7.5 1.5.9 2.1-.2-5.7-.4-11.3-.6-16.7l-1.8-1.2c.4-.5.8-1.2 1.4-1.4 3-1 6.1-1.9 9.1-2.9 1.6-.5 3.1-1.1 4.6-1.6.8-.3 1.7-.5 2.6-.6.6 0 1.3.2 1.8.6.3.4-.1 1.2-.3 1.8l-.5.2c2.3 2.1 4.7 4.2 7 6.3.2.2.6.4.9.4.4 0 1 0 1.1-.3.1-.4.1-.8-.2-1.2-3.5-4.4-7.2-8.7-10.6-13.1-1-1.4-1.8-3-2.5-4.6-.5-1-1-2-1.5-3.1-.4-.7-.5-1.5-1.6-1.6-.5-.1-1.1-1-1.1-1.6-.3-3.6-.5-7.2-.7-10.7.1-.7-.2-1.4-.8-1.8-.6-.7-.8-1.6-.6-2.5.7-2.3 1.5-4.6 2.4-6.8 1-2.7 2-5.4 3.1-8 1.4-3.3 3.1-6.6 4.5-10 1.1-2.4 1.8-5 2.8-7.5 1.9-4.5 4-8.9 6-13.4 1.1-2.6 2.3-5.1 3.5-7.7.8-1.7 1.5-3.5 2.2-5.2 0-.5 0-.9-.3-1.3-.2-.6-.8-1.2-.7-1.8s.9-.8 1.6-1.4c.1-1.7 1.3-2.9 2.9-3.9-.8-2.3-.8-2.9 2-6-2.5-1.7-1.5-4.8 2.6-6.6l-.8-.5c-2.4-1.6-2.5-4 .1-5.2 2.3-1.1 2.6-3.1 3.4-5.4-6.4 2.1-12.6 2-18.9 1.8-.4 2.1-.8 4.1-1.2 6 1-.1 2.1-.2 3.1-.1 1.3.1 2.4 1.1 2.6 2.4.3 1.1-.3 2.2-1.3 2.6l-5.4 3.3c-1 .6-1.9 1.2-2.4 1.5-.5 2.1-.9 3.8-1.3 5.4-.9 3.1-1.7 6.1-2.6 9.2-.1.4-.3 1-.5 1.1-2.4.4-1.9 2.5-2.3 3.9-1.1 4-1.8 8.2-2.9 12.2-1.4 5.7-3 11.4-4.6 17.2-.5 2-1.2 4-1.9 6-.2.5-1.1.8-1.7 1.2-.3-.5-.9-1.1-.8-1.6.5-2.4 1.1-4.8 1.7-7.2 1.7-6.5 3.5-13.1 5.2-19.6.2-.8.5-1.5.7-2.1l-14.5-1c.1 1.5.3 3.1.2 4.7 0 .6-.6 1.7-1 1.7-.8.1-1.3-.6-1.4-1.6-.2-3.8-.5-7.6-.7-11.5 0-.3.5-.7.7-1 .4.3.9.5 1 .9.4 1.6.7 3.2 1.1 4.8 5.1-.2 10.2-.9 15.2.8.5-1.8 1.1-3.6 1.7-5.5.3-.9.1-1.3-.9-1.4-1.8-.3-3.5-.9-5.2-1.2-1.2-.2-2.4-.2-3.7-.2-2.6.1-5.2 0-7.9.3-5 .5-9.9 1-14.8 1.6-2.7.3-5.4.5-8 .9-6.1 1.1-12.2 2.4-18.3 3.6-.3.2-.6.5-.6.8-.1 1.4 0 2.8 0 4.7 4.1-.7 8-1.5 11.9-2.1 3.4-.6 6.8-1.2 10.1-1.7.4-.1.8-.1 1.1.1.5.3.9.7 1.3 1-.4.4-.7.9-1.1 1-2.1.4-4.2.7-6.3 1.1-4.4.8-8.7 1.7-13.1 2.5-3.6.6-7.3 1-11 1.6-.4.1-.8.7-1.1 1.1-1.8 2.9-3 6.2-3.5 9.7-.8 4.9-1.8 9.7-2.3 14.6-.2 3.4-.2 6.8 0 10.3 0 .8-.1 1.4-1 1.5-1 .1-1.9-.7-2-1.7-.1-1-.1-2-.1-3-.3-6.3.4-12.6 2.1-18.6.9-3.4 1.6-6.7 2.8-10 .8-1.9 1.8-3.6 3-5.3-1.8-1.6-.7-3.7-.7-5.7-1.9-.2-2.9-1.8-3.9-3.3-.6-.9-1.2-1.8-2-2.6-.3-.3-.7-.4-1.1-.4-5.7-.1-11.5-.2-17.2-.2-2.1 0-3.6-1-3.8-2.5-1.3-.2-2.2-1.4-2.1-2.7.2-4.2.3-8.5.9-12.7.9-6 2.2-11.9 3.2-17.8 0-.5-.2-.9-.5-1.2-1.3-.7-2.7-1.2-4-2-1.1-.7-2.1-1.5-3-2.3-1.6-1.4-3.2-2.9-4.9-4.2-2.3-1.8-4.5-3.8-4.8-6.9-.1-1.1.1-2.2.7-3.1 2.6-3.7 5.3-7.2 8-10.8 2.9-4 5.8-8 8.7-12.1 2.2-3.1 4.5-6.3 6.7-9.5 4.5-6.8 9.3-13.4 14.1-19.9 2.7-3.7 6.4-5.8 10.1-8 3.1-1.7 6.4-3 9.9-3.7.5-.1 1-.1 1.5-.2-.3-1 .1-1.6 1.2-1.7 2.3-.4 4.7-.7 7-.8 2.6 0 4.6 1.6 6.2 3.3 4 4.2 9 6.1 14.5 7 2.8.5 5.6.6 8.4.4 2.3-.3 4.6-1 6.7-1.9 2.9-1.1 5.7-2.3 8.6-3.4 2.3-.9 4.6-1.7 7-2.4 3.3-.9 6.3.1 9.2 1.8 5.3 3.1 8.3 8.3 11.3 13.4 3.3 5.6 7 10.9 10.9 16.1 2.8 3.8 5.7 7.5 8.4 11.3 1.1 1.6 2.1 3.2 3 4.9 1.1 2.1 2.3 4.2 3.3 6.4.3.9.4 1.8.2 2.7-.7 4.1-2.1 8-4 11.7-1.6 3.2-3.6 6.2-5.9 8.9-2.2 2.4-5.1 4-7.7 6-1.1 1-1.8 2.4-2 3.8 0 .5 0 .9.2 1.3.6 1.5 1 3 1.4 4.6 0 1.2-.1 2.4-.3 3.6 1.4 1.3 1.8 2.5-1 5.2 2.2 4.5-1.3 5.8-4.3 7.3.6 2.1-.4 4.4-2.3 5.4-3 1.3-4.2 3.6-5.1 6.5-1.8 5.3-3.9 10.4-5.9 15.7 2 2 3.1 4.7 4.3 7.5 1.4 3.4 2.9 6.7 4.4 10.1.7 1.6 1.3 3.3 1.9 5 .2.4.2.9.1 1.4-.3.5-.6 1-1 1.4-.4-.4-1.1-.6-1.3-1.1-1.7-4-3.3-7.9-4.8-11.9-.5-1.2-.9-2.4-1.3-3.5H126c-.7-.1-1.3.3-1.5 1-1.7 4.4-3.6 8.7-5.4 13-1.3 3-2.8 5.9-4 8.9-1.1 2.6-2 5.3-2.7 8.1-.3 1.2.3 2.6.5 3.9l1.2 9.6c.1.4.2.8.5 1.1 1.6 3.1 3.2 6.2 4.9 9.2.1.3.3.6.5.9 3.5 4.1 7 8.1 10.6 12.2.4.3.7.7 1 1 .6.9-.1 1.4-.5 2.1-.6 1.6-2.3 2.4-3.9 1.8-.1 0-.2-.1-.3-.1h-.4zm-10.7-107.4c.6-1.5 1.1-2.9 1.7-4.4.5-1.2 1.3-2.4 1.3-3.7 0-1.9.4-3 2.1-3.8 1.5-.7 3.1-1.4 4.6-2.2.6-.3 1.2-.7 1.8-1.1.6-.5.6-1-.2-1.3-1-.3-3 .7-3.8 1.3-1.3.8-2.8 1.5-4.2 2-.1 0-.2 0-.3-.1-.8-1.2-1.6-.3-2.4 0-3.1 1.6-6.3 3.2-9.4 4.7-.5.1-1 .1-1.5 0-1.6-.3-3.3-.8-4.9-1-2.2-.3-4.5-.4-6.7-.7-3.3-.5-6.6-1.3-9.9-1.6-5.6-.6-11.3-1-17-1.2-6.7-.2-13.3-.1-20-.3-3.8-.1-7.7-.3-11.5-.4-.5-.1-.9-.3-1.2-.8-.1-.2.4-.8.6-1.2.1-.2.4-.3.4-.4.6-2.3 1.1-4.6 1.6-6.8-2.6-.6-5-1-7.4-1.7-3-.8-5.9-1.7-8.9-2.7-1-.3-1.3 0-1.4.9-.8 5.5-1.7 10.9-2.2 16.4-.5 4.3-.5 8.6-.8 12.9-.1 1.2.3 2.1 1.8 2 .6 0 1.3.3 1.9.3 3.1 0 6.2-.2 9.3-.2 2.6 0 5.2.1 7.8.1 3.8-.1 7.7-.2 11.5-.4 5.4-.3 10.7-.5 16.1-.9 3.9-.3 7.8-.7 11.7-1 5-.4 10-.9 15.1-1.3 4.2-.3 8.4-.5 12.7-.8l3.1-.2c-.2-.8-.3-1.6-.2-2.4.1-.2 1-.5 1.4-.4 2.4.8 4.8 1.5 7.4 2.4zm4.1-74.4c-.5-.8-.9-1.6-1.3-2.5-.2-.9-1.1-1.5-2-1.5-1.5-.1-3 0-4.5.1-5.1.7-10.2 1.5-15.3 2.4-1.2.2-2.5.6-3.7.8-2.9.4-5.8.5-8.6 1.1-6 1.2-12.1 2.5-18.1 3.8-.5.2-.9.6-1.2 1.1-.2.6-.4 1.3-.5 2-1.1 6.6-2.1 13.2-3.1 19.8-.4 2.8-.9 5.6-1.2 8.4-.4 3.8-.5 7.6-.8 11.4-.2 1.9.8 3.1 2.7 3 .7-.1 1.4-.2 2.1-.4 2.2-.5 4.4-1 6.6-1.4 4.3-.6 8.7-1 13-1.6 6.5-.9 13-2 19.6-3 1.4-.2 2.8-.5 4.1-.8l7.2-1.5c1.2-.2 2.2-1.3 2.3-2.5.2-1.1.3-2.2.3-3.4.1-2.7.2-5.4.3-8.2.1-2.1.3-4.2.4-6.3.2-4 .4-8 .7-12 .4-2.7.7-5.5 1-8.8zm6 190.9c.8-.3 1.1-1.2.7-2-.1-.1-.1-.2-.2-.4-.2-.3-.2-.7-.4-1-1.5-3.2-2.9-6.4-4.5-9.5-.9-1.8-2.1-3.4-3.2-5.2l-5 1.8 12.6 16.3zM106 288.5l8.1 18.1c1.1-.2 1.1-.8.9-1.7l-2.7-11.1c-.5-2.1-1-4.3-1.5-6.5l-4.8 1.2zm-61.2-82.1 6.1-1.4v-4.9l-6.1.8v5.5zm101.3-32.6c-1.9-1.1-4.3-.8-5.7.8-.4.5-.9 1 0 1.5 1.8 1 5-.3 5.7-2.3zm-1.8 4.8c-1.9 0-3.7 1-4.9 2.6-.5.5-.4 1.2.4 1.2 1.9 0 3.6-.8 5-2 .3-.4.4-.9.3-1.4 0-.3-.7-.4-.8-.4zm.4-8.1c1-1.4 1-3 .1-3.6s-2.4.1-3.6 1.7l3.5 1.9zm-17.2 43.6c-.7 1.7-1.4 3.1-2 4.5h4.1c-.4-.9-.6-1.7-1-2.5-.2-.6-.6-1.1-1.1-2zm12.3-29.4c-2.4.7-4.1 2.7-3.8 4.3 3-1 4.1-2.2 3.8-4.3z"/><path id="パス_1248" d="M139.8 294.9v4.1c0 .4 0 .9-.1 1.3-.3.8-.7 1.7-1.6 1.3-.7-.4-1.1-1.1-1.3-1.8-.2-6.7-.2-13.3-.3-19.9 0-4.2.1-8.4 0-12.6 0-3.7-.1-7.4-.1-11.1V244c-1.2 1.7-2.5 3.6-3.9 5.5-1 1.3-2.1 2.6-3.1 3.9-.5.7-1.5.9-2.2.4-.1-.1-.2-.1-.3-.2-.8-.7-.7-1.5 0-2.3 2-2.3 4-4.6 6-7 .8-1 1.7-1.9 2.5-2.9.6-.8 1.6-1 2.5-.6.5.2.8.7.9 1.2.2 6.7.3 13.4.4 20.2 0 2-.1 4 .1 6 .3 3.9.7 7.7 1.2 11.6.9 6.4 2.1 12.8 2.8 19.3.9 7.8 1.5 15.7 2.1 23.6.5 5.8.9 11.7 1.4 17.5.4 4.3.8 8.6 1.3 13 .6 6.2 1.2 12.4 1.9 18.5.6 5.8 1.3 11.6 2 17.5.8 6.7 1.6 13.5 2.3 20.2.4 3.8.8 7.5 1.1 11.3s.7 7.6 1.1 11.3c.7 7 1.5 13.9 2.2 20.9.3 3.4.6 6.8.9 10.1.3 2.8.6 5.6.9 8.6 1.3.7 1.6 1.9.7 3.4-1.6 2.4-3.9 4-6.4 5.4-2.1 1.2-2.3 1.7-2 4.2.3 1.3.3 2.6.1 3.9-.6 2-1.4 3.8-2.6 5.5-2.2 3.1-4.6 6-7 9-.3.3-.8.4-1.3.6l-.4-.3c.1-.7.3-1.3.6-1.9 1.4-1.9 3-3.7 4.4-5.5.4-.5.6-1.1.6-1.8-2.1 2.2-4.2 4.5-6.4 6.7-.4.4-1.2.4-1.8.6l-1.8.6c-1 .6-1.8 1.4-3.1 1-.2-.1-.5.2-.7.3-1.2.4-2.5.9-3.6 1.4-.6.3-1 1.2-1.5 1.9 2.7.1 4.8-1.1 7-2.1 1.4-.7 2.9-1.5 4.3-2.1.4-.1.8-.1 1.1.1.3.3.5 1 .4 1.2-.4.8-1 1.5-1.7 2-5.1 3.2-10.6 5-16.7 4-2.3-.4-4.7-.8-7-1.3-.2 0-.4-.1-.6-.3-1.3-1.6-3.3-1.8-5.1-2.3-2.7-.9-4.3-3-5.8-5.2-.2-.6-.1-1.3.3-1.8.6-.5.9.3 1.3.8.5.6 1.1 1.1 1.6 1.6.5-1.8 1.7-3.2-.1-4.7-.2-.3-.2-.7 0-1 .4-.2.8-.4 1.3-.5.9-3.6 1.9-7.4 2.8-11.1 0-.3-.1-.7-.4-.9-.6-.4-1.2-.7-1.9-1-.9 3-2.9 5.6-2.8 8.9 0 1.6.1 3.1 0 4.6-.1.5-.2 1-.4 1.5-.5-.1-1-.3-1.5-.6-.4-.4-.6-1-.6-1.5-.3-4 0-7.8 2.4-11.2 1.3-1.8 1-2.8-.9-4-2.1-1.3-4.1-2.8-6-4.1-.7.2-1.4.7-2.1.7-1.1-.2-1.3-1.2-1.4-2.2-.1-5.9-.3-11.8-.2-17.7.1-4.4.7-8.8.9-13.3.2-5.6.2-11.2.3-16.8.1-6.3.1-12.7.1-19 0-1 0-2.1.1-3.1.1-.5.6-.9 1-1.3.3.4.8.8.9 1.2.2.8.2 1.7.2 2.6.1 4.9.3 9.8.4 14.6l.3 14.5c.1 3.4.1 6.7.1 10.1-.1 3.1-.4 6.1-.6 9.2-.1 2.6-.1 5.3-.2 7.9 0 1-.1 1.9-.1 2.9.1 1 .1 2 0 2.9-.5 4 2.3 5.8 5 7.4 3.4 2 6.9 3.9 10.5 5.5 1.7.7 3.6 1.2 5.4 1.5 2.5.6 5.1 1 7.6 1.6 3.1.8 6.4.6 9.4-.6 2.1-.8 4.4-1 6.4-2 3-1.4 5.9-3.2 8.8-4.8 1.7-1 3.4-2 5-3.2.5-.4.8-1 .8-1.6-.2-3.1-.5-6.2-.9-9.3-.5-4.5-1.2-8.9-1.7-13.4-.4-3.6-.6-7.2-1-10.8-.4-3.8-1.1-7.7-1.5-11.5-.5-4.4-.8-8.8-1.3-13.2-.6-5.8-1.2-11.6-1.9-17.4-.8-6.7-1.7-13.4-2.5-20.1-.5-4.5-1-9.1-1.5-13.7-.4-4.3-.8-8.5-1.2-12.8s-1-8.5-1.3-12.8c-.3-3.3-.5-6.6-.6-9.8-.2-3.7-.3-7.4-.5-11.1-.3-5.3-.7-10.7-1.1-16-.1-1.8-.5-3.6-.7-5.4l-.4-.4zm-3.1 200.9c4.2-1.8 3.4-5.5 4.1-9.3-5.8 2.5-11.4 3-17.2.1v11.5c1.3-.1 2.6-.3 3.9-.6 2.2-.7 4.4-1.6 6.5-2.5 1.3-.4 2.1-.4 2.7.8zm-15.5 2.4c.2-3.7.3-7.1.5-10.5.1-.8.1-1.4-.9-1.5-1.1-.2-2.2-.4-3.3-.8-1.5-.5-3-1-4.7-1.6-.7 4.2-1.5 8.3-2.2 12.5l10.6 1.9zm6.7 2.4h-1.1c-3.4.6-6.8.4-10.1-.5-1.7-.5-3.5-1-5.2-1.5-.4-.1-1.3.1-1.3.2-.3 1.1-.3 2.3-.2 3.5.1.4 1.3.6 1.9.9.6.3 1.1.5 1.6.9.5.3.9.9 1.4 1.1 3.4 1.3 7 1.2 10.5 1.3.3 0 .6-.2.8-.4.6-1.7 1.1-3.5 1.7-5.5zm18-11.1c-1.4 1.8-3.4 2.7-3.8 4.9-.1.3-.4.6-.7.8-.8.6-1.7 1-2.4 1.6-.9.8-1.8 1.1-2.6.3l-7 3.2c.1.6.2 1.3.2 1.9 1.6-.4 3.5-.4 4.8-1.2 2.9-1.7 5.7-3.6 8.3-5.8 1.6-1.2 3.3-2.9 3.2-5.7zm-3.5-3.1c.1 1.2.2 2.2.3 3.6l4.5-5.3-.2-.2-4.6 1.9zm5.8-2.2c.2.7.5 1.3.7 2 .8-1.1 2.5-1.6 1.5-3.4l-2.2 1.4z"/><path id="パス_1249" d="M28.3 483.3c-1.7-1-3.3-2.1-4.8-3.3-2.7-2.3-5.3-4.7-7.9-7.2-.9-1-1.7-2.2-2.3-3.4-.2-.3 0-.9 0-1.3.5.2 1.2.2 1.6.6.9 1.2 2 2.4 3 3.6 5.4 4.6 10.9 8.9 18.5 9.5 2.8.2 5.6 1.3 8.4 1.6 4.6.7 9.3.5 13.8-.5 3.3-.8 6.7-1.2 10.1-1.9 3-.7 6-1.5 9.1-2.3 4.5-1.2 8.9-2.5 13.6-2.6.9 0 1.8 0 1.8 1 0 .5-.9 1-1.4 1.5-.3.3-.7.6-.7.9 0 3.8.1 7.5.1 11.3 0 .1.1.2.3.4 1.2-.7 1.7-.1 2 1 .9 3 .6 6.2-.9 9-.9 1.8-2.6 2.6-4.2 3.7-4.5 2.9-9.9 4.2-15.3 3.6-.9-.1-1.8-.4-2.6-.8-.3-.1-.4-.7-.7-1.1.4-.2.8-.6 1.2-.6 1.4 0 2.7.3 4.1.3s2.3-.5 2.1-2.3l-23.3 1.6v.3c.9 0 1.9.1 2.8.1 3.4.3 6.8.6 10.2 1 .3 0 .6.5.9.8-.5.3-1 .7-1.4.7-2.9 0-5.8-.3-8.7-.2-3 0-6.1.5-9.1.5-4.8 0-9.7.3-14.4-.5-5.2-.8-10.3-2.1-14.2-6.2-.9-1-2.3-1.6-2.6-3.1-.1-.8-.2-1.7-.2-2.5-.1-1.4-.3-2.9-.4-4.3-.1-.6 0-1.3.3-1.9 1.4-2.6 3.7-4.5 6.5-5.3 1.6-.6 3.2-1.2 4.7-1.7zm36.6 17-4.1.8c-2.4.5-4.9 1-7.3 1.4v.4c8.1-.4 16.2-1.2 24.4-.7 0-.5.1-1 .2-1.8-1.9.1-3.6.2-5.3.4-2.8.5-5.4.8-7.9-.5.2-.8.1-1.8 1.3-1.9.7-.1 1.4 0 2.1 0 4.5 0 8.9-.5 13.3-1.5 1.4-5.4.5-10.6-.2-15.9l-6.6 2.1c.6 1.9.1 4-1.2 5.5-1.6 1.8-2.8 4.2-6.2 3.5-3-.7-5.2-2.9-5-6 0-.1-.1-.3-.1-.4l-.6.1c-4.7.9-9.4 1.6-14.2 1.1-1.5-.2-3-.4-4.2 1.1-.3.4-1.4.4-2.1.2-1.7-.3-3.6.3-5.2-.8 0 0-.1.1-.2.1.2 1.5-.3 2.2-1.5 2.4s-1.9-.7-2.3-2.4c-1.5-.1-2.7-.6-2.7-2.7l-1.9 1.1c-.4.2-.7.6-1.1.6-2.6.2-5 1.7-6.3 4-.5.9-.8 1.4.1 2.1.7-1.3 1.4-.7 2.2-.2 1.6 1.2 3.4 2.2 5.2 3 2.2.7 4.4 1.2 6.6 1.5 1.2.2 2.5.8 3.5.4 1.2-.4 2.5-.3 3.6.4.7.3 1.5.6 2.3.8 3.9 1.5 8.1 1.9 12.2 1 2.2-.3 4.4-.6 6.6-.6 1.1-.2 2.1.4 2.6 1.4zM43 501.8v-.4c-1-.3-2-.5-3-.9-.7-.4-1.5-.8-2.3-1-3.3-.6-6.6-1-10-1.4-3.5-.4-5.9-2.4-8.2-5.3 0 .8-.3 1.4-.1 1.8 1.1 2.2 2.6 4.2 5.1 4.8 2.5.6 5 1 7.5 1.6.6.1 1 .8 1.4 1.2-.5.3-1.1.8-1.6.7-1.7-.1-3.3-.3-5-.6-1.7-.3-3.3-.9-5.2-1.4.5.5 1.2.9 1.8 1.3 1.5.5 3.1.9 4.7 1.4 2.3.6 4.6 1.6 6.9 1.8 5 .4 10 .5 15 .6.4 0 .8-.1 1.2-.1v-.4c-3-.4-6-.8-9-1.3-1.5-.3-2.9-.6-4.3-1.1-.3-.1-.3-.9-.5-1.3.4-.2.8-.3 1.3-.3 1.5 0 2.9.2 4.3.3zm45.9-22.7-5.9 1.4c.6 3.8 1.1 7.5 1.7 11.1.1.5.1 1.5-.1 1.6-1.3.6-.6 1.8-1.1 2.7 1.6-.8 3.1-1.7 4.5-2.7.5-.4.8-1.1.9-1.7.1-1.9-.1-3.8-.1-5.8 0-2.1.1-4.3.1-6.6zm-9 21.5c-.1 1.3-.3 3.1-.5 4.8.3.1.3.2.4.1 3-.3 5.3-2.2 7.9-3.4.2-.2.4-.4.4-.7.5-2.1 1-4.2 1.5-6.1l-9.7 5.3zm-6.8-17c-2.6.4-4.9.8-7.2 1.2-.8.1-1.4.3-1.7 1.2-.4.9-.2 1.9.6 2.4 1.1.9 2.2 2 3.8 1.4 2-.8 3.6-2.4 4.4-4.4 0-.5.1-1.1.1-1.8zm-33.7 2.6c-3.1-1.3-6.1-2.1-9.3-1.2 1.5 1.4 3.4.9 5.1 1 .8.1 1.6.3 2.4.5v.4l1.8-.7zM91 497.6l.6.1c.1-1.2.2-2.5.3-3.7h-.5l-.4 3.6z"/><path id="パス_1250" d="M38.3 265.3c-1.1-.1-1.3-1-1.3-1.9 0-3.9 0-7.9.1-11.8 0-.5.6-1.3.9-1.4.7-.1 1 .6 1 1.4.1 4.2.4 8.4.2 12.6-.1 2.2.4 4.3 0 6.4-.5 2.3-.5 4.6-.8 6.9s-.5 4.6-.8 6.9c-.8 7-1.6 13.9-2.3 20.9-.5 4.7-.7 9.4-1.1 14.1-.9 8.6-1.7 17.3-2.8 25.9-.8 6.6-2 13.2-3.1 19.8S26 378.4 24.8 385c-1 5.8-2.1 11.5-3 17.4-.7 4.2-1.3 8.4-2 12.6-.6 3.6-1.3 7.2-1.8 10.9-.8 5.7-1.5 11.4-2.2 17.1-.5 3.6-1.1 7.1-1.5 10.6-.5 4.2-.8 8.3-1.4 12.5-.1.8-.6 1.4-1.2 1.8-1.1.3-1.7-.7-1.7-1.6 0-1.5.1-3 .2-4.5.4-3.6.8-7.1 1.2-10.7.4-3.4 1-6.8 1.5-10.2.8-6 1.5-12 2.4-18 1.1-7.2 2.3-14.4 3.4-21.6.9-5.9 1.9-11.8 2.9-17.7.6-3.7 1.4-7.4 2-11.2.7-4.2 1.3-8.5 2-12.8.5-3.2 1.2-6.4 1.7-9.6.6-3.6 1.2-7.2 1.6-10.8.5-4.5.8-9.1 1.3-13.6.8-8.3 1.6-16.7 2.6-25 .6-4.8 1.5-9.6 2.2-14.4.9-6.5 1.8-12.9 2.7-19.4.1-.5.4-1 .6-1.5z"/><path id="パス_1251" d="M102.4 46.2c.8-2 1.4-3.7 2-5.3.3-.8.7-1.5 1.6-1.1.4.2.5 1.2.4 1.8-.3 1.1-.7 2.3-1.1 3.4h.7c2.3-.9 4.3.1 5.1 3.1 1 3.7-.5 6.5-3.3 8.9-.2.2-.4.3-.6.4-.7.5-1.8.9-1.9 1.5-.2 1.6-.2 3.2-.1 4.7 3.2-1 3.7-.7 5 2.1.5.9 1 1.8 1.6 2.7.4.7.8 1.6 0 1.9-.7.3-1.5.2-2.2-.2-1-1.3-1.9-2.6-2.7-4h-.1c-2.9 1.3-3.8.7-3.8-2.4 0-1.4.1-2.7.2-4.2-1.6-.3-3.2-.4-4.8-.8-1.3-.2-2.5-1.1-2.9-2.4-.1-.5 0-1.1.3-1.6.5-.3 1.1-.3 1.6-.2 1.5.3 3 1.1 4.5 1 3.3 0 6.6-3.2 6.4-6.4-.1-.7-.6-1.8-1.1-1.9-.9 0-1.8.3-2.5.9-.9.9-2.7 1.6-3.7.8-2-1.4-4.1-2.9-6-4.4-2.6-2-4.9-4.5-6.7-7.2-.3-.5-1-.8-1.5-1.2-.5-.3-.9-.8-1.3-1.2-.6-.9-1.1-1.8-1.6-2.7-1-1.6-2.3-2.5-4.3-1.9-.6.2-1.3.2-2 .1-.4-.1-1.1-.5-1.1-.7 0-.5.4-1.2.7-1.3 1.7-.4 3.5-.7 5.2-1.1-2-5.4-3.5-11.1-2.2-17.4-.5.1-1.1.3-1.6.5-5.2 2.7-9.4 6.9-12.3 12-.1.3-.4.6-.3.8.2 1.1 0 1.6-1.3 1.7-.4 0-.7.8-1.1 1-.5.3-1.3.7-1.7.5-.4-.5-.6-1.1-.6-1.7.2-.7.4-1.4.7-2.1-.9-.8-1.7-1.6-2.4-2.5-.3-.3-.3-.9-.4-1.4.5-.1 1-.1 1.5.1 1 .6 1.9 1.3 2.8 2.1 3.2-5.5 8-9.7 13.8-12.2-2.9-.7-5.4.2-7.8 1-4.2 1.3-8.3 3.2-12 5.6-.5.2-1 .1-1.4-.2-.3-.6-.3-1.3 0-1.9.7-.8 1.5-1.6 2.4-2.1 4.4-2.6 9.4-4.3 14.4-5 2-.1 4 .1 6 .7 1.1.4 2.1 1 2.9 1.8.2.2.2.9.1 1.3-.5 3.5-.2 7 .7 10.4 1.6 5.4 4.2 10.5 7.6 15 3.5 4.5 7.7 7.7 12.2 10.9z"/><path id="パス_1252" d="M131.5 35.9c.3-5.8-1.9-10.7-4.5-15.6-1.6-3.3-3.7-6.2-6.3-8.7-2.5-2.2-5.2-4.5-8.4-5.5-2.7-.9-5.4-1.7-8.1-2.3-1.6-.2-3.1-.2-4.7-.1-.1 0-.3.1-.4.1-.7-.2-1.9-.4-2-.8-.2-1.1.9-1 1.7-1.2 6.6-1 13.4.5 19 4.1 3.6 2.1 6.7 4.9 9.2 8.2 2.1 3.1 3.9 6.4 5.4 9.9 1 2.3 1.8 4.7 2.2 7.1.6 3.8.4 7.7-.8 11.3-2 6.6-5.8 12.1-10 17.4-2.5 3.1-5.1 6.1-7.7 9-.4.5-.9.9-1.6 1.1-.7.1-1.3-.2-1.8-.6-.2-.6-.2-1.2.2-1.8 3.5-4.4 7.5-8.5 10.6-13.2 3-4.4 6.3-8.7 7.1-14.2l.9-4.2z"/><path id="パス_1253" d="M93.1 334c-.4.7-.7 1.5-1.1 2.1-1.9 3-4 5.8-5.8 8.8-2 3.3-3.9 6.6-5.8 9.9-1.6 2.8-3 5.6-4.6 8.4-2.3 4-4.6 7.9-6.9 11.8-1.6 2.7-3.1 5.4-4.6 8.1-.3.7-.6 1.5-.9 2.2-.1.4-.3.7-.5 1-.6.6-1.4 1.4-2.1.7-.6-.6-.8-1.5-.7-2.3 1-2.3 2.2-4.5 3.4-6.7 2-3.5 4.2-6.9 6.3-10.3 3.6-6.1 7-12.3 10.8-18.3 3-4.7 6.4-9.2 9.6-13.8.6-.8 1.1-1.6 1.6-2.4.3-.2.6-.3 1-.2.1.2.1.6.3 1z"/><path id="パス_1254" d="M99.1 218c-.6-3-1.1-5.8-1.6-8.6-.1-.3.2-1 .4-1 .4-.1.9 0 1.2.3.6.8 1 1.6 1.2 2.6.7 3.3 1.2 6.7 1.7 10 .1.3.1.6 0 .8-.3.6-.6 1.4-1.1 1.5-1 .2-1.3-.6-1.4-1.5-.1-.6-.2-1.1-.2-1.5-2.7-.3-5.3-.6-8-.9-3.1-.3-6.1-.6-9.2-.8-5.9-.4-11.6 1.3-17.3 2.4-.9.2-1.8.5-2.6 1-.7.3-1.5.5-1.8-.3-.1-.4.5-1.3 1-1.5 2.1-.9 4.3-1.6 6.5-2.2 2.6-.7 5.2-1.2 7.8-1.6 3.2-.4 6.5-.6 9.8-.5 4 .2 8 .8 11.9 1.3.5.1 1.1.3 1.7.5z"/><path id="パス_1255" d="M50.2 364.8c.7-1.2 1.4-2.3 2.3-3.4 4.1-3.9 8.2-7.8 12.4-11.5 2.9-2.6 5.9-5.2 9-7.7 4.3-3.5 8.7-7 13-10.5 1.1-.9 2-1.9 3-2.8.5-.3 1.1-.6 1.7-.8-.2.6-.2 1.4-.6 1.8-2.6 2.5-5.2 5.1-8 7.5-3 2.7-6.1 5.2-9.1 7.9-3.6 3.2-7.2 6.2-10.8 9.5-3 2.8-5.9 5.7-8.8 8.6-.6.5-1 1.1-1.2 1.9 0 .6-.5 1.1-1.1 1.1h-.3c-.4-.3-.8-1-1.5-1.6z"/><path id="パス_1256" d="M77.9 70.6c-3.3 0-6.4-.2-9.6.1-2.6.3-5.1-1.2-6.1-3.7-.4-1.1-.7-2.2-.9-3.3-.1-.4.2-.9.4-1.4.5.1.9.3 1.4.4.1.1.2.3.3.5.6 3.9 3.3 4.3 6.6 4 2.8-.2 5.7-.1 8.5-.2 1-.1 2.1-.2 3.1-.4 1-.1 2 .1 2.2 1.1.2.8-.3 1.5-1.1 1.7h-.3c-.7.1-1.4.3-2.1.5l.9 3.7.3 1.2c.2.9-.4 1.7-1.3 1.8-.4.1-1.2-.8-1.4-1.3-.5-1.4-.6-3-.9-4.7z"/><path id="パス_1257" d="M95 258.8c.6-1.9 1.1-3.6 1.6-5.3 1.3-4.7 2.5-9.4 3.8-14.2.3-1.2.7-2.4 1.2-3.5.2-.4.7-.7 1.1-1 .2.5.8 1 .7 1.5-.4 2-.9 4-1.3 5.9-1 4.6-2 9.3-3 13.9-.3 1.1-.7 2.2-1.2 3.2-.2.6-.9.9-1.5.7-.1 0-.2-.1-.3-.1-.5-.2-.9-.6-1.1-1.1z"/><path id="パス_1258" d="M59.5 231.7c0-.1.1-.3.1-.4.3-.4.6-.9 1-1.3.3.4.9.8 1 1.3.6 2.8 1.1 5.5 1.6 8.3.5 3.2 1.7 6.3 3.6 9 .5.7 1 1.6.1 2.3s-1.7 0-2.3-.7c-1.8-2-3-4.6-3.3-7.3-.6-3.6-1.1-7.2-1.5-10.8-.2-.2-.2-.3-.3-.4z"/><path id="パス_1259" d="M85.9 202.1h-4.8c-.8 0-1.6-.1-1.4-1.1.3-.6.8-1.1 1.5-1.2 1.3-.2 2.6-.4 4-.5 0-1.5-1.3-2.8-.1-4.2 1.3 0 1.7.9 2.1 1.9.5 1 1 2 1.6 2.9.1.2.3.4.3.6-.8 1.8.2 3.5.2 5.3.1.5 0 1-.1 1.5-.3.5-.6 1-1.1 1.5-.5-.5-1.2-.9-1.3-1.5-.4-1.7-.6-3.4-.9-5.2z"/><path id="パス_1260" d="M79.5 256.3c-.8-.1-1.5-.2-2.3-.5-.3-.2-.5-.6-.5-1 0-.3.5-.9.7-.8 2.7.5 4.2-1.7 6.1-2.9 1.8-1.1 3.6-2.1 5.3-3.2.8-.5 1.6-.3 1.9.4.1.6-.1 1.2-.6 1.6-2.9 2-5.8 3.9-8.7 5.8-.7.3-1.3.5-1.9.6z"/><path id="パス_1261" d="M68.1 58.9c-2.5-.6-5-1.2-7.4-2-.6-.2-1.4-1.1-1.3-1.5.1-1 .6-1.8 1.3-2.5.6-.6 1.1.2 1.1.9-.1 1.1.3 1.4 1.2 1.4 2.3.2 4.6.4 6.8.8.7.2 1.3.5 1.9.9-.5.6-1 1.1-1.6 1.5-.6.2-1.3.3-1.9.3l-.1.2z"/><path id="パス_1262" d="M84.9 0c2.3.4 4.3.8 6.4 1.2.6.1 1.1.5 1.4 1 .2.5.2 1.1 0 1.6-.1.2-.9.3-1.3.2-2.8-1.1-5.7-1.6-8.7-1.4-.4 0-.8.3-1.2.2s-1-.3-1.1-.6c0-.4.2-.8.6-1C82.3.7 83.7.3 84.9 0z"/><path id="パス_1263" d="M115.9 246.5c.9.4 1.7 1 2.5 1.6 1.5 1.6 3.3 2.9 5.3 3.7.4.2.7.9 1 1.3-.5.2-1 .7-1.5.7-2.2-.2-4.2-1.3-5.4-3.2-.4-.6-.9-1.2-1.5-1.7-1-.6-1.1-1.2-.4-2.4z"/><path id="パス_1264" d="M108.4 75.3c-.3.4-.6 1.1-1.1 1.3-.9.3-1.5-.3-1.6-1.1-.3-1.9-.4-3.9-.5-5.9 0-.3.5-.7.9-.8.2-.1.8.3.8.6.6 1.9 1 3.8 1.5 5.9z"/><path id="パス_1265" d="M61.3 49.5c-1.8-.2-4.8-3.3-4.7-4.8 0-.4.2-.7.5-.9.4-.1.8-.1 1.1.1 1.3 1.2 2.6 2.4 3.8 3.7.3.4.3.8.2 1.2-.2.4-.7.6-.9.7z"/><path id="パス_1266" d="M80.5 42.2c-1-.1-1.7-1-1.6-2 .1-1 .9-1.8 1.9-1.9.8-.1 1.6.5 1.7 1.3v.3c0 1.1-.9 2.1-2 2.3z"/><path id="パス_1267" d="M63.7 30.3c0 1.8-.9 3.2-1.9 3.1s-1.4-.7-1.3-1.7c0-1.1 1.1-2.6 1.7-2.4.6.2 1.1.6 1.5 1z"/><path id="パス_1268" class="st3" d="M115.8 186.5c-2.6-.8-5-1.6-7.5-2.2-.4-.1-1.4.2-1.4.4 0 .8 0 1.6.2 2.4l-3.1.2c-4.2.2-8.4.4-12.7.8-5 .4-10 .8-15.1 1.3-3.9.3-7.8.7-11.7 1-5.4.4-10.7.6-16.1.9-3.8.2-7.7.3-11.5.4-2.6.1-5.2-.1-7.8-.1-3.1 0-6.2.2-9.3.2-.6 0-1.3-.3-1.9-.3-1.5.1-1.9-.8-1.8-2 .2-4.3.3-8.6.8-12.9.6-5.5 1.5-10.9 2.2-16.4.1-.9.4-1.2 1.4-.9 2.9 1 5.9 1.9 8.9 2.7 2.4.6 4.8 1.1 7.4 1.7-.5 2.2-1.1 4.5-1.6 6.8 0 .2-.3.3-.4.4-.2.4-.7 1-.6 1.2.3.4.7.7 1.2.8 3.8.2 7.7.4 11.5.4 6.7.1 13.4 0 20 .3 5.7.2 11.3.6 17 1.2 3.3.3 6.6 1.2 9.9 1.6 2.2.3 4.5.4 6.7.7 1.7.2 3.3.7 4.9 1 .5.1 1 .1 1.5 0 3.1-1.5 6.3-3.1 9.4-4.7.8-.4 1.6-1.3 2.4 0 .1.1.2.1.3.1 1.5-.6 2.9-1.2 4.2-2 .8-.6 2.8-1.6 3.8-1.3.8.3.8.8.2 1.3-.6.4-1.1.8-1.8 1.1-1.5.8-3 1.5-4.6 2.2-1.7.8-2.1 1.9-2.1 3.8 0 1.2-.8 2.4-1.3 3.7-.5 1.3-1.1 2.8-1.6 4.2z"/><path id="パス_1269" class="st3" d="M119.9 112.2c-.3 3.3-.6 6.1-.8 9-.3 4-.4 8-.7 12-.1 2.1-.3 4.2-.4 6.3-.1 2.7-.2 5.4-.3 8.2 0 1.1-.2 2.3-.3 3.4-.1 1.3-1.1 2.3-2.3 2.5l-7.2 1.5c-1.4.3-2.8.5-4.1.8-6.5 1-13 2.1-19.6 3-4.3.6-8.7 1-13 1.6-2.2.3-4.4.9-6.6 1.4-.7.2-1.4.3-2.1.4-1.9.1-2.9-1.1-2.7-3 .3-3.8.5-7.6.8-11.4.3-2.8.8-5.6 1.2-8.4 1-6.6 2-13.2 3.1-19.8.1-.7.2-1.4.5-2 .2-.5.6-.9 1.2-1.1 6-1.3 12-2.7 18.1-3.8 2.8-.5 5.8-.7 8.6-1 1.3-.2 2.5-.6 3.7-.8l15.3-2.4c1.5-.2 3-.2 4.5-.1.9 0 1.8.6 2 1.5.2.5.6 1.4 1.1 2.2zm-22.5 23.2c3-2.9 6-5.6 8.8-8.4 3.4-3.4 7-6.7 9.4-11 0-.1.1-.2.2-.2.7-.6 1.4-1.2 2.1-1.9l.9-1.5c-.7-.4-1.5-1-2.2-1-2.3 0-4.6.1-6.9.4-.7.1-1.3.4-1.8.9-2.8 2.8-5.6 5.7-8.3 8.6-1.6 1.7-3.3 3.4-4.9 5.1-1.1 1.2-2.3 2.3-3.4 3.4-2.3-1.8-4.5-3.4-6.6-5.1-2.3-1.8-4.9-3.3-6.3-6-.2-.3-.5-.5-.9-.5-2.9.1-5.8.3-8.7.6-.4 0-.9.8-1.2 1.3-.1.1.5.7.8 1 .9.7 1.8 1.4 2.6 2.2 3 2.7 5.9 5.4 8.9 8.1 1.7 1.6 3.5 3.1 5.2 4.7-2.8 3-5.5 6-8.3 9-.8.8-1.5 1.7-2.3 2.5-2.7 2.5-5.4 4.9-8.1 7.4-.4.5-.6 1.1-.4 1.7.3.5.9.7 1.5.7 3.3-.6 6.6-1.3 9.8-2 .5-.2.9-.5 1.3-.9 1.8-1.8 3.5-3.7 5.3-5.5 2.5-2.6 4.9-5.2 7.3-7.8 3.4 2.8 6.6 5.4 9.7 8 1.2 1 2.6 1.6 3.4 3.2.4.9 1.4 1.3 2.4 1 2.3-.6 4.6-1.1 6.9-1.8.3-.4.5-.9.3-1.3-.5-.8-1.1-1.4-1.9-2-2.6-2.2-5.2-4.4-7.8-6.7-2.3-2.2-4.5-4.2-6.8-6.2z"/><path id="パス_1270" class="st3" d="m125.9 303-12.6-16.4 5-1.8c1.1 1.8 2.3 3.5 3.2 5.2 1.6 3.2 3 6.4 4.5 9.5.2.3.2.7.4 1 .5.6.5 1.6-.1 2.1-.2.3-.3.4-.4.4z"/><path id="パス_1271" class="st3" d="m106 288.4 4.9-1.3c.5 2.2 1 4.4 1.5 6.5.9 3.7 1.7 7.4 2.7 11.1.2.9.1 1.5-.9 1.7l-8.2-18z"/><path id="パス_1272" class="st3" d="M44.8 206.4V201l6.1-.8v4.9l-6.1 1.3z"/><path id="パス_1273" class="st3" d="M146.2 173.8c-.7 2-4 3.3-5.7 2.3-.9-.5-.4-1 0-1.5 1.4-1.6 3.8-1.9 5.7-.8z"/><path id="パス_1274" class="st3" d="M144.3 178.6c.1 0 .8.1.8.3.1.5 0 1-.3 1.4-1.3 1.3-3.1 2-5 2-.8 0-.9-.7-.4-1.2 1.3-1.3 2.6-2.5 4.9-2.5z"/><path id="パス_1275" class="st3" d="m144.7 170.5-3.5-1.9c1.1-1.6 2.7-2.3 3.6-1.7s.9 2.2-.1 3.6z"/><path id="パス_1276" class="st3" d="M127.5 214.1c.5.9.9 1.4 1.1 2 .3.8.6 1.6 1 2.5h-4.1c.7-1.4 1.3-2.8 2-4.5z"/><path id="パス_1277" class="st3" d="M139.8 184.7c.3 2.1-.8 3.3-3.8 4.3-.3-1.6 1.4-3.6 3.8-4.3z"/><path id="パス_1278" class="st3" d="M136.7 495.8c-.6-1.2-1.5-1.2-2.6-.7-2.1.9-4.3 1.8-6.5 2.5-1.3.3-2.6.5-3.9.6v-11.5c5.8 2.9 11.3 2.3 17.2-.1-.7 3.6 0 7.4-4.2 9.2z"/><path id="パス_1279" class="st3" d="m121.2 498.2-10.5-1.9c.8-4.2 1.5-8.3 2.2-12.5 1.7.6 3.1 1.1 4.7 1.6 1.1.3 2.2.6 3.3.8 1 .2 1 .7.9 1.5-.3 3.4-.5 6.8-.6 10.5z"/><path id="パス_1280" class="st3" d="M127.9 500.6c-.6 2-1.1 3.7-1.7 5.5-.2.3-.5.4-.8.4-3.5-.1-7.1-.1-10.5-1.3-.5-.2-.9-.8-1.4-1.1-.5-.3-1-.6-1.6-.9-.7-.3-1.9-.5-1.9-.9-.1-1.2-.1-2.3.2-3.5 0-.1.9-.3 1.3-.2 1.8.4 3.5 1 5.2 1.5 3.3 1 6.7 1.1 10.1.5h1.1z"/><path id="パス_1281" class="st3" d="M145.9 489.5c.1 2.8-1.6 4.5-3.1 5.8-2.6 2.2-5.4 4.1-8.3 5.8-1.4.8-3.1.8-4.8 1.2-.1-.6-.2-1.3-.2-1.9l7-3.2c.8.8 1.6.5 2.6-.3.8-.6 1.6-1 2.4-1.6.3-.2.5-.5.7-.8.3-2.3 2.3-3.2 3.7-5z"/><path id="パス_1282" class="st3" d="m142.4 486.4 4.6-1.8.2.2-4.5 5.3c-.1-1.4-.2-2.5-.3-3.7z"/><path id="パス_1283" class="st3" d="m148.2 484.2 2.2-1.3c1 1.8-.7 2.3-1.5 3.4-.3-.9-.5-1.4-.7-2.1z"/><path id="パス_1284" class="st3" d="M64.9 500.3c-.4-1-1.5-1.6-2.6-1.4-2.2.1-4.4.3-6.6.6-4.1.8-8.3.5-12.2-1-.8-.3-1.6-.4-2.3-.8-1.1-.7-2.4-.8-3.6-.4-1 .4-2.3-.2-3.5-.4-2.2-.3-4.4-.9-6.6-1.5-1.8-.8-3.6-1.8-5.2-3-.8-.5-1.6-1.1-2.2.2-1-.7-.7-1.2-.1-2.1 1.3-2.3 3.7-3.8 6.3-4 .4 0 .7-.4 1.1-.6l1.9-1.1c.1 2.2 1.3 2.6 2.7 2.7.4 1.7 1.1 2.6 2.3 2.4s1.7-.9 1.5-2.4c.1 0 .2-.2.2-.1 1.6 1 3.5.4 5.2.8.7.1 1.8.2 2.1-.2 1.2-1.5 2.7-1.2 4.2-1.1 4.8.5 9.5-.2 14.2-1.1l.6-.1c.1.1.1.3.1.4-.2 3.1 1.9 5.3 5 6 3.3.8 4.5-1.7 6.2-3.5 1.3-1.5 1.8-3.6 1.2-5.5l6.6-2c.7 5.3 1.6 10.5.2 15.9-4.4 1-8.8 1.5-13.3 1.5-.7 0-1.4-.1-2.1 0-1.2.1-1.2 1.1-1.3 1.8z"/><path id="パス_1285" class="st3" d="M43 501.8c-1.4-.1-2.8-.3-4.2-.4-.4 0-.9.1-1.3.3.2.5.2 1.2.5 1.3 1.4.5 2.8.9 4.3 1.1 3 .5 6 .9 9 1.3v.4c-.4.1-.8.1-1.2.1-5-.2-10-.2-15-.6-2.3-.2-4.6-1.2-6.9-1.8-1.6-.4-3.1-.8-4.7-1.4-.7-.4-1.3-.8-1.8-1.3 1.9.5 3.6 1.1 5.2 1.4 1.7.3 3.3.5 5 .6.5 0 1.1-.5 1.6-.7-.5-.4-.9-1.1-1.4-1.2-2.5-.6-5-1-7.5-1.6-2.6-.6-4-2.5-5.1-4.8-.2-.4 0-1 .1-1.8 2.3 2.9 4.7 4.9 8.2 5.3 3.3.4 6.6.9 10 1.4.8.3 1.5.6 2.3 1 1 .4 2 .6 3 .9l-.1.5z"/><path id="パス_1286" class="st3" d="M88.9 479.1v6.6c0 1.9.2 3.8.1 5.8-.1.7-.4 1.3-.9 1.7-1.4 1-3 1.9-4.5 2.7.4-.9-.2-2.1 1.1-2.7.2-.1.2-1 .1-1.6-.5-3.7-1.1-7.3-1.7-11.1l5.8-1.4z"/><path id="パス_1287" class="st3" d="m79.9 500.6 9.7-5.3c-.5 1.9-.9 4-1.5 6.1 0 .3-.2.5-.4.7-2.6 1.2-4.9 3.2-7.9 3.4-.1 0-.3-.1-.4-.1.2-1.7.4-3.5.5-4.8z"/><path id="パス_1288" class="st3" d="M73.1 483.6c0 .6 0 1.2-.2 1.8-.8 2-2.4 3.6-4.4 4.4-1.6.6-2.7-.5-3.8-1.4-.7-.6-1-1.6-.6-2.4.3-.9 1-1 1.7-1.2 2.4-.3 4.7-.7 7.3-1.2z"/><path id="パス_1289" class="st3" d="M64.8 500.3c2.5 1.3 5.2.9 7.9.6 1.7-.2 3.4-.3 5.3-.4-.1.7-.1 1.3-.2 1.8-8.2-.5-16.3.3-24.4.7v-.4c2.4-.5 4.9-1 7.3-1.4l4.1-.9z"/><path id="パス_1290" class="st3" d="m39.4 486.2-1.8.7v-.4c-.8-.2-1.6-.4-2.4-.5-1.7-.1-3.6.4-5.1-1 3.2-.9 6.2-.1 9.3 1.2z"/><path id="パス_1291" class="st3" d="m91 497.6.3-3.7h.5c-.1 1.2-.2 2.5-.3 3.7H91z"/><path id="パス_1292" d="M97.4 135.4c2.3 2 4.5 4 6.7 6 2.6 2.2 5.2 4.4 7.8 6.7.7.6 1.3 1.3 1.9 2 .2.3-.1 1.3-.3 1.3-2.3.7-4.6 1.2-6.9 1.8-.9.3-1.9-.2-2.4-1-.7-1.6-2.2-2.2-3.4-3.2-3.1-2.6-6.2-5.1-9.7-8-2.5 2.6-4.9 5.2-7.3 7.8-1.8 1.9-3.5 3.7-5.3 5.5-.3.4-.8.7-1.3.9-3.3.7-6.5 1.4-9.8 2-.6 0-1.1-.2-1.5-.7-.1-.6 0-1.3.4-1.7 2.7-2.5 5.4-5 8.1-7.4.8-.8 1.6-1.6 2.3-2.5 2.8-3 5.5-5.9 8.3-9-1.7-1.5-3.5-3.1-5.2-4.7-3-2.7-5.9-5.4-8.9-8.1-.8-.8-1.8-1.4-2.6-2.2-.3-.3-.9-.8-.8-1 .3-.5.7-1.2 1.2-1.3 2.9-.3 5.8-.4 8.7-.6.4 0 .7.2.9.5 1.4 2.7 4.1 4.2 6.3 6 2.1 1.7 4.3 3.3 6.6 5.1 1.1-1.1 2.3-2.2 3.4-3.4 1.7-1.7 3.3-3.4 4.9-5.1 2.8-2.9 5.5-5.8 8.3-8.6.5-.5 1.1-.8 1.8-.9 2.3-.2 4.6-.4 6.9-.4.7 0 1.5.7 2.2 1-.2.5-.5 1-.9 1.5-.6.7-1.4 1.3-2.1 1.9l-.2.2c-2.4 4.3-6 7.6-9.4 11-2.7 3-5.7 5.7-8.7 8.6z"/></g></g></g></g></svg>