<svg xmlns="http://www.w3.org/2000/svg" xml:space="preserve" id="レイヤー_1" x="0" y="0" style="enable-background:new 0 0 273.7 128.7" version="1.1" viewBox="0 0 273.7 128.7"><style>.st0{enable-background:new}.st1{fill:none;stroke:#ddd}</style><g class="st0"><path d="M3.7 58.9V51c.9.8 2 1.5 3.3 2.2 1.3.6 2.6 1.2 4 1.6 1.4.4 2.8.8 4.2 1 1.4.2 2.7.4 3.9.4 4.1 0 7.2-.8 9.3-2.3s3.1-3.7 3.1-6.6c0-1.5-.3-2.9-1-4s-1.6-2.2-2.8-3.1c-1.2-.9-2.6-1.9-4.3-2.7-1.6-.9-3.4-1.8-5.3-2.7-2-1-3.9-2-5.6-3.1-1.7-1-3.2-2.2-4.5-3.4C6.7 27 5.7 25.6 5 24c-.7-1.6-1.1-3.4-1.1-5.6 0-2.6.6-4.9 1.7-6.8C6.7 9.4 8.2 7.8 10 6.5c1.9-1.3 4-2.2 6.4-2.8 2.4-.6 4.8-.9 7.3-.9 5.7 0 9.8.7 12.4 2v7.6c-3.4-2.3-7.7-3.5-13.1-3.5-1.5 0-2.9.2-4.4.5-1.5.3-2.8.8-3.9 1.5s-2.1 1.6-2.8 2.7c-.7 1.1-1.1 2.4-1.1 4 0 1.5.3 2.7.8 3.8.5 1.1 1.4 2 2.4 2.9 1.1.9 2.4 1.7 3.9 2.6 1.5.8 3.3 1.7 5.3 2.7 2.1 1 4 2.1 5.8 3.2s3.5 2.4 4.8 3.7c1.4 1.4 2.5 2.9 3.3 4.5.8 1.7 1.2 3.6 1.2 5.7 0 2.8-.6 5.2-1.7 7.2s-2.6 3.6-4.5 4.8c-1.9 1.2-4.1 2.1-6.5 2.7-2.5.5-5 .8-7.8.8-.9 0-2-.1-3.4-.2-1.3-.1-2.7-.4-4.1-.6-1.4-.3-2.7-.6-3.9-1-1-.6-1.9-1-2.7-1.5zM78.4 61.2h-6.6v-6.4h-.2c-2.9 4.9-7.1 7.4-12.6 7.4-4.1 0-7.3-1.1-9.6-3.2-2.3-2.2-3.5-5-3.5-8.6 0-7.7 4.5-12.1 13.5-13.4l12.3-1.7c0-7-2.8-10.5-8.4-10.5-4.9 0-9.4 1.7-13.4 5v-6.7c4-2.6 8.7-3.8 13.9-3.8 9.6 0 14.5 5.1 14.5 15.3v26.6zm-6.6-20.7L62 41.8c-3 .4-5.3 1.2-6.9 2.3-1.5 1.1-2.3 3-2.3 5.7 0 2 .7 3.6 2.1 4.9 1.4 1.3 3.3 1.9 5.7 1.9 3.3 0 5.9-1.1 8.1-3.4 2.1-2.3 3.2-5.2 3.2-8.7v-4zM118.7 59.3c-3.1 1.9-6.9 2.8-11.2 2.8-5.8 0-10.6-1.9-14.2-5.7-3.6-3.8-5.4-8.7-5.4-14.8 0-6.8 1.9-12.2 5.8-16.3 3.9-4.1 9-6.1 15.5-6.1 3.6 0 6.8.7 9.5 2V28c-3-2.1-6.3-3.2-9.8-3.2-4.2 0-7.6 1.5-10.3 4.5-2.7 3-4 6.9-4 11.8 0 4.8 1.3 8.6 3.8 11.4 2.5 2.8 5.9 4.2 10.1 4.2 3.6 0 6.9-1.2 10.1-3.6v6.2zM162.7 61.2h-6.6V37.6c0-8.5-3.2-12.8-9.5-12.8-3.2 0-5.9 1.2-8.1 3.7-2.2 2.5-3.3 5.6-3.3 9.5v23.2h-6.6V.5h6.6V27h.2c3.1-5.2 7.6-7.8 13.5-7.8 9.2 0 13.9 5.6 13.9 16.7v25.3zM178.4 9.8c-1.2 0-2.2-.4-3-1.2-.8-.8-1.2-1.8-1.2-3s.4-2.2 1.2-3.1c.8-.8 1.8-1.2 3-1.2s2.2.4 3.1 1.2c.8.8 1.3 1.8 1.3 3.1 0 1.2-.4 2.2-1.3 3-.8.8-1.9 1.2-3.1 1.2zm3.2 51.4H175v-41h6.6v41zM229 61.2h-9.2l-18.1-19.7h-.2v19.7h-6.6V.5h6.6V39h.2l17.2-18.8h8.6l-19 19.8L229 61.2zM252.8 62.2c-6.1 0-10.9-1.9-14.5-5.7-3.6-3.8-5.4-8.9-5.4-15.2 0-6.9 1.9-12.3 5.6-16.1 3.8-3.9 8.8-5.8 15.3-5.8 6.1 0 10.9 1.9 14.3 5.6s5.1 9 5.1 15.7c0 6.5-1.8 11.8-5.5 15.7-3.7 3.8-8.7 5.8-14.9 5.8zm.5-37.4c-4.2 0-7.6 1.4-10 4.3s-3.7 6.8-3.7 11.9c0 4.9 1.2 8.7 3.7 11.5s5.8 4.2 10 4.2 7.5-1.4 9.8-4.1c2.3-2.7 3.4-6.7 3.4-11.7 0-5.1-1.1-9.1-3.4-11.9-2.3-2.8-5.5-4.2-9.8-4.2z" class="st1"/></g><g class="st0"><path d="M40.3 75.9H23.8v51.3H17V75.9H.5v-6.1h39.8v6.1zM68.6 127.2H62v-6.4h-.2c-2.9 4.9-7.1 7.4-12.6 7.4-4.1 0-7.3-1.1-9.6-3.2-2.3-2.2-3.5-5-3.5-8.6 0-7.7 4.5-12.1 13.5-13.4l12.3-1.7c0-7-2.8-10.5-8.4-10.5-4.9 0-9.4 1.7-13.4 5v-6.7c4-2.6 8.7-3.8 13.9-3.8 9.6 0 14.5 5.1 14.5 15.3v26.6zM62 106.5l-9.9 1.4c-3 .4-5.3 1.2-6.9 2.3-1.5 1.1-2.3 3-2.3 5.7 0 2 .7 3.6 2.1 4.9 1.4 1.3 3.3 1.9 5.7 1.9 3.3 0 5.9-1.1 8.1-3.4 2.1-2.3 3.2-5.2 3.2-8.7v-4.1zM132.6 86.2l-12.3 41h-6.8l-8.4-29.3c-.3-1.1-.5-2.4-.6-3.8h-.2c-.1 1-.4 2.2-.8 3.7l-9.2 29.4h-6.6l-12.4-41h6.9l8.5 30.8c.3.9.5 2.2.6 3.7h.3c.1-1.2.3-2.4.7-3.8l9.4-30.8h6l8.5 30.9c.3 1 .5 2.2.6 3.7h.3c.1-1 .3-2.3.7-3.7l8.3-30.9h6.5zM169.6 127.2H163v-6.4h-.2c-2.9 4.9-7.1 7.4-12.6 7.4-4.1 0-7.3-1.1-9.6-3.2-2.3-2.2-3.5-5-3.5-8.6 0-7.7 4.5-12.1 13.5-13.4l12.3-1.7c0-7-2.8-10.5-8.4-10.5-4.9 0-9.4 1.7-13.4 5v-6.7c4-2.6 8.7-3.8 13.9-3.8 9.6 0 14.5 5.1 14.5 15.3v26.6zm-6.6-20.7-9.9 1.4c-3 .4-5.3 1.2-6.9 2.3-1.5 1.1-2.3 3-2.3 5.7 0 2 .7 3.6 2.1 4.9 1.4 1.3 3.3 1.9 5.7 1.9 3.3 0 5.9-1.1 8.1-3.4 2.1-2.3 3.2-5.2 3.2-8.7v-4.1z" class="st1"/></g></svg>