<svg version="1.1" id="レイヤー_1" xmlns="http://www.w3.org/2000/svg" x="0" y="0" viewBox="0 0 558 581" style="enable-background:new 0 0 558 581" xml:space="preserve"><style>.st1{fill:#fff}.st2{enable-background:new}</style><path d="m260 0 260 260-260 260L0 260 260 0z" style="fill:none" transform="translate(8.74 32.231)"/><path d="M260 14.1 14.1 260 260 505.9 505.9 260 260 14.1M260 0l260 260-260 260L0 260 260 0z" transform="translate(8.74 32.231)"/><path class="st1" d="m179.7 429.1 25.4-1.2 12.8 21.4 9.3 17.6h4.4l14.7 6.6 6.4 9.4 1.1 6.6-36.1 34.3-24 4c-1.3.2-2.7-.1-3.7-.9l-2.4-1.7c-1.2-.8-1.8-2.3-1.5-3.7l1.6-7.8 16.1-7.3 6.1-11.3 4.2-13.4-.3-6.1-34.1-46.5zM41.5 498.7 21 506.4l-15.7 2.5-4.7 4.9.9 7 2.2 6.4h9.5l27.5.9H56l17.3-4.3v-19l-3.8-7-28 .9zM153.2 109.1l.2 1.1 7.8 40.5v33.2l-8.7 56.9-4.6 31.5 3 17.1 12.1 24.2 13.6 25.6 21 39.3 16.4 36.3-59.2 14.9-51.8 2.7-47-20.5 2.2-153.5v-25.1l8.9-24.5 22.3-60.7 63.8-39z" transform="translate(167.902 51.532)"/><path class="st1" d="m65.1 135.4 5.6 3.5 15.7-.8-2 8.1 18.5 1.9 50.6-38-1.5-8.4 7.7-14.6 5-21.7 4.1-19.6-5.3-21.1-13-16L139 2.2h-12.3l-10.6 3.1-6 2.8-8.8 7.7L96 27.1l-3.1 11.2-.9 10.1L86.3 62l-.1 20.1-1.8 9.6-7 11.3 3.2 13-2.5 10.5-13 8.9z" transform="translate(167.902 51.532)"/><path class="st1" d="M30.3 120c.1-.7 1.6-9.1 1.6-9.1V105l-3.3-8.4c-.8-2-1-4.2-.7-6.4l1.7-10.6-.7-7.2-1.6-13 2.3-2.6 3.3 6.4s1 10.5 1.3 10.3 12-3.5 12-3.5l5-15.4 3.5-2.4 1.9 1.2-3.8 22.3 3.8-4 3.5 1.6.2 4.4-5.2 19.6-5.8 5 .6 22.4h2.4l8.1 26.9v2.5l22.4-7.5-14 40.8s-18.6 3.5-19.4 3.1l-11.6-5.8-7.8-21.3-2.6-26.7 2.9-16.7z" transform="translate(167.902 51.532)"/><path class="st1" d="M28.5 94.4c1.3-.7 2-2 1.9-3.5 0-3.5.5-7 .7-10.5.1-1.3 1.5-2.4.4-3.8-.3-.3-.7-.8-1-.8-.4.1-.8.5-1 .9-.3.8-.4 1.6-.5 2.4-.5 3.7-1.1 7.4-1.6 11.2-.3 1.5.1 2.9 1.1 4.1-.3.8-.5 1.7-.5 2.5.4 2.2 1.1 4.4 1.7 6.5.4.9.7 1.8.9 2.7.1 2.5.1 4.9.1 7.4.1 1.2 0 2.3-.3 3.4-.5 1.1-1.1 2.1-1.8 3-.2.3-.4.5-.5.8-.5.7-1.2 1.4-1.3 2.1-.4 3.4-.8 6.8-1 10.2-.2 3 0 6.1.7 9.1.7 3.1 1.4 6.2 1.9 9.3.6 3.9 1 7.9 1.6 11.9.2 1.5 1.2 2.4 2.2 2.1 1.3-.4 1.3-1.5 1.2-2.6-.4-2.5-.7-5-1.1-7.5-.5-2.9-1.1-5.8-1.7-8.7-.5-2.1-1-4.2-1.5-6.1 1.6 1.1 3.2 2.1 4.9 3 1.4.8 3.1.7 4.3-.3 2.9-2.3 5.6-4.8 8.6-6.9 3.4-2.4 4.9-5.7 6-9.8.7 2.2 1.4 4.1 1.8 6.1.8 3.7 1.5 7.4 2.1 11.2.5 2.9.9 5.9 1.2 8.9.3 2.6.1 5.4.8 7.9.6 2.4.4 5-.6 7.3-1.3 3.3-2.6 6.5-4 9.8-.4.8-.2 1.6.5 1.8.7.1 1.5-.2 1.9-.8 1.5-3.8 3-7.5 4.1-11.4.2-1.3 1.1-2.5 2.3-3 .5 2.9.9 5.6 1.4 8.4.1.9.1 1.7 1.5 1.6s1.2-1 1.2-1.8c-.1-5.1-1.6-10.1-4.5-14.3-.6-1.1-1.1-2.2-1.4-3.4l16.6-5.8c-.4 1.4-.8 2.6-1.2 3.7-2.1 6.8-4.2 13.5-6.2 20.3-1.2 4.1-2.2 8.2-3.3 12.3-.1.3-.3.8-.6.8-3.9.9-7.8 1.7-11.8 2.6-3.6.7-7 .6-10.1-1.6-2.6-1.8-4.9-3.9-6.2-6.9s-2.5-6.2-3.8-9.3c-.4-1-1-2-1.5-3-.3-.3-.6-.4-1-.3-.2 0-.4.5-.4.8.1.7.2 1.3.5 2 .6 2.1 1.3 4.1 1.9 6.2 1.5 4.8 3.4 9.3 7.4 12.6 2.5 2 5.2 3.6 8.3 3.7 4.1 0 8.1-.8 12.2-1.3 1.3-.3 2.5-.7 3.7-1.2-.2 1-.2 1.8-.4 2.5-1.8 6.2-2.2 12.6-2.7 19 .1 1.4 0 2.7-.2 4-.6 2.5-1.5 4.8-2.4 7.2-2.6 7.2-3.4 14.6-3.5 22.2 0 3.3.3 6.6-.8 9.8-.6 1.8-1.2 3.7-1.6 5.6-.6 2.7-1.2 5.5-1.5 8.2-.9 6.7-1.5 13.5-2.5 20.3-1.1 7.7-2.4 15.4-3.6 23.1-1 6.3-2.2 12.6-3.3 18.9-1.1 6.4-2.3 12.8-3.5 19.1-.5 2.7-1.3 5.3-1.9 7.9-.7 2.9-1.2 5.8-1.9 8.8-.9 3.8-1.8 7.5-2.7 11.3s-1.8 7.4-2.6 11.1c-.9 4.1-1.9 8.2-2.7 12.3-.4 1.8-.6 3.6-.9 5.4-.5 3.3-1.2 6.5-1.6 9.8a2 2 0 0 0 1.4 2.3h.3c.2 0 .5.3.7.5 1.2 1.4 2.3 2.9 3.5 4.3 2.8 3 6.8 4.7 10.9 4.6 3.1 0 6.2.1 9.3.2l.3 2.1c0 5.2 0 10.3.1 15.5 0 2.9.3 5.9.3 8.8.1 4.2 0 8.5 0 12.7 0 3.1-.1 6.1-.4 9.2-.3 3.9-.9 7.8-1.4 11.7-.1 1.2.1 2.7-.5 3.5-1.2 1.5-2.9 2.5-4.6 3.9V494c-.6.3-1.3.6-1.9.9-1 .3-1.9.6-2.9.9-3.3 1.6-6.6 3.2-9.8 4.9-4.3 2.2-8.9 3.6-13.7 4.3-3.7.5-7.5.9-11 2.5-3 1.4-5.1 4.2-5.5 7.4-.5 2.5.1 5.2.5 7.8.3 2.2 2 4 4.1 4.5.9.2 1.9.5 2.2-.8 2 .6 4 1.1 6 1.5 4.9.5 9.9 1 14.9 1.2 4.6.2 9.2.1 13.8.1 2.1 0 4.3.2 6.4.2 1.1 0 2.3-.4 2.2-1.6 0-.5-1.4-1.2-2.2-1.3-3.3-.3-6.6-.5-10-.5-5-.2-10.1-.1-15.1-.3-4.1-.2-8.2-.6-12.3-.8-1.3-.1-3-.8-3.8 1-.4-.2-.7-.4-1.1-.5-2.5-1.1-3.4-3.1-3.5-5.6 0-.5.3-1 .7-1.4.7-.7.7-1.1-.1-1.6-.3-.2-.6-.3-.9-.4 1.7-3.5 3.6-6.6 7.9-7 .7-.1 1.3-.2 2-.4 2.8-.6 5.6-1.1 8.3-1.8 1.1-.3 1.4.3 1.7 1.1.3 1 .6 2 1 3 .3 1.3 1.6 2.2 2.9 2 1.3-.1 2.4-1.1 2.6-2.4.2-.8.4-1.6.5-2.5.4.9 1 1.8 1.6 2.6.6.6 1.3.9 2.1 1 .9 0 1.3-.8 1.5-1.7.2-1.2.5-2.5.8-3.7.2.1.3.2.3.2.4 1.1 1.4 1.9 2.6 2.2 1.6.3 2.2-.5 2.8-1.7.1-.1.6-.2.8-.1 1.5.7 2.5.2 2.9-1.4.2-.7.2-1.4.4-2.2 2.5.6 4.8 1.3 7.2 1.8.9.2 1.8.3 2.8.2 2.4-.4 4.7-1 7-1.5 3.3-.6 6.7-1.2 10.1-1.9.2 2.9.6 5.6.7 8.4.1 3.7-.1 7.4-.2 11.1 0 .5-.3.9-.7 1.1-2 .6-4 1.2-6.1 1.6-4.4.9-8.9 1.8-13.4 2.7-.4.2-.7.5-.8 1-.1.2.5.8.8.8 1.3.1 2.7.1 4 0 2.7-.4 5.4-1.2 8.2-1.6 3.3-.5 6.5-1.3 9.5-2.6 1.1-.3 1.8-1.3 1.7-2.5-.1-4.3-.1-8.6-.5-12.9-.2-2.8-1.1-5.6-1.4-8.4-.1-1.4-.3-2.4-1.8-2.4.1-.8.3-1.5.4-2.2.5-4 .9-8 1.5-12 .8-5 1.8-10 2.8-15 .5-2.7.7-5.5 1.6-8.1.7-2.1 1-4.3 1-6.5.3-6-.1-12.1-1.3-18-.4-1.9-.6-3.9-1-5.8l.5-.3c1.5 1.1 3 2.3 4.4 3.6 1.7 1.8 3.1 4 4.7 5.9.4.5 1 .9 1.6 1.2 3.8.8 7.4-.1 10.9-1.5 3.2-1.3 6.3-3.1 9.6-3.6 5.8-1 11.8.7 16.3 4.5 2.4 2 5.7 2.7 8.7 1.6 4.3-1.3 7.1-4.5 8.8-8.6.4-.7 1-1.1 1.8-1.2 5.8-.5 11.5-1.7 17.3-1.2 2.8.3 5.6.9 7.8 2.9 2.4 2.2 4.1 2.7 7 1.4 1.5-.8 2.9-1.6 4.4-2.5l.5.7c2.9 4.3 5.6 8.7 8.7 12.8 2.4 3.2 5.1 6.1 7.7 9.2 1.8 2.1 3.7 4.1 5.3 6.3 1.9 2.6 3.6 5.4 5.3 8.2.9 1.4 1.5 2.9 2.5 4.2.5.5 1.2.8 1.9.8.8-.2 1-1.1.5-2-.7-1.3-1.3-2.6-2-3.9-2-3.9-4.5-7.6-7.3-10.9-3.3-3.7-6.5-7.6-9.7-11.3-.8-.9-1.6-1.7-2.4-2.6-1.5-2-2.9-4.1-4.4-6.1-1.6-2.2-3.2-4.5-4.8-6.8 2.8-2.1 5.9-1.9 8.9-1.4s5.9 1.3 8.9 1.8c1.5.2 3-.2 4.6-.2.7-.1 1.5.2 2 .7 2.2 3.7 4.4 7.4 6.5 11.1 1.7 3.1 3.2 6.3 4.6 9.4 1.7 3.6 3.3 7.2 5 10.8.7 1.8 1.7 3.5 2.8 5 .5.7 2.2.8 3.2.7 1.2-.2.5-1.3.5-2.1 0-.1.1-.1.2-.2l4.9 2.8c-.5 2.2-2.2 3.4-3.7 4.8-1.5 1.5-2.7 3.3-3.5 5.3-1.4 3.9-4 7.3-7.5 9.5-.7.5-1.6.8-2.4.7-1.5-.6-2.9-1.4-4.2-2.3-.3-.4-.5-.8-.4-1.3.3-2.3.7-4.5.9-6.8 0-.8-.3-1.7-.8-2.4-.2-.3-1-.4-1.4-.2-.3.1-.4.8-.4 1.2s.2 1 .2 1.5c-.2 3-.3 6-2.6 8.4-.1.1-.1.2-.1.3l-5.4 13.2c-.8 1.9-1.6 3.7-3.9 4.5-3.5 1.2-7 2.8-10.4 4.3-1.7.7-3.2 1.6-3.6 3.6-.4 2.1-1.1 4.1-1.4 6.3-.4 2 0 4.1 1 5.9.3.5 1.1.7 1.7 1.1.2-.5.5-1.1.6-1.6 0-.2 0-.5-.1-.7-1.1-3.4-.3-6.7.4-10 .1-.4.4-.8.7-1 4.1-2.1 8.3-4.2 12.5-6.3.9 1.6 2 .7 3 .3l2.1 2.4c.7.9 1.8 1.3 2.9 1 2.3-.6 3.5-4.5 1.9-6.3-1.3-1.3-2.7-2.5-4.1-3.6l.4-1.1c.6.5 1.1.9 1.5 1.3 1.3 1.2 3 1.9 4.8 2 1.6.1 2.4-.5 2.4-2.2-.1-1.1-.3-2.2-.6-3.3.9-.5 2.2-.9 2.4-1.7.3-.9-.3-2.1-.4-3.1 1.2 0 2.3-.3 3.5-.6 4.4-2.4 7.8-6.2 9.6-10.9.9-2.3 2.4-4.4 4.2-6.1 1.5-1.4 2.8-2.6 2.8-5 1.2.5 2.4.6 3.1 1.3 3.8 3.5 7.7 7 9.6 12.1.4 1.1 1.5 1.9 2.3 2.9-.4.3-.8.6-1.2 1-3.6 3.9-7.2 7.7-10.8 11.6-1.7 1.9-3.4 3.8-5.1 5.6-2.5 2.6-5 5.1-7.5 7.6s-5.7 4.2-7.5 7.4c-.2.4-.8.5-1.2.8-.9.5-1.9 1-2.9 1.5-1.2.6-2.4 1-3.7 1.4-3.7.7-7.4 1.5-11.2 1.8-4 .4-8 .3-12.1.5-.5.1-1 .3-1.5.6.2.4.4 1 .8 1.3.5.3 1.2.5 1.8.5 4.6.1 9.1.6 13.6-.3 3-.5 6.1-.6 9-1.4 2.3-.7 4.5-1.6 6.6-2.7 1.5-.5 2.8-1.6 3.6-3 .4-.7.9-1.3 1.5-1.8 2.3-2 4.8-3.9 7-6.1s4.2-4.6 6.3-6.9c2.4-2.6 4.8-5.1 7.1-7.6.6-.7 1.2-1.4 1.9-2.1 2.2-2.5 4.3-4.9 6.5-7.3 1-1.1 1-1.9-.2-2.9 1.3-.5 1.1-1.7.7-2.5-.7-1.9-1.7-3.7-2.9-5.3-1.9-2.3-4.1-4.4-6.3-6.4-1.8-1.5-3.5-3.6-6.3-3-.2 0-.4-.3-.7-.4-3.1-1.6-6.2-3.1-9.4-4.7-.4-.2-.7-.5-.9-.8-1.3-2.6-2.6-5.2-3.9-7.7-1.2-2.3-2.6-4.6-3.9-6.9-1.7-3.1-3.3-6.3-5.1-9.4-1.5-2.6-3.1-5.2-4.9-8.1 2.1-.2 3.8-.4 5.6-.5 1.4-.1 2.4-1.1 2-2.1-.2-.7-.6-1.3-.9-2-.1-.4-.2-.9-.2-1.3.5-.1 1-.2 1.6-.2 1.6.2 3.3.7 4.9-.2.4-.2.9-.7.9-1-.1-.5-.3-1-.7-1.3-.4-.3-.9-.5-1.3-.5-1.6-.4-3-1.5-3.7-3 .5.1 1.1.1 1.6 0 .9-.3 1.6-.8 2.2-1.5.5-.9-.5-2.6-1.5-2.9-2.8-.8-5.2-2.4-7-4.7-.9-1-1.7-2.2-2.3-3.4-1-2.4-1.6-5-2.5-7.5-1.3-3.3-2.8-6.5-4.2-9.7-1.6-3.5-3.3-7.1-4.9-10.6-2.1-4.6-4-9.2-6.1-13.8-1.6-3.6-3.5-7.1-5.2-10.6-.8-1.6-1.4-3.3-2.2-4.9-1.6-3-3.3-5.9-5-8.8-2.6-4.4-5.3-8.9-8-13.3-2.9-4.6-6.1-9.1-8.8-13.9-3.3-5.6-6.6-11.3-8.5-17.6-.8-2.6-1.8-5.1-2.4-7.8-.7-3.4-1.1-7-1.7-10.5-.8-4.5-1.1-9-.6-13.6.6-7.5 1.3-15 3.1-22.3 1.3-5.4 2.2-10.8 3.2-16.3.9-4.9 1.8-9.8 2.6-14.7.7-4.5 1.2-9 1.9-13.5 1.1-6 1.6-12.1 1.6-18.3-.1-8.3-.4-16.6-.7-24.9-.2-3.9-.5-7.8-1.1-11.6-.7-4.6-1.6-9.3-2.5-13.9-1.1-5.6-2-11.1-3.3-16.6-.6-2.2-1.5-4.4-2.6-6.5-.2-.4-.9-.5-1.4-.7-.1.5-.4 1.1-.3 1.5.3 1 1 2 1.2 3 1.4 7.8 2.8 15.5 4 23.3.8 4.9 1.5 9.9 1.8 14.8.4 5.7.6 11.4.7 17 .1 3.3-.3 6.7 0 10 .3 7 0 13.9-1 20.8-.8 6.5-2 13-3 19.5-.5 3.1-.8 6.3-1.4 9.5-.8 4.1-1.8 8.2-2.6 12.3-1.3 7-2.6 14-3.5 21-.7 4.6-1 9.3-.9 14 .3 5.8 1.1 11.6 2.5 17.3.9 3.6 2.3 7.1 3.4 10.6 1.9 6 5.3 11.3 8.5 16.6 2.3 3.9 4.8 7.6 7.2 11.4 1.3 2 2.5 4.1 3.8 6.2 2 3.3 4 6.5 5.8 9.8 1.6 2.9 3 5.9 4.5 8.9 2 3.9 4.2 7.8 6.1 11.8 1.8 3.8 3.4 7.7 5.1 11.5 2.4 5.2 4.9 10.4 7.3 15.6s4.6 10.4 7 15.6c.9 2 1.8 3.9 2.8 5.9-.9.1-1.8.1-2.7 0-4.1-.6-8.2-.6-12.3.1-4.2.6-8.3 1.3-12.5 2-2.2.3-4.4.8-6.5 1.5-5.2 1.9-10.1 4.2-15.5 5.7-3.4 1.1-6.7 2.3-10 3.7-1.9.7-3.8 1.6-5.7 2.3-1.6.6-3 .3-3.7-.6 1.3-1.2 2.5-2.4 3.7-3.7.9-1 .8-2.7-.1-2.9-.9-.1-1.8.1-2.5.6-1.6.7-3.1 1.9-4.7 2.4-2.4.7-4.8 1.2-7.3 1.3-3.5.2-7-.1-10.4-.7-3.3-.7-6.4-2.3-9.7-3.5-3.4-1.2-6.8-2.4-10.1-3.7-2.9-1-6-1.2-9-.6-1.6.4-3.2 1-4.7 1.8-1.8 1-3.5 2.2-5.3 3.3-.4-2.3-.7-4.4-1-6.6-.5-3.4-.9-6.8-1.4-10.1L78 395.2c-.4-3-.9-5.9-1.3-8.9-.3-2.3-.5-4.6-.8-7-.4-3-.9-6-1.3-9-.7-5.3-1.2-10.7-2-16-.5-3.3-1.2-6.5-1.7-9.7-.6-3.6-1.1-7.2-1.7-10.8-.6-3.2-1.4-6.3-2-9.5-.9-5.1-1.8-10.2-2.7-15.4-1.2-7-2.4-13.9-3.4-20.9-.7-5.1-1.3-10.2-1.8-15.2-.1-1.3-.1-2.7 0-4 .7 1.6 1.3 2.9 1.8 4.2.4 1 1 2.1 2.1 1.7 1.3-.5.5-1.8.2-2.7-1.7-4.8-2.7-9.8-2.9-14.9-.3-5.6-.1-11.2-.1-16.8.1-5 .9-10 2.5-14.7 1.4-4.2 3.2-8.3 4.7-12.4 1.4-3.7 2.8-7.5 4.3-11.2 1.5-3.9 3.1-7.9 4.8-11.7 1.3-2.9 3-5.7 4.3-8.6 1-2.2 1.7-4.6 2.7-6.8 1.2-2.8 2.7-5.4 4-8.2 2-4.2 4-8.4 5.9-12.6.8-1.7 2.9-3 1.8-4.9 1 0 2.3.4 3-.1 1.6-1.2 3.1-2.6 4.4-4.1.3-.3-.1-1.1-.2-1.8-2.7 1-4 3.7-6.7 3.9.1-1 .1-2-.1-2.9-.3-.9-.1-1.9.3-2.7.2-.6.4-1.7.1-1.9-.8-.5-1.2.3-1.7.9-2.2 3-4.4 6-8.7 6.4-.4-.9-.8-1.7.3-2.6 1.1-1 2.1-2.2 2.7-3.6 1.6-3.4 2.9-7 4.6-10.3 1.3-2.6 3-5.1 5.8-6.4 2.1-1 4.3-1.9 6.3-3.1 3.4-2 6.2-5.1 7.9-8.7.9-1.9 1.5-3.9 2-5.9.7-2.6 1.1-5.2 1.3-7.9.2-4.5.3-9 2.6-13.1 2.6-4.6 5.5-9 9.8-12.3 1.1-.9 2.3-1.8 3.5-2.7.9-.5 1.8-1.2 2.5-2.1 1.9-3.6 3-7.6 3.3-11.7.5-5.2 0-10.4-1.3-15.4-1.2-4.2-4.1-6.7-7.6-8.9-2-1.3-4.2-2.3-6.1-3.7-4.1-2.9-7.3-7-9-11.8-.1-.3-.4-.6-.5-.6-.9-.1-1.9 0-2.8.3-5.6 3.2-10 8.1-12.6 14-1.6 3.3-2.4 6.8-2.6 10.5 0 .9-.1 2.3 1.1 2.4s1.2-1.3 1.4-2.2C99.3 38 100 35 101 32c1.2-3.3 3-6.3 5.4-8.8 1.8-2 3.8-3.8 5.6-5.6 1.6 2.9 2.9 5.5 4.4 8 2.2 3.4 5.4 5.7 8.8 7.8 2.1 1.3 4.2 2.7 6.3 4 .3.3.6.7.9 1.1-1-.2-1.9-.5-2.7-1-1.6-.9-3.5-1.3-5.4-1.1-.5 0-.9.5-1.4.8.4.4.9 1.1 1.3 1.1 4.1-.1 6.8 2.9 10.1 4.4.2.1.2.4.3.6.4 3.7 1 7.5 1 11.2-.1 2.8-.5 5.7-1.2 8.4-.4 1.6-.7 3.4-2.1 4.7-3.7 3.4-8.1 5.9-11.3 9.8-4.1 5.1-6.9 10.6-7.5 17.2-.3 3.4-.7 6.9-1.3 10.3-.6 3.5-2.1 6.8-4.4 9.5-2.6 3.2-6.3 4.8-9.9 6.6-1.2.4-2.3 1.1-3.3 2-2.4 2.9-4.3 6.2-5.8 9.7-1 2.9-2.2 5.7-3.7 8.4-1.5 2.2-3.1 4.3-4.8 6.3-1.1-.9-1.4.3-1.7.7-.8-.4-1.7-1.3-2.2-1.2-3.5 1.1-6.9 2.5-10.3 3.8-1.5.6-3 1.2-4.6 1.9-.2-.3-.3-.7-.4-1-.9-4.9-1.6-9.9-2.7-14.8-.9-3.9-2.5-7.7-3.6-11.6-.3-1.1-.5-2-2-1.7 0-.6.2-1.3 0-1.6-1.6-2-1.2-4.4-1.4-6.7-.3-4.2-.4-8.4-.5-12.5.1-.4.3-.8.6-1 1.6-1.2 3.3-2.3 4.9-3.5.3-.2.6-.4.7-.7.9-3 1.8-6.1 2.5-9.2.5-2.4.8-4.9 1.3-7.3s.6-2.4-2.1-3.3c-.5 1.1-1 2.3-1.4 3.4-.9 4.1-1.6 8.3-2.6 12.4-.3 1.3.2 2.9-1.3 3.9-1.8 1.2-3.6 2.5-5.3 3.9-.6.4-1 1-1.2 1.6 0 .4.9.8 1.4 1.2v11.3c0 1.2.1 2.5-1.1 3.4-.8.6-.5 1.4.4 1.9.7.3 1.1 1.1.8 1.8-.1.3-.3.5-.6.7-2.6 2.6-6.2 3.9-9.8 3.5-1.7-.1-3.2-1-4-2.5-.7-1.2-1.4-2.4-2.1-3.7 1.8.3 1.7-1.2 1.7-2.1-.1-3.3-.4-6.5-.7-9.9 1.2-.7 1.4-1.5.7-3-1.2-3.1-2.4-6.1-3.5-9.2-.4-1.4-.6-2.1-1.7-1.9z" transform="translate(167.902 51.532)"/><path class="st1" d="M78.3 234.4c.4 2.6 1.4 5 3 7 2 2.9 4.9 4.4 8.2 5.3.5.1.9 0 1.3-.4.3-.4.3-1 .1-1.5-.7-.8-1.6-1.5-2.5-2.1-1.5-1-3.1-1.7-4.5-2.8a4.57 4.57 0 0 1-1.7-5.5l2.7-9c.6-2.1.8-4.3 1.6-6.3 1.4-3.6 2.9-7.2 4.5-10.7 3.5-7.7 6.3-15.6 8.4-23.8 1.3-5.3 3.2-10.5 4.8-15.8.7-2.4 1.1-4.8 1.7-7.2.6-3 1.4-5.9 2.4-8.8 1.4-3.9 3.5-7.5 4.9-11.4 2.2-6.2 5.5-12 9.8-17 1.1-1.3 2.1-3.1 4.1-3.2 2.9-.4 5.9.3 8.3 2.2.4.3 1 .2 1.5.3.1-.6.4-1.2.3-1.8-.3-.6-.7-1-1.2-1.3-3.5-2.3-7.2-2-11-1-.5.2-1 .5-1.4 1-1.4 1.4-2.7 2.8-4 4.4-2.1 2.5-4.1 5.1-5.8 7.9-1.4 2.6-2.7 5.3-3.8 8.1-1.6 3.4-3.3 6.7-4.6 10.1-1.1 3.1-2.1 6.2-2.9 9.4-.6 2.2-.9 4.5-1.5 6.8s-1.6 4.2-2.3 6.3c-1.1 3.4-2 6.9-3 10.3-1.4 4.6-2.6 9.2-4.2 13.7-1.4 3.8-3.2 7.5-4.8 11.2-1.2 2.7-2.5 5.4-3.4 8.3-1.3 4-2.2 8.1-3.4 12.2-.2.9-.7 1.8-1.5 2.4-3.6 2.2-4.4 5.4-4.3 9.3 0 2 .7 4.2-1.9 5.9 0-2.8-.1-5.4 0-8 .2-4.1.4-8.2.7-12.3.1-1.3.2-2.5.1-3.8 0-.3-.6-.6-.9-.9-.2.3-.6.6-.7.9l-.9 3.9c-.3 1-.6 2.1-.8 3.1-.3 5.4-.7 10.9-.7 16.3 0 3 .4 6 1.1 8.9.8 3.2 2 6.3 3.6 9.1 1.4 2.7 3.5 5.1 5.9 7 1.6 1.2 3.2 2.5 5.2 3 2.8.9 5.7.9 8.5 0 .6-.1 1.3 0 1.8.4 4.1 2.8 8 5.9 12.3 8.4 5.1 2.9 10.5 5.4 15.8 7.8 2.6 1.1 5.3 2 8 2.8.9.3 2.1.4 2.5-.8s-.5-1.9-1.5-2.3l-2.7-1.2c-4.4-2-8.7-4-13.1-6.1-4.1-1.9-8.2-3.8-12.2-5.8-2.4-1.2-4.6-2.8-6.9-4.2 1.7-.9 3.4-1.7 4.9-2.7 1.5-.9 1.7-2.7.4-3.3-.8-.3-1.6-.3-2.4 0-2.2.7-4.3 1.6-6.4 2.4-5 1.9-9.5.6-13.4-2.8-1.4-1.2-2.9-2.4-3.5-4.4-.8-2.5-1.9-4.9-2.9-7.3-.9-2.1-1-4.1.6-6.1 1.2-1.5 2.4-3.1 2.2-5.3-.2-1.7-.2-3.5-.2-5.2-.2-1.6-.1-3.2 1.7-4zM131.6 419.4c-.3-1.3-.8-2.5-1.2-3.7-1.1-2.3-2.3-4.6-3.5-6.9-1.6-3-3.3-5.9-4.9-8.8s-3.1-5.8-4.6-8.7c-1.9-3.8-3.7-7.6-5.6-11.4-1.7-3.3-3.4-6.5-5.2-9.7-1.2-2.2-2.5-4.4-3.6-6.6-2.4-5-4.7-10.1-7.1-15.1-1.8-3.7-3.9-7.3-5.6-11-1.6-3.5-2.9-7.1-4.4-10.7-1.1-2.6-2-5.4-3.3-7.9-3.3-6.5-6.1-13.2-8.4-20.1-1.8-5.3-3.4-10.6-5.2-15.8-.1-.4-.7-.7-1.1-1-.3.4-.8.9-.8 1.3 0 1.2.2 2.5.5 3.7 1.4 4.6 2.8 9.2 4.2 13.7 1.1 3.4 2.1 6.9 3.4 10.3 1.2 3.1 2.8 6 4.1 9.1 2.1 5.4 4 10.9 6.2 16.3 1.6 3.9 3.7 7.7 5.4 11.5 1.8 4 3.6 8 5.5 11.9 1.9 3.8 3.8 7.6 5.8 11.4l6.9 12.9c1 1.9 2 3.9 3 5.9 1.1 2.5 2 5.1 3.3 7.5 1.2 2.3 2.7 4.4 3.9 6.7 2.7 4.8 5.3 9.6 8 14.4.5.9 1.2 1.6 2 2.3.5.3 1.1.3 1.6.1.2-.6.4-1.2.7-1.6zM133.9 0c-6.1.3-11.8 1.1-17.2 3.6-1.3.7-2.4 1.6-3.5 2.6-.2.2 0 .8 0 1.2.4 0 .8 0 1.2-.1 1-.5 1.8-1.1 2.8-1.5 5.4-2 11.2-3 16.9-2.8 4.1.1 8 1.5 11.2 4 2.8 2.1 5.3 4.4 7.6 7 3.6 4 6.9 8.1 9 13.1.9 2.2 2.2 4.2 2.9 6.5 1.5 5.2 2.3 10.5 2.4 15.9.1 4.6-.7 9.1-2.5 13.3-.9 2.1-1.8 4.2-2.5 6.4-.5 1.6-.9 3.2-1.1 4.8-.5 2.8-.8 5.7-1.2 8.5-.6 3.1-1.6 6.1-2.9 8.9-2.1 5.2-6.1 8.6-10.3 11.9-2.3 1.8-5 3-6.7 5.4-.3.7-.5 1.5-.5 2.3.8 0 1.5-.1 2.2-.4 3.2-2.1 6.5-4.2 9.5-6.6 2.3-1.9 4.4-4 6.3-6.3 1.3-1.6 2.1-3.7 3.1-5.6 1.9-3.4 3-7.1 3.3-11 .3-5.4 1.2-10.7 3.5-15.6 2-4.2 3.1-8.7 3.3-13.3.2-4.7-.2-9.5-1.1-14.1-1.1-6.2-3.9-11.9-7.1-17.3-1.4-2.5-3-4.8-4.9-6.9-2.3-2.6-5-4.9-7.5-7.3-4.3-4.4-10.2-6.8-16.2-6.6zM29.2 58.1c1.4 3 2.1 6.3 2 9.7 0 1.7-.9 3.8 1.2 5.1.1 0 .1.3.1.4.1 1.6.3 1.8 1.8 1.3.5-.2 1-.3 1.6-.5 3.9-.8 7.8-1.5 11.6-2.2 1.3-.2 1.9-1.4 1.2-2.2-.5-.5-.6-1.3-.3-2 1.2-4 2.3-8 3.6-11.9.7-2.1 1.4-2.5 3.8-2.5.2 1.1.3 2.3.2 3.4-.5 3.1-1.4 6.1-2 9.2-.9 5-2.9 9.9-4.5 14.8-.2.3-.4.6-.8.7-1.6.3-3.2.8-4.7 1.3-2.6 1.3-5.4 2.5-7.2 4.9-.4.7-.5 1.6-.1 2.3.7.5 1.5.7 2.3.6 1.1-.2 1.1-1.2.7-2.1.7-.6 1.5-1.2 2.3-1.8 1.7-1.1 3.4-2.1 5.2-3 .6-.3 1.6-.8 2.2.5.1.3 1.1.7 1.5.5s.8-.8 1-1.3c.4-2 .9-3.9 1.6-5.7.8-1.5 1.9-2.8 3.1-3.9.3-.3 1.4.2 2.1.2.5 0 .9-.2 1.3-.4.2-.1.2-.6.1-.8-1-1.3-2.6-1.8-4.1-1.4-.3.1-.7.2-1 .4l-.4-.2c.7-2.6 1.1-5.3 2-7.8 1.2-3.1 1.7-6.4 1.5-9.8 0-1.2-.7-2.2-1.8-2.6-1.9-.6-5.3.9-5.9 2.7-1.2 3.4-2.4 6.8-3.6 10.3-.1-.6-.1-1.2 0-1.8.2-3 .5-6 .6-9.1.1-2.2-1.2-3.6-2.7-3.6-1.9-.1-3.5 1.4-3.7 3.3-.5 3.5-1.1 7.1-1.6 10.6-.2-1.9-.3-3.8-.3-5.7.2-2.1-.5-4.2-1.9-5.9-.5-.6-1.2-1-2-1.1-1.4 0-3.2 2.3-3.2 3.7v3.7c-.7-.8-1.1-1.7-1.8-2-2-.8-4.3 1.3-4.1 3.4.4 3.3.6 6.7 1 10.1.2 1.5.5 3 .9 4.4.3.5.8.8 1.3.8.4-.1.8-.8.9-1.3 0-.7-.1-1.4-.2-2-.6-4.1-1.2-8.2-1.7-12.3 0-.5.5-.8.9-1.4z" transform="translate(167.902 51.532)"/><path class="st1" d="M153.3 143.2c-1 1.8-2 3.5-2.9 5.3-2 4.2-3.9 8.3-5.7 12.6-1.7 4.1-3.2 8.3-4.7 12.4-1.4 3.7-2.7 7.5-4.3 11.2-1.8 4.3-3.8 8.6-5.8 12.8-2.1 4.4-4.1 8.8-6.4 13.1-1.8 3.5-3.8 6.8-5.6 10.2-1.6 3.1-3 6.4-4.7 9.5-1.9 3.5-4 6.9-5.8 10.4-1.5 2.8-2.7 5.7-4 8.7-1 2.2-1.9 4.4-2.6 6.6-.3.9.2 2 1.1 2.3h.1c.9.3 1.9-.1 2.2-1v-.2c.9-2.5 2.1-4.9 3.2-7.4 1.1-2.4 2-4.8 3.2-7.1 2.3-4.4 4.9-8.6 7.3-13 1.9-3.5 3.6-7.2 5.4-10.8 1.3-2.5 2.7-4.8 4.1-7.3 2.8-5.1 5.3-10.3 7.4-15.8 1.3-3.5 3.3-6.8 4.7-10.3 1.2-3 2.2-6.1 3.2-9.2 1.2-3.6 2.3-7.3 3.5-10.9 1.3-3.8 2.6-7.5 4-11.2 1.3-3.4 2.8-6.8 4.2-10.3l-1.1-.6zM104.9 13.7c-.7-.7-1.9-.7-2.6 0 0 0-.1.1-.1.2-2.6 2.2-4.7 4.9-6.3 8-2.7 5.2-4.7 10.6-5 16.4-.1 2.9.1 5.8.1 8.7 0 .5-.1 1-.2 1.4-1.2 2.6-2.5 5.2-3.6 7.9-1.7 4.1-2.8 8.3-3.3 12.7-.4 3.6-.5 7.2.9 10.7.9 1.8.9 3.9 0 5.7-1 1.9-1.9 3.9-2.8 5.8-1.7 3.5-3.7 6.9-5.2 10.4-1.4 3.3-2.1 6.6-.7 10.2.7 1.8 1.2 3.7 1.2 5.7.1 5.6-3 9.5-7.3 12.5-1.7 1.2-3.8 2-5.7 3.1-.5.3-.7.8-.7 1.4.1.4.8.7 1.3.9.3.1.7 0 1-.1 5.3-1.7 9.8-4.5 12.6-9.5 2.6-4.3 3-9.6 1-14.2-1.1-2.3-1.1-5-.1-7.4 2.4-5.2 4.7-10.4 7.5-15.5 1.8-3.1 2.1-6.7.9-10.1-1.4-3.9-1-7.8-.4-11.7.5-3.5 1.4-7 2.5-10.4.8-2.6 1.2-5.5 3.4-7.6.1-.1.2-.4.2-.7.1-1.9.1-3.8.3-5.7.2-3.4.6-6.7 1.2-10 .9-3.6 2.1-7 3.7-10.3 1.3-2.6 3.3-4.8 5-7.2.4-.4.8-.8 1.2-1.3z" transform="translate(167.902 51.532)"/><path class="st1" d="m75.3 39.6 1.3 2c.5-.4 1.2-.7 1.4-1.2 1-3.9 3.2-7.3 5.3-10.5 2.1-3.1 4.4-6.1 6.9-8.9 2.9-3.7 6.5-6.7 10.6-9 3.1-1.6 6.2-2.9 9.8-2.1.3.1.8-.4 1.2-.6-.2-.4-.5-1-.8-1.1-1.5-.4-3.1-.6-4.7-.5-7.1 1.4-12.7 5.3-17.5 10.5-3.9 4.2-7.6 8.5-10.1 13.8-1.2 2.5-2.2 5-3.4 7.6zM247.9 482.9c-.4.2-.7.3-1 .5-.6.4-1.1.9-1.7 1.3-3.7 2.4-6.7 5.6-9 9.3-1.1 1.8-2.4 3.4-3.9 4.9-2.9 2.5-5.6 5.2-8.1 8.1-1.8 2.2-4.2 3.8-6.3 5.7-.4.4-.7.8-.9 1.3.6.3 1.2.4 1.8.5 2.3-.3 3.7-2.2 5.3-3.7 2.8-2.6 5.6-5.3 8.4-7.9 1.4-1.2 2.7-2.4 3.9-3.7 1.7-2 3.2-4.4 4.9-6.4 1.2-1.3 2.4-2.5 3.8-3.6 1.3-1.1 2.6-2.1 4-3.2.9-.7.5-1.4.1-2-.5-.5-.9-.8-1.3-1.1zM96 56.3c0 .8.1 1.6.2 2.3.3 2.8.9 5.5 1.7 8.2 1 2.2 2.2 4.3 3.7 6.2 1.7 2.5 3.5 4.9 5.5 7.2 1.5 1.5 3.2 2.8 5 3.9.4.2 1.3-.1 1.8-.4.2-.2.1-1-.1-1.5-.3-.4-.6-.8-1.1-1.1-1.7-1.1-3.3-2.3-4.9-3.6-2.7-2.6-4.9-5.6-6.4-9.1-1.5-3.1-2.4-6.5-2.7-10-.2-3-.4-6.1-.7-9.1 0-.3-.4-.7-.7-1-.3.2-.8.4-.9.7-.2.6-.3 1.3-.3 2-.1 1.9-.1 3.6-.1 5.3zM62.3 521.4v-.4l3.4-.2c.8.1 1.6 0 2.4-.1.6-.2 1.2-.7 1.4-1.4.2-1.1-.7-1.5-1.7-1.6-.4 0-.9.1-1.3.1-6.6.5-13.2.3-19.7 1.7-2.6.6-5.4.7-8 1.1-.5.1-.8.8-1.2 1.2.5.3 1 .8 1.4.8 5.3-.4 10.5-1 15.7-1.3 2.5-.1 5 .1 7.6.1zM28.8 523.8v-.2h.9c.9-.1 2-.1 2.1-1.4s-1.1-1.2-1.9-1.3c-3.2-.5-6.4-.9-9.5-1.3l-2.7-.3c-2.1-.2-4.1-.3-6.2-.5-1.8-.2-3.6-.7-5.4-.9-.4 0-.9.5-1.4.7.3.4.5 1.1 1 1.2.9.3 1.8.5 2.7.7 2.3.5 4.7 1 7 1.4 1.8.3 3.6.4 5.3.7 2.6.4 5.4.8 8.1 1.2zM195.3 520.6c3.3-.4 7.2-.8 11.2-1.3 1.3-.1 2.5-.4 3.7-.8.6-.2 1.5-1.2 1.4-1.7-.1-1-1-1.3-2.1-1.1-2.3.6-4.7 1-7 1.3-4.2.5-8.5.9-12.7 1.4-.5.1-.9.7-1.4 1 .5.4 1 1 1.6 1.1 1.5.2 3 .1 5.3.1zM114.3 70.6l.1.4c2.9-.7 5.9-1.3 8.8-2.2.7-.3 1.2-1 1.3-1.7-.1-.9-1.1-1.1-2-.7-.3.1-.7.2-1 .3-4.1 1.1-8.2 2.5-12.2-.3-.3-.2-1 .1-1.4.1.1.5 0 1.1.3 1.4 1.5 1.8 3.5 3 6.1 2.7zM72.3 139.5c1.3-.1 2.5-.3 3.8-.6.8-.2 1.6-.8 1.3-2-.2-.8-1.1-1.3-1.9-1-.1 0-.2.1-.3.1-1.9.6-3.9.6-5.7 0-.5 0-1 .3-1.4.7-.1.4 0 .9.3 1.2 1.3.6 2.7 1.1 3.9 1.6zM99.5 38.5c.3 1.2.7 1.5 1.9.9 1.9-1.1 4-2 6.4-1.1.6.2 1.2 0 1.4-.6 0-.1 0-.1.1-.2-.1-.6-.5-1.2-1.1-1.5-3.3-1.1-6.2 0-8.7 2.5zM108.4 56.9c-.2.6-.6 1.1-.5 1.6.3 1.5 1.3 2.8 2.7 3.4.4.2 1-.2 1.6-.3-.1-.5-.2-1-.4-1.4-.7-1-1.5-1.9-2.3-2.8-.2-.2-.6-.2-1.1-.5zM143.9 126c-1 0-1.4.7-.8 1.4.9 1.1 1.8 2.2 2.8 3.3.3.3.8.2 1.2.4 0-.5.3-1.1.1-1.4-.9-1.2-1.9-2.3-2.9-3.4-.1-.2-.3-.3-.4-.3zM126.7 47.7c0 1.9.8 3 1.8 2.9 1.2-.1 1.6-1 1.6-2.1s-.5-1.9-1.6-1.9c-.8.2-1.4.8-1.8 1.1zM106.6 46.9c-.3-.2-.9-.9-1.5-1.1-1-.2-1.7.8-1.7 2.2-.1.8.5 1.6 1.4 1.7h.1c.7.2 1.7-1.2 1.7-2.8z" transform="translate(167.902 51.532)"/><path d="M28.5 94.4c1.1-.1 1.3.6 1.6 1.5 1.1 3.1 2.3 6.1 3.5 9.2.6 1.6.4 2.4-.7 3 .2 3.3.5 6.6.7 9.9 0 .9.1 2.4-1.7 2.1.7 1.3 1.3 2.5 2.1 3.7.8 1.5 2.3 2.4 4 2.5 3.6.4 7.2-.9 9.8-3.5.7-.4.8-1.3.4-1.9-.2-.3-.4-.4-.7-.6-.8-.5-1.2-1.3-.4-1.9 1.3-.9 1.1-2.2 1.1-3.4v-11.3c-.5-.4-1.4-.8-1.4-1.2 0-.5.6-1.2 1.2-1.6 1.7-1.4 3.5-2.7 5.3-3.9 1.4-1 .9-2.6 1.3-3.9 1.1-4.1 1.7-8.2 2.6-12.4.4-1.2.8-2.3 1.4-3.4 2.7.9 2.6.9 2.1 3.3s-.7 4.9-1.3 7.3c-.7 3.1-1.6 6.1-2.5 9.2-.1.3-.5.5-.7.7-1.6 1.2-3.3 2.3-4.9 3.5-.3.2-.5.6-.6 1 .1 4.2.3 8.4.5 12.5.1 2.3-.2 4.7 1.4 6.7.2.3 0 1 0 1.6 1.4-.3 1.6.7 2 1.7 1.2 3.9 2.7 7.7 3.6 11.6 1.1 4.9 1.8 9.9 2.7 14.8.1.4.2.7.4 1 1.6-.6 3.1-1.3 4.6-1.9 3.4-1.3 6.8-2.7 10.3-3.8.5-.2 1.4.7 2.2 1.2.3-.4.6-1.6 1.7-.7 1.8-2 3.4-4.1 4.8-6.3 1.5-2.7 2.7-5.5 3.7-8.4 1.4-3.5 3.4-6.7 5.8-9.7.9-.9 2-1.6 3.3-2 3.6-1.8 7.3-3.4 9.9-6.6 2.3-2.7 3.9-6 4.4-9.5.5-3.4 1-6.8 1.3-10.3.6-6.6 3.4-12.1 7.5-17.2 3.2-4 7.6-6.5 11.3-9.8 1.5-1.3 1.8-3 2.1-4.7.7-2.7 1.1-5.6 1.2-8.4 0-3.7-.6-7.5-1-11.2 0-.2-.1-.5-.3-.6-3.3-1.5-6-4.5-10.1-4.4-.4 0-.9-.7-1.3-1.1.5-.3.9-.7 1.4-.8 1.9-.2 3.7.2 5.4 1.1.9.5 1.8.8 2.7 1-.2-.4-.5-.8-.9-1.1-2.1-1.4-4.2-2.7-6.3-4-3.4-2.1-6.6-4.4-8.8-7.8-1.6-2.5-2.9-5.1-4.4-8-1.8 1.8-3.8 3.5-5.6 5.6-2.4 2.5-4.2 5.5-5.4 8.8-1 3-1.8 6.1-2.6 9.1-.3.9-.2 2.2-1.4 2.2s-.8-1.5-.8-2.4c.1-3.6 1-7.2 2.6-10.5 2.6-5.9 7-10.7 12.6-13.9.9-.3 1.8-.4 2.8-.3.2 0 .4.4.5.6 1.8 4.7 4.9 8.8 9 11.7 1.9 1.4 4.1 2.4 6.1 3.7 3.4 2.2 6.4 4.8 7.6 8.9 1.4 5 1.8 10.3 1.4 15.4-.2 4.1-1.4 8.1-3.3 11.7-.5.9-1.6 1.4-2.5 2.1-1.1.9-2.3 1.8-3.5 2.7-4.2 3.3-7.2 7.6-9.8 12.3-2.3 4.1-2.4 8.6-2.6 13.1-.2 2.7-.7 5.3-1.3 7.9-.4 2-1.1 4-2 5.9-1.7 3.6-4.5 6.7-7.9 8.7-2 1.2-4.2 2.1-6.3 3.1-2.8 1.4-4.5 3.8-5.8 6.4-1.7 3.4-3 6.9-4.6 10.3-.7 1.4-1.6 2.6-2.7 3.6s-.7 1.7-.3 2.6c4.2-.4 6.4-3.4 8.7-6.4.5-.6.9-1.4 1.7-.9.3.2.1 1.3-.1 1.9-.5.8-.6 1.8-.3 2.7.2 1 .2 1.9.1 2.9 2.7-.2 4-2.9 6.7-3.9.1.7.5 1.6.2 1.8-1.3 1.5-2.8 2.9-4.4 4.1-.7.5-2 .1-3 .1 1.1 1.9-1 3.2-1.8 4.9-1.9 4.2-3.9 8.4-5.9 12.6-1.3 2.7-2.7 5.4-4 8.2-1 2.2-1.7 4.6-2.7 6.8-1.3 2.9-3 5.7-4.3 8.6-1.7 3.9-3.2 7.8-4.8 11.7-1.5 3.7-2.9 7.5-4.3 11.2-1.6 4.1-3.4 8.2-4.7 12.4-1.6 4.7-2.4 9.7-2.5 14.7 0 5.6-.3 11.2.1 16.8.2 5.1 1.2 10.1 2.9 14.9.3.9 1.1 2.2-.2 2.7-1.1.4-1.7-.7-2.1-1.7-.5-1.4-1.1-2.7-1.8-4.2-.1 1.3-.1 2.7 0 4 .5 5.1 1.1 10.2 1.8 15.2 1 7 2.2 13.9 3.4 20.9.9 5.1 1.7 10.2 2.7 15.4.6 3.2 1.4 6.3 2 9.5.6 3.6 1.1 7.2 1.7 10.8.5 3.3 1.3 6.5 1.7 9.7.7 5.3 1.3 10.6 2 16 .4 3 .9 6 1.3 9 .3 2.3.5 4.6.8 7 .4 3 .8 6 1.3 8.9l1.4 10.1c.5 3.4.9 6.8 1.4 10.1.3 2.2.7 4.4 1 6.6 1.8-1.1 3.5-2.3 5.3-3.3 1.4-.9 3-1.5 4.7-1.8 3-.6 6.1-.4 9 .6 3.3 1.3 6.7 2.4 10.1 3.7 3.2 1.2 6.3 2.8 9.7 3.5 3.4.6 6.9.8 10.4.7 2.5-.1 5-.5 7.3-1.3 1.7-.5 3.1-1.6 4.7-2.4.8-.4 1.7-.6 2.5-.6 1 .2 1 1.9.1 2.9-1.2 1.3-2.5 2.5-3.7 3.7.6.9 2.1 1.2 3.7.6 1.9-.7 3.8-1.6 5.7-2.3 3.2-1.4 6.6-2.7 10-3.7 5.4-1.4 10.3-3.7 15.5-5.7 2.1-.7 4.3-1.2 6.5-1.5 4.1-.7 8.3-1.4 12.5-2 4.1-.7 8.2-.8 12.3-.1.9.1 1.8.1 2.7 0-.9-2-1.9-3.9-2.8-5.9-2.3-5.2-4.6-10.4-7-15.6s-4.9-10.4-7.3-15.6c-1.8-3.8-3.3-7.7-5.1-11.5-1.9-4-4.1-7.9-6.1-11.8-1.5-2.9-2.9-6-4.5-8.9-1.8-3.3-3.9-6.6-5.8-9.8-1.2-2.1-2.5-4.1-3.8-6.2-2.4-3.8-5-7.5-7.2-11.4-3.1-5.4-6.5-10.6-8.5-16.6-1.1-3.5-2.5-7-3.4-10.6-1.4-5.7-2.2-11.4-2.5-17.3-.1-4.7.2-9.4.9-14 .9-7 2.2-14 3.5-21 .8-4.1 1.8-8.2 2.6-12.3.6-3.1.9-6.3 1.4-9.5 1-6.5 2.3-13 3-19.5 1-6.9 1.3-13.9 1-20.8-.2-3.3.1-6.7 0-10-.2-5.7-.3-11.4-.7-17-.4-5-1.1-9.9-1.8-14.8-1.2-7.8-2.6-15.6-4-23.3-.2-1-.9-2-1.2-3-.1-.4.2-1 .3-1.5.5.2 1.2.3 1.4.7 1.1 2.1 1.9 4.2 2.6 6.5 1.2 5.5 2.2 11.1 3.3 16.6.9 4.6 1.8 9.2 2.5 13.9.6 3.8.9 7.7 1.1 11.6.3 8.3.5 16.6.7 24.9 0 6.1-.5 12.2-1.5 18.3-.7 4.5-1.2 9-1.9 13.5-.8 4.9-1.7 9.8-2.6 14.7-1 5.4-1.9 10.9-3.2 16.3-1.8 7.4-2.4 14.9-3.1 22.3-.4 4.5-.2 9.1.6 13.6.7 3.5 1 7 1.7 10.5.5 2.6 1.6 5.2 2.4 7.8 1.9 6.3 5.2 11.9 8.5 17.6 2.7 4.7 5.9 9.2 8.8 13.9 2.7 4.4 5.4 8.8 8 13.3 1.6 2.9 3.3 5.9 4.9 8.8.8 1.6 1.5 3.3 2.2 4.9 1.7 3.5 3.5 7 5.2 10.6 2.1 4.6 4.1 9.2 6.1 13.8 1.6 3.6 3.3 7.1 4.9 10.6 1.4 3.2 2.9 6.4 4.2 9.7 1 2.4 1.6 5 2.5 7.5.5 1.3 1.3 2.4 2.3 3.4 1.8 2.2 4.3 3.9 7 4.7.9.2 2 2 1.5 2.9-.6.7-1.4 1.2-2.2 1.5-.5.1-1.1.1-1.6 0 .8 1.4 2.1 2.5 3.7 2.9.5.1.9.3 1.3.5.4.3.7.8.7 1.3 0 .3-.5.8-.9 1-1.6.8-3.3.4-4.9.2-.5 0-1.1 0-1.6.2 0 .4.1.9.2 1.3.2.7.6 1.3.9 2 .3 1-.6 2-2 2.1-1.7.2-3.5.3-5.6.5 1.8 3 3.4 5.5 4.9 8.1 1.8 3.1 3.4 6.3 5.1 9.4 1.3 2.3 2.7 4.6 3.9 6.9 1.4 2.5 2.6 5.2 3.9 7.7.2.4.6.6.9.8 3.1 1.6 6.2 3.1 9.4 4.7.2.1.5.5.7.4 2.9-.5 4.5 1.5 6.3 3 2.3 1.9 4.4 4.1 6.3 6.4 1.2 1.6 2.2 3.4 2.9 5.3.4.8.5 2-.7 2.5 1.1 1 1.1 1.9.2 2.9-2.2 2.4-4.4 4.9-6.5 7.3-.6.7-1.2 1.4-1.9 2.1-2.4 2.5-4.8 5.1-7.1 7.6-2.1 2.3-4.1 4.7-6.3 6.9s-4.7 4-7 6.1c-.6.5-1.1 1.1-1.5 1.8-.8 1.4-2.1 2.5-3.6 3-2.1 1.1-4.3 2-6.6 2.7-2.9.7-6 .8-9 1.4-4.5.8-9.1.3-13.6.3-.6 0-1.3-.2-1.8-.5-.4-.2-.5-.8-.8-1.3.5-.3 1-.5 1.5-.6 4-.2 8.1-.1 12.1-.5 3.8-.4 7.5-1.1 11.2-1.8 1.3-.3 2.5-.8 3.7-1.4 1-.4 1.9-1 2.9-1.5.4-.2 1-.4 1.2-.8 1.8-3.2 5-4.9 7.5-7.4s5.1-5 7.5-7.6c1.8-1.8 3.4-3.7 5.1-5.6 3.6-3.9 7.2-7.7 10.8-11.6.4-.4.7-.7 1.2-1-.8-.9-1.9-1.8-2.3-2.9-1.9-5.1-5.8-8.6-9.6-12.1-.7-.7-1.9-.8-3.1-1.3.1 2.4-1.3 3.6-2.8 5-1.9 1.7-3.3 3.8-4.2 6.1-1.8 4.7-5.2 8.5-9.6 10.9-1.1.4-2.3.6-3.5.6.2.9.7 2.1.4 3.1-.2.7-1.5 1.1-2.4 1.7.3 1.1.5 2.2.6 3.3 0 1.6-.8 2.3-2.4 2.2-1.8-.1-3.5-.8-4.8-2-.5-.4-1-.8-1.5-1.3l-.4 1.1c1.4 1.1 2.8 2.3 4.1 3.6 1.6 1.8.3 5.7-1.9 6.3-1.1.3-2.2-.1-2.9-1-.7-.8-1.4-1.5-2.1-2.4-1 .5-2 1.3-3-.3-4.2 2.1-8.4 4.2-12.5 6.3-.4.2-.6.6-.7 1-.7 3.3-1.5 6.6-.4 10 .1.2.1.5.1.7-.2.5-.4 1.1-.6 1.6-.6-.3-1.4-.5-1.7-1.1-1-1.8-1.4-3.9-1-5.9.4-2.1 1-4.2 1.4-6.3.4-2 1.9-2.9 3.6-3.6 3.5-1.5 6.9-3 10.4-4.3 2.3-.8 3.1-2.6 3.9-4.5l5.4-13.2c0-.1.1-.2.1-.3 2.3-2.4 2.4-5.4 2.6-8.4 0-.5-.2-1-.2-1.5s.1-1.1.4-1.2c.4-.2 1.2 0 1.4.2.5.7.7 1.5.8 2.4-.2 2.3-.6 4.6-.9 6.8-.1.5.1 1 .4 1.3 1.3.9 2.7 1.7 4.2 2.3.9.1 1.7-.1 2.4-.7 3.4-2.3 6.1-5.6 7.4-9.5.7-2 1.9-3.8 3.5-5.3 1.5-1.4 3.1-2.7 3.7-4.8l-4.9-2.8-.2.2c0 .8.7 1.9-.5 2.1-1.1.2-2.6 0-3.2-.7-1.1-1.5-2.1-3.2-2.8-5-1.7-3.6-3.3-7.2-5-10.8-1.5-3.2-3-6.3-4.6-9.4-2-3.8-4.2-7.5-6.5-11.1-.3-.5-1.3-.7-2-.7-1.5 0-3.1.4-4.6.2-3-.4-6-1.3-9-1.8s-6.1-.8-8.9 1.4c1.6 2.3 3.2 4.5 4.8 6.8 1.4 2 2.9 4.1 4.4 6.1.7.9 1.6 1.7 2.4 2.6 3.2 3.8 6.4 7.6 9.7 11.3 2.9 3.3 5.3 7 7.3 10.9.7 1.3 1.3 2.6 2 3.9.5.9.3 1.7-.5 2-.7.1-1.4-.2-1.9-.8-.9-1.3-1.6-2.8-2.5-4.2-1.7-2.7-3.4-5.6-5.3-8.2-1.6-2.2-3.5-4.2-5.3-6.3-2.6-3-5.3-6-7.7-9.2-3-4.1-5.8-8.5-8.6-12.8l-.5-.7c-1.4.9-2.9 1.8-4.4 2.5-3 1.3-4.7.9-7-1.4-2.2-2-5-2.7-7.8-2.9-5.8-.5-11.6.7-17.3 1.2-.7.1-1.4.6-1.8 1.2-1.7 4.2-4.5 7.3-8.8 8.6-3 1-6.3.4-8.7-1.6-4.5-3.8-10.5-5.5-16.3-4.5-3.3.5-6.4 2.4-9.6 3.6-3.5 1.4-7.1 2.3-10.9 1.5-.7-.2-1.2-.6-1.6-1.2-1.6-1.9-3-4-4.7-5.9-1.4-1.3-2.8-2.5-4.4-3.6l-.5.3c.3 1.9.5 3.9 1 5.8 1.2 5.9 1.6 12 1.2 18 0 2.2-.3 4.4-1 6.5-.9 2.6-1.1 5.4-1.6 8.1-.9 5-2 10-2.8 15-.6 4-1 8-1.5 12-.1.7-.2 1.4-.4 2.2 1.5 0 1.7 1 1.8 2.4.3 2.8 1.1 5.6 1.4 8.4.3 4.3.4 8.6.5 12.9.1 1.1-.6 2.1-1.7 2.5-3.1 1.2-6.3 2.1-9.5 2.6-2.7.4-5.4 1.1-8.2 1.6-1.3.1-2.7.1-4 0-.3 0-.8-.6-.8-.8.1-.4.4-.8.8-1 4.5-.9 8.9-1.7 13.4-2.7 2.1-.4 4.1-1 6.1-1.6.4-.2.7-.7.7-1.1.1-3.7.3-7.4.2-11.1-.1-2.8-.4-5.5-.7-8.4-3.5.6-6.8 1.2-10.1 1.9-2.3.5-4.6 1.1-7 1.5-.9.1-1.9.1-2.8-.2-2.4-.5-4.8-1.2-7.2-1.8-.1.8-.2 1.5-.4 2.2-.4 1.6-1.4 2.1-2.9 1.4-.2-.1-.8 0-.8.1-.5 1.2-1.3 2-2.8 1.7-1.2-.2-2.1-1-2.6-2.2 0-.1-.2-.1-.3-.2-.3 1.3-.6 2.5-.8 3.7-.1 1-.6 1.7-1.5 1.7-.8-.1-1.6-.4-2.1-1-.6-.8-1.2-1.6-1.6-2.6-.1.8-.3 1.7-.5 2.5-.2 1.3-1.3 2.3-2.6 2.4-1.3.2-2.6-.6-2.9-2-.3-1-.6-2-1-3-.3-.8-.6-1.3-1.7-1.1-2.8.7-5.6 1.2-8.3 1.8-.7.2-1.3.3-2 .4-4.3.4-6.2 3.5-7.9 7 .3.2.6.3.9.4.8.5.8.9.1 1.6-.4.4-.6.9-.7 1.4 0 2.5 1 4.6 3.5 5.6.4.2.7.3 1.1.5.8-1.9 2.5-1.1 3.8-1 4.1.2 8.2.7 12.3.8 5 .2 10.1.2 15.1.3 3.3.1 6.7.3 10 .5.8.1 2.2.8 2.2 1.3.1 1.2-1.1 1.6-2.2 1.6-2.1 0-4.3-.2-6.4-.2-4.6-.1-9.2.1-13.8-.1-5-.2-9.9-.6-14.9-1.2-2-.4-4-.8-6-1.5-.3 1.3-1.3 1-2.2.8-2.2-.5-3.8-2.3-4.1-4.5-.4-2.6-.9-5.3-.5-7.8.5-3.2 2.6-6 5.5-7.4 3.5-1.6 7.3-2 11-2.5 4.8-.7 9.4-2.1 13.7-4.2 3.3-1.7 6.5-3.3 9.8-4.9.9-.4 1.9-.7 2.9-.9.7-.2 1.3-.6 1.9-.9v2.2c1.7-1.4 3.4-2.5 4.6-3.9.6-.8.4-2.3.5-3.5.5-3.9 1-7.8 1.4-11.7.3-3.1.4-6.1.4-9.2.1-4.2.1-8.5 0-12.7 0-2.9-.3-5.9-.3-8.8-.1-5.2-.1-10.3-.1-15.5l-.3-2.1c-3.1-.1-6.1-.2-9.3-.2-4.1.1-8.1-1.6-10.9-4.6-1.3-1.4-2.3-2.9-3.5-4.3-.2-.2-.4-.5-.7-.5-1-.1-1.8-1.1-1.7-2.1v-.2c.4-3.3 1-6.5 1.6-9.8.3-1.8.5-3.7.9-5.4l2.7-12.3c.8-3.7 1.7-7.4 2.6-11.1s1.8-7.5 2.7-11.3c.7-2.9 1.2-5.8 1.9-8.8.6-2.7 1.4-5.3 1.9-7.9 1.2-6.4 2.4-12.8 3.5-19.1l3.3-18.9c1.3-7.7 2.5-15.4 3.6-23.1.9-6.7 1.6-13.5 2.5-20.3.4-2.8.9-5.5 1.5-8.2.4-1.9 1-3.8 1.6-5.6 1.1-3.2.8-6.5.8-9.8.1-7.6.9-15 3.5-22.2.9-2.4 1.8-4.8 2.4-7.2.2-1.3.2-2.7.2-4 .5-6.4.9-12.8 2.7-19 .2-.7.3-1.5.4-2.5-1.2.5-2.5.9-3.7 1.2-4 .5-8.1 1.4-12.2 1.3-3 0-5.8-1.6-8.3-3.7-4.1-3.3-6-7.8-7.4-12.6-.6-2.1-1.3-4.1-1.9-6.2-.2-.7-.4-1.3-.5-2 0-.3.2-.8.4-.8.4-.1.7 0 1 .3.6 1 1.2 2 1.6 3 1.3 3.1 2.5 6.2 3.8 9.3s3.5 5.1 6.2 6.9c3.1 2.2 6.5 2.3 10.1 1.6 3.9-.8 7.9-1.7 11.8-2.6.2-.1.5-.5.6-.8 1.1-4.1 2.1-8.2 3.3-12.3 2-6.8 4.2-13.5 6.2-20.3.4-1.1.7-2.3 1.2-3.7L61.3 155c.4 1.2.8 2.3 1.4 3.4 2.8 4.2 4.4 9.2 4.5 14.3 0 .8.2 1.7-1.2 1.8s-1.4-.8-1.5-1.6c-.5-2.7-.9-5.5-1.4-8.4-1.2.5-2.1 1.7-2.3 3-1.2 3.9-2.6 7.6-4.1 11.4-.5.6-1.2.9-1.9.8-.8-.1-.9-.9-.5-1.8 1.4-3.2 2.7-6.5 4-9.8 1-2.3 1.2-4.9.6-7.3-.6-2.5-.5-5.3-.8-7.9-.3-3-.7-5.9-1.2-8.9-.6-3.7-1.3-7.5-2.1-11.2-.4-2-1.1-3.9-1.8-6.1-1.1 4-2.7 7.4-6 9.8-3 2.1-5.7 4.6-8.6 6.9-1.2 1-2.9 1.1-4.3.3-1.7-.9-3.3-1.9-4.9-3 .5 1.8 1 4 1.5 6.1.6 2.9 1.2 5.8 1.7 8.7.4 2.5.7 5 1.1 7.5.2 1.1.1 2.2-1.2 2.6-1.1.3-2-.5-2.2-2.1-.5-4-.9-7.9-1.6-11.9-.5-3.1-1.2-6.2-1.9-9.3-.7-3-.9-6.1-.6-9.1.2-3.4.5-6.8 1-10.2.1-.7.9-1.4 1.3-2.1.2-.3.4-.5.5-.8.7-.9 1.3-2 1.8-3 .3-1.1.4-2.3.3-3.4 0-2.5.1-4.9-.1-7.4-.2-.9-.5-1.8-.9-2.7-.6-2.2-1.3-4.3-1.7-6.5-.1-1.2 0-2 .3-2.7zM70 499.9c-1.8-1-1.8-2.3-1.6-3.8.3-1.7.4-3.4.7-5 .8-4.8 1.6-9.6 2.6-14.3 1.3-6 3-12 4.1-18.1.6-3.4.8-6.8.7-10.2 0-3.8-.5-7.5-.8-11.3-.2-2.4-.7-4.7-1-7.2l-20.5-.8c.1 4.3.3 8.3.4 12.3.1 3.3.5 6.6.2 9.8-.3 3.6-.2 7.2.1 10.8.1 1.3.2 2.6.2 4 0 1.2-.3 2.4-.3 3.5 0 3 .2 6 0 8.9-.3 4-.8 8-1.3 12.1-.1 1.1-.4 2.1-.9 3.1-.6.8-1.3 1.5-2.1 2.1-1.6 1.7-3.7 2.8-5.9 3.2-.1 1.6.9 2.1 2.1 2.5l5.1 1.4c1.4.5 2.8.4 4.2-.1.6-.2 1.3-.4 2-.5 3.8-1 7.8-1.6 12-2.4zM30.5 121.6c-.3.5-.6 1-.8 1.6-.3 2.7-.7 5.4-.9 8.2-.2 3.9 1.9 6.8 4.7 9.2 1.1.9 2.6.9 3.7 0 3-2.5 6-4.9 9-7.5 2.1-1.8 2.7-4.3 3.1-7-3 2.6-7 3.8-11 3.4-4.8-.4-6.5-3.8-7.8-7.9zm175.9 382.5-1.3 2 .4-.3c.7 1 1.4 1.9 2.2 2.8.4.2.9.3 1.3.1.6-.8 1-1.8 0-2.6-.7-.7-1.6-1.3-2.6-2zm7.1-3c-.5-2.9-3.3-2.9-4.7-4.7-.3.8-.5 1.2-.7 1.8 1.4 1.6 3.3 2.6 5.4 2.9zm-190.1 6.1c.5 1.2.9 2.4 1.4 3.5.1.3.5.5.8.7.2-.3.5-.6.6-.9.6-1.6-.4-2.9-1.2-4.2l-1.6.9zm14.6-.4c1.3-2.5.4-4.6-2.4-5.6l2.4 5.6zM214.5 495l.3-.4c-.9-1.6-2.4-2.8-4.2-3.1l-.3.4 4.2 3.1zM31.7 508.8l.7-.3-1.5-3.8-.5.2 1.3 3.9z" transform="translate(167.902 51.532)"/><path d="M78.3 234.4c-1.8.8-1.9 2.4-1.9 3.9 0 1.7.1 3.5.2 5.2.2 2.2-1 3.8-2.2 5.3-1.6 1.9-1.5 3.9-.6 6.1 1 2.4 2.1 4.8 2.9 7.3.6 2 2.1 3.2 3.5 4.4 3.9 3.4 8.3 4.6 13.4 2.8 2.1-.8 4.2-1.7 6.4-2.4.8-.3 1.6-.3 2.4 0 1.3.6 1.1 2.4-.4 3.3-1.6 1-3.2 1.8-4.9 2.7 2.3 1.4 4.5 3 6.9 4.2 4 2 8.1 3.9 12.2 5.8 4.4 2 8.7 4.1 13.1 6.1l2.7 1.2c1.1.4 1.9 1.2 1.5 2.3s-1.6 1.1-2.5.8c-2.7-.8-5.4-1.7-8-2.8-5.3-2.5-10.7-4.9-15.8-7.8-4.3-2.5-8.2-5.6-12.3-8.4-.5-.4-1.2-.5-1.8-.4-2.8.9-5.7.9-8.5 0-2.1-.5-3.6-1.8-5.2-3-2.5-1.9-4.5-4.3-5.9-7-1.7-2.9-2.9-5.9-3.6-9.1-.7-2.9-1.1-5.9-1.1-8.9 0-5.4.4-10.9.7-16.3.2-1.1.4-2.1.8-3.1.3-1.3.5-2.6.9-3.9.1-.3.5-.6.7-.9.3.3.9.6.9.9 0 1.2-.1 2.5-.1 3.8-.2 4.1-.5 8.2-.7 12.3-.1 2.6 0 5.2 0 8 2.5-1.7 1.9-3.9 1.9-5.9-.1-3.8.7-7.1 4.3-9.3.7-.6 1.3-1.5 1.5-2.4 1.2-4 2.1-8.2 3.4-12.2.9-2.8 2.3-5.6 3.4-8.3 1.6-3.7 3.4-7.4 4.8-11.2 1.6-4.5 2.9-9.1 4.2-13.7 1-3.4 1.9-6.9 3-10.3.7-2.1 1.7-4.2 2.3-6.3s.9-4.5 1.5-6.8c.8-3.2 1.8-6.3 2.9-9.4 1.3-3.5 3.1-6.7 4.6-10.1 1.1-2.8 2.4-5.4 3.8-8.1 1.8-2.7 3.7-5.4 5.8-7.9 1.2-1.5 2.6-2.9 4-4.4.4-.4.9-.8 1.4-1 3.8-1 7.5-1.3 11 1 .5.3 1 .8 1.2 1.3.2.5-.2 1.2-.3 1.8-.5-.1-1.2 0-1.5-.3-2.4-1.8-5.4-2.6-8.3-2.2-2 .2-3 1.9-4.1 3.2-4.3 5-7.6 10.8-9.8 17-1.3 3.9-3.4 7.5-4.9 11.4-1 2.9-1.8 5.8-2.4 8.8-.6 2.4-1.1 4.8-1.7 7.2-1.5 5.3-3.5 10.5-4.8 15.8-2.1 8.2-4.9 16.1-8.4 23.8-1.6 3.5-3.1 7.1-4.5 10.7-.8 2-1 4.2-1.6 6.3-.8 3-1.7 6-2.7 9-.7 2 0 4.3 1.7 5.5 1.4 1.1 3.1 1.8 4.5 2.8.9.6 1.8 1.3 2.5 2.1.2.5.2 1-.1 1.5-.3.3-.8.5-1.3.4-3.3-.9-6.2-2.4-8.2-5.3-1.4-1.9-2.4-4.4-2.8-6.9zM131.6 419.4c-.3.4-.5 1.1-.9 1.3-.5.2-1.1.2-1.6-.1-.8-.6-1.5-1.4-2-2.3-2.7-4.8-5.3-9.6-8-14.4-1.3-2.2-2.8-4.4-3.9-6.7-1.2-2.4-2.1-5-3.3-7.5-.9-2-1.9-3.9-3-5.9l-6.9-12.9c-2-3.8-3.9-7.6-5.8-11.4-1.9-3.9-3.6-7.9-5.5-11.9-1.8-3.8-3.8-7.6-5.4-11.5-2.2-5.4-4-10.9-6.2-16.3-1.2-3.1-2.9-6-4.1-9.1-1.3-3.4-2.3-6.8-3.4-10.3-1.4-4.6-2.9-9.1-4.2-13.7-.3-1.2-.5-2.4-.5-3.7 0-.4.5-.9.8-1.3.4.3 1 .6 1.1 1 1.8 5.3 3.4 10.6 5.2 15.8 2.3 6.9 5.1 13.6 8.4 20.1 1.3 2.5 2.2 5.2 3.3 7.9 1.4 3.6 2.7 7.2 4.4 10.7 1.7 3.7 3.8 7.3 5.6 11 2.4 5 4.7 10.1 7.1 15.1 1.1 2.3 2.4 4.4 3.6 6.6 1.7 3.2 3.5 6.5 5.2 9.7 1.9 3.8 3.7 7.6 5.6 11.4 1.5 2.9 3 5.8 4.6 8.7s3.3 5.9 4.9 8.8c1.2 2.3 2.4 4.6 3.5 6.9.6 1.5 1.1 2.7 1.4 4zM133.9 0c6.1-.2 11.9 2.2 16.2 6.5 2.5 2.4 5.2 4.7 7.5 7.3 1.9 2.1 3.5 4.5 4.9 6.9 3.2 5.4 6.1 11.1 7.1 17.3.9 4.7 1.2 9.4 1.1 14.1-.2 4.6-1.3 9.1-3.3 13.3-2.4 4.8-3.2 10.2-3.5 15.6-.3 3.8-1.4 7.6-3.3 11-1 1.9-1.8 4-3.1 5.6-1.9 2.4-4 4.5-6.3 6.4-3 2.4-6.3 4.5-9.5 6.6-.7.3-1.5.4-2.2.4 0-.8.2-1.5.5-2.3 1.7-2.5 4.4-3.7 6.7-5.4 4.2-3.2 8.2-6.7 10.3-11.9 1.3-2.9 2.3-5.8 2.9-8.9.5-2.8.8-5.7 1.2-8.5.2-1.6.6-3.3 1.1-4.8.7-2.2 1.6-4.3 2.5-6.4 1.8-4.2 2.6-8.8 2.5-13.3 0-5.4-.8-10.7-2.4-15.9-.7-2.2-2-4.3-2.9-6.5-2-5-5.4-9.2-9-13.1-2.3-2.6-4.8-4.9-7.6-7-3.2-2.5-7.1-3.9-11.2-4-5.8-.1-11.5.8-16.9 2.8-1 .4-1.9 1-2.8 1.5-.4.1-.8.1-1.2.1 0-.4-.2-1 0-1.2 1-1 2.2-1.9 3.5-2.6C122 1.1 127.8.3 133.9 0zM29.2 58.1c-.4.5-.9.9-.9 1.2.5 4.1 1.1 8.2 1.7 12.3.2.7.2 1.4.2 2-.1.5-.5 1.2-.9 1.3-.5 0-1.1-.3-1.3-.8-.4-1.4-.7-2.9-.9-4.4-.4-3.3-.6-6.7-1-10.1-.2-2.1 2.1-4.2 4.1-3.4.7.3 1.1 1.2 1.8 2v-3.7c0-1.4 1.8-3.8 3.2-3.7.8.1 1.5.5 2 1.1 1.4 1.6 2 3.7 1.9 5.9-.1 1.9 0 3.8.3 5.7.5-3.5 1-7.1 1.6-10.6.2-1.9 1.8-3.3 3.7-3.3 1.5 0 2.8 1.5 2.7 3.6-.1 3-.4 6.1-.6 9.1-.1.6-.1 1.2 0 1.8 1.2-3.4 2.4-6.8 3.6-10.3.6-1.8 4-3.3 5.9-2.7 1.1.4 1.8 1.4 1.8 2.6.2 3.3-.3 6.7-1.5 9.8-.9 2.5-1.4 5.2-2 7.8l.4.2c.3-.1.7-.2 1-.4 1.5-.4 3.2.1 4.1 1.4.1.2.1.8-.1.8-.4.3-.9.4-1.3.4-.7 0-1.8-.5-2.1-.2-1.3 1.1-2.3 2.4-3.1 3.9-.7 1.9-1.2 3.8-1.6 5.7-.2.5-.5 1.2-1 1.3s-1.4-.2-1.5-.5c-.5-1.3-1.5-.8-2.2-.5-1.8.9-3.5 2-5.2 3-.8.6-1.6 1.2-2.3 1.8.5.9.4 1.9-.7 2.1-.8.2-1.7 0-2.3-.6-.4-.7-.3-1.6.1-2.3 1.8-2.4 4.6-3.6 7.2-4.9 1.5-.6 3.1-1 4.7-1.3.3-.1.6-.3.8-.7 1.6-4.9 3.6-9.8 4.5-14.8.5-3.1 1.5-6.1 2-9.2.1-1.2 0-2.3-.2-3.4-2.4 0-3.1.4-3.8 2.5-1.2 4-2.4 7.9-3.6 11.9-.3.7-.2 1.5.3 2 .8.8.1 1.9-1.2 2.2-3.9.8-7.8 1.5-11.6 2.2-.5.1-1 .3-1.6.5-1.4.5-1.7.2-1.8-1.3 0-.1 0-.4-.1-.4-2.2-1.3-1.2-3.3-1.2-5.1.1-3.2-.6-6.5-2-9.5zm5.7-5c-.3.7-.6 1.5-.6 2.3.2 5.5.6 10.9.9 16.5l8.2-1.9c-.2-.5-.3-1-.3-1.6.3-1.9.7-3.8 1.2-5.7.8-3 1.2-6.1 1.1-9.3 0-.6-.5-1.6-.9-1.7-1.1-.2-1.2.8-1.3 1.6-.2 1.2-.2 2.4-.3 3.7l-1.5 11.4c-.2 1.3-.8 1.5-1.6 1-.7.3-1.4.5-2.2.5-.3.1-.6-.9-.6-1.4-.1-3-.1-6.1-.1-9.2-.1-2.1.1-4.3-2-6.2z" transform="translate(167.902 51.532)"/><path d="m153.3 143.2 1.4.8c-1.4 3.5-2.9 6.8-4.2 10.3-1.4 3.7-2.7 7.5-4 11.2-1.2 3.6-2.3 7.3-3.5 10.9-1 3.1-2 6.2-3.2 9.2-1.5 3.5-3.4 6.8-4.7 10.3-2.1 5.4-4.5 10.7-7.4 15.8-1.4 2.4-2.8 4.8-4.1 7.3-1.9 3.6-3.6 7.2-5.4 10.8-2.4 4.4-4.9 8.6-7.3 13-1.2 2.3-2.2 4.7-3.2 7.1-1.1 2.5-2.3 4.9-3.2 7.4-.3.9-1.2 1.4-2.1 1.2h-.2c-1-.3-1.5-1.3-1.3-2.2v-.1c.8-2.2 1.6-4.4 2.6-6.6 1.3-2.9 2.6-5.8 4-8.7 1.8-3.5 3.9-6.9 5.8-10.4 1.6-3.1 3-6.4 4.7-9.5 1.8-3.4 3.8-6.8 5.6-10.2 2.2-4.3 4.3-8.7 6.4-13.1 2-4.2 4-8.5 5.8-12.8 1.6-3.7 2.9-7.5 4.3-11.2 1.6-4.1 3-8.3 4.7-12.4 1.8-4.3 3.7-8.4 5.7-12.6.7-2 1.8-3.7 2.8-5.5zM104.9 13.7c-.4.5-.8.9-1.1 1.4-1.7 2.4-3.8 4.6-5 7.2-1.6 3.3-2.9 6.7-3.7 10.3-.6 3.3-1 6.7-1.2 10-.2 1.9-.2 3.8-.3 5.7 0 .2 0 .5-.2.7-2.2 2-2.6 4.9-3.4 7.6-1.1 3.4-1.9 6.9-2.5 10.4-.5 3.9-.9 7.8.4 11.7 1.2 3.3.9 7-.9 10.1-2.7 5-5 10.3-7.5 15.5-1.1 2.4-1 5.1.1 7.4 2 4.6 1.6 9.9-1 14.2-2.8 5.1-7.3 7.9-12.6 9.5-.3.1-.7.2-1 .1-.5-.2-1.2-.5-1.3-.9 0-.5.2-1.1.7-1.4 1.9-1.1 3.9-1.9 5.7-3.1 4.4-3 7.4-7 7.3-12.5-.1-2-.5-3.9-1.2-5.7-1.4-3.6-.7-7 .7-10.2 1.6-3.6 3.5-6.9 5.2-10.4 1-1.9 1.9-3.9 2.8-5.8.8-1.8.8-3.9 0-5.7-1.4-3.5-1.3-7.1-.9-10.7.5-4.4 1.6-8.6 3.3-12.7 1.1-2.7 2.4-5.2 3.6-7.9.2-.4.3-.9.2-1.4 0-2.9-.2-5.8-.1-8.7.3-5.9 2.3-11.3 5-16.4 1.5-3.1 3.7-5.8 6.3-8 .6-.8 1.8-.9 2.6-.3 0-.1 0-.1 0 0z" transform="translate(167.902 51.532)"/><path d="M75.3 39.6c1.2-2.6 2.2-5.2 3.4-7.7 2.5-5.2 6.2-9.6 10.1-13.8C93.6 13 99.2 9 106.3 7.7c1.6-.1 3.2 0 4.7.5.3.1.5.7.8 1.1-.4.2-.9.7-1.2.6-3.6-.8-6.7.5-9.8 2.1-4.1 2.2-7.7 5.3-10.6 9-2.4 2.9-4.7 5.8-6.9 8.9-2.1 3.3-4.3 6.7-5.3 10.5-.1.5-.9.8-1.4 1.2l-1.3-2zM247.9 482.9c.4.3.8.7 1.1 1 .5.7.8 1.4-.1 2-1.3 1-2.7 2.1-4 3.2-1.4 1.1-2.6 2.3-3.8 3.6-1.7 2-3.2 4.4-4.9 6.4-1.2 1.3-2.5 2.6-3.9 3.7-2.8 2.7-5.6 5.3-8.4 7.9-1.6 1.5-3 3.3-5.3 3.7-.6 0-1.2-.2-1.8-.5.3-.4.6-.9.9-1.3 2.1-1.9 4.5-3.5 6.3-5.7 2.5-2.9 5.2-5.5 8.1-8.1 1.5-1.4 2.9-3.1 3.9-4.9 2.2-3.8 5.3-7 9-9.3.6-.4 1.2-.9 1.7-1.3.5-.1.8-.2 1.2-.4zM96 56.3v-5.1c0-.7.1-1.3.3-2 .1-.3.6-.5.9-.7.2.3.6.6.7 1 .3 3 .5 6.1.7 9.1.4 3.5 1.3 6.8 2.7 10 1.5 3.4 3.7 6.5 6.4 9.1 1.6 1.3 3.2 2.5 4.9 3.6.4.3.8.6 1.1 1.1.2.4.3 1.3.1 1.5-.5.3-1.4.7-1.8.4-1.8-1.1-3.5-2.4-5-3.9-2-2.3-3.8-4.7-5.5-7.2-1.5-1.9-2.7-4-3.7-6.2-.8-2.7-1.3-5.4-1.7-8.2 0-.9-.1-1.7-.1-2.5zM62.3 521.4c-2.5 0-5.1-.1-7.6 0-5.3.4-10.5.9-15.7 1.3-.5 0-1-.5-1.4-.8.4-.4.8-1.1 1.2-1.2 2.7-.4 5.4-.5 8-1.1 6.5-1.5 13.1-1.3 19.7-1.7.4-.1.9-.1 1.3-.1.9.1 1.8.5 1.7 1.6-.2.6-.8 1.1-1.4 1.4-.8.2-1.6.2-2.4.1l-3.4.2v.3zM28.8 523.8c-2.7-.4-5.4-.8-8.2-1.1-1.8-.2-3.6-.4-5.3-.7-2.4-.4-4.7-.9-7-1.4-.9-.1-1.8-.4-2.7-.7-.4-.2-.6-.8-1-1.2.5-.3.9-.8 1.4-.7 1.8.2 3.6.6 5.4.9 2 .2 4.1.3 6.2.5l2.7.3c3.2.4 6.4.9 9.5 1.3.8.1 2 0 1.9 1.3s-1.2 1.2-2.1 1.4h-.9l.1.1zM195.3 520.6c-2.2 0-3.8.1-5.4-.1-.5 0-1.1-.7-1.6-1.1.5-.4.9-1 1.4-1 4.2-.5 8.5-.9 12.7-1.4 2.4-.3 4.7-.8 7-1.3 1.1-.3 2 .1 2.1 1.1.1.5-.8 1.4-1.4 1.7-1.2.4-2.4.7-3.7.8-3.9.5-7.8.9-11.1 1.3zM28.6 94.4c-1-1.1-1.4-2.6-1.2-4.1.5-3.7 1.1-7.5 1.6-11.2.1-.8.3-1.6.5-2.4.2-.4.5-.8 1-.9.3 0 .7.5 1 .8 1.1 1.4-.3 2.5-.4 3.8-.2 3.5-.7 7-.7 10.5.2 1.4-.6 2.8-1.8 3.5zM114.3 70.6c-2.6.3-4.5-.9-6.2-2.7-.3-.3-.2-.9-.3-1.4.5-.1 1.1-.4 1.4-.1 4 2.8 8.1 1.4 12.2.3.3-.1.7-.2 1-.3.9-.4 1.9-.1 2 .7-.1.8-.6 1.4-1.3 1.7-2.9.8-5.8 1.5-8.8 2.2v-.4zM72.3 139.5c-1.2-.5-2.6-1-4-1.6-.3-.3-.4-.7-.3-1.2.3-.4.8-.7 1.4-.7 1.9.6 3.9.6 5.7 0 .8-.3 1.9-.3 2.2.9s-.5 1.7-1.3 2c-1.2.3-2.5.5-3.7.6zM99.5 38.5c2.5-2.5 5.4-3.6 8.8-2.6.6.3 1 .8 1.1 1.5-.1.6-.7 1-1.3.9-.1 0-.1 0-.2-.1-2.4-.9-4.5 0-6.4 1.1-1.3.7-1.7.4-2-.8zM108.4 56.9c.4.1.8.3 1.1.5.8.9 1.6 1.8 2.3 2.8.2.4.3.9.4 1.4-.5.1-1.2.5-1.6.3-1.4-.7-2.4-1.9-2.7-3.4-.1-.5.3-1 .5-1.6zM143.9 126c.1 0 .3.1.4.2 1 1.1 2 2.2 2.9 3.4.2.3-.1.9-.1 1.4-.4-.1-1-.1-1.2-.4-1-1-1.9-2.1-2.8-3.3-.6-.7-.2-1.3.8-1.3zM126.7 47.7c.4-.3 1.1-1 1.8-1 1.1-.1 1.6.8 1.6 1.9s-.4 1.9-1.6 2.1c-1 0-1.8-1.1-1.8-3zM106.6 46.9c0 1.6-1 3-1.8 2.9-.9-.1-1.5-.8-1.5-1.7.1-1.4.7-2.4 1.7-2.2.7.1 1.2.7 1.6 1z" transform="translate(167.902 51.532)"/><path class="st1" d="M70 499.9c-4.3.8-8.2 1.4-12.1 2.2-.7.1-1.3.3-2 .5-1.3.5-2.8.5-4.2.1l-5.1-1.4c-1.2-.3-2.2-.9-2.1-2.5 2.3-.4 4.3-1.6 5.9-3.2.8-.6 1.5-1.3 2.1-2.1.5-.9.8-2 .9-3.1.5-4 1-8 1.3-12.1.2-3 0-5.9 0-8.9 0-1.2.3-2.4.3-3.5 0-1.3-.1-2.6-.2-4-.3-3.6-.4-7.2-.1-10.8.3-3.2-.1-6.5-.2-9.8-.1-4-.3-8-.4-12.3l20.5.8c.4 2.6.8 4.9 1 7.2.4 3.8.8 7.5.8 11.3.1 3.4-.2 6.9-.7 10.2-1.2 6.1-2.8 12-4.1 18.1-1 4.7-1.7 9.5-2.6 14.3-.3 1.7-.5 3.4-.7 5-.1 1.7-.1 3 1.7 4zM30.5 121.5c1.3 4.1 3 7.6 7.8 7.9 4 .4 7.9-.8 11-3.4-.4 2.7-1 5.2-3.1 7-2.9 2.6-6 5-9 7.5-1.1.9-2.6.9-3.7 0-2.8-2.4-4.9-5.3-4.7-9.2.1-2.7.5-5.4.9-8.2.2-.5.5-1.1.8-1.6zM206.4 504.1c1 .7 1.9 1.3 2.7 2 1 .8.6 1.8 0 2.6-.4.2-.9.2-1.3-.1-.8-.9-1.5-1.8-2.2-2.8l-.4.3 1.2-2zM213.5 501.1c-2.1-.3-4-1.3-5.4-3 .2-.5.4-1 .7-1.8 1.4 1.9 4.2 1.9 4.7 4.8zM23.4 507.2l1.7-.8c.8 1.3 1.8 2.5 1.2 4.2l-.6.9c-.3-.2-.7-.4-.8-.7-.6-1.2-1-2.4-1.5-3.6zM38 506.8l-2.4-5.6c2.8 1 3.7 3.1 2.4 5.6zM214.5 495l-4.2-3.1.3-.4c1.8.4 3.3 1.5 4.2 3.1l-.3.4zM31.7 508.8l-1.2-3.8.5-.2 1.5 3.8-.8.2zM34.9 53.1c2.1 1.9 1.9 4.1 1.9 6.2.1 3.1 0 6.1.1 9.2 0 .5.3 1.5.6 1.6.8 0 1.5-.2 2.2-.5.7.5 1.4.3 1.6-1l1.5-11.4c.2-1.2.1-2.5.3-3.7.1-.8.2-1.9 1.3-1.6.4.1.8 1.1.9 1.7.1 3.1-.3 6.2-1.1 9.3-.5 1.9-.8 3.8-1.2 5.7 0 .5.1 1.1.3 1.6l-8.2 1.9c-.3-5.5-.7-11-.9-16.5.2-1 .4-1.8.7-2.5z" transform="translate(167.902 51.532)"/><g class="st2"><path d="m17930.3-11505.2-6.1-16.6 5.7-5.7 7.8 24.3 9.1 9.1-5.3 5.3-9.1-9.1-24.3-7.8 5.7-5.7 16.5 6.2zM17968.8-11519.9c.3 2.7-.7 5.2-2.9 7.4-2 2-4.1 3-6.3 2.9s-4.4-1.2-6.7-3.4l-12.2-12.2 5-5 12.1 12.1c1.9 1.9 3.8 2 5.6.3 1.7-1.7 2.3-3.4 1.7-5.3l-13.2-13.2 5-5 18.7 18.7-4.7 4.7-2.1-2zM17981.8-11544v3.6l5.7 5.7-5 5-26.5-26.5 5-5 14.7 14.7-.3-2.2-.8-10.4 6-6 1 14.5 18.2 3.6-5.7 5.7-12.3-2.7zM17981-11575.3c-.7-.7-1.1-1.6-1.1-2.6s.5-1.9 1.3-2.8c.9-.9 1.8-1.3 2.8-1.3 1 0 1.9.3 2.6 1.1.8.8 1.1 1.6 1.1 2.6s-.5 1.9-1.3 2.8-1.8 1.3-2.8 1.3c-.9 0-1.8-.4-2.6-1.1zm28.8 18.2-5 5-18.7-18.7 5-5 18.7 18.7z" transform="translate(-17757.289 11584.268)"/></g><g class="st2"><path d="m18144.5-11456.2-5.2-5.2 10.8-10.8-10.1-10.1-10.8 10.8-5.2-5.2 25.1-25.1 5.2 5.2-10.2 10.2 10.1 10.1 10.2-10.2 5.2 5.2-25.1 25.1zM18162.7-11438c.2-.7.6-1.4 1.2-2.2-2.6.1-4.8-.8-6.7-2.7-1.8-1.8-2.8-3.9-3-6.1s.6-4.2 2.2-5.8c2-2 4.2-2.8 6.8-2.4 2.5.4 5.2 2 8 4.8l2.3 2.3 1.1-1.1c.9-.9 1.3-1.8 1.4-2.7.1-1-.4-1.9-1.3-2.9-.8-.8-1.7-1.3-2.6-1.4-.9-.1-1.7.2-2.4.9l-5-5c1.1-1.1 2.4-1.7 4-2 1.6-.3 3.3 0 5 .7 1.7.7 3.4 1.8 4.9 3.3 2.3 2.3 3.6 4.7 3.7 7.2.2 2.5-.8 4.8-2.8 6.9l-8.1 8.1c-1.8 1.8-2.9 3.4-3.3 4.8l-.3.3-5.1-5zm-.6-7.6c.7.7 1.6 1.3 2.5 1.5s1.8.3 2.7.1l3.2-3.2-1.9-1.9c-2.5-2.5-4.7-3-6.6-1.4l-.3.3c-.6.6-.9 1.4-.9 2.2.1.8.5 1.6 1.3 2.4zM18182.8-11436.9c2.9-2.9 5.9-4.5 9-4.9s5.8.6 8.1 2.9c2 2 2.9 4.3 2.7 6.9l2-1.6 4.5 4.5-18.1 18.1c-1.6 1.6-3.4 2.7-5.4 3.2s-3.9.3-5.9-.4c-2-.7-3.9-2-5.7-3.8-1.4-1.4-2.4-3-3.2-4.8-.8-1.8-1-3.5-.8-5.1l5.2-.8c-.2 2.6.7 4.8 2.4 6.6 1.3 1.3 2.7 2 4.2 2 1.4 0 2.8-.6 4.1-1.9l1-1c-2.5.2-4.6-.7-6.5-2.6-2.2-2.2-3.2-4.9-2.8-8.1.4-3.1 2-6.2 4.9-9.1l.3-.1zm4.6 5.4c-1.7 1.7-2.7 3.4-3 5s.2 3.1 1.4 4.2c1.5 1.5 3.2 2 5 1.6l7.9-7.9c.5-1.8 0-3.5-1.5-4.9-1.2-1.2-2.6-1.6-4.3-1.4-1.7.3-3.6 1.4-5.5 3.4zM18202.7-11398.1l-5-5 18.7-18.7 5 5-18.7 18.7zm18.2-28.8c.7-.7 1.6-1.1 2.6-1.1s1.9.5 2.8 1.3c.9.9 1.3 1.8 1.3 2.8 0 1-.3 1.9-1.1 2.6-.8.8-1.6 1.1-2.6 1.1s-1.9-.5-2.8-1.3-1.3-1.8-1.3-2.8c-.1-.9.3-1.8 1.1-2.6zM18233.3-11404.8l-1.9 2.2c2.9-.3 5.5.7 7.8 2.9 2.4 2.4 3.1 5 2.1 7.8 3.2-.6 6 .3 8.5 2.8 2 2 2.9 4.1 2.8 6.3-.2 2.2-1.5 4.4-3.8 6.8l-11.9 11.9-5-5 11.9-11.9c1.1-1.1 1.6-2 1.7-2.9.1-.9-.4-1.9-1.5-2.9-1.5-1.5-3.2-1.8-5.2-1l-12.8 12.8-5-5 11.9-11.9c1.1-1.1 1.7-2.1 1.7-3 .1-.9-.4-1.9-1.4-2.9-1.4-1.4-3-1.9-4.8-1.3l-13.2 13.2-5-5 18.7-18.7 4.4 4.8zM18252.5-11367.3c1.9-1.9 3.9-3.1 6-3.9 2.2-.7 4.3-.8 6.4-.3 2.1.5 4.1 1.7 5.9 3.5 2.5 2.5 3.8 5.3 3.9 8.5.1 3.1-1.2 6.1-3.6 9l-1.2 1.3c-2.9 2.9-6 4.4-9.3 4.5s-6.3-1.1-9-3.8c-2.7-2.7-4-5.7-3.9-9 .1-3.3 1.7-6.5 4.6-9.5l.2-.3zm4.6 5.4c-1.8 1.8-2.8 3.5-3.1 5.1-.3 1.6.2 3 1.5 4.3 1.2 1.2 2.6 1.7 4.2 1.4 1.6-.2 3.4-1.4 5.5-3.4 1.7-1.7 2.7-3.4 3-5.1.3-1.6-.2-3.1-1.4-4.3-1.2-1.2-2.6-1.7-4.3-1.4s-3.4 1.4-5.4 3.4zM18291.4-11337.3c-.6-.8-1.1-1.4-1.7-1.9-1.9-1.9-3.8-2.5-5.6-1.8l-12.2 12.2-5-5 18.7-18.7 4.7 4.7-2.1 2.4c2.7-.7 5-.2 6.7 1.6.6.6 1 1.1 1.3 1.8l-4.8 4.7zM18288.3-11312.5l-5-5 18.7-18.7 5 5-18.7 18.7zm18.2-28.8c.7-.7 1.6-1.1 2.6-1.1s1.9.5 2.8 1.3c.9.9 1.3 1.8 1.3 2.8 0 1-.3 1.9-1.1 2.6-.8.8-1.6 1.1-2.6 1.1s-1.9-.5-2.8-1.3c-.8-.8-1.3-1.8-1.3-2.8-.1-.9.3-1.8 1.1-2.6z" transform="translate(-17757.289 11584.268)"/></g><g class="st2"><path d="M17767-11318.3c-.4-.4-.8-.6-1.3-.5-.5.1-1.2.4-2.2.9-.9.5-1.8.8-2.5 1-1.3.3-2.4 0-3.3-.8-.7-.7-1-1.6-.9-2.7.1-1.1.7-2.1 1.6-3 .6-.6 1.3-1.1 2-1.3.7-.3 1.4-.3 2.2-.2.7.1 1.3.5 1.8 1l-1.6 1.6c-.5-.5-1-.7-1.6-.7-.6 0-1.1.3-1.7.9-.5.5-.8 1-.9 1.5-.1.5.1 1 .5 1.3.3.3.8.5 1.3.4.5-.1 1.2-.4 2.2-.9s1.7-.8 2.4-1c.7-.2 1.3-.2 1.9 0 .5.1 1 .5 1.5.9.8.8 1.1 1.6.9 2.7-.1 1-.7 2-1.7 3-.7.7-1.4 1.1-2.2 1.4-.8.3-1.6.4-2.3.3-.7-.1-1.4-.5-1.9-1l1.6-1.6c.5.5 1.1.7 1.7.7.6-.1 1.2-.4 1.9-1 .5-.5.8-1.1.9-1.6.3-.5.1-.9-.3-1.3zM17776.9-11324.8c.1 1-.3 1.9-1.1 2.7-.7.7-1.5 1.1-2.3 1-.8-.1-1.6-.5-2.4-1.3l-4.4-4.4 1.5-1.5 4.3 4.3c.9.9 1.6.9 2.3.2.7-.7 1-1.5.7-2.3l-4.8-4.8 1.5-1.5 6.7 6.7-1.4 1.4-.6-.5zM17784.4-11337.6c1 1 1.6 2.1 1.8 3.2.1 1.1-.2 2-1 2.8-.7.7-1.6 1.1-2.5 1l3.2 3.2-1.5 1.5-9.3-9.3 1.4-1.4.7.6c-.1-1 .2-1.9 1-2.6.8-.8 1.8-1.2 2.8-1 1.1.2 2.2.8 3.4 2zm-1.6 1.4c-.7-.7-1.3-1.1-2-1.2-.7-.1-1.2.1-1.7.6-.6.6-.8 1.3-.6 2.1l3 3c.8.2 1.5.1 2.1-.6.5-.5.7-1 .5-1.7-.1-.7-.5-1.4-1.3-2.2zM17792.8-11346c1 1 1.6 2.1 1.8 3.2.1 1.1-.2 2-1 2.8-.7.7-1.6 1.1-2.5 1l3.2 3.2-1.5 1.5-9.3-9.3 1.4-1.4.7.6c-.1-1 .2-1.9 1-2.6.8-.8 1.8-1.2 2.8-1 1.2.2 2.3.8 3.4 2zm-1.6 1.4c-.7-.7-1.3-1.1-2-1.2-.7-.1-1.2.1-1.7.6-.6.6-.8 1.3-.6 2.1l3 3c.8.2 1.5.1 2.1-.6.5-.5.7-1 .5-1.7-.1-.7-.5-1.5-1.3-2.2zM17795-11348.4c-.7-.7-1.1-1.4-1.4-2.2-.3-.8-.3-1.6-.1-2.3.2-.8.6-1.4 1.2-2.1.9-.9 1.9-1.4 3.1-1.3s2.2.5 3.2 1.4l.4.3c.7.7 1.1 1.4 1.4 2.2.3.8.3 1.5.1 2.3s-.6 1.5-1.2 2.1c-.9.9-2 1.4-3.2 1.3s-2.4-.6-3.5-1.7zm1.6-1.4c.7.7 1.4 1.1 2.1 1.2.7.1 1.3-.1 1.8-.6s.7-1.1.6-1.8c-.1-.7-.6-1.4-1.3-2.2-.7-.7-1.4-1.1-2.1-1.2-.7-.1-1.3.1-1.8.6s-.7 1.1-.6 1.8c.1.7.5 1.4 1.3 2.2zM17805.4-11362.7c-.2.2-.5.4-.7.6-.7.7-.9 1.4-.6 2.2l4.6 4.6-1.5 1.5-6.7-6.7 1.4-1.4.8.7c-.2-.9 0-1.7.6-2.4.2-.2.4-.4.6-.4l1.5 1.3zM17806.8-11370.1l1.6 1.6 1.2-1.2 1.1 1.1-1.2 1.2 3.8 3.8c.3.3.5.4.7.4.2 0 .5-.1.7-.4.2-.2.3-.4.5-.6l1.2 1.2c-.2.4-.5.8-.9 1.1-1.2 1.2-2.4 1.1-3.7-.2l-3.8-3.8-1.1 1.1-1.1-1.1 1.1-1.1-1.6-1.6 1.5-1.5z" transform="translate(-17757.289 11584.268)"/></g></svg>