<svg xmlns="http://www.w3.org/2000/svg" width="168.164" height="567.388"><path fill="#fff" d="m119.883 497.871-2.186 23.917v16.273l2.335 19.143 5.762 7.163 3.864 1.252h12.577s12.855-1.073 13.411-1.252a42.427 42.427 0 0 0 3.77-2.518l.72-8.985.551-4.471-6.6-5.961-5.012-18.379-5.027-9.567-3.328-8.866-2.891-1.937-1.987-7.55Z" data-name="パス 812"/><path fill="#fff" d="m48.713 509.142-11.847 9-21.255 19.918-10.9 6.388-3.293 7.207 3.621 6.77 9.318.988 23 1.719 9.194-1.957 5.052-4.182h13.433l5.9-.6 1.376-4.56.258-8.1.949-19.57 3.919-1.888 1.977-3.889-9.085 3.572-.984-5.523.9-7.754Z" data-name="パス 813"/><path fill="#fff" d="m69.714 87.836-1.6-6.318-7.257.308a5.1 5.1 0 0 1-4.634-2.553l-3.164-5.5-4.7-15.935-7.337-11.424-3.098-11.375 2.141-12.418 2.782-6.954 5.538-7.451 9.9-5.792h19.689l8.156 3.095a14.142 14.142 0 0 0 5.151.919h2.343l9.323 3.81 6.338 8.568 4.207 15.14-5.668 20.242-5.752 6.81a12.3 12.3 0 0 0-3.512 8.444l-1.267 11.534 2.484 13.56-20.425 10-13.028-5.691Z" data-name="パス 814"/><path d="M2.866 550.17c-.79 1.7.06 3.239.531 4.763.209.685.9 1.212 1.247 1.873.258.5.591 1.247.392 1.619-.417.79-1.2.551-1.868.124a6.338 6.338 0 0 1-3.169-5.136 15.949 15.949 0 0 1 .551-3.929 1.49 1.49 0 0 1 .78-.994c1.252-.338 1.421-1.431 1.927-2.34a4.638 4.638 0 0 1 1.45-1.684c.368-.229 1.068.07 1.619.134a14.155 14.155 0 0 1-.363 1.406 13.429 13.429 0 0 0-.993 2.792c-.157 1.859-.226 1.998-2.104 1.372Z" data-name="パス 815"/><path d="M154.097 542.432c-.536-1.232-1.152-2.434-1.6-3.7q-2.543-7.257-4.967-14.549a37.355 37.355 0 0 0-.9-3.671 16.3 16.3 0 0 0-2.186-2.98c-1.073 1.058-1.987.849-2.821-.368-.219-.3-.919-.268-1.624-.452.3 1.525.536 2.732.795 4.023h1.714a3.149 3.149 0 0 1 3.065 3.4c-.03.318-.417.835-.656.844a2.925 2.925 0 0 1-1.421-.432 14.884 14.884 0 0 1-1.585-1.167c-.636 2.384-.119 3.05 2.071 3.089 1.614.035 2.841.909 2.98 2.3a1.858 1.858 0 0 1-.586 1.456c-.258.184-.954-.169-1.421-.363a7.454 7.454 0 0 0-1.8-.666c.03 1.1-.089 2.051 1.406 2.146a3.333 3.333 0 0 1 2.081 1.227 1.839 1.839 0 0 1-.07 1.818c-.422.323-1.282.08-2.146.08l-1.147 1.306c1.57.388 3.154.74 4.714 1.177a10.649 10.649 0 0 1 1.987.839 1.36 1.36 0 0 1 .725 1.917c-.392.795-1.167.84-1.987.5a23.066 23.066 0 0 0-9.194-1.768c-.566 0-1.133.094-1.828.159.263.636.457 1.113.686 1.669.869-.035 2.017-.387 2.19.949.05.353-.715 1.187-.993 1.133a3.418 3.418 0 0 1-1.7-1.182c-.72-.229-1.644 1.3-2.255-.06-.268-.586.432-1.609.72-2.513a5.7 5.7 0 0 1-1.6-.035 7.059 7.059 0 0 1-1.609-.889c.4-.437.8-.884 1.212-1.316a1.552 1.552 0 0 1 .348-.224c.065-1.1-.432-1.49-1.49-1.232a3.308 3.308 0 0 1-1.192.149c-.3-.05-.785-.358-.785-.546a1.8 1.8 0 0 1 .437-1.267 8.809 8.809 0 0 1 1.868-.884c-.154-.546-.3-1.053-.432-1.56-.2-.75-.4-1.321-1.465-1.058-.407.1-.993-.5-1.49-.775.323-.467.551-1.212.993-1.346 1.222-.4.859-1.217.705-1.987-.194-.944-.844-.6-1.49-.5a5 5 0 0 1-1.52-.288c.159-.526.194-1.411.5-1.52 2.186-.77 1.445-2.22.993-3.636-.124-.378-.258-.75-.387-1.113-2.181.427-5.658 5.419-5.886 8.524.745-.874 1.381-1.644 2.051-2.379.442-.5 1.043-.964 1.565-.268a1.724 1.724 0 0 1-.045 1.49 52.106 52.106 0 0 1-2.712 4.639 3.4 3.4 0 0 0-.293 3.263c.909-1.142 1.773-2.161 2.548-3.239.432-.6.969-.993 1.535-.5a1.629 1.629 0 0 1 .2 1.49 26.96 26.96 0 0 1-2.4 4.048 6.437 6.437 0 0 0-1.262 5.891c.715-1.1 1.421-2.27 2.22-3.373a2.086 2.086 0 0 1 1.162-.82 1.53 1.53 0 0 1 1.247.407c.169.2-.055.815-.224 1.187s-.5.5-.671.8c-1.624 2.836-1.52 3.686 1.1 5.533 1.227.864 2.732 1.326 4.038 2.091a6.576 6.576 0 0 1 1.326 1.455c-.581.333-1.177.993-1.734.944a8.092 8.092 0 0 1-6.333-3.532 1.242 1.242 0 0 1-.278-.75c.134-1.138-.561-1.594-1.525-1.942 0 1.729-.025 3.432 0 5.136.025 1.3.184 2.6.144 3.9a1.426 1.426 0 0 1-.755 1.093c-.541.134-1.455.129-1.709-.2a5.151 5.151 0 0 1-1.068-2.513c-.2-2.185-.169-4.391-.248-6.586-.144-4.1-.308-8.2-.5-12.7a4.966 4.966 0 0 0-.522.993c-.328 2.027-.75 4.048-.894 6.085a20.241 20.241 0 0 0 .4 3.974c.293 2.121.626 4.237.944 6.353.124.815-.1 1.634-.954 1.614a2.017 2.017 0 0 1-1.525-1.157c-.338-1.386-.323-2.851-.527-4.277a20.939 20.939 0 0 0-.869-4.595c-.676-1.734-.318-3.343-.129-5.027a6.761 6.761 0 0 0-.035-2.628 25.476 25.476 0 0 1 .154-14.767 23.235 23.235 0 0 1 1.108-3.477 3.382 3.382 0 0 1 1.53-1.167 14.275 14.275 0 0 1 2.449-.889 11.652 11.652 0 0 1 1.843-.2c.134-1.177.353-2.583.452-3.974a2.717 2.717 0 0 1 2.051-2.533 38.247 38.247 0 0 1 4.505-1.242c.4-.084.914.363 1.371.566-.3.442-.5 1.058-.914 1.306-2.066 1.207-2.181 1.416-1.808 3.974.214 1.49.353 2.98.566 4.8a13.616 13.616 0 0 0 1.788 0 19.566 19.566 0 0 0 3.179-.571 2.355 2.355 0 0 0 1.277-1.038c.5-.894 1.118-1.227 1.729-.5.78.959 1.6.735 2.543.556-.417-1.912-.735-3.765-1.272-5.543-.154-.5-.993-.785-1.49-1.172l-.368.288a27.457 27.457 0 0 1 .323 3.179 5.367 5.367 0 0 1-.576 1.649c-.546-.373-1.426-.646-1.575-1.138a25.013 25.013 0 0 1-.472-3.542 2.529 2.529 0 0 0-.527-1.2 14.351 14.351 0 0 0-1.49-1.321l2.146-1.59c-.094-.546-.268-1.584-.5-2.806a37.906 37.906 0 0 1-14.643 1.644v1.689c0 1.748 0 3.5-.119 5.245-.035.412-.68.78-1.043 1.167-.363-.407-.993-.8-1.038-1.232a50.035 50.035 0 0 1-.094-5.658c.065-1.649-.149-1.987-1.833-2.022a3.184 3.184 0 0 1-2.484-.944c-.9-.934-2.151-.5-3.3-.129a2.757 2.757 0 0 1-3.442-2.583c.1-3.288.392-6.572.437-9.86q.089-6.115-.119-12.234c-.114-3.164-.442-6.318-.7-9.472-.07-.844-.229-1.679-.348-2.558a3.783 3.783 0 0 1-2.955-3.9c-.1-3.581-.084-7.163-.1-10.749 0-1.2.094-2.4.035-3.606a1.763 1.763 0 0 0-.611-1.122c-.775-.651-1.689-1.138-2.444-1.808-1.4-1.242-1.6-3.02-1.793-4.724-.3-2.717.7-5.25 1.282-7.838a2.717 2.717 0 0 0-.134-1.3c-.526-1.7-1.128-3.388-1.634-5.1-.546-1.878-1.018-3.775-1.525-5.663-.035-.129-.03-.323-.114-.383-1.629-1.128-.924-2.836-1.093-4.326l-.849-7.565c-.467-4.143-1.038-8.28-1.386-12.418-.442-5.35-.765-10.709-1.028-16.074-.139-2.836-.06-5.687-.05-8.529 0-5.072.219-10.148.035-15.209-.1-2.806-1.033-5.573-1.232-8.38-.258-3.661-2.161-6.82-2.742-10.352-.3-1.808-.422-3.646-.591-5.464-.328-3.616-.387-7.277-1.043-10.828-.333-1.8-1.679-3.437-2.643-5.106-.755-1.316-1.729-2.513-2.414-3.864-.606-1.2-1.351-1.813-2.727-1.54a6.4 6.4 0 0 1-1.242 0c-.164 2.946-.3 5.807-.5 8.663-.288 4.232-.671 8.444-.924 12.691-.154 2.523-.179 5.052-.2 7.58-.04 5.325.089 10.65-.074 15.964-.174 5.752-.646 11.494-.894 17.246a66.3 66.3 0 0 0 .129 6.731c.134 2.558.268 5.131.626 7.664.318 2.275-.626 4.307-.859 6.457-.283 2.628-.6 5.25-.889 7.873-.363 3.318-.75 6.636-1.063 9.959-.2 2.141-.2 4.3-.437 6.433-.159 1.49-.586 2.98-.825 4.5a2.9 2.9 0 0 0 .225 1.307 46.954 46.954 0 0 1 2.533 14.931 32.021 32.021 0 0 0 .725 4.083q.641 4.858 1.177 9.726c.387 3.576.71 7.153 1.053 10.729.089.939.079 1.9.253 2.816a3.685 3.685 0 0 0 .745 1.8 5.032 5.032 0 0 1 1.49 3.929 80.558 80.558 0 0 0 .06 10.674 81.579 81.579 0 0 1 .179 8.31c-.025 4.7-.273 9.4-.427 14.107 0 .4-.03.8-.04 1.212-.094 3.557-.631 3.557-3.139 4.227s-4.937 1.272-7.451 1.739c-1.838.338-3.74.328-5.588.626-1.565.248-3.095.74-4.644 1.088-.7.154-1.406.219-2.33.353 3.144 1.634 2.881 4.565 3.144 7.267a12.161 12.161 0 0 1 0 2.687c-.129.993-.363 2.081-1.987 2.146a10.3 10.3 0 0 0 5.247 2.733c1.227.263 2.484.427 3.72.626.73.114 1.118-.184 1.426-.894.83-1.917 1.768-3.78 2.7-5.737a4.479 4.479 0 0 0-.536-.164 2.453 2.453 0 0 1-2.325-2.533c-.1-1.788 0-3.586 0-5.5l2.186-.109c.81 2.161-.159 4.505.745 6.323 2.037-1.222 3.859-2.4 5.767-3.427 1.128-.6 2.4-.934 3.477.233a3.447 3.447 0 0 1 .368 4.048 9.185 9.185 0 0 1-5.782 3.845c-.353.085-1.182-.383-1.217-.666a2.195 2.195 0 0 1 .442-1.758c1.128-.869 2.454-1.49 3.656-2.255a2.2 2.2 0 0 0 .825-1.281 9.556 9.556 0 0 0-6.457 4.535c1.724 1.49.924 3.442.914 5.315 0 2.742.164 5.464.1 8.231-.06 2.548-.348 5.086-.5 7.63a1.4 1.4 0 0 1-1.709 1.416c-.934-.1-1.316-.844-1.227-1.793q.422-4.56.834-9.115a5.928 5.928 0 0 0-.124-1.023l-2.933 1.17c.686.75 1.49 1.237 1.619 1.863.214.949-.536 1.49-1.49 1.689-1.217.253-2.419.591-3.974.993-.849 1.654-1.937 3.755-3.139 6.095a11.976 11.976 0 0 0 1.758-.382c1.49-.571 2.876-1.3 4.371-1.768a5.563 5.563 0 0 1 2.081.194c-.223.72-.238 1.659-.715 2.111a16.853 16.853 0 0 1-2.911 1.833l.05.437a47.4 47.4 0 0 0 5.047-.467c.934-.184 1.4-.174 1.739.79a8.945 8.945 0 0 1-.854 7.784 1.525 1.525 0 0 1-.914.7c-2.593.467-5.186.993-7.808 1.247-2.484.223-5.022.074-7.53.169a4.9 4.9 0 0 0-1.649.586c-.323.134-.586.432-.914.531-1.843.556-3.686 1.138-5.563 1.555-.5.1-1.078-.348-1.624-.541.273-.447.442-1.083.839-1.3 1.242-.7 2.573-1.237 3.86-1.828a.84.84 0 0 0 0-.293c-.343-.556-.7-1.108-1.043-1.659a5.818 5.818 0 0 1 1.942-.338c4.813.864 9.552.164 14.3-.5a91.654 91.654 0 0 0 3.075-.472 5.839 5.839 0 0 0 .924-.323v-.387a10.932 10.932 0 0 0-1.128-.149q-6.656-.278-13.307-.5c-.73 0-1.237-.387-.993-1.048a1.709 1.709 0 0 1 1.326-.75c2.856-.07 5.722-.035 8.583-.035v-.527h-2.672c-.889 0-1.7 0-2.548-.04-.174 0-.417 0-.5-.119-1.937-2.255-4.023-.74-5.961-.124s-3.7 1.614-5.568 2.364c-.993.4-1.947 1.232-3.169.611-.134-.07-.417.06-.581.169a21.473 21.473 0 0 1-9.741 3.124c-3.2.382-6.457.3-9.641.785-4.182.646-8.022-.5-11.881-1.694a33.345 33.345 0 0 1-4.316-1.734 1.291 1.291 0 0 1-.591-1.947c.5-.681 1.172-.288 1.892.07a14.772 14.772 0 0 0 3.447 1.028 46.886 46.886 0 0 0 7.759 1.46 64.257 64.257 0 0 0 8.414-.69c2.454-.219 4.922-.343 7.366-.666 1.614-.214 3.179-.76 4.788-1.038a15.748 15.748 0 0 1 2.563 0v.348l6.676-4.078c-2.275-1.8-4.689-3.7-7.073-5.628a9.679 9.679 0 0 1-1.8-1.778 1.719 1.719 0 0 1 0-1.291 2.576 2.576 0 0 1 1.714-.03 28.833 28.833 0 0 1 3.045 2.285c-1.192-3.273.581-5.34 2.106-7.505.457-.646.75-1.411 1.207-2.051a6.189 6.189 0 0 1 1.118-.964 7.944 7.944 0 0 1 .8 1.366 18.223 18.223 0 0 0 .825 2.861 2.457 2.457 0 0 0 3.278 1.083c2.394-.909 4.764-1.892 7.138-2.846 1.078-.432 2.106-1.073 3.3-.2.2.144.825-.164 1.167-.392 1.406-.934 2.806-1.818 4.773-.894v-3.3c-1.49 2.563-3.477 2.712-5.717 1.987a11.5 11.5 0 0 0-1.987-.333 10.232 10.232 0 0 1-6.308-3.338c-1.346-1.431-1.247-1.907.238-2.484v-5.407c0-.944.084-1.888.05-2.831a.914.914 0 0 0-.5-.676c-.169-.06-.566.189-.685.4a84.523 84.523 0 0 0-1.823 3.442c-.919 1.813-1.49 1.987-3.03.795-1.381 1.341-2.826 1.416-4.515.283-1.088-.725-2.2-1.411-3.313-2.1a1.18 1.18 0 0 0-.407-.089 6.554 6.554 0 0 1-1.252 1.376 1.777 1.777 0 0 1-1.53.2c-.338-.224-.432-.993-.348-1.49a4.166 4.166 0 0 1 .83-1.356c.681-1.053 1.331-2.121 2.051-3.144 1.311-1.863 1.753-2.1 4.992-2.856l-1.893-.909.05.372a20.032 20.032 0 0 1-4.4 1.028c-.556 0-1.386-1.192-1.684-1.987-.839-2.24-.363-4.565-.089-6.855.114-.993.581-1.987.407-2.881a6.172 6.172 0 0 0-1.49-3.239c-2.782-2.484-2.27-5.31-1.108-8.111 1.033-2.484 2.543-4.768 3.705-7.2a5.742 5.742 0 0 0 .378-2.548c-.05-1.818-.194-3.636-.363-5.464-.343-3.6-.74-7.188-1.093-10.789q-.765-7.719-1.49-15.448a62.968 62.968 0 0 0-.576-6.8c-.69-3.363-.839-6.894-2.633-9.974a2.2 2.2 0 0 1-.129-.785 2637.992 2637.992 0 0 0-3.025-18.875c-.094-.566-.76-1.028-.884-1.6a43.512 43.512 0 0 1-.964-5.578c-.392-4.545-.546-9.115-.993-13.66-.338-3.552-.869-7.093-1.465-10.615-.651-3.825-1.53-7.6-2.2-11.425-.348-1.987-.5-3.974-.666-5.99q-.373-4.858-.611-9.726c-.144-2.806-.174-5.613-.313-8.414-.194-3.845-.447-7.689-.656-11.534a6.493 6.493 0 0 1 .079-1.614c.417-2.056-.606-3.815-1.068-5.7-.71-2.906-1.515-5.846-1.058-8.866.224-1.465.5-3.2 1.445-4.217 2.056-2.275 2.225-4.659 1.634-7.426-.368-1.734-.417-3.537-.611-5.31-.03-.258-.1-.5-.144-.765-2.345.283-2.692.03-3.82-2.146-1.585-3.045-3.278-6.04-4.878-9.08a9.934 9.934 0 0 1-.541-8.092c1.346-4.028 2.484-8.146 4.113-12.055.924-2.215.323-4.162-.05-6.164-.586-3.154-1.52-6.249-2.265-9.373-.6-2.513-1.128-5.042-1.694-7.565-.616-2.727-1.291-5.464-1.833-8.186-.5-2.444-.705-4.967-1.242-7.371-1.053-4.759-2.28-9.472-3.363-14.226-.71-3.09-1.376-6.2-1.912-9.323-.288-1.709-.238-3.477-.412-5.2a1.316 1.316 0 0 0-.616-.919 2.409 2.409 0 0 1-1.436-2.955q1.068-4.47 2.384-8.871c1.033-3.408 2.24-6.765 3.293-10.168 1.282-4.138 2.548-8.285 3.691-12.463.765-2.8 1.142-5.712 1.987-8.484 1.277-4.177 2.826-8.27 4.227-12.418 1.018-3.01 1.987-6.035 2.98-9.055 1.018-3.154 2.1-6.284 2.98-9.472.73-2.613 1.142-5.315 1.868-7.947a19.307 19.307 0 0 1 1.7-3.825c.368-.7 1.043-1.227 1.455-1.9a9.5 9.5 0 0 1 5.822-4.128c2.732-.844 5.211-2.484 7.808-3.79 3.065-1.525 6.214-2.891 9.179-4.59 4.232-2.414 8.325-5.066 12.478-7.62.075-.05.124-.159.2-.179 2.618-.755 2.772-2.712 2.538-4.967-.094-.864-.328-1.093-1.217-1.113-2.28-.05-4.555-.263-6.835-.412-.909-.06-1.406-.69-1.172-1.435a2.035 2.035 0 0 1 1.49-.949c4.629-.531 9.269-.993 13.908-1.421a5.3 5.3 0 0 1 1.49.318c-.159.651-.119 1.644-.5 1.873a11.1 11.1 0 0 1-3.686 1.421c-1.217.2-1.356.715-1.292 1.758.194 3.169.323 6.343.427 9.512a4.124 4.124 0 0 1-1.118 3.477c-.681.631-.283 2.191.412 2.9 1.788 1.813 3.974 2.022 6.254 1.49a64.136 64.136 0 0 0 7.982-2.166 35.578 35.578 0 0 0 7.947-3.8c3.313-2.325 4.669-5.722 4.058-9.934a89.026 89.026 0 0 1-.5-9.294c-.124-3.224-.219-6.457-.313-9.676a12.029 12.029 0 0 1 .045-1.892c.074-.6.129-1.108 1.108-1.093s.914.556.969 1.073c.3 2.772.522 5.548.82 8.32.2 1.863.452 3.725.78 5.568.065.343.606.874.9.859 3.154-.139 5.682 1.286 8.042 3.124a20.614 20.614 0 0 0 8.146 3.914c4.247.993 8.444 2.2 12.627 3.4a17.819 17.819 0 0 1 2.628 1.321c2.722 1.306 5.5 2.484 8.176 3.9 3.671 1.927 7.257 4.028 10.9 6.005a6.223 6.223 0 0 0 2.131.636 5.507 5.507 0 0 1 4.639 3.73c.646 1.609.993 3.338 1.49 5.007.576 1.987 1.3 3.9 1.729 5.9a14.969 14.969 0 0 1 .358 6.84c-.3 1.277.144 2.732.3 4.1.293 2.558.616 5.116.934 7.674.407 3.278.839 6.557 1.232 9.835.412 3.412.8 6.825 1.182 10.237.412 3.686.78 7.381 1.217 11.062.576 4.813 1.282 9.611 1.788 14.4a66.707 66.707 0 0 1 .576 9.835 21.136 21.136 0 0 1-1.709 6.3c-1.768 4.639-3.681 9.224-5.563 13.824-1.167 2.841-2.484 5.633-3.566 8.5-1.212 3.144-2.26 6.353-3.373 9.537-.735 2.1-1.555 4.163-2.171 6.293-1.053 3.641-1.987 7.317-2.95 10.987-.417 1.585-.75 3.2-1.2 4.773a2.171 2.171 0 0 1-.859 1.3c-1.465.7-1.49 2.076-1.833 3.348-.68 2.633-1.406 5.255-2.066 7.893a48.569 48.569 0 0 0-.844 4.053c-.343 2.061-.939 2.752-3.636 2.787 1.1 3.755 2.25 7.451 3.244 11.161a27.014 27.014 0 0 1 .387 10.218c-.472 3.929-1.49 7.793-2.017 11.717-.75 5.628-1.207 11.3-1.912 16.928-.417 3.328-1.147 6.611-1.589 9.934-.353 2.648-.536 5.325-.676 8a2.9 2.9 0 0 0 .725 1.848c1.987 2.22 1.823 4.967 1.694 7.545-.263 5.126-.909 10.232-1.207 15.354a58.9 58.9 0 0 0 .467 5.871c.094 2.136.085 4.282.05 6.428-.03 1.987-.2 3.974-.228 6-.055 3.323-.144 6.656-.025 9.974.109 3.025.5 6.035.73 9.055.084.993.035 2.051.139 3.07a13.456 13.456 0 0 0 .631 4.043c2.1 4.674 1.624 8.727 1.927 14.435.1 1.987.467 3.974.626 6 .169 2.176.358 4.361.328 6.542-.045 3.109-.308 6.219-.417 9.333-.04 1.118.144 2.245.139 3.368q0 6.43-.1 12.86c-.035 2.131-.278 4.267-.263 6.4 0 2.235.263 4.47.318 6.706.04 1.758-.164 3.527-.07 5.28.124 2.28.5 4.55.656 6.835.233 2.98.407 5.961.571 8.941.045.8-.03 1.619-.065 2.429-.07 1.888-.5 2.424-2.26 3.035a7.562 7.562 0 0 1-1.028.3c-1.058.224-1.3.74-1.023 1.833.437 1.694.849 3.229 2.628 4.118a3.271 3.271 0 0 1 1.172 2.056 17.54 17.54 0 0 0 3.343 6.368 17.19 17.19 0 0 1 3.477 7.322 4.059 4.059 0 0 0 .343.869c.07.149.174.283.551.3a9.24 9.24 0 0 1-.606-1.823c-.065-.5 0-1.252.3-1.455a1.49 1.49 0 0 1 1.44.243 11.556 11.556 0 0 1 1.336 2.886c.258.835.6 1.187 1.49 1.068a20.958 20.958 0 0 1 2.563-.065 3.788 3.788 0 0 1 4.078 3.477 15.984 15.984 0 0 1 .293 2.811c0 .447-.5 1.237-.79 1.232a1.868 1.868 0 0 1-1.445-.785c-.457-.964-.571-2.086-.993-3.075a1.773 1.773 0 0 0-1.157-.993c-1.719-.109-3.452-.045-5.325-.045 1.048 3.154 2.061 6.164 3.045 9.184.72 2.225 1.391 4.47 2.1 6.691.084.263.2.616.412.73 2.349 1.272 3.368 3.571 4.321 5.822.3.7-.243 1.758-.432 2.846 1.868.949 1.267 3.144 1.391 4.967a43.07 43.07 0 0 1-.392 5.9 1.659 1.659 0 0 1-1.351 1.689c-1.286.417-2.379 1.525-3.676 1.833a58.963 58.963 0 0 1-9.91 1.793 88.713 88.713 0 0 1-11.425-.328 18.668 18.668 0 0 1-4.128-1.078 1.456 1.456 0 0 1-1.128-1.873c.323-.964 1.172-.616 1.952-.452a27.247 27.247 0 0 0 8.156.74c3.293-.328 6.626-.363 9.9-.815a80.762 80.762 0 0 0 8.494-1.878c.263-.065.447-.79.5-1.227.268-1.7.5-3.412.705-5.116l-.442-.179a13.271 13.271 0 0 0-.969 1.277 4.52 4.52 0 0 1-2.722 2.052 32.573 32.573 0 0 1-11.7 1.247c-1.023-.07-1.6-.671-1.49-1.525a1.987 1.987 0 0 1 1.346-1.257c1.987-.343 4.018-.368 6-.73 2.508-.457 5.156-.5 7.272-2.335a6.308 6.308 0 0 0 1.912-3.6c.189-.82-.184-1.52-1.272-1.7a10.078 10.078 0 0 1-3.02-.993 1.838 1.838 0 0 1-.745-1.49c.03-.333.785-.656 1.257-.884a6.813 6.813 0 0 1 1.49-.273l-2.215-2.568Zm-71.83-296.178a4.376 4.376 0 0 1 .228.854 1.311 1.311 0 0 0 1.52 1.3c.536-.094 1.023-.825 1.391-1.366a3.024 3.024 0 0 0 .278-1.311c.323-3.11.606-6.224.949-9.333.422-3.835.889-7.664 1.346-11.494.427-3.6.69-7.232 1.346-10.794 1.426-7.769 3.085-15.5 3.835-23.376.407-4.277.681-8.568.993-12.85.219-2.9.4-5.807.656-8.7q.71-7.883 1.49-15.751c.348-3.477.76-6.954 1.147-10.431.447-4 .924-8.007 1.336-12.016.427-4.227.839-8.444 1.167-12.7.318-4.118.5-8.241.765-12.358.228-3.71.5-7.421.666-11.131 0-.343-.382-.71-.586-1.063-.363.253-.914.432-1.043.775a8.1 8.1 0 0 0-.358 2.116c-.243 2.811-.432 5.628-.7 8.444-.353 3.711-.78 7.411-1.152 11.117-.348 3.477-.576 6.954-1.018 10.431-.661 5.161-1.53 10.292-2.186 15.453-.6 4.679-1.033 9.378-1.53 14.067-.566 5.325-1.177 10.64-1.664 15.969-.4 4.734-.566 9.5-1.063 14.221-.5 4.9-1.142 9.8-1.883 14.668-.676 4.431-1.654 8.812-2.345 13.238-.71 4.535-1.257 9.1-1.823 13.655-.338 2.7-.6 5.414-.859 8.121-.318 3.36-.591 6.702-.904 10.245Zm39.211 54.142a16.559 16.559 0 0 1 0-2.28c.417-2.6.839-5.206 1.356-7.789a47.243 47.243 0 0 1 1.49-6.1 2.245 2.245 0 0 0-.2-2.027 34.009 34.009 0 0 1-1.7-4.58 1.192 1.192 0 0 1 .636-.993 1.3 1.3 0 0 1 1.108.532c.551.919.909 1.947 1.436 2.886a2.177 2.177 0 0 0 2.821 1.162 14.61 14.61 0 0 1 3.869-.959 40.856 40.856 0 0 1 5.121.5c-.6-3.015-1.142-6-1.783-8.941-.452-2.116-.169-4.47-1.947-6.184-1.048-.993-1.833-2.578-3.065-3.065a8.972 8.972 0 0 1-3.09-2.19 3.764 3.764 0 0 0-1.187-.854q-3.075-1.237-6.209-2.364c-.785-.283-1.624-.427-2.518-.651-.253.889-.417 1.674-.69 2.424-1.108 3.055-2.265 6.095-3.353 9.155a1.093 1.093 0 0 0 .263.993 23.464 23.464 0 0 1 5.062 3.437 2.037 2.037 0 0 1 .914 2.076c-.72 6.239-1.431 12.483-1.987 18.736a8.314 8.314 0 0 0 .745 4.148c.507 1.068 1.724 1.8 2.916 2.955Zm-6.656-151.951a8.341 8.341 0 0 0-1.252 1.6c-1.356 2.767-2.677 5.548-3.909 8.37-2.176 5-4.222 10.049-6.428 15.026a61.83 61.83 0 0 0-4.714 13.521c-.368 1.927-.874 3.83-1.217 5.762-.07.392.238 1.177.5 1.227a1.591 1.591 0 0 0 1.391-.432 15.059 15.059 0 0 0 1.694-3.9 64.911 64.911 0 0 1 4.381-12.418c1.421-3.288 2.98-6.512 4.4-9.805 1.49-3.477 2.762-7 4.242-10.431.939-2.2 1.545-4.6 3.422-6.3 1.46-1.321 1.376-2.772.348-4.341a19.163 19.163 0 0 1-1.416-2.727q-1.028-2.32-1.952-4.669a38.21 38.21 0 0 1-1.724-4.764c-.467-1.878-.055-2.2 1.7-2.906a30.7 30.7 0 0 0 4.959-2.547 4.528 4.528 0 0 0 2.042-4.361 10.125 10.125 0 0 0-2.2-5.245 59.559 59.559 0 0 1-3.78-5.538c-1.321-2.484-2.359-5.1-3.447-7.694-1.922-4.585-3.78-9.194-5.707-13.774-.134-.318-.69-.74-.909-.671a1.306 1.306 0 0 0-.745.934 4.261 4.261 0 0 0 .328 1.7c1.788 4.863 3.715 9.681 5.375 14.589 1.56 4.634 4.153 8.663 6.865 12.641 2.041 2.98 1.49 4.942-1.917 6.219-1.614.611-3.253 1.177-4.848 1.843a1.669 1.669 0 0 0-.949.993 10.926 10.926 0 0 0 .333 5.961c.556 1.366 1.267 2.667 1.833 4.028 1.088 2.6 2.136 5.25 3.3 8.121Zm-51.624-45.758-.72-.1a4.715 4.715 0 0 0-.586 1.535c-.129 4.515-.1 9.04-.308 13.55-.343 7.451-.864 14.867-1.247 22.3-.253 5.052-.412 10.113-.581 15.17-.114 3.477-.293 6.954-.229 10.461.134 7.63.4 15.259.636 22.889.06 1.853.119 3.715.338 5.553.536 4.53 1.147 9.055 1.773 13.58.288 2.086.641 4.167 1.023 6.244.159.869.705 1.614 1.654 1.351a1.957 1.957 0 0 0 1.093-1.371 11.36 11.36 0 0 0-.114-2.926c-.586-4.709-1.3-9.408-1.783-14.132-.447-4.336-.72-8.693-.993-13.044-.209-3.552-.3-7.113-.387-10.674-.065-2.588-.045-5.176-.065-7.769 0-3.477-.119-6.954-.065-10.431.079-5 .283-10 .407-15.006q.2-8.136.358-16.272c.109-5.707.229-11.425.263-17.127a26.821 26.821 0 0 0-.468-3.781Zm-13.545 40.805c-1.768 2.931-3.477 5.807-5.225 8.658a47.172 47.172 0 0 0-5.34 11.107 3.586 3.586 0 0 0 .328 2.777 21.522 21.522 0 0 1 3.671 8.727c1.227 6 2.071 12.07 3.244 18.076a92.1 92.1 0 0 0 2.4 8.941c.229.755.611 2.056 1.748 1.52.472-.224.705-1.6.571-2.364-.591-3.368-1.431-6.691-2.042-10.059-.869-4.793-1.6-9.611-2.414-14.4a28.014 28.014 0 0 0-4.232-11.494 1.634 1.634 0 0 1-.229-1.336c1.455-3.159 2.866-6.348 4.525-9.408s3.537-5.831 5.285-8.762a3.431 3.431 0 0 0-.536-4.615c-1.813-1.376-3.542-2.891-5.464-4.1a2.7 2.7 0 0 1-1.182-3.477c.795-2.692 1.644-5.374 2.657-7.987 1.048-2.7 2.27-5.335 3.477-7.947 1.878-4.018 3.686-8.087 6.631-11.5a.879.879 0 0 0 .174-.79c-.164-.248-.6-.546-.82-.5a2.717 2.717 0 0 0-1.49.82c-1.987 3.124-3.974 6.254-5.777 9.482a67.219 67.219 0 0 0-3.621 7.451 168.29 168.29 0 0 0-4.172 11.355 4.207 4.207 0 0 0 1.57 4.913c2.109 1.59 4.126 3.224 6.262 4.913Zm-26.6 148.931h.328a15.759 15.759 0 0 0 .1-1.808 13.853 13.853 0 0 1-.283-2.553c.5-3.576 1.053-7.143 1.709-10.694a5.19 5.19 0 0 1 1.212-2.613c1.863-1.922 3.9-3.671 5.871-5.464.834-.765 1.694-1.49 2.484-2.3s1.018-2.315.4-2.657a12.749 12.749 0 0 0-3.914-1.833 17.15 17.15 0 0 0-4.57.392 7.341 7.341 0 0 0-6.139 5.027 36.763 36.763 0 0 0-2.9 12.343 5.961 5.961 0 0 0 .581 2.429c.656 1.465 1.44 2.871 2.191 4.292.972 1.799 1.956 3.617 2.929 5.44Zm103.4 12.915c.676-1.947 1.381-3.606 1.818-5.33.78-3.05 1.376-6.154 2.106-9.219.263-1.083.705-2.121 1.063-3.169 1.49.358 1.49 1.123 1.336 2.066-.5 3.179-.939 6.373-1.49 9.547-.313 1.873-.288 3.845-1.59 5.464a4.079 4.079 0 0 0-.715 1.729 10.327 10.327 0 0 0-.03 1.922l.462.03a5.115 5.115 0 0 0 .859-.993c1.316-2.782 3.239-5.211 3.8-8.444a76.167 76.167 0 0 1 3.1-11c.546-1.649-.83-3.974-2.419-4.207a11.107 11.107 0 0 0-5.777.179 2.981 2.981 0 0 1-1.316.184c-.919-.094-1.316.333-1.426 1.177-.551 4.351-1.078 8.712-1.689 13.059a4.1 4.1 0 0 1-.9 2.28c-.363.353-1.346.065-2.186.065 1.768 1.386 2.459 3.775 4.992 4.664Zm5.2-152.373.333.035a23.066 23.066 0 0 0 .05 3.368c.084.536.626 1.326 1.073 1.411.83.154 1.128-.651 1.237-1.4a5.527 5.527 0 0 0 .035-.81c0-1.53-.089-3.06 0-4.58.169-3.363.253-6.74.685-10.068.527-4.078 1.391-8.111 2.066-12.175.055-.338-.233-.73-.363-1.1a5.161 5.161 0 0 0-1.118.616 1.733 1.733 0 0 0-.313.869c-.72 3.407-1.594 6.79-2.111 10.227-.681 4.515-1.068 9.065-1.575 13.6Zm7.481-30.906c.1.109.427.735.666.705a1.629 1.629 0 0 0 1.172-.81c.467-1.306.685-2.7 1.133-4.009a42.425 42.425 0 0 1 7.063-12.3c.283-.363.094-1.088.124-1.649-.536.144-1.267.114-1.58.457a34.431 34.431 0 0 0-6.09 8.782 23.366 23.366 0 0 0-2.489 8.827Zm-14.9 391.91c-.308.467-.6.9-.884 1.346-.467.715-1.242 1.4-1.326 2.156a29.916 29.916 0 0 0 .079 4.664c0 .184.169.363.318.666 2.782-1.917 3.76-5.464 6.884-6.875.2-.089.248-.541.368-.83-2.856-1.594-1.44-4.426-2.066-7.088-.373.616-.7.9-.7 1.187 0 1.694.06 3.393.094 5.086a2.484 2.484 0 0 1-.04 1.053c-.169.353-.5.795-.839.854a1.366 1.366 0 0 1-1.113-.472 8.654 8.654 0 0 1-.795-1.748Zm-76 20.271-.457.069a21.7 21.7 0 0 0-.81 2.613c-.263 1.435.273 2.116 1.679 2.32a15.112 15.112 0 0 0 6.78-.308 23.362 23.362 0 0 1 3.229-.879c1.9-.313 2.638-1.068 2.7-3.234-.661.278-1.252.561-1.863.775a29.846 29.846 0 0 1-5.434 1.818 5.1 5.1 0 0 1-5.841-3.174Zm1.763 11.559 7.7-1.868c.179-.869.387-1.863.646-3.124-3.268 1.748-6.567 1.589-9.964 1.3.308 1.48 2.732 1.793 1.6 3.691Zm1.629-32.739c-1.729-.5-3.293-.993-4.863-1.435a.825.825 0 0 0-.69.214 11.064 11.064 0 0 0-1.565 1.987 1.326 1.326 0 0 0 .258 1.262c1.123.8 2.34 1.455 3.512 2.161Zm80.712 4.967c.233.929.422 1.748.641 2.558a1.393 1.393 0 0 0 1.907 1.147c1.048-.263 2.076-.5 3.293-.755l-.685-3.715Zm2.28 6.318c-.214 2.295-.06 2.484 2.027 2.364.273 0 .541-.04.81-.05 1.823-.06 1.892-.1 1.351-1.818a1.43 1.43 0 0 0-1.043-.83 25.37 25.37 0 0 0-3.159.313Zm5.886 6.954c-.432-.775-.68-1.828-1.152-1.942a15.6 15.6 0 0 0-3.512-.084c-.035 2.662.368 2.846 4.649 2Zm1.734 4.51c-.606-1.724-1.763-1.922-3.149-1.649a3.637 3.637 0 0 0-.919.189 7.069 7.069 0 0 0-.939.711c.318.253.626.7.959.72 1.306.05 2.643 0 4.048 0Zm-22.352-15.5h-.5v7.764h.417c.035-.964.089-1.927.094-2.9-.015-1.644-.015-3.273-.015-4.9Zm-67.827-9.79.1-.551-3.432-.8-.164.765Z" data-name="パス 816"/><path d="m57.441 41.229 7.1-1.594a20.08 20.08 0 0 1-.139-2.26 3.377 3.377 0 0 1 .407-1.56c1.222-2.076 3.308-2.98 5.464-3.566a59.451 59.451 0 0 1 6.174-1.108 1.987 1.987 0 0 1 .929.075c2.826.993 6.174.159 8.509 2.806l.238-.358c-.233-.5-.5-.993-.7-1.49-1.361-3.313-2.593-6.691-4.1-9.934-2.027-4.391-4.545-8.509-9.13-10.674a9.906 9.906 0 0 0-8.852-.194c-.551.268-1.316.929-1.639-.045a1.992 1.992 0 0 1 .8-1.674 9.224 9.224 0 0 1 5.106-1.326c6.457-.079 10.386 3.715 13.809 8.484 3.08 4.292 4.252 9.4 6.194 14.181a29.625 29.625 0 0 0 1.868 4.277c.432.715 1.431 1.088 2.171 1.614l.318-.184a10.125 10.125 0 0 0-.159-1.351c-.348-1.4-.72-2.792-1.108-4.177-.228-.81-.268-1.659.661-1.868.323-.07 1.023.71 1.237 1.232.546 1.326.934 2.717 1.361 4.088.75 2.444 2.523 4.222 4.033 6.164.149.189.705.2 1.018.1a5.241 5.241 0 0 1 5.33 1.843c2.6 2.951 1.808 6.154.993 9.378-.676 2.717-1.873 5.1-4.525 6.512a6.363 6.363 0 0 1-5.027.656c-1.445-.427-3.124-2.384-3.05-3.864.025-.5.536-.993.825-1.49.4.328.993.581 1.172.993.939 1.987 2.613 2.484 4.545 1.311 1.828-1.123 2.543-2.98 3.119-4.878.293-.993.452-2.012.715-3.01a4.252 4.252 0 0 0-1.277-4.167 1.569 1.569 0 0 0-2.553.169c-.586.735-1.068 1.555-1.6 2.335-.442.646-.993 1.4-1.813.924-.5-.273-.671-1.048-1.2-1.942-3.477-.457-6.835-1.808-7.64-6.413.944-.864 1.669-.5 2.235.452 1.674 2.727 4.361 3.179 7.222 3.249.1 0 .2-.164.343-.283l-14.618-8.221-.993.72c2.27 6.209-1.619 11.256-4.629 12.343-5.628 2.042-10.491-.3-11.971-5.533a10.327 10.327 0 0 0-5.588.864 1.451 1.451 0 0 0-.993 1.793c1.068 5.151-4.47 9.552-8.519 9.353a5.787 5.787 0 0 1-5.355-3.974c-.2-.541-.392-1.093-.581-1.614-2.027-.045-2.136-.5-1.212-2.618a11.23 11.23 0 0 1 7.451-6.378 9.566 9.566 0 0 1 3.576-.358 5.806 5.806 0 0 1 2.24 1.147c.71.452 1.232.934 1.848 1.406Zm8.976-2.2a8.184 8.184 0 0 0 .541 2.742 16.341 16.341 0 0 0 3.027 3.655c.387.343 1.49-.1 2.25-.214s1.49-.228 2.26-.348c2.245-.353 4.694-2.484 4.848-4.719.1-1.55-.5-3.144-.685-4.729a2.046 2.046 0 0 0-1.987-1.838 11.942 11.942 0 0 0-7.734 1.55c-1.279.801-3.022 1.744-2.52 3.9ZM56.1 45.482a9.7 9.7 0 0 0-.387-2.076c-.442-1.147-.725-2.444-2.484-2.484a10.163 10.163 0 0 0-6.7 2.558c-.616.5-1.386 1.46-1.277 2.071a13.531 13.531 0 0 0 1.6 4.595c1.162 1.912 4.341 2.141 5.961.685a20.649 20.649 0 0 1 1.609-1.426 4.458 4.458 0 0 0 1.679-3.939Z" data-name="パス 817"/><path d="M30.007 537.41c2.414-.785 5.022-1.227 7.188-2.454 1.883-1.063 3.249-3.03 4.873-4.565q4.058-3.84 8.171-7.625c.214-.2.581-.229.854-.378.775-.437 1.689-.9 2.225.075s-.407 1.49-1.033 2.071q-5.216 4.731-10.431 9.487a23.418 23.418 0 0 1-3.119 2.98 26.653 26.653 0 0 1-4.167 1.719 30.294 30.294 0 0 1 1.763 2.484 2.041 2.041 0 0 1-.681 2.816c-2.141 1.157-4.2 2.181-6.894 1.987-4.083-.318-8.211.065-12.319.07a27.492 27.492 0 0 1-4.421-.392c-.462-.07-.844-.621-1.262-.959.4-.382.815-1.107 1.187-1.088 1.535.089 2.98-.993 4.58-.248.611.278 1.575.229 1.4-1.083-.134-1.053.7-1.252 1.52-1.222s1.157.561.894 1.391a3.2 3.2 0 0 0 .06.74c.919-.164 1.783-.328 2.657-.5a3.014 3.014 0 0 1 .993-.06c1.128.209 2.245.5 3.368.71l-.06-.363 1.565-1.346 1.093 1.356h2.449c.417 0 1.142 0 1.187-.164a2.607 2.607 0 0 0-.05-1.535 15.7 15.7 0 0 0-1.118-2.027c-2.25.457-4.47.969-6.711 1.336a5.49 5.49 0 0 1-2.25-.268 1.142 1.142 0 0 1-.646-.869 1.063 1.063 0 0 1 .676-.795c.874-.164 1.788-.119 2.672-.249a5.111 5.111 0 0 0 1.893-.676c-2.3-.219-4.619-.368-6.909-.676-2.027-.268-3.229.407-3.606 2.419-.2 1.068-.646 1.351-1.679 1.073a2.076 2.076 0 0 0-1.46.2c-1.932 1.143-3.81 2.379-5.717 3.567-.9.561-1.684.536-2.25-.5s.238-1.49.919-1.853c2.841-1.619 5.707-3.194 8.553-4.808.288-.169.671-.5.7-.75.149-1.615 1.346-2.484 2.394-3.408q6.9-6.065 13.908-12.02c1.232-1.048 2.578-1.957 3.894-2.9s1.7-.76 2.066.576c2.042.685 4 1.282 5.916 1.987.993.373 1.868.993 1.724 2.28-.094.9-.69 1.142-1.49.8-2.389-.993-4.828-1.848-7.212-2.846-1.123-.467-1.654.114-2.349 1.1 1.689.427 3.258.874 4.848 1.207a2.211 2.211 0 0 1 1.883 1.694c.243.964-.308 1.52-.993 2.136-3.785 3.3-7.515 6.671-11.261 10.019Zm1.2-4.833 4.376-3.974c-2.061-.626-3.715-1.137-5.375-1.619-.129-.04-.338.094-.5.194-.839.656-1.669 1.322-2.6 2.066 3.614 2.215 3.614 2.215 4.096 3.333Zm-1.257.994c-1.326-.552-2.583-.994-3.765-1.595a1.665 1.665 0 0 0-2.156.432c-.686.686-1.336 1.4-2.156 2.265a27.651 27.651 0 0 1 4.8.5c1.594.472 2.419-.149 3.273-1.594Zm2.364-8.752c2.951 1.311 5.593 1.58 6.457.676-1.709-.5-3.363-.994-5.047-1.4-.343-.074-.82.412-1.411.725Z" data-name="パス 818"/><path d="M95.547 5.862a11.979 11.979 0 0 1 7.635 3.318 24.178 24.178 0 0 1 5.176 5.519 43.2 43.2 0 0 1 4.361 8.509 40.8 40.8 0 0 1 1.987 10.888 25.343 25.343 0 0 1-1.426 8.827c-.581 1.833-1.336 3.611-2.017 5.414-.094.248-.144.586-.333.725-.556.417-1.167.755-1.763 1.123a5.478 5.478 0 0 1-.283-2.076c1.54-5.285 3.174-10.52 2.811-16.158a22.849 22.849 0 0 0-1.987-8.563 48.394 48.394 0 0 0-3.621-7.163 39.719 39.719 0 0 0-5.464-5.653 7.389 7.389 0 0 0-5.28-2.275c-.884 0-1.763.313-2.652.343a5.082 5.082 0 0 1-1.49-.387c.228-.437.363-1.113.71-1.257a37.82 37.82 0 0 1 3.636-1.134Z" data-name="パス 819"/><path d="M32.297 563.428c-8.524.546-15.691-1.8-22.849-4.153a2.86 2.86 0 0 1-1.207-.566 6.378 6.378 0 0 1-.8-1.421c.531-.239 1.093-.735 1.58-.671 1.237.169 2.429.646 3.656.9 4.3.894 8.583 2.121 12.915 2.484 3.84.333 7.769-.263 11.648-.536 1.634-.114 3.239-.551 4.873-.641.636-.035 1.306.5 1.962.73-.392.536-.676 1.381-1.192 1.56a45.546 45.546 0 0 1-5.668 1.545c-1.883.402-3.811.6-4.918.769Z" data-name="パス 820"/><path d="M85.898 8.882q-.909-.373-1.778-.834a398.393 398.393 0 0 1-5.36-3.3 13.163 13.163 0 0 0-6.1-1.808l-2.275-.174a25.8 25.8 0 0 0-14.484 2.826c-2.643 1.421-5.007 3.308-7.54 4.9-.387.248-1.038.065-1.57.084.164-.531.164-1.267.527-1.56 4-3.263 8.022-6.562 13.2-7.818A28.364 28.364 0 0 1 70.77.14a55.873 55.873 0 0 1 6.636.949c3.517.874 6.164 3.328 8.941 5.5.348.273.417 1.028.412 1.555-.022.241-.539.468-.861.738Z" data-name="パス 821"/><path d="M44.879 31.696a33.833 33.833 0 0 1 3.974-.591 5.948 5.948 0 0 1 1.878.685 6.229 6.229 0 0 1-1.376 1.416 11.325 11.325 0 0 1-2.886 1.063c-1.277.283-1.381 1.043-1.152 2.081a3.124 3.124 0 0 1 .194 1.3c-.094.407-.432.993-.75 1.043a1.3 1.3 0 0 1-1.1-.641 18.887 18.887 0 0 1-1.073-4.664 34.9 34.9 0 0 1 3.434-16.27c1.3-2.722 2.98-5.225 5.831-6.621a3.09 3.09 0 0 1 3.651.834 1.2 1.2 0 0 1 .179 1.053 1.083 1.083 0 0 1-1.033.273c-1.629-.993-2.578 0-3.586 1.068-3.065 3.234-4.138 7.356-5.091 11.509-.459 2.037-.692 4.123-1.094 6.462Z" data-name="パス 822"/><path d="M36.067 37.022c.233-2.951.5-5.618.651-8.3.174-2.811 1.371-5.285 2.543-7.749a50.226 50.226 0 0 1 2.7-4.59 1.833 1.833 0 0 1 .859-.755 1.212 1.212 0 0 1 1.058.114 1.267 1.267 0 0 1 .035 1.088c-1.257 2.851-2.722 5.618-3.775 8.539a18.452 18.452 0 0 0-.914 5.673c-.119 3.974-.3 8 1.157 11.842a19.275 19.275 0 0 1 .9 2.1 1.709 1.709 0 0 1-.258 1.44 1.436 1.436 0 0 1-1.416-.055 11.432 11.432 0 0 1-2.141-3.313 58.132 58.132 0 0 1-1.399-6.034Z" data-name="パス 823"/><path d="M47.859 57.864c.139-.184.417-.79.586-.76a1.828 1.828 0 0 1 1.2.7 33.538 33.538 0 0 1 1.341 3.234c1.674 4.262 3.318 8.539 5.037 12.786a27.432 27.432 0 0 0 1.594 2.792c.5.909 1.093 1.9.169 2.826-.671.661-1.942-.089-2.846-1.316-1.634-2.22-2.186-4.858-3.02-7.391-1.267-3.85-2.543-7.7-3.8-11.554a11.923 11.923 0 0 1-.263-1.311Z" data-name="パス 824"/><path d="M76.842 61.39c-.149.174-.392.73-.785.874a16.68 16.68 0 0 1-4.078 1.152 39.389 39.389 0 0 0-12.085 3.417c-.735.318-1.391.606-1.818-.3s.3-1.321.964-1.6c3.636-1.575 7.183-3.393 11.251-3.75a34.167 34.167 0 0 0 4.833-1.023c1.011-.245 1.668.067 1.718 1.23Z" data-name="パス 825"/><path d="M151.519 547.637a2.141 2.141 0 0 1-2.166 2.484c-2.881.358-5.752.775-8.633 1.128a7.277 7.277 0 0 1-1.739-.064c-1.088-.144-1.416-.835-.993-1.838a3.842 3.842 0 0 0 .074-1.227c0-.546-.154-1.272.129-1.58s.993-.129 1.55-.169c-.035.571-.045 1.142-.129 1.7-.025.174-.258.313-.666.77 2.21-.353 4.058-.636 5.9-.944 1.411-.233 2.806-.591 4.222-.7a8.95 8.95 0 0 1 2.451.44Z" data-name="パス 826"/><path d="M119.967 555.883c0-.358-.124-.79.03-1.063.233-.417.631-.969.993-.993s.909.5 1.053.894c.527 1.49.934 2.98 1.361 4.47a5.389 5.389 0 0 0 2.98 3.88c.77.323 1.49 1.088 1.038 1.882a2.256 2.256 0 0 1-2.056.621 5.817 5.817 0 0 1-4.341-4.043c-.561-1.828-.884-3.735-1.311-5.608Z" data-name="パス 827"/><path d="M102.071 60.983c.79-1.644 1.44-3.07 2.141-4.47s1.44-2.8 2.235-4.148c.189-.333.661-.5.993-.735.253.457.8.993.715 1.371a29.97 29.97 0 0 1-1.306 3.676c-.621 1.58-1.321 3.134-1.9 4.729-.3.844-.894 1.232-1.624.949-.484-.185-.794-.855-1.254-1.372Z" data-name="パス 828"/><path d="M75.734 23.227a2.851 2.851 0 0 1 .993.124 9.437 9.437 0 0 1 1.207.944 5.236 5.236 0 0 1-1.113.79c-2.6.959-5.221 1.873-7.838 2.787a6.989 6.989 0 0 1-1.818.462 1.421 1.421 0 0 1-1.123-.5 1.2 1.2 0 0 1 .387-1.083 10.222 10.222 0 0 1 2.245-1.157c2.051-.775 4.128-1.49 6.194-2.205a5.96 5.96 0 0 1 .866-.162Z" data-name="パス 829"/><path d="M135.281 559.414c-2.171-.641-4.361-1.222-6.5-1.987a2.126 2.126 0 0 1-1.232-1.4c-.094-.8.462-1.217 1.436-.994 2.389.561 4.8.993 7.2 1.515.8.174 1.917.159 1.9 1.291 0 1.272-1.1 1.187-2.017 1.167h-.676Z" data-name="パス 830"/><path d="M61.32 58.976c-1.609-.76-3.04-1.376-4.4-2.121a1.2 1.2 0 0 1-.338-1.147 1.361 1.361 0 0 1 1.157-.452c1.321.209 2.618.566 3.929.834.775.159 1.371.591 1.1 1.351-.196.562-.872.949-1.448 1.535Z" data-name="パス 831"/><path d="M50.611 527.943c.581-.531.889-1.043 1.217-1.058a1.814 1.814 0 0 1 1.366.546 10.079 10.079 0 0 1 1.445 2.518 2.121 2.121 0 0 1-.025 1.764c-.527.586-1.237.243-1.684-.393-.739-1.063-1.47-2.135-2.319-3.377Z" data-name="パス 832"/><path d="M62.264 69.68c1.376.3 2.518.5 3.611.825a1.227 1.227 0 0 1 .586 1.048c-.055.328-.6.839-.889.815a18.249 18.249 0 0 1-3.591-.631c-.3-.089-.6-.864-.551-1.282.019-.323.596-.586.834-.775Z" data-name="パス 833"/><path d="M154.062 542.397a1.827 1.827 0 0 1 .164.5c0 .562-.04 1.128-.065 1.689a6 6 0 0 1-1.694-.462c-.313-.194-.641-.993-.522-1.137a3.292 3.292 0 0 1 1.381-.765c.209-.07.5.129.77.2Z" data-name="パス 834"/><path d="M145.549 543.464a5.244 5.244 0 0 1-.964-1.7c-.035-.253.864-.939 1.3-.9a1.157 1.157 0 0 1 1.152 1.455c-.119.437-.586.775-.9 1.157Z" data-name="パス 835"/><path d="M146.894 545.839c-.76.636-1.177 1.207-1.7 1.331-.3.074-.775-.581-1.172-.914a6.185 6.185 0 0 1 1.331-1.4c.2-.109.806.497 1.541.983Z" data-name="パス 836"/><path d="M143.447 542.029c-.378.248-.81.745-1.123.681-.442-.094-.795-.6-1.187-.934.348-.368.661-.993 1.048-1.028s.829.5 1.252.75c0 .178.005.352.01.531Z" data-name="パス 837"/><path d="M149.974 542.71c.5.725 1.018 1.123.993 1.49s-.566.735-.879 1.1c-.363-.328-.949-.616-1.028-.993s.432-.842.914-1.597Z" data-name="パス 838"/><path d="M133.126 546.256c-.432-.681-.909-1.108-.834-1.381.119-.412.616-.715.954-1.068.3.328.83.661.83.993s-.474.76-.95 1.456Z" data-name="パス 839"/><path d="M20.42 539.988a4.629 4.629 0 0 1-1.376-.5 1.048 1.048 0 0 1-.094-1.023c.288-.253.993-.5 1.167-.328a4.141 4.141 0 0 1 .671 1.4Z" data-name="パス 840"/><path d="M143.347 545.343c-.556.5-.9.994-1.242.994s-.646-.552-.969-.864c.323-.288.616-.735.993-.815.27-.066.652.342 1.218.685Z" data-name="パス 841"/><path d="M132.643 542.849c-.328-.576-.73-.994-.651-1.222.109-.363.561-.621.869-.924.3.318.854.646.839.949s-.545.651-1.057 1.197Z" data-name="パス 842"/><path fill="#fff" d="M82.266 246.254c.313-3.542.586-6.884.9-10.232.258-2.707.522-5.419.859-8.121.566-4.555 1.113-9.12 1.823-13.655.69-4.426 1.669-8.807 2.345-13.237.74-4.873 1.386-9.766 1.883-14.683.5-4.739.661-9.5 1.088-14.246.5-5.33 1.1-10.645 1.664-15.969.5-4.689.934-9.388 1.53-14.067.656-5.161 1.525-10.292 2.186-15.453.442-3.477.671-6.954 1.018-10.431.373-3.706.8-7.406 1.152-11.117.268-2.806.457-5.623.7-8.444a8.1 8.1 0 0 1 .358-2.116c.129-.343.681-.522 1.043-.775.2.353.606.72.586 1.063-.184 3.71-.437 7.421-.666 11.131-.253 4.118-.447 8.241-.765 12.358-.328 4.237-.74 8.474-1.167 12.7-.412 4.009-.889 8.012-1.336 12.016-.387 3.477-.8 6.954-1.147 10.431q-.79 7.868-1.49 15.751c-.258 2.9-.437 5.8-.656 8.7-.333 4.282-.606 8.573-.993 12.85-.75 7.878-2.409 15.607-3.835 23.376-.656 3.561-.919 7.192-1.346 10.794-.457 3.83-.924 7.659-1.346 11.494-.343 3.109-.626 6.224-.949 9.333a3.025 3.025 0 0 1-.278 1.311c-.368.541-.854 1.272-1.391 1.366a1.311 1.311 0 0 1-1.52-1.3 4.379 4.379 0 0 0-.253-.829Z" data-name="パス 843"/><path fill="#fff" d="M121.478 300.416c-1.192-1.157-2.409-1.888-2.926-2.98a8.316 8.316 0 0 1-.745-4.148c.551-6.254 1.262-12.5 1.987-18.736a2.026 2.026 0 0 0-.914-2.076 23.469 23.469 0 0 0-5.007-3.407 1.093 1.093 0 0 1-.263-.993c1.088-3.06 2.245-6.1 3.353-9.154.273-.75.437-1.535.69-2.424.894.224 1.734.368 2.518.651q3.129 1.123 6.209 2.364a3.765 3.765 0 0 1 1.187.854 8.969 8.969 0 0 0 3.09 2.19c1.232.5 2.017 2.047 3.065 3.065 1.778 1.719 1.49 4.068 1.947 6.184.641 2.98 1.187 5.961 1.783 8.941a33.287 33.287 0 0 0-5.121-.5 14.622 14.622 0 0 0-3.869.959 2.212 2.212 0 0 1-2.821-1.162c-.526-.939-.884-1.987-1.436-2.886a1.3 1.3 0 0 0-1.108-.531 1.192 1.192 0 0 0-.636.993 34.017 34.017 0 0 0 1.7 4.58 2.245 2.245 0 0 1 .2 2.027 47.237 47.237 0 0 0-1.49 6.1c-.5 2.583-.939 5.186-1.356 7.789a16.572 16.572 0 0 0-.037 2.3Z" data-name="パス 844"/><path fill="#fff" d="M114.821 148.465c-1.162-2.866-2.21-5.519-3.313-8.151-.566-1.361-1.277-2.662-1.833-4.028a10.92 10.92 0 0 1-.333-5.961 1.669 1.669 0 0 1 .949-.993c1.594-.666 3.234-1.232 4.848-1.843 3.393-1.277 3.974-3.224 1.917-6.219-2.712-3.974-5.3-8.007-6.865-12.641-1.659-4.908-3.586-9.726-5.375-14.589a4.262 4.262 0 0 1-.328-1.7 1.307 1.307 0 0 1 .745-.934c.219-.07.775.353.909.671 1.927 4.58 3.785 9.189 5.707 13.774 1.088 2.593 2.126 5.221 3.447 7.694a55.929 55.929 0 0 0 3.78 5.538 10.125 10.125 0 0 1 2.2 5.245 4.533 4.533 0 0 1-2.042 4.361 30.707 30.707 0 0 1-4.967 2.533c-1.753.71-2.166 1.028-1.7 2.906a38.212 38.212 0 0 0 1.724 4.764q.924 2.354 1.952 4.669a19.163 19.163 0 0 0 1.416 2.727c1.028 1.57 1.113 3.02-.348 4.341-1.878 1.7-2.484 4.108-3.422 6.3-1.49 3.477-2.772 6.994-4.242 10.431-1.4 3.293-2.98 6.517-4.4 9.805a64.716 64.716 0 0 0-4.381 12.418 15.061 15.061 0 0 1-1.694 3.9 1.591 1.591 0 0 1-1.391.432c-.248-.05-.556-.835-.5-1.227.343-1.932.849-3.835 1.217-5.762a61.827 61.827 0 0 1 4.714-13.521c2.205-4.967 4.252-10.029 6.428-15.026 1.232-2.821 2.553-5.6 3.909-8.37a8.337 8.337 0 0 1 1.272-1.544Z" data-name="パス 845"/><path fill="#fff" d="M63.197 102.687a26.825 26.825 0 0 1 .5 3.795c-.035 5.707-.154 11.424-.263 17.127q-.159 8.136-.358 16.272c-.124 5-.328 10-.407 15.006-.055 3.477.04 6.954.065 10.431 0 2.593 0 5.181.065 7.769.089 3.562.179 7.123.387 10.674.253 4.351.527 8.707.993 13.044.5 4.724 1.2 9.438 1.783 14.132a11.36 11.36 0 0 1 .114 2.926 1.957 1.957 0 0 1-1.093 1.371c-.949.263-1.49-.5-1.654-1.351a141.41 141.41 0 0 1-1.023-6.244c-.626-4.525-1.237-9.05-1.773-13.58-.219-1.838-.278-3.7-.338-5.553-.238-7.63-.5-15.259-.636-22.889-.065-3.477.114-6.954.228-10.461.169-5.057.328-10.118.581-15.17.382-7.451.9-14.867 1.247-22.3.209-4.51.179-9.035.308-13.55a4.892 4.892 0 0 1 .586-1.535Z" data-name="パス 846"/><path fill="#fff" d="M49.652 143.493c-2.136-1.689-4.153-3.323-6.214-4.9a4.207 4.207 0 0 1-1.57-4.913c1.247-3.83 2.652-7.62 4.172-11.355a67.206 67.206 0 0 1 3.621-7.451c1.808-3.229 3.795-6.358 5.777-9.482a2.717 2.717 0 0 1 1.49-.82c.219-.065.656.233.82.5a.879.879 0 0 1-.174.79c-2.946 3.412-4.754 7.481-6.631 11.5-1.227 2.628-2.449 5.265-3.477 7.947-.993 2.613-1.863 5.3-2.657 7.987a2.723 2.723 0 0 0 1.182 3.477c1.917 1.212 3.646 2.727 5.464 4.1a3.432 3.432 0 0 1 .536 4.615c-1.748 2.931-3.666 5.767-5.285 8.762s-3.07 6.249-4.525 9.408a1.635 1.635 0 0 0 .229 1.336 28.013 28.013 0 0 1 4.232 11.494c.81 4.8 1.545 9.621 2.414 14.4.611 3.368 1.45 6.691 2.041 10.059.134.765-.1 2.141-.571 2.364-1.137.536-1.52-.765-1.748-1.52a92.113 92.113 0 0 1-2.4-8.941c-1.172-6.005-2.017-12.08-3.244-18.076a21.523 21.523 0 0 0-3.72-8.747 3.586 3.586 0 0 1-.328-2.777 47.174 47.174 0 0 1 5.34-11.107c1.749-2.844 3.457-5.72 5.226-8.65Z" data-name="パス 847"/><path fill="#fff" d="M23.052 292.424a500.332 500.332 0 0 1-2.921-5.464c-.75-1.421-1.535-2.826-2.191-4.292a5.96 5.96 0 0 1-.581-2.429 36.679 36.679 0 0 1 2.9-12.343 7.342 7.342 0 0 1 6.139-5.027 17.148 17.148 0 0 1 4.57-.392 12.753 12.753 0 0 1 3.914 1.833c.616.343.368 1.888-.4 2.657s-1.659 1.54-2.484 2.3c-1.987 1.818-4.008 3.566-5.871 5.464a5.191 5.191 0 0 0-1.212 2.613 235.918 235.918 0 0 0-1.709 10.694 13.851 13.851 0 0 0 .283 2.553 15.759 15.759 0 0 1-.1 1.808Z" data-name="パス 848"/><path fill="#fff" d="M126.457 305.339c-2.533-.889-3.224-3.288-4.967-4.684.839 0 1.823.288 2.186-.065a4.1 4.1 0 0 0 .9-2.28c.611-4.346 1.137-8.707 1.689-13.059.109-.845.5-1.272 1.426-1.177a2.979 2.979 0 0 0 1.316-.184 11.06 11.06 0 0 1 5.777-.179 3.545 3.545 0 0 1 2.419 4.207 73.13 73.13 0 0 0-3.1 11c-.561 3.234-2.484 5.663-3.8 8.444a5.115 5.115 0 0 1-.859.993l-.462-.03a10.328 10.328 0 0 1 .03-1.922 4.079 4.079 0 0 1 .715-1.729c1.3-1.614 1.277-3.586 1.59-5.464.532-3.174.959-6.368 1.49-9.547.154-.944.149-1.709-1.336-2.066-.358 1.048-.8 2.086-1.063 3.169-.73 3.065-1.326 6.169-2.106 9.219-.472 1.748-1.172 3.407-1.845 5.354Z" data-name="パス 849"/><path fill="#fff" d="M131.65 152.965c.5-4.535.894-9.085 1.565-13.6.5-3.437 1.391-6.82 2.111-10.227a1.733 1.733 0 0 1 .313-.869 5.16 5.16 0 0 1 1.118-.616c.129.368.417.76.363 1.1-.676 4.063-1.54 8.1-2.066 12.175-.432 3.328-.5 6.706-.685 10.069-.079 1.52 0 3.05 0 4.58a5.525 5.525 0 0 1-.035.81c-.109.745-.407 1.55-1.237 1.4a1.95 1.95 0 0 1-1.073-1.411 23.068 23.068 0 0 1-.05-3.368Z" data-name="パス 850"/><path fill="#fff" d="M139.131 122.06a23.454 23.454 0 0 1 2.484-8.827 34.442 34.442 0 0 1 6.09-8.782c.313-.343 1.043-.313 1.58-.457-.03.561.159 1.287-.124 1.649a42.425 42.425 0 0 0-7.063 12.3c-.447 1.311-.666 2.7-1.132 4.009a1.629 1.629 0 0 1-1.172.81c-.236.033-.539-.593-.663-.702Z" data-name="パス 851"/><path fill="#fff" d="M124.214 513.97a8.643 8.643 0 0 0 .78 1.749 1.366 1.366 0 0 0 1.113.472c.328-.06.671-.5.839-.854a2.485 2.485 0 0 0 .04-1.053c-.035-1.694-.1-3.392-.094-5.086 0-.288.323-.571.7-1.187.626 2.662-.79 5.494 2.066 7.088-.119.288-.164.74-.368.83-3.124 1.391-4.1 4.967-6.884 6.875a2.6 2.6 0 0 1-.318-.666 29.916 29.916 0 0 1-.079-4.664c.084-.76.859-1.44 1.326-2.156.278-.444.571-.882.879-1.348Z" data-name="パス 852"/><path fill="#fff" d="M48.216 534.241a5.1 5.1 0 0 0 5.827 3.174 29.832 29.832 0 0 0 5.434-1.818c.611-.214 1.2-.5 1.863-.775-.065 2.166-.8 2.921-2.7 3.234a23.336 23.336 0 0 0-3.229.879 15.117 15.117 0 0 1-6.78.308c-1.406-.2-1.942-.884-1.679-2.32a21.7 21.7 0 0 1 .81-2.613Z" data-name="パス 853"/><path fill="#fff" d="M49.979 545.8c1.128-1.9-1.3-2.21-1.619-3.691 3.4.288 6.7.447 9.964-1.3-.258 1.262-.467 2.255-.646 3.124Z" data-name="パス 854"/><path fill="#fff" d="m51.609 513.061-3.348 4.187c-1.172-.705-2.389-1.361-3.512-2.161a1.326 1.326 0 0 1-.258-1.261 11.06 11.06 0 0 1 1.565-1.987.825.825 0 0 1 .69-.214c1.57.437 3.134.919 4.863 1.436Z" data-name="パス 855"/><path fill="#fff" d="m132.301 518.008 5.156-.765c.219 1.177.442 2.4.685 3.715-1.217.278-2.265.5-3.293.755a1.406 1.406 0 0 1-1.907-1.148c-.199-.809-.388-1.632-.641-2.557Z" data-name="パス 856"/><path fill="#fff" d="M134.601 524.327a25.372 25.372 0 0 1 3.144-.333 1.43 1.43 0 0 1 1.043.83c.541 1.714.472 1.758-1.351 1.818-.268 0-.536.035-.81.05-2.084.102-2.24-.071-2.026-2.365Z" data-name="パス 857"/><path fill="#fff" d="M140.487 531.27c-4.282.85-4.684.666-4.664-2.027a15.6 15.6 0 0 1 3.512.085c.471.114.719 1.168 1.152 1.942Z" data-name="パス 858"/><path fill="#fff" d="M142.235 535.781c-1.391 0-2.727.05-4.048-.03-.333 0-.641-.467-.959-.72a7.053 7.053 0 0 1 .939-.71 3.632 3.632 0 0 1 .919-.189c1.371-.273 2.528-.075 3.149 1.649Z" data-name="パス 859"/><path fill="#fff" d="M119.883 520.283v4.878c0 .968-.06 1.932-.094 2.9h-.417v-7.764Z" data-name="パス 860"/><path fill="#fff" d="m52.046 510.493-3.477-.586.164-.765 3.432.8Z" data-name="パス 861"/><path fill="#fff" d="M66.416 39.028c-.5-2.156 1.242-3.1 2.484-3.9a11.942 11.942 0 0 1 7.734-1.55 2.046 2.046 0 0 1 1.987 1.838c.209 1.585.79 3.179.685 4.729-.154 2.225-2.6 4.366-4.848 4.719-.755.119-1.49.243-2.26.348s-1.863.556-2.25.214a16.341 16.341 0 0 1-3.025-3.656 9.089 9.089 0 0 1-.507-2.742Zm3.288.447c.571.407 1.242 1.222 1.694 1.113a2.354 2.354 0 0 0 1.371-1.6c.169-.82-.532-1.406-1.416-1.391s-1.436.581-1.639 1.878Z" data-name="パス 862"/><path fill="#fff" d="M56.1 45.471a4.431 4.431 0 0 1-1.684 3.939c-.571.427-1.078.949-1.609 1.426-1.619 1.455-4.8 1.227-5.961-.685a13.53 13.53 0 0 1-1.6-4.595c-.109-.611.661-1.575 1.277-2.071a10.188 10.188 0 0 1 6.7-2.558c1.763.025 2.046 1.321 2.484 2.484a9.7 9.7 0 0 1 .393 2.06Zm-3.477-.159c-.79-.551-1.286-1.187-1.783-1.242-1.073-.109-1.252.83-1.3 1.649a1.222 1.222 0 0 0 1.416 1.386c.531-.109.924-.954 1.664-1.793Z" data-name="パス 863"/><path fill="#fff" d="M31.204 532.577c-.5-1.118-.5-1.118-4.073-3.313.934-.745 1.763-1.411 2.6-2.066.134-.1.343-.233.5-.194 1.659.5 3.313.994 5.374 1.619Z" data-name="パス 864"/><path fill="#fff" d="M29.947 533.575c-.854 1.455-1.679 2.067-3.273 1.6a26.72 26.72 0 0 0-4.8-.5c.82-.869 1.49-1.58 2.156-2.265a1.665 1.665 0 0 1 2.156-.432c1.178.599 2.434 1.056 3.761 1.597Z" data-name="パス 865"/><path fill="#fff" d="M32.312 524.823c.591-.313 1.068-.8 1.421-.72 1.684.378 3.338.9 5.047 1.4-.855.899-3.517.631-6.468-.68Z" data-name="パス 866"/><path d="M70.301 39.971a1.267 1.267 0 0 1-.323-1.49 1.4 1.4 0 0 1 1.376-.9c.884 0 1.585.571 1.416 1.391a2.354 2.354 0 0 1-1.371 1.6c-.299.09-.691-.248-1.098-.601Z" data-name="パス 867"/><path d="M52.061 44.864a.735.735 0 0 1 .109.993c-.5.626-.8 1.152-1.222 1.237a1.222 1.222 0 0 1-1.416-1.386c.045-.82.224-1.758 1.3-1.649a2.884 2.884 0 0 1 1.229.805Z" data-name="パス 868"/></svg>