<svg width="427" height="422" viewBox="0 0 427 422" fill="none" xmlns="http://www.w3.org/2000/svg">
<rect y="171.014" width="301.968" height="287.443" transform="rotate(-32.6726 0 171.014)" fill="white"/>
<path d="M385.619 116.082C358.444 110.457 322.665 117.845 290.153 136.135C257.641 154.424 232.75 181.166 223.448 207.312C250.622 212.937 286.401 205.549 318.913 187.26C351.425 168.97 376.317 142.228 385.619 116.082ZM394.841 110.894C387.562 140.138 361.099 171.941 322.508 193.65C283.917 215.359 242.997 221.463 214.225 212.5C221.504 183.257 247.967 151.454 286.558 129.744C325.149 108.035 366.069 101.932 394.841 110.894Z" fill="black"/>
<path d="M118.053 41.1752C112.427 68.3499 119.815 104.129 138.105 136.641C156.395 169.153 183.137 194.044 209.282 203.346C214.907 176.172 207.519 140.393 189.229 107.88C170.94 75.3681 144.198 50.477 118.053 41.1752ZM112.864 31.9526C142.108 39.2323 173.911 65.6956 195.62 104.285C217.329 142.875 223.432 183.797 214.47 212.569C185.227 205.289 153.424 178.827 131.714 140.236C110.005 101.645 103.902 60.7248 112.865 31.953L112.864 31.9526Z" fill="black"/>
<path d="M206.811 214.885C179.637 209.26 143.858 216.648 111.346 234.937C78.8336 253.227 53.9422 279.969 44.6401 306.114C71.8148 311.74 107.593 304.352 140.106 286.062C172.618 267.773 197.509 241.03 206.811 214.885ZM216.034 209.697C208.754 238.94 182.291 270.744 143.701 292.453C105.11 314.162 64.1897 320.265 35.4178 311.302C42.6972 282.059 69.1605 250.256 107.751 228.547C146.341 206.838 187.262 200.735 216.034 209.697Z" fill="black"/>
<path d="M220.27 218.653C214.645 245.827 222.033 281.606 240.323 314.119C258.613 346.631 285.354 371.522 311.5 380.824C317.125 353.649 309.737 317.87 291.447 285.358C273.157 252.846 246.416 227.955 220.27 218.653ZM215.082 209.43C244.325 216.71 276.129 243.173 297.838 281.763C319.546 320.353 325.65 361.275 316.688 390.046C287.445 382.767 255.641 356.304 233.932 317.714C212.223 279.123 206.12 238.202 215.082 209.43L215.082 209.43Z" fill="black"/>
<path d="M212.798 345.533L212.357 363.243L209.011 369.41L194.214 382.802L218.963 383.331L226.097 369.41L224.336 343.066L212.798 345.533Z" fill="white"/>
<path d="M211.654 81.0388V93.6379L208.131 92.2282L194.479 103.858L186.288 105.973L181.179 110.995L172.9 169.673L180.563 181.392L178.537 185.533L179.33 186.854L183.117 186.502L185.936 190.555L187.081 192.581L195.712 190.995L247.324 177.955L251.2 172.933L255.339 163.065L262.914 128.175L264.235 119.012L261.064 109.233L253.842 104.827L231.735 91.171L228.3 92.4044L227.067 77.1621L211.654 81.0388Z" fill="white"/>
<path d="M193.773 96.2818L189.722 87.7355L191.571 74.3434L192.892 52.0526L194.566 43.1539L202.933 31.612L216.321 26.9424L229.972 31.0834L235.169 36.1054L244.769 58.3962L248.908 75.5769L244.064 90.9074C236.402 87.6474 229.18 86.0615 222.486 86.2377C212.797 85.8853 203.285 89.3215 193.773 96.2818Z" fill="white"/>
<path d="M172.019 182.538C171.579 183.507 170.874 183.155 170.346 182.802C169.553 182.274 168.848 181.569 168.144 180.952C166.47 179.366 166.03 177.34 166.206 175.225C166.47 170.291 166.734 165.269 167.263 160.335C167.615 156.987 168.848 153.992 169.553 150.732C170.346 147.295 171.579 143.947 172.459 140.511C173.957 134.872 175.278 129.234 176.687 123.507C176.951 122.45 177.568 121.48 177.832 120.511C178.008 119.983 177.744 119.278 177.744 118.661C177.744 118.22 177.568 117.692 177.744 117.339C178.272 116.194 178.801 115.137 179.417 113.991C179.946 112.934 180.562 111.965 181.267 110.996C182.94 108.617 184.966 106.502 187.608 105.269C188.841 104.74 190.163 104.388 191.396 104.035C191.748 103.947 192.1 104.3 192.541 104.476C192.276 104.74 192.1 105.269 191.748 105.357C189.722 105.974 187.696 106.59 186.023 108.088C184.438 109.498 183.028 110.996 181.883 113.11C184.173 112.934 186.199 112.934 188.137 112.67C193.157 111.877 198.177 110.996 203.198 110.115C206.633 109.498 210.068 108.881 213.503 108.264C215.528 107.912 217.554 107.472 219.58 107.383C220.373 107.295 221.165 108.088 221.958 108.441C223.984 109.322 224.248 111.172 224.512 113.022C225.041 116.282 225.481 119.63 225.833 122.89C226.274 126.679 226.714 130.467 227.154 134.168C229.797 134.432 230.149 137.251 228.74 139.013C227.419 140.511 227.947 141.833 228.035 143.331C228.035 144.036 228.211 144.652 228.387 145.533C229.444 144.917 230.501 144.388 231.382 143.771C232.967 142.626 234.553 141.392 236.138 140.247C236.49 139.983 237.019 139.806 237.371 139.895C238.164 140.071 238.428 139.63 238.516 139.013C238.78 137.78 239.045 136.547 239.221 135.401C239.397 134.432 239.749 133.551 239.749 132.582C239.661 129.939 239.397 127.295 239.221 124.652C239.221 124.212 238.956 123.859 238.868 123.507C238.604 122.978 238.252 122.273 239.045 122.009C239.749 121.833 240.542 121.921 240.806 122.802C241.158 124.212 241.599 125.533 241.687 126.943C241.863 128.969 241.951 131.084 241.775 133.198C241.511 135.577 240.894 137.868 240.454 140.159C239.749 143.507 239.045 146.943 238.34 150.291C237.547 153.992 236.931 157.78 235.169 161.128C234.905 161.657 234.641 162.273 235.345 162.802C235.874 163.155 236.314 163.771 236.931 164.124C237.283 164.3 237.812 164.3 238.252 164.3C239.485 164.212 240.806 164.036 242.039 164.036C242.391 164.036 242.832 164.564 243.184 164.829C242.832 165.093 242.48 165.533 242.039 165.622C240.806 165.886 239.485 166.15 238.252 166.326C237.371 166.414 236.49 166.591 235.698 166.503C233.848 166.326 232.351 167.472 230.854 168C227.683 169.234 224.688 170.644 221.253 170.996C218.523 171.26 215.793 171.789 212.974 171.965C209.187 172.141 205.312 171.877 201.701 170.555C201.172 170.379 200.644 169.939 199.939 169.586C198.266 170.291 196.504 171.348 194.566 171.701C191.66 172.318 190.515 174.696 188.841 176.547C187.168 178.309 185.318 179.895 183.205 181.216C182.412 181.657 181.707 182.185 180.915 182.714C180.298 183.067 179.329 185.181 179.241 186.415C180.122 186.238 181.003 185.974 181.883 185.886C182.412 185.798 183.028 185.71 183.557 185.71C184.878 185.798 184.878 186.855 185.142 187.736C185.407 188.793 185.759 189.763 186.023 190.82C186.375 191.965 187.168 191.877 188.225 191.789C187.344 190.82 187.696 190.291 188.577 189.763C190.427 188.529 192.1 187.031 193.95 185.798C195.447 184.829 196.944 183.948 198.53 183.067C198.794 182.89 199.234 182.802 199.499 182.89C202.141 184.388 204.959 184.124 207.69 183.859C209.451 183.683 211.301 183.507 213.062 183.331C215 183.155 216.938 182.89 218.787 182.626C222.398 182.097 226.009 181.657 229.62 180.952C234.2 180.071 238.78 178.926 243.272 177.78C244.769 177.428 246.179 176.899 247.588 176.282C248.028 176.106 248.557 175.754 248.733 175.313C250.23 172.318 251.727 169.322 253.137 166.326C253.665 165.093 253.929 163.683 254.282 162.362C254.546 161.216 253.401 161.128 252.872 161.04C251.287 160.688 249.702 160.423 248.116 160.335C246.707 160.247 245.298 160.423 243.889 160.423C241.687 160.335 239.749 161.216 237.723 161.921C237.459 162.009 237.019 161.921 236.667 161.921C236.755 161.569 236.843 161.04 237.107 160.776C239.045 159.278 241.335 158.661 243.801 158.485C245.738 158.397 247.676 158.397 249.614 158.309C251.551 158.221 253.225 158.661 254.81 159.718C255.074 159.895 255.339 159.895 255.691 160.071C256.307 157.075 256.836 154.08 257.452 151.172C258.157 147.912 258.862 144.652 259.478 141.392C260.447 136.547 261.416 131.701 262.297 126.767C262.737 124.035 262.825 121.304 262.385 118.573C262.12 117.075 261.944 115.665 261.768 114.168C261.768 113.903 261.944 113.463 262.12 113.463C262.473 113.463 263.001 113.551 263.265 113.727C263.618 114.168 264.058 114.784 264.058 115.401C264.41 117.78 264.675 120.247 264.763 122.626C264.851 126.767 264.234 130.732 263.265 134.784C262.561 137.692 262.032 140.687 261.416 143.595C261.063 145.533 260.711 147.472 260.359 149.498C259.654 152.67 258.95 155.842 258.245 159.102C257.981 160.159 257.805 161.304 257.452 162.362C257.364 162.626 257.012 162.978 256.748 163.066C255.867 163.507 255.691 164.388 255.515 165.269C254.898 168.177 253.929 170.908 252.344 173.551C251.992 174.168 251.816 174.961 251.463 175.577C250.935 176.37 250.406 177.163 249.79 177.78C249.261 178.221 249.085 178.573 249.349 179.278C250.318 181.833 251.375 184.476 252.256 187.119C252.784 188.793 253.137 190.644 253.577 192.318C254.37 195.313 255.074 198.309 256.219 201.216C257.364 204.124 257.981 207.119 258.421 210.115C258.773 212.846 259.214 215.666 259.566 218.397C259.918 221.305 260.183 224.212 260.623 227.12C261.24 231.084 260.711 234.961 260.711 238.838C260.711 241.745 260.887 244.565 260.799 247.472C260.799 249.322 260.535 251.172 260.359 253.023C260.095 255.049 259.83 257.076 259.478 259.102C258.773 262.891 258.157 266.679 257.364 270.38C256.66 273.992 256.395 277.692 256.66 281.393C256.836 283.772 256.66 286.239 256.836 288.618C257.1 292.23 257.54 295.93 257.981 299.543C258.245 301.569 258.333 303.684 258.773 305.71C259.302 308.265 260.095 310.732 260.711 313.199C260.975 314.433 260.975 315.666 261.328 316.811C262.12 319.278 263.001 321.657 263.882 324.036C265.467 328.265 267.053 332.494 268.726 336.635C268.814 336.988 269.166 337.252 269.431 337.428C270.311 338.045 270.399 339.014 269.783 339.895C267.845 342.891 265.027 344.653 261.768 345.798C259.478 346.591 256.836 346.503 254.634 344.917C253.929 344.389 253.313 344.301 252.696 344.917C250.671 346.591 248.381 347.384 245.738 347.649C245.474 347.649 245.034 348.001 244.946 348.265C243.36 352.318 242.48 356.635 241.951 360.953C241.599 363.772 241.335 366.591 241.335 369.499C241.246 372.583 241.687 375.666 242.303 378.662C243.008 382.01 243.536 385.446 242.92 388.794C242.391 391.878 241.335 394.962 240.454 397.957C239.925 399.807 239.221 401.569 238.34 403.243C237.635 404.565 236.578 405.622 235.61 406.856C234.112 408.794 232.703 410.733 231.03 412.495C230.237 413.376 229.092 414.081 227.947 414.697C226.626 415.578 225.217 416.371 223.807 417.076C222.751 417.605 221.694 417.429 220.549 416.988C218.259 416.195 217.202 414.697 216.585 412.495C215.616 408.97 215.264 405.534 215.705 401.922C216.145 398.662 216.585 395.314 217.114 392.054C217.29 390.909 217.73 389.763 218.083 388.265C216.409 389.235 214.912 390.028 213.591 390.997C210.596 393.199 207.425 394.962 204.079 396.636C201.877 397.781 199.763 398.838 197.385 399.367C194.302 400.072 191.22 399.984 188.137 399.807C186.64 399.719 185.23 399.367 183.821 398.926C181.883 398.31 180.474 396.9 179.329 395.314C176.775 391.966 178.184 388.706 181.443 387.12C183.997 385.799 186.552 384.477 188.93 382.891C190.691 381.746 192.629 381.041 194.478 380.072C194.831 379.895 195.007 379.543 195.271 379.367C197.121 377.869 198.97 376.283 200.82 374.785C202.141 373.728 203.462 372.671 204.783 371.613C206.192 370.468 207.602 369.411 208.835 368.177C209.627 367.384 210.156 366.327 210.86 365.358C211.125 365.094 211.565 364.917 211.917 364.741C212.005 365.182 212.27 365.622 212.093 366.063C211.213 368.97 209.011 370.909 206.721 372.847C204.255 374.873 201.789 376.812 199.322 378.838C199.146 378.926 199.058 379.191 198.706 379.631C199.939 379.631 200.908 379.807 201.789 379.631C203.814 379.191 205.84 378.574 207.778 378.045C208.482 377.869 209.187 377.957 209.98 377.869C210.42 377.781 210.86 377.781 211.125 377.517C213.503 375.843 215.881 374.169 218.259 372.494C220.284 371.085 222.31 369.851 224.16 368.618C224.16 361.129 224.16 353.64 224.16 346.063C220.461 346.679 217.026 347.296 213.855 347.825C214.119 350.732 214.471 353.552 214.471 356.459C214.471 358.486 214.119 360.512 213.855 362.539C213.767 363.155 213.415 363.772 212.71 363.508C212.005 363.243 212.182 362.715 212.27 362.098C212.446 360.6 212.534 359.014 212.534 357.516C212.534 354.345 212.358 351.173 212.27 347.913C211.037 348.089 209.98 348.353 209.011 348.265C206.721 348.265 204.519 348.001 202.493 346.856C200.379 345.622 198.266 344.389 196.152 343.155C195.535 342.803 195.271 342.803 195.095 343.596C195.095 343.772 195.007 343.948 194.919 344.036C193.421 345.534 191.748 346.768 189.546 347.12C187.344 347.472 185.142 347.472 183.205 346.679C181.355 345.975 179.858 344.653 178.096 343.596C176.335 342.538 175.19 341.041 174.133 339.367C172.636 337.076 172.724 334.697 173.781 332.318C174.133 331.525 174.309 330.644 174.573 329.851C175.366 327.384 176.159 324.917 176.775 322.45C177.392 320.16 177.744 317.693 178.272 315.402C179.065 312.406 179.946 309.411 180.739 306.415C181.179 304.829 181.619 303.155 182.06 301.569C182.676 299.19 183.381 296.811 183.997 294.433C184.614 291.877 185.142 289.322 185.671 286.679C186.111 284.477 186.463 282.362 186.816 280.159C187.08 278.573 187.52 276.899 187.52 275.314C187.52 274.168 186.904 273.111 186.64 271.965C185.935 268.97 185.142 265.974 184.526 262.979C184.173 261.305 183.909 259.719 183.645 258.045C183.028 253.463 182.412 248.882 181.883 244.3C181.707 242.45 181.883 240.6 181.795 238.838C181.795 236.547 181.707 234.256 181.795 231.965C181.883 230.115 182.236 228.265 182.412 226.415C182.764 223.595 183.117 220.864 183.469 218.045C183.733 216.282 183.909 214.52 184.173 212.758C184.35 210.996 184.438 209.234 184.702 207.472C185.23 204.388 185.935 201.304 186.64 198.221C186.992 196.459 187.52 194.785 188.049 192.934C187.608 192.934 187.256 192.934 186.904 192.846C186.552 192.758 186.111 192.758 185.935 192.494C184.878 190.82 182.676 189.763 183.205 187.207C182.324 187.296 181.619 187.384 180.915 187.472C179.946 187.736 179.065 187.56 178.36 186.679C177.744 185.886 178.008 185.005 178.272 184.124C178.36 183.859 178.449 183.683 178.537 183.243C177.832 183.419 177.215 183.595 176.687 183.595C175.542 183.683 174.397 183.771 173.34 183.683C172.547 183.683 172.195 183.243 172.636 182.45C172.988 182.362 173.34 182.274 173.692 182.274C176.247 182.097 178.713 181.569 180.827 180.071C182.236 179.102 183.733 178.309 185.054 177.252C186.64 175.842 188.049 174.168 189.546 172.582C191.396 170.555 193.333 168.617 195.799 167.296C196.24 167.031 196.768 166.767 197.032 167.296C197.121 167.56 196.768 168.088 196.592 168.529C196.504 168.617 196.416 168.705 196.328 168.793C197.121 168.705 197.737 168.441 198.442 168.265C198.882 168.177 199.675 167.912 199.851 168.088C200.379 168.793 201.084 168.529 201.789 168.617C203.55 168.793 205.312 169.146 207.161 169.234C209.892 169.41 212.71 169.674 215.44 169.498C219.668 169.234 223.807 168.793 227.771 167.207C229.62 166.414 229.268 166.855 229.18 164.829C229.18 163.243 227.859 161.392 229.885 160.071C229.444 160.159 229.092 160.335 228.828 160.511C227.859 160.952 226.978 161.392 226.009 161.745C225.393 162.009 224.864 161.833 224.688 161.304C228.299 159.014 231.822 156.811 235.345 154.608C235.61 153.287 235.962 151.965 236.314 150.467C234.553 152.67 232.615 154.168 230.413 155.313C230.061 155.489 229.268 155.577 229.18 155.401C228.74 154.873 229.356 154.52 229.709 154.168C231.646 152.582 233.584 151.084 235.433 149.41C236.402 148.529 237.547 147.56 237.107 145.798C235.786 146.855 234.641 148 233.32 148.969C231.91 149.939 230.501 150.82 229.004 151.701C228.387 152.053 227.771 152.053 227.331 151.172C228.475 150.379 229.709 149.674 230.854 148.881C233.496 147.119 236.05 145.269 237.9 142.626C238.428 141.833 238.428 141.304 237.459 140.776C237.019 141.304 236.578 141.921 236.05 142.45C235.081 143.331 234.024 144.124 232.879 144.917C230.765 146.414 228.564 147.824 225.921 147.824C224.776 147.824 223.543 147.824 222.398 147.736C221.341 147.648 220.637 146.679 221.077 145.71C221.782 144.3 222.662 142.89 223.455 141.569C223.543 141.48 223.631 141.392 223.807 141.304C225.041 140.335 226.362 139.454 227.419 138.397C227.947 137.868 228.123 136.987 228.387 136.194C228.475 136.018 228.211 135.665 228.123 135.489C227.859 135.577 227.595 135.665 227.419 135.754C225.217 137.339 222.927 138.749 220.108 139.278C219.668 139.366 219.228 139.718 219.051 139.983C217.994 141.48 216.938 143.066 215.881 144.564C215.528 145.005 215.176 145.533 214.736 145.886C211.301 148 207.866 150.203 204.343 152.229C202.934 153.022 201.348 153.463 199.939 154.256C197.209 155.842 194.214 156.723 191.131 157.34C189.634 157.604 188.049 157.692 186.552 158.044C184.526 158.485 182.5 159.19 180.386 159.718C178.713 160.159 177.039 160.599 175.894 161.921C175.542 162.273 175.19 162.714 174.837 162.978C173.164 164.388 171.314 165.533 170.169 167.56C170.081 167.648 170.081 167.736 169.993 167.824C168.936 168.088 169.024 168.97 168.936 169.762C168.848 171.437 168.848 173.022 168.848 174.696C168.848 176.282 169.113 177.692 170.169 178.926C170.786 179.718 171.579 180.423 172.195 181.216C171.755 181.745 171.843 182.185 172.019 182.538ZM203.99 141.921C204.871 140.247 205.84 138.749 206.457 137.163C207.073 135.665 207.954 134.784 209.539 134.52C210.244 134.432 210.948 134.52 211.653 134.608C211.565 135.137 211.477 135.665 211.389 136.282C211.389 136.458 211.301 136.635 211.213 136.723C209.892 139.366 208.482 142.009 207.161 144.652C206.809 145.357 207.778 147.295 208.482 147.384C208.658 147.384 208.835 147.295 209.011 147.207C209.803 146.767 210.596 146.238 211.301 145.71C212.446 144.917 213.767 144.124 214.824 143.154C215.793 142.273 216.409 141.04 217.202 139.983C217.818 139.102 218.611 138.485 219.58 138.044C221.253 137.339 222.839 136.458 224.424 135.665C224.952 135.401 225.305 135.049 225.217 134.256C224.6 129.41 224.072 124.564 223.543 119.63C223.279 117.075 222.927 114.432 222.574 111.877C222.31 110.203 220.549 108.969 218.963 109.234C215.705 109.762 212.534 110.291 209.275 110.82C205.4 111.436 201.436 112.053 197.561 112.67C191.924 113.639 186.287 114.608 180.562 115.577C180.386 115.577 180.122 115.665 180.122 115.753C179.858 116.723 179.241 117.692 179.329 118.661C179.594 121.304 180.122 123.859 180.562 126.502C181.531 132.494 182.5 138.397 183.469 144.388C184.085 148.088 184.614 151.789 185.142 155.401C185.23 155.93 185.407 156.282 186.111 156.282C186.904 156.194 187.785 156.194 188.577 156.106C189.986 156.018 191.572 156.194 192.893 155.666C194.743 155.049 196.416 153.903 198.177 153.022C198.354 152.934 198.53 152.846 198.618 152.67C199.411 151.084 200.115 149.498 200.908 147.912C201.172 147.295 201.26 146.855 200.82 146.238C199.234 143.859 197.561 141.48 195.976 139.19C194.831 137.428 194.831 137.339 196.856 136.987C198.53 136.723 199.939 136.987 200.996 138.573C201.877 139.806 202.934 140.776 203.99 141.921ZM227.154 399.543C227.947 399.014 228.74 398.486 229.356 397.869C232.087 395.05 234.817 392.23 237.547 389.411C238.604 388.265 239.837 387.208 239.661 385.446C239.573 385.006 239.397 384.389 239.573 384.036C240.013 382.627 239.661 381.393 239.309 380.072C238.34 376.9 238.34 373.552 238.604 370.292C238.78 368.001 239.133 365.798 239.221 363.508C239.309 360.688 239.925 357.957 240.542 355.138C241.158 352.759 241.687 350.38 242.303 347.913C237.635 347.12 233.936 344.741 230.413 341.657C230.413 342.01 230.325 342.274 230.325 342.538C230.589 345.622 230.854 348.794 231.03 351.878C231.206 354.168 231.558 356.459 231.382 358.75C231.118 361.657 230.677 364.653 229.885 367.472C229.18 370.292 227.947 372.935 226.978 375.754C226.097 378.133 225.305 380.6 224.424 382.979C223.367 385.622 223.367 388.265 224.072 390.997C224.776 393.904 225.393 396.9 227.154 399.543ZM178.537 123.331C175.63 134.52 172.812 145.886 169.905 157.075C169.905 157.075 170.081 157.075 170.169 156.987C172.195 155.842 174.397 155.137 176.775 155.225C177.656 155.313 178.625 155.049 179.505 155.225C180.65 155.401 181.972 154.784 183.028 156.106C181.531 145.005 180.034 134.168 178.537 123.331ZM227.859 367.208C228.123 365.71 228.299 364.389 228.564 363.155C229.092 360.512 229.532 357.781 229.356 355.05C229.18 352.583 229.18 350.027 229.092 347.56C229.092 346.239 229.004 345.005 228.916 343.596C227.771 344.301 226.714 344.917 225.657 345.534C225.481 345.622 225.393 345.975 225.481 346.151C225.657 348.001 225.921 349.851 226.097 351.701C226.362 355.666 226.626 359.631 226.714 363.596C226.626 364.917 226.978 365.975 227.859 367.208ZM181.619 157.692C181.619 157.516 181.531 157.34 181.531 157.163C179.594 157.163 177.568 156.899 175.63 157.251C173.34 157.604 171.226 158.397 169.024 158.925C168.76 161.569 168.496 164.124 168.232 166.855C172.195 162.626 175.63 158.309 181.619 157.692ZM234.729 164.74C234.377 164.3 234.112 163.947 233.848 163.683C232.967 162.978 232.791 162.185 233.143 161.128C233.584 159.983 233.936 158.749 234.377 157.251C232.879 158.132 231.646 158.837 230.325 159.63C230.237 159.718 230.061 159.895 230.061 160.071C230.325 162.009 230.589 163.947 230.854 165.974C232.175 165.622 233.408 165.181 234.729 164.74ZM226.097 141.569C224.336 142.538 223.191 143.947 222.398 145.71C222.31 145.886 222.574 146.414 222.662 146.414C223.719 146.502 224.688 146.502 225.745 146.414C226.009 146.414 226.362 145.886 226.362 145.621C226.274 144.3 226.186 142.978 226.097 141.569Z" fill="black"/>
<path d="M172.019 182.538C171.843 182.186 171.755 181.745 171.49 181.481C170.874 180.688 170.081 179.983 169.465 179.19C168.496 177.957 168.144 176.459 168.144 174.961C168.144 173.287 168.144 171.701 168.232 170.027C168.32 169.322 168.232 168.353 169.289 168.089C169.377 168.089 169.465 167.913 169.465 167.824C170.522 165.798 172.459 164.653 174.133 163.243C174.485 162.891 174.925 162.538 175.19 162.186C176.423 160.864 178.096 160.424 179.681 159.983C181.707 159.454 183.733 158.75 185.847 158.309C187.344 157.957 188.929 157.869 190.427 157.604C193.509 156.987 196.504 156.106 199.234 154.52C200.643 153.728 202.229 153.287 203.638 152.494C207.161 150.468 210.596 148.265 214.031 146.15C214.471 145.886 214.824 145.357 215.176 144.829C216.233 143.331 217.29 141.745 218.347 140.247C218.611 139.895 219.051 139.542 219.404 139.542C222.134 139.014 224.424 137.604 226.714 136.018C226.89 135.842 227.154 135.842 227.418 135.754C227.507 136.018 227.771 136.283 227.683 136.459C227.418 137.252 227.242 138.133 226.714 138.661C225.569 139.719 224.336 140.6 223.103 141.569C223.015 141.657 222.839 141.745 222.75 141.833C221.958 143.243 221.077 144.565 220.372 145.974C219.932 146.943 220.549 147.913 221.694 148.001C222.838 148.089 224.072 148.089 225.217 148.089C227.947 148.089 230.061 146.591 232.175 145.181C233.231 144.388 234.288 143.595 235.345 142.714C235.874 142.274 236.314 141.569 236.754 141.04C237.723 141.569 237.723 142.098 237.195 142.89C235.345 145.534 232.791 147.384 230.149 149.146C229.004 149.939 227.859 150.644 226.626 151.437C226.978 152.318 227.683 152.318 228.299 151.965C229.796 151.084 231.206 150.203 232.615 149.234C233.936 148.265 235.169 147.208 236.402 146.062C236.843 147.824 235.609 148.794 234.729 149.675C232.879 151.349 230.941 152.846 229.004 154.432C228.563 154.785 228.035 155.137 228.475 155.666C228.651 155.842 229.356 155.754 229.708 155.578C231.91 154.432 233.936 152.846 235.609 150.732C235.257 152.23 234.993 153.551 234.641 154.873C231.118 157.076 227.595 159.278 223.983 161.569C224.16 162.098 224.688 162.274 225.305 162.01C226.273 161.657 227.154 161.217 228.123 160.776C228.475 160.6 228.74 160.424 229.18 160.335C227.154 161.745 228.475 163.507 228.475 165.093C228.475 167.12 228.916 166.679 227.066 167.472C223.103 169.058 218.875 169.499 214.736 169.763C212.005 169.939 209.187 169.675 206.456 169.499C204.695 169.41 202.933 169.058 201.084 168.882C200.467 168.794 199.763 169.058 199.146 168.353C198.97 168.177 198.177 168.353 197.737 168.529C197.032 168.706 196.416 168.97 195.623 169.058C195.711 168.97 195.887 168.882 195.887 168.794C196.064 168.353 196.416 167.913 196.328 167.56C196.064 166.943 195.535 167.296 195.095 167.56C192.629 168.882 190.691 170.82 188.841 172.847C187.344 174.432 185.935 176.106 184.349 177.516C183.116 178.662 181.531 179.366 180.122 180.336C178.008 181.833 175.542 182.362 172.988 182.538C172.635 182.538 172.283 182.626 171.931 182.714C172.283 182.626 172.195 182.626 172.019 182.538ZM218.259 163.067C218.259 162.979 218.259 162.891 218.259 162.802C219.315 162.802 220.46 162.802 221.517 162.802C222.046 162.802 222.662 162.802 223.191 162.538C223.455 162.45 223.807 162.009 223.807 161.657C223.807 161.393 223.367 161.04 223.103 161.04C221.782 160.952 220.372 160.952 218.963 160.952C217.026 160.952 215 161.04 213.062 160.776C211.565 160.6 210.42 160.952 209.099 161.393C208.57 161.569 208.042 161.833 208.394 162.538C208.746 163.243 209.275 162.891 209.715 162.714C210.508 162.538 211.213 162.186 212.005 162.186C214.031 162.45 216.145 162.802 218.259 163.067ZM198.794 167.472C199.146 167.384 199.322 167.296 199.587 167.208C201.26 166.415 202.933 165.71 204.519 164.829C205.047 164.565 205.576 164.124 205.135 163.419C204.783 162.802 204.255 162.891 203.726 163.155C202.405 163.86 201.084 164.476 199.763 165.269C199.234 165.534 198.794 165.886 198.353 166.327C198.177 166.503 198.089 166.943 198.177 167.12C198.265 167.296 198.618 167.384 198.794 167.472Z" fill="white"/>
<path d="M226.097 94.344C226.89 93.6391 227.682 93.0224 228.299 92.4938C227.858 90.5554 227.506 88.7052 227.154 86.855C226.978 85.7977 227.066 84.7404 226.978 83.6832C226.89 83.2426 226.625 82.714 226.537 82.2735C226.537 81.921 226.537 81.3924 226.801 81.1281C227.946 79.6303 229.356 78.3087 230.325 76.7228C231.646 74.5201 232.703 72.0532 233.759 69.6743C234.112 68.8813 234.464 68.7932 235.169 69.3219C235.433 69.4981 236.049 69.41 236.49 69.2338C237.811 68.617 238.427 67.3835 238.78 66.0619C239.308 64.3879 239.22 61.7447 237.723 60.6875C236.842 60.0707 235.785 60.1588 235.081 61.0399C234.904 61.2161 234.64 61.3923 234.376 61.5685C234.2 61.3042 233.848 61.0399 233.848 60.7756C233.495 58.8373 233.143 56.8989 232.791 54.9606C232.703 54.3438 232.526 53.8152 232.35 53.1985C232.262 52.846 231.998 52.4936 231.734 52.3174C228.123 50.7315 225.745 47.9121 223.455 44.9165C222.222 43.3306 221.253 41.5685 220.196 39.8945C220.02 39.6301 220.02 39.3658 219.932 39.1015C219.755 38.7491 219.755 37.7799 220.196 37.7799C220.548 37.7799 220.724 38.3085 220.9 38.661C222.133 40.335 223.102 42.2733 224.512 43.7711C226.449 45.9738 228.739 48.0002 230.853 50.0266C231.029 50.2029 231.293 50.291 231.822 50.6434C231.47 49.1456 231.205 47.824 230.765 46.5905C229.796 43.7711 228.299 41.1279 226.713 38.5729C226.537 38.3085 226.361 37.6918 226.713 37.4275C227.154 37.2513 227.506 37.4275 227.77 37.6037C228.211 38.0442 228.563 38.5729 228.915 39.1015C231.029 42.5376 232.438 46.15 233.319 50.1147C233.407 50.7315 233.936 51.2601 234.112 51.8769C234.2 52.2293 234.112 52.6698 234.112 53.0223C234.376 54.8725 234.728 56.7227 235.081 58.4848C235.169 58.7491 235.609 59.0135 235.961 59.0135C239.132 58.9254 240.982 60.8637 240.717 64.2117C240.629 65.4452 240.365 66.6787 239.925 67.8241C239.22 69.6743 237.987 70.9959 235.785 70.9959C234.904 70.9959 234.904 71.7007 234.728 72.2294C233.848 75.1369 232.438 77.7801 230.148 79.8065C228.563 81.2162 228.211 82.6259 228.563 84.5642C228.915 86.3263 229.18 88.0003 229.62 89.7625C229.884 90.996 230.765 91.5246 231.91 91.2603C233.231 90.996 234.288 91.4365 235.257 92.3175C236.226 93.1986 237.371 93.9035 238.427 94.6964C240.189 95.9299 241.774 97.2515 243.624 98.3088C245.65 99.4541 247.94 100.247 249.965 101.304C252.696 102.714 255.514 104.124 258.068 105.71C259.742 106.767 260.887 108.353 261.415 110.379C261.503 110.732 261.239 111.172 261.151 111.613C260.799 111.437 260.182 111.348 260.094 110.996C258.509 107.56 255.514 106.15 252.343 104.74C249.349 103.419 246.354 102.097 243.536 100.423C240.541 98.5731 237.723 96.3704 234.904 94.2559C234.64 93.9916 234.376 93.6391 234.112 93.4629C233.936 93.2867 233.583 93.0224 233.319 93.1105C230.853 93.4629 228.739 94.5202 227.33 96.5466C226.89 97.1634 226.537 97.1634 225.833 96.7228C224.688 96.018 223.278 95.5775 221.957 95.4013C220.02 95.0488 218.17 95.6656 216.497 96.7228C216.144 96.9872 215.704 97.2515 215.44 97.6039C214.823 98.2207 214.471 98.0444 213.942 97.4277C212.797 96.1061 211.564 94.8726 210.331 93.6391C209.539 92.9343 208.834 93.2867 208.218 94.0797C207.601 94.9607 206.896 95.7537 206.104 96.4585C202.581 99.4541 198.617 101.745 194.654 104.036C194.478 104.124 194.302 104.212 194.214 104.212C193.773 104.212 193.421 104.124 192.98 104.124C193.157 103.771 193.245 103.243 193.509 103.066C195.535 101.657 197.737 100.423 199.762 99.0136C202.14 97.2515 204.43 95.4894 206.28 93.1105C207.953 90.996 210.243 90.2911 212.621 92.4938C213.326 93.1986 213.942 93.9916 214.647 94.6964C214.999 95.1369 215.352 94.9607 215.792 94.7845C217.113 94.2559 218.434 93.6391 219.844 93.4629C221.781 92.9343 223.895 93.4629 226.097 94.344Z" fill="black"/>
<path d="M200.027 63.5065C199.499 59.1012 200.027 54.6959 200.908 50.3787C201.789 46.4139 203.374 42.8896 206.017 39.8059C206.281 39.5416 206.721 39.1011 207.073 39.1892C207.338 39.4535 207.25 39.9821 207.073 40.3346C205.488 44.5637 205.488 48.8809 206.545 53.2862C206.633 53.6386 206.721 53.991 206.809 54.5196C207.778 54.3434 208.835 54.1672 209.804 54.0791C210.156 54.0791 210.773 54.1672 210.949 54.4315C210.949 54.784 210.332 55.0483 209.98 55.1364C209.099 55.4007 208.218 55.5769 207.162 55.8412C207.426 56.6342 207.778 57.2509 208.042 57.9558C208.13 58.3082 208.307 58.8368 207.954 59.1893C207.338 59.1893 207.073 58.9249 206.897 58.6606C206.457 58.0439 206.193 57.4271 205.664 56.5461C204.872 57.0747 204.167 57.6915 203.462 58.2201C203.198 58.3963 202.758 58.5725 202.494 58.6606C202.141 58.3963 202.317 57.6915 202.494 57.5152C203.022 56.9866 203.639 56.5461 204.255 56.0174C204.607 55.7531 204.96 55.5769 205.4 55.3126C204.519 51.9646 203.815 48.6165 204.431 45.1804C204.343 45.1804 204.167 45.1804 204.079 45.0923C203.639 46.2377 203.198 47.3831 202.846 48.6165C201.613 53.1099 200.996 57.7796 201.172 62.4492C201.172 63.154 201.525 63.8589 201.613 64.5637C201.613 64.828 201.437 65.1805 201.349 65.5329C201.084 65.4448 200.82 65.3567 200.556 65.1805C199.763 64.6518 198.882 64.6518 198.53 65.5329C198.178 66.3258 197.826 67.295 198.002 68.088C198.178 69.2334 198.618 70.4668 199.147 71.5241C199.763 72.7576 201.172 73.1981 202.317 72.5814C203.286 72.0527 203.727 72.4933 203.991 73.3743C205.664 77.9558 208.835 81.1277 212.975 83.4184C214.296 84.1233 215.881 84.4757 217.378 84.9162C217.907 85.0924 218.435 85.1805 218.876 85.2686C219.492 85.3568 220.197 85.3568 220.813 85.1805C222.134 84.74 223.279 84.1233 224.601 83.5946C224.865 83.5065 225.217 83.6827 225.481 83.7708C225.393 84.1233 225.393 84.6519 225.217 84.8281C223.632 85.6211 221.958 86.3259 220.373 87.1189C218.611 87.9118 217.29 86.9427 215.881 86.2378C215.088 85.7973 214.12 85.6211 213.063 85.1805C213.063 86.7665 213.063 88.1761 213.063 89.5858C213.063 89.9383 213.063 90.3788 212.886 90.7312C212.71 90.9955 212.27 91.1718 212.006 91.4361C211.83 91.0836 211.477 90.8193 211.477 90.4669C211.389 88.7929 211.389 87.1189 211.477 85.4449C211.477 84.6519 211.037 84.2995 210.42 83.9471C207.426 82.0087 205.048 79.4536 203.55 76.1937C203.286 75.4889 203.022 74.784 202.846 74.2554C201.965 74.2554 201.084 74.2554 200.292 74.2554C200.027 74.2554 199.675 74.6078 199.675 74.784C198.794 78.2202 198.354 81.6563 198.53 85.1805C198.618 87.6475 199.411 90.0264 200.556 92.1409C200.644 92.3171 200.82 92.4052 200.82 92.5815C200.82 92.9339 200.644 93.2863 200.644 93.6387C200.292 93.5506 199.851 93.5506 199.675 93.2863C198.354 91.6123 197.473 89.5858 197.121 87.4713C196.416 83.3303 197.033 79.2774 198.09 75.3127C198.442 74.0792 198.53 73.11 197.826 71.8765C197.121 70.6431 196.769 69.0571 196.769 67.5593C196.681 64.9162 197.561 64.0351 200.027 63.5065Z" fill="black"/>
<path d="M241.863 90.6432C244.417 86.7666 246.531 82.7137 246.883 78.1322C247.059 76.0176 246.883 73.9031 246.619 71.8767C246.09 68.3524 245.386 64.9163 244.417 61.4801C243.184 57.2511 241.511 53.1982 240.101 49.0572C238.78 45.2686 236.843 41.6563 234.641 38.3083C233.848 37.0748 232.879 36.0175 231.998 34.784C231.734 34.4316 231.382 33.8149 231.734 33.3743C232.175 33.0219 232.879 33.4624 233.143 33.7267C235.257 36.0175 237.195 38.3964 238.428 41.3039C240.278 45.6211 242.303 49.9383 243.977 54.3436C246.09 59.8061 247.94 65.3568 248.38 71.348C248.557 73.5507 249.085 75.8414 248.909 78.0441C248.557 82.8018 247.147 87.2071 243.977 90.9076C243.272 91.7005 242.567 91.6124 241.863 90.6432Z" fill="black"/>
<path d="M189.194 82.4501C189.547 80.1593 189.899 76.9875 190.339 73.9038C190.956 69.939 191.66 66.0623 192.101 62.0976C192.365 59.8068 192.277 57.5161 192.453 55.1372C192.541 54.168 192.629 53.1108 192.894 52.1416C192.982 51.7892 193.246 51.3486 193.686 51.3486C194.038 51.4367 194.038 51.9654 194.038 52.3178C193.95 55.7539 193.95 59.2782 193.686 62.7143C193.422 66.0623 192.805 69.4104 192.365 72.8465C191.925 76.2826 191.308 79.6307 191.132 83.0668C190.868 87.1197 192.013 90.9082 193.598 94.6087C193.774 94.9611 193.95 95.2254 194.038 95.5779C194.038 95.8422 194.038 96.2827 193.862 96.3708C193.598 96.4589 193.07 96.4589 192.982 96.2827C192.453 95.5779 191.837 94.7849 191.484 93.992C190.075 90.4677 189.37 86.9435 189.194 82.4501Z" fill="black"/>
<path d="M230.061 31.0839C230.061 32.053 229.532 32.4936 229.004 32.053C226.361 29.9385 223.279 29.2337 219.932 28.7931C216.233 28.3526 212.71 28.6169 209.187 29.5861C207.425 30.1147 205.752 31.172 204.342 32.3174C200.996 35.0487 198.353 38.3967 196.504 42.3615C195.623 44.2998 195.183 46.5024 194.566 48.5289C194.478 48.8813 194.302 49.498 193.861 49.498C193.333 49.3218 193.333 48.7051 193.333 48.2646C193.95 43.0663 196.328 38.7491 199.674 34.7843C201.788 32.3174 204.166 30.2028 206.985 28.705C209.627 27.2953 212.445 27.031 215.352 26.8548C218.699 26.6786 222.134 27.031 225.304 28.0883C226.802 28.6169 228.123 29.498 229.532 30.2028C229.796 30.6434 229.972 30.9958 230.061 31.0839Z" fill="black"/>
<path d="M223.984 74.608C220.725 75.2248 217.467 75.8415 214.032 76.4582C215.353 78.0442 216.586 79.4539 218.612 79.7182C218.788 79.7182 218.964 79.6301 219.052 79.7182C219.316 79.8944 219.58 80.1587 219.845 80.423C219.492 80.5992 219.228 80.9517 218.876 80.9517C217.026 80.9517 215.441 80.2468 214.296 78.8371C213.767 78.1323 213.239 77.4274 212.799 76.7226C212.182 75.6653 212.358 75.2248 213.591 75.0486C215.793 74.6961 217.907 74.3437 220.109 73.9913C221.518 73.727 222.839 73.5508 224.248 73.2864C225.305 73.1102 225.746 73.4626 225.834 74.5199C225.922 76.5464 224.248 79.2776 222.311 79.8944C222.135 79.9825 221.782 79.8063 221.606 79.8063C221.694 79.542 221.694 79.1895 221.87 79.0133C222.399 78.3966 223.103 77.7798 223.544 77.075C223.984 76.3701 224.248 75.5772 224.513 74.7842C224.248 74.7842 224.16 74.6961 223.984 74.608Z" fill="black"/>
<path d="M243.095 75.3139C243.007 78.8382 241.774 81.9219 239.749 84.6532C238.692 86.0629 237.459 87.3845 236.314 88.7942C236.137 88.9704 235.873 89.2347 235.609 89.2347C235.169 89.3228 234.816 89.2347 234.376 89.2347C234.464 88.7942 234.376 88.3536 234.64 88.0012C236.226 85.6224 237.987 83.3316 239.572 80.9527C241.158 78.4858 241.598 75.5783 241.686 72.6708C241.686 72.3183 242.039 71.8778 242.215 71.5254C242.479 71.9659 242.831 72.3183 242.919 72.7589C243.007 73.5518 243.007 74.4329 243.095 75.3139Z" fill="black"/>
<path d="M225.657 52.67C225.217 53.8154 225.041 53.9035 224.072 53.4629C223.631 53.2867 223.015 53.2867 222.486 53.2867C222.134 53.2867 221.782 53.3748 221.429 53.3748C221.517 53.0224 221.517 52.67 221.606 52.3176C221.606 52.2294 221.694 52.0532 221.87 51.877C219.756 50.0268 218.171 47.736 216.849 45.2691C215.969 43.5951 215.352 41.8329 214.824 40.0708C214.56 39.4541 214.383 38.4849 215.44 37.8682C215.793 37.8682 215.704 38.3087 215.793 38.4849C216.233 42.0091 218.171 44.7404 220.02 47.5598C220.813 48.7052 221.87 49.7625 222.839 50.8198C223.191 51.1722 223.896 51.3484 224.512 51.3484C226.009 51.4365 227.507 51.3484 228.916 51.5246C229.532 51.6127 230.149 52.2294 230.765 52.5819C230.853 52.67 230.853 53.1105 230.765 53.2867C230.677 53.4629 230.149 53.4629 230.061 53.3748C228.74 52.3176 227.154 52.7581 225.657 52.67Z" fill="black"/>
<path d="M211.125 40.3354C211.213 43.5954 211.741 46.7672 213.15 49.7628C214.119 51.7892 215.264 53.8157 216.233 55.8421C216.321 56.1064 216.585 56.6351 216.145 56.8994C215.617 56.9875 215.264 56.7232 215.088 56.4588C213.943 54.6086 212.798 52.8465 211.917 50.9082C210.508 47.8244 209.804 44.4764 209.98 41.0403C209.98 40.5116 210.068 39.983 210.244 39.4544C210.332 39.1901 210.508 38.7495 210.86 38.8376C211.301 38.8376 211.125 39.3663 211.213 39.6306C211.301 39.8068 211.213 40.0711 211.125 40.3354Z" fill="black"/>
<path d="M203.286 82.5373C203.286 81.7443 203.286 80.9514 203.462 80.1584C203.55 79.806 203.903 79.5417 204.167 79.2773C204.431 79.5417 204.783 79.8941 204.871 80.1584C204.96 81.6562 204.96 83.0659 205.136 84.5637C205.312 85.8853 205.664 87.1188 205.928 88.4404C206.016 88.7928 205.928 89.2333 205.928 89.5858C205.488 89.4976 204.871 89.4095 204.783 89.1452C204.343 87.9998 203.903 86.8545 203.727 85.7091C203.374 84.7399 203.374 83.5945 203.286 82.5373Z" fill="black"/>
<path d="M235.257 81.4805C234.816 82.4497 234.552 83.4189 234.112 84.2118C233.319 85.5334 232.438 86.7669 231.558 87.9123C231.293 88.2647 230.677 88.2647 230.236 88.529C230.236 88.0885 230.06 87.4718 230.236 87.1193C231.117 85.5334 232.174 83.9475 233.143 82.3616C233.319 82.0092 233.407 81.6568 233.583 81.3043C233.848 80.9519 234.112 80.5995 234.376 80.2471C234.64 80.6876 234.993 81.04 235.257 81.4805Z" fill="black"/>
<path d="M225.481 58.4844C226.538 58.6606 227.859 58.9249 229.18 59.2773C229.533 59.3654 229.797 59.9822 230.061 60.3346C229.621 60.5108 229.18 60.9513 228.74 60.9513C227.419 60.8632 226.186 60.5989 224.865 60.4227C224.512 60.3346 224.072 60.4227 223.72 60.3346C223.368 60.2465 223.103 59.9822 222.751 59.806C223.015 59.4535 223.103 59.013 223.456 58.8368C224.072 58.6606 224.601 58.6606 225.481 58.4844Z" fill="black"/>
<path d="M212.358 61.393C211.829 61.7454 211.653 62.0098 211.389 62.0979C209.98 62.8027 208.482 63.4195 206.985 64.1243C206.457 64.3886 205.84 64.6529 205.488 64.0362C205.312 63.6838 205.576 62.9789 205.928 62.7146C207.425 61.5692 209.187 60.9525 211.036 60.8644C211.477 60.7763 211.829 61.1287 212.358 61.393Z" fill="black"/>
<path d="M218.699 70.2031C219.14 70.4674 219.756 70.7318 219.844 71.0842C220.02 71.8771 219.316 72.0533 218.699 72.1415C218.435 72.2296 217.995 72.3177 217.818 72.1415C217.466 71.9652 217.202 71.5247 216.85 71.2604C217.202 70.9961 217.466 70.6437 217.818 70.4674C217.995 70.3793 218.259 70.3793 218.523 70.3793C218.611 70.3793 218.611 70.2912 218.699 70.2031Z" fill="black"/>
<path d="M203.99 141.92C202.933 140.775 201.876 139.806 201.083 138.572C200.026 136.986 198.617 136.81 196.944 136.986C194.918 137.251 194.83 137.427 196.063 139.189C197.648 141.568 199.234 143.947 200.907 146.238C201.259 146.766 201.259 147.295 200.995 147.912C200.203 149.497 199.498 151.083 198.705 152.669C198.617 152.846 198.441 152.934 198.265 153.022C196.503 153.903 194.83 155.048 192.98 155.665C191.659 156.105 190.074 155.929 188.665 156.105C187.872 156.194 186.991 156.194 186.199 156.282C185.494 156.37 185.318 156.017 185.23 155.401C184.701 151.7 184.173 148 183.556 144.387C182.587 138.396 181.619 132.493 180.65 126.502C180.209 123.859 179.681 121.304 179.417 118.66C179.329 117.779 179.945 116.722 180.209 115.753C180.209 115.665 180.474 115.577 180.65 115.577C186.287 114.607 191.923 113.638 197.648 112.669C201.524 112.052 205.487 111.436 209.362 110.819C212.621 110.29 215.792 109.762 219.051 109.233C220.636 108.969 222.398 110.202 222.662 111.876C223.014 114.431 223.366 116.986 223.631 119.63C224.247 124.475 224.776 129.321 225.304 134.255C225.392 135.048 225.04 135.312 224.511 135.665C222.926 136.458 221.341 137.339 219.667 138.044C218.61 138.484 217.906 139.101 217.289 139.982C216.497 141.039 215.792 142.273 214.911 143.154C213.854 144.123 212.621 144.916 211.388 145.709C210.684 146.238 209.891 146.678 209.098 147.207C208.922 147.295 208.746 147.471 208.57 147.383C207.865 147.295 206.896 145.356 207.249 144.652C208.57 142.008 209.979 139.365 211.3 136.722C211.388 136.546 211.476 136.37 211.476 136.282C211.564 135.753 211.652 135.224 211.74 134.608C211.036 134.608 210.331 134.431 209.627 134.519C208.041 134.784 207.161 135.665 206.544 137.163C205.839 138.749 204.871 140.246 203.99 141.92Z" fill="white"/>
<path d="M227.154 399.543C225.393 396.9 224.776 393.904 224.072 390.909C223.367 388.177 223.455 385.534 224.424 382.891C225.305 380.512 226.097 378.045 226.978 375.666C227.947 372.935 229.18 370.204 229.885 367.384C230.589 364.565 231.118 361.569 231.382 358.662C231.558 356.371 231.206 354.08 231.03 351.79C230.765 348.618 230.501 345.534 230.325 342.45C230.325 342.186 230.325 341.922 230.413 341.569C233.848 344.653 237.547 347.032 242.303 347.825C241.687 350.292 241.158 352.671 240.542 355.05C239.925 357.781 239.309 360.512 239.221 363.42C239.133 365.71 238.78 367.913 238.604 370.204C238.252 373.552 238.34 376.812 239.309 379.984C239.749 381.305 240.013 382.539 239.573 383.948C239.397 384.389 239.573 384.918 239.661 385.358C239.837 387.12 238.604 388.177 237.547 389.323C234.905 392.23 232.175 394.962 229.356 397.781C228.74 398.486 227.947 399.014 227.154 399.543Z" fill="white"/>
<path d="M178.536 123.331C180.034 134.168 181.531 145.005 183.116 156.106C182.06 154.785 180.738 155.402 179.593 155.225C178.713 155.137 177.744 155.314 176.863 155.225C174.485 155.137 172.283 155.842 170.257 156.988C170.081 157.076 169.905 157.076 169.993 157.076C172.723 145.886 175.63 134.521 178.536 123.331Z" fill="white"/>
<path d="M181.619 157.693C175.63 158.397 172.195 162.715 168.231 166.856C168.496 164.124 168.76 161.657 169.024 158.926C171.226 158.309 173.34 157.605 175.63 157.252C177.567 156.988 179.593 157.164 181.531 157.164C181.531 157.34 181.531 157.516 181.619 157.693Z" fill="white"/>
<path d="M234.73 164.741C233.408 165.181 232.175 165.622 230.854 166.062C230.59 164.036 230.326 162.098 230.062 160.159C230.062 159.983 230.15 159.807 230.326 159.719C231.559 158.926 232.88 158.221 234.377 157.34C233.937 158.75 233.585 159.983 233.144 161.217C232.792 162.274 232.968 163.067 233.849 163.772C234.113 163.948 234.289 164.3 234.73 164.741Z" fill="white"/>
<path d="M226.098 141.569C226.186 143.067 226.362 144.301 226.362 145.622C226.362 145.887 226.01 146.327 225.745 146.415C224.689 146.503 223.72 146.503 222.663 146.415C222.575 146.415 222.311 145.887 222.399 145.71C223.191 143.948 224.248 142.539 226.098 141.569Z" fill="white"/>
<path d="M218.26 163.066C216.146 162.802 214.032 162.45 212.006 162.362C211.302 162.273 210.509 162.626 209.716 162.89C209.276 162.978 208.659 163.419 208.395 162.714C208.131 162.009 208.659 161.745 209.1 161.569C210.333 161.128 211.566 160.688 213.063 160.952C215.001 161.216 217.026 161.04 218.964 161.128C220.373 161.128 221.694 161.128 223.104 161.216C223.368 161.216 223.808 161.657 223.808 161.833C223.808 162.097 223.456 162.538 223.192 162.714C222.663 162.89 222.135 162.89 221.518 162.978C220.461 162.978 219.316 162.978 218.26 162.978C218.26 162.89 218.26 162.978 218.26 163.066Z" fill="black"/>
<path d="M198.794 167.471C198.618 167.383 198.265 167.295 198.177 167.119C198.089 166.854 198.177 166.502 198.353 166.326C198.794 165.885 199.234 165.533 199.762 165.268C201.084 164.563 202.405 163.859 203.726 163.154C204.254 162.889 204.871 162.801 205.135 163.418C205.487 164.123 205.047 164.563 204.519 164.828C202.845 165.621 201.172 166.414 199.586 167.207C199.322 167.295 199.146 167.383 198.794 167.471Z" fill="black"/>
<path d="M71.7874 65.8133L72.2731 60.3284L87.432 61.6344L75.6049 53.0953L75.8382 50.4611L88.6539 44.1405L73.823 42.8272L74.3087 37.3422L99.5682 39.5791L99.14 44.4145L82.6058 52.4787L97.4783 63.1787L97.0533 67.978L71.7874 65.8133Z" fill="black"/>
<path d="M73.6835 83.6616C73.0232 77.5022 76.6829 72.5557 82.5181 71.9303C88.3533 71.3048 92.9782 75.3633 93.6385 81.5227C94.2987 87.6821 90.6352 92.5925 84.8 93.218C78.9647 93.8435 74.3437 89.821 73.6835 83.6616ZM78.294 83.1674C78.5952 85.977 80.8401 87.8859 84.1899 87.5269C87.5398 87.1678 89.3291 84.8264 89.0279 82.0169C88.7268 79.2073 86.478 77.2623 83.1282 77.6214C79.7783 77.9805 77.9928 80.3579 78.294 83.1674Z" fill="black"/>
<path d="M83.0725 109.126L79.4613 111.396C78.4178 110.422 77.6947 108.83 77.3552 107.124C76.4572 102.612 78.2433 99.5234 82.7911 98.6183L90.6431 97.0555L90.0561 94.1066L94.3197 93.258L94.9066 96.2069L99.5609 95.2806L100.664 100.823L96.0097 101.75L96.9573 106.51L92.6937 107.359L91.7462 102.598L83.9652 104.147C82.3309 104.472 81.6194 105.537 81.9164 107.029C82.0791 107.846 82.4904 108.614 83.0725 109.126Z" fill="black"/>
<path d="M81.9804 124.892C80.1286 118.981 82.7505 113.414 88.3507 111.66C93.951 109.905 99.2802 112.981 101.132 118.893C102.984 124.804 100.351 130.336 94.7509 132.091C89.1506 133.845 83.8323 130.804 81.9804 124.892ZM86.4054 123.506C87.2501 126.203 89.8249 127.636 93.0399 126.629C96.2549 125.621 97.5518 122.975 96.7071 120.279C95.8624 117.582 93.2768 116.115 90.0618 117.122C86.8468 118.129 85.5607 120.81 86.4054 123.506Z" fill="black"/>
<path d="M94.4114 153.662L98.3754 144.682L94.7466 143.499L90.3373 145.777L87.7432 140.756L111.624 128.418L114.218 133.438L100.701 140.423L111.444 144.169L114.537 150.155L103.474 146.737L97.5543 159.745L94.4114 153.662Z" fill="black"/>
<path d="M121.627 158.305C125.51 162.801 125.676 167.205 121.208 171.065L112.791 178.335L109.334 174.332L111.171 172.746C109.141 173.111 107.102 172.191 105.231 170.026C102.248 166.571 102.391 162.857 104.94 160.655C107.545 158.406 110.941 158.679 114.824 163.176L117.76 166.575C119.597 164.988 119.719 162.968 117.73 160.665C116.38 159.103 114.462 157.935 112.689 157.6L114.351 153.484C116.9 154.107 119.59 155.947 121.627 158.305ZM109.033 168.608C110.265 170.034 111.988 170.699 113.758 170.032L115.266 168.73L112.732 165.797C111.003 163.795 109.718 163.804 108.731 164.657C107.662 165.58 107.731 167.1 109.033 168.608Z" fill="black"/>
<path d="M40.3147 277.558C36.3769 283.597 30.5826 284.922 24.3317 280.845L12.4367 273.088L15.6424 268.173L27.3553 275.811C31.3911 278.442 34.2077 277.771 36.1469 274.797C38.106 271.793 37.5649 268.975 33.5291 266.343L21.8162 258.705L24.9823 253.85L36.8773 261.607C43.1282 265.683 44.2525 271.52 40.3147 277.558Z" fill="black"/>
<path d="M41.4274 243.458C45.0964 239.401 50.8411 238.882 55.382 242.988C59.9229 247.094 59.9819 252.862 56.3129 256.919C54.5634 258.854 52.5361 259.854 50.3257 259.759L51.9915 261.266L48.3711 265.269L28.4343 247.24L32.2248 243.049L39.2376 249.391C39.0273 247.247 39.7994 245.259 41.4274 243.458ZM52.2176 254.535C54.1128 252.439 54.0417 249.493 51.5429 247.233C49.0441 244.974 46.1058 245.198 44.2106 247.294C42.3153 249.39 42.3864 252.336 44.8853 254.595C47.3841 256.855 50.3223 256.631 52.2176 254.535Z" fill="black"/>
<path d="M62.5658 223.626L66.839 219.928L79.5931 234.665L75.539 238.174L74.0218 236.421C74.0129 238.68 72.9621 240.787 71.1542 242.352C67.4562 245.552 63.0522 245.723 59.1169 241.175L51.9102 232.848L56.1834 229.15L62.8449 236.847C64.9785 239.312 67.0224 239.46 68.9125 237.824C70.8848 236.117 71.2187 233.625 68.8717 230.913L62.5658 223.626Z" fill="black"/>
<path d="M94.5452 224.265L85.1684 221.362L84.4109 225.103L87.1817 229.22L82.4931 232.375L67.4864 210.075L72.175 206.92L80.6693 219.543L83.1534 208.44L88.7436 204.678L86.6225 216.061L100.226 220.443L94.5452 224.265Z" fill="black"/>
<path d="M100.17 198.369C105.487 195.718 109.796 196.646 112.431 201.93L117.394 211.882L112.661 214.243L111.578 212.071C111.43 214.128 110.035 215.876 107.474 217.154C103.389 219.191 99.8259 218.134 98.3223 215.119C96.7864 212.039 97.8914 208.816 103.208 206.165L107.228 204.16C106.145 201.988 104.218 201.371 101.494 202.729C99.6465 203.65 98.041 205.22 97.2778 206.856L93.7002 204.227C94.9339 201.912 97.3824 199.76 100.17 198.369ZM107.04 213.119C108.726 212.278 109.797 210.773 109.588 208.893L108.699 207.11L105.23 208.84C102.864 210.02 102.555 211.268 103.137 212.435C103.767 213.699 105.257 214.008 107.04 213.119Z" fill="black"/>
<path d="M129.536 202.229L132.311 205.468C131.501 206.643 130.032 207.592 128.395 208.178C124.063 209.728 120.745 208.414 119.183 204.049L116.486 196.511L113.655 197.524L112.19 193.431L115.021 192.418L113.422 187.949L118.743 186.045L120.342 190.514L124.912 188.878L126.377 192.971L121.807 194.607L124.48 202.076C125.041 203.645 126.199 204.193 127.631 203.68C128.416 203.399 129.115 202.88 129.536 202.229Z" fill="black"/>
<path d="M138.246 184.665C144.058 183.437 147.995 185.419 149.216 191.196L151.515 202.077L146.341 203.171L145.839 200.796C145.178 202.75 143.388 204.091 140.588 204.683C136.122 205.627 132.939 203.707 132.243 200.411C131.531 197.044 133.412 194.203 139.224 192.975L143.619 192.046C143.117 189.671 141.408 188.588 138.43 189.218C136.41 189.645 134.461 190.76 133.311 192.151L130.51 188.707C132.286 186.776 135.198 185.309 138.246 184.665ZM141.184 200.669C143.027 200.28 144.442 199.092 144.713 197.22L144.301 195.271L140.508 196.073C137.921 196.619 137.308 197.749 137.578 199.025C137.87 200.407 139.234 201.081 141.184 200.669Z" fill="black"/>
</svg>
