<svg xmlns="http://www.w3.org/2000/svg" width="172.74" height="585.243"><path fill="#fff" d="M81.833 502.659c-.142.6 1.4 15.45 1.4 15.45l.823 5.922-4.957 4.292-.206 8.69-1.324 8.036.6 12.286 3.66 13.051 1.234 5.125 4.461 1.872 16.742 2.752s21.92 3.554 21.989 3.554 5.742 1.466 5.742 1.466l24.557-5.916 6.718-1.73 8.374-7.124-2.489-11.6-5.915-2.757-11.6-.174-10.546-6.523 1.55-5.447-9.565-6.053-6.328-.839-4.218-6.459-10.3-1.972-4.461-.084.6-20.6Z" data-name="パス 944"/><path fill="#fff" d="m124.618 267.766 16.99-4.883 2.331-1.165-3.491-26.292-6.169-21.171-6.491-13.726-.142-32.577-3.765-27.177-5.712-15.535-5.832-9.766-1.909-4.45 5.595-14.369 9.159 2.542 6.744-4.772 3.428-3.781 5.342-11.116.909-4.888 2.331-1.65 5.278-12.719 1.529-9.792-3.688-12.461-7.794-11.791-19.421-6.9-23.782 3.623-8.242 2.536L76.211 47.43l-.765 13.61 5.98 16.663.38 2.927 4.081-1.1-.264 6.628 4.962-1.339-4.2 11.833-14.359 2.953-1.682 1.872-5.073 32.693 34.85 119.3 17.011 15.392Z" data-name="パス 945"/><path d="M119.72 547.153c-2.9 2.636-6.159 3.691-9.492 4.551-.443.116-1.028-.3-1.55-.459.232-.527.332-1.271.722-1.482 1.113-.6 2.368-.939 3.533-1.45 1.5-.659 2.958-1.424 4.466-2.072a23.826 23.826 0 0 1 2.463-.749c.2-1.186.453-2.663.775-4.551-1.392.67-2.489 1.091-3.464 1.7s-1.608.9-2.315-.4c-.6-1.107-1.635-1.972-2.346-3.027a8.607 8.607 0 0 1-1.287-2.668 2.109 2.109 0 0 1 .58-1.766c1.777-1.445 3.66-2.747 6.127-2.689 1.387.032 2.779 0 4.218 0a5.973 5.973 0 0 0-6.987-2.283 4.864 4.864 0 0 1-2.141-.227c-.5-.09-.986-.285-1.482-.411-1.788-.453-2.932.585-4.145 1.656a10.939 10.939 0 0 1-2.362 1.287c-.9.448-1.339 1.055-.675 2 1.751 2.547 3.48 5.115 5.273 7.635.7.981.232 3.079-1.107 3.391a51.965 51.965 0 0 1-7.066.954c-.385.037-1.208-.654-1.16-.859a1.972 1.972 0 0 1 .97-1.36 31.283 31.283 0 0 1 3.918-.733c.5-.084.991-.126 1.772-.216-1.018-1.824-1.972-3.438-2.821-5.1s-2.109-3.2-2.03-5.347a2.816 2.816 0 0 1 1.16-2.373c1.2-.907 2.441-1.777 3.691-2.637.527-.364.717-.585.453-1.345a9.784 9.784 0 0 1-.274-3.085c-.026-3.623 0-7.25 0-11.131-4.814.327-9.766.643-14.332-1.946l-.343.316c.163 1.329.29 2.637.5 3.976.559 3.4 1.218 6.786 1.7 10.2a10.822 10.822 0 0 1-.169 3.517c-.1.527-.765.944-1.171 1.413-.369-.432-.917-.807-1.055-1.3a15.381 15.381 0 0 1-.459-2.795c-.448-3.86-.865-7.725-1.318-11.6-.169-1.445.026-3.206-.743-4.218s-2.5-1.35-3.844-1.909a26.057 26.057 0 0 0-2.589-.765c.686 4.466 1.376 8.7 1.962 12.945.174 1.255 0 2.552.079 3.823a3 3 0 0 0 .527 1.55c.569.759 1.36 1.345 1.925 2.109.48.654.833 1.455-.074 2.109s-1.476.2-1.988-.527c-.849-1.171-1.672-2.357-2.637-3.691-1.266 1.582-2.531 3.053-3.66 4.624-.221.306 0 1.055.169 1.5a14.875 14.875 0 0 1 .87 7.092 3.534 3.534 0 0 1-.786 1.946 4.635 4.635 0 0 0-1.171 3.807c.3 3.543.738 7.082 1.018 10.625.111 1.392.142 2.747 1.223 3.8.643.627 1.292 1.25 1.914 1.851.3-.279.359-.311.359-.343.069-4.023.163-8.047.158-12.07 0-.527-.633-1.012-.791-1.582-.965-3.417-1.055-6.807.743-10.019a22.479 22.479 0 0 1 2.637-3.891 9.007 9.007 0 0 1 2.589-1.4c-.084-1.281 1-2.146 2.072-2.974.227-.174.97-.127 1.055.047a1.582 1.582 0 0 1 .153 1.323 23.057 23.057 0 0 1-2.109 2.283c2.484 3.259 5 6.575 7.541 9.882.4.527 1.012.917 1.234 1.482a6.445 6.445 0 0 1 .127 1.962c-.7 0-1.719.279-2.056-.079a23.916 23.916 0 0 1-5.315-7.751c-.6-1.582-1.392-2.8-3.074-2.784-.606 1.355-1.1 2.673-1.777 3.876-.285.527-1.176.654-1.461 1.15a4.535 4.535 0 0 0 .765 5.125c5.247 4.941 11.3 8.231 18.572 9.017a24.133 24.133 0 0 1 2.763.364 1.376 1.376 0 0 1 .812.823c.074.216-.221.712-.48.849-1.181.643-2.41 1.208-3.612 1.8 1.244 1.582 2.753 3.375 4.145 5.273a41.378 41.378 0 0 1 2.784 4.329c.527.975-.042 1.693-1.2 2.315 2.172.717 4.118 1.387 6.09 2a41.174 41.174 0 0 0 4.25 1.16c1.582.311 3.253.432 4.883.638.791.095 1.687.3 1.482 1.266-.095.443-.933.923-1.5 1.055-3.385.648-6.581-.469-9.771-1.324-2.368-.633-4.661-1.555-7-2.283-1.055-.327-1.946-.865-1.777-2.009s1.266-1.054 2.188-1.023a2.742 2.742 0 0 0 .527-.2c-.791-1.112-1.545-2.162-2.289-3.222-1.266-1.8-2.542-3.612-3.8-5.426a5.836 5.836 0 0 0-5.858-2.557c-3.122.348-5.827-.817-8.463-2.262-.775-.427-1.524-.9-2.41-1.424-.221 1.582-.121 3.1-.686 4.308-.68 1.471-.258 2.779-.058 4.129a1.809 1.809 0 0 0 1.113 1.165c4.593 1.308 9.223 2.5 13.815 3.823.643.185 1.751.332 1.419 1.534s-1.244 1.123-2.109.928c-3.6-.807-7.182-1.687-10.783-2.473a18.842 18.842 0 0 0-2.695-.2c-.865 1.5-1.619 1.535-2.731.137.248 1.7.585 3.391.717 5.1.069.917.854 2.32-.664 2.668-1.429.322-1.629-1.1-2-2.078-.2-.527-.343-1.055-.527-1.724-1.055.8-1.9.39-2.779-.348a3.642 3.642 0 0 0-1.7-.649 2.592 2.592 0 0 1-2.183-2.3 13.288 13.288 0 0 1-.253-3.791c.2-2.151.643-4.287.965-6.433a1.878 1.878 0 0 1 1.983-1.835c-.2-2.188-.464-4.329-.58-6.481a22.321 22.321 0 0 1 .733-7.783c.886-2.948 1.44-6.154.338-9.159-.833-2.283.095-3.77 1.44-5.273 1.176-1.3 2.468-2.484 3.66-3.765a1.524 1.524 0 0 0 .232-1.055c-.322-3.633-.722-7.261-.991-10.894-.127-1.677 0-3.364 0-5.495l-2.637-.243a1.062 1.062 0 0 1-.4-.047 36.009 36.009 0 0 1-3.333-2.236 2.151 2.151 0 0 1-.475-1.529c.084-3.86.327-7.72.332-11.6 0-6.391-.037-12.787-.243-19.173-.132-4-.765-7.994-.87-12-.116-4.25.148-8.511.216-12.766.047-3.043.153-6.1.037-9.133-.243-6.38-.633-12.75-.933-19.125-.174-3.781-.385-7.567-.4-11.348 0-2.3.438-4.6.5-6.908.079-2.969.095-5.948-.09-8.906s-.627-5.8-1-8.732c-.559-4.419-1.1-8.843-1.735-13.251-.659-4.572-1.582-9.117-2.109-13.71-.564-5.057-.791-10.156-1.176-15.234-.216-2.848-.453-5.69-.691-8.537a32.04 32.04 0 0 0-.8-5.495c-.348.686-.67 1.376-1.055 2.046a8.542 8.542 0 0 1-3.765 3.776c-1.534.754-2.689 2.273-4.218 3.058a36.5 36.5 0 0 1-5.663 2.025A29.05 29.05 0 0 1 47 337.798c-3.5.58-7 1.213-10.52 1.545-3.021.279-6.032.527-9.1-.417-1.925-.575-4.15-.069-6.222-.243-1.513-.127-2.99-.606-4.493-.87a28.216 28.216 0 0 0-4.218-.591c-4.493-.116-7.382-2.726-10.135-5.906-2.2-2.552-2.389-5.437-2.3-8.511.174-6.27.348-12.545.453-18.814.105-6.454.026-12.908.237-19.357.148-4.588.691-9.165.96-13.752.4-6.855.7-13.71 1.055-20.565.248-4.519.675-9.038.807-13.562.142-5.02-.042-10.045.074-15.07.169-7.351.527-14.7.717-22.052.09-3.137-.084-6.291.047-9.428a61.389 61.389 0 0 1 2.067-13.183c2.109-7.91 5.663-15.218 9.623-22.347 1.1-1.977 1.824-4.16 2.821-6.2a162.757 162.757 0 0 1 3.928-7.54 22.031 22.031 0 0 0 2.763-11.358c-.127-8.4-.2-16.795-.3-25.195-.042-3.617-.074-7.229-.174-10.847-.206-7.409-.527-14.812-.654-22.221-.105-6.8 0-13.6 0-20.4 0-4.746-.148-9.518-.153-14.274s0-9.423.153-14.132c.095-3.475.253-6.955.633-10.4a12.464 12.464 0 0 1 1.524-5.2 6.5 6.5 0 0 1 4.1-3.127c4.387-.965 8.653-2.473 13.046-3.406a19.7 19.7 0 0 1 9.84.585 2.557 2.557 0 0 1 1.055.67c2.109 2.236 3.5 4.656 3.217 7.957a70.191 70.191 0 0 0 .2 7.509c.069 3.116.084 6.238.153 9.36a39.991 39.991 0 0 1 .142 6.143c-.8 5.737-.09 11.416.19 17.122.258 5.183.364 10.377.48 15.566q.153 6.976.174 13.953c0 3.306-.095 6.607-.09 9.913 0 5.273.19 10.594.079 15.888-.121 5.9-.564 11.8-.722 17.691-.079 3.032.163 6.069.232 9.107a46.233 46.233 0 0 0 .227 4.994c.765-1.529 1.656-3.011 2.262-4.6 1.1-2.884 2.109-5.8 3-8.764.78-2.637 1.287-5.357 1.993-8.026.976-3.691 2.025-7.382 3.027-11.073.185-.686.221-1.413.443-2.083.116-.337.485-.591.738-.886.316.29.875.559.9.875a9.682 9.682 0 0 1-.153 2.673c-.833 4.187-1.73 8.363-2.589 12.545-.084.411-.079.844-.137 1.487 4.846-4.392 10.747-5.379 16.689-6.148a13.71 13.71 0 0 1 3.76.2c2.731.417 5.589.564 8.131 1.519 3.079 1.165 5.273 3.765 7.509 6.175.322.348.675.664.981 1.028.838 1 1.672 2 2.484 3.021.527.628.939 1.318 1.455 1.935a6.565 6.565 0 0 1 1.419 4.377 32.438 32.438 0 0 0 1.2 7.256 33.641 33.641 0 0 1 .986 14.5c-.048.258-.063.627-.232.743-1.656 1.16-1.956 2.9-1.9 4.688.09 2.858.348 5.711.527 8.563a48.443 48.443 0 0 1-.865 13.061c-.374 1.761-1.334 2.267-2.383 1.434-.285-.227-.353-.712-.564-1.055s-.527-.728-.786-1.086l-.485.116q-.475 2.7-.944 5.389c-.886 5.052-1.793 10.1-2.637 15.155-.527 3.164-.933 6.328-1.556 9.428a33.94 33.94 0 0 1-1.582 4.609c1.35 4.071 2.742 8.527 4.3 12.919 1.482 4.171 3.164 8.273 4.746 12.429 1.882 5.089 5.062 9.581 6.6 14.833.675 2.294 1.809 4.45 2.637 6.7a18.54 18.54 0 0 1 .422 2.257 5.531 5.531 0 0 0 .411 1.012c.807.2 1.772.258 1.814.49a6.663 6.663 0 0 1-.348 2.141 10.014 10.014 0 0 0 1.5-.77 12.633 12.633 0 0 1 6.444-2.257c3.48-.38 6.908-1.208 10.362-1.814 1.255-.221 2.521-.364 3.739-.527-.343-3.38-.622-6.744-1.055-10.087-.527-4.218-1.144-8.437-1.788-12.655-.527-3.507-.981-7.045-1.793-10.488-.707-2.985-1.988-5.832-2.805-8.8-1.055-3.913-3.164-7.324-4.9-10.926a35.388 35.388 0 0 1-3.417-13.093c-.464-7.1-.87-14.237-1.424-21.308-.311-4.071-.859-8.131-1.308-12.191-.6-5.421-1.023-10.863-1.846-16.246-1.139-7.43-2.426-14.854-6.275-21.514-.216-.369-.063-.949-.079-1.434.443.163 1.1.19 1.3.5 1.16 1.84 2.236 3.739 3.311 5.637 2.109 3.744 2.958 7.91 3.728 12.07 1.086 5.874 1.951 11.791 2.842 17.7.733 4.862 1.524 9.724 1.993 14.612.422 4.392.343 8.827.67 13.235.3 4.044.849 8.073 1.26 12.128.527 5.078 3.069 9.354 5.247 13.8a46.4 46.4 0 0 1 2.489 6.855c1.086 3.575 2.2 7.156 3 10.8.933 4.218 1.635 8.527 2.252 12.824.559 3.881.849 7.8 1.3 11.7a25.654 25.654 0 0 0 .685 4.219 7.783 7.783 0 0 1-.153 4.192c-.106.411-1 .786-1.582.881-1.851.316-3.728.443-5.574.759a1.376 1.376 0 0 0-.844 1c-.111 8.02-.216 16.041-.185 24.061a15.378 15.378 0 0 0 .944 4.4 24.467 24.467 0 0 1 1.1 8.964c-.343 5.415-.527 10.836-.875 16.246-.216 3.243-.675 6.46-.986 9.7-.432 4.477-.849 8.964-1.223 13.436-.427 5.157-.765 10.325-1.192 15.477s-.923 10.166-1.366 15.25c-.475 5.437-.9 10.873-1.4 16.3-.343 3.76-.817 7.514-1.176 11.279-.258 2.668-.38 5.352-.638 8.026-.422 4.424-.976 8.838-1.339 13.267-.243 2.99-.258 6-.364 9a24.35 24.35 0 0 1-.786 6.755 15.856 15.856 0 0 0-.227 4.577c-.032 4.34 0 8.685-.084 13.025-.042 1.719-.459 3.428-.6 5.152-.169 2.051-.3 4.113-.327 6.175-.116 7.947-.174 15.888-.274 23.834-.063 4.746-.169 9.544-.279 14.316-.042 1.708-.569 1.988-2.183 2.426a20.5 20.5 0 0 0-3.923 1.93c-1.956 1.055-3.844 2.02-6.233 1.909a17.4 17.4 0 0 0-4.445.875c.227 4.688.453 9.492.7 14.543a49.439 49.439 0 0 0 6.328.348c2.869-.174 4.846 1.371 6.855 2.937a12.871 12.871 0 0 1 4.3 5.537c.527 1.318 1.893 1.1 2.7.955 2.747-.5 4.962.675 7.14 1.9a27.275 27.275 0 0 1 4.129 3.011c2.3 1.946 2.5 4.508.5 7.1 2.637 1.445 5.157 2.974 7.809 4.261a40.85 40.85 0 0 0 5.468 1.956 3.443 3.443 0 0 1 2.444 2.978c.121 4.218-2.42 7.519-7.1 7.424a21.444 21.444 0 0 1-3.955-.322c-.5-.105-.849-.891-1.266-1.366a5.934 5.934 0 0 1 1.619-.654c1.677-.153 3.375-.063 5.041-.269 2.589-.316 3.069-2.4 3.617-4.345.063-.216-.427-.738-.759-.886-.68-.311-1.482-.364-2.141-.7a4.628 4.628 0 0 0-4.382.042 19.662 19.662 0 0 1-5.8 1.281 2.605 2.605 0 0 1-2.874-2.636 6.077 6.077 0 0 1 .833-2.014l-3.554.4a3.006 3.006 0 0 1-3.58-3.111 4.273 4.273 0 0 1-1.672-.148c-.448-.243-.649-.859-1.107-1.287-.063 1.661.09 3.48-1.835 4.029a26.643 26.643 0 0 1-4.856.527c.253 1.724.527 3.586.828 5.437.037.221.453.353.638.575.3.364.786.781.765 1.144s-.527.8-.881 1.107c-.77.643-1.629 1.187-2.394 1.84-1.582 1.339-3.069 2.768-4.677 4.06a1.55 1.55 0 0 1-1.5.047 1.777 1.777 0 0 1-.253-1.524 2.884 2.884 0 0 1 1-1.308c3.412-2.79 3.311-2.768 2.853-7.05-.306-2.863-.237-5.763-.369-8.648a14.675 14.675 0 0 0-.299-1.87Zm-11.917-369.827c.2-2.325.527-4.54.527-6.75 0-6.481-.142-12.966-.19-19.447 0-3.006-.29-5.827-2.589-8.189-2.051-2.109-3.638-4.7-5.763-6.728a25.558 25.558 0 0 0-6.064-4.166 20.929 20.929 0 0 0-5.98-1.8 14.164 14.164 0 0 0-5.009.153c-1.83.374-3.533 1.339-5.352 1.8a10.485 10.485 0 0 0-7.461 5.922 29.121 29.121 0 0 1-2.942 5.431c-1.461 1.925-3.058 3.66-3.164 6.249a24.211 24.211 0 0 1-.475 3.238c-.527 2.731-1.055 5.463-1.55 8.194-.654 3.433-1.118 6.918-2.051 10.272-.427 1.529-.912 3.29-2.452 4.377-.237.169-.037 1.055.09 1.619s.569 1.007.6 1.519c.169 3.19.38 6.38.348 9.565a77.731 77.731 0 0 0 1.055 14.67c.817 4.551 1.308 9.154 1.882 13.742.3 2.378.459 4.746.7 7.382 1.371-3.122 2.536-6.027 3.892-8.832 2.61-5.4 5.357-10.747 7.978-16.146a15.251 15.251 0 0 0 1.708-4.566c.527-4.382.78-8.8 1.165-13.183.153-1.745.38-3.485.585-5.379a5.654 5.654 0 0 0-1.055.343c-1.508.912-3 1.846-4.493 2.779-.817.527-1.513 1.223-2.673.881a2.049 2.049 0 0 1-1.687-2.357c.042-.891-.142-1.793-.121-2.684.074-3.865.153-7.73.327-11.6 0-.527.527-1.055.844-1.582a5.014 5.014 0 0 1 .765 1.635c.148 1.556.153 3.127.169 4.688v7.572a19.882 19.882 0 0 0 2.389-1.213 17.522 17.522 0 0 1 8.743-3.021 37.961 37.961 0 0 1 5.742-.127 44.465 44.465 0 0 1 7.509.791 71.522 71.522 0 0 1 7.82 2.6c2.02.724 4.044 1.52 6.233 2.348Zm-5.431 96.4a8.8 8.8 0 0 0-.343-.849c-1.809-3.427-3.749-6.8-5.415-10.293-2-4.192-3.691-8.527-5.669-12.734-2.109-4.5-4.44-8.885-6.5-13.4-2.436-5.342-4.7-10.757-7-16.157-.58-1.366-1.012-2.8-1.513-4.218l-.406-.042c-1.882 4.023-3.691 8.084-5.674 12.06a42.95 42.95 0 0 1-4.055 6.945 9.268 9.268 0 0 0-2.241 5.621c0 5.41.264 10.82.448 16.225a1.635 1.635 0 0 0 .427.865q2.109 2.584 4.292 5.136c1.26 1.482 2.637 2.874 3.76 4.44a2.52 2.52 0 0 1 .297 2.242c-.48.733-1.476.707-2.2-.084-.643-.7-1.387-1.313-1.951-2.067-2.315-3.1-4.577-6.228-6.855-9.349a8.243 8.243 0 0 1-1.376-1.946 11.715 11.715 0 0 1-.248-2.584 1.872 1.872 0 0 0-.564 1.139c-.037 3.691-.907 7.287.169 11.073.891 3.132.712 6.581.918 9.892.337 5.484.617 10.973.891 16.468.169 3.485.274 6.971.4 10.2 2.109 1.176 3.079 0 4-1.313.322-.469.833-.8 1.176-1.255 1.846-2.42 4.129-4.566 4.746-7.757a3.475 3.475 0 0 1 2.067-2.758c1.35-.569 2.637-1.3 4.034-1.751 4.872-1.582 9.1-4.414 13.488-6.9 3.681-2.083 7.182-4.487 10.9-6.844Zm-22.964-98.248c-.169 5.067-.432 10.019-.475 14.949-.047 5.563.105 11.126.158 16.684.026 2.874.617 5.8-.881 8.527a.919.919 0 0 0 .095.67c.359.923.722 1.84 1.107 2.753 1.16 2.737 2.231 5.51 3.517 8.184 1.181 2.452 2.61 4.788 3.913 7.187 1.5 2.763 3.085 5.484 4.429 8.316 2.3 4.851 4.345 9.824 6.665 14.664 2.162 4.5 4.556 8.885 6.823 13.336 1.028 2.02 2 4.066 3.006 6.1l.638 1.3a7.093 7.093 0 0 0 1.055-.986q3.8-5.273 7.54-10.609a1.413 1.413 0 0 0 0-1.118q-1.171-2.974-2.426-5.916c-1.519-3.575-3.074-7.134-4.6-10.7-2.468-5.8-5.062-11.548-7.33-17.4-1.15-2.974-1.608-6.206-2.547-9.27-1.176-3.828-2.552-7.593-3.76-11.411-.09-.285.564-1.139.67-1.1 1 .332.939-.306 1.055-.944.453-2.8.844-5.611 1.445-8.379 1.466-6.808 3.021-13.594 4.582-20.375.232-1.012.163-1.582-1.055-1.8a27.947 27.947 0 0 1-4.809-1.313c-6.06-2.443-12.388-2.053-18.816-1.351Zm-36.337 81.653h-.448c0 2.963.105 5.932-.026 8.9-.264 5.969-.48 11.944-1.055 17.892a136.366 136.366 0 0 0-.406 16.209c0 .854.19 1.872 1.345 1.84s1.239-.986 1.25-1.983c.047-4.15.053-8.3.3-12.439.427-7.161 1.113-14.311 1.524-21.477.211-3.691.042-7.382.079-11.073.047-4.6.132-9.207.2-13.8.084-5.974.211-11.943.248-17.928.037-6.581-.026-13.183 0-19.742 0-2.637.084-5.315.074-7.973 0-.691-.058-1.635-1.012-1.524-.311.037-.675 1.055-.712 1.677-.137 2.067-.116 4.145-.206 6.217-.243 5.51-.58 11.021-.738 16.536-.1 3.343.137 6.7.084 10.019-.053 3.438-.306 6.855-.406 10.309-.079 2.811-.069 5.626-.079 8.437-.027 3.315-.016 6.611-.016 9.901Zm2.927-218.579c0-3.2 0-6.486-.032-9.776 0-.359-.443-.717-.675-1.055a12.7 12.7 0 0 0-.717 1.128c-.079.148 0 .374 0 .564-.053 3.512-.211 7.029-.127 10.546.169 7.018.38 14.042.749 21.05.38 7.308 1.055 14.6 1.44 21.91.306 6.048.353 12.128.527 18.171.095 3.412.232 6.823.269 10.24.037 3.533.058 7.071-.074 10.6-.079 2.072-.527 4.124-.691 6.2-.032.374.4 1.107.649 1.123a2.03 2.03 0 0 0 1.382-.6 2.267 2.267 0 0 0 .485-1.3c.322-3.3.78-6.591.849-9.9s-.322-6.728-.374-10.093c-.09-5.616 0-11.232-.127-16.847-.111-4.577-.4-9.149-.728-13.71-.443-6.243-1.055-12.476-1.487-18.719-.5-6.5-.886-12.961-1.318-19.531Zm3.164 105.008c-1.582-.369-1.819.58-1.956 1.487-.527 3.364-1.055 6.728-1.455 10.108q-1.392 12.328-2.6 24.673c-.095.907-.691 2.368.933 2.531 1.487.153 1.455-1.339 1.825-2.315a.967.967 0 0 0 .037-.279c.364-5.083.664-10.177 1.1-15.255s.976-10.019 1.482-15l.654-5.953Zm63.883 393.218c1.028 1.055 2 2.109 3.064 3.106a1.365 1.365 0 0 0 1.165.132c2.3-.886 4.593-1.824 6.855-2.784.733-.306 1.582-.675 1.223-1.724-.332-.97-.828-1.793-2.146-1.5a10.872 10.872 0 0 1-1.993.069c-2.843.073-5.696.152-8.169 2.699ZM51.56 328.917l1.529-1.645c-.39-.348-.791-.691-1.171-1.055a2.769 2.769 0 0 1-.633-.712c-.527-1.208-1.1-2.41-1.582-3.654-1.028-2.8-1.956-5.632-3.021-8.437-.169-.438-.823-.7-1.255-1.055-.2.559-.686 1.208-.527 1.656 1.339 4.292 2.763 8.558 4.218 12.808a2.589 2.589 0 0 0 2.442 2.094Zm28.849 240.72.371-.27a16.34 16.34 0 0 1 0-2.273 10.962 10.962 0 0 1 .77-3.406 1.371 1.371 0 0 0-.211-1.83 18.962 18.962 0 0 1-1.455-2.109c-.475-.786-1.9-1.355-2.315-.87-1.028 1.2-1.74 6.328-.78 7.5a33 33 0 0 0 3.623 3.253ZM45.58 18.697c.053.069.316.659.527.633.453-.047 1.139-.3 1.255-.638.585-1.661 1.055-3.369 1.492-5.073.707-2.637 1.171-5.4 3.522-7.272.353-.285.459-.881.675-1.329-.628-.026-1.445-.311-1.84 0a8.2 8.2 0 0 0-2.552 2.594 32.319 32.319 0 0 0-2.283 5.869 41.643 41.643 0 0 0-.796 5.216Zm51.676 536.14c-4.3-1.26-7.772-3.892-11.342-6.908.121 1.487-.406 2.779.9 3.543 1.086.638 2.215 1.2 3.343 1.761 2.211 1.107 4.479 1.988 7.1 1.603Zm39.727-8.933c1.4 2.035 3.517 1.387 5.036-1.682l-1.376-1.2Zm-10.72 2.847c-.232-2.109-.459-4.218-.728-6.7-.527.564-1.055.875-1.086 1.218-.084 1.814-.042 3.633-.042 5.479Zm3.892-2.194 2.172-1.387c-1.023-.875-1.988-1.7-2.958-2.526l-.227.19Zm7.324-3.754-4.951-3.006-.2.279 4.16 3.638Zm10.367 11.764c-1.977-1.824-3.454.269-5.2.237a3.909 3.909 0 0 0 .069.49Z" data-name="パス 946"/><path d="M87.823 87.305a9.277 9.277 0 0 0-1.229.438c-1.661.875-2.953.158-3-1.7-.032-1.36 0-2.716 0-4.313a16.876 16.876 0 0 1-1.513 1.355c-.865.6-1.445.216-1.651-.786-.664-3.222-1.266-6.475-2.167-9.634-1.181-4.134-2.911-8.126-3.849-12.307a20.454 20.454 0 0 1-.074-8.221 62.038 62.038 0 0 1 3.818-13.257 54.012 54.012 0 0 1 7.272-11.411c1.719-2.151 4.582-3.127 7.493-3.222a.928.928 0 0 1 .6 1.7 3.834 3.834 0 0 1-1.329.8 13.594 13.594 0 0 0-7.472 6.818c-1.092 2.109-2.584 4.008-3.517 6.164a39.12 39.12 0 0 0-2.679 8.026 53.785 53.785 0 0 0-1.055 10.657c.026 2.273 1.1 4.54 1.724 6.8 1.134 4.108 2.289 8.21 3.48 12.476.48-.828.949-1.65 1.434-2.468a2.109 2.109 0 0 1 .5-.691c1.392-.918 1.055-2.109.606-3.354a9.6 9.6 0 0 1 .817-8.674 21.389 21.389 0 0 1 2.747-3.38 3.069 3.069 0 0 1 3.818-.39c.933.554 1.445 1.888 2.02 2.942.106.2-.327.954-.628 1.055a1.318 1.318 0 0 1-1.1-.58c-1.155-1.988-2.062-2.109-3.549-.348a8.859 8.859 0 0 0-.875 9.861 2.51 2.51 0 0 0 1.582.881c1.007.221 1.93.385 1.513 1.761a1.877 1.877 0 0 1-2.209 1.45 22.455 22.455 0 0 1-2.41-.591 4.83 4.83 0 0 0-1.028 4.377 30.947 30.947 0 0 1 .569 4.646 16.031 16.031 0 0 1 3.311-1.208c1.645-.211 1.946.57 1.4 2.109-.97 2.7-1.708 5.479-2.579 8.21-.4 1.25-.875 2.473-1.387 3.9 8.405 2.816 15.45 8.078 22.115 14.063 1.055-4.682 3.638-11.073 5.774-14.169a6.2 6.2 0 0 0-.728-.3c-.828-.221-1.471-.759-1.186-1.582a1.846 1.846 0 0 1 1.556-.78 23.728 23.728 0 0 1 3.823.96c2.526.78 5.031 1.614 7.6 2.447 1.413-1.556 2.805-3.164 4.308-4.667.327-.332 1.055-.264 1.582-.38-.032.564.137 1.266-.137 1.661-1.371 1.962-2.868 3.839-4.3 5.758-.743 1-1.471.823-2.394.19a8.115 8.115 0 0 0-2.151-.854c-2.02-.643-4.044-1.255-6.217-1.925-.649 1.614-1.413 3.164-1.909 4.825-.907 3.043-1.682 6.122-2.463 9.2-.348 1.371-.406 2.637 1.1 3.565.411.248.527 1.012.686 1.582a2.109 2.109 0 0 1-1 .453 1.329 1.329 0 0 1-.807-.38c-2.426-1.951-4.8-3.971-7.277-5.858-3.8-2.895-7.472-5.959-11.912-7.962-3.412-1.54-6.655-3.464-10.578-3.058-1.355.142-2.673.585-4.018.833-1.761.327-3.543.564-5.3.907-.954.185-1.8-.121-1.9-.981a2.085 2.085 0 0 1 1.244-1.582c3.691-.87 7.414-1.582 11.121-2.341a1.213 1.213 0 0 0 .828-.527c.944-2.463 1.835-4.946 2.726-7.435.146-.468.236-.925.41-1.554Z" data-name="パス 947"/><path d="M142.652 74.123c-.881 3.164-1.582 6.328-2.637 9.354a20.922 20.922 0 0 1-5.173 7.693c-.564.57-1.482 1.582-2.325.686s.169-1.582.744-2.262a29.435 29.435 0 0 0 6.328-11.944c.4-1.656.67-3.343 1.055-4.994.084-.343.49-.606.749-.907l1.155 1.055c.164-.422.38-1 .643-1.677-1.988-.554-1.287-2.162-1.376-3.459a9.261 9.261 0 0 1 .132-1.413c.279-2.689-1.74-3.6-3.628-4.466-1.281-.6-2.747-.791-4.05-1.35-.485-.206-.738-.939-1.1-1.434.585-.243 1.2-.754 1.756-.691a14.935 14.935 0 0 1 7 3.011c.617-6.222-.833-12.128-1.972-18.3a40.666 40.666 0 0 1-1.888 5.078c-2.331 4.361-5.236 8.231-9.913 10.383-4.841 2.225-9.66 4.514-14.533 6.67a11.512 11.512 0 0 1-3.612.712c-.316 0-.9-.6-.991-1.007a6.966 6.966 0 0 1 .121-1.972c-2.536 2.215-5.062 4.361-7.525 6.576-1.181 1.055-2.236 2.273-3.354 3.4a1.245 1.245 0 0 1-2.194-.738 30.155 30.155 0 0 1-.527-4.814c-.09-3.4-.074-6.8-.069-10.193a8.934 8.934 0 0 1 .237-2.109c.074-.3.527-.765.691-.722a1.281 1.281 0 0 1 .881.717 12.906 12.906 0 0 1 .158 2.109c.248 3.691.527 7.382.775 11.506 2.594-2.109 4.82-3.918 7.066-5.705s4.5-3.58 6.808-5.3c.322-.243.928-.1 1.4-.132a4.984 4.984 0 0 1-.121 1.5c-.485 1.186-1.086 2.325-1.645 3.48l.374.285a874.553 874.553 0 0 1 6.375-2.937c.823-.374 1.645-.744 2.489-1.055 4.008-1.466 7.91-3.28 10.852-6.359 3.285-3.438 6.1-7.3 6.206-12.429 0-.49.4-.97.617-1.455l1.055.976c2.441 2.262 2.378 5.479 3.248 8.353a43.172 43.172 0 0 1 1.534 15.529c-.105 1.635 0 3.28 0 4.82a26.939 26.939 0 0 0 4.44-12.5 48.183 48.183 0 0 0 .237-7.741 26.681 26.681 0 0 0-3-9.671 4.165 4.165 0 0 1-.121-1.492c.527.179 1.355.216 1.519.564a57.472 57.472 0 0 1 3.57 8.337c2.051 7.171.527 14.09-2.357 20.723a69.267 69.267 0 0 1-4.219 7.235c-.504.924-1.168 1.082-1.885.476Z" data-name="パス 948"/><path d="M99.947 581.476c-2.979-.2-5.953-.432-8.933-.58-1.476-.079-2.3-1.007-3.2-1.988a6.009 6.009 0 0 0-1.719-1.134c-.5-.253-1.181-.253-1.582-.606s-.332-.939-.48-1.424a5.942 5.942 0 0 1 1.223-.232c.464 0 .923.19 1.387.211 1.4.074 2.758-.09 3.986 1.055.527.527 1.793.2 2.716.311 3.512.406 7.029.765 10.546 1.281 1.582.237 3.1.854 4.656 1.229 2.837.691 5.674 1.418 8.542 1.961 1.793.338 3.649.369 5.484.527a31.476 31.476 0 0 1 3.538.306c.469.095.828.728 1.234 1.118-.406.327-.78.886-1.218.939-1.582.184-3.211.205-4.82.269-6.475.264-12.545-1.977-18.814-3.005-.844-.142-1.7-.2-2.552-.285Z" data-name="パス 949"/><path d="M112.068 17.553c3.164.427 6.359.86 9.539 1.276a33.046 33.046 0 0 1 9.95 2.668c3.433 1.619 6.913 3.164 9.149 6.481a5.119 5.119 0 0 1 .875 1.461c.111.422-.153.928-.248 1.4-.443-.163-1.081-.2-1.3-.527-2.589-3.823-6.507-5.595-10.62-7.171-3.5-1.339-7.166-1.529-10.8-1.983a32.209 32.209 0 0 0-6.085-.527c-4.888.4-9.766 1.023-14.042 3.791a8.22 8.22 0 0 1-2.32 1.055 1.582 1.582 0 0 1-1.371-.4 1.413 1.413 0 0 1 .29-1.324 18.864 18.864 0 0 1 8.469-4.609c2.804-.589 5.635-1.053 8.514-1.591Z" data-name="パス 950"/><path d="M133.819 581.982c2.964-.475 5.938-.886 8.885-1.434 3.486-.654 6.955-1.4 10.414-2.167.854-.19 1.624-.728 2.473-.949a5.467 5.467 0 0 1 1.619.084c-.2.6-.221 1.487-.628 1.724a18 18 0 0 1-4.746 2.241c-5.589 1.345-11.237 2.489-16.874 3.638a10.474 10.474 0 0 1-2.958.037c-1.086-.095-2.03-.654-1.93-1.846a1.676 1.676 0 0 1 1.983-1.477 16.84 16.84 0 0 0 1.708-.068Z" data-name="パス 951"/><path d="M134.015 577.084c-1.055-.19-2.589-.411-4.1-.744-.954-.206-1.724-.8-1.4-1.877a1.6 1.6 0 0 1 2.109-.949c4.487 1.107 8.917.111 13.378-.216a46.909 46.909 0 0 0 10.1-1.4.886.886 0 0 1 .527.09c.633.29 1.26.6 1.888.9a9.022 9.022 0 0 1-1.745 1.055c-6.556 2.218-13.43 2.397-20.757 3.141Z" data-name="パス 952"/><path d="M167.657 559.134c1.012-1.2 1.556-1.2 2.41.058a15.82 15.82 0 0 1 2.673 8.369 21.609 21.609 0 0 1-.554 4.514 2.05 2.05 0 0 1-.749.986 17.2 17.2 0 0 1-2.536 2.03c-1.366.786-2.826 1.4-4.266 2.051-.422.19-.97.137-1.36.369-.67.4-1.54.96-1.851.037a2.631 2.631 0 0 1 .907-2.236 8.656 8.656 0 0 1 2.805-.917 8.031 8.031 0 0 0 4.809-3.9 6.379 6.379 0 0 0 .253-3.3 14.971 14.971 0 0 0-2.541-8.061Z" data-name="パス 953"/><path d="M167.473 560.141c-1.028 3.633-.728 7.382-3.433 10.151a6.513 6.513 0 0 1-1.3 1.055c-.643.374-1.545.9-1.983 0a2.289 2.289 0 0 1 .364-2.078 11.644 11.644 0 0 0 2.963-4.946c.427-1.4.654-2.858 1.123-4.219.179-.527.791-.886 1.2-1.318Z" data-name="パス 954"/><path d="M138.566 565.614c-3.259-.264-6.528-.469-9.776-.823-.849-.095-1.714-.754-1.355-1.756.132-.374 1.176-.649 1.767-.585 3.333.353 6.649.823 9.971 1.245a5.274 5.274 0 0 1 1.276.084 4.54 4.54 0 0 1 1.055.839c-.353.258-.675.654-1.055.733a9 9 0 0 1-1.851.031Z" data-name="パス 955"/><path d="M128.399 79.527a2.109 2.109 0 0 1-.67-.617 1.26 1.26 0 0 1 .037-.986 3.08 3.08 0 0 1 .78-.765c.8-.7 1.582-1.429 2.41-2.067.359-.269 1.018-.559 1.292-.406a1.551 1.551 0 0 1 .554 1.287c-.205 1.581-2.548 3.527-4.403 3.554Z" data-name="パス 956"/><path d="M158.403 555.61a9.877 9.877 0 0 1 6.375.427c.432.179.6 1.1.8 1.708.047.164-.221.527-.427.643s-.527-.053-.765-.148a13.983 13.983 0 0 0-2.067-.807c-.918-.2-1.9-.116-2.816-.317a4.89 4.89 0 0 1-1.387-.838c.092-.197.192-.445.287-.668Z" data-name="パス 957"/><path d="M134.563 554.821a35.377 35.377 0 0 1-.633 3.818 4.344 4.344 0 0 1-1.139 1.661 1.012 1.012 0 0 1-1 .032c-.2-.153-.243-.659-.185-.981.258-1.429.527-2.858.891-4.271.174-.7.063-1.872 1.218-1.629.442.094.685 1.085.848 1.37Z" data-name="パス 958"/><path d="M121.46 87.895c-.121-1.308.527-1.788 1.635-1.73a33.116 33.116 0 0 1 3.828.364c.348.058.928.717.86.907-.169.464-.638 1.144-1.012 1.16a10.091 10.091 0 0 1-5.311-.701Z" data-name="パス 959"/><path d="M133.076 66.703c-1.524 0-1.988-.68-1.988-1.55s.322-1.83 1.466-1.946a1.829 1.829 0 0 1 1.687 1.925c-.079.964-.585 1.608-1.165 1.571Z" data-name="パス 960"/><path fill="#fff" d="M107.803 177.327c-2.188-.828-4.218-1.624-6.259-2.347a71.516 71.516 0 0 0-7.82-2.6 44.453 44.453 0 0 0-7.456-.77 37.969 37.969 0 0 0-5.742.127 17.453 17.453 0 0 0-8.743 3.021 19.882 19.882 0 0 1-2.389 1.213v-7.572a43.286 43.286 0 0 0-.169-4.688 5.335 5.335 0 0 0-.765-1.635c-.3.527-.823 1.055-.844 1.582-.174 3.865-.253 7.73-.327 11.6 0 .891.163 1.793.121 2.684a2.06 2.06 0 0 0 1.687 2.357c1.16.343 1.856-.364 2.673-.881 1.492-.933 2.985-1.867 4.493-2.779a5.656 5.656 0 0 1 1.055-.343c-.206 1.893-.432 3.633-.585 5.379-.385 4.4-.622 8.822-1.165 13.183a15.145 15.145 0 0 1-1.708 4.566c-2.636 5.4-5.368 10.741-7.978 16.146-1.355 2.805-2.52 5.711-3.892 8.832-.242-2.637-.406-5.025-.7-7.382-.575-4.588-1.055-9.191-1.883-13.742a77.732 77.732 0 0 1-1.055-14.67c.032-3.164-.179-6.375-.348-9.565-.026-.527-.475-1-.6-1.519s-.327-1.45-.09-1.619c1.54-1.086 2.025-2.848 2.452-4.377.933-3.354 1.4-6.855 2.051-10.272.527-2.731 1.055-5.463 1.55-8.194a24.213 24.213 0 0 0 .475-3.238c.121-2.589 1.719-4.324 3.164-6.249a29.117 29.117 0 0 0 2.942-5.431 10.485 10.485 0 0 1 7.461-5.922c1.819-.464 3.522-1.429 5.352-1.8a14.164 14.164 0 0 1 5.009-.153 20.928 20.928 0 0 1 5.969 1.782 25.557 25.557 0 0 1 6.064 4.166c2.109 2.03 3.691 4.614 5.763 6.728 2.3 2.362 2.563 5.183 2.589 8.189.047 6.481.2 12.966.19 19.447.001 2.205-.363 4.42-.542 6.746Z" data-name="パス 961"/><path fill="#fff" d="M102.371 273.723c-3.718 2.352-7.219 4.746-10.9 6.855-4.392 2.489-8.616 5.331-13.489 6.9-1.392.453-2.684 1.181-4.034 1.751a3.475 3.475 0 0 0-2.067 2.758c-.612 3.19-2.895 5.336-4.746 7.757-.343.453-.854.786-1.176 1.255-.923 1.334-1.877 2.489-4 1.313-.127-3.227-.232-6.713-.4-10.2-.274-5.495-.554-10.984-.891-16.468-.206-3.311 0-6.76-.918-9.892-1.055-3.791-.206-7.382-.169-11.073a1.872 1.872 0 0 1 .564-1.139 10.667 10.667 0 0 0 .248 2.584 7.565 7.565 0 0 0 1.376 1.946c2.283 3.122 4.545 6.254 6.855 9.349.564.754 1.308 1.366 1.951 2.067.728.791 1.724.817 2.2.084a2.519 2.519 0 0 0-.3-2.241c-1.134-1.582-2.5-2.958-3.76-4.44q-2.167-2.547-4.292-5.136a1.634 1.634 0 0 1-.427-.865c-.185-5.4-.438-10.815-.448-16.225a9.3 9.3 0 0 1 2.241-5.621 42.95 42.95 0 0 0 4.055-6.95c1.977-3.976 3.791-8.036 5.674-12.06l.406.042c.5 1.4.933 2.837 1.513 4.219 2.3 5.4 4.561 10.815 7 16.157 2.062 4.514 4.408 8.9 6.5 13.4 1.962 4.218 3.665 8.542 5.668 12.734 1.666 3.5 3.607 6.855 5.415 10.293a8.822 8.822 0 0 1 .351.846Z" data-name="パス 962"/><path fill="#fff" d="M79.407 175.476c6.449-.7 12.729-1.092 18.857 1.318a27.945 27.945 0 0 0 4.809 1.313c1.2.232 1.265.791 1.055 1.8q-2.373 10.172-4.582 20.375c-.6 2.768-.991 5.579-1.445 8.379-.105.638-.042 1.276-1.055.944-.105-.037-.759.817-.67 1.1 1.208 3.818 2.584 7.583 3.76 11.411.939 3.064 1.4 6.3 2.547 9.27 2.267 5.874 4.862 11.627 7.33 17.4 1.524 3.57 3.079 7.129 4.6 10.7q1.25 2.942 2.426 5.916a1.413 1.413 0 0 1 0 1.118q-3.723 5.342-7.54 10.609a7.1 7.1 0 0 1-1.055.986l-.638-1.3c-1-2.035-1.977-4.081-3.006-6.1-2.267-4.451-4.661-8.838-6.823-13.336-2.32-4.841-4.366-9.813-6.665-14.664-1.345-2.832-2.932-5.553-4.429-8.316-1.3-2.4-2.731-4.746-3.913-7.187-1.287-2.673-2.357-5.447-3.517-8.184a100.67 100.67 0 0 1-1.107-2.753c-.079-.211-.179-.527-.095-.67 1.5-2.721.907-5.653.881-8.527-.053-5.558-.206-11.121-.158-16.684.006-4.91.265-9.849.433-14.918Z" data-name="パス 963"/><path fill="#fff" d="M43.071 257.13v-9.882c0-2.816 0-5.632.079-8.437.1-3.438.353-6.855.406-10.309.053-3.343-.185-6.7-.084-10.019.158-5.516.5-11.026.738-16.536.09-2.072.069-4.15.206-6.217.037-.6.4-1.64.712-1.677.954-.111 1.012.833 1.012 1.524 0 2.637-.074 5.315-.074 7.973 0 6.581.058 13.183 0 19.742-.037 5.969-.163 11.938-.248 17.928-.069 4.6-.153 9.2-.2 13.8-.037 3.691.132 7.382-.079 11.073-.411 7.166-1.1 14.316-1.524 21.477-.248 4.139-.253 8.289-.3 12.439 0 1 0 1.946-1.25 1.983s-1.324-.986-1.345-1.84a136.356 136.356 0 0 1 .406-16.209c.569-5.948.786-11.923 1.055-17.892.132-2.963.026-5.932.026-8.9Z" data-name="パス 964"/><path fill="#fff" d="M45.997 38.55c.432 6.565.823 13.03 1.3 19.51.453 6.243 1.055 12.476 1.487 18.719.327 4.572.617 9.144.728 13.71.142 5.616.037 11.232.126 16.847.053 3.364.448 6.734.374 10.093s-.527 6.6-.849 9.9a2.268 2.268 0 0 1-.485 1.3 2.03 2.03 0 0 1-1.382.6c-.253 0-.68-.749-.649-1.123.174-2.072.612-4.124.691-6.2.132-3.528.111-7.066.074-10.6-.037-3.417-.174-6.829-.269-10.24-.163-6.059-.211-12.128-.527-18.171-.374-7.308-1.055-14.6-1.44-21.91-.369-7.008-.58-14.032-.749-21.05-.084-3.507.074-7.024.127-10.546 0-.19-.069-.417 0-.564a12.715 12.715 0 0 1 .736-1.106c.232.359.67.717.675 1.055.053 3.29.032 6.575.032 9.776Z" data-name="パス 965"/><path fill="#fff" d="M49.177 143.558c-.221 2.025-.438 3.992-.638 5.953-.527 5-1.055 9.992-1.482 15s-.733 10.172-1.1 15.255a.966.966 0 0 1-.037.279c-.369.976-.337 2.468-1.824 2.315-1.624-.163-1.028-1.624-.933-2.531q1.223-12.371 2.594-24.673c.38-3.38.928-6.744 1.455-10.108.13-.91.404-1.849 1.965-1.49Z" data-name="パス 966"/><path fill="#fff" d="M113.044 536.776c2.473-2.547 5.326-2.636 8.179-2.7a10.889 10.889 0 0 0 1.993-.069c1.318-.29 1.814.527 2.146 1.5.353 1.055-.49 1.418-1.223 1.724-2.273.96-4.561 1.9-6.855 2.784a1.365 1.365 0 0 1-1.165-.132c-1.075-.976-2.047-2.042-3.075-3.107Z" data-name="パス 967"/><path fill="#fff" d="M51.56 328.922a2.5 2.5 0 0 1-2.42-2.051c-1.466-4.25-2.89-8.516-4.218-12.808-.142-.448.348-1.1.527-1.656.432.343 1.086.6 1.255 1.055 1.055 2.784 1.993 5.616 3.021 8.437.453 1.245 1.007 2.447 1.582 3.654a2.767 2.767 0 0 0 .633.712c.38.359.78.7 1.171 1.055Z" data-name="パス 968"/><path fill="#fff" d="M80.414 569.637a29.506 29.506 0 0 1-3.6-3.275c-1.018-1.239-.248-6.328.78-7.5.417-.485 1.84.084 2.315.87a18.988 18.988 0 0 0 1.455 2.109 1.371 1.371 0 0 1 .211 1.83 10.668 10.668 0 0 0-.77 3.406 16.333 16.333 0 0 0 0 2.273Z" data-name="パス 969"/><path fill="#fff" d="M45.58 18.697a41.732 41.732 0 0 1 .8-5.22 32.321 32.321 0 0 1 2.267-5.885 8.2 8.2 0 0 1 2.552-2.594c.4-.29 1.213 0 1.84 0-.216.448-.322 1.055-.675 1.329-2.352 1.872-2.816 4.619-3.522 7.272-.453 1.7-.907 3.412-1.492 5.073-.116.337-.8.591-1.255.638-.199.046-.462-.555-.515-.613Z" data-name="パス 970"/><path fill="#fff" d="M97.256 554.837c-2.637.385-4.888-.5-7.1-1.582-1.128-.564-2.257-1.123-3.343-1.761-1.308-.765-.78-2.057-.9-3.544 3.571 2.995 7.046 5.626 11.343 6.887Z" data-name="パス 971"/><path fill="#fff" d="m136.984 545.904 3.66-2.879 1.376 1.2c-1.524 3.066-3.644 3.714-5.036 1.679Z" data-name="パス 972"/><path fill="#fff" d="M126.258 548.754h-1.856c0-1.845-.042-3.665.042-5.479 0-.343.564-.654 1.086-1.218.269 2.486.496 4.558.728 6.697Z" data-name="パス 973"/><path fill="#fff" d="m130.128 546.557-1.012-3.723.227-.19c.97.823 1.935 1.651 2.958 2.526Z" data-name="パス 974"/><path fill="#fff" d="m137.474 542.803-.986.912-4.16-3.638.2-.28Z" data-name="パス 975"/><path fill="#fff" d="m147.841 554.568-5.131.728a3.9 3.9 0 0 0-.069-.49c1.725.031 3.223-2.063 5.2-.238Z" data-name="パス 976"/></svg>