<svg xmlns="http://www.w3.org/2000/svg" xml:space="preserve" id="レイヤー_1" x="0" y="0" style="enable-background:new 0 0 481 569.1" version="1.1" viewBox="0 0 481 569.1"><style>.st2{fill:#fff}.st3{enable-background:new}.st4{fill:#222}</style><path d="M0 0h432v432H0z" style="fill:none" transform="translate(0 66.308)"/><path d="M5 5h422v422H5z" style="fill:none;stroke:#222;stroke-width:10" transform="translate(0 66.308)"/><path d="m140.763 268.4.8 5.8 13.3-7.1 15.3-25.6-8.2-4.4-21.2 31.3zM198.263 91.8l-2.7-5.7-5.5-3.7-3.5-6.2-3 4.8s-4.1 5.5-4.2 4.6-2.5-11.2-2.5-11.2l-7.5-13 3.5-6.3-1.6-4.5 1.8-5.2-3-11.5 9.9-19.9 11.3-5.9h6.5l-4.4-3.5 7.4-.6 7.5 2.9 6.8-2.9 7.6-3.1 12.8 1.4 7.8 6.8 2.7 10.1-1.3 8.2 7.8 5.5 1.7 1.7-.6 5-1 8.2 5 6.4-1.1 7.4-7.2 9.9-12.7 1.6-1.1 18.8-16.3 20.3-21.4 2.1s-4.3-16.6-4.4-16.9 4.9-5.6 4.9-5.6z" class="st2"/><path d="M140.863 270.7c-.2-.3-.4-.7-.6-1-.7-4.4-2.7-8.4-4.3-12.5-.8-2-1.7-4-2.8-5.9-.4-.7-1-1.2-1.6-1.7-2.7-2.3-5-4.9-5.9-8.3-.4-2.2-.7-4.4-.8-6.6-.1-1.1 0-2.1-.1-3.2-.6-3.9.9-7.1 3-10.1.5-.7.6-1 .1-1.7-1.6-2.6-1-4.6 1.7-6.3.3-.2.6-.5.7-.9 2-4.4 4.2-8.6 5.9-13.1 1.2-3.4 3.3-6.5 3.5-10.2.1-1.3-.1-2.5-.5-3.7-.7-2.5-.2-4.9.5-7.3.2-.7.3-1.4.5-2.1.3-.9.6-1.8 1-2.7 1.1-2.6 2.4-5.1 3.4-7.7.4-1.6.6-3.2.7-4.8.1-.6.3-1.2.5-1.9.4-1.4.7-2.9 1-4.4 0-.1 0-.4.1-.4 1.7-1.4.6-3.2.5-4.8-.1-1.9-.1-3.8-.1-5.6 0-3.2-.2-6.5 0-9.7.2-4 1.8-7.9 4.4-10.9 3-3.4 5.9-7 9.1-10.2 2.6-2.3 5.3-4.5 8.1-6.5.4-.3.9-.5 1.4-.4 1.6.4 2.8-.5 4-1 4.5-1.8 7.9-5 11.7-7.9 3.3-2.4 6.7-4.7 10.3-6.7 1.5-.9 2.9.1 3.1 1.9 0 .4 0 .9-.1 1.3-.2 2.4-.3 4.9-.2 7.3.1 1.3 1.2 2.5 1.9 3.8.2.3.3.6.5.9.3 1.2 1.4 2.1 2.6 2.1 5.5.8 10.5-.5 15.4-2.9 4.7-2.3 7.6-6 9.5-10.7 1.2-2.4 2.2-4.9 3-7.5.4-2.3.6-4.6.3-6.9-.1-2.6.9-4.8 1.9-7 .6-1.3 2.5-1.6 3.9-.6 4.3 3.1 8.2 6.5 10.9 11.2 1.2 2.1 2.9 2.3 4.8 2.3 3.3.1 6.6-.2 9.9 0 2.3.1 4.5.5 6.7 1 2 .4 4 1.2 5.9 1.8.4.1.8.4 1.1.4 2.5-.4 4.4 1 6.5 1.9 2 .8 3.8 1.9 5.3 3.3 1.1 1.1 1.7 2.9 2.3 4.4.7 1.8 1.1 3.7 1.7 5.5.8 2.5 1.5 5 2.4 7.5s1.8 5 2.5 7.5c1.4 4.8 3.1 9.6 5.2 14.2 1.5 3.5 3.2 7 4.5 10.6 1.6 4.5 2.8 9.1 4.4 13.5 1.1 3 2.6 5.8 3.8 8.7 1.2 3 2.3 6.1 3.4 9.2 1.1 2.9 2.1 5.8 3.3 8.6 1.4 3.1 1.4 6.6.2 9.8-.8 1.9-.5 4.1.6 5.9 1.2 2.1 1.6 4.6 1.1 7-.9 4.2-2.1 8.4-3.4 12.5-.7 2.4-1.8 4.7-2.6 7.1-1 2.5-1.8 5.2-2.4 7.8-.4 3.1-2.7 5.7-5.8 6.3-2.3.6-3.9 2.2-5.7 3.4-2.4 1.7-4.4 3.9-6.7 5.7s-2.6 4.4-2.1 6.8c.7 3.9 2.1 7.7 2.9 11.6.9 4 1.2 8.1 2.1 12.1.8 3.8 2 7.5 2.8 11.4.9 4.4 2.8 8.5 4.3 12.8 1.1 3.2 1.7 6.6 1.6 10.1-.1 4.2.2 8.4.1 12.5-.1 6 .6 11.9 2 17.8 1.1 5 2.5 10 4.1 14.8 2.5 6.7 4 13.6 5.9 20.4 1 3.7 2.4 7.2 4.1 10.7 3 5.8 5.3 11.9 7 18.1 1.1 4.2 2.5 8.2 3.7 12.4 1 3.6 1.8 7.3 2.8 11 1.1 4.5 2.1 9.1 3.4 13.5.8 2.7-.7 3.9-3.1 3.7-4.8-.4-9.6-.8-14.4-1-1.8.1-3.5.5-5.2 1.1-.3.1-.7.7-.8 1.1-1 4.1-2 8.3-2.9 12.4-1.2 5.1-2.2 10.3-4.1 15.3-1.7 4.5-2.7 9.3-4 14-.6 2-1 3.9-1.6 5.9-.7 2.5-2.8 3.4-4.9 4.3-2.3.9-4.7 1.3-7.1 1.1-2.2-.1-4.5.6-7.2.9 1.7 1.7 2.9 3.4 4.9 4.3 2.3 1 4.5 1.9 6.9 2.8 2.4.9 2.7 1.5 2.1 4.1-.3 1.5-1 2.9.2 4.6 1 1.4.5 3.3-.3 4.8s-.4 2.5.2 4c1.7 3.7 5.1 4.8 8.3 6.3 4.4 2 9 3.8 12.9 6.9 2.1 1.7 4.4 3.1 6 5.1 1.1 1.5 1.7 3.3 1.6 5.1-.2 2.7-1.5 5.1-3.5 6.9-2.4 2.3-5.2 2.8-8 3.1-5.1.7-10.3.8-15.4 1-1.3-.1-2.6-.3-3.9-.6-3.8-.6-7.6-1-11.3-1.8-3.5-.8-7-2.1-10.4-3.2-1-.3-2-.6-3.1-.9-.2.2-.3.5-.4.8-.2 1.1-1.4 1.9-2.5 1.6-.1 0-.2 0-.3-.1-1.5-.3-2.9-.8-4.3-1.1-2.5-.6-5.1-1.2-7.6-1.7-2.2-.5-3-1.2-3.4-3.4-.8-4.9-1-9.8-.4-14.7.2-1.5-.2-3.1-.1-4.6.2-4.7 1.2-9.4 2.8-13.9 1.3-3.8 1.9-7.8 1.8-11.8 0-.7.2-1.4.3-2-.7-.7-1.5-1.4-2.2-2.1-2.2-2.2-4.4-4.5-6.7-6.7-2.4-2.4-4.9-4.8-7.2-7.3-1.4-1.4-2.6-3.1-3.5-4.9-.6-1.6-.4-3.6-.4-5.4-.1-2.2-.1-4.4-.1-6.6 0-3.2-.1-6.3-.1-9.5.1-5.8.3-11.6.3-17.3 0-3.6-.2-7.2-.5-10.8-.3-2.2-.7-4.3-1.2-6.4l-3.3-15c-.4-2-.9-4-1.6-5.9-.3 1.3-.6 2.7-1.1 4-1.2 3.2-1.1 6.4-.9 9.7.3 4.7.4 9.5.9 14.2.6 5.7 1.6 11.4 2.2 17.1.3 2.8.2 5.7.4 8.6.1 2.2.4 4.4.6 6.6.4 5.2.9 10.3 1.2 15.5.1 2.1.1 4.2-.1 6.3 0 .5-.2 1-.6 1.5-1.4 1.8-3 3.5-4.4 5.4-1.7 2.3-3.3 4.7-4.8 7.2-.3.7-.4 1.4-.3 2.2 0 2.1-.3 2.4-2.8 2.1.1 2.1.1 4.1.3 6.2.2 2.3.5 4.7 1 7 .5 1.5 1.2 2.9 1.9 4.2.4.7.6 1.4.8 2.2.5 2.4.5 4.8.1 7.2-.5 2.3.2 4.8.1 7.2s-.1 4.9-.9 7c-.5 1.3-2.4 2.2-3.9 3-3.5 1.7-7 3.3-10.6 4.8-1 .3-2 .4-3 .2-1.7 0-3.4.5-4.7 1.5-3.3 2-6.4 4.4-9.8 6.2-2.8 1.5-6 2.2-9 3.3-5.3 2-10.8 1.4-16.2 1.2-1.8-.1-3.6-1-5.3-1.6-1.2-.4-2.4-1-3.6-1.5-3.2-1.3-4-3.2-4.6-6.5s1.1-6.1 1.6-9.1c.2-1.2 1.5-2.4 2.6-3 2.1-1.2 4.2-2.2 6.4-3.1 2.8-1.3 4.8-3.5 6.9-5.6 2.9-3.1 6.2-5.7 10-7.7-2.1-1.7-2.1-1.7-1.1-4.3.3-.8.5-1.5.8-2.7-1.2.9-2.1 1.6-3 2.3-.8.8-2 .8-2.8 0l-.1-.1c-.6-.4-1-1-1.5-1.5-2.8-2.5-2.5-4.9.6-6.9 3.4-2.3 7.1-4.2 10.6-6.3 1-.6 1.9-1.2 3.3-2-1.6-.4-2.9-.7-4.1-1s-2.6-.3-3.1-1.9c-.1-.4-1.1-.4-1.5-.8-1.3-1.4-2.6-2.9-3.9-4.3-.5-.6-.9-1.1-1.4-1.7-2.4-2.8-4.7-5.8-7.3-8.5-2.4-2.6-4.5-5.4-6.4-8.4-1.2-1.9-2.6-3.8-3.8-5.8-.4-.6-.6-1.4-.5-2.1 1.2-8 1.2-16.1 1.6-24.2.2-1.2-.4-2.3-1.5-2.8-3.1-2.3-6.1-4.8-8.9-7.5-2.1-2-3.8-4.6-6-6.6-2.1-1.9-4.8-3.2-7.6-3.7-2-.5-4.1-.8-6.2-.9-4.3.2-8.5.7-12.8 1.2-1.6.2-3.6 0-3.4-2.3.1-2.8.5-5.6 1-8.3 1.5-6.5 3.4-12.8 5-19.3.8-3.4 1.1-7 2-10.4 1.3-5.1 3-10 4.3-15.1 1.4-5.5 2.5-11.1 3.7-16.6.7-3.4 1.1-6.8 1.6-10.2.7-4.9 1.4-9.9 2.1-14.8.9-5.9 1.8-11.8 2.6-17.8.7-4.7 1.3-9.4 1.8-14.1.4-3.9.4-7.8.8-11.7.4-4.9.9-9.8 1.4-14.8-.1-1.2.5-2.3 1.5-3 1.8-1.4 3.3-3 4.6-4.9 3.8-5 7.4-10.2 11.1-15.2 1.9-2.7 3.9-5.3 5.8-8 .2-.2.3-.4.4-.6.5-.8.2-1.8-.5-2.3-.1-.1-.2-.1-.3-.2-.7 0-1.4.3-1.9.9-2.2 3.2-4.3 6.4-6.5 9.6-1.9 2.8-3.7 5.6-5.7 8.3-2.6 3.6-5.4 7.1-8.1 10.6.5-.4.2-.1-.2.1zm105.9-125.4c.6-.5 1.3-.8 2-1.1 2.9-.7 5.8-1.5 8.8-2.1 1.6-.3 3.3-.3 5-.7.7-.3 1.1-.9 1.2-1.7 0-1.1-.2-2.3-.6-3.4-1.2-4.2-2.6-8.3-3.9-12.4-.8-2.6-1.7-5.2-2.5-7.8-1.5-5-3-10-4.5-15.1-.4-1.5-.6-3-.9-4.5-.2-.5-.4-1-.7-1.5-.5.5-1.3 1-1.3 1.5-.1 1.4 0 2.8.3 4.2.6 2.5 1.4 5 2.1 7.6 1.3 4.8 2.6 9.6 3.9 14.3.8 2.8 1.5 5.7 2.3 8.5.6 2.1 1.4 4.1 2.1 6.2.3.7.2 1.2-.8 1.3-1.5.2-3 .7-4.5.9-3.3.4-6.4 1.4-9.3 3-1.2.5-1.8 1.8-1.4 3.1.5 1.7 1.2 3.3 2.1 4.8 1.5 2.5 3.3 4.8 5 7.3.6.9.7 1.8-.3 2.5-2.4 1.6-4.1 3.9-5 6.6-1.7 5-3.4 10.1-4.6 15.2-2.2 8.9-4.2 17.9-6.1 26.9-1 4.9-1.8 9.8-2.7 14.8-1.1 6.1-2.2 12.3-3.3 18.4-.2.8.2 1.6 1 1.8h.2c1.1.3 1.5-.5 1.7-1.2.5-1.8.9-3.7 1.2-5.5.9-4.7 1.8-9.5 2.7-14.2.8-4.4 1.6-8.8 2.5-13.2 1.2-6.3 2.4-12.6 3.8-18.9 1.2-5.3 2.7-10.6 4.1-15.8.8-2.7 1.6-5.3 2.7-7.9 1-2.5 3-4.3 5-6.1.9-.8 1.2-2 .7-3.1s-1.1-2.2-1.8-3.2c-2-3.1-4-6.2-6.2-9.5zm-65.3 3.8c-1.4 3.2-2.8 6-4 9-1.7 4.2-3.1 8.4-4.6 12.6-.4 1.3-.2 2.7.6 3.9.7 1.4 1.5 2.8 2.1 4.3 1.5 3.9 3.1 7.8 4.5 11.7 2.4 7.2 4.7 14.5 6.9 21.8 1.5 4.7 2.7 9.5 4.1 14.2 1.1 3.6 2.5 7.1 3.9 10.6.7 1.8 1.5 3.5 2.5 5.1.2.4 1.1.5 1.7.7.2-.5.3-1.1.3-1.7-.2-.9-.5-1.8-.9-2.6-.9-2.4-2-4.7-2.7-7.1-1.6-5-2.9-10.1-4.4-15.2-1-3.3-1.9-6.7-2.9-9.9-1.5-4.8-3-9.6-4.6-14.3-1.3-3.7-2.9-7.3-4.3-11-1-2.8-1.7-5.6-3.4-8.2-.3-.7-.3-1.5 0-2.2 2.5-7.9 5.6-15.6 9.2-23.1.2-.6.2-1.2 0-1.7-.4-.4-1-.5-1.6-.4-2.8.9-5.7 1.8-8.5 2.9-1.4.8-2.8 1.6-4.1 2.6 1.3-6 2.6-12.2 4-18.3 1-4.1 2.2-8.2 3.3-12.3 1.3-4.5 2.7-9 4-13.5 0-.5 0-1.1-.2-1.6h-.5c-.4.5-.8 1.1-1.1 1.7-1.3 3.4-2.7 6.7-3.8 10.1-1.5 4.7-2.9 9.5-4.2 14.2-.8 3-1.4 6-2.1 8.9-1.1 4.4-2.3 8.8-3.3 13.3-.2.9.1 1.7.7 2.4.9.2 1.8.1 2.5-.3.7-.3 1.3-.8 1.8-1.4 2.2-2.8 5.4-4.1 9.1-5.2zm44.7-37c0-.7 0-1.4-.1-2.1-.2-.5-.5-.9-.9-1.3-.3.4-.7.8-.8 1.3-.1 1.1-.1 2.2-.2 3.3-.3 3.7-.9 7.5-1.1 11.2-.2 5.6-.1 11.3-.1 16.9-.1 6.8-.2 13.5-.2 20.3-.1 5.7-.2 11.4-.1 17.1.1 7.9.4 15.9.7 23.8.1 3.7.4 7.3.6 11 .2 5.8.4 11.7.7 17.5.1 1.3.4 2.6 1 3.7.2.4 1 .7 1.5.7.2 0 .7-.8.7-1.2-.2-4.2-.6-8.4-.8-12.6-.3-6.1-.4-12.1-.7-18.2-.3-6.9-.7-13.8-.8-20.7-.1-6 .1-12.1.1-18.1 0-5.7-.1-11.5-.2-17.2v-12.7c0-4.5-.1-9 0-13.4.1-3.2.4-6.3.7-9.3zm69.1 148.1c-.9-1.5-2-2.9-3.1-4.3-1.7-1.8-3.5-3.5-5.3-5.2-2.9-2.8-5.7-5.7-8.8-8.4-3.7-3.2-7.4-6.4-10.1-10.5-.4-.6-.8-1.5-1.7-.8-.3.5-.4 1.2-.1 1.8 1.4 2.3 3.1 4.5 4.8 6.6 2 2.3 4.5 4.2 6.6 6.3 2.7 2.7 5.3 5.6 7.9 8.4 2 2.2 3.8 4.7 5.8 6.9.6.5 1.4.8 2.2.8.7 0 1.1-.8 1.8-1.6zm-104.6 253-.4-.4c-3.9 2.8-8.5 4.5-12 8 1.5 2 2.3 2.1 3.9.5 2.3-2.1 4.6-4.2 6.8-6.3.7-.5 1.3-1.1 1.7-1.8zm-4 14.2c.1.1.2.3.3.4.5-.2 1.3-.2 1.5-.6.5-.8.9-1.7 1.2-2.6.3-.9.4-1.8.6-2.8.1-.9.2-1.8.4-2.6l-.5-.1-3.5 8.3zm15.6.5c.8-1 1.3-2 .5-3.2-.2-.3-1.3-.4-1.5-.2-.6.6-.9 1.4-1 2.2 0 1.3 1 1.4 2 1.2zm84.1-7.3c-.2-.7-.2-1.9-1.5-1.9-.9 0-1.6.6-1.7 1.5v.2c0 .8.1 1.9 1.4 1.9 1.1.1 1.7-.5 1.8-1.7zm-82.2-3.5c-.3-.3-.9-1.2-1.5-1.2-.8 0-1.5.6-1.6 1.5 0 .2 0 .3.1.5.2.6.8 1.5 1.3 1.6 1.1.1 1.6-.8 1.7-2.4zm-3.7 14.6c-.4-.4-.8-.8-1.3-1-.7-.2-1.9 1.1-1.7 2.1.1.6.8 1.4 1.2 1.4 1.1-.1 1.8-.9 1.8-2.5zm94.1 6.3c.3 1.3.9 2.1 1.8 1.9.6-.1 1.4-1 1.4-1.5-.2-.7-.7-1.4-1.4-1.6-.5-.1-1.2.8-1.8 1.2zm10.1 5.5c-.4-1.3-.7-2.3-1.8-2.1-.5.1-1.4 1.1-1.3 1.5.3.7.8 1.3 1.5 1.7.4 0 1.1-.8 1.6-1.1zm-114.5-1.3c-.8-.8-1.3-1.6-1.8-1.6-.9 0-1.6.8-1.6 1.7 0 .5.9 1.3 1.2 1.3.7-.1 1.3-.7 2.2-1.4zm104.4-25.3-.4.3 3.7 6c1.2-3.5-2.2-4.2-3.3-6.3zm-98.8 19.7c-.3-.2-.7-.9-1.2-1-1.1-.2-1.5.7-1.6 1.6s.5 1.3 1.3 1.3c.9 0 1.3-.6 1.5-1.9zm87.7-25.5h-.7c-.3.6-.9 1.2-.9 1.8 0 .5.7.9 1.1 1.4.5-.4 1.4-.9 1.4-1.4s-.6-1.2-.9-1.8zm9.5 22.1c-.4-.8-.9-1.5-1.4-2.2-.5.1-.9.3-1.2.7-.2.5-.2 1.1.1 1.6.5.8 1.4.7 2.5-.1zm-7.3-5.7 1.7 1.5c.4-.4.9-.8 1.1-1.3.3-1-.6-1.4-1.3-1.4-.4 0-.8.6-1.5 1.2zm12.8-13.5-2.6-1-.1.2 2.3 2.1c.1-.5.3-.9.4-1.3zM254.763 35.3c-.9-.1-1.8-.4-2.7-.7-2.5-1.2-4.9-2.6-7.4-4-1.4-.7-2.1-2.2-1.7-3.7.5-3.1.8-6.2 1-9.3.2-6.2-3.1-10.4-8.4-13-6.2-3.1-12.5-2.8-18.8-.2-.7.3-1.2.9-1.8 1.2-.5.2-1 .3-1.6.3 0-.6-.2-1.3.1-1.6 1.1-1 2.3-1.7 3.6-2.3 4.3-1.5 8.6-2.6 13.3-1.7 5.4 1.1 10.3 3 13.6 7.6 2.5 3.4 3.6 7.6 3.1 11.7-.2 2.2-.4 4.4-.7 6.6-.2.9.4 1.8 1.3 2.1 2.1 1 4.2 2.2 6.2 3.4 1.1.9 1.3 1.5.9 3.6zM170.063 34.5c.3-3.7 1.3-7.2 2.8-10.6 1.5-3.5 3.1-6.9 5.7-9.7 3.8-4.3 8.4-7.1 14.3-7.3 1.6 0 3.1.1 4.7.3.5.1.9.8 1.3 1.2-.5.4-1.1.6-1.7.7-3.3-.3-6.5.3-9.5 1.6-4.1 2-7.5 5.2-9.7 9.2-1.7 3.1-3.2 6.3-4.5 9.5-.6 1.5-1 3.1-1.2 4.8-.1.8 0 1.9-1 1.8-.5-.1-1-1.2-1.2-1.5zM174.563 71.5c-.3-2.5 1.3-4.2 2.7-5.8 3.2-3.4 2.8-6.8 1.1-10.7-.6-1.4-.8-2.9-.5-4.3 1.2-4.6 2.8-9.1 6-12.8.5-.7 1.1-1.2 1.8-1.7.3-.2 1 0 1.5 0-.1.4 0 1-.3 1.3-2.4 2.6-4.1 5.7-5.1 9-.4 1.2-.8 2.3-1.2 3.5-.6 1.6 0 3 .4 4.5.7 2.3 1.5 4.6 1.4 6.9-.1 1.8-1.4 3.5-2.4 5.2-.6 1-1.7 1.8-2.1 2.9-.3 1.3-.6 2.6-.7 3.9 0 .6-.3 1.1-.6 1.6-.6-.4-1.3-.7-1.6-1.2-.3-.7-.4-1.5-.4-2.3zM212.163 28.3c4.3.2 8.2 2.7 10.1 6.7 1.2 3.1 2.4 6.2 3.7 9.2.7 1.6 1.6 3.2 2.6 4.7 2 3 5 3 8.1 2.4.3-.1.7-.3 1-.2.5.2 1.3.5 1.4.8 0 .6-.2 1.2-.7 1.5-4.1 2.3-9.3 1-11.9-2.8-2.4-3.6-3.7-7.6-5.1-11.6-.8-2.3-1.5-4.7-3.5-6.3-2.3-1.9-5.3-2.7-8.2-2.1-.6 0-1.1-.2-1.7-.4.4-.4.7-1 1.2-1.2 1-.4 2-.6 3-.7zM256.063 56.1c.2-1.7-.8-3.4-2.5-4-3.4-1.6-4.6-3.5-2.6-7.8.2-.4.3-.7.4-1.1.3-1 1.1-2.2.7-2.9-.8-1.1-1.9-2.2-3-3-.5-.4-1-.7-1.5-1.2-.2-.3-.3-.7-.1-1.1.3-.3.7-.5 1.1-.5 2.7.8 4.9 2.6 6.3 5 .9 1.7 0 3.3-.6 4.9-.4.9-.6 1.7-.8 2.7 0 .4.6 1 1.1 1.4 1 .8 2.1 1.3 3 2.2 2.3 2.3 2.6 4.9 1.5 7.7-.4 1.1-1 2.1-1.4 3.1-.4.9-1.3 1.5-2.2 1-.6-.6-.8-1.4-.7-2.1.4-1.4.8-2.9 1.3-4.3z"/><path d="M233.863 64.4c-1 5.8-2.4 11-6 15.5-2.1 2.6-4.7 4.9-7.6 6.5-.5.3-1 .5-1.6.6-.4-.1-1.1-.6-1.1-1 0-.6.3-1.2.8-1.6 1.3-1 2.9-1.7 4-2.8 1.9-1.8 3.5-3.8 4.8-6 1.5-3.2 2.9-6.5 4-9.8.2-.6.5-1.2.9-1.7.3-.3.7-.5 1.2-.4.4 0 .6.6.6.7zM247.663 52.8c-.7 3.9-1.7 7.1-5 9-1.7 1-3.8.4-4.8-1.3-.1-.2-.2-.5-.3-.8-.2-.6.3-1.3.4-1.9.6.2 1.4.2 1.8.6 1.1.9 2 1 3-.1 2.1-2.3 2.7-5.6 1.5-8.5-.6-1.7-2.3-1.9-3.5-.6-.3.3-1 .4-1.5.6-.1-.6-.4-1.1-.2-1.6.3-1.3 1.4-2.2 2.8-2.2 1.7 0 3.4.5 4.2 2.1.7 1.5 1.2 3.1 1.6 4.7zM181.963 67.7l.9-1.4c.4.4 1 .8 1.2 1.3 1.4 3.4 2.5 6.9 4.1 10.2 1.5 2.8 3.7 5.1 6.4 6.7 0 0 .1 0 .1.1.4.7.8 1.3 1.2 2-.8.2-1.5.2-2.3.1-4.1-1.6-6.5-5-8.2-8.8-1.2-3-2.2-6.1-3.1-9.3v-.7l-.3-.2zM196.863 23.4c1.3.4 2.6.7 3.8 1.3.5.3.9.8 1.1 1.3.3.9-.3 1.4-1.2 1.2-5.9-1.5-9.1-.2-12.4 4.9-.2.4-.6.8-1 1.1-.5.2-1.1.4-1.7.5 0-.7-.4-1.5-.1-1.9 1-1.7 2.1-3.3 3.5-4.8 2-2.3 4.9-3.6 8-3.6zM168.663 61.5c-.8-.9-.7-2.3.3-3.1.1-.1.2-.1.3-.2 1.8-1.4 1.7-3.2.8-4.9-1.4-2.7.2-6.8 2.1-8.6.6-.4 1.3-.5 1.9-.2.8.5 0 1-.4 1.6-1.5 2.2-2.2 4.4-1 7 2 4.4.4 5.9-2.6 8.2-.4.2-1 .1-1.4.2zM199.763 2.2c2.5 0 4.9.7 7 2.1 1.3.8 2.6 1.8 3.6 3 .5.6.9 2 .7 2.2-.8.8-1.8.1-2.6-.5-1.3-1-2.7-2-4.1-3-2.9-2-6-1.2-9.2-.7-.6 0-1.2-.2-1.8-.5.4-.5.8-1.2 1.3-1.3 1.9-.6 3.8-1 5.1-1.3zM205.263 23.8c1-4.6 2.4-9 6.9-11.5.5-.3 1.3 0 2 0-.2.7-.1 1.6-.5 2-2.5 2.1-3.7 5-5.1 7.7-.3.6-.4 1.3-.4 2-.1 1-.3 2.2-1.4 2.2-1.2-.1-1.6-1.2-1.5-2.4zM209.363 75.1c1.8-.4 3.6-.9 5.4-1.3.5 0 1.1.1 1.6.3-.3.7-.4 1.9-.9 2.1-1.6.6-3.3 1-5 1.3-2.9.5-5.8.8-8.8 1.1-.8.1-1.7.2-2.5.1-.3-.1-.8-.6-.9-1-.1-.2.5-.7.8-.8 2.2-.5 4.4-.9 6.5-1.4M242.963 67h4.1c1.4.1 2.6 1 3 2.3.3 1.3-.1 2.6-1.2 3.3-.5.4-1.2.5-1.9.4-.3-.1-.6-1-.5-1.6.1-1-.2-1.3-1.1-1.2-1 .1-2.1.1-3.1-.1-.8-.2-1.8-.9-1.9-1.5 0-1 .3-2 .8-2.9.3-.3.8-.5 1.3-.4.3.3.3 1 .5 1.7zM219.363 40.8c.3.2.9.5.9.6-.1.6-.3 1.3-.7 1.5-1.9 1.1-3.9 2.2-5.8 3.2-.7.4-1.4.8-2.1 1.1-.6.1-1.2.1-1.7 0 .2-.6.1-1.4.5-1.7 1.8-1.2 3.7-2.4 5.6-3.4 1-.5 2.1-1 3.3-1.3zM195.063 48.6c-1.3-.4-2.3-.7-3.2-.9-1.4-.4-2.9-.7-4.3-1.2-.4-.1-.7-.8-1-1.2.5-.3 1-.9 1.4-.8 2.4.4 4.8 1 7.1 1.7.5.3.9.7 1 1.3 0 .4-.7.8-1 1.1zM205.263 71.6c-1.9-.6-3.7-1-5.3-1.7-.4-.3-.6-.9-.6-1.4.3-.5.7-.8 1.3-.8 1.6.2 3.2.5 4.8 1 .6.3 1.1 1 1.2 1.7.1.3-.9.8-1.4 1.2zM182.463 79.2c.4.5.9.9 1.1 1.4.6 1.8-1.4 5.6-3.2 6.3-.6.1-1.1 0-1.6-.3-.1-.4-.1-.8.1-1.2 1.8-1.5 2.9-3.6 3.2-5.9l.4-.3zM207.663 89.8l-.9 1.1c-.5-.4-1.3-.8-1.4-1.2-.2-1.9-.3-3.8-.2-5.7 0-.3.6-.7.9-1 .4.3 1 .6 1.1 1 .2 1.8.3 3.5.5 5.8zM204.063 90c-.1.1-.3.4-.6.6s-.9 0-1-.2c-.3-1.2-.6-2.5-.8-3.7 0-.2.6-.6 1-.6s.6.5.8.8c.1.2.2.5.2.7.2.6.2 1.3.4 2.4zM212.063 88.7c-.7.6-1.1 1.3-1.6 1.4-.9.1-1.8-1.5-1.7-3 .1-.5.7-.9 1-1.3l2.3 2.9zM219.263 53.6c.5.3.6 1 .3 1.4 0 .1-.1.1-.2.2-.4.4-.8.7-1.4.9-.3.1-1.3-.8-1.3-1.4-.1-.8.3-1.9 1.5-1.7.4.2.8.4 1.1.6zM211.563 85.8c.3-.5.6-1.1 1-1.2.3-.1 1 .4 1.2.8.3.7.5 1.4.6 2.1 0 .4-.3.7-.6.9-.4.1-.8-.1-1.1-.4-.5-.7-.8-1.4-1.1-2.2zM200.163 88.2c-.4.4-.7 1.2-1.1 1.2-1.3 0-1.3-1.2-1.3-2.1 0-.6.5-1.6.8-1.6 1.5.1 1.2 1.3 1.6 2.5zM195.263 56.7c-1.6 0-1.8-.8-1.9-1.7-.1-.6.4-1.2 1-1.3h.5c.7.3 1.2.9 1.4 1.6 0 .5-.8 1.1-1 1.4z"/><path d="M246.763 145.3c2.1 3.3 4.2 6.4 6.1 9.6.7 1 1.3 2.1 1.8 3.2s.2 2.4-.7 3.1c-2 1.7-4 3.5-5 6.1-1 2.6-1.9 5.2-2.7 7.9-1.5 5.2-2.9 10.5-4.1 15.8-1.4 6.3-2.6 12.6-3.8 18.9-.9 4.4-1.6 8.8-2.5 13.2-.9 4.7-1.8 9.5-2.7 14.2-.4 1.9-.8 3.7-1.2 5.5-.2.8-.6 1.5-1.7 1.2-.8-.1-1.4-.9-1.2-1.7 0-.1 0-.2.1-.2 1.1-6.1 2.2-12.3 3.3-18.4.9-4.9 1.7-9.9 2.7-14.8 1.9-9 3.9-18 6.1-26.9 1.3-5.1 2.9-10.2 4.6-15.2.8-2.7 2.6-5.1 5-6.6 1.1-.7.9-1.7.3-2.5-1.7-2.4-3.4-4.8-5-7.3-.9-1.5-1.6-3.1-2.1-4.8-.4-1.2.2-2.6 1.4-3.1 2.9-1.6 6-2.6 9.3-3 1.5-.2 3-.7 4.5-.9 1-.1 1-.6.8-1.3-.7-2.1-1.5-4.1-2.1-6.2-.8-2.8-1.6-5.7-2.3-8.5-1.3-4.8-2.6-9.6-3.9-14.3-.7-2.5-1.5-5-2.1-7.6-.3-1.4-.4-2.8-.3-4.2 0-.5.9-1 1.3-1.5.3.5.5.9.7 1.5.4 1.5.5 3 .9 4.5 1.4 5 3 10.1 4.5 15.1.8 2.6 1.7 5.2 2.5 7.8 1.3 4.1 2.6 8.3 3.9 12.4.4 1.1.6 2.2.6 3.4-.1.7-.6 1.3-1.2 1.7-1.6.4-3.3.4-5 .7-2.9.6-5.9 1.3-8.8 2.1-.7.2-1.4.6-2 1.1zM181.463 149.1c-3.7 1.1-6.8 2.4-9.2 5.1-.5.6-1.1 1-1.8 1.4-.8.3-1.9.7-2.5.3-.6-.6-.9-1.5-.7-2.4 1-4.4 2.2-8.8 3.3-13.3.7-3 1.3-6 2.1-8.9 1.3-4.8 2.6-9.5 4.2-14.2 1.1-3.4 2.5-6.8 3.8-10.1.3-.6.7-1.1 1.1-1.7h.5c.1.6.4 1.1.2 1.6-1.3 4.5-2.7 9-4 13.5-1.2 4.1-2.4 8.2-3.3 12.3-1.4 6.1-2.7 12.3-4 18.3 1.3-1 2.7-1.9 4.1-2.6 2.8-1.1 5.6-2 8.5-2.9.6-.1 1.1 0 1.6.4.3.5.3 1.2 0 1.7-3.6 7.5-6.7 15.2-9.2 23.1-.3.7-.3 1.5 0 2.2 1.7 2.5 2.4 5.4 3.4 8.2 1.4 3.7 3 7.3 4.3 11 1.7 4.7 3.1 9.5 4.6 14.3 1 3.3 2 6.6 2.9 9.9 1.5 5.1 2.8 10.2 4.4 15.2.7 2.4 1.8 4.7 2.7 7.1.4.9.7 1.7.9 2.6 0 .6-.1 1.1-.3 1.7-.6-.2-1.5-.2-1.7-.7-.9-1.6-1.8-3.3-2.5-5.1-1.4-3.5-2.7-7-3.9-10.6-1.5-4.7-2.7-9.5-4.1-14.2-2.2-7.3-4.5-14.6-6.9-21.8-1.3-4-2.9-7.8-4.5-11.7-.6-1.5-1.4-2.9-2.1-4.3-.7-1.1-1-2.6-.6-3.9 1.6-4.2 3-8.4 4.6-12.6 1.2-2.9 2.6-5.7 4.1-8.9zM226.163 112.1c-.2 3.1-.6 6.1-.7 9.2-.1 4.5 0 8.9 0 13.4v12.7c0 5.7.2 11.5.2 17.2 0 6.1-.2 12.1-.1 18.1.1 6.9.6 13.8.8 20.7.2 6.1.4 12.1.7 18.2.2 4.2.6 8.4.8 12.6 0 .4-.5 1.2-.7 1.2-.6 0-1.4-.3-1.5-.7-.5-1.2-.8-2.4-1-3.7-.3-5.8-.5-11.7-.7-17.5-.1-3.7-.4-7.3-.6-11-.3-7.9-.6-15.9-.7-23.8-.1-5.7 0-11.4.1-17.1.1-6.8.2-13.5.2-20.3.1-5.6-.1-11.3.1-16.9.1-3.8.7-7.5 1.1-11.2.1-1.1 0-2.2.2-3.3.1-.4.5-.8.8-1.3.4.4.7.8.9 1.3.1.7.1 1.4.1 2.2zM295.263 260.2c-.7.8-1.1 1.6-1.5 1.7-.8 0-1.6-.3-2.2-.8-2-2.2-3.8-4.6-5.8-6.9-2.6-2.9-5.2-5.7-7.9-8.4-2.1-2.2-4.6-4.1-6.6-6.3-1.8-2.1-3.4-4.3-4.8-6.6-.3-.6-.2-1.2.1-1.8.9-.7 1.2.2 1.7.8 2.8 4.1 6.4 7.3 10.1 10.5 3.1 2.6 5.9 5.6 8.8 8.4 1.8 1.7 3.6 3.4 5.3 5.2.9 1.2 1.7 2.7 2.8 4.2zM190.663 513.2c-.5.6-1 1.3-1.6 1.8-2.3 2.1-4.5 4.2-6.8 6.3-1.7 1.6-2.5 1.5-3.9-.5 3.5-3.5 8.1-5.2 12-8 .1.2.2.3.3.4zM186.663 527.4l3.5-8.3.5.1c-.1.9-.2 1.8-.4 2.6-.1.9-.3 1.9-.6 2.8-.3.9-.7 1.8-1.2 2.6-.3.4-1 .4-1.5.6-.1-.1-.2-.2-.3-.4zM202.263 527.9c-1 .2-2.1.1-2.1-1.2.1-.8.5-1.6 1-2.2.2-.2 1.3-.1 1.5.2.9 1.2.5 2.2-.4 3.2zM286.363 520.6c-.1 1.2-.6 1.8-1.7 1.8-1.3 0-1.4-1.1-1.4-1.9-.1-.9.5-1.7 1.4-1.8h.2c1.3 0 1.2 1.1 1.5 1.9zM204.163 517.1c-.1 1.6-.6 2.5-1.7 2.3-.5-.1-1.1-1-1.3-1.6-.2-.8.2-1.6 1-1.9.1 0 .3-.1.5-.1.6.1 1.2 1 1.5 1.3zM200.463 531.7c0 1.7-.7 2.4-1.8 2.5-.4 0-1.1-.9-1.2-1.4-.2-1 1-2.3 1.7-2.1.4.2.9.5 1.3 1zM294.563 538c.6-.4 1.3-1.3 1.8-1.2.7.3 1.2.9 1.4 1.6 0 .5-.8 1.4-1.4 1.5-.9.2-1.5-.5-1.8-1.9zM304.663 543.5c-.6.4-1.2 1.1-1.5 1-.7-.3-1.3-.9-1.5-1.7-.1-.4.8-1.4 1.3-1.5 1.1-.1 1.4.9 1.7 2.2zM190.163 542.2c-.9.7-1.5 1.3-2.1 1.4-.4.1-1.2-.8-1.2-1.3-.1-.9.6-1.7 1.5-1.8.5.1 1 .9 1.8 1.7zM294.563 516.9c1.1 2.1 4.5 2.8 3.3 6.2l-3.7-6 .4-.2zM195.763 536.6c-.1 1.3-.6 1.9-1.6 1.9-.8 0-1.4-.4-1.3-1.3s.5-1.8 1.6-1.6c.5.1 1 .8 1.3 1zM283.463 511.1c.3.6 1 1.2.9 1.8s-.9.9-1.4 1.4c-.4-.5-1.1-.9-1.1-1.4 0-.6.6-1.2.9-1.8h.7zM292.963 533.2c-1.1.9-2 1-2.6 0-.3-.5-.3-1.1-.1-1.6.3-.4.8-.6 1.2-.7.6.8 1.1 1.5 1.5 2.3zM285.663 527.5c.7-.6 1.1-1.2 1.5-1.2.7 0 1.6.4 1.3 1.4-.1.5-.7.9-1.1 1.3l-1.7-1.5zM298.463 514c-.1.4-.3.8-.4 1.3l-2.3-2.1.1-.2 2.6 1z" class="st2"/><g class="st3"><path d="M300 43.908v12.4h-8.1v-12.5l-13.6-22.5h8.6l9.4 15.6 9.4-15.6h8l-13.7 22.6zM342.3 29.408v26.9h-7.4v-3.2c-2 2.4-5.1 3.6-8.4 3.6-6.8 0-11.5-3.8-11.5-12.1v-15.2h7.8v14.1c0 4.5 2 6.5 5.5 6.5 3.6 0 6.2-2.3 6.2-7.2v-13.3h7.8zM347.4 53.808l2.6-5.6c2.4 1.5 6.1 2.6 9.4 2.6 3.6 0 4.9-1 4.9-2.5 0-4.4-16.2.1-16.2-10.7 0-5.1 4.6-8.7 12.5-8.7 3.7 0 7.8.9 10.3 2.4l-2.6 5.5c-2.7-1.5-5.3-2-7.8-2-3.5 0-5 1.1-5 2.5 0 4.6 16.3.2 16.3 10.8 0 5-4.7 8.6-12.7 8.6-4.6 0-9.2-1.2-11.7-2.9zM404.2 29.408v26.9h-7.4v-3.2c-2 2.4-5 3.6-8.4 3.6-6.8 0-11.5-3.8-11.5-12.1v-15.2h7.8v14.1c0 4.5 2 6.5 5.5 6.5 3.6 0 6.2-2.3 6.2-7.2v-13.3h7.8zM423.5 45.708l-3.8 3.7v6.9h-7.8v-37.1h7.8v21l11.4-10.8h9.3l-11.2 11.4 12.2 15.5h-9.5l-8.4-10.6zM470.5 45.008h-20.4c.8 3.4 3.6 5.4 7.7 5.4 2.8 0 4.9-.8 6.8-2.6l4.2 4.5c-2.5 2.9-6.2 4.4-11.1 4.4-9.3 0-15.4-5.9-15.4-13.9s6.2-13.9 14.4-13.9c7.9 0 14 5.3 14 14-.1.6-.2 1.5-.2 2.1zm-20.5-4.5h13.3c-.5-3.4-3.1-5.6-6.6-5.6-3.6 0-6.2 2.1-6.7 5.6z" class="st4"/></g><g class="st3"><path d="M440 85.808c0-10.4 8.1-18.1 19.2-18.1 11 0 19.2 7.7 19.2 18.1 0 10.5-8.2 18.1-19.2 18.1-11.1 0-19.2-7.7-19.2-18.1zm30.1 0c0-6.7-4.7-11.2-11-11.2s-11 4.6-11 11.2 4.7 11.2 11 11.2 11-4.6 11-11.2z" class="st4"/></g><g class="st3"><path d="m446 219.808 2.6-5.6c2.4 1.5 6.1 2.6 9.4 2.6 3.6 0 4.9-1 4.9-2.5 0-4.4-16.2.1-16.2-10.7 0-5.1 4.6-8.7 12.5-8.7 3.7 0 7.8.9 10.3 2.4l-2.6 5.5c-2.7-1.5-5.3-2-7.8-2-3.5 0-5 1.1-5 2.5 0 4.6 16.3.2 16.3 10.8 0 5-4.7 8.6-12.7 8.6-4.6 0-9.2-1.2-11.7-2.9z" class="st4"/></g><g class="st3"><path d="M474.8 247.008h-20.4c.8 3.4 3.6 5.4 7.7 5.4 2.9 0 4.9-.8 6.8-2.6l4.2 4.5c-2.5 2.9-6.3 4.4-11.1 4.4-9.3 0-15.4-5.9-15.4-13.9s6.2-13.9 14.4-13.9c7.9 0 14 5.3 14 14 0 .6-.1 1.5-.2 2.1zm-20.4-4.5h13.3c-.6-3.4-3.1-5.6-6.6-5.6-3.6 0-6.2 2.1-6.7 5.6z" class="st4"/></g><g class="st3"><path d="M444.6 171.808c0-8.1 6.3-13.9 14.8-13.9 8.6 0 14.8 5.8 14.8 13.9s-6.2 13.9-14.8 13.9c-8.5 0-14.8-5.8-14.8-13.9zm21.7 0c0-4.7-3-7.5-6.9-7.5-3.9 0-6.9 2.8-6.9 7.5s3 7.5 6.9 7.5c3.9 0 6.9-2.8 6.9-7.5z" class="st4"/></g><g class="st3"><path d="M473.4 112.408v22.4c0 10-5.4 14.6-15.1 14.6-5.1 0-10.1-1.2-13.2-3.7l3.1-5.6c2.3 1.9 6.1 3.1 9.5 3.1 5.5 0 7.9-2.5 7.9-7.4v-1.2c-2 2.2-5 3.4-8.5 3.4-7.5 0-13.5-5.2-13.5-13s6-13 13.5-13c3.8 0 6.9 1.2 8.9 3.9v-3.5h7.4zm-7.7 12.6c0-4-3-6.6-7-6.6-4.1 0-7.1 2.7-7.1 6.6s3 6.6 7.1 6.6c4 0 7-2.7 7-6.6z" class="st4"/></g><g class="st3"><path d="M1.9 39.708h5.3c4.1 0 6.8 2.6 6.8 6.3s-2.8 6.3-6.8 6.3H1.9v-12.6zm5.2 11c3.1 0 5.1-1.9 5.1-4.7s-2-4.7-5.1-4.7H3.7v9.5h3.4zM25.1 48.108h-7.7c.2 1.7 1.6 2.8 3.5 2.8 1.1 0 2.1-.4 2.8-1.2l1 1.1c-.9 1-2.2 1.5-3.8 1.5-3.1 0-5.1-2-5.1-4.9 0-2.8 2-4.9 4.8-4.9s4.7 2 4.7 4.9c-.2.3-.2.5-.2.7zm-7.7-1.2h6.1c-.2-1.6-1.4-2.7-3.1-2.7-1.6-.1-2.9 1-3 2.7zM26.3 51.308l.7-1.4c.8.6 2.1 1 3.3 1 1.6 0 2.3-.5 2.3-1.3 0-2.1-6-.3-6-4.1 0-1.7 1.5-2.9 4-2.9 1.2 0 2.6.3 3.5.9l-.7 1.4c-.9-.6-1.8-.8-2.8-.8-1.5 0-2.3.6-2.3 1.3 0 2.2 6 .4 6 4.1 0 1.7-1.6 2.8-4.1 2.8-1.5.1-3.1-.4-3.9-1zM36.2 39.808c0-.6.5-1.1 1.2-1.1s1.2.5 1.2 1.1c0 .6-.5 1.2-1.2 1.2-.7-.1-1.2-.6-1.2-1.2zm.3 3h1.7v9.5h-1.7v-9.5zM50.7 42.808v8.2c0 3.4-1.7 4.9-5 4.9-1.7 0-3.5-.5-4.6-1.4l.8-1.3c.9.8 2.3 1.2 3.7 1.2 2.3 0 3.3-1 3.3-3.2v-.8c-.8 1-2.1 1.5-3.4 1.5-2.8 0-4.8-1.9-4.8-4.6s2.1-4.6 4.8-4.6c1.4 0 2.7.5 3.5 1.6v-1.5h1.7zm-1.7 4.5c0-1.9-1.4-3.1-3.3-3.1s-3.3 1.2-3.3 3.1c0 1.8 1.4 3.1 3.3 3.1s3.3-1.3 3.3-3.1zM63 46.808v5.5h-1.7v-5.3c0-1.9-.9-2.8-2.6-2.8-1.8 0-3 1.1-3 3.2v4.9H54v-9.5h1.7v1.4c.7-1 1.9-1.5 3.4-1.5 2.3 0 3.9 1.3 3.9 4.1zM70.2 50.908l.7-1.4c.9.8 2.5 1.5 4.2 1.5 2.2 0 3.1-.8 3.1-1.9 0-3.1-7.6-1.1-7.6-5.8 0-1.9 1.5-3.6 4.8-3.6 1.5 0 3 .4 4.1 1.1l-.6 1.4c-1.1-.7-2.3-1-3.5-1-2.1 0-3.1.9-3.1 2 0 3.1 7.6 1.2 7.6 5.8 0 1.9-1.5 3.6-4.9 3.6-1.9-.2-3.8-.8-4.8-1.7zM87.6 51.708c-.5.5-1.3.7-2.1.7-1.9 0-3-1.1-3-3v-5.2h-1.6v-1.4h1.6v-2.1h1.7v2.1h2.7v1.4h-2.7v5.2c0 1 .5 1.6 1.5 1.6.5 0 1-.2 1.4-.5l.5 1.2zM94.8 42.708v1.7h-.4c-1.9 0-3 1.1-3 3.2v4.8h-1.7v-9.5h1.7v1.6c.6-1.3 1.8-1.8 3.4-1.8zM104.5 46.508v5.8h-1.6v-1.3c-.6.9-1.6 1.4-3.1 1.4-2.2 0-3.5-1.2-3.5-2.8 0-1.5 1-2.8 3.8-2.8h2.7v-.3c0-1.5-.8-2.3-2.6-2.3-1.1 0-2.3.4-3 1l-.7-1.3c1-.8 2.4-1.2 3.9-1.2 2.6 0 4.1 1.2 4.1 3.8zm-1.7 2.9v-1.3h-2.7c-1.7 0-2.2.7-2.2 1.5 0 1 .8 1.5 2.1 1.5s2.3-.6 2.8-1.7zM113.1 51.708c-.5.5-1.3.7-2.1.7-1.9 0-3-1.1-3-3v-5.2h-1.6v-1.4h1.6v-2.1h1.7v2.1h2.7v1.4h-2.7v5.2c0 1 .5 1.6 1.5 1.6.5 0 1-.2 1.4-.5l.5 1.2zM123.4 48.108h-7.7c.2 1.7 1.6 2.8 3.5 2.8 1.1 0 2.1-.4 2.8-1.2l1 1.1c-.9 1-2.2 1.5-3.8 1.5-3.1 0-5.1-2-5.1-4.9 0-2.8 2-4.9 4.8-4.9s4.7 2 4.7 4.9c-.1.3-.2.5-.2.7zm-7.7-1.2h6.1c-.2-1.6-1.4-2.7-3.1-2.7-1.6-.1-2.8 1-3 2.7zM135 42.808v8.2c0 3.4-1.7 4.9-5 4.9-1.7 0-3.5-.5-4.6-1.4l.8-1.3c.9.8 2.3 1.2 3.7 1.2 2.3 0 3.3-1 3.3-3.2v-.8c-.8 1-2.1 1.5-3.4 1.5-2.8 0-4.8-1.9-4.8-4.6s2.1-4.6 4.8-4.6c1.4 0 2.7.5 3.5 1.6v-1.5h1.7zm-1.7 4.5c0-1.9-1.4-3.1-3.3-3.1s-3.3 1.2-3.3 3.1c0 1.8 1.4 3.1 3.3 3.1s3.3-1.3 3.3-3.1zM138 39.808c0-.6.5-1.1 1.2-1.1s1.2.5 1.2 1.1c0 .6-.5 1.2-1.2 1.2-.7-.1-1.2-.6-1.2-1.2zm.3 3h1.7v9.5h-1.7v-9.5zM142.1 51.308l.7-1.4c.8.6 2.1 1 3.3 1 1.6 0 2.3-.5 2.3-1.3 0-2.1-6-.3-6-4.1 0-1.7 1.5-2.9 4-2.9 1.2 0 2.6.3 3.5.9l-.7 1.4c-.9-.6-1.8-.8-2.8-.8-1.5 0-2.3.6-2.3 1.3 0 2.2 6 .4 6 4.1 0 1.7-1.6 2.8-4.1 2.8-1.6.1-3.1-.4-3.9-1zM157.7 51.708c-.5.5-1.3.7-2.1.7-1.9 0-3-1.1-3-3v-5.2H151v-1.4h1.6v-2.1h1.7v2.1h2.7v1.4h-2.7v5.2c0 1 .5 1.6 1.5 1.6.5 0 1-.2 1.4-.5l.5 1.2z" class="st4"/></g></svg>