<svg width="402" height="397" viewBox="0 0 402 397" fill="none" xmlns="http://www.w3.org/2000/svg">
<rect x="75.1387" y="35" width="301.968" height="287.443" transform="rotate(6.62034 75.1387 35)" fill="white"/>
<path d="M312.935 76.1593L315.535 67.4745L319.195 68.5703C321.986 69.406 323.357 71.7361 322.584 74.3167C321.812 76.8973 319.386 78.0908 316.595 77.255L312.935 76.1593ZM314.498 75.4513L316.843 76.1534C318.99 76.7959 320.761 75.8931 321.344 73.9452C321.927 71.9974 320.943 70.27 318.797 69.6274L316.452 68.9254L314.498 75.4513ZM329.927 77.7046C329.897 77.8038 329.84 77.949 329.795 78.057L324.46 76.4598C324.263 77.6582 324.963 78.706 326.266 79.096C327.035 79.3263 327.758 79.2589 328.402 78.8703L328.829 79.8363C328.026 80.3528 327.009 80.4539 325.917 80.127C323.795 79.4919 322.801 77.6665 323.387 75.7062C323.971 73.7583 325.792 72.7761 327.691 73.3444C329.589 73.9127 330.533 75.6823 329.927 77.7046ZM327.39 74.3493C326.248 74.0076 325.174 74.5242 324.716 75.6037L328.934 76.8666C329.141 75.7252 328.543 74.6948 327.39 74.3493ZM332.471 82.0893C331.38 81.7625 330.4 81.1043 329.985 80.5067L330.763 79.7123C331.203 80.2765 332.01 80.8293 332.866 81.0856C333.971 81.4161 334.53 81.2186 334.697 80.6603C335.139 79.1839 330.6 79.2175 331.384 76.5996C331.737 75.421 333.029 74.9427 334.717 75.4478C335.573 75.7041 336.473 76.2172 336.933 76.7602L336.142 77.5509C335.661 76.988 335.045 76.6546 334.4 76.4615C333.357 76.1495 332.734 76.3818 332.578 76.9029C332.113 78.4537 336.661 78.4363 335.896 80.9921C335.539 82.1831 334.221 82.6131 332.471 82.0893ZM339.766 75.6483C339.307 75.5109 339.06 75.0719 339.19 74.6377C339.32 74.2034 339.772 73.96 340.231 74.0975C340.69 74.2349 340.937 74.6739 340.81 75.0957C340.677 75.5424 340.238 75.7895 339.766 75.6483ZM336.823 83.3111L338.792 76.7355L339.983 77.0921L338.014 83.6677L336.823 83.3111ZM347.418 79.3181L348.547 79.6561L346.846 85.3384C346.152 87.6585 344.657 88.3602 342.424 87.6916C341.221 87.3313 340.105 86.6323 339.579 85.7717L340.424 85.0245C340.876 85.7276 341.731 86.3486 342.699 86.6383C344.25 87.1026 345.172 86.5947 345.618 85.1059L345.774 84.5848C344.999 85.0963 344.043 85.175 343.1 84.8927C341.201 84.3244 340.149 82.6033 340.717 80.705C341.285 78.8068 343.107 77.9597 345.005 78.528C345.985 78.8215 346.771 79.4487 347.114 80.3354L347.418 79.3181ZM343.548 83.8914C344.863 84.2851 346.07 83.6865 346.449 82.4211C346.831 81.1432 346.145 80.0048 344.83 79.6111C343.502 79.2136 342.303 79.7874 341.92 81.0653C341.541 82.3308 342.221 83.494 343.548 83.8914ZM354.353 81.3265C355.953 81.8057 356.807 83.0618 356.228 84.9973L355.095 88.7813L353.904 88.4248L354.996 84.7772C355.382 83.4869 354.927 82.661 353.798 82.323C352.532 81.9441 351.487 82.4558 351.06 83.8825L350.046 87.2696L348.855 86.913L350.823 80.3374L351.965 80.6791L351.667 81.6717C352.352 81.1466 353.311 81.0145 354.353 81.3265ZM364.252 87.9807C364.222 88.08 364.165 88.2251 364.119 88.3331L358.784 86.7359C358.588 87.9343 359.288 88.9821 360.591 89.3721C361.36 89.6024 362.083 89.535 362.727 89.1464L363.154 90.1125C362.35 90.629 361.333 90.73 360.241 90.4032C358.12 89.768 357.125 87.9426 357.712 85.9823C358.295 84.0345 360.117 83.0522 362.015 83.6205C363.913 84.1888 364.857 85.9584 364.252 87.9807ZM361.714 84.6255C360.573 84.2837 359.499 84.8004 359.041 85.8799L363.259 87.1427C363.465 86.0014 362.868 84.9709 361.714 84.6255ZM367.712 86.5968C368.364 85.9538 369.302 85.802 370.456 86.1474L370.11 87.3012C370.015 87.2591 369.928 87.2331 369.841 87.2071C368.563 86.8245 367.535 87.3684 367.104 88.8076L366.124 92.083L364.932 91.7264L366.901 85.1508L368.042 85.4926L367.712 86.5968Z" fill="black"/>
<path d="M56.7584 103.149L44.0739 104.531L45.1934 109.286L50.537 112.749L47.3871 117.61L26.2544 103.915L29.4043 99.054L39.2763 105.452L35.4692 89.6953L38.9908 84.2611L42.7363 99.1202L60.4561 97.4429L56.7584 103.149ZM49.1868 78.7148C52.3953 73.7637 56.5483 72.3826 61.4692 75.5716L70.7374 81.5778L67.8811 85.9855L65.8584 84.6747C66.7703 86.5089 66.4596 88.7082 64.914 91.0931C62.4489 94.897 58.8683 95.7917 56.0607 93.9723C53.1927 92.1136 52.511 88.7997 55.7195 83.8486L58.1455 80.1051C56.1228 78.7943 54.1628 79.2389 52.5194 81.7748C51.4043 83.4956 50.8236 85.6485 50.9964 87.4324L46.6102 86.9905C46.4965 84.3876 47.5042 81.3111 49.1868 78.7148ZM62.5071 87.8615C63.5245 86.2916 63.6803 84.4635 62.5532 82.9615L60.8928 81.8854L58.7994 85.1157C57.3712 87.3196 57.7363 88.5422 58.8231 89.2465C60.0005 90.0095 61.4311 89.5219 62.5071 87.8615ZM56.5195 62.9677C55.3847 64.7187 53.4745 65.1527 51.9952 64.194C50.516 63.2354 50.1318 61.3145 51.2665 59.5635C52.4012 57.8125 54.2511 57.3395 55.7002 58.2786C57.27 59.2959 57.6542 61.2167 56.5195 62.9677ZM73.4997 77.3154L57.2577 66.7898L60.3097 62.0803L76.5517 72.6059L73.4997 77.3154ZM81.2456 56.3664L85.3881 57.2505C85.4565 58.6666 84.869 60.3007 83.9299 61.7498C81.4453 65.5839 78.0352 66.5462 74.1709 64.042L67.499 59.7183L65.8752 62.224L62.2524 59.8763L63.8763 57.3706L59.9214 54.8076L62.9735 50.0981L66.9283 52.661L69.5499 48.6156L73.1727 50.9633L70.551 55.0087L77.1626 59.2933C78.5513 60.1932 79.7951 59.9276 80.6168 58.6596C81.0668 57.9653 81.3055 57.134 81.2456 56.3664ZM92.8115 48.0447C89.466 53.2071 83.5487 54.7309 78.658 51.5615C73.7672 48.392 72.741 42.3685 76.0865 37.206C79.432 32.0436 85.3298 30.55 90.2205 33.7194C95.1112 36.8888 96.157 42.8822 92.8115 48.0447ZM88.9472 45.5404C90.4733 43.1856 89.9369 40.3089 87.1293 38.4894C84.3217 36.6699 81.4768 37.3555 79.9507 39.7103C78.4247 42.0651 78.9415 44.972 81.7491 46.7915C84.5568 48.611 87.4212 47.8952 88.9472 45.5404Z" fill="black"/>
<path d="M23.1818 145.492L46.0314 134.906L48.4811 140.194L25.6315 150.78L23.1818 145.492ZM30.4531 161.872C29.0771 158.902 28.5019 155.521 28.8231 153.39L33.2653 153.393C32.9792 155.429 33.3976 158.13 34.3956 160.284C35.4844 162.634 36.5129 163.228 37.4921 162.775C40.3647 161.444 32.5123 152.196 39.5304 148.945C42.8599 147.402 46.6013 149.317 48.9754 154.442C50.0944 156.857 50.7795 159.791 50.5714 161.909L46.1618 161.89C46.3396 159.707 45.8646 157.825 45.1237 156.226C44.0651 153.941 42.8934 153.294 41.9794 153.718C38.9763 155.109 46.796 164.372 39.8758 167.578C36.6116 169.09 32.8877 167.128 30.4531 161.872ZM58.778 175.602C60.6984 179.747 59.7346 184 54.3813 186.48L44.3275 191.138L41.9685 186.045L51.2389 181.751C54.0788 180.435 54.7796 178.525 53.7362 176.272C52.6021 173.824 50.284 172.757 47.0524 174.254L38.3696 178.277L36.0106 173.184L60.2311 161.964L62.5901 167.056L54.1031 170.988C56.1092 171.724 57.7346 173.35 58.778 175.602ZM67.6549 189.03C66.7779 187.137 67.4285 185.289 69.028 184.548C70.6274 183.807 72.4576 184.505 73.3346 186.399C74.2117 188.292 73.6263 190.109 72.0595 190.835C70.3621 191.622 68.532 190.923 67.6549 189.03ZM46.4658 195.753L64.0273 187.618L66.3862 192.71L48.8247 200.846L46.4658 195.753ZM57.3506 208.98L61.63 218.217L57.7129 220.032L50.4546 204.364L53.5229 202.942L68.2423 206.987L64.2048 198.271L68.1219 196.457L75.1383 211.603L72.07 213.024L57.3506 208.98ZM80.3286 222.122C82.8086 227.475 81.7643 231.726 76.4436 234.191L66.4225 238.833L64.2147 234.067L66.4018 233.054C64.3638 232.848 62.6683 231.413 61.4737 228.835C59.5683 224.722 60.7192 221.215 63.7549 219.809C66.8559 218.372 70.0234 219.561 72.5034 224.915L74.3784 228.962C76.5655 227.949 77.2336 226.054 75.9634 223.312C75.1015 221.451 73.5891 219.813 71.9875 219.008L74.6987 215.532C76.9618 216.823 79.0282 219.315 80.3286 222.122ZM65.4908 228.52C66.2771 230.217 67.741 231.323 69.6127 231.17L71.408 230.338L69.79 226.846C68.6861 224.463 67.457 224.12 66.2819 224.665C65.0088 225.254 64.6591 226.725 65.4908 228.52ZM96.9496 258.686L99.0363 263.19L78.5261 264.96L76.2579 260.064L85.3307 251.064L72.538 252.034L70.2697 247.138L84.8976 232.67L87.1205 237.468L77.1592 247.118L91.037 245.922L93.0331 250.231L83.0869 259.914L96.9496 258.686ZM103.41 271.946C105.89 277.299 104.845 281.55 99.5247 284.014L89.5036 288.657L87.2958 283.891L89.4828 282.878C87.4449 282.672 85.7493 281.237 84.5547 278.659C82.6494 274.546 83.8003 271.039 86.836 269.633C89.937 268.196 93.1045 269.385 95.5845 274.739L97.4595 278.786C99.6466 277.773 100.315 275.878 99.0445 273.136C98.1826 271.275 96.6702 269.636 95.0686 268.832L97.7798 265.356C100.043 266.647 102.109 269.139 103.41 271.946ZM88.5719 278.344C89.3582 280.041 90.8221 281.147 92.6938 280.994L94.4891 280.162L92.8711 276.67C91.7672 274.287 90.5381 273.944 89.363 274.489C88.0899 275.078 87.7402 276.549 88.5719 278.344Z" fill="black"/>
<path d="M124.291 29.1045L61.7864 126.057L159.119 337.785L359.653 219.087L363.437 103.795L124.291 29.1045ZM121.424 21.1948L370.296 98.9232L366.229 222.842L366.375 222.888L366.224 222.977L366.21 223.416L365.734 223.267L156.139 347.329L54.4077 126.032L53.9315 125.883L54.1695 125.514L54.0961 125.356L54.2422 125.402L121.424 21.1948Z" fill="black"/>
<path d="M256.156 354.206L267.578 349.383L271.724 357.59L277.393 364.612L287.8 373.412L289.746 376.119L290.846 380.011L280.354 388.641L267.325 386.188L256.156 364.697V354.206Z" fill="white"/>
<path d="M186.184 363.006V368.082L192.529 372.059L197.437 372.905L208.182 367.574L215.881 361.483L225.865 358.691L231.365 357.76L233.903 355.391V348.622H207.505L189.991 358.691L186.184 363.006Z" fill="white"/>
<path d="M197.014 7.73312L203.022 3.92572L211.483 0.625977L218.844 1.13363L225.951 2.65659L235.088 7.73312L238.98 14.1634L239.573 27.3624L242.111 30.2391L242.365 34.5541L239.573 39.5461L234.242 40.8998L226.374 56.8909L210.044 60.0214L200.314 46.3994L194.476 42.8458L192.784 37.177L193.799 32.1005L191.092 22.3705L191.684 16.2786L197.014 7.73312Z" fill="white"/>
<path d="M200.822 350.06C201.245 349.637 201.668 349.214 202.006 348.876C200.737 348.537 199.468 348.284 198.199 347.861C197.268 347.522 196.506 347.015 195.66 346.592C194.814 346.168 193.799 345.83 192.953 345.407C192.53 345.153 192.022 344.73 191.853 344.307C190.668 339.654 189.484 335.085 188.384 330.431C187.623 327.131 186.861 323.916 186.184 320.617C185.846 319.009 185.592 317.317 185.254 315.709C185.084 314.863 184.83 314.017 184.661 313.171C183.561 308.602 182.715 304.033 182.377 299.38C182.123 296.503 181.531 293.626 181.023 290.834C180.431 287.619 179.754 284.319 179.331 281.104C178.823 277.551 178.485 273.912 178.146 270.274C177.808 266.975 177.723 263.759 177.469 260.46C177.3 258.598 176.962 256.821 176.877 254.96C176.793 253.268 176.877 251.491 176.793 249.799C176.708 248.022 176.539 246.245 176.454 244.469C176.37 242.523 176.285 240.577 176.2 238.631C176.031 234.739 175.947 230.847 175.777 226.955C175.608 223.909 175.439 220.863 175.27 217.817C175.185 215.448 175.185 213.079 175.016 210.71C174.847 207.918 174.593 205.21 174.424 202.418C174.17 198.611 173.831 194.888 173.747 191.08C173.662 189.388 174.085 187.696 174.254 186.004C174.424 184.227 174.593 182.45 174.762 180.673C174.847 179.404 175.016 178.135 175.185 176.697C173.408 176.189 172.308 174.835 171.208 173.397C169.178 170.774 166.893 168.321 165.032 165.613C163.34 163.159 161.817 160.452 160.548 157.744C159.532 155.629 159.109 153.345 159.448 150.891C159.532 150.045 159.532 149.03 158.856 148.184C158.517 147.676 158.517 146.999 158.517 146.407C158.517 143.446 158.432 140.4 158.517 137.438C158.517 135.831 158.602 134.308 158.771 132.7C158.94 130.416 159.194 128.131 159.532 125.847C159.955 122.886 160.463 120.009 160.886 117.048C161.225 114.763 161.478 112.479 161.901 110.279C162.409 107.91 163.171 105.541 163.847 103.172C164.271 101.733 164.778 100.38 165.201 99.0259C165.878 97.0799 166.555 95.1338 167.316 93.1878C167.993 91.4957 168.586 89.7189 169.262 88.0267C169.601 87.1806 170.362 86.4191 170.532 85.4884C170.955 83.1194 172.816 82.0195 174.424 80.7503C176.031 79.3966 177.554 78.0428 179.246 76.7737C181.7 74.9969 184.154 73.3048 186.776 71.528C186.1 67.2129 188.046 63.5747 190.584 60.1904C192.53 57.7367 194.56 55.2831 196.676 52.9986C197.86 51.7295 199.299 50.8834 200.737 49.7835C200.229 48.7682 199.722 47.6683 199.214 46.653C199.129 46.4837 198.876 46.3145 198.706 46.3145C196.845 45.9761 195.491 44.9608 194.222 43.3532C192.361 40.8995 191.684 38.3613 192.361 35.4C192.53 34.7231 192.361 31.2541 192.022 30.4927C190.838 27.8698 190.584 24.9931 190.245 22.201C190.076 20.5088 190.076 18.732 190.161 16.9552C190.161 16.2784 190.415 15.6015 190.838 15.0092C191.853 13.4017 192.784 11.7941 193.968 10.3557C195.068 9.00199 196.337 7.81747 197.522 6.54834C197.945 6.12529 198.452 6.04068 198.791 6.54834C199.214 7.05599 198.96 7.39443 198.537 7.73286C197.606 8.57895 196.506 9.42504 195.83 10.4403C194.476 12.3864 193.038 14.3324 192.191 16.5322C191.599 17.9705 191.853 19.8319 192.022 21.4395C192.361 25.9238 193.545 30.1542 195.322 34.2154C195.407 34.3847 195.407 34.6385 195.491 34.9769C195.237 34.8923 195.153 34.8077 194.984 34.7231C194.814 34.6385 194.73 34.5539 194.476 34.4693C193.376 35.7384 193.63 37.346 193.884 38.8689C194.222 41.4072 196.845 44.1147 198.368 44.5377C198.452 44.1147 198.368 43.607 198.537 43.184C198.622 42.9302 198.96 42.5917 199.214 42.5917C199.468 42.5917 199.806 42.9302 199.891 43.184C200.822 45.13 201.837 46.9914 202.598 48.9374C203.275 50.7142 204.291 52.1525 205.729 53.1678C207.929 54.6908 209.875 56.6368 212.751 56.9752C213.767 57.1445 214.697 57.5675 215.628 57.6521C216.559 57.6521 217.659 57.4829 218.505 57.1445C221.212 55.9599 223.666 54.3524 225.866 52.3217C227.22 51.0526 228.573 49.9527 229.504 48.3451C230.942 45.9761 231.873 43.4378 232.55 40.8149C232.719 40.1381 232.804 39.4612 233.058 38.8689C233.227 38.5305 233.65 38.2767 233.904 38.0228C234.157 38.3613 234.411 38.6151 234.665 38.9535C234.75 39.0382 234.665 39.292 234.665 39.4612C236.103 39.7996 236.019 39.7996 236.273 38.3613C236.357 37.769 236.696 37.0921 237.119 36.8383C237.88 36.3307 238.472 36.9229 238.642 38.0228C240.588 36.4999 240.588 34.0462 241.434 32.0156L241.688 32.1002C241.434 31.4234 241.18 30.7465 240.842 30.0696C240.419 29.3081 239.911 28.8851 238.896 28.9697C238.219 29.0543 237.457 28.6313 236.865 29.3081C236.611 29.6466 236.357 29.985 236.019 30.3234C235.765 30.6619 235.427 30.9157 235.088 31.1695C234.919 30.7465 234.496 30.3234 234.496 29.9004C234.665 28.6313 235.765 28.039 236.696 27.4467C237.119 27.1929 237.626 27.1083 238.049 26.9391C238.642 22.7932 238.303 18.732 237.626 14.5862C237.119 11.5403 235.511 9.25582 233.058 7.39443C230.773 5.61764 228.15 4.43311 225.358 3.75624C224.512 3.58703 223.581 3.50242 222.651 3.24859C222.397 3.16398 222.143 2.99476 222.058 2.74094C221.974 2.48711 222.143 2.06407 222.312 1.97946C222.904 1.81024 223.497 1.64102 224.089 1.72563C227.05 2.31789 229.927 3.07937 232.465 4.77155C233.904 5.70225 234.919 7.05599 236.188 8.24051C238.219 10.1019 239.149 12.6402 239.488 15.1784C239.995 18.309 239.826 21.6087 239.911 24.8239C239.911 25.4161 239.826 26.0084 239.826 26.516C239.826 26.7699 239.995 27.1083 240.249 27.1929C242.618 28.2082 244.311 32.3541 242.872 35.0615C242.788 35.2308 242.703 35.4 242.618 35.5692C242.111 36.2461 241.603 37.0075 241.011 37.6844C240.842 37.8536 240.672 38.1075 240.503 38.2767C241.772 40.3073 241.603 42.5071 240.165 43.9455C238.896 45.2146 236.696 44.8762 236.273 42.9302C236.188 42.5071 236.019 41.9995 235.85 41.5764C234.327 41.4072 234.327 41.4072 233.819 42.8456C233.65 43.3532 233.311 43.8609 233.142 44.3685C236.019 45.3838 238.896 46.4837 241.772 47.499C243.464 48.0913 245.241 48.6836 246.933 49.3604C247.441 49.5297 247.949 50.0373 248.287 50.4604C249.641 52.2371 250.825 54.0985 252.179 55.8753C253.617 57.7367 254.125 59.7673 254.21 61.9672C254.294 63.3209 254.294 64.6746 254.294 66.0284C254.294 66.7053 254.548 67.1283 255.14 67.3821C257.763 68.482 260.386 69.4974 262.924 70.6819C264.87 71.6126 266.986 72.4587 268.339 74.2354C269.693 76.0122 270.708 78.1275 271.808 80.1581C272.316 81.0888 272.654 82.1887 273.331 83.0348C274.939 85.3192 275.447 88.0267 276.123 90.6496C276.8 93.2725 277.223 95.8953 277.9 98.4336C278.239 99.7027 279 100.803 279.339 102.072C280.439 106.133 281.369 110.279 282.385 114.425C282.808 116.201 283.4 117.978 283.738 119.84C284.246 122.632 284.5 125.424 284.838 128.216C285.007 129.231 285.177 130.247 285.43 131.262C286.107 134.308 285.853 137.354 285.177 140.4C284.923 141.584 284.923 142.769 284.584 143.869C284.246 145.138 283.654 146.322 283.146 147.591C282.554 148.945 282.046 150.299 281.369 151.568C280.692 153.006 279.931 154.445 279.254 155.968C278.493 157.491 277.816 158.929 277.139 160.367C276.631 161.467 276.039 162.483 275.447 163.582C274.601 165.105 273.67 166.544 272.824 168.067C271.047 171.113 269.186 174.074 267.409 177.12C266.901 177.966 266.732 179.066 266.14 179.658C264.87 180.843 264.87 182.366 264.786 183.889C264.617 186.511 264.532 189.219 264.447 191.842C264.447 192.857 264.617 193.872 264.617 194.803C264.786 196.834 265.04 198.864 265.124 200.895C265.209 202.926 265.209 205.041 265.294 207.071C265.378 209.44 265.547 211.894 265.632 214.263C265.717 216.717 265.801 219.255 265.886 221.709C266.055 225.77 266.14 229.747 266.309 233.808C266.478 238.631 266.647 243.369 266.901 248.191C267.07 251.406 267.409 254.706 267.578 257.921C267.832 262.913 267.916 267.905 268.17 272.813C268.339 277.72 268.678 282.627 268.847 287.534C268.932 290.75 268.932 293.965 269.016 297.18C269.101 299.126 269.355 301.072 269.439 303.018C269.609 305.979 269.609 309.025 269.693 311.986C269.778 313.594 269.947 315.117 270.032 316.725C270.201 321.293 270.37 325.862 270.539 330.431C270.624 333.731 270.539 337.031 270.624 340.33C270.624 341.092 270.793 341.853 270.708 342.53C270.539 344.138 269.524 345.322 268.255 346.338C267.747 346.761 267.578 347.015 267.916 347.776C268.678 349.468 269.016 351.245 269.693 352.937C270.37 354.629 271.216 356.152 271.978 357.844C271.555 357.929 270.962 358.014 270.285 358.098C270.285 357.421 270.285 356.829 270.285 356.237C270.285 355.983 270.116 355.729 269.947 355.645C269.862 355.56 269.439 355.645 269.439 355.729C269.355 355.898 269.355 356.152 269.439 356.406C269.778 357.421 269.186 358.352 268.086 358.437C266.563 358.606 265.04 358.86 263.517 359.029C262.671 359.114 261.825 358.86 260.978 358.944C260.64 358.944 260.217 359.283 259.879 359.452C260.217 359.621 260.555 359.875 260.894 359.96C262.755 360.298 264.701 360.383 266.563 359.875C266.986 359.79 267.493 359.875 268.255 359.875C267.747 360.467 267.409 360.975 266.986 361.398C266.901 361.483 266.816 361.567 266.732 361.736C265.717 363.175 264.532 364.106 262.671 363.767C262.417 363.767 262.163 363.767 261.994 363.852C261.74 364.021 261.571 364.275 261.402 364.444C261.655 364.529 261.909 364.782 262.078 364.782C264.955 364.867 267.832 364.867 270.708 364.952C271.385 364.952 272.062 365.036 272.485 365.036C272.147 366.305 271.893 367.574 271.47 368.844C271.385 369.013 271.047 369.182 270.793 369.182C269.947 369.182 269.186 369.182 268.339 369.267C268.086 369.267 267.832 369.605 267.578 369.859C267.832 370.028 268.086 370.367 268.339 370.367C270.793 370.451 273.247 370.79 275.7 370.282C275.954 370.282 276.208 370.282 276.462 370.282C275.785 371.467 275.277 372.566 273.839 372.736C273.585 372.736 273.331 373.159 273.162 373.328C273.331 373.582 273.585 373.751 273.839 374.089C273.754 374.259 273.67 374.512 273.501 374.851C273.67 375.02 273.839 375.274 274.093 375.274C274.347 375.274 274.77 375.189 274.854 375.02C275.616 373.328 277.139 373.243 278.746 372.989C280.439 372.736 282.131 372.059 283.823 371.636C284.415 371.467 284.584 371.043 284.331 370.62C284.161 370.367 283.569 370.197 283.315 370.282C281.454 370.79 279.592 371.382 277.731 371.974C277.646 371.974 277.562 371.974 277.308 371.974C277.9 370.874 278.154 369.605 279.677 369.436C280.185 369.351 280.608 369.013 281.031 368.759C280.608 367.49 279.846 367.913 279.169 368.167C279.169 367.49 279.169 366.813 279.169 366.136C279.169 365.967 278.831 365.798 278.662 365.629C278.577 365.798 278.323 365.967 278.323 366.136C278.239 366.305 278.323 366.559 278.239 366.813C278.154 367.659 277.9 368.421 276.885 368.59C275.531 368.759 274.262 369.013 272.908 369.182C272.824 369.097 272.739 369.013 272.654 368.928C273.162 367.659 273.67 366.39 274.347 365.121C274.431 364.867 275.024 364.867 275.362 364.698C275.954 364.529 276.123 363.936 275.7 363.682C274.685 363.006 275.362 362.244 275.277 361.398C277.477 363.513 279.592 365.459 281.708 367.405C283.4 368.928 285.261 370.282 286.953 371.805C288.053 372.905 288.899 374.259 289.83 375.528C290.084 375.866 289.83 376.458 289.83 376.966C289.322 376.797 288.815 376.628 288.392 376.374C288.138 376.205 288.053 375.866 287.884 375.528C286.869 374.089 286.023 373.92 284.331 374.682C281.031 376.289 277.731 377.812 274.516 379.589C272.993 380.435 271.724 381.789 270.455 383.058C269.778 383.65 270.032 384.242 270.793 384.496C275.785 385.85 280.777 386.104 285.43 383.227C287.207 382.127 288.73 380.773 289.576 378.827C289.745 378.489 289.915 378.235 290.169 377.812C290.422 378.32 290.676 378.658 290.761 378.997C291.015 380.181 291.268 381.281 291.522 382.466C291.861 383.904 290.761 384.919 290.169 385.935C289.322 387.458 288.307 388.896 286.784 389.827C286.192 390.25 285.515 390.504 284.923 390.842C282.3 392.365 279.508 391.773 276.716 391.519C275.108 391.35 273.501 391.603 272.062 391.18C270.285 390.757 268.678 389.911 266.986 389.15C263.771 387.711 261.825 385.004 260.132 381.958C258.779 379.42 257.171 377.051 255.31 374.935C253.956 373.328 252.179 372.143 250.487 370.959C249.387 370.197 247.949 369.859 246.764 369.182C246.087 368.844 245.58 368.251 244.987 367.659C244.734 367.405 244.48 367.067 244.226 366.728C243.803 366.221 243.38 365.798 243.887 364.952C244.141 364.529 243.803 363.767 243.718 363.09C243.549 361.229 243.38 359.367 243.211 357.506C243.211 357.252 243.295 356.998 243.464 356.745C243.718 356.322 243.972 355.814 244.395 355.222C242.534 354.714 241.011 354.122 239.403 353.783C237.373 353.445 235.765 352.599 234.58 350.484C234.411 351.076 234.327 351.33 234.327 351.583C234.242 352.26 234.327 353.022 234.242 353.699C234.157 354.799 233.227 355.645 232.381 355.306C232.127 355.222 231.704 354.545 231.788 354.376C232.55 353.106 231.873 351.837 232.042 350.484C230.688 350.822 229.419 350.907 228.235 351.33C227.05 351.753 225.95 352.514 224.766 353.022C221.805 354.46 218.674 355.475 215.459 356.406C214.274 356.745 213.09 357.506 212.244 358.352C208.859 361.398 204.883 363.344 200.652 364.782C199.975 365.036 199.299 365.544 198.622 365.629C196.591 365.713 194.56 366.559 192.53 365.967C191.853 365.798 191.092 365.882 190.415 365.967C189.061 366.136 187.961 365.713 186.861 365.036C186.607 366.559 186.946 367.236 188.299 367.998C189.653 368.759 191.007 369.521 192.361 370.282C192.699 370.451 192.953 370.79 193.376 371.213C196.083 370.197 199.299 370.536 202.175 369.013C204.798 367.659 207.421 366.221 209.875 364.444C211.144 363.598 212.159 362.498 213.344 361.567C215.628 359.706 218.42 359.029 221.212 358.521C222.82 358.268 224.343 357.76 225.866 357.337C226.543 357.168 227.22 356.998 227.812 356.745C228.573 356.406 229.419 356.068 230.181 355.645C230.773 355.306 231.365 355.306 231.619 355.898C231.788 356.152 231.535 356.829 231.281 356.998C229.419 357.929 227.643 358.691 225.697 359.537C224.935 359.875 224.089 360.214 223.243 360.383C221.72 360.721 220.112 360.89 218.505 361.144C216.39 361.567 214.613 362.583 213.09 364.021C210.382 366.559 207.336 368.505 204.037 370.197C201.668 371.382 199.214 371.636 196.76 372.313C195.999 372.482 195.153 372.059 194.307 371.974C193.63 371.89 192.953 371.974 192.361 371.89C191.261 371.636 190.245 371.467 189.23 371.043C188.384 370.705 187.707 369.774 186.776 369.521C185.592 369.182 185.169 368.336 185.084 367.49C184.915 365.967 185 364.444 185.169 362.836C185.254 361.99 185.423 361.06 185.677 360.298C185.846 359.875 186.184 359.452 186.523 359.283C188.384 358.098 190.33 356.998 192.191 355.814C193.714 354.799 195.237 353.614 196.76 352.514C197.183 353.022 197.353 353.783 198.283 353.445C198.368 353.445 198.706 353.699 198.791 353.868C199.045 354.291 199.214 354.799 199.468 355.391C197.268 355.729 195.237 355.983 193.207 356.237C193.207 356.66 193.122 356.914 193.122 357.252C194.053 357.168 194.645 357.337 195.153 358.183C195.576 358.944 196.083 358.944 196.506 358.268C196.253 357.929 195.999 357.591 195.66 357.252C195.999 357.168 196.253 357.083 196.422 357.083C197.945 356.829 199.468 356.575 200.906 356.237C201.414 356.152 202.091 356.068 201.921 355.306C201.837 355.137 201.075 355.052 200.652 354.968C200.568 354.968 200.568 354.883 200.483 354.883C200.314 354.46 200.06 354.037 199.806 353.445C201.16 353.445 202.26 353.529 203.36 353.445C204.883 353.36 206.321 353.191 207.844 353.022C208.436 352.937 209.959 351.245 209.79 350.653C209.705 350.314 209.198 349.807 208.944 349.807C207.759 349.722 206.575 349.722 205.39 349.637C205.137 349.637 204.629 349.468 204.629 349.299C204.46 348.537 203.952 348.368 203.36 348.453C203.36 348.876 203.444 349.214 203.444 349.384C202.598 349.468 201.837 349.553 201.075 349.553C200.906 350.145 200.906 350.145 200.822 350.06ZM218.082 192.519C218.251 192.519 218.42 192.519 218.505 192.519C218.674 193.111 218.928 193.703 218.928 194.295C218.928 195.057 218.589 195.903 218.674 196.665C218.759 198.611 218.928 200.641 218.928 202.587C219.012 206.479 219.097 210.287 219.182 214.179C219.182 216.04 219.266 217.986 219.266 219.847C219.266 222.639 219.266 225.347 219.182 228.139C219.097 232.2 218.928 236.262 218.843 240.407C218.759 242.184 218.843 243.961 218.928 245.738C219.012 248.699 219.012 251.745 219.097 254.706C219.182 257.075 219.266 259.529 219.351 261.898C219.435 263.929 219.435 265.875 219.52 267.905C219.605 270.613 219.689 273.405 219.859 276.112C220.028 278.566 220.282 281.02 220.535 283.558C220.789 286.012 221.297 288.465 221.297 290.834C221.381 296.926 222.651 302.933 223.243 308.941C223.497 312.071 223.92 315.202 224.004 318.248C224.174 322.393 224.089 326.539 224.089 330.685C224.089 331.446 224.343 332.208 224.427 333.054C224.766 336.015 225.02 338.977 225.358 341.938C225.358 342.192 225.527 342.53 225.697 342.699C226.12 343.123 226.712 343.376 227.135 343.715C229.25 345.576 231.788 346.591 234.242 347.691C235.511 348.199 236.188 349.214 237.034 350.145C237.626 350.737 238.303 351.414 239.149 351.753C240.503 352.26 242.026 352.43 243.38 352.937C244.226 353.276 245.072 353.529 246.003 353.445C247.441 353.36 248.879 353.106 250.402 352.937C251.671 352.853 252.941 352.768 254.21 352.599C254.633 352.514 254.971 352.26 255.31 352.006C255.733 351.753 255.987 351.33 256.41 351.245C257.933 350.822 259.456 350.568 260.471 349.299C260.64 349.045 260.978 348.876 261.232 348.622C262.586 347.522 263.94 346.507 265.294 345.407C265.463 345.322 265.547 345.153 265.632 345.069C265.801 345.238 265.886 345.407 266.055 345.576C266.309 345.238 266.563 344.899 266.901 344.73C267.916 344.138 268.086 343.292 268.001 342.276C268.001 340.838 268.086 339.4 268.086 337.961C268.086 336.354 268.17 334.662 268.17 333.054C268.086 331.616 268.17 330.177 267.832 328.739C267.578 327.554 267.747 326.37 267.747 325.101C267.747 321.801 267.832 318.501 267.663 315.117C267.578 312.409 267.324 309.702 267.07 306.995C266.816 303.864 266.393 300.649 266.647 297.518C266.816 295.488 266.563 293.542 266.478 291.511C266.393 289.65 266.393 287.788 266.309 285.927C266.14 282.289 265.801 278.651 265.632 275.012C265.463 272.643 265.547 270.19 265.378 267.821C265.124 263.929 264.701 260.037 264.447 256.145C264.194 252.337 264.194 248.53 264.024 244.722C263.94 242.353 263.601 240.069 263.517 237.784C263.432 235.246 263.432 232.708 263.432 230.17C263.432 226.278 263.432 222.386 263.348 218.409C263.263 215.025 262.924 211.64 262.755 208.256C262.586 205.887 262.417 203.433 262.248 201.064C262.078 197.68 261.909 194.38 261.825 190.996C261.825 190.403 261.825 189.811 261.909 189.219C262.078 188.204 262.417 187.188 262.501 186.173C262.586 184.819 262.417 183.381 262.332 182.027C262.332 181.773 262.163 181.52 261.994 181.266C261.232 180.166 260.386 179.235 259.709 178.051C258.44 175.851 257.34 173.566 256.071 171.366C255.817 170.943 255.563 170.182 254.717 170.605C253.617 171.113 252.433 171.536 251.333 172.043C250.91 172.213 250.656 172.551 250.233 172.72C249.641 172.889 249.133 172.889 248.71 172.974C248.795 174.328 248.879 175.428 248.964 176.528C248.964 176.781 249.133 177.035 249.387 177.204C250.91 178.304 251.248 180.166 250.318 181.689C250.233 181.858 250.149 182.196 250.233 182.366C250.741 183.55 251.333 184.735 251.841 185.919C252.433 187.273 253.11 188.627 253.617 189.98C253.702 190.234 253.702 190.827 253.448 190.996C252.941 191.503 252.348 191.842 251.671 192.265C251.841 193.872 251.587 195.48 249.81 196.411C248.118 197.257 246.68 196.918 245.41 195.734C244.48 197.088 243.718 198.526 242.788 199.795C241.857 201.064 240.503 200.81 239.995 199.372C239.911 199.203 239.826 199.034 239.742 198.864C238.726 196.834 237.711 194.888 236.696 192.857C235.342 190.488 236.019 188.119 236.611 185.75C237.373 182.873 238.134 179.912 238.98 176.781C238.303 177.035 237.796 177.289 237.373 177.458C234.834 178.558 232.381 179.32 229.589 178.558C227.558 177.966 225.527 177.543 223.497 177.035C223.158 176.951 222.735 176.866 222.397 176.951C220.62 177.458 218.843 177.966 216.982 178.558C215.036 179.15 213.174 179.827 211.228 180.335C209.536 180.758 207.844 181.012 206.152 181.35C203.952 181.689 201.752 182.027 199.552 182.366C199.045 182.45 198.537 182.45 198.029 182.619C196.253 183.381 194.391 183.296 192.53 183.296C191.176 183.296 189.822 182.873 188.553 182.619C186.438 182.196 184.238 181.858 182.123 181.35C181.108 181.181 180.092 180.843 179.077 180.504C178.654 180.335 178.231 179.997 177.723 179.658C177.385 180.589 176.962 181.35 176.877 182.196C176.623 184.988 176.37 187.781 176.285 190.657C176.285 192.603 176.623 194.549 176.708 196.411C176.962 200.98 177.3 205.548 177.554 210.117C177.808 214.517 177.977 218.917 178.231 223.316C178.485 227.547 178.739 231.777 178.992 236.008C179.246 240.746 179.415 245.484 179.585 250.137C179.669 253.014 179.669 255.806 179.923 258.683C180.262 262.575 180.769 266.551 181.192 270.443C181.615 274.166 181.954 277.889 182.461 281.612C182.969 285.419 183.561 289.142 184.154 292.949C184.492 295.234 184.915 297.603 185.338 299.887C185.677 301.664 185.93 303.441 186.184 305.218C186.353 306.487 186.438 307.756 186.692 309.025C187.453 312.663 188.215 316.302 189.061 319.94C190.161 324.847 191.176 329.754 192.276 334.746C192.953 337.454 193.714 340.077 194.476 342.784C194.56 342.953 194.476 343.207 194.476 343.461C195.153 343.715 195.914 343.799 196.506 344.307C198.622 345.999 201.16 346.591 203.698 346.93C205.221 347.184 206.829 346.93 208.267 347.268C209.79 347.607 211.059 347.099 212.413 346.592C213.682 346.084 214.951 345.492 216.22 345.238C218.42 344.815 220.705 344.645 222.651 344.392C222.566 343.969 222.566 343.461 222.481 342.953C222.312 340.669 222.143 338.384 221.805 336.1C221.466 333.393 221.72 330.6 220.366 328.062C219.774 327.047 219.52 325.862 219.012 324.762C217.913 322.478 216.728 320.278 215.797 317.994C214.951 316.048 214.359 314.017 213.597 311.986C213.09 310.717 212.582 309.364 212.244 308.01C211.736 306.064 211.313 304.033 210.805 302.087C209.79 298.28 208.606 294.472 207.675 290.58C206.575 286.012 205.644 281.527 204.714 276.958C204.291 274.843 203.952 272.643 203.614 270.528C203.275 268.413 202.937 266.298 202.598 264.182C202.345 262.744 202.006 261.39 201.837 259.952C201.414 256.737 200.991 253.522 200.652 250.307C200.398 248.191 200.314 246.076 200.145 243.961C199.975 241.423 199.891 238.8 199.637 236.262C199.468 234.231 199.045 232.2 198.791 230.17C198.791 229.916 199.045 229.577 199.214 229.324C199.468 229.493 199.891 229.662 199.975 229.916C200.229 230.931 200.483 231.946 200.652 232.877C201.075 235.5 201.498 238.038 201.752 240.661C202.26 244.722 202.514 248.868 203.106 252.929C203.614 256.652 204.375 260.375 205.052 264.098C205.39 266.128 205.729 268.244 206.067 270.274C206.321 271.797 206.575 273.32 206.913 274.759C207.252 276.705 207.59 278.735 208.013 280.681C208.775 283.812 209.536 286.942 210.382 290.073C210.975 292.188 211.567 294.303 212.159 296.418C212.498 297.688 213.005 298.957 213.344 300.226C214.274 303.441 214.951 306.656 215.967 309.871C216.813 312.579 217.828 315.202 218.843 317.824C219.605 319.686 220.451 321.463 221.382 323.493C221.466 323.07 221.635 322.816 221.635 322.647C221.551 320.532 221.466 318.417 221.212 316.386C220.958 314.271 220.62 312.156 220.366 310.04C220.028 306.741 219.689 303.441 219.351 300.226C219.182 298.703 219.182 297.18 219.012 295.657C218.843 293.88 218.42 292.188 218.251 290.411C217.913 287.788 217.659 285.165 217.405 282.543C217.151 280.089 216.897 277.635 216.813 275.266C216.728 271.966 216.728 268.751 216.728 265.536C216.728 263.759 216.474 261.983 216.474 260.29C216.39 257.668 216.39 254.96 216.39 252.337C216.39 251.322 216.305 250.307 216.305 249.291C216.305 247.599 216.39 245.822 216.474 244.13C216.559 242.015 216.559 239.815 216.643 237.7C216.728 235.923 216.813 234.146 216.897 232.285C216.982 230.254 217.151 228.308 217.151 226.278C217.236 222.386 217.32 218.578 217.405 214.686C217.405 212.909 217.32 211.217 217.32 209.44C217.32 207.071 217.32 204.618 217.405 202.249C217.489 199.71 217.743 197.172 217.997 194.719C217.574 193.365 217.913 192.942 218.082 192.519ZM181.531 89.465C181.446 89.3804 181.277 89.3804 181.192 89.3804C180.938 89.6343 180.515 89.8035 180.515 90.0573C180.092 91.8341 179.585 93.6109 179.415 95.3877C179.162 98.349 179.246 101.395 179.162 104.356C179.162 104.864 179.077 105.287 178.992 105.795C178.823 107.571 178.569 109.348 178.569 111.04C178.485 121.363 178.4 131.685 178.316 142.007C178.316 143.276 178.316 144.545 177.977 145.815C177.723 146.999 177.216 148.184 176.539 149.114C174.762 151.23 174.001 153.852 173.07 156.306C172.901 156.729 172.901 157.237 172.647 157.575C171.378 159.267 170.701 161.129 171.462 163.159C173.239 167.728 175.947 171.79 179.162 175.428C179.923 176.274 180.938 176.866 182.123 176.781C182.715 176.697 183.223 176.612 183.138 175.766C182.969 174.412 182.8 173.059 182.715 171.705C182.461 169.42 182.123 167.136 182.038 164.852C182.038 163.836 182.377 162.821 182.631 161.806C183.138 160.113 183.477 158.252 184.323 156.729C185.507 154.445 187.115 152.329 188.638 150.214C188.807 149.96 189.315 149.791 189.484 149.876C191.176 150.637 193.038 150.891 194.899 150.806C196.76 150.722 198.706 151.06 200.568 150.722C203.698 150.214 206.829 149.453 209.959 148.691C212.498 148.099 215.036 147.507 217.574 146.914C221.382 145.984 225.104 145.053 228.912 144.038C232.381 143.107 235.85 142.853 239.403 142.684C240.757 142.599 241.688 143.446 242.534 144.292C242.788 144.545 242.788 145.222 242.788 145.73C242.788 146.238 242.872 146.745 242.957 147.253C243.126 148.353 243.464 149.453 243.549 150.637C243.718 152.414 244.141 154.022 245.326 155.545C247.356 158.083 249.049 160.79 250.91 163.498C251.164 163.836 251.502 164.175 251.671 164.513C252.348 165.613 252.941 166.713 253.617 167.813C253.956 168.236 254.379 168.659 254.887 168.913C255.14 169.082 255.479 168.997 255.817 169.082C255.902 168.744 255.987 168.405 255.902 168.151C255.563 167.221 255.225 166.375 254.717 165.444C254.21 164.344 253.617 163.244 253.025 162.229C252.264 160.96 251.333 159.775 250.402 158.506C250.402 158.421 250.318 158.421 250.233 158.421C248.372 156.983 246.764 155.291 246.172 153.006C245.58 150.722 245.157 148.437 244.987 146.068C244.734 143.192 243.211 141.33 240.419 140.738C237.796 140.146 235.257 140.653 232.719 141.415C230.688 142.007 228.573 142.515 226.543 143.022C222.651 143.869 218.843 144.63 214.951 145.476C212.159 146.068 209.282 146.745 206.49 147.338C204.544 147.761 202.683 148.268 200.737 148.522C198.622 148.776 196.422 148.86 194.307 148.86C193.122 148.86 191.938 148.437 190.838 148.268C190.922 148.184 191.007 148.014 191.092 147.93C190.922 147.507 190.753 146.914 190.415 146.745C190.161 146.576 189.484 146.745 189.146 146.999C188.046 147.93 186.946 148.86 185.93 149.96C185.084 150.891 184.407 151.906 183.815 153.006C182.038 156.221 179.923 159.267 179.754 163.244C179.669 165.698 179.246 168.151 179.923 170.605C180.177 171.705 180.262 172.805 180.431 173.905C180.346 173.989 180.262 173.989 180.092 173.989C179.585 173.059 179.077 172.043 178.485 171.028C178.4 170.859 178.231 170.69 178.146 170.52C176.962 168.659 175.777 166.882 174.677 165.021C174.001 163.921 173.577 162.652 173.07 161.467C172.985 161.129 172.985 160.706 173.154 160.367C173.662 158.929 174.339 157.491 174.847 156.052C175.693 153.599 176.623 151.23 178.654 149.368C179.5 148.607 180.346 147.761 180.346 146.491C180.346 144.545 180.431 142.599 180.431 140.653C180.431 138.2 180.431 135.746 180.431 133.292C180.431 131.262 180.515 129.231 180.515 127.201C180.515 124.239 180.515 121.278 180.6 118.317C180.6 115.271 180.685 112.309 180.769 109.264C180.854 106.387 180.938 103.426 181.023 100.549C181.108 97.3337 180.769 94.0339 181.531 90.8188C181.785 90.3958 181.615 89.9727 181.531 89.465ZM212.498 72.5433C212.328 72.4587 212.159 72.3741 211.99 72.3741C211.567 72.3741 211.144 72.4587 210.721 72.5433C210.805 72.9663 210.805 73.474 210.975 73.7278C211.398 74.2354 211.821 74.6585 212.413 75.0815C214.274 76.4353 216.39 77.366 218.589 76.3507C220.874 75.3354 223.074 74.2354 225.02 72.5433C228.066 69.9204 231.281 67.5514 234.411 65.0131C236.442 63.4055 238.557 61.7979 240.588 60.1904C241.18 59.7673 241.18 59.1751 240.757 58.752C240.503 58.4982 239.742 58.4982 239.488 58.752C236.865 60.5288 234.157 62.0518 231.958 64.5054C231.788 64.6746 231.535 64.6746 231.365 64.7593C231.196 63.8286 231.027 62.9825 230.773 62.221C230.096 59.5135 229.335 56.7214 228.658 53.9293C228.489 53.2524 228.235 53.1678 227.727 53.5063C226.373 54.5216 224.935 55.4523 223.666 56.5522C221.128 58.752 218.336 60.1058 214.867 59.8519C214.697 59.8519 214.528 59.9365 214.359 59.9365C213.851 59.9365 213.344 59.8519 212.836 59.8519C212.159 59.7673 211.482 59.6827 210.721 59.5135C212.582 63.8286 212.582 68.1436 212.498 72.5433ZM257.848 113.325H258.102C258.186 114.002 258.356 114.763 258.356 115.44C258.356 117.217 258.186 118.994 258.186 120.855C258.271 124.747 258.44 128.724 258.609 132.616C258.694 135.238 259.371 137.692 260.386 140.061C260.894 141.246 261.571 142.43 262.163 143.699C263.094 145.815 264.024 148.014 264.786 150.214C265.209 151.314 265.717 152.499 265.378 153.768C264.617 156.391 263.771 159.014 263.009 161.636C262.332 164.09 261.74 166.459 261.148 168.913C260.725 170.436 260.217 171.959 259.794 173.566C259.709 173.905 260.048 174.751 260.132 174.751C260.64 174.751 261.232 174.582 261.655 174.328C261.994 174.074 262.163 173.651 262.248 173.228C262.671 171.705 263.178 170.182 263.517 168.659C264.447 164.429 265.547 160.283 267.155 156.306C268.086 153.937 268.339 151.568 267.07 149.199C266.732 148.607 266.478 148.014 266.224 147.422C265.547 145.73 264.87 144.038 264.109 142.346C263.771 141.584 263.348 140.907 262.924 140.23C263.517 139.892 263.94 139.554 264.447 139.384C264.955 139.215 265.547 139.046 265.97 139.13C267.324 139.554 268.678 140.146 270.032 140.484C271.47 140.823 272.993 141.076 274.516 141.246C274.854 141.246 275.362 140.823 275.447 140.484C275.616 139.977 275.531 139.3 274.77 139.13C273.839 138.961 272.993 138.877 272.062 138.707C270.708 138.454 269.355 138.2 267.747 137.861C269.101 136.338 270.624 136.677 272.062 136.931C274.431 137.354 276.716 138.284 279.169 138.2C280.1 138.115 280.862 137.777 280.946 137.1C281.031 136.338 280.523 135.662 279.592 135.492C277.477 135.154 275.277 134.815 273.162 134.392C269.439 133.716 266.393 135.408 263.517 137.354C263.094 137.692 262.586 138.031 261.909 138.538C261.571 136.592 261.148 134.985 260.978 133.292C260.809 131.516 260.809 129.654 260.725 127.877C260.64 125.255 260.471 122.632 260.302 120.009C260.132 117.048 260.386 114.002 258.948 111.294C258.779 110.956 258.948 110.533 259.032 110.11C259.54 108.587 260.132 107.148 260.64 105.625C261.655 102.918 262.586 100.126 263.517 97.4183C263.855 96.403 264.194 95.4723 264.447 94.457C264.532 94.1185 264.194 93.6955 264.024 93.3571C263.771 93.6109 263.348 93.7801 263.178 94.0339C261.571 98.0952 259.879 102.241 258.356 106.302C257.171 109.517 256.071 112.817 254.971 116.117C254.802 116.455 255.056 116.963 255.14 117.386C255.31 117.386 255.394 117.386 255.563 117.471C256.325 116.032 257.086 114.678 257.848 113.325ZM245.58 361.483C245.495 361.567 245.495 361.652 245.41 361.652C245.495 362.752 245.495 363.852 245.58 364.952C245.664 366.813 246.595 368.167 248.118 368.59C250.149 369.097 251.925 370.113 253.448 371.382C255.479 373.074 257.594 374.766 259.032 377.22C260.386 379.589 261.825 381.789 263.263 384.073C263.855 385.004 264.447 386.104 265.294 386.611C267.663 387.881 270.032 389.15 272.739 389.657C274.347 389.911 275.954 390.588 277.646 389.911C277.816 389.827 278.069 389.911 278.323 389.996C279.592 389.996 280.862 390.334 282.046 389.996C284.923 389.319 287.038 387.458 288.646 385.173C289.153 384.412 289.322 383.396 289.661 382.466C288.73 383.227 287.969 384.073 287.292 385.004C285.515 387.373 282.723 387.373 280.269 387.965C278.662 388.304 276.885 387.881 275.193 387.965C271.808 388.134 269.186 386.358 266.901 384.242C264.278 381.873 262.332 378.912 260.555 375.866C259.032 373.328 256.833 371.382 254.294 369.944C252.941 369.182 251.671 368.421 250.402 367.49C248.541 365.967 246.764 364.529 246.003 362.075C246.003 361.821 245.749 361.652 245.58 361.483ZM194.56 365.629C194.814 365.629 195.407 365.544 195.999 365.459C197.606 365.121 199.214 364.782 200.737 364.275C201.075 364.19 201.583 363.767 201.583 363.429C201.583 363.175 201.16 362.752 200.822 362.498C199.975 361.99 199.045 361.483 198.114 360.975C196.506 360.214 194.814 359.537 193.207 358.775C192.445 358.437 191.853 358.606 191.176 359.114C189.907 360.129 188.638 361.06 187.369 361.99C187.284 362.075 187.2 362.244 187.115 362.329C186.438 364.021 187.284 365.205 189.146 365.459C190.753 365.882 192.53 365.629 194.56 365.629ZM211.228 79.9042C210.89 79.312 210.552 78.6351 210.129 78.1275C208.183 75.843 206.152 73.7278 204.291 71.3588C203.275 70.0896 202.429 68.6513 201.498 67.2975C200.991 66.6206 200.906 65.9438 201.245 65.1823C201.921 63.7439 202.598 62.3056 203.275 60.7826C203.36 60.5288 203.36 60.1904 203.36 59.8519C203.021 59.9365 202.514 59.8519 202.345 60.1058C201.075 61.6287 200.06 63.2363 199.468 65.1823C198.96 66.7053 199.299 67.8898 200.398 68.9897C200.822 69.4127 201.414 69.7512 201.752 70.2588C202.514 71.2741 203.106 72.5433 203.952 73.5586C205.56 75.5892 207.336 77.6198 208.944 79.6504C209.621 80.5811 210.213 80.4965 211.228 79.9042ZM251.418 190.488C252.179 189.642 251.671 189.134 251.418 188.627C250.572 186.681 249.641 184.819 248.795 182.873C248.541 182.196 248.372 181.52 248.879 180.758C249.302 180.081 249.387 178.981 248.71 178.389C248.203 177.966 247.272 177.797 246.595 177.797C245.833 177.881 246.003 178.643 246.087 179.235C246.257 180.166 246.426 181.181 246.764 182.112C246.849 182.45 247.272 182.704 247.526 182.958C247.695 183.127 247.949 183.212 248.033 183.381C248.626 184.565 249.133 185.835 249.725 187.104C250.318 188.204 250.825 189.304 251.418 190.488ZM266.478 350.822C264.109 352.006 261.74 353.106 259.371 354.291C259.202 354.376 259.202 354.799 259.286 354.968C259.794 355.814 260.725 355.983 261.655 355.475C262.078 355.222 262.417 354.799 262.84 354.629C264.278 354.037 265.801 353.614 267.24 353.106C266.986 352.176 266.732 351.499 266.478 350.822ZM247.779 185.581C247.695 185.665 247.61 185.665 247.526 185.75C247.695 186.511 247.864 187.273 247.949 188.034C248.033 188.542 248.203 189.05 248.118 189.557C247.695 190.742 247.187 191.842 246.595 192.857C246.172 193.619 246.341 194.042 246.933 194.465C247.779 194.972 249.472 194.634 249.725 193.703C249.979 192.688 250.656 191.503 249.641 190.488C249.302 190.065 249.133 189.473 248.964 188.965C248.541 187.781 248.203 186.681 247.779 185.581ZM215.543 347.945C216.559 348.199 217.574 348.707 218.589 348.622C220.112 348.453 221.466 347.691 222.651 346.592C220.789 346.507 218.928 346.761 217.066 346.761C216.136 346.845 215.797 347.353 215.543 347.945ZM245.58 176.697C245.749 176.612 245.918 176.528 246.003 176.528C246.426 176.358 247.187 176.528 247.103 175.597C247.018 175.005 247.018 174.412 246.933 173.82C246.933 173.736 246.51 173.566 246.341 173.566C245.326 173.651 244.903 174.412 245.241 175.428C245.326 175.851 245.41 176.189 245.58 176.697ZM239.572 40.5611C239.488 40.4765 239.403 40.3919 239.234 40.3919C238.896 40.7303 238.388 41.0688 238.303 41.4918C238.219 41.9149 238.557 42.4225 238.642 42.9302C238.811 42.9302 238.896 42.9302 239.065 42.8456C239.234 41.9995 239.403 41.238 239.572 40.5611Z" fill="black"/>
<path d="M224.513 19.916C226.543 19.916 226.797 19.6621 226.205 17.7161C225.951 16.9547 225.613 16.1932 225.359 15.3471C225.274 15.1779 225.359 14.7548 225.528 14.6702C225.697 14.501 226.12 14.501 226.205 14.5856C226.459 14.7548 226.797 15.0933 226.882 15.4317C227.305 16.7854 227.728 18.1392 228.151 19.5775C228.489 20.0006 228.912 20.5928 229.251 21.1005C228.912 21.2697 228.574 21.5235 228.405 21.6081C227.643 23.5542 226.966 25.4155 226.12 27.1923C225.951 27.6154 225.274 28.0384 224.936 27.9538C224.259 27.7846 224.343 27.1077 224.597 26.6001C225.19 25.3309 225.697 24.0618 226.205 22.7081C226.374 22.3696 226.289 21.9466 226.374 21.4389H224.428C224.005 23.4695 223.582 25.4155 223.074 27.3616C222.99 27.6154 222.567 27.7846 222.313 28.0384C222.144 27.7 221.721 27.3616 221.805 27.0231C221.89 25.9232 222.144 24.8233 222.313 23.7234C222.397 23.1311 222.482 22.4542 222.651 21.6081C220.959 22.0312 219.436 22.4542 217.913 22.8773C217.49 22.9619 217.067 23.2157 216.644 23.1311C216.306 23.1311 215.967 22.7927 215.544 22.6235C215.798 22.285 215.967 21.7774 216.306 21.6928C217.913 21.2697 219.521 20.9313 221.213 20.5082C222.736 20.1698 222.821 20.339 222.397 18.8161C221.805 16.5316 221.298 14.1626 219.521 12.3858C218.505 11.4551 216.39 11.2013 215.375 12.0473C214.867 12.555 214.444 12.4704 214.021 11.9627C213.598 11.3705 213.852 10.9474 214.36 10.609C216.306 9.25525 219.521 9.84751 221.044 11.5397C222.905 13.6549 223.497 16.2778 224.09 18.8161C224.09 18.9853 224.174 19.0699 224.174 19.2391C224.343 19.5775 224.428 19.7468 224.513 19.916Z" fill="black"/>
<path d="M198.199 26.2626C197.606 26.178 197.014 27.0241 196.422 26.2626C195.999 25.6704 195.999 25.3319 196.676 24.9935C198.114 24.232 198.03 24.1474 197.776 22.5398C197.606 21.1861 197.353 19.6631 197.606 18.3094C197.86 16.6172 199.468 15.6019 200.652 14.502C202.091 13.1483 203.783 12.1329 205.644 11.6253C206.321 11.4561 207.167 11.5407 207.929 11.5407C208.521 11.6253 210.044 13.4021 210.044 13.9097C210.044 14.1636 209.875 14.5866 209.706 14.6712C209.536 14.7558 209.113 14.6712 208.944 14.502C208.352 14.079 207.929 13.4021 207.252 13.1483C206.744 12.8944 205.983 13.0636 205.391 13.3175C206.067 13.6559 206.744 13.9943 207.337 14.4174C207.506 14.5866 207.421 15.0943 207.421 15.4327C207.083 15.4327 206.744 15.5173 206.49 15.4327C205.56 15.0943 204.629 14.502 203.698 14.2482C203.36 14.1636 202.852 14.6712 202.26 15.0096C202.852 15.2635 203.191 15.3481 203.529 15.6019C203.783 15.8557 203.952 16.1942 204.121 16.5326C203.783 16.6172 203.444 16.7864 203.106 16.871C202.937 16.871 202.768 16.7864 202.598 16.7018C200.737 16.1096 199.383 16.871 199.299 18.817C199.214 20.5092 199.468 22.1168 199.552 23.6398C200.991 23.6398 202.091 23.6398 203.275 23.6398C204.291 23.6398 204.714 24.232 204.291 24.9935C204.206 25.1627 203.868 25.3319 203.698 25.3319C202.514 25.3319 201.329 25.3319 200.06 25.3319C200.06 27.5318 200.737 29.3932 201.498 31.2546C201.583 31.5084 201.752 31.8468 201.752 32.1006C201.752 32.4391 201.583 32.7775 201.498 33.0313C201.16 32.8621 200.652 32.7775 200.483 32.5237C199.299 30.6623 198.537 28.5471 198.283 26.3472C198.199 26.4318 198.199 26.3472 198.199 26.2626Z" fill="black"/>
<path d="M201.752 4.43291C204.29 2.4023 207.167 1.21777 210.128 0.202465C210.974 -0.13597 212.074 0.0332475 213.09 0.117856C214.697 0.202465 216.305 0.371683 217.828 0.710119C218.42 0.794727 219.012 1.21777 219.604 1.64082C219.774 1.81003 219.943 2.4023 219.858 2.57151C219.689 2.82534 219.181 2.99456 218.928 2.90995C217.066 1.97925 214.951 2.48691 213.09 2.06386C210.805 1.55621 208.944 2.74073 206.998 3.58682C205.729 4.09447 204.544 4.68674 203.36 5.19439C202.598 5.44822 202.006 5.279 201.752 4.43291Z" fill="black"/>
<path d="M274.094 360.721C274.009 361.482 273.84 362.075 273.925 362.498C274.094 363.682 273.756 364.19 272.571 364.19C270.71 364.19 268.764 364.19 266.648 364.19C267.241 363.598 267.664 363.09 268.087 362.582C268.341 362.244 268.848 361.99 268.933 361.567C269.525 359.536 271.556 360.129 272.909 359.452C272.994 359.367 273.333 359.706 273.502 359.875C273.756 360.213 274.009 360.552 274.094 360.721Z" fill="black"/>
<path d="M218.59 47.4975C219.352 47.1591 220.198 46.8207 220.959 46.5668C221.298 46.4822 221.721 46.7361 222.144 46.8207C221.974 47.2437 221.974 47.7514 221.721 47.9206C220.959 48.4282 220.198 48.8513 219.352 49.1051C216.813 49.8666 214.275 50.5435 211.737 51.2203C211.314 51.3049 210.891 51.3895 210.468 51.2203C209.791 51.0511 209.706 50.1204 210.298 49.9512C213.006 49.0205 215.798 48.259 218.505 47.4129C218.59 47.4129 218.59 47.4129 218.59 47.4975Z" fill="black"/>
<path d="M194.476 26.4316C194.814 26.8547 195.068 27.1085 195.153 27.4469C195.83 30.1544 197.437 32.3543 199.129 34.4695C199.468 34.8925 199.891 35.3156 200.229 35.7386C200.314 35.9078 200.314 36.4155 200.145 36.5847C199.976 36.7539 199.468 36.8385 199.299 36.7539C198.283 35.9078 197.183 35.231 196.422 34.2157C195.237 32.6081 194.307 30.8313 193.968 28.8007C193.884 28.3776 193.799 27.9546 193.884 27.5316C193.884 27.1085 194.222 26.8547 194.476 26.4316Z" fill="black"/>
<path d="M234.242 22.4547C233.819 23.5546 233.48 24.7392 232.888 25.7545C232.127 26.939 231.196 27.9543 230.265 28.9696C230.096 29.1388 229.504 29.2234 229.25 29.1388C229.081 29.0542 228.912 28.3773 229.081 28.1235C229.842 26.8544 230.688 25.6698 231.619 24.4853C232.381 23.47 232.381 22.3701 232.381 21.2702C232.381 20.9318 232.381 20.5933 232.381 20.2549C232.381 19.7472 232.465 19.155 233.057 19.2396C233.396 19.3242 233.734 19.9164 233.904 20.2549C234.073 20.9318 234.073 21.6086 234.157 22.3701C234.073 22.3701 234.157 22.4547 234.242 22.4547Z" fill="black"/>
<path d="M196.846 353.191C198.199 352.176 199.553 351.076 200.907 350.061L200.992 350.145C201.33 350.399 201.668 350.737 202.007 350.907C202.938 351.245 204.291 351.16 204.376 352.683C203.022 352.768 201.668 352.937 200.315 352.937C199.13 352.937 197.946 352.683 196.846 353.191Z" fill="black"/>
<path d="M211.482 42.5913C211.567 42.5067 211.736 42.1682 211.99 41.999C212.075 41.9144 212.498 41.999 212.582 42.1682C213.259 43.1835 213.936 44.2835 214.528 45.3834C214.698 45.6372 214.528 46.0602 214.444 46.4833C214.021 46.3987 213.513 46.4833 213.344 46.2295C212.413 45.2988 211.398 44.2835 211.482 42.5913Z" fill="black"/>
<path d="M204.798 33.0301C205.644 32.8609 206.321 33.9608 206.321 34.8915C206.321 35.5683 206.067 36.076 205.306 36.1606C204.459 36.2452 203.867 35.4837 203.867 34.2146C203.867 33.5377 204.121 33.0301 204.798 33.0301Z" fill="black"/>
<path d="M223.666 31.677C223.666 31.5078 223.751 31.4232 223.835 31.3386C224.174 30.9155 224.512 30.4079 224.935 30.2386C225.189 30.154 225.866 30.7463 225.95 31.0847C226.035 31.5924 225.95 32.2693 225.697 32.6923C225.527 33.0307 224.766 33.3692 224.427 33.2C224.004 33.0307 223.666 32.3539 223.666 32.0154" fill="black"/>
<path d="M218.469 192.824C218.298 193.246 217.957 193.584 217.871 194.007C217.615 196.542 217.444 198.993 217.273 201.528C217.188 203.894 217.188 206.344 217.188 208.71C217.188 210.485 217.273 212.175 217.273 213.95C217.188 217.837 217.102 221.639 217.017 225.527C216.932 227.555 216.846 229.498 216.761 231.526C216.675 233.301 216.59 235.075 216.504 236.934C216.419 239.047 216.419 241.244 216.334 243.357C216.334 245.047 216.248 246.821 216.163 248.511C216.163 249.525 216.248 250.539 216.248 251.553C216.248 254.173 216.248 256.877 216.334 259.497C216.419 261.271 216.59 263.046 216.59 264.736C216.675 268.032 216.59 271.243 216.675 274.454C216.761 276.904 217.017 279.355 217.273 281.721C217.529 284.341 217.786 286.96 218.127 289.58C218.298 291.354 218.725 293.044 218.896 294.819C219.067 296.34 219.153 297.861 219.238 299.382C219.58 302.678 219.921 305.973 220.263 309.185C220.519 311.297 220.946 313.41 221.117 315.522C221.288 317.635 221.373 319.747 221.544 321.775C221.544 321.944 221.459 322.198 221.288 322.62C220.348 320.592 219.494 318.818 218.725 316.959C217.7 314.339 216.59 311.72 215.821 309.015C214.796 305.889 214.113 302.593 213.173 299.382C212.831 298.115 212.319 296.847 211.977 295.58C211.379 293.467 210.696 291.354 210.183 289.242C209.329 286.115 208.56 282.989 207.791 279.862C207.364 277.918 207.023 275.89 206.681 273.947C206.425 272.426 206.083 270.989 205.827 269.468C205.485 267.44 205.143 265.327 204.802 263.299C204.118 259.581 203.349 255.863 202.837 252.145C202.239 248.089 201.983 243.948 201.47 239.892C201.129 237.272 200.701 234.653 200.36 232.118C200.189 231.104 200.018 230.09 199.676 229.16C199.591 228.907 199.164 228.738 198.908 228.569C198.737 228.907 198.48 229.16 198.48 229.414C198.737 231.442 199.164 233.47 199.335 235.498C199.591 238.033 199.676 240.653 199.847 243.188C200.018 245.3 200.103 247.413 200.36 249.525C200.701 252.737 201.129 255.948 201.556 259.159C201.726 260.595 202.068 261.947 202.324 263.384C202.666 265.496 203.008 267.609 203.349 269.722C203.691 271.834 204.033 274.031 204.46 276.144C205.4 280.707 206.339 285.27 207.45 289.749C208.389 293.551 209.585 297.354 210.61 301.241C211.123 303.185 211.55 305.213 212.063 307.156C212.404 308.508 212.917 309.776 213.429 311.128C214.113 313.156 214.796 315.184 215.65 317.128C216.675 319.409 217.871 321.606 218.896 323.888C219.409 324.987 219.75 326.17 220.263 327.184C221.63 329.719 221.288 332.507 221.715 335.211C222.057 337.493 222.142 339.775 222.399 342.056C222.484 342.563 222.484 343.155 222.569 343.493C220.605 343.746 218.298 343.915 216.077 344.338C214.711 344.591 213.515 345.183 212.233 345.69C210.867 346.197 209.671 346.704 208.048 346.366C206.596 346.028 204.973 346.281 203.435 346.028C200.872 345.605 198.31 345.098 196.174 343.408C195.662 342.986 194.807 342.901 194.124 342.563C194.124 342.31 194.209 342.141 194.124 341.887C193.355 339.183 192.501 336.563 191.903 333.859C190.707 328.958 189.682 324.057 188.657 319.071C187.888 315.438 187.034 311.804 186.265 308.17C186.009 306.903 185.923 305.635 185.753 304.368C185.496 302.593 185.24 300.819 184.898 299.044C184.471 296.763 184.044 294.396 183.703 292.115C183.105 288.312 182.507 284.594 181.994 280.792C181.482 277.073 181.14 273.355 180.713 269.637C180.286 265.75 179.773 261.778 179.431 257.891C179.175 255.103 179.175 252.229 179.09 249.356C178.919 244.624 178.748 239.892 178.492 235.244C178.321 231.019 177.979 226.794 177.723 222.569C177.467 218.175 177.296 213.781 177.04 209.387C176.783 204.823 176.527 200.26 176.185 195.697C176.1 193.753 175.673 191.81 175.758 189.951C175.844 187.162 176.1 184.374 176.356 181.501C176.442 180.655 176.869 179.895 177.21 178.965C177.723 179.303 178.15 179.641 178.577 179.81C179.602 180.148 180.627 180.402 181.652 180.655C183.788 181.078 186.009 181.501 188.144 181.923C189.511 182.177 190.878 182.599 192.159 182.599C194.039 182.684 195.918 182.768 197.712 181.923C198.139 181.754 198.737 181.754 199.249 181.67C201.47 181.332 203.691 180.994 205.912 180.655C207.621 180.317 209.329 180.064 211.037 179.641C213.002 179.134 214.967 178.458 216.846 177.867C218.64 177.36 220.434 176.768 222.313 176.261C222.655 176.177 223.082 176.261 223.424 176.346C225.474 176.853 227.524 177.275 229.574 177.867C232.393 178.627 234.956 177.867 237.433 176.768C237.86 176.599 238.372 176.43 239.056 176.092C238.202 179.219 237.433 182.177 236.664 185.05C235.981 187.416 235.383 189.782 236.749 192.148C237.86 194.091 238.799 196.12 239.825 198.148C239.91 198.317 239.995 198.486 240.081 198.655C240.593 200.176 241.96 200.429 242.9 199.077C243.839 197.81 244.694 196.458 245.548 195.021C246.829 196.204 248.281 196.627 249.99 195.697C251.784 194.767 252.04 193.246 251.869 191.556C252.552 191.049 253.15 190.711 253.663 190.289C253.834 190.12 253.919 189.528 253.834 189.275C253.236 187.923 252.638 186.571 252.04 185.219C251.527 184.036 250.929 182.853 250.417 181.67C250.331 181.501 250.331 181.163 250.502 180.993C251.442 179.472 251.1 177.529 249.563 176.515C249.392 176.346 249.221 176.092 249.136 175.839C249.05 174.74 248.965 173.642 248.879 172.29C249.221 172.205 249.819 172.205 250.417 172.036C250.844 171.952 251.1 171.529 251.527 171.36C252.638 170.853 253.834 170.431 254.944 169.924C255.884 169.501 256.14 170.262 256.311 170.684C257.592 172.881 258.703 175.163 259.984 177.36C260.667 178.458 261.522 179.472 262.29 180.571C262.461 180.824 262.632 181.078 262.632 181.332C262.718 182.684 262.888 184.12 262.803 185.472C262.803 186.486 262.376 187.5 262.205 188.514C262.12 189.106 262.034 189.697 262.12 190.289C262.29 193.669 262.376 196.965 262.547 200.345C262.718 202.711 262.888 205.161 263.059 207.527C263.316 210.908 263.572 214.288 263.657 217.668C263.743 221.555 263.743 225.442 263.743 229.414C263.743 231.949 263.743 234.484 263.828 237.019C263.913 239.385 264.17 241.667 264.341 243.948C264.511 247.751 264.597 251.553 264.768 255.356C265.024 259.243 265.451 263.13 265.707 267.018C265.878 269.384 265.793 271.834 265.964 274.2C266.134 277.834 266.476 281.468 266.647 285.101C266.732 286.96 266.732 288.819 266.818 290.678C266.903 292.706 267.074 294.734 266.989 296.678C266.818 299.889 267.159 303.016 267.416 306.142C267.587 308.846 267.928 311.551 268.014 314.255C268.099 317.55 268.099 320.846 268.099 324.226C268.099 325.409 267.928 326.677 268.185 327.86C268.526 329.296 268.441 330.733 268.526 332.169C268.612 333.775 268.526 335.465 268.441 337.07C268.441 338.507 268.27 339.944 268.355 341.38C268.355 342.394 268.185 343.239 267.245 343.831C266.903 344 266.732 344.338 266.391 344.676C266.22 344.507 266.049 344.338 265.964 344.169C265.878 344.253 265.707 344.422 265.622 344.507C264.255 345.605 262.888 346.619 261.522 347.718C261.265 347.887 261.009 348.14 260.753 348.394C259.728 349.746 258.105 349.999 256.653 350.337C256.226 350.422 255.884 350.844 255.542 351.098C255.2 351.351 254.859 351.605 254.432 351.689C253.15 351.859 251.869 351.943 250.588 352.028C249.136 352.197 247.683 352.366 246.146 352.535C245.206 352.619 244.437 352.366 243.498 352.028C242.131 351.436 240.593 351.351 239.227 350.844C238.458 350.506 237.774 349.915 237.091 349.239C236.237 348.394 235.553 347.38 234.272 346.788C231.709 345.774 229.147 344.676 227.097 342.817C226.67 342.394 226.072 342.141 225.645 341.803C225.474 341.634 225.303 341.296 225.303 341.042C224.961 338.085 224.705 335.127 224.363 332.169C224.278 331.409 224.022 330.648 224.022 329.803C223.936 325.663 224.107 321.522 223.936 317.381C223.851 314.255 223.509 311.128 223.167 308.086C222.569 302.086 221.288 296.087 221.203 290.002C221.203 287.552 220.69 285.101 220.434 282.735C220.178 280.284 219.921 277.834 219.75 275.299C219.58 272.595 219.494 269.806 219.409 267.102C219.323 265.074 219.323 263.13 219.238 261.102C219.153 258.736 218.982 256.286 218.982 253.92C218.896 250.962 218.896 247.92 218.811 244.962C218.811 243.188 218.725 241.413 218.725 239.639C218.811 235.582 218.982 231.526 219.067 227.386C219.153 224.597 219.153 221.893 219.153 219.104C219.153 217.245 219.153 215.302 219.067 213.443C218.982 209.555 218.896 205.753 218.811 201.866C218.725 199.922 218.555 197.894 218.555 195.951C218.555 195.19 218.811 194.345 218.811 193.584C218.811 192.993 218.555 192.401 218.384 191.81C218.811 192.824 218.64 192.824 218.469 192.824ZM238.714 335.887C239.227 335.718 239.483 335.549 239.739 335.465C241.106 335.042 241.106 335.042 240.764 333.775C240.081 331.324 239.312 328.874 238.714 326.508C237.945 323.466 237.176 320.423 236.493 317.381C235.981 315.438 235.553 313.41 235.212 311.466C234.87 309.607 234.614 307.663 234.272 305.804C233.76 303.269 233.162 300.734 232.649 298.115C231.966 294.988 231.197 291.861 230.599 288.735C229.659 284.087 228.72 279.524 227.951 274.876C227.438 271.919 227.011 268.877 226.584 265.919C226.157 263.215 225.815 260.426 225.388 257.638C225.217 256.539 224.705 255.525 224.363 254.427C224.192 253.751 223.594 254.004 223.253 254.089C223.082 254.089 222.911 254.765 222.911 255.018C223.082 256.286 223.424 257.553 223.594 258.821C223.851 260.511 224.022 262.285 224.192 263.975C224.363 265.834 224.449 267.694 224.705 269.553C224.961 271.581 225.388 273.524 225.73 275.552C226.243 278.763 226.755 281.975 227.353 285.186C227.78 287.467 228.122 289.749 228.634 292.03C229.147 294.734 229.745 297.439 230.257 300.058C230.684 302.424 231.112 304.875 231.539 307.241C232.137 310.368 232.735 313.494 233.333 316.621C233.845 319.24 234.358 321.86 235.041 324.395C235.81 327.353 236.664 330.31 237.604 333.183C237.774 334.113 238.287 334.958 238.714 335.887ZM234.016 249.525C233.845 249.525 233.674 249.525 233.589 249.61C233.503 249.779 233.418 249.948 233.333 250.117C232.991 250.624 232.991 251.046 233.247 251.722C234.187 254.004 235.126 256.286 235.981 258.567C237.176 261.609 238.116 264.736 239.397 267.778C240.764 270.989 242.302 274.116 243.839 277.242C245.206 280.031 246.573 282.82 247.94 285.693C249.05 287.974 250.246 290.256 251.356 292.537C252.296 294.396 253.15 296.256 254.09 298.03C254.859 299.467 255.713 300.819 256.482 302.255C257.678 304.368 258.788 306.565 259.984 308.762C260.411 309.523 260.838 310.199 261.351 310.959C261.436 311.128 261.778 311.213 261.949 311.128C262.803 310.79 263.486 308.677 262.974 307.832C261.778 305.804 260.497 303.776 259.301 301.664C257.849 299.044 256.567 296.425 255.2 293.805C254.261 291.946 253.236 290.087 252.296 288.143C250.759 285.186 249.306 282.228 247.854 279.27C246.915 277.411 245.889 275.552 244.95 273.693C244.01 271.919 243.156 270.06 242.387 268.201C240.593 263.975 238.799 259.75 237.006 255.525C236.237 253.751 235.383 252.06 234.528 250.37C234.272 250.117 234.187 249.779 234.016 249.525Z" fill="white"/>
<path d="M181.53 89.4645C181.615 89.8875 181.784 90.3952 181.7 90.8182C180.938 94.0334 181.277 97.3331 181.192 100.548C181.107 103.425 181.023 106.386 180.938 109.263C180.853 112.309 180.853 115.27 180.769 118.316C180.769 121.277 180.684 124.239 180.684 127.2C180.684 129.231 180.6 131.261 180.6 133.292C180.6 135.746 180.6 138.199 180.6 140.653C180.6 142.599 180.515 144.545 180.515 146.491C180.515 147.76 179.669 148.606 178.823 149.368C176.877 151.229 175.946 153.598 175.1 156.052C174.592 157.49 173.916 158.928 173.408 160.367C173.323 160.705 173.239 161.128 173.323 161.467C173.831 162.651 174.254 163.92 174.931 165.02C176.031 166.882 177.215 168.743 178.4 170.52C178.484 170.689 178.654 170.858 178.738 171.027C179.246 171.958 179.754 172.973 180.346 173.989C180.43 173.904 180.515 173.904 180.684 173.904C180.515 172.804 180.515 171.704 180.177 170.604C179.5 168.151 179.923 165.697 180.007 163.243C180.092 159.351 182.292 156.306 184.069 153.006C184.661 151.906 185.338 150.891 186.184 149.96C187.199 148.86 188.299 147.929 189.399 146.999C189.737 146.745 190.414 146.575 190.668 146.745C191.007 146.914 191.091 147.506 191.345 147.929C191.26 148.014 191.176 148.183 191.091 148.268C192.276 148.521 193.46 148.86 194.56 148.86C196.675 148.86 198.875 148.775 200.99 148.522C202.936 148.268 204.798 147.76 206.744 147.337C209.536 146.745 212.413 146.068 215.205 145.476C219.097 144.629 222.989 143.868 226.796 143.022C228.911 142.514 230.942 142.007 232.973 141.414C235.511 140.737 237.965 140.145 240.672 140.737C243.464 141.414 244.987 143.276 245.241 146.068C245.495 148.352 245.833 150.721 246.425 153.006C247.018 155.29 248.625 156.982 250.487 158.421C250.571 158.505 250.656 158.505 250.656 158.505C251.502 159.69 252.433 160.959 253.279 162.228C253.956 163.243 254.463 164.343 254.971 165.443C255.394 166.289 255.817 167.22 256.155 168.151C256.24 168.405 256.071 168.743 256.071 169.081C255.732 168.997 255.394 169.081 255.14 168.912C254.632 168.574 254.209 168.235 253.871 167.812C253.194 166.797 252.602 165.612 251.925 164.513C251.671 164.174 251.333 163.836 251.163 163.497C249.302 160.874 247.61 158.082 245.579 155.544C244.395 154.021 243.972 152.414 243.803 150.637C243.718 149.537 243.379 148.437 243.21 147.252C243.126 146.745 243.126 146.237 243.041 145.729C242.956 145.222 243.041 144.545 242.787 144.291C241.857 143.53 241.01 142.683 239.657 142.683C236.103 142.853 232.634 143.107 229.165 144.037C225.442 145.053 221.635 145.983 217.828 146.914C215.289 147.506 212.751 148.098 210.213 148.691C207.082 149.368 203.952 150.214 200.821 150.721C198.96 150.975 197.014 150.721 195.152 150.806C193.291 150.891 191.514 150.637 189.737 149.875C189.568 149.791 189.061 149.96 188.891 150.214C187.453 152.329 185.845 154.444 184.576 156.729C183.73 158.252 183.392 160.113 182.884 161.805C182.546 162.82 182.207 163.836 182.292 164.851C182.376 167.135 182.715 169.42 182.969 171.704C183.138 173.058 183.223 174.412 183.392 175.766C183.476 176.612 182.969 176.696 182.376 176.781C181.107 176.865 180.177 176.273 179.415 175.427C176.2 171.704 173.493 167.728 171.716 163.159C170.954 161.128 171.631 159.267 172.9 157.575C173.154 157.236 173.154 156.729 173.323 156.306C174.254 153.767 175.015 151.229 176.792 149.114C177.554 148.183 177.977 146.999 178.231 145.814C178.484 144.629 178.484 143.276 178.569 142.007C178.654 131.684 178.654 121.362 178.823 111.04C178.823 109.263 179.077 107.486 179.246 105.794C179.246 105.286 179.331 104.863 179.415 104.356C179.5 101.394 179.415 98.3484 179.669 95.3871C179.838 93.6103 180.346 91.8335 180.769 90.0568C180.853 89.8029 181.192 89.5491 181.446 89.3799C181.277 89.3799 181.446 89.3799 181.53 89.4645Z" fill="white"/>
<path d="M212.413 72.5435C212.582 68.1438 212.582 63.8288 210.721 59.4291C211.567 59.5983 212.244 59.6829 212.836 59.7675C213.344 59.8521 213.851 59.8521 214.359 59.8521C214.528 59.8521 214.697 59.7675 214.867 59.7675C218.336 60.0214 221.128 58.6676 223.666 56.4678C224.935 55.3679 226.373 54.4372 227.727 53.4219C228.15 53.0834 228.489 53.168 228.658 53.8449C229.335 56.637 230.012 59.3445 230.773 62.1366C230.942 62.9827 231.111 63.7442 231.365 64.6749C231.619 64.5902 231.873 64.5056 231.958 64.421C234.073 62.052 236.865 60.4444 239.488 58.6676C239.826 58.4984 240.588 58.4984 240.757 58.6676C241.18 59.0907 241.18 59.6829 240.588 60.106C238.472 61.7135 236.442 63.3211 234.411 64.9287C231.281 67.3823 227.981 69.7514 225.02 72.4589C223.074 74.151 220.874 75.3356 218.589 76.2663C216.305 77.2816 214.274 76.3509 212.413 74.9971C211.905 74.6587 211.398 74.1511 210.975 73.6434C210.721 73.3896 210.805 72.8819 210.721 72.4589C211.144 72.3743 211.567 72.3743 211.99 72.2897C212.074 72.3743 212.244 72.4589 212.413 72.5435Z" fill="white"/>
<path d="M257.848 113.324C257.087 114.678 256.41 116.032 255.649 117.47C255.479 117.47 255.395 117.47 255.225 117.385C255.141 116.962 254.972 116.455 255.056 116.116C256.156 112.816 257.256 109.517 258.441 106.302C259.964 102.156 261.656 98.0945 263.263 94.0333C263.348 93.7795 263.856 93.5257 264.109 93.3564C264.279 93.6949 264.617 94.1179 264.532 94.4564C264.279 95.4717 263.94 96.4024 263.602 97.4177C262.671 100.125 261.656 102.917 260.725 105.625C260.217 107.148 259.625 108.586 259.117 110.109C259.033 110.447 258.864 110.955 259.033 111.294C260.471 114.086 260.217 117.047 260.387 120.008C260.556 122.631 260.64 125.254 260.81 127.877C260.894 129.654 260.894 131.515 261.063 133.292C261.233 134.984 261.656 136.592 261.994 138.538C262.671 138.03 263.094 137.692 263.602 137.353C266.478 135.322 269.524 133.715 273.247 134.392C275.362 134.73 277.562 135.069 279.677 135.492C280.608 135.661 281.2 136.253 281.031 137.099C280.947 137.776 280.1 138.199 279.254 138.199C276.801 138.368 274.516 137.438 272.147 136.93C270.709 136.676 269.271 136.422 267.832 137.861C269.355 138.199 270.709 138.453 272.147 138.707C273.078 138.876 273.924 138.961 274.855 139.13C275.616 139.299 275.701 139.891 275.532 140.484C275.447 140.822 274.855 141.33 274.601 141.245C273.078 141.076 271.555 140.822 270.117 140.484C268.763 140.145 267.409 139.468 266.055 139.13C265.632 139.045 265.04 139.214 264.532 139.384C264.025 139.553 263.602 139.891 263.01 140.23C263.433 140.907 263.856 141.668 264.194 142.345C264.956 144.037 265.632 145.729 266.309 147.422C266.563 148.014 266.817 148.606 267.155 149.198C268.424 151.567 268.171 153.936 267.24 156.305C265.632 160.282 264.448 164.428 263.602 168.658C263.263 170.181 262.84 171.704 262.333 173.227C262.248 173.65 261.994 174.158 261.74 174.327C261.317 174.581 260.725 174.75 260.217 174.75C260.048 174.75 259.794 173.989 259.879 173.566C260.217 172.043 260.81 170.52 261.233 168.912C261.91 166.459 262.417 164.089 263.094 161.636C263.856 159.013 264.702 156.39 265.463 153.767C265.802 152.498 265.294 151.314 264.871 150.214C264.025 148.014 263.179 145.899 262.248 143.699C261.74 142.514 261.063 141.33 260.471 140.061C259.456 137.692 258.779 135.153 258.694 132.615C258.525 128.723 258.356 124.746 258.271 120.854C258.187 119.078 258.441 117.301 258.441 115.439C258.441 114.762 258.271 114.001 258.187 113.324H257.848Z" fill="white"/>
<path d="M245.579 361.482C245.749 361.652 246.002 361.821 246.002 361.99C246.764 364.359 248.541 365.882 250.402 367.405C251.587 368.336 252.856 369.182 254.294 369.859C256.832 371.212 259.032 373.243 260.555 375.781C262.417 378.743 264.278 381.789 266.901 384.158C269.185 386.273 271.808 388.05 275.192 387.88C276.885 387.796 278.661 388.303 280.269 387.88C282.723 387.288 285.515 387.288 287.292 384.919C287.968 383.988 288.73 383.227 289.661 382.381C289.322 383.311 289.238 384.327 288.645 385.088C286.953 387.373 284.838 389.234 282.046 389.911C280.861 390.165 279.508 389.911 278.323 389.911C278.069 389.911 277.815 389.826 277.646 389.826C275.954 390.503 274.431 389.826 272.739 389.573C270.031 389.065 267.662 387.796 265.293 386.527C264.363 386.019 263.77 384.919 263.263 383.988C261.824 381.704 260.386 379.504 259.032 377.135C257.678 374.681 255.479 373.074 253.448 371.297C251.925 370.028 250.064 369.013 248.118 368.505C246.51 368.082 245.664 366.728 245.579 364.867C245.495 363.767 245.495 362.667 245.41 361.567C245.495 361.652 245.495 361.567 245.579 361.482Z" fill="white"/>
<path d="M194.476 365.628C192.445 365.628 190.753 365.798 189.061 365.544C187.199 365.29 186.438 364.105 187.03 362.413C187.115 362.244 187.199 362.159 187.284 362.075C188.553 361.144 189.822 360.213 191.091 359.198C191.768 358.69 192.36 358.521 193.122 358.86C194.729 359.621 196.422 360.298 198.029 361.06C198.96 361.483 199.891 361.99 200.737 362.582C201.075 362.752 201.498 363.175 201.498 363.513C201.498 363.852 200.991 364.275 200.652 364.359C199.045 364.782 197.522 365.121 195.914 365.544C195.406 365.628 194.814 365.628 194.476 365.628Z" fill="white"/>
<path d="M196.846 353.19C197.946 352.767 199.131 352.937 200.315 353.021C201.669 353.021 203.023 352.852 204.377 352.767C204.292 351.244 203.023 351.329 202.008 350.991C201.585 350.821 201.331 350.483 200.992 350.229C201.754 350.144 202.515 350.06 203.361 350.06C203.361 349.891 203.277 349.552 203.277 349.129C203.954 349.045 204.377 349.214 204.546 349.975C204.63 350.144 205.054 350.314 205.307 350.314C206.492 350.398 207.676 350.314 208.861 350.483C209.199 350.483 209.622 350.991 209.707 351.329C209.876 351.837 208.353 353.613 207.761 353.698C206.238 353.867 204.8 354.036 203.277 354.121C202.177 354.206 201.077 354.121 199.723 354.121C200.062 354.798 200.231 355.221 200.4 355.559C200.485 355.559 200.569 355.644 200.569 355.644C200.992 355.729 201.754 355.729 201.838 355.983C202.008 356.744 201.331 356.829 200.823 356.913C199.3 357.167 197.777 357.421 196.339 357.759C196.17 357.759 196 357.844 195.577 357.928C195.916 358.352 196.17 358.69 196.423 358.944C196 359.536 195.493 359.621 195.07 358.859C194.562 358.013 193.97 357.844 193.039 357.928C193.039 357.59 193.124 357.252 193.124 356.913C195.154 356.659 197.185 356.321 199.385 356.067C199.131 355.559 198.962 355.052 198.708 354.544C198.623 354.375 198.285 354.121 198.2 354.121C197.439 354.375 197.185 353.613 196.846 353.19ZM205.477 352.598C206.492 352.429 207.592 352.683 208.015 351.329C207.084 351.329 206.153 351.414 205.138 351.498C205.223 351.921 205.307 352.175 205.477 352.598Z" fill="white"/>
<path d="M211.229 79.9032C210.213 80.4109 209.621 80.5801 208.944 79.734C207.337 77.7034 205.56 75.6728 203.952 73.6422C203.106 72.6269 202.514 71.4424 201.753 70.3424C201.414 69.8348 200.822 69.4963 200.399 69.0733C199.299 67.9734 198.96 66.7043 199.468 65.2659C200.06 63.4045 201.16 61.7123 202.345 60.1894C202.514 60.0202 203.022 60.0202 203.36 59.9355C203.36 60.274 203.36 60.6124 203.275 60.8662C202.599 62.3046 201.922 63.7429 201.245 65.2659C200.906 66.0274 200.991 66.7043 201.499 67.3811C202.429 68.7349 203.275 70.1732 204.291 71.4424C206.152 73.7268 208.183 75.9266 210.129 78.2111C210.552 78.6341 210.89 79.311 211.229 79.9032Z" fill="white"/>
<path d="M251.418 190.487C250.826 189.303 250.318 188.203 249.81 187.187C249.218 186.003 248.71 184.734 248.118 183.465C248.034 183.295 247.78 183.211 247.61 183.042C247.357 182.788 246.934 182.534 246.849 182.196C246.595 181.265 246.341 180.334 246.172 179.319C246.088 178.811 245.918 177.965 246.68 177.88C247.357 177.796 248.203 178.05 248.795 178.473C249.472 179.065 249.387 180.08 248.964 180.842C248.457 181.603 248.541 182.28 248.88 182.957C249.726 184.903 250.572 186.764 251.502 188.71C251.672 189.133 252.179 189.641 251.418 190.487Z" fill="white"/>
<path d="M266.563 350.821C266.817 351.498 266.986 352.09 267.324 353.106C265.886 353.613 264.363 354.121 262.925 354.629C262.502 354.798 262.163 355.221 261.74 355.475C260.894 355.982 259.879 355.813 259.371 354.967C259.286 354.798 259.371 354.375 259.456 354.29C261.74 353.19 264.109 352.006 266.563 350.821Z" fill="white"/>
<path d="M247.78 185.58C248.203 186.68 248.542 187.695 248.965 188.795C249.134 189.303 249.303 189.895 249.641 190.318C250.657 191.418 249.98 192.518 249.726 193.533C249.472 194.464 247.695 194.887 246.934 194.295C246.257 193.872 246.172 193.449 246.595 192.687C247.188 191.672 247.695 190.487 248.118 189.387C248.288 188.964 248.034 188.372 247.949 187.865C247.78 187.103 247.695 186.342 247.526 185.58C247.611 185.665 247.695 185.665 247.78 185.58Z" fill="white"/>
<path d="M215.629 347.945C215.883 347.352 216.221 346.845 217.152 346.845C219.013 346.76 220.875 346.591 222.736 346.675C221.552 347.775 220.198 348.537 218.675 348.706C217.66 348.706 216.56 348.198 215.629 347.945Z" fill="white"/>
<path d="M245.581 176.781C245.412 176.273 245.327 175.85 245.243 175.512C244.904 174.496 245.327 173.735 246.343 173.65C246.512 173.65 246.935 173.82 246.935 173.904C247.019 174.496 247.019 175.089 247.104 175.681C247.273 176.612 246.512 176.442 246.004 176.612C245.835 176.612 245.75 176.696 245.581 176.781Z" fill="white"/>
<path d="M239.572 40.5605C239.403 41.3219 239.234 41.9988 239.064 42.7603C238.895 42.7603 238.811 42.7603 238.641 42.8449C238.472 42.4219 238.218 41.8296 238.303 41.4066C238.388 40.9835 238.895 40.7297 239.234 40.3066C239.318 40.4759 239.487 40.4759 239.572 40.5605Z" fill="white"/>
<path d="M238.136 335.761C237.712 334.915 237.12 334.069 236.866 333.138C235.936 330.261 235.09 327.3 234.328 324.339C233.651 321.801 233.144 319.178 232.636 316.555C231.959 313.424 231.451 310.294 230.859 307.163C230.436 304.794 230.013 302.341 229.59 299.972C229.082 297.264 228.49 294.557 227.982 291.934C227.559 289.649 227.136 287.365 226.713 285.08C226.121 281.865 225.698 278.65 225.106 275.435C224.767 273.404 224.344 271.458 224.09 269.428C223.837 267.566 223.752 265.705 223.583 263.844C223.414 262.151 223.244 260.375 222.991 258.682C222.821 257.413 222.483 256.144 222.314 254.875C222.229 254.537 222.483 253.944 222.652 253.944C222.991 253.86 223.583 253.69 223.752 254.283C224.09 255.383 224.598 256.398 224.767 257.498C225.275 260.205 225.613 262.997 225.952 265.79C226.375 268.751 226.798 271.797 227.306 274.758C228.152 279.412 228.998 284.065 229.928 288.634C230.605 291.764 231.282 294.895 231.959 298.026C232.551 300.564 233.059 303.102 233.567 305.725C233.905 307.586 234.159 309.532 234.497 311.394C234.836 313.424 235.343 315.37 235.766 317.316C236.443 320.362 237.205 323.408 237.966 326.454C238.643 328.908 239.32 331.361 239.997 333.73C240.335 335 240.335 335 238.982 335.423C238.897 335.423 238.643 335.507 238.136 335.761Z" fill="black"/>
<path d="M233.48 249.291C233.649 249.545 233.734 249.799 233.903 250.052C234.749 251.745 235.595 253.437 236.357 255.214C238.218 259.444 239.91 263.675 241.687 267.905C242.448 269.766 243.379 271.628 244.225 273.405C245.156 275.266 246.171 277.127 247.102 278.989C248.625 281.95 250.063 284.911 251.502 287.873C252.432 289.734 253.448 291.68 254.378 293.541C255.732 296.164 257.086 298.787 258.439 301.41C259.539 303.525 260.808 305.556 262.078 307.587C262.585 308.433 261.908 310.463 261.062 310.886C260.893 310.971 260.555 310.802 260.47 310.717C259.962 310.04 259.539 309.279 259.116 308.517C257.932 306.402 256.832 304.202 255.647 302.002C254.886 300.564 254.04 299.21 253.278 297.772C252.348 295.995 251.502 294.134 250.571 292.272C249.471 289.988 248.286 287.703 247.186 285.419C245.833 282.627 244.479 279.835 243.125 276.958C241.602 273.828 240.079 270.697 238.726 267.482C237.456 264.436 236.441 261.305 235.341 258.26C234.495 255.975 233.564 253.691 232.634 251.406C232.38 250.814 232.465 250.306 232.718 249.799C232.803 249.629 232.888 249.46 232.972 249.291C233.141 249.376 233.311 249.291 233.48 249.291Z" fill="black"/>
<path d="M205.475 352.598C205.306 352.175 205.221 351.921 205.137 351.498C206.152 351.414 207.083 351.414 208.013 351.329C207.675 352.767 206.49 352.429 205.475 352.598Z" fill="black"/>
</svg>
