<svg xmlns="http://www.w3.org/2000/svg" xml:space="preserve" id="レイヤー_1" x="0" y="0" style="enable-background:new 0 0 740.7 98.8" version="1.1" viewBox="0 0 740.7 98.8"><style>.st1{fill:none;stroke:#ddd}</style><g style="enable-background:new"><path d="M.5 93V80.5c1.4 1.3 3.2 2.4 5.2 3.4s4.1 1.9 6.3 2.6c2.2.7 4.5 1.2 6.7 1.6 2.2.4 4.3.6 6.2.6 6.6 0 11.5-1.2 14.7-3.6s4.9-5.9 4.9-10.5c0-2.5-.5-4.6-1.6-6.4-1.1-1.8-2.6-3.5-4.5-5s-4.2-2.9-6.8-4.3c-2.6-1.4-5.4-2.8-8.4-4.3-3.2-1.6-6.1-3.2-8.9-4.9-2.8-1.7-5.1-3.5-7.2-5.5-2-2-3.6-4.2-4.8-6.8C1.1 34.9.6 31.9.6 28.5c0-4.1.9-7.8 2.7-10.8 1.8-3.1 4.2-5.6 7.2-7.6s6.3-3.5 10.1-4.4c3.8-1 7.6-1.5 11.6-1.5 9 0 15.5 1.1 19.6 3.2v12c-5.4-3.7-12.3-5.6-20.7-5.6-2.3 0-4.7.2-7 .7-2.3.5-4.4 1.3-6.2 2.4-1.8 1.1-3.3 2.5-4.4 4.3-1.1 1.7-1.7 3.9-1.7 6.3 0 2.3.4 4.3 1.3 6 .9 1.7 2.1 3.2 3.8 4.6 1.7 1.4 3.8 2.8 6.2 4.1 2.4 1.3 5.2 2.8 8.4 4.3 3.3 1.6 6.3 3.3 9.3 5.1s5.5 3.7 7.7 5.9 3.9 4.5 5.2 7.2c1.3 2.6 1.9 5.6 1.9 9 0 4.5-.9 8.3-2.6 11.4-1.8 3.1-4.1 5.6-7.1 7.6-3 1.9-6.4 3.4-10.3 4.2-3.9.9-8 1.3-12.3 1.3-1.4 0-3.2-.1-5.3-.3-2.1-.2-4.3-.6-6.5-1s-4.3-1-6.3-1.7C3.3 94.6 1.7 93.9.5 93zM118.9 96.7h-10.4V86.6h-.3c-4.5 7.8-11.2 11.7-20 11.7-6.5 0-11.5-1.7-15.2-5.1-3.7-3.4-5.5-8-5.5-13.6 0-12.1 7.2-19.2 21.5-21.2l19.5-2.7c0-11-4.5-16.6-13.4-16.6-7.8 0-14.9 2.7-21.2 8V36.3c6.4-4.1 13.8-6.1 22.1-6.1 15.3 0 22.9 8.1 22.9 24.2v42.3zm-10.4-32.9L92.9 66c-4.8.7-8.5 1.9-10.9 3.6-2.5 1.7-3.7 4.8-3.7 9.1 0 3.2 1.1 5.8 3.4 7.8s5.3 3 9 3c5.2 0 9.4-1.8 12.8-5.4 3.4-3.6 5-8.2 5-13.7v-6.6zM182.9 93.7c-5 3-10.9 4.5-17.8 4.5-9.3 0-16.7-3-22.4-9-5.7-6-8.5-13.8-8.5-23.5 0-10.7 3.1-19.3 9.2-25.8s14.3-9.7 24.6-9.7c5.7 0 10.7 1.1 15.1 3.2V44c-4.8-3.4-10-5.1-15.5-5.1-6.6 0-12.1 2.4-16.3 7.1-4.3 4.8-6.4 11-6.4 18.8 0 7.6 2 13.6 6 18s9.4 6.6 16.1 6.6c5.7 0 11-1.9 16-5.6v9.9zM252.6 96.7h-10.4V59.3c0-13.5-5-20.3-15.1-20.3-5.1 0-9.4 2-12.8 5.9-3.5 3.9-5.2 8.9-5.2 15.1v36.8h-10.4V.5H209v42h.3c5-8.2 12.1-12.3 21.3-12.3 14.6 0 22 8.8 22 26.5v40zM277.5 15.2c-1.9 0-3.4-.6-4.8-1.9-1.3-1.3-2-2.9-2-4.8s.7-3.6 2-4.9c1.3-1.3 2.9-1.9 4.8-1.9s3.5.6 4.9 1.9 2 2.9 2 4.9c0 1.9-.7 3.4-2 4.8-1.4 1.3-3 1.9-4.9 1.9zm5.1 81.5h-10.4v-65h10.4v65zM357.6 96.7H343l-28.7-31.2h-.3v31.2h-10.4V.5H314v61h.3l27.3-29.8h13.6L325 63.1l32.6 33.6zM395.5 98.3c-9.6 0-17.3-3-23-9.1-5.7-6.1-8.6-14.1-8.6-24.2 0-10.9 3-19.4 9-25.6 6-6.1 14-9.2 24.2-9.2 9.7 0 17.3 3 22.7 9S428 53.4 428 64c0 10.4-2.9 18.7-8.8 24.9-6 6.2-13.9 9.4-23.7 9.4zm.7-59.3c-6.7 0-12 2.3-15.9 6.8s-5.8 10.8-5.8 18.8c0 7.7 2 13.8 5.9 18.2s9.2 6.7 15.8 6.7c6.7 0 11.9-2.2 15.5-6.5 3.6-4.4 5.4-10.6 5.4-18.6 0-8.1-1.8-14.4-5.4-18.8-3.6-4.4-8.8-6.6-15.5-6.6zM535.3 15.4H509v81.4h-10.7V15.4h-26.2V5.7h63.2v9.7zM580.1 96.7h-10.4V86.6h-.3c-4.5 7.8-11.2 11.7-20 11.7-6.5 0-11.5-1.7-15.2-5.1-3.7-3.4-5.5-8-5.5-13.6 0-12.1 7.2-19.2 21.5-21.2l19.5-2.7c0-11-4.5-16.6-13.4-16.6-7.8 0-14.9 2.7-21.2 8V36.3c6.4-4.1 13.8-6.1 22.1-6.1 15.3 0 22.9 8.1 22.9 24.2v42.3zm-10.4-32.9L554 66c-4.8.7-8.5 1.9-10.9 3.6-2.5 1.7-3.7 4.8-3.7 9.1 0 3.2 1.1 5.8 3.4 7.8s5.3 3 9 3c5.2 0 9.4-1.8 12.8-5.4 3.4-3.6 5-8.2 5-13.7v-6.6zM681.6 31.7l-19.5 65h-10.8l-13.4-46.5c-.5-1.8-.8-3.8-1-6h-.3c-.1 1.5-.6 3.5-1.3 5.9l-14.5 46.7h-10.4l-19.7-65h10.9l13.5 48.9c.4 1.5.7 3.4.9 5.8h.5c.1-1.9.5-3.9 1.1-6l15-48.8h9.5l13.5 49c.4 1.6.7 3.5 1 5.8h.5c.1-1.7.4-3.6 1.1-5.8l13.2-49h10.2zM740.2 96.7h-10.4V86.6h-.3c-4.5 7.8-11.2 11.7-20 11.7-6.5 0-11.5-1.7-15.2-5.1s-5.5-8-5.5-13.6c0-12.1 7.2-19.2 21.5-21.2l19.5-2.7c0-11-4.5-16.6-13.4-16.6-7.8 0-14.9 2.7-21.2 8V36.3c6.4-4.1 13.8-6.1 22.1-6.1 15.3 0 22.9 8.1 22.9 24.2v42.3zm-10.4-32.9L714.1 66c-4.8.7-8.5 1.9-10.9 3.6-2.5 1.7-3.7 4.8-3.7 9.1 0 3.2 1.1 5.8 3.4 7.8s5.3 3 9 3c5.2 0 9.4-1.8 12.8-5.4 3.4-3.6 5-8.2 5-13.7v-6.6z" class="st1"/></g></svg>