<svg width="447" height="425" viewBox="0 0 447 425" fill="none" xmlns="http://www.w3.org/2000/svg">
<rect y="183.014" width="301.968" height="287.443" transform="rotate(-32.6726 0 183.014)" fill="white"/>
<path d="M126.758 89.5824L124.566 80.9823L128.19 80.0583C130.955 79.3535 133.279 80.6189 133.931 83.1744C134.582 85.7298 133.147 87.9537 130.383 88.6584L126.758 89.5824ZM127.714 88.2003L130.037 87.6083C132.162 87.0665 133.194 85.4165 132.702 83.4876C132.21 81.5587 130.514 80.6041 128.389 81.1459L126.067 81.7379L127.714 88.2003ZM141.801 82.3193C141.826 82.4176 141.851 82.5682 141.867 82.6819L136.584 84.0287C137.023 85.1337 138.139 85.6605 139.429 85.3316C140.19 85.1374 140.763 84.7166 141.108 84.0661L141.953 84.6618C141.539 85.5002 140.736 86.0974 139.655 86.3731C137.554 86.9087 135.8 85.8774 135.305 83.9362C134.813 82.0074 135.847 80.2651 137.727 79.7859C139.607 79.3067 141.29 80.3167 141.801 82.3193ZM137.981 80.781C136.85 81.0692 136.209 82.0439 136.368 83.181L140.545 82.116C140.144 81.0539 139.123 80.4898 137.981 80.781ZM146.146 84.7183C145.064 84.9939 143.911 84.9347 143.261 84.6425L143.514 83.5835C144.167 83.8357 145.124 83.8928 145.972 83.6767C147.065 83.3979 147.435 82.9503 147.294 82.3974C146.921 80.9354 143.128 83.2501 142.467 80.6578C142.17 79.4906 143.014 78.4381 144.685 78.0121C145.532 77.796 146.547 77.7728 147.206 77.9973L146.94 79.0595C146.254 78.829 145.568 78.8598 144.929 79.0227C143.897 79.2858 143.49 79.7951 143.622 80.3111C144.014 81.8468 147.822 79.5413 148.467 82.0722C148.768 83.2516 147.878 84.2767 146.146 84.7183ZM149.025 75.6365C148.57 75.7524 148.141 75.5084 148.032 75.0784C147.922 74.6484 148.178 74.2167 148.633 74.1008C149.088 73.9849 149.516 74.2289 149.623 74.6466C149.735 75.0889 149.491 75.5175 149.025 75.6365ZM150.414 83.5515L148.754 77.04L149.934 76.7393L151.594 83.2509L150.414 83.5515ZM157.297 74.8622L158.415 74.5772L159.849 80.2041C160.435 82.5016 159.534 83.8435 157.323 84.4073C156.131 84.7111 154.842 84.6863 153.967 84.2291L154.3 83.1759C155.034 83.5384 156.064 83.6289 157.023 83.3846C158.558 82.9931 159.077 82.102 158.701 80.6277L158.57 80.1117C158.177 80.9315 157.413 81.4793 156.48 81.7174C154.6 82.1966 152.849 81.2822 152.37 79.4024C151.891 77.5227 152.993 75.8939 154.873 75.4147C155.844 75.1673 156.819 75.298 157.553 75.8697L157.297 74.8622ZM156.352 80.6509C157.654 80.3189 158.365 79.2085 158.046 77.9554C157.723 76.6899 156.573 76.0803 155.271 76.4123C153.957 76.7474 153.239 77.8332 153.562 79.0986C153.881 80.3518 155.037 80.986 156.352 80.6509ZM164.13 73.0548C165.714 72.6508 167.064 73.2749 167.553 75.1915L168.508 78.9387L167.329 79.2394L166.408 75.6273C166.082 74.3496 165.283 73.8859 164.165 74.1709C162.912 74.4904 162.292 75.4466 162.653 76.8595L163.508 80.2135L162.328 80.5142L160.668 74.0027L161.799 73.7145L162.049 74.6974C162.359 73.9118 163.097 73.3179 164.13 73.0548ZM175.791 73.6538C175.816 73.7521 175.842 73.9027 175.857 74.0164L170.575 75.3632C171.013 76.4682 172.129 76.9951 173.419 76.6662C174.181 76.472 174.754 76.0511 175.098 75.4007L175.944 75.9964C175.529 76.8347 174.726 77.432 173.645 77.7076C171.544 78.2432 169.79 77.2119 169.295 75.2708C168.803 73.3419 169.837 71.5996 171.717 71.1204C173.597 70.6412 175.281 71.6512 175.791 73.6538ZM171.971 72.1156C170.841 72.4037 170.199 73.3785 170.358 74.5155L174.536 73.4506C174.134 72.3884 173.114 71.8243 171.971 72.1156ZM177.999 70.749C178.222 69.8808 178.933 69.2809 180.075 68.9896L180.367 70.1322C180.265 70.145 180.179 70.1669 180.093 70.1888C178.828 70.5114 178.239 71.4859 178.602 72.9111L179.429 76.1545L178.25 76.4552L176.59 69.9437L177.72 69.6555L177.999 70.749Z" fill="black"/>
<path d="M323.648 91.8233L319.919 87.982L330.509 77.6543L316.712 80.9354L314.921 79.0906L318.409 65.6433L308.022 75.7249L304.294 71.8836L321.984 54.7128L325.271 58.0993L320.705 75.391L338.027 71.2409L341.289 74.6021L323.648 91.8233ZM344.857 82.6771C343.434 81.2113 343.438 79.2936 344.676 78.0916C345.914 76.8897 347.831 76.9432 349.254 78.409C350.677 79.8747 350.724 81.7434 349.511 82.9209C348.197 84.1964 346.28 84.1429 344.857 82.6771ZM327.452 95.7425L341.048 82.5456L344.875 86.4881L331.278 99.685L327.452 95.7425ZM356.65 98.2148C359.765 101.424 360.249 105.666 356.105 109.689L348.321 117.244L344.494 113.301L351.672 106.335C353.87 104.201 353.9 102.209 352.208 100.465C350.368 98.5694 347.881 98.3331 345.379 100.762L338.656 107.286L334.83 103.344L348.426 90.147L352.081 93.9126L350.489 95.4579C352.682 95.391 354.859 96.3699 356.65 98.2148ZM370.911 112.908C374.934 117.053 375.344 121.318 371.224 125.316L363.466 132.847L359.884 129.157L361.578 127.514C359.628 127.983 357.597 127.205 355.659 125.209C352.569 122.024 352.498 118.412 354.848 116.131C357.249 113.8 360.561 113.875 364.583 118.019L367.625 121.153C369.318 119.51 369.323 117.542 367.262 115.419C365.864 113.979 363.937 112.954 362.197 112.728L363.578 108.639C366.086 109.1 368.802 110.735 370.911 112.908ZM359.27 123.619C360.545 124.933 362.255 125.481 363.935 124.734L365.325 123.385L362.701 120.681C360.91 118.836 359.663 118.917 358.754 119.8C357.768 120.757 357.92 122.229 359.27 123.619ZM376.765 146.549L377.928 137.077L374.218 136.997L370.756 140.357L366.929 136.415L385.681 118.214L389.508 122.157L378.893 132.459L389.945 132.923L394.507 137.623L383.251 137.555L381.401 151.326L376.765 146.549ZM388.625 159.172C384.43 154.851 384.27 148.871 388.364 144.897C392.459 140.923 398.431 141.261 402.626 145.583C406.82 149.904 406.956 155.859 402.861 159.833C398.767 163.807 392.819 163.494 388.625 159.172ZM391.86 156.032C393.773 158.004 396.635 158.121 398.986 155.84C401.336 153.559 401.304 150.694 399.391 148.723C397.477 146.751 394.59 146.609 392.24 148.89C389.89 151.171 389.946 154.061 391.86 156.032Z" fill="black"/>
<path d="M393.356 189.118C395.265 182.375 400.261 179.47 407.241 181.447L420.525 185.208L418.97 190.698L405.89 186.994C401.383 185.718 398.963 187.155 398.023 190.476C397.073 193.831 398.389 196.29 402.896 197.567L415.977 201.27L414.441 206.692L401.158 202.931C394.177 200.954 391.446 195.862 393.356 189.118ZM386.524 213.761C388.203 207.831 393.3 204.699 398.789 206.253C404.279 207.808 406.976 213.147 405.297 219.077C404.213 222.906 401.698 225.452 398.342 225.929L397.301 221.205C399.307 220.712 400.499 219.475 400.969 217.815C401.727 215.138 400.459 212.509 397.273 211.607C394.088 210.705 391.629 212.278 390.871 214.955C390.401 216.616 390.734 218.284 392.218 219.766L388.82 223.233C386.28 221.086 385.44 217.59 386.524 213.761ZM399.022 241.236C397.804 245.54 394.375 248.083 388.817 246.509L378.38 243.554L379.877 238.267L389.501 240.992C392.449 241.827 394.189 240.856 394.851 238.517C395.57 235.976 394.53 233.705 391.175 232.755L382.161 230.202L383.658 224.916L408.802 232.036L407.305 237.322L398.494 234.827C399.515 236.654 399.684 238.898 399.022 241.236ZM397.048 256.871C397.604 254.905 399.266 253.948 400.926 254.419C402.587 254.889 403.5 256.575 402.944 258.54C402.387 260.506 400.793 261.482 399.167 261.021C397.404 260.522 396.491 258.836 397.048 256.871ZM377.023 248.345L395.254 253.508L393.758 258.794L375.526 253.632L377.023 248.345ZM395.52 278.942L394.023 284.228L368.879 277.108L370.308 272.059L372.409 272.654C371.191 270.881 370.959 268.729 371.649 266.289C373.108 261.138 377.891 258.21 383.617 259.831C389.344 261.453 391.881 266.454 390.423 271.605C389.789 273.841 388.54 275.538 386.675 276.437L395.52 278.942ZM375.728 268.432C374.989 271.041 376.311 273.612 379.462 274.504C382.614 275.397 385.087 273.901 385.826 271.292C386.575 268.648 385.253 266.078 382.101 265.186C378.95 264.293 376.476 265.789 375.728 268.432ZM383.913 294.593C382.339 300.151 378.852 302.64 373.329 301.076L362.926 298.13L364.327 293.183L366.597 293.826C365.215 292.373 364.871 290.226 365.629 287.549C366.838 283.279 369.93 281.409 373.082 282.302C376.301 283.213 377.894 286.117 376.321 291.674L375.131 295.876C377.401 296.519 379.107 295.538 379.913 292.692C380.46 290.76 380.382 288.578 379.706 286.959L383.937 286.108C384.794 288.51 384.738 291.679 383.913 294.593ZM368.813 289.878C368.314 291.64 368.696 293.395 370.183 294.475L372.047 295.003L373.074 291.377C373.774 288.904 373.08 287.865 371.86 287.52C370.539 287.145 369.341 288.014 368.813 289.878Z" fill="black"/>
<path d="M276.898 63.7538L128.008 101.362L86.1328 249.108L193.147 359.246L342.037 321.638L383.912 173.892L276.898 63.7538ZM278.691 57.4272L390.288 172.282L346.619 326.354L191.354 365.573L79.7572 250.718L123.426 96.6456L278.691 57.4272Z" fill="black"/>
<path d="M215.445 109.053L218.133 103.982L212.894 98.3324L210.77 93.1623L210.062 83.8425L211.478 72.5201L213.176 63.581L217.508 55.7916L222.473 51.2611L231.678 47.8575L238.645 47.6367L245.255 48.7408L251.277 52.6774L255.968 59.6216L259.074 70.2282L259.783 81.9922L258.511 91.2207L256.813 94.1674L255.397 99.8553L253.44 101.972L250.128 104.888L247.44 104.477C246.275 104.302 245.14 103.982 244.059 103.525C242.651 102.939 241.158 102.574 239.635 102.452L236.338 102.185L234.831 103.449L236.864 110.47L218.704 112.03L215.445 109.053Z" fill="white"/>
<path d="M206.567 216.994C203.818 216.4 201.198 215.829 198.579 215.265C198.518 215.25 198.465 215.235 198.404 215.227C196.493 215.068 196.523 214.984 196.889 213.05C197.323 210.773 197.574 208.466 197.871 206.166C198.153 203.981 198.381 201.788 198.632 199.595C198.99 196.542 199.394 193.489 199.706 190.428C200.094 186.598 200.414 182.76 200.757 178.923C201.016 176.022 201.16 173.105 201.534 170.22C201.937 167.136 202.6 164.09 203.041 161.014C203.27 159.43 203.209 157.801 203.338 156.202C203.574 153.316 203.856 150.438 204.1 147.552C204.275 145.504 204.427 143.455 204.549 141.4C204.617 140.242 204.549 139.077 204.617 137.92C204.777 135.476 204.945 133.024 205.211 130.587C205.485 128.044 205.676 125.471 206.292 123.004C206.94 120.392 207.929 117.856 208.973 115.366C209.498 114.11 210.511 113.075 211.211 111.887C211.904 110.699 212.544 109.465 213.1 108.209C213.678 106.907 214.166 106.656 215.513 107.303C215.841 106.762 216.587 105.986 216.427 105.696C215.985 104.882 216.633 103.892 215.574 103.108C213.45 101.547 212.117 99.2547 211.013 96.8715C209.254 93.0643 209.094 89.0212 209.361 84.9247C209.536 82.2978 209.696 79.6632 209.985 77.0439C210.252 74.6683 210.739 72.3155 211.028 69.9398C211.478 66.285 212.292 62.7672 214.074 59.4931C215.787 56.3408 217.942 53.6682 220.935 51.5819C222.671 50.3712 224.452 49.3204 226.402 48.5895C228.092 47.9575 229.897 47.6453 231.64 47.158C234.039 46.4879 236.331 47.2418 238.645 47.6301C239.11 47.7062 239.612 47.9956 239.354 48.5438C239.247 48.7722 238.638 48.8788 238.272 48.8484C236.62 48.6808 234.96 48.2392 233.323 48.2925C231.846 48.3458 230.369 48.8484 228.922 49.2595C225.1 50.356 221.688 52.2291 218.902 55.0997C217.112 56.9499 215.894 59.1809 214.843 61.5185C213.282 64.9982 212.666 68.6683 212.292 72.4297C212.102 74.379 211.592 76.2977 211.356 78.247C211.15 79.9297 211.127 81.6277 211.044 83.3257C210.96 85.0846 210.861 86.8435 210.838 88.6024C210.8 92.5313 211.897 96.1177 214.135 99.3689C215.544 101.425 217.409 102.902 219.602 104.029C219.891 104.181 220.044 104.615 220.257 104.912C219.876 104.988 219.496 105.095 219.115 105.118C218.924 105.133 218.719 104.988 218.726 104.988C218.178 105.925 217.661 106.808 217.059 107.828C218.011 108.064 218.94 108.415 219.899 108.506C222.069 108.704 224.254 108.948 226.425 108.849C228.237 108.773 230.026 108.247 231.831 107.912C232.623 107.767 233.422 107.638 234.199 107.425C234.397 107.372 234.694 106.96 234.64 106.823C234.229 105.658 234.572 104.524 234.831 103.443C235.09 102.377 235.584 101.341 236.133 100.382C236.308 100.077 237.031 99.8791 237.442 99.9552C238.805 100.207 240.153 100.58 241.486 100.968C242.437 101.242 243.176 100.907 243.937 100.374C246.838 98.341 249.1 95.7141 251.034 92.7978C252.336 90.841 252.785 88.5491 253.181 86.2876C253.531 84.2927 253.653 82.2521 253.866 80.2343C253.912 79.8155 253.95 79.3891 253.942 78.9627C253.851 76.0693 253.98 73.1378 253.562 70.2901C253.272 68.3332 252.351 66.4297 251.483 64.6175C250.508 62.5845 249.13 60.8027 247.151 59.5921C246.991 59.4931 246.975 59.1581 246.892 58.9372C247.204 58.823 247.592 58.5337 247.821 58.6251C248.399 58.8611 248.955 59.2114 249.442 59.6073C251.331 61.1454 252.724 63.0566 253.6 65.3484C254.072 66.5896 254.788 67.7774 255.039 69.0566C255.389 70.8536 255.442 72.719 255.564 74.5617C255.709 76.6632 255.709 78.7724 255.915 80.8663C256.265 84.544 256.714 88.2064 257.125 91.8765C257.133 91.9526 257.201 92.0212 257.338 92.2801C257.582 91.4729 257.879 90.8334 257.948 90.1709C258.237 87.4298 258.526 84.681 258.671 81.9247C258.793 79.6252 258.732 77.3181 258.701 75.0109C258.663 71.9957 257.993 69.0642 257.277 66.1556C256.866 64.488 256.463 62.7824 255.777 61.2139C254.559 58.4423 253.166 55.724 250.95 53.5844C249.206 51.9017 247.067 50.8052 244.813 49.9524C244.47 49.823 244.105 49.7468 243.8 49.5641C243.602 49.4499 243.496 49.1834 243.343 48.9854C243.572 48.8331 243.815 48.5209 244.013 48.5438C244.904 48.6656 245.826 48.7874 246.671 49.092C250.47 50.4778 253.31 53.0057 255.298 56.5311C257.14 59.8053 258.442 63.2545 259.211 66.9474C260.049 70.9754 260.635 75.0185 260.483 79.1302C260.346 83.0516 260.361 87.0034 259.356 90.841C259.074 91.9146 258.793 93.1405 258.1 93.9247C256.684 95.5161 257.034 97.5796 256.257 99.3156C255.633 100.701 255.077 102.064 253.638 102.849C252.45 103.488 251.323 104.257 250.135 104.889C249.907 105.011 249.48 104.76 249.153 104.684C249.336 104.417 249.458 104.082 249.701 103.892C250.653 103.168 251.681 102.544 252.595 101.775C254.681 100.031 255.359 97.61 255.404 95.0364C255.45 92.7445 255.229 90.4526 255.115 88.1531C255.1 87.841 255.008 87.5288 254.757 87.209C254.59 87.9247 254.513 88.6861 254.232 89.3562C253.531 90.9856 252.656 92.5466 251.993 94.1912C251.445 95.5694 251.156 97.039 250.668 98.4476C249.831 100.854 248.475 102.887 246.176 104.12C245.871 104.28 245.407 104.151 245.019 104.151C245.125 103.747 245.102 103.222 245.354 102.97C246.587 101.76 247.775 100.534 248.369 98.7979C248.057 99.072 247.744 99.3537 247.425 99.6278C246.412 100.473 245.422 101.333 244.371 102.133C242.711 103.404 241.013 102.849 239.338 102.133C238.897 101.943 238.493 101.661 238.059 101.455C237.579 101.234 237.031 101.128 236.917 101.821C236.689 103.138 235.904 104.311 236.079 105.757C236.201 106.785 236.506 107.661 237.328 108.194C238.402 108.894 239.612 109.374 240.701 110.044C243.267 111.613 244.836 114.019 246.046 116.676C247.029 118.831 247.821 121.077 248.917 123.179C249.724 124.732 250.874 126.103 251.871 127.565C253.516 129.978 255.366 132.285 256.722 134.859C257.734 136.785 257.94 139.07 257.079 141.247C256.607 142.443 256.044 143.6 255.61 144.803C255.488 145.146 255.579 145.633 255.724 145.991C257.148 149.509 258.625 153.004 260.049 156.522C261.229 159.438 262.394 162.369 263.506 165.316C264.366 167.6 265.113 169.923 265.973 172.207C267.092 175.161 268.288 178.093 269.422 181.039C269.986 182.501 270.435 184.009 271.036 185.456C271.76 187.177 272.605 188.844 273.366 190.55C274.295 192.628 275.156 194.737 276.13 196.793C276.869 198.362 277.783 199.839 278.559 201.392C279.58 203.433 280.539 205.504 281.521 207.56C282.199 208.968 282.854 210.392 283.577 211.786C283.828 212.273 284.323 212.76 283.813 213.232C283.364 213.644 282.747 213.994 282.153 214.085C280.851 214.283 279.496 214.184 278.201 214.436C277.318 214.611 276.488 215.121 275.681 215.57C273.998 216.499 272.338 217.489 270.686 218.441C271.394 220.641 272.087 222.788 272.765 224.936C273.389 226.9 273.983 228.88 274.623 230.837C275.186 232.55 275.856 234.233 276.366 235.953C277.417 239.471 278.407 243.012 279.389 246.552C280.311 249.865 281.163 253.192 282.108 256.497C282.823 258.987 283.737 261.431 284.384 263.936C285.184 267.027 285.785 270.164 286.516 273.271C286.935 275.045 287.483 276.796 287.925 278.57C288.184 279.606 288.313 280.664 288.58 281.7C289.075 283.649 289.638 285.583 290.148 287.532C290.582 289.185 291.001 290.845 291.389 292.504C292.151 295.786 292.882 299.083 293.636 302.373C294.618 306.637 295.585 310.908 296.605 315.165C297.153 317.456 297.854 319.71 298.41 322.002C298.806 323.624 299.034 325.276 299.422 326.898C300.016 329.396 300.717 331.87 301.303 334.368C301.76 336.325 302.08 338.319 302.537 340.276C303.123 342.781 303.823 345.264 304.41 347.776C304.821 349.505 305.125 351.256 305.483 352.992C305.598 353.548 305.704 354.104 305.818 354.66C306.024 355.718 305.681 356.754 304.174 356.822C301.691 356.936 299.278 356.571 296.856 356.175C293.666 355.657 290.529 355.68 287.438 356.776C284.567 357.797 281.651 358.703 278.765 359.693C276.77 360.378 274.844 361.299 272.803 361.764C270.488 362.289 268.181 362.959 265.699 362.746C264.138 362.609 262.524 362.906 260.97 362.426C259.508 361.969 258.031 361.543 256.585 361.048C254.97 360.492 253.341 359.944 251.772 359.274C250.402 358.688 249.069 357.987 247.767 357.248C245.932 356.205 244.135 355.078 242.323 353.982C242.072 353.83 241.828 353.685 241.432 353.449C241.341 354.233 241.234 354.941 241.181 355.642C241.006 357.789 240.838 359.936 240.701 362.084C240.488 365.304 240.503 368.479 241.958 371.502C243.557 374.83 245.925 377.152 249.625 377.967C253.897 378.911 258.161 379.832 262.539 380.16C263.3 380.221 264.153 380.358 264.778 380.761C265.371 381.15 265.722 381.926 266.171 382.535C266.201 382.581 266.179 382.665 266.209 382.711C267.557 384.675 266.171 385.931 264.892 386.975C263.567 388.056 262.044 388.954 260.475 389.64C259.448 390.089 258.206 390.074 257.049 390.195C254.034 390.5 251.087 391.041 248.247 392.137C245.11 393.348 241.965 394.543 238.813 395.693C237.671 396.112 236.506 396.142 235.28 395.853C233.97 395.541 232.562 395.624 231.267 395.282C229.98 394.939 228.716 394.383 227.559 393.721C226.569 393.157 225.922 392.206 226.021 390.949C226.158 389.213 226.31 387.485 226.447 385.749C226.47 385.421 226.485 385.086 226.478 384.759C226.455 383.289 226.447 381.812 226.364 380.343C226.341 379.909 226.143 379.452 225.907 379.071C225.572 378.538 225.1 378.096 224.757 377.571C224.293 376.855 224.353 376.033 225.145 375.736C226.105 375.37 226.851 374.243 228.1 374.769C229.508 372.15 229.904 369.264 229.973 366.325C230.003 365.16 229.714 363.995 229.645 362.83C229.569 361.642 229.592 360.454 229.562 359.266C229.531 357.827 229.501 356.388 229.455 354.949C229.409 353.502 229.318 352.056 229.31 350.616C229.31 349.863 229.15 349.436 228.275 349.429C227.612 349.421 226.958 349.185 226.257 349.04C225.694 351.987 225.092 354.82 224.62 357.667C224.369 359.183 224.46 360.759 224.209 362.274C223.889 364.2 223.371 366.096 222.96 368.007C222.846 368.533 222.823 369.081 222.785 369.629C222.678 371.16 222.716 372.713 222.457 374.221C222.031 376.634 221.993 379.048 222.381 381.439C222.556 382.505 223.265 383.487 223.752 384.492C224.559 386.129 224.963 387.835 224.536 389.632C224.43 390.089 224.011 390.538 223.622 390.858C222.671 391.627 221.704 392.487 220.333 392.228C219.244 392.023 218.163 391.756 217.089 391.452C213.534 390.454 210.092 389.137 207.237 386.754C206.034 385.749 205.036 384.439 205.15 382.551C205.272 380.525 205.067 378.477 205.021 376.444C204.99 375.127 204.914 373.794 205.021 372.485C205.097 371.571 205.409 370.665 205.683 369.782C206.102 368.426 206.742 367.216 207.648 366.073C208.836 364.581 209.765 362.875 210.747 361.231C211.897 359.304 213.054 357.37 214.082 355.375C215.3 353 215.924 350.441 216.122 347.784C214.546 347.38 213.008 347.015 211.485 346.589C210.838 346.406 210.229 346.109 209.597 345.858C207.891 345.172 206.163 344.525 204.48 343.779C203.544 343.36 202.683 342.781 201.785 342.271C201.632 342.187 201.473 342.028 201.32 342.028C200.018 342.066 199.234 341.053 198.305 340.429C197.863 340.139 197.711 339.248 197.643 338.601C197.376 336.241 197.178 333.873 196.988 331.505C196.912 330.583 196.889 329.662 196.874 328.741C196.843 326.563 196.828 324.378 196.805 322.2C196.797 321.279 196.782 320.357 196.782 319.436C196.782 317.715 196.737 315.987 196.836 314.266C196.995 311.51 197.247 308.761 197.483 306.005C197.597 304.703 197.803 303.4 197.879 302.098C197.947 300.941 197.879 299.776 197.879 298.619C197.894 296.669 197.924 294.72 197.947 292.771C197.962 291.751 197.909 290.715 198.001 289.702C198.282 286.71 198.701 283.725 198.922 280.733C199.105 278.289 198.998 275.822 199.173 273.377C199.402 270.294 199.805 267.225 200.102 264.149C200.33 261.789 200.468 259.421 200.711 257.06C200.947 254.799 201.206 252.53 201.549 250.283C201.945 247.733 202.531 245.205 202.874 242.646C203.171 240.408 203.231 238.131 203.414 235.877C203.635 233.25 203.917 230.631 204.107 228.004C204.32 225.088 204.922 222.248 205.729 219.446C205.965 218.631 206.27 217.831 206.551 217.002L206.567 216.994ZM214.546 108.719C214.402 109.138 214.318 109.564 214.112 109.922C213.442 111.125 212.742 112.306 212.026 113.478C210.686 115.663 209.582 117.948 208.95 120.445C208.432 122.509 207.77 124.549 207.442 126.636C207.077 128.958 206.993 131.334 206.833 133.686C206.65 136.466 206.521 139.26 206.369 142.039C206.27 143.851 206.186 145.664 206.041 147.476C205.813 150.27 205.508 153.049 205.272 155.844C205.097 157.953 205.067 160.07 204.808 162.164C204.465 164.928 203.871 167.661 203.551 170.425C203.247 173.014 203.171 175.633 202.957 178.237C202.691 181.512 202.402 184.786 202.082 188.06C201.754 191.418 201.427 194.776 201.031 198.126C200.498 202.633 199.904 207.133 199.348 211.641C199.105 213.651 199.12 213.651 201.084 214.062C201.145 214.078 201.198 214.101 201.259 214.108C204.404 214.359 207.419 215.09 210.237 216.529C210.853 216.842 211.371 217.367 211.912 217.824C212.681 218.471 213.313 219.438 214.196 219.758C215.924 220.382 217.759 220.755 219.579 221.052C221.719 221.403 223.912 221.486 226.051 221.837C228.054 222.164 230.034 222.248 232.051 222.035C233.62 221.867 235.204 221.768 236.788 221.73C238.524 221.692 240.267 221.852 242.003 221.768C244.607 221.639 247.196 221.357 249.884 221.136C249.549 220.527 249.153 219.903 248.856 219.24C248.057 217.474 247.318 215.684 246.511 213.925C245.323 211.329 244.105 208.74 242.879 206.159C241.577 203.41 240.305 200.646 238.942 197.935C237.473 195.004 235.881 192.133 234.389 189.21C233.27 187.024 232.181 184.824 231.176 182.593C230.407 180.887 229.76 179.121 229.097 177.369C228.838 176.692 228.747 175.953 228.503 175.268C227.605 172.747 227.3 170.181 227.574 167.509C227.795 165.385 227.841 163.237 227.925 161.098C227.932 160.892 227.681 160.504 227.521 160.489C226.881 160.412 226.227 160.527 225.595 160.435C223.044 160.062 222.457 159.75 222.161 157.176C222.122 156.826 222.069 156.476 222.023 156.118C221.65 153.103 221.14 150.103 220.935 147.072C220.683 143.265 220.653 139.435 220.577 135.613C220.516 132.742 220.508 129.879 220.523 127.009C220.531 125.471 220.607 123.925 220.699 122.387C220.76 121.458 221.125 121.245 222.13 121.435C222.13 122.988 222.13 124.549 222.13 126.11C222.145 129.613 222.062 133.123 222.199 136.625C222.404 141.704 222.762 146.783 223.074 151.862C223.105 152.364 223.265 152.859 223.348 153.354C223.432 153.857 223.508 154.359 223.615 155.037C223.82 154.717 223.912 154.603 223.98 154.466C226.257 150.202 229.341 146.524 232.623 143.029C235.013 140.478 237.625 138.133 240.191 135.75C241.623 134.425 243.229 133.298 245.087 132.628C245.955 132.316 246.861 132.057 247.767 131.897C249.686 131.57 251.567 131.73 253.417 132.658C253.371 132.407 253.387 132.263 253.326 132.179C252.336 130.869 251.308 129.582 250.356 128.25C249.199 126.636 247.942 125.067 247.021 123.323C245.856 121.13 244.98 118.785 243.998 116.493C242.864 113.844 241.029 111.841 238.47 110.516C238.288 110.417 237.884 110.44 237.762 110.577C237.359 111.004 237.115 110.851 236.848 110.463C236.414 109.823 235.973 109.184 235.508 108.514C228.534 110.844 221.559 111.529 214.539 108.704L214.546 108.719ZM254.422 146.92C253.196 148.131 252.024 149.364 250.783 150.506C248.879 152.265 246.953 154.001 244.965 155.661C244.143 156.354 243.572 157.024 243.579 158.174C243.602 160.626 243.458 163.077 243.541 165.522C243.602 167.296 243.823 169.077 244.158 170.821C244.493 172.58 245.064 174.293 245.513 176.029C245.986 177.864 246.381 179.722 246.899 181.542C247.524 183.735 248.247 185.905 248.925 188.083C249.412 189.636 249.838 191.212 250.387 192.743C251.133 194.829 252.062 196.847 252.755 198.948C253.744 201.948 254.567 205.001 255.503 208.017C256.493 211.184 257.536 214.344 258.587 217.489C258.656 217.687 258.991 217.9 259.211 217.915C260.308 217.991 261.427 218.113 262.516 218.007C264.937 217.778 267.374 217.733 269.59 216.385C271.47 215.243 273.519 214.344 275.544 213.461C276.625 212.989 277.813 212.692 278.978 212.486C279.846 212.334 280.767 212.456 281.582 212.456C281.163 211.314 280.889 210.255 280.41 209.304C278.773 206.037 276.968 202.854 275.407 199.557C273.861 196.276 272.544 192.88 271.105 189.545C270.526 188.197 269.803 186.902 269.285 185.532C267.686 181.344 266.179 177.126 264.595 172.93C263.445 169.885 262.25 166.862 261.054 163.839C260.057 161.311 259.029 158.791 258.001 156.27C257.201 154.313 256.341 152.379 255.572 150.407C255.13 149.273 254.81 148.085 254.43 146.897L254.422 146.92ZM243.519 135.171C241.836 136.519 240.214 137.57 238.897 138.917C236.308 141.56 233.848 144.346 231.412 147.133C230.818 147.811 230.178 148.702 230.117 149.532C229.897 152.6 229.904 155.692 229.836 158.768C229.775 161.136 229.836 163.511 229.638 165.872C229.364 169.085 229.432 172.245 230.559 175.298C231.557 177.986 232.6 180.659 233.711 183.301C234.557 185.319 235.493 187.306 236.483 189.255C238.006 192.263 239.65 195.202 241.158 198.21C242.498 200.882 243.732 203.616 245.003 206.326C245.97 208.39 246.937 210.461 247.889 212.532C248.917 214.763 249.884 217.024 250.958 219.233C251.947 221.266 253.029 223.268 253.295 225.545C253.455 226.931 253.493 228.332 253.486 229.733C253.478 232.131 253.387 234.53 253.95 236.882C254.178 237.834 254.407 238.748 255.115 239.563C256.805 241.497 258.42 243.507 258.625 246.271C258.739 247.778 259.021 249.233 258.321 250.702C257.833 251.73 257.559 252.865 257.255 253.969C257.178 254.235 257.361 254.578 257.43 254.882C257.719 254.783 258.153 254.768 258.275 254.563C258.861 253.603 259.432 252.621 259.889 251.585C260.605 249.971 260.445 248.212 260.651 246.507C260.765 245.555 261.153 244.626 261.511 243.72C261.587 243.537 262.067 243.507 262.356 243.415C262.425 243.705 262.554 244.002 262.539 244.291C262.47 245.365 262.371 246.438 262.25 247.504C262.097 248.844 262.105 250.245 261.679 251.502C261.222 252.842 260.354 254.045 259.569 255.476C259.866 255.431 260.232 255.476 260.399 255.324C260.94 254.806 261.481 254.258 261.876 253.634C262.417 252.789 262.668 251.723 263.323 250.999C263.879 250.39 264.047 249.766 264.107 249.073C264.184 248.113 264.107 247.139 264.184 246.172C264.245 245.426 264.412 244.687 264.61 243.956C264.656 243.781 265.044 243.53 265.196 243.583C265.425 243.659 265.638 243.933 265.752 244.169C265.828 244.329 265.699 244.58 265.699 244.794C265.699 246.088 265.699 247.382 265.699 248.669C265.79 248.669 265.882 248.669 265.973 248.677C266.087 248.464 266.224 248.266 266.316 248.045C266.407 247.824 266.483 247.588 266.514 247.352C266.879 244.558 266.925 241.794 265.729 239.151C264.663 236.814 263.574 234.491 262.508 232.154C261.244 229.398 259.874 226.672 259.409 223.618C259.379 223.398 259.227 223.078 259.059 223.017C258.298 222.758 258.138 222.088 257.948 221.479C257.079 218.707 256.28 215.913 255.389 213.149C254.407 210.103 253.341 207.08 252.336 204.042C251.643 201.933 251.049 199.793 250.333 197.692C249.024 193.854 247.638 190.039 246.321 186.194C245.803 184.671 245.384 183.11 244.95 181.557C244.249 179.044 243.549 176.524 242.917 173.996C242.399 171.918 241.836 169.824 241.562 167.707C241.318 165.811 241.425 163.869 241.417 161.95C241.417 160.884 241.44 159.811 241.524 158.745C241.638 157.321 241.859 155.897 241.965 154.473C242.102 152.646 242.14 150.811 242.285 148.991C242.422 147.308 242.666 145.633 242.848 143.958C242.955 143.014 243.039 142.062 243.115 141.11C243.26 139.237 243.381 137.364 243.541 135.179L243.519 135.171ZM227.856 390.721C227.856 390.721 227.818 390.82 227.826 390.873C228.176 392.655 229.584 393.157 231.077 393.5C232.303 393.774 233.574 393.843 234.777 394.17C236.346 394.596 237.808 394.322 239.262 393.797C242.323 392.7 245.323 391.398 248.437 390.492C251.239 389.678 254.14 389.213 257.026 388.726C259.744 388.269 262.113 387.15 264.267 385.505C264.549 385.284 264.838 384.881 264.861 384.546C264.945 383.274 263.795 382.094 262.486 381.98C261.085 381.85 259.653 381.865 258.29 381.553C254.666 380.716 250.904 380.396 247.851 378.919C246.069 379.848 244.585 380.708 243.024 381.424C241.889 381.941 240.549 382.086 239.513 382.733C237.869 383.761 236.163 384.081 234.343 383.731C233.727 383.609 232.958 383.145 232.676 382.612C231.914 381.165 230.81 380.35 229.242 380.099C228.907 380.046 228.564 380.061 228.381 380.053C228.237 381.629 228.024 383.061 228.001 384.5C227.978 385.962 228.153 387.424 228.244 388.848C228.884 389.038 229.501 389.228 230.216 389.442C229.31 386.723 229.6 384.172 230.277 381.645C230.338 381.409 230.673 381.249 231.016 380.936C231.062 381.401 231.084 381.606 231.092 381.812C231.1 382.025 231.13 382.246 231.092 382.452C230.688 384.82 230.833 387.157 231.488 389.464C231.557 389.693 231.808 390.035 231.998 390.043C233.346 390.127 234.739 390.363 236.026 390.112C237.831 389.754 239.567 389.015 241.333 388.452C241.554 388.383 241.881 388.322 242.041 388.436C242.437 388.711 242.925 389.015 243.077 389.426C243.359 390.157 242.567 390.005 242.224 390.127C241.112 390.523 239.978 390.873 238.836 391.185C237.815 391.467 236.734 391.574 235.752 391.947C234.427 392.449 233.095 392.518 231.785 392.152C230.46 391.779 229.181 391.223 227.848 390.728L227.856 390.721ZM230.925 349.954C230.955 350.411 230.97 350.731 230.993 351.05C231.45 357.02 232.463 362.974 232.029 368.982C231.907 370.71 231.282 372.424 230.787 374.106C230.445 375.271 229.653 376.261 230.696 377.586C231.206 378.233 231.595 378.865 232.333 379.315C232.866 379.634 233.285 380.19 233.65 380.716C234.496 381.949 234.991 382.238 236.437 381.85C237.404 381.584 238.303 381.073 239.247 380.723C241.364 379.947 243.496 379.208 245.612 378.447C245.711 378.408 245.788 378.309 245.963 378.165C245.552 377.929 245.194 377.731 244.843 377.525C244.417 377.274 243.93 377.091 243.579 376.756C240.442 373.771 238.63 370.155 238.577 365.769C238.562 364.52 238.691 363.264 238.79 362.015C239.026 359.16 239.194 356.304 239.574 353.472C239.704 352.528 239.361 352.345 238.668 352.124C236.947 351.583 235.249 350.974 233.529 350.464C232.706 350.221 231.838 350.122 230.925 349.939V349.954ZM244.074 154.176C244.166 154.237 244.257 154.298 244.348 154.359C246.465 152.372 248.552 150.346 250.706 148.397C252.953 146.372 254.635 144.004 255.564 141.103C256.052 139.58 256.105 138.049 255.694 136.542C255.526 135.94 255.13 135.247 254.628 134.912C252.054 133.191 249.26 132.712 246.305 133.808C245.818 133.991 245.232 134.356 245.049 134.79C244.805 135.362 244.889 136.085 244.874 136.74C244.828 138.902 244.881 141.072 244.737 143.227C244.546 146.014 244.166 148.793 243.945 151.58C243.876 152.44 244.036 153.316 244.09 154.184L244.074 154.176ZM214.135 360.606C213.518 363.842 213.191 367.185 210.473 369.789C211.653 369.987 212.574 370.147 213.473 370.299C213.891 368.67 214.226 367.078 214.714 365.533C215.155 364.132 215.726 362.776 216.298 361.429C216.389 361.208 216.8 361.124 217.059 360.972C217.067 361.246 217.105 361.512 217.082 361.779C217.067 361.954 216.937 362.114 216.884 362.282C216.077 365.152 215.27 368.03 214.47 370.893C216.45 371.647 217.539 373.01 218.049 374.723C218.742 377.053 218.407 379.429 217.919 381.782C217.744 382.619 217.348 383.594 217.607 384.302C218.292 386.205 218.963 388.178 220.569 389.586C220.889 389.86 221.095 390.378 221.688 390.013C222.29 389.64 223.089 389.419 222.93 388.49C222.8 387.728 222.625 386.952 222.328 386.236C221.422 384.089 220.074 382.101 220.196 379.619C220.265 378.264 220.074 376.863 220.356 375.561C220.866 373.147 221.27 370.741 221.315 368.274C221.338 367.147 221.064 366.218 220.188 365.449C219.206 364.589 218.49 363.561 218.148 362.236C217.965 361.543 217.371 360.896 216.831 360.37C216.358 359.921 215.734 359.723 215.117 360.37C214.919 360.584 214.44 360.53 214.15 360.591L214.135 360.606ZM222.275 365.129C222.358 364.2 222.526 363.393 222.48 362.594C222.328 359.518 222.754 356.518 223.6 353.571C223.95 352.36 224.392 351.172 224.772 349.969C225.069 349.048 224.932 348.858 223.98 348.751C221.985 348.53 219.99 348.309 218.072 348.104C217.554 350.281 217.059 352.375 216.556 354.5C217.158 354.614 217.661 354.69 218.155 354.82C219.899 355.261 220.364 356.441 219.389 357.972C219.343 358.048 219.275 358.117 219.221 358.185C218.688 358.87 218.369 359.525 219.32 360.165C219.511 360.294 219.61 360.622 219.671 360.88C220.051 362.502 220.858 363.865 222.267 365.122L222.275 365.129ZM207.716 384.873C207.648 384.987 207.587 385.109 207.518 385.223C208.493 385.969 209.429 386.769 210.457 387.439C210.998 387.789 211.676 387.926 212.308 388.117C214.021 388.65 215.734 389.16 217.447 389.693C217.98 389.86 218.391 389.678 218.292 389.167C218.194 388.673 217.897 388.002 217.493 387.82C215.056 386.716 212.567 385.749 209.917 385.277C209.186 385.147 208.455 385.002 207.724 384.865L207.716 384.873ZM228.419 151.146C228.328 151.123 228.237 151.093 228.145 151.07C228.008 151.245 227.856 151.42 227.734 151.61C226.744 153.133 225.762 154.656 224.78 156.186C224.567 156.514 224.247 156.872 224.247 157.214C224.254 157.671 224.445 158.44 224.719 158.516C225.747 158.813 226.836 159.148 228.008 158.646C228.145 156.156 228.282 153.651 228.419 151.153V151.146ZM215.924 382.01C216.815 379.832 216.336 379.528 214.691 379.185C213.259 378.888 211.874 378.317 210.435 378.089C209.277 377.906 208.067 378.051 206.841 378.051C206.917 378.492 207.031 378.82 207.008 379.132C206.955 379.711 207.252 379.832 207.716 379.779C209.825 379.551 211.767 380.236 213.693 380.944C214.463 381.226 215.186 381.637 215.932 381.995L215.924 382.01ZM216.442 385.749C216.32 385.52 216.138 385.109 215.902 384.728C215.666 384.348 215.445 383.891 215.087 383.647C213.305 382.444 211.242 381.98 209.178 381.599C207.298 381.249 207.275 381.348 207.237 383.183C210.358 384.051 213.457 384.911 216.435 385.741L216.442 385.749ZM216.663 378.34C216.701 377.411 216.633 376.551 215.498 376.223C214.15 375.842 212.818 375.363 211.447 375.058C209.932 374.723 208.386 374.571 206.863 374.959C206.818 375.264 206.848 375.576 206.719 375.789C206.224 376.573 206.521 376.604 207.275 376.558C208.858 376.467 210.442 376.436 211.995 376.954C213.526 377.464 215.087 377.868 216.671 378.332L216.663 378.34ZM216.366 375.18C216.267 374.898 216.214 374.7 216.13 374.525C215.475 373.177 214.143 372.599 212.97 371.898C211.478 371.007 209.879 371.441 208.325 371.815C207.625 371.982 207.29 372.469 207.206 373.223C210.397 373.117 213.366 373.863 216.358 375.18H216.366ZM207.343 370.337C208.044 370.208 208.714 370.139 209.353 369.941C209.544 369.881 209.803 369.431 209.742 369.264C209.475 368.518 209.772 368.099 210.366 367.71C210.625 367.543 210.853 367.231 210.975 366.934C211.638 365.266 212.254 363.584 212.94 361.771C212.597 361.847 212.353 361.84 212.331 361.916C211.188 364.893 209.133 367.322 207.435 369.957C207.366 370.063 207.374 370.231 207.351 370.33L207.343 370.337ZM254.513 247.672C256.341 246.865 256.859 245.57 256.006 243.986C255.488 243.027 254.871 242.113 254.209 241.017C254.316 243.377 254.415 245.494 254.513 247.672ZM229.661 378.119C229.013 377.434 228.389 376.733 227.711 376.094C227.536 375.926 227.14 375.835 226.919 375.911C226.463 376.079 226.059 376.383 225.617 376.642C226.98 378.172 228.709 378.782 229.668 378.119H229.661ZM216.084 358.048C216.724 358.215 217.287 358.36 217.904 358.52C218.148 357.789 218.726 356.898 218.498 356.571C218.155 356.084 217.249 355.992 216.579 355.741C216.526 355.718 216.465 355.741 216.351 355.741C216.267 356.464 216.191 357.203 216.092 358.048H216.084ZM214.067 357.743C215.155 357.911 215.292 357.629 215.186 355.619C214.79 356.365 214.455 357.012 214.067 357.743Z" fill="black"/>
<path d="M221.011 87.947C220.516 88.9597 220.234 89.0968 219.458 88.4267C218.833 87.8861 218.293 87.1856 217.897 86.4546C217.014 84.8176 217.714 81.3988 219.092 80.1653C220.09 79.2668 220.95 79.1678 222.161 79.7922C222.351 79.8912 222.541 79.9825 222.656 80.0358C224.704 78.7566 225.93 76.9216 226.547 74.6906C226.927 73.3201 227.224 71.919 227.415 70.5104C227.849 67.2591 229.158 64.5865 231.701 62.3784C233.788 60.5586 236.019 59.1423 238.547 58.0459C240.397 57.2464 242.247 56.9799 244.196 57.0484C244.524 57.0636 244.897 57.0941 245.156 57.2616C245.438 57.4367 245.613 57.787 245.841 58.0535C245.521 58.2058 245.209 58.4723 244.874 58.4951C244.158 58.5484 243.42 58.4037 242.712 58.4875C239.224 58.9063 236.255 60.4748 233.666 62.7667C232.174 64.0916 230.552 65.3708 229.92 67.3733C229.463 68.8353 229.196 70.3581 228.854 71.8581C228.351 74.0663 228.077 76.3353 226.767 78.2922C226.006 79.4343 225.168 80.4165 223.79 80.8049C223.623 80.8506 223.379 80.9267 223.326 81.0561C222.892 82.0688 222.404 81.8023 221.765 81.2237C220.958 80.4927 220.014 80.6754 219.64 81.7033C218.681 84.3379 218.597 85.6704 221.019 87.9394L221.011 87.947Z" fill="black"/>
<path d="M222.564 89.5226C222.541 89.9186 222.518 90.284 222.495 90.6343C221.361 90.8856 221.041 90.6191 221.102 89.4846C221.148 88.6394 221.178 87.7942 221.231 86.949C221.246 86.713 221.262 86.4312 221.384 86.2561C221.536 86.0429 221.825 85.7764 222.031 85.7916C222.214 85.8069 222.48 86.1647 222.51 86.4008C222.579 86.9871 222.533 87.5962 222.533 88.2739C222.914 88.1673 223.196 87.9998 223.417 88.0531C223.904 88.1673 224.536 88.2663 224.818 88.6089C226.333 90.482 227.62 92.5455 229.249 94.3044C230.681 95.8425 232.455 97.0683 234.084 98.4237C234.427 98.7054 234.96 98.9491 234.541 99.4897C234.221 99.8932 233.818 99.9618 233.269 99.6648C229.927 97.8907 227.559 95.0734 225.206 92.2409C224.65 91.5709 224.224 90.7714 223.889 89.9643C223.592 89.2561 223.211 89.2104 222.556 89.5226H222.564Z" fill="black"/>
<path d="M220.051 96.3313C220.211 95.4024 220.44 93.9785 220.706 92.5546C220.759 92.2729 220.904 91.9607 221.102 91.7551C221.353 91.5039 221.749 91.1612 222 91.2145C222.358 91.2983 222.846 91.6638 222.914 91.9836C223.242 93.6359 223.5 95.3034 223.683 96.9709C223.759 97.6866 223.28 98.1587 222.556 98.2729C222.145 98.3339 221.719 98.3415 221.3 98.3034C220.15 98.1968 219.96 97.9684 220.051 96.3237V96.3313ZM221.384 97.0242C221.787 96.9785 222.092 96.9404 222.473 96.8948C222.335 95.4709 222.214 94.1232 222.084 92.7831C222 92.7831 221.924 92.7831 221.841 92.7831C221.688 94.1689 221.544 95.547 221.376 97.0166L221.384 97.0242Z" fill="black"/>
<path d="M238.555 69.6428C238.867 69.6885 239.232 69.658 239.476 69.8027C239.742 69.9626 240.138 70.1073 240.116 70.5413C239.826 70.8459 239.575 70.9144 239.286 70.9525C237.473 70.9068 236.415 71.0971 235.501 71.3865C233.887 71.6834 232.798 72.8179 231.648 73.8306C231.435 74.0134 231.192 74.1885 230.971 74.3332C230.712 74.5083 230.506 74.4169 230.057 74.3713C229.882 74.021 229.966 73.6022 230.133 73.4652C231.603 72.1174 232.555 70.4575 236.4 69.8712C237.116 69.8255 237.184 69.7722 237.892 69.6656C237.9 69.6885 238.547 69.6123 238.555 69.6352V69.6428Z" fill="black"/>
<path d="M223.432 103.982C222.914 103.723 222.388 103.571 222.008 103.259C220.462 101.964 218.939 100.639 217.47 99.2611C217.234 99.0403 217.31 98.4768 217.241 98.0732C217.614 98.157 218.079 98.1265 218.353 98.3321C220.211 99.7636 222.046 101.233 223.85 102.726C224.056 102.893 224.201 103.312 224.147 103.563C224.109 103.738 223.69 103.837 223.424 103.982H223.432Z" fill="black"/>
<path d="M237.991 93.4671C240.443 94.0077 242.818 93.5813 245.209 93.1701C245.46 93.1244 245.963 93.3072 246.062 93.566C246.062 93.9315 245.826 94.3046 245.582 94.4112C244.12 95.0737 242.559 95.2716 240.968 95.1041C240.108 95.0127 239.255 94.7919 238.41 94.6016C237.861 94.4798 237.564 94.0381 237.991 93.4671Z" fill="black"/>
<path d="M225.397 97.7852C225.922 98.3867 226.417 99.0415 227.004 99.6126C227.971 100.557 229.014 101.432 229.966 102.384C230.232 102.658 230.308 103.123 230.476 103.496C230.08 103.511 229.623 103.656 229.296 103.511C227.529 102.727 226.296 101.295 225.123 99.8334C224.445 98.9882 224.582 98.143 225.405 97.7852H225.397Z" fill="black"/>
<path d="M250.714 80.0593C250.669 80.4705 250.676 80.7294 250.608 80.874C250.425 81.27 249.922 81.6964 249.496 81.6964C249.07 81.6964 248.75 81.2014 248.697 80.8436C248.575 80.638 248.62 80.303 248.674 80.0441C248.788 79.4045 248.986 78.6507 249.77 78.7192C250.592 78.7877 250.592 79.6101 250.722 80.0593H250.714Z" fill="black"/>
<path d="M249.367 70.2211C250.874 70.2058 251.902 70.6779 252.732 71.5155C252.938 71.7211 253.12 72.1322 253.037 72.452C252.656 72.6043 252.42 72.4368 252.153 72.3378C251.255 72.0028 250.372 71.6525 249.504 71.2566C249.252 71.1424 248.895 71.0053 248.895 70.617C248.986 70.2211 249.336 70.2515 249.374 70.2211H249.367Z" fill="black"/>
<path d="M236.324 80.5921C236.317 81.3459 235.7 82.0312 235.113 81.9779C234.489 81.9246 234.108 81.3383 234.192 80.5464C234.207 80.3941 234.245 80.2494 234.276 80.0972C234.367 79.5565 234.542 79.0692 235.197 79.0616C235.867 79.054 236.134 79.5185 236.263 80.0895C236.301 80.2647 236.309 80.4474 236.324 80.5845V80.5921Z" fill="black"/>
<path d="M247.699 88.7852C247.722 89.5162 246.823 90.5137 246.252 90.4832C245.719 90.4528 245.552 90.1025 245.78 89.6685C246.001 89.2497 246.306 88.8462 246.641 88.5111C246.793 88.3589 247.151 88.2903 247.372 88.3512C247.539 88.3969 247.638 88.7015 247.699 88.7852Z" fill="black"/>
<path d="M214.547 108.712C221.575 111.544 228.549 110.851 235.516 108.521C235.981 109.192 236.423 109.831 236.857 110.471C237.123 110.859 237.367 111.011 237.77 110.585C237.892 110.456 238.296 110.433 238.478 110.524C241.037 111.849 242.872 113.851 244.006 116.501C244.989 118.793 245.864 121.138 247.029 123.331C247.951 125.075 249.207 126.643 250.364 128.258C251.324 129.59 252.352 130.877 253.334 132.187C253.395 132.27 253.38 132.415 253.425 132.666C251.575 131.73 249.687 131.577 247.775 131.905C246.869 132.057 245.963 132.324 245.095 132.636C243.237 133.306 241.631 134.425 240.199 135.758C237.633 138.141 235.022 140.486 232.631 143.037C229.357 146.532 226.273 150.21 223.988 154.474C223.92 154.603 223.829 154.725 223.623 155.045C223.516 154.367 223.448 153.864 223.357 153.362C223.273 152.859 223.113 152.372 223.082 151.869C222.77 146.791 222.412 141.712 222.207 136.633C222.07 133.131 222.153 129.621 222.138 126.118C222.138 124.557 222.138 122.996 222.138 121.443C221.133 121.253 220.76 121.466 220.707 122.395C220.608 123.933 220.539 125.471 220.532 127.017C220.516 129.887 220.532 132.75 220.585 135.621C220.661 139.443 220.692 143.265 220.943 147.08C221.141 150.103 221.659 153.111 222.032 156.126C222.077 156.476 222.123 156.826 222.169 157.184C222.458 159.75 223.044 160.062 225.603 160.443C226.235 160.534 226.897 160.42 227.529 160.496C227.697 160.519 227.94 160.9 227.933 161.106C227.849 163.245 227.803 165.385 227.582 167.517C227.308 170.189 227.613 172.755 228.511 175.276C228.755 175.961 228.846 176.7 229.105 177.377C229.768 179.128 230.415 180.895 231.184 182.601C232.197 184.832 233.285 187.032 234.397 189.217C235.89 192.141 237.481 195.012 238.95 197.943C240.313 200.662 241.585 203.418 242.887 206.167C244.105 208.748 245.324 211.337 246.519 213.933C247.326 215.692 248.065 217.489 248.864 219.248C249.169 219.918 249.565 220.542 249.892 221.144C247.204 221.365 244.616 221.639 242.011 221.776C240.275 221.867 238.532 221.7 236.796 221.738C235.212 221.776 233.628 221.867 232.06 222.042C230.042 222.263 228.062 222.172 226.06 221.844C223.912 221.494 221.727 221.41 219.587 221.06C217.768 220.763 215.933 220.39 214.204 219.766C213.329 219.446 212.689 218.487 211.92 217.832C211.379 217.375 210.862 216.849 210.245 216.537C207.427 215.098 204.412 214.367 201.268 214.116C201.207 214.116 201.153 214.085 201.092 214.07C199.12 213.667 199.105 213.659 199.356 211.649C199.912 207.141 200.514 202.641 201.039 198.134C201.435 194.783 201.762 191.425 202.09 188.068C202.402 184.793 202.691 181.519 202.966 178.245C203.179 175.641 203.255 173.022 203.559 170.433C203.887 167.669 204.473 164.935 204.816 162.172C205.075 160.078 205.105 157.953 205.28 155.852C205.516 153.057 205.813 150.278 206.049 147.484C206.202 145.679 206.278 143.859 206.377 142.047C206.537 139.26 206.658 136.473 206.841 133.694C206.993 131.341 207.085 128.966 207.45 126.643C207.778 124.549 208.44 122.509 208.958 120.453C209.582 117.956 210.694 115.671 212.034 113.486C212.75 112.313 213.45 111.126 214.12 109.93C214.326 109.572 214.41 109.146 214.554 108.727L214.547 108.712Z" fill="white"/>
<path d="M254.423 146.912C254.803 148.1 255.123 149.28 255.565 150.422C256.334 152.394 257.194 154.328 257.994 156.285C259.022 158.806 260.042 161.326 261.047 163.854C262.242 166.877 263.445 169.9 264.588 172.945C266.171 177.141 267.687 181.359 269.278 185.547C269.803 186.917 270.519 188.212 271.098 189.56C272.537 192.895 273.854 196.291 275.4 199.572C276.961 202.877 278.765 206.06 280.402 209.319C280.882 210.27 281.156 211.329 281.575 212.471C280.76 212.471 279.847 212.349 278.971 212.501C277.806 212.707 276.618 213.004 275.537 213.476C273.511 214.359 271.471 215.258 269.583 216.4C267.367 217.748 264.923 217.793 262.509 218.022C261.42 218.128 260.308 217.999 259.204 217.93C258.983 217.915 258.641 217.694 258.58 217.504C257.529 214.352 256.486 211.199 255.496 208.032C254.552 205.016 253.737 201.963 252.747 198.963C252.055 196.862 251.126 194.844 250.379 192.758C249.831 191.227 249.397 189.651 248.917 188.098C248.24 185.92 247.516 183.75 246.892 181.557C246.374 179.737 245.978 177.879 245.506 176.044C245.057 174.308 244.486 172.595 244.151 170.836C243.816 169.092 243.595 167.311 243.534 165.537C243.45 163.092 243.595 160.633 243.572 158.189C243.565 157.047 244.136 156.369 244.958 155.676C246.938 154.009 248.864 152.273 250.775 150.521C252.024 149.372 253.189 148.146 254.415 146.935L254.423 146.912Z" fill="white"/>
<path d="M243.519 135.171C243.367 137.356 243.238 139.229 243.093 141.102C243.017 142.054 242.933 143.006 242.827 143.95C242.644 145.625 242.408 147.3 242.263 148.983C242.111 150.81 242.08 152.638 241.943 154.465C241.837 155.889 241.616 157.313 241.502 158.737C241.418 159.803 241.395 160.876 241.395 161.942C241.41 163.861 241.296 165.81 241.54 167.699C241.814 169.816 242.377 171.909 242.895 173.988C243.527 176.524 244.235 179.036 244.928 181.549C245.355 183.102 245.781 184.663 246.299 186.186C247.608 190.024 249.002 193.839 250.311 197.684C251.027 199.785 251.621 201.925 252.314 204.034C253.311 207.072 254.385 210.095 255.367 213.141C256.258 215.905 257.058 218.699 257.926 221.471C258.116 222.087 258.276 222.757 259.037 223.009C259.205 223.062 259.357 223.389 259.388 223.61C259.844 226.664 261.223 229.389 262.487 232.146C263.56 234.483 264.649 236.806 265.707 239.143C266.91 241.785 266.857 244.549 266.492 247.344C266.461 247.58 266.385 247.816 266.294 248.037C266.202 248.258 266.065 248.463 265.951 248.669C265.86 248.669 265.768 248.669 265.677 248.661C265.677 247.367 265.677 246.072 265.677 244.786C265.677 244.572 265.806 244.329 265.73 244.161C265.616 243.925 265.403 243.651 265.174 243.575C265.03 243.529 264.641 243.773 264.588 243.948C264.39 244.671 264.223 245.417 264.162 246.164C264.086 247.123 264.162 248.098 264.086 249.065C264.025 249.765 263.857 250.382 263.301 250.991C262.646 251.707 262.395 252.78 261.855 253.626C261.459 254.25 260.91 254.798 260.377 255.316C260.21 255.476 259.844 255.423 259.547 255.468C260.332 254.037 261.207 252.834 261.657 251.494C262.083 250.237 262.075 248.836 262.228 247.496C262.35 246.43 262.449 245.357 262.517 244.283C262.532 243.994 262.403 243.697 262.334 243.407C262.045 243.506 261.558 243.529 261.489 243.712C261.131 244.618 260.743 245.547 260.629 246.499C260.431 248.204 260.583 249.963 259.867 251.577C259.41 252.605 258.839 253.588 258.253 254.555C258.131 254.76 257.697 254.775 257.408 254.874C257.339 254.57 257.157 254.227 257.233 253.961C257.537 252.857 257.811 251.722 258.299 250.694C258.999 249.225 258.718 247.763 258.603 246.263C258.398 243.499 256.784 241.496 255.093 239.555C254.385 238.74 254.157 237.826 253.928 236.874C253.365 234.521 253.456 232.123 253.464 229.725C253.464 228.331 253.433 226.922 253.273 225.537C253.007 223.252 251.926 221.257 250.936 219.224C249.862 217.016 248.895 214.755 247.867 212.524C246.915 210.453 245.948 208.382 244.981 206.318C243.71 203.608 242.476 200.874 241.136 198.201C239.629 195.194 237.984 192.247 236.461 189.247C235.471 187.298 234.535 185.311 233.689 183.293C232.578 180.651 231.535 177.978 230.537 175.29C229.403 172.237 229.342 169.085 229.616 165.864C229.814 163.511 229.753 161.128 229.814 158.76C229.89 155.676 229.875 152.592 230.096 149.524C230.156 148.694 230.796 147.803 231.39 147.125C233.827 144.338 236.286 141.551 238.875 138.909C240.192 137.562 241.814 136.511 243.497 135.163L243.519 135.171Z" fill="white"/>
<path d="M227.855 390.72C229.188 391.207 230.459 391.771 231.792 392.144C233.101 392.509 234.434 392.441 235.759 391.938C236.741 391.565 237.822 391.458 238.842 391.177C239.985 390.865 241.112 390.514 242.231 390.118C242.573 389.997 243.358 390.149 243.084 389.418C242.931 389.014 242.444 388.702 242.048 388.428C241.888 388.321 241.561 388.375 241.34 388.443C239.573 388.999 237.837 389.745 236.033 390.103C234.738 390.354 233.345 390.118 232.005 390.035C231.822 390.027 231.563 389.684 231.495 389.456C230.84 387.149 230.703 384.811 231.099 382.443C231.137 382.238 231.106 382.017 231.099 381.804C231.091 381.598 231.061 381.385 231.023 380.928C230.68 381.248 230.345 381.408 230.284 381.636C229.606 384.172 229.317 386.722 230.223 389.433C229.507 389.22 228.891 389.029 228.251 388.839C228.167 387.415 227.992 385.953 228.007 384.491C228.03 383.052 228.243 381.621 228.388 380.045C228.571 380.052 228.913 380.045 229.249 380.09C230.817 380.349 231.921 381.164 232.683 382.603C232.964 383.136 233.733 383.601 234.35 383.722C236.17 384.073 237.875 383.76 239.52 382.725C240.556 382.078 241.896 381.933 243.03 381.415C244.584 380.699 246.076 379.847 247.858 378.91C250.911 380.395 254.673 380.707 258.297 381.545C259.652 381.857 261.091 381.842 262.492 381.971C263.802 382.085 264.952 383.273 264.868 384.537C264.845 384.872 264.563 385.283 264.274 385.496C262.119 387.141 259.744 388.268 257.033 388.717C254.147 389.197 251.246 389.669 248.444 390.484C245.33 391.39 242.33 392.684 239.269 393.788C237.815 394.306 236.353 394.588 234.784 394.162C233.581 393.834 232.302 393.766 231.084 393.491C229.591 393.156 228.183 392.646 227.832 390.865C227.825 390.811 227.855 390.75 227.863 390.712L227.855 390.72ZM245.551 389.083C245.551 389.083 245.551 389.128 245.551 389.151C246.48 389.045 247.424 389.029 248.33 388.824C250.447 388.359 252.533 387.689 254.665 387.324C256.409 387.019 258.038 386.578 259.538 385.626C260.505 385.009 261.541 384.499 262.492 383.859C262.69 383.722 262.645 383.227 262.713 382.9C262.371 382.87 261.967 382.71 261.7 382.839C260.421 383.433 259.241 384.316 257.909 384.712C254.771 385.649 251.581 386.38 248.398 387.156C247.264 387.43 246.084 387.537 244.949 387.842C244.614 387.933 244.134 388.398 244.134 388.694C244.134 389.41 244.774 389.098 245.185 389.121C245.307 389.121 245.429 389.106 245.551 389.098V389.083Z" fill="white"/>
<path d="M230.925 349.954C231.846 350.137 232.714 350.228 233.529 350.479C235.257 350.997 236.948 351.606 238.668 352.139C239.361 352.36 239.704 352.543 239.575 353.487C239.194 356.32 239.019 359.183 238.79 362.03C238.691 363.279 238.562 364.535 238.577 365.784C238.623 370.17 240.443 373.787 243.58 376.772C243.93 377.107 244.417 377.289 244.844 377.541C245.194 377.746 245.552 377.944 245.963 378.18C245.788 378.317 245.712 378.424 245.613 378.462C243.488 379.223 241.364 379.962 239.247 380.739C238.295 381.089 237.404 381.599 236.437 381.865C234.998 382.261 234.503 381.964 233.651 380.731C233.285 380.206 232.866 379.65 232.333 379.33C231.595 378.888 231.206 378.256 230.696 377.601C229.661 376.277 230.445 375.287 230.788 374.122C231.283 372.431 231.907 370.726 232.029 368.997C232.463 362.99 231.45 357.035 230.993 351.066C230.97 350.746 230.955 350.426 230.925 349.969V349.954Z" fill="white"/>
<path d="M244.076 154.169C244.022 153.301 243.862 152.425 243.931 151.565C244.159 148.778 244.532 145.999 244.723 143.212C244.867 141.057 244.814 138.887 244.86 136.725C244.875 136.07 244.791 135.346 245.035 134.775C245.218 134.341 245.804 133.976 246.291 133.793C249.246 132.697 252.048 133.184 254.614 134.897C255.116 135.232 255.512 135.925 255.68 136.527C256.091 138.034 256.038 139.565 255.55 141.088C254.621 143.989 252.939 146.357 250.692 148.382C248.537 150.331 246.451 152.357 244.334 154.344C244.243 154.283 244.152 154.222 244.06 154.161L244.076 154.169Z" fill="white"/>
<path d="M214.135 360.605C214.424 360.544 214.904 360.597 215.102 360.384C215.718 359.737 216.343 359.935 216.815 360.384C217.363 360.91 217.949 361.557 218.132 362.25C218.482 363.582 219.191 364.603 220.173 365.463C221.048 366.232 221.323 367.161 221.3 368.288C221.262 370.755 220.85 373.161 220.34 375.575C220.066 376.877 220.249 378.278 220.18 379.633C220.059 382.115 221.406 384.103 222.312 386.25C222.609 386.958 222.785 387.735 222.914 388.504C223.074 389.433 222.274 389.653 221.673 390.027C221.079 390.392 220.866 389.882 220.554 389.6C218.947 388.191 218.277 386.212 217.592 384.316C217.333 383.6 217.729 382.633 217.904 381.795C218.391 379.443 218.726 377.067 218.033 374.737C217.523 373.031 216.434 371.661 214.455 370.907C215.254 368.037 216.061 365.166 216.868 362.295C216.914 362.12 217.043 361.96 217.066 361.793C217.097 361.526 217.059 361.252 217.043 360.986C216.784 361.13 216.373 361.222 216.282 361.443C215.711 362.79 215.132 364.153 214.698 365.547C214.211 367.092 213.876 368.684 213.457 370.313C212.566 370.161 211.645 370.009 210.457 369.803C213.183 367.199 213.503 363.849 214.119 360.62L214.135 360.605Z" fill="white"/>
<path d="M222.275 365.12C220.867 363.872 220.059 362.501 219.679 360.879C219.618 360.62 219.519 360.293 219.328 360.164C218.377 359.524 218.696 358.869 219.229 358.184C219.283 358.115 219.351 358.047 219.397 357.971C220.364 356.448 219.907 355.26 218.163 354.818C217.669 354.696 217.166 354.62 216.564 354.499C217.067 352.374 217.562 350.28 218.08 348.103C219.998 348.316 221.993 348.529 223.988 348.75C224.948 348.856 225.077 349.047 224.78 349.968C224.392 351.171 223.958 352.359 223.608 353.57C222.755 356.516 222.328 359.509 222.488 362.592C222.526 363.384 222.367 364.191 222.283 365.128L222.275 365.12Z" fill="white"/>
<path d="M207.716 384.865C208.447 385.002 209.178 385.147 209.909 385.276C212.559 385.748 215.056 386.716 217.485 387.82C217.881 388.002 218.186 388.672 218.285 389.167C218.384 389.67 217.973 389.86 217.44 389.693C215.734 389.152 214.013 388.65 212.3 388.117C211.668 387.919 210.99 387.781 210.45 387.439C209.422 386.769 208.485 385.969 207.511 385.223C207.579 385.109 207.64 384.987 207.709 384.873L207.716 384.865Z" fill="white"/>
<path d="M228.42 151.145C228.283 153.643 228.146 156.148 228.009 158.638C226.836 159.14 225.747 158.805 224.719 158.508C224.445 158.432 224.262 157.663 224.247 157.206C224.247 156.864 224.567 156.506 224.78 156.178C225.755 154.648 226.745 153.125 227.734 151.602C227.856 151.412 228.009 151.244 228.146 151.062C228.237 151.084 228.328 151.115 228.42 151.138V151.145Z" fill="white"/>
<path d="M215.924 382.009C215.178 381.651 214.455 381.24 213.686 380.959C211.759 380.243 209.825 379.565 207.709 379.794C207.244 379.847 206.947 379.717 207.001 379.146C207.031 378.834 206.909 378.507 206.833 378.065C208.059 378.065 209.27 377.92 210.427 378.103C211.866 378.332 213.252 378.903 214.683 379.2C216.32 379.542 216.8 379.839 215.917 382.024L215.924 382.009Z" fill="white"/>
<path d="M216.443 385.748C213.466 384.918 210.367 384.057 207.245 383.189C207.283 381.354 207.298 381.255 209.187 381.606C211.243 381.986 213.314 382.451 215.095 383.654C215.446 383.89 215.666 384.347 215.91 384.735C216.146 385.108 216.329 385.519 216.451 385.755L216.443 385.748Z" fill="white"/>
<path d="M216.664 378.34C215.08 377.876 213.519 377.472 211.989 376.962C210.436 376.444 208.852 376.475 207.268 376.566C206.514 376.612 206.217 376.581 206.712 375.797C206.842 375.584 206.811 375.272 206.857 374.967C208.38 374.579 209.925 374.731 211.441 375.066C212.811 375.371 214.136 375.843 215.491 376.231C216.626 376.551 216.694 377.419 216.656 378.348L216.664 378.34Z" fill="white"/>
<path d="M216.366 375.18C213.374 373.863 210.404 373.117 207.214 373.223C207.29 372.462 207.625 371.982 208.333 371.815C209.886 371.442 211.485 371.008 212.978 371.899C214.15 372.599 215.483 373.178 216.138 374.525C216.222 374.708 216.275 374.899 216.374 375.18H216.366Z" fill="white"/>
<path d="M207.35 370.337C207.373 370.238 207.366 370.078 207.434 369.964C209.14 367.329 211.188 364.908 212.33 361.923C212.361 361.847 212.597 361.854 212.939 361.778C212.254 363.591 211.63 365.273 210.975 366.941C210.861 367.238 210.632 367.55 210.366 367.717C209.764 368.106 209.475 368.525 209.741 369.271C209.802 369.438 209.543 369.887 209.353 369.948C208.721 370.139 208.043 370.215 207.343 370.344L207.35 370.337Z" fill="white"/>
<path d="M254.521 247.67C254.422 245.493 254.323 243.376 254.217 241.016C254.887 242.112 255.496 243.026 256.014 243.985C256.867 245.569 256.349 246.856 254.521 247.67Z" fill="white"/>
<path d="M229.668 378.118C228.709 378.781 226.98 378.171 225.617 376.641C226.059 376.382 226.462 376.077 226.919 375.91C227.14 375.834 227.536 375.925 227.711 376.093C228.389 376.732 229.013 377.433 229.66 378.118H229.668Z" fill="white"/>
<path d="M216.092 358.047C216.183 357.202 216.267 356.464 216.35 355.74C216.465 355.74 216.533 355.725 216.579 355.74C217.249 355.991 218.155 356.083 218.498 356.57C218.726 356.89 218.155 357.788 217.904 358.519C217.287 358.359 216.724 358.215 216.084 358.047H216.092Z" fill="white"/>
<path d="M214.066 357.743C214.455 357.012 214.79 356.364 215.186 355.618C215.292 357.628 215.155 357.91 214.066 357.743Z" fill="white"/>
<path d="M221.376 97.0236C221.536 95.554 221.688 94.1682 221.84 92.79C221.924 92.79 222 92.79 222.084 92.79C222.214 94.1378 222.335 95.4855 222.472 96.9017C222.092 96.9474 221.787 96.9779 221.384 97.0312L221.376 97.0236Z" fill="white"/>
<path d="M245.551 389.083C245.429 389.09 245.307 389.113 245.186 389.106C244.774 389.09 244.135 389.395 244.135 388.679C244.135 388.382 244.607 387.918 244.949 387.826C246.084 387.53 247.264 387.423 248.399 387.141C251.582 386.365 254.772 385.634 257.909 384.697C259.241 384.301 260.422 383.418 261.701 382.824C261.967 382.702 262.371 382.854 262.714 382.885C262.645 383.212 262.691 383.715 262.493 383.844C261.541 384.484 260.505 385.002 259.538 385.611C258.038 386.563 256.409 387.012 254.665 387.309C252.533 387.674 250.447 388.344 248.33 388.809C247.424 389.007 246.48 389.03 245.551 389.136C245.551 389.113 245.551 389.09 245.551 389.068V389.083Z" fill="black"/>
</svg>
