<svg xmlns="http://www.w3.org/2000/svg" xml:space="preserve" id="レイヤー_1" x="0" y="0" style="enable-background:new 0 0 312.8 128.7" version="1.1" viewBox="0 0 312.8 128.7"><style>.st0{enable-background:new}.st1{fill:none;stroke:#ddd}</style><g class="st0"><path d="M40.3 9.9H23.8v51.3H17V9.9H.5V3.8h39.8v6.1zM68.6 61.2H62v-6.4h-.2c-2.9 4.9-7.1 7.4-12.6 7.4-4.1 0-7.3-1.1-9.6-3.2-2.3-2.2-3.5-5-3.5-8.6 0-7.7 4.5-12.1 13.5-13.4L62 35.2c0-7-2.8-10.5-8.4-10.5-4.9 0-9.4 1.7-13.4 5V23c4-2.6 8.7-3.8 13.9-3.8 9.6 0 14.5 5.1 14.5 15.3v26.7zM62 40.5l-9.9 1.4c-3 .4-5.3 1.2-6.9 2.3-1.5 1.1-2.3 3-2.3 5.7 0 2 .7 3.6 2.1 4.9 1.4 1.3 3.3 1.9 5.7 1.9 3.3 0 5.9-1.1 8.1-3.4C61 50.9 62 48 62 44.5v-4zM115 61.2h-9.2L87.7 41.5h-.2v19.7H81V.5h6.6V39h.2L105 20.2h8.6L94.5 40 115 61.2zM154.9 61.2h-6.6v-6.5h-.2c-2.7 5-6.9 7.4-12.7 7.4-9.8 0-14.7-5.8-14.7-17.5V20.2h6.5v23.5c0 8.6 3.3 13 9.9 13 3.2 0 5.8-1.2 7.9-3.5 2.1-2.4 3.1-5.5 3.1-9.3V20.2h6.6v41zM200.8 20.2l-18.9 47.6c-3.4 8.5-8.1 12.7-14.2 12.7-1.7 0-3.1-.2-4.3-.5v-5.9c1.4.5 2.7.7 3.9.7 3.3 0 5.8-2 7.4-5.9l3.3-7.8-16-40.9h7.3l11.1 31.6c.1.4.4 1.4.8 3.1h.2c.1-.6.4-1.7.8-3L194 20.2h6.8zM237.2 61.2h-6.6v-6.4h-.2c-2.9 4.9-7.1 7.4-12.6 7.4-4.1 0-7.3-1.1-9.6-3.2-2.3-2.2-3.5-5-3.5-8.6 0-7.7 4.5-12.1 13.5-13.4l12.3-1.7c0-7-2.8-10.5-8.4-10.5-4.9 0-9.4 1.7-13.4 5v-6.7c4-2.6 8.7-3.8 13.9-3.8 9.6 0 14.5 5.1 14.5 15.3v26.6zm-6.6-20.7-9.9 1.4c-3 .4-5.3 1.2-6.9 2.3-1.5 1.1-2.3 3-2.3 5.7 0 2 .7 3.6 2.1 4.9 1.4 1.3 3.3 1.9 5.7 1.9 3.3 0 5.9-1.1 8.1-3.4 2.1-2.3 3.2-5.2 3.2-8.7v-4.1z" class="st1"/></g><g class="st0"><path d="M13.1 127.2H6.4V69.8h6.7v57.4zM79 86.2l-12.3 41h-6.8l-8.4-29.3c-.3-1.1-.5-2.4-.6-3.8h-.2c-.1 1-.4 2.2-.8 3.7l-9.2 29.4h-6.6l-12.4-41h6.9L37 117c.3.9.5 2.2.6 3.7h.3c.1-1.2.3-2.4.7-3.8L48 86.1h6l8.5 30.9c.3 1 .5 2.2.6 3.7h.3c.1-1 .3-2.3.7-3.7l8.3-30.9H79zM115.9 127.2h-6.6v-6.4h-.2c-2.9 4.9-7.1 7.4-12.6 7.4-4.1 0-7.3-1.1-9.6-3.2-2.3-2.2-3.5-5-3.5-8.6 0-7.7 4.5-12.1 13.5-13.4l12.3-1.7c0-7-2.8-10.5-8.4-10.5-4.9 0-9.4 1.7-13.4 5v-6.7c4-2.6 8.7-3.8 13.9-3.8 9.6 0 14.5 5.1 14.5 15.3v26.6zm-6.5-20.7-9.9 1.4c-3 .4-5.3 1.2-6.9 2.3-1.5 1.1-2.3 3-2.3 5.7 0 2 .7 3.6 2.1 4.9 1.4 1.3 3.3 1.9 5.7 1.9 3.3 0 5.9-1.1 8.1-3.4 2.1-2.3 3.2-5.2 3.2-8.7v-4.1zM186.5 127.2H180v-23.5c0-4.5-.7-7.8-2.1-9.8-1.4-2-3.8-3-7.1-3-2.8 0-5.2 1.3-7.1 3.8-2 2.6-2.9 5.6-2.9 9.2v23.4h-6.6V103c0-8.1-3.1-12.1-9.3-12.1-2.9 0-5.3 1.2-7.1 3.6-1.9 2.4-2.8 5.6-2.8 9.4v23.4h-6.6v-41h6.6v6.5h.2c2.9-5 7.2-7.4 12.7-7.4 2.8 0 5.2.8 7.3 2.3 2.1 1.6 3.5 3.6 4.3 6.1 3-5.7 7.6-8.5 13.6-8.5 9 0 13.5 5.6 13.5 16.7v25.2zM216.1 128.2c-6.1 0-10.9-1.9-14.5-5.7-3.6-3.8-5.4-8.9-5.4-15.2 0-6.9 1.9-12.3 5.6-16.1 3.8-3.9 8.8-5.8 15.3-5.8 6.1 0 10.9 1.9 14.3 5.6s5.1 9 5.1 15.7c0 6.5-1.8 11.8-5.5 15.7-3.8 3.8-8.7 5.8-14.9 5.8zm.5-37.4c-4.2 0-7.6 1.4-10 4.3s-3.7 6.8-3.7 11.9c0 4.9 1.2 8.7 3.7 11.5s5.8 4.2 10 4.2 7.5-1.4 9.8-4.1c2.3-2.7 3.4-6.7 3.4-11.7 0-5.1-1.1-9.1-3.4-11.9-2.3-2.8-5.6-4.2-9.8-4.2zM266 126.8c-1.5.9-3.6 1.3-6.1 1.3-7.2 0-10.8-4-10.8-12V91.8h-7v-5.6h7v-10l6.6-2.1v12.1H266v5.6h-10.3v23.1c0 2.8.5 4.7 1.4 5.9.9 1.2 2.5 1.8 4.6 1.8 1.7 0 3.1-.5 4.3-1.4v5.6zM291.9 128.2c-6.1 0-10.9-1.9-14.5-5.7-3.6-3.8-5.4-8.9-5.4-15.2 0-6.9 1.9-12.3 5.6-16.1 3.8-3.9 8.8-5.8 15.3-5.8 6.1 0 10.9 1.9 14.3 5.6s5.1 9 5.1 15.7c0 6.5-1.8 11.8-5.5 15.7-3.7 3.8-8.7 5.8-14.9 5.8zm.5-37.4c-4.2 0-7.6 1.4-10 4.3s-3.7 6.8-3.7 11.9c0 4.9 1.2 8.7 3.7 11.5s5.8 4.2 10 4.2 7.5-1.4 9.8-4.1c2.3-2.7 3.4-6.7 3.4-11.7 0-5.1-1.1-9.1-3.4-11.9-2.3-2.8-5.6-4.2-9.8-4.2z" class="st1"/></g></svg>