<svg xmlns="http://www.w3.org/2000/svg" xml:space="preserve" id="レイヤー_1" x="0" y="0" style="enable-background:new 0 0 1086.8 127.8" version="1.1" viewBox="0 0 1086.8 127.8"><style>.st1{fill:none;stroke:#ddd}</style><g style="enable-background:new"><path d="M73.9 96.7H60.8L14 24.2c-1.2-1.8-2.2-3.7-2.9-5.7h-.4c.3 1.9.5 6.1.5 12.5v65.8H.5v-91h13.8l45.6 71.4c1.9 3 3.1 5 3.7 6.1h.3c-.4-2.6-.6-7.1-.6-13.4V5.7H74v91zM123.5 98.3c-9.6 0-17.3-3-23-9.1-5.7-6.1-8.6-14.2-8.6-24.2 0-10.9 3-19.4 9-25.6 6-6.1 14-9.2 24.2-9.2 9.7 0 17.3 3 22.7 9 5.4 6 8.2 14.2 8.2 24.8 0 10.4-2.9 18.7-8.8 24.9-6 6.2-13.8 9.4-23.7 9.4zm.8-59.3c-6.7 0-12 2.3-15.9 6.8-3.9 4.5-5.8 10.8-5.8 18.8 0 7.7 2 13.8 5.9 18.2s9.2 6.7 15.8 6.7c6.7 0 11.9-2.2 15.5-6.5 3.6-4.4 5.4-10.6 5.4-18.6 0-8.1-1.8-14.4-5.4-18.8-3.6-4.4-8.8-6.6-15.5-6.6zM183.2 87.3h-.3v9.4h-10.4V.5h10.4v42.7h.3c5.1-8.6 12.6-12.9 22.5-12.9 8.3 0 14.9 2.9 19.6 8.7 4.7 5.8 7.1 13.6 7.1 23.4 0 10.9-2.6 19.6-7.9 26.1-5.3 6.5-12.5 9.8-21.7 9.8-8.7 0-15.2-3.7-19.6-11zm-.3-26.2v9.1c0 5.4 1.7 9.9 5.2 13.7 3.5 3.7 7.9 5.6 13.3 5.6 6.3 0 11.2-2.4 14.8-7.2 3.6-4.8 5.4-11.5 5.4-20.1 0-7.2-1.7-12.9-5-17S208.7 39 203 39c-6.1 0-10.9 2.1-14.6 6.3s-5.5 9.5-5.5 15.8zM301.5 96.7h-10.4V86.4h-.3c-4.3 7.9-11 11.8-20.1 11.8-15.5 0-23.2-9.2-23.2-27.7V31.7h10.3v37.2c0 13.7 5.2 20.6 15.7 20.6 5.1 0 9.3-1.9 12.5-5.6 3.3-3.7 4.9-8.6 4.9-14.7V31.7h10.4v65zM376.5 96.7h-10.4V59.3c0-13.5-5-20.3-15.1-20.3-5.1 0-9.4 2-12.8 5.9-3.5 3.9-5.2 8.9-5.2 15.1v36.8h-10.4V.5H333v42h.3c5-8.2 12.1-12.3 21.3-12.3 14.6 0 22 8.8 22 26.5v40zM401.4 15.2c-1.9 0-3.4-.6-4.8-1.9-1.3-1.3-2-2.9-2-4.8s.7-3.6 2-4.9c1.3-1.3 2.9-1.9 4.8-1.9s3.5.6 4.9 1.9 2 2.9 2 4.9c0 1.9-.7 3.4-2 4.8-1.4 1.3-3 1.9-4.9 1.9zm5.1 81.5h-10.4v-65h10.4v65zM461.5 42.3c-1.8-1.4-4.4-2.1-7.9-2.1-4.4 0-8.2 2.1-11.1 6.3s-4.5 9.9-4.5 17.1v33.1h-10.4v-65H438v13.4h.3c1.5-4.6 3.7-8.1 6.8-10.7 3-2.6 6.5-3.8 10.2-3.8 2.7 0 4.8.3 6.2.9v10.8zM499.9 98.3c-9.6 0-17.3-3-23-9.1-5.7-6.1-8.6-14.1-8.6-24.2 0-10.9 3-19.4 9-25.6 6-6.1 14-9.2 24.2-9.2 9.7 0 17.3 3 22.7 9 5.4 6 8.2 14.2 8.2 24.8 0 10.4-2.9 18.7-8.8 24.9-5.9 6.2-13.8 9.4-23.7 9.4zm.8-59.3c-6.7 0-12 2.3-15.9 6.8-3.9 4.5-5.8 10.8-5.8 18.8 0 7.7 2 13.8 5.9 18.2s9.2 6.7 15.8 6.7c6.7 0 11.9-2.2 15.5-6.5 3.6-4.4 5.4-10.6 5.4-18.6 0-8.1-1.8-14.4-5.4-18.8-3.6-4.4-8.8-6.6-15.5-6.6zM596.6 96.7h-10.7v-91h10.7v91zM615.2 94.4V83.2c5.7 4.2 11.9 6.3 18.7 6.3 9.1 0 13.7-3 13.7-9.1 0-1.7-.4-3.2-1.2-4.4-.8-1.2-1.8-2.3-3.2-3.2-1.3-.9-2.9-1.8-4.7-2.5-1.8-.7-3.7-1.5-5.8-2.3-2.9-1.1-5.4-2.3-7.6-3.5-2.2-1.2-4-2.5-5.5-3.9-1.5-1.5-2.6-3.1-3.3-5-.7-1.9-1.1-4-1.1-6.5 0-3 .7-5.7 2.1-8.1 1.4-2.3 3.3-4.3 5.6-5.9 2.3-1.6 5-2.8 8-3.6 3-.8 6.1-1.2 9.2-1.2 5.6 0 10.7 1 15.1 2.9v10.5c-4.8-3.1-10.3-4.7-16.5-4.7-1.9 0-3.7.2-5.3.7-1.6.4-2.9 1.1-4 1.9-1.1.8-2 1.8-2.6 2.9s-.9 2.4-.9 3.7c0 1.7.3 3.1.9 4.3s1.5 2.2 2.7 3 2.6 1.7 4.3 2.4c1.7.7 3.6 1.5 5.8 2.3 2.9 1.1 5.5 2.2 7.7 3.4s4.2 2.5 5.8 3.9c1.6 1.5 2.8 3.1 3.7 5s1.3 4.2 1.3 6.8c0 3.2-.7 6-2.1 8.4-1.4 2.4-3.3 4.3-5.7 5.9-2.4 1.6-5.1 2.7-8.2 3.5s-6.3 1.1-9.7 1.1c-6.5.1-12.3-1.2-17.2-3.8zM728.3 96.7h-10.4V59.3c0-13.5-5-20.3-15.1-20.3-5.1 0-9.4 2-12.8 5.9-3.5 3.9-5.2 8.9-5.2 15.1v36.8h-10.4V.5h10.4v42h.3c5-8.2 12.1-12.3 21.3-12.3 14.6 0 22 8.8 22 26.5v40zM753.2 15.2c-1.9 0-3.4-.6-4.8-1.9-1.3-1.3-2-2.9-2-4.8s.7-3.6 2-4.9c1.3-1.3 2.9-1.9 4.8-1.9s3.5.6 4.9 1.9c1.3 1.3 2 2.9 2 4.9 0 1.9-.7 3.4-2 4.8-1.4 1.3-3 1.9-4.9 1.9zm5.1 81.5h-10.4v-65h10.4v65zM834.8 91.5c0 23.9-11.4 35.8-34.3 35.8-8 0-15.1-1.5-21.1-4.6v-10.4c7.3 4.1 14.3 6.1 20.9 6.1 16 0 24-8.5 24-25.5v-7.1h-.3c-5 8.3-12.4 12.4-22.3 12.4-8.1 0-14.6-2.9-19.5-8.7-4.9-5.8-7.4-13.5-7.4-23.3 0-11 2.7-19.8 8-26.3s12.6-9.8 21.8-9.8c8.8 0 15.3 3.5 19.5 10.5h.3v-9h10.4v59.9zm-10.4-24.2v-9.6c0-5.2-1.7-9.6-5.2-13.3-3.5-3.7-7.8-5.5-13-5.5-6.4 0-11.5 2.3-15.1 7-3.6 4.7-5.5 11.2-5.5 19.6 0 7.2 1.7 13 5.2 17.4 3.5 4.3 8.1 6.5 13.9 6.5 5.8 0 10.6-2.1 14.3-6.2 3.6-4.1 5.4-9.4 5.4-15.9zM902.4 96.7H892V86.6h-.3c-4.5 7.8-11.2 11.7-20 11.7-6.5 0-11.5-1.7-15.2-5.1s-5.5-8-5.5-13.6c0-12.1 7.2-19.2 21.5-21.2l19.5-2.7c0-11-4.5-16.6-13.4-16.6-7.8 0-14.9 2.7-21.2 8V36.3c6.4-4.1 13.8-6.1 22.1-6.1 15.3 0 22.9 8.1 22.9 24.2v42.3zM892 63.8 876.3 66c-4.8.7-8.5 1.9-10.9 3.6-2.5 1.7-3.7 4.8-3.7 9.1 0 3.2 1.1 5.8 3.4 7.8s5.3 3 9 3c5.2 0 9.4-1.8 12.8-5.4 3.4-3.6 5-8.2 5-13.7v-6.6zM1014.3 96.7h-10.4V59.4c0-7.2-1.1-12.4-3.3-15.6-2.2-3.2-6-4.8-11.2-4.8-4.4 0-8.2 2-11.3 6.1-3.1 4.1-4.7 8.9-4.7 14.6v37.1H963V58.1c0-12.8-4.9-19.2-14.8-19.2-4.6 0-8.3 1.9-11.3 5.7-3 3.8-4.4 8.8-4.4 14.9v37.1h-10.4v-65h10.4V42h.3c4.6-7.9 11.3-11.8 20.2-11.8 4.4 0 8.3 1.2 11.6 3.7 3.3 2.5 5.6 5.7 6.8 9.7 4.8-9 12-13.5 21.6-13.5 14.3 0 21.5 8.8 21.5 26.5v40.1zM1086.3 66.8h-45.9c.2 7.2 2.1 12.8 5.8 16.8 3.7 3.9 8.8 5.9 15.4 5.9 7.3 0 14-2.4 20.2-7.2V92c-5.7 4.1-13.3 6.2-22.7 6.2-9.2 0-16.4-3-21.6-8.9-5.2-5.9-7.9-14.2-7.9-24.9 0-10.1 2.9-18.4 8.6-24.7 5.7-6.4 12.9-9.6 21.4-9.6s15.1 2.8 19.7 8.3c4.7 5.5 7 13.1 7 22.9v5.5zm-10.7-8.8c0-6-1.5-10.7-4.3-14-2.9-3.3-6.8-5-11.9-5-4.9 0-9.1 1.8-12.5 5.3-3.4 3.5-5.5 8.1-6.3 13.8h35z" class="st1"/></g></svg>