<svg width="431" height="391" viewBox="0 0 431 391" fill="none" xmlns="http://www.w3.org/2000/svg">
<rect x="54.7773" y="98.8945" width="301.968" height="287.443" transform="rotate(-15.983 54.7773 98.8945)" fill="white"/>
<path d="M157.861 329.089C246.78 304.521 312.254 270.71 347.371 231.186C379.17 195.386 379.493 163.647 374.164 143.326C366.883 115.556 344.39 92.1175 315.465 82.1578C291.296 73.8358 266.652 76.2349 246.073 88.9132L239.076 93.2236L236.216 85.5194C227.805 62.8587 209.862 45.7957 185.693 37.4737C156.771 27.5149 124.618 32.1382 101.781 49.5392C85.0699 62.2729 65.7827 87.4822 68.8002 135.265C72.1389 188.032 102.917 254.985 157.861 329.089ZM155.205 336.804C91.2334 251.491 65.1887 184.949 62.0719 135.691C53.736 3.68958 210.095 -4.22595 242.537 83.1733C321.909 34.2749 440.249 136.777 352.412 235.663C319.629 272.56 258.139 308.961 155.205 336.804Z" fill="black"/>
<path d="M238.084 291.021C237.961 289.869 237.824 288.777 237.732 287.678C237.595 286.068 237.496 284.45 237.374 282.831C237.114 279.45 236.885 276.069 236.588 272.696C236.359 270.078 235.977 267.467 235.779 264.849C235.519 261.354 235.313 257.85 235.191 254.347C235.069 250.699 235.061 247.05 235.023 243.402C235 241.647 235.061 239.891 235.015 238.136C234.954 235.686 234.863 233.228 234.718 230.778C234.473 226.702 234.145 222.634 233.901 218.558C233.771 216.421 233.802 214.269 233.664 212.132C233.519 209.789 233.306 207.453 233.046 205.118C232.665 201.637 232.367 198.142 231.764 194.692C231.245 191.746 230.329 188.876 229.634 185.96C228.703 182.045 228.108 178.068 227.787 174.054C227.719 173.214 227.619 172.382 227.734 171.481C228.512 172.764 229.245 174.076 230.077 175.328C230.695 176.259 231.443 177.107 232.115 178C232.519 178.534 232.947 178.526 233.443 178.152C233.939 177.778 234.435 177.404 234.977 177C237.168 180.098 239.427 183.09 242.976 184.846C241.885 186.204 242.808 187.487 243.037 188.761C243.373 190.647 243.877 192.509 244.235 194.394C244.747 197.088 245.22 199.798 245.663 202.507C246.121 205.324 246.495 208.155 246.937 210.979C247.097 211.995 247.388 212.994 247.555 214.01C247.807 215.528 248.006 217.055 248.227 218.574C248.479 220.306 248.769 222.039 248.99 223.779C249.265 225.931 249.502 228.099 249.754 230.259C249.799 230.648 249.845 231.045 249.914 231.434C250.624 235.472 251.303 239.51 252.066 243.54C252.379 245.211 252.868 246.844 253.28 248.501C254.043 251.615 254.852 254.721 255.562 257.85C256.34 261.277 257.05 264.727 257.76 268.169C258.058 269.62 258.363 271.085 258.47 272.558C258.531 273.428 258.31 274.367 257.997 275.191C257.829 275.634 257.203 275.901 256.775 276.237C256.455 276.489 256.096 276.71 255.791 276.977C254.554 278.084 253.348 279.237 252.089 280.32C249.983 282.145 247.845 283.923 245.724 285.724C244.556 286.716 243.35 287.678 242.228 288.724C241.083 289.792 239.862 290.662 238.091 291.013L238.084 291.021Z" fill="white"/>
<path d="M156.377 54.8731L152.859 42.4856C152.592 41.5392 152.172 40.6462 151.622 39.8295L149.668 36.9444L148.943 31.5483L150.79 22.1756L153.164 17.2069L159.827 12.3756L163.72 10.9635L168.276 10.1621L178.908 8.87988L187.243 12.6656L193.349 21.7558L196.081 31.8841L194.937 42.1269L193.815 46.1874L192.242 48.5839L185.976 49.164L190.395 59.2465L178.038 75.1526L173.482 62.3453L168.177 63.7726L161.148 59.8189L156.362 54.8807L156.377 54.8731Z" fill="white"/>
<path d="M203.615 75.1455L200.348 63.3991L197.929 57.8198L196.593 53.9578H193.823L191.823 51.5536L189.693 48.5769L193.609 45.3789L200.348 53.1716L206.737 58.6441L212.133 63.7655L216.247 73.4435V81.2515L203.615 75.1455Z" fill="white"/>
<path d="M171.948 108.377L176.916 79.9768L179.473 65.2538L187.251 59.2471L196.089 61.1781L210.431 72.0238L221.078 87.7085L232.862 122.154L251.745 158.645L252.814 163.049L255.867 169.719V177.588L263.957 171.856L266.796 171.49L267.651 173.452L258.469 183.923L247.761 185.625L240.388 182.076L232.717 177.153L199.348 299.227L183.87 293.976L167.826 286.305L175.497 201.104L182.168 143.876L181.175 141.319L182.168 136.556L172.513 121.299C170.91 116.697 170.406 112.323 171.948 108.377Z" fill="white"/>
<path d="M198.745 348.951C196.47 348.142 194.318 347.448 192.226 346.608C191.043 346.135 189.731 345.822 188.975 344.586C188.258 343.425 188.082 342.197 188.197 340.869C188.357 339.136 188.387 337.388 188.555 335.656C188.708 334.053 188.983 332.465 189.181 330.862C189.311 329.779 189.395 328.687 189.509 327.603C189.815 324.535 190.135 321.474 190.425 318.406C190.57 316.91 190.669 315.407 190.792 313.903C190.891 312.728 191.013 311.552 191.089 310.377C191.204 308.599 191.272 306.82 191.402 305.042C191.517 303.416 191.616 301.775 191.868 300.172C191.975 299.478 191.738 299.081 191.257 298.814C189.837 298.035 188.395 297.287 186.937 296.577C184.686 295.486 182.426 294.41 180.144 293.395C178.488 292.662 176.755 292.089 175.107 291.357C172.68 290.273 170.253 289.182 167.894 287.945C166.787 287.365 166.475 285.976 166.742 284.732C166.902 283.976 166.948 283.19 167.009 282.412C167.131 280.755 167.23 279.099 167.322 277.443C167.375 276.466 167.352 275.481 167.413 274.512C167.543 272.299 167.703 270.093 167.833 267.879C168.001 265.078 168.115 262.277 168.314 259.476C168.535 256.4 168.802 253.324 169.092 250.248C169.413 246.86 169.802 243.471 170.108 240.082C170.482 236.037 170.764 231.984 171.161 227.939C171.451 224.985 171.825 222.031 172.206 219.085C172.672 215.521 173.229 211.956 173.695 208.392C174.199 204.538 174.687 200.683 175.114 196.821C175.496 193.379 175.763 189.921 176.107 186.479C176.389 183.67 176.717 180.877 177.023 178.068C177.381 174.733 177.702 171.39 178.099 168.054C178.32 166.223 178.671 164.406 178.954 162.582C179.534 158.781 180.114 154.972 180.671 151.171C180.984 149.05 181.281 146.92 181.495 144.783C181.541 144.302 181.205 143.783 181.045 143.287C180.839 142.638 180.45 141.982 180.465 141.333C180.488 140.127 180.602 138.883 180.953 137.738C181.236 136.838 180.961 136.151 180.686 135.395C179.984 133.495 178.641 132.014 177.511 130.388C175.259 127.137 173.099 123.824 171.313 120.268C170.535 118.726 170.352 117.161 170.321 115.528C170.245 111.368 170.474 107.224 171.306 103.133C172.313 98.1639 173.344 93.1952 174.359 88.2264C175.008 85.0513 175.649 81.8762 176.297 78.7088C176.412 78.144 176.45 77.541 176.679 77.0373C177.229 75.8542 176.824 74.8009 176.427 73.7095C175.435 71.0076 174.466 68.2981 173.496 65.5886C173.115 64.52 172.68 64.3521 171.573 64.5811C169.352 65.0467 167.177 65.3291 165.154 63.7568C163.841 62.734 162.269 62.0547 160.933 61.0625C158.499 59.2384 156.323 57.1089 155.293 54.1704C154.614 52.2318 154.255 50.1786 153.789 48.1713C153.545 47.1027 153.331 46.0266 153.194 44.9428C153.156 44.6069 153.431 44.2253 153.56 43.8666C153.896 44.1337 154.423 44.3474 154.537 44.6832C154.949 45.9502 155.201 47.2707 155.545 48.5605C156.026 50.3465 156.377 52.186 157.064 53.888C157.919 55.9869 159.346 57.7806 161.262 59.0246C163.33 60.368 165.505 61.551 167.65 62.7645C168.642 63.3217 169.711 63.2836 170.726 62.8103C173.023 61.7494 175.198 60.5053 177.045 58.7193C178.374 57.4371 179.847 56.3075 181.22 55.071C181.602 54.7276 181.984 54.6512 182.197 55.071C182.396 55.4603 182.579 56.2235 182.381 56.4067C180.327 58.2919 178.206 60.0932 176.091 61.9097C175.611 62.3219 175.076 62.6806 174.634 63.1309C174.481 63.2836 174.412 63.6804 174.496 63.8865C175.435 66.2831 176.412 68.6644 177.358 71.0534C177.496 71.4045 177.549 71.7938 177.641 72.1601C177.725 72.1754 177.809 72.183 177.9 72.1983C178.076 71.6182 178.213 71.0229 178.427 70.4581C178.9 69.1987 179.358 67.9317 179.931 66.7182C180.144 66.2678 180.679 65.9168 181.236 66.3365C181.755 66.7258 181.427 67.1303 181.251 67.6112C180.709 69.069 180.19 70.5497 179.816 72.0609C178.893 75.8008 178.03 79.5483 177.206 83.3035C176.618 85.9901 176.175 88.7149 175.603 91.4015C175.122 93.6684 174.481 95.9047 174.038 98.1792C173.68 100.034 173.504 101.927 173.237 103.804C173.008 105.453 172.703 107.094 172.558 108.75C172.268 112.101 171.565 115.497 172.764 118.779C173.328 120.321 174.267 121.741 175.153 123.145C176.381 125.107 177.725 126.984 178.992 128.923C179.694 129.999 180.335 131.113 181.022 132.205C181.289 132.632 181.572 133.067 181.884 133.456C183.037 134.899 182.777 136.548 182.64 138.196C182.548 139.257 182.541 140.326 182.556 141.387C182.556 141.661 182.724 141.997 182.922 142.188C183.823 143.058 183.815 144.111 183.701 145.233C183.594 146.287 183.632 147.355 183.487 148.401C183.342 149.492 183.052 150.568 182.831 151.66C182.503 153.301 182.113 154.942 181.862 156.598C181.449 159.33 181.121 162.071 180.762 164.811C180.556 166.39 180.335 167.978 180.16 169.566C179.847 172.42 179.549 175.275 179.259 178.129C178.915 181.533 178.587 184.937 178.251 188.334C177.984 191.104 177.725 193.875 177.442 196.646C177.175 199.317 176.916 201.988 176.603 204.652C176.397 206.423 176.076 208.186 175.84 209.949C175.656 211.3 175.542 212.666 175.351 214.017C175.114 215.696 174.794 217.368 174.565 219.047C174.237 221.436 173.947 223.832 173.664 226.229C173.428 228.175 173.199 230.122 173.008 232.068C172.863 233.579 172.794 235.09 172.68 236.602C172.504 238.868 172.313 241.135 172.138 243.402C172.016 244.944 171.924 246.486 171.779 248.027C171.672 249.134 171.489 250.241 171.375 251.347C171.222 252.843 171.1 254.347 170.978 255.851C170.711 259.056 170.436 262.262 170.199 265.467C170.047 267.46 169.94 269.452 169.833 271.451C169.581 276.1 169.344 280.755 169.085 285.403C169.054 286.014 169.169 286.403 169.81 286.686C172.252 287.754 174.649 288.93 177.084 290.006C179.839 291.219 182.64 292.326 185.38 293.57C187.693 294.616 190.005 295.692 192.196 296.959C193.608 297.768 195.066 297.829 196.493 297.623C197.126 297.531 197.676 296.6 198.195 295.99C199.057 294.967 198.752 293.692 198.79 292.525C198.867 289.96 198.912 287.38 198.844 284.816C198.79 282.663 198.508 280.519 198.416 278.359C198.34 276.596 198.416 274.817 198.401 273.054C198.378 270.658 198.317 268.253 198.31 265.857C198.31 264.437 198.386 263.025 198.409 261.605C198.439 259.43 198.523 257.255 198.455 255.08C198.363 252.195 198.264 249.302 197.936 246.432C197.737 244.654 197.684 242.898 197.676 241.12C197.676 239.25 197.31 237.388 197.256 235.51C197.172 232.511 197.241 229.511 197.203 226.504C197.18 224.901 197.043 223.298 197.02 221.695C196.974 218.093 197.004 214.483 196.92 210.88C196.875 208.827 196.592 206.774 196.554 204.713C196.516 202.133 196.646 199.546 196.661 196.959C196.669 195.31 196.592 193.654 196.577 192.005C196.562 190.288 196.6 188.563 196.577 186.845C196.546 184.922 196.493 183.006 196.401 181.091C196.317 179.404 195.997 177.709 196.066 176.03C196.203 172.916 196.546 169.81 196.821 166.703C197.111 163.421 197.378 160.14 197.745 156.865C198.157 153.171 198.752 149.492 199.119 145.79C199.439 142.531 199.485 139.257 199.004 135.983C198.699 133.891 198.607 131.77 198.409 129.655C198.393 129.51 198.332 129.373 198.294 129.228C197.707 126.664 196.043 125.023 193.783 123.824C191.303 122.511 189.128 120.794 186.96 118.985C184.678 117.077 184.411 114.558 183.892 112.047C183.388 109.582 182.961 107.102 182.61 104.606C182.342 102.713 182.281 100.797 182.068 98.8966C181.77 96.2482 181.411 93.6073 181.075 90.9665C180.694 87.9135 179.824 84.9369 179.854 81.8075C179.885 78.1211 180.305 74.5033 181.014 70.9084C181.121 70.3741 181.075 69.7864 181.289 69.2979C181.442 68.9545 181.907 68.756 182.236 68.4965C182.426 68.84 182.785 69.1911 182.77 69.5269C182.701 70.855 182.526 72.1754 182.373 73.4958C182.236 74.6865 181.968 75.8695 181.953 77.0602C181.923 79.6018 181.946 82.151 182.106 84.685C182.205 86.2496 182.64 87.7914 182.869 89.356C183.197 91.6534 183.518 93.9508 183.762 96.2634C184.098 99.3927 184.518 102.53 184.594 105.674C184.647 107.918 185.235 110.025 185.601 112.185C185.815 113.467 186.044 114.795 186.586 115.948C186.998 116.833 187.8 117.634 188.609 118.214C191.288 120.13 194.051 121.924 196.791 123.756C197.432 124.183 198.119 124.542 198.729 125C199.096 125.274 199.37 125.687 199.737 126.099C200.172 125.9 200.233 125.587 199.95 125.122C199.241 123.954 198.462 122.824 197.874 121.603C195.608 116.917 193.333 112.231 191.188 107.491C189.761 104.331 188.517 101.08 187.265 97.8433C186.93 96.9809 186.807 96.0192 186.716 95.088C186.685 94.7598 187.044 94.3858 187.227 94.0347C187.517 94.2561 187.922 94.424 188.067 94.7217C188.418 95.4239 188.639 96.1871 188.922 96.9198C189.402 98.1639 189.906 99.408 190.379 100.652C190.914 102.079 191.402 103.53 191.959 104.949C192.234 105.651 192.616 106.308 192.952 106.987C194.157 109.468 195.302 111.971 196.569 114.413C198.241 117.627 199.973 120.817 201.759 123.969C203.874 127.709 206.041 131.419 208.255 135.097C210.995 139.646 213.819 144.149 216.574 148.691C218.887 152.492 221.146 156.323 223.436 160.14C225.512 163.605 227.557 167.085 229.687 170.52C230.671 172.107 231.793 173.611 232.9 175.122C233.007 175.267 233.533 175.298 233.717 175.168C234.8 174.412 235.793 173.534 236.892 172.809C239.021 171.397 241.189 170.046 243.349 168.68C244.158 168.169 244.287 167.726 243.845 166.818C242.814 164.696 241.776 162.574 240.777 160.437C239.571 157.865 238.388 155.278 237.197 152.698C236.411 150.996 235.579 149.324 234.861 147.592C233.327 143.882 231.839 140.15 230.381 136.41C229.931 135.258 229.687 134.036 229.297 132.853C228.549 130.579 227.786 128.305 227.008 126.038C226.588 124.809 226.137 123.588 225.718 122.351C225.649 122.153 225.557 121.916 225.611 121.733C225.68 121.504 225.84 121.206 226.031 121.13C226.183 121.069 226.55 121.214 226.656 121.382C227.076 121.992 227.519 122.611 227.809 123.29C229.931 128.274 231.48 133.472 233.213 138.601C234.083 141.18 235.342 143.623 236.472 146.111C237.83 149.111 239.22 152.095 240.647 155.064C241.746 157.354 242.982 159.575 244.028 161.887C244.959 163.948 245.791 166.062 246.509 168.207C246.814 169.123 246.287 169.993 245.47 170.565C244.959 170.924 244.417 171.252 243.875 171.603C245.471 172.909 247.127 173.252 249.035 172.626C250.241 172.229 251.5 171.97 252.76 171.802C253.691 171.672 254.652 171.779 255.645 171.779C254.958 168.39 253.607 165.284 251.439 162.452C250.531 163.086 249.691 163.75 248.775 164.284C248.34 164.536 247.753 164.658 247.256 164.62C246.982 164.597 246.585 164.139 246.539 163.834C246.493 163.536 246.745 163.07 247.005 162.872C247.852 162.246 248.768 161.712 249.653 161.139C250.439 160.628 250.737 159.933 250.34 159.063C249.348 156.903 248.378 154.728 247.302 152.606C245.852 149.759 244.249 146.989 242.83 144.127C240.624 139.677 238.51 135.174 236.365 130.693C236.144 130.228 236.029 129.717 235.77 129.274C235.182 128.259 234.51 127.297 233.938 126.282C233.136 124.832 232.266 123.404 231.648 121.87C230.328 118.596 229.152 115.261 227.901 111.956C227.275 110.315 226.557 108.704 225.985 107.048C225.389 105.331 224.954 103.568 224.405 101.835C223.596 99.324 222.84 96.7977 221.894 94.34C220.886 91.7297 219.925 89.0508 218.467 86.6923C217.62 85.3261 217.307 83.853 216.62 82.4868C215.872 81.0061 215.238 79.4644 214.46 77.9989C213.941 77.0144 213.277 76.1061 212.636 75.1978C212.269 74.6712 212.04 74.0911 212.567 73.6484C213.116 73.1981 213.567 73.6255 213.926 74.1064C214.765 75.2284 215.62 76.3427 216.406 77.3807C215.879 74.2209 214.834 71.061 213.323 68.1378C211.804 65.2069 210.201 62.2379 207.522 60.0856C205.644 58.5743 203.774 57.0555 201.927 55.4984C200.706 54.4757 199.531 53.3843 198.21 52.2165C197.737 52.7202 197.157 53.3461 196.592 53.9567C197.371 55.2771 198.142 56.567 198.89 57.8721C199.607 59.1391 200.416 60.368 200.958 61.7036C201.798 63.7873 203.309 65.268 204.904 66.7182C205.705 67.4585 206.522 68.1836 207.27 68.9774C207.484 69.2064 207.468 69.649 207.56 69.9925C207.148 69.9467 206.652 70.0307 206.347 69.8246C205.599 69.3208 204.957 68.6415 204.232 68.0996C202.248 66.6266 200.294 65.0848 198.21 63.7644C196.699 62.8027 195.035 62.0089 193.356 61.3831C191.578 60.7267 189.792 60.7725 188.021 61.8105C186.342 62.7951 184.617 63.6575 183.251 65.0848C183.083 65.2527 182.61 65.1306 182.281 65.1382C182.32 64.7566 182.213 64.1918 182.426 64.0163C183.724 62.9325 185.09 61.925 186.449 60.9099C187.082 60.4367 187.777 60.0474 188.403 59.5589C189.097 59.0094 188.861 58.3301 188.555 57.6661C187.853 56.1548 187.158 54.6512 186.456 53.14C185.922 51.9875 185.357 50.8503 184.876 49.6749C184.731 49.3162 184.747 48.8506 184.831 48.4613C185.082 47.2478 185.403 46.0418 185.701 44.8359C185.769 44.5688 185.785 44.2558 185.937 44.0574C186.105 43.8513 186.418 43.63 186.647 43.6452C186.868 43.6605 187.181 43.9276 187.258 44.1566C187.41 44.5688 187.418 45.0343 187.487 45.4847C190.463 44.5459 192.387 41.3097 190.585 38.6307C189.7 37.3103 187.975 37.2416 186.975 38.501C186.807 38.7147 186.624 38.9131 186.426 39.1344C185.8 38.8978 185.479 38.6078 185.815 37.898C186.059 37.3713 185.922 37.0126 185.273 36.715C183.48 35.9059 181.755 34.9519 179.984 34.097C179.686 33.952 179.267 34.0741 178.923 33.9902C178.366 33.8528 177.725 33.7688 177.29 33.4406C175.633 32.2042 173.748 31.6088 171.764 31.2425C171.634 31.2196 171.497 31.2883 171.359 31.3188C171.321 31.418 171.275 31.5096 171.237 31.6088C172.245 32.166 173.237 32.7537 174.267 33.2651C174.687 33.4712 175.229 33.4406 175.641 33.6543C175.969 33.8223 176.198 34.1962 176.465 34.4786C176.107 34.6847 175.74 35.0816 175.382 35.074C173.183 35.0282 170.337 33.6009 168.871 31.8912C168.543 31.9752 168.192 32.1355 167.848 32.1202C167.604 32.1126 167.299 31.9141 167.154 31.7157C167.032 31.5554 166.986 31.128 167.1 31.0288C167.742 30.4563 167.154 30.0289 166.902 29.6931C165.345 27.6247 164.292 25.2968 163.452 22.8849C163.063 21.763 163.025 20.5036 162.925 19.3053C162.903 19.0076 163.261 18.6795 163.452 18.3589C163.734 18.6337 164.231 18.8932 164.253 19.1908C164.475 21.7324 165.665 23.8924 166.871 26.0371C167.551 27.2507 168.406 28.3727 169.253 29.4794C169.428 29.7084 169.955 29.8076 170.291 29.7694C172.107 29.5328 173.764 29.9755 175.351 30.8074C175.824 31.0517 176.297 31.2806 176.9 31.5783C176.145 30.5785 175.45 29.7465 174.847 28.8612C173.626 27.0599 172.55 25.1518 171.222 23.4345C170.344 22.3049 169.115 21.45 168.077 20.4426C167.65 20.0228 166.688 19.7098 167.314 18.8855C167.917 18.0918 168.581 18.771 169.123 19.1374C171.459 20.7326 173.138 22.9536 174.55 25.3273C176.649 28.8688 179.404 31.7081 182.869 33.8757C183.709 34.4023 184.777 34.5702 185.586 35.1274C186.8 35.9593 188.143 36.0128 189.486 36.0967C190.326 36.1502 190.982 36.4784 191.417 37.1424C193.791 40.7449 192.99 44.897 189.158 47.0722C188.822 47.263 188.41 47.3164 188.021 47.3851C187.235 47.5149 186.838 47.9576 186.8 48.8582C187.059 48.9345 187.357 49.1101 187.655 49.1024C189.364 49.049 191.097 48.7819 192.509 47.8736C193.181 47.4386 193.761 46.141 193.638 45.3549C193.455 44.1719 193.875 43.1797 194.02 42.1187C194.333 39.9359 195.165 37.7911 195.195 35.6235C195.234 32.6316 195.195 29.6015 194.386 26.6401C193.486 23.3505 192.097 20.3281 190.189 17.5041C188.509 15.0082 186.235 13.3673 183.571 12.0163C179.412 9.90975 175.122 10.0777 170.741 10.673C169.963 10.7799 169.222 11.1309 168.451 11.2378C168.054 11.2912 167.368 11.1996 167.238 10.9554C166.955 10.4059 167.49 10.0319 167.97 9.92502C169.741 9.52813 171.52 9.05492 173.321 8.87174C175.183 8.68856 177.114 8.55881 178.938 8.87174C181.007 9.22283 183.037 9.95555 184.991 10.757C188.158 12.0545 190.166 14.6342 192.051 17.3819C194.76 21.3432 196.073 25.7624 196.699 30.4334C197.271 34.6847 196.585 38.8215 195.486 42.9278C195.211 43.9429 195.356 45.0725 195.325 46.1487C195.325 46.2937 195.371 46.4692 195.47 46.5761C197.165 48.4995 198.767 50.5297 200.615 52.2928C202.179 53.7888 204.019 55.01 205.759 56.3075C208.926 58.6659 211.666 61.3754 213.59 64.9016C215.215 67.8859 216.635 70.9237 217.322 74.259C217.749 76.358 218.314 78.4798 218.383 80.6016C218.452 82.8685 219.673 84.5552 220.543 86.4404C221.016 87.4556 221.466 88.4859 221.901 89.5163C222.352 90.562 222.81 91.6153 223.214 92.6762C224.138 95.1109 225.054 97.5533 225.931 100.003C226.58 101.827 227.183 103.667 227.786 105.506C228.633 108.094 229.404 110.704 230.305 113.269C231.236 115.917 232.182 118.565 233.304 121.13C233.915 122.534 234.884 123.786 235.701 125.107C235.938 125.496 236.243 125.847 236.434 126.251C237.991 129.686 239.426 133.174 241.082 136.563C243.013 140.501 245.104 144.363 247.173 148.24C248.356 150.454 249.615 152.629 250.828 154.827C251.599 156.224 252.34 157.644 253.103 159.048C253.37 159.544 253.538 160.002 253.164 160.567C253.027 160.773 253.08 161.216 253.21 161.475C254.149 163.33 255.179 165.139 256.087 167.009C257.133 169.176 257.69 171.436 256.95 173.847C256.881 174.076 256.866 174.328 256.843 174.565C256.843 174.611 256.889 174.664 257.003 174.863C257.179 174.305 257.263 173.832 257.469 173.42C257.957 172.458 258.446 171.497 259.041 170.596C259.423 170.024 260.01 169.596 260.468 169.069C261.071 168.367 261.835 168.238 262.697 168.337C263.422 168.421 263.758 169.36 263.598 170.52C263.544 170.932 263.369 171.321 263.247 171.718C264.201 171.336 265.078 170.878 266.009 170.649C266.46 170.543 267.07 170.779 267.521 171.016C268.696 171.634 268.826 173.122 268.009 174.137C267.002 175.382 266.193 176.778 265.193 178.03C264.124 179.373 262.979 180.656 261.773 181.877C261.544 182.113 260.903 181.953 260.461 181.968C260.522 181.564 260.461 181.068 260.674 180.77C262.499 178.244 264.384 175.756 266.223 173.244C266.368 173.046 266.33 172.718 266.376 172.451C266.093 172.428 265.689 172.267 265.544 172.39C264.804 173.038 264.086 173.725 263.453 174.473C262.995 175.023 262.682 175.687 262.3 176.297C262.193 176.473 262.086 176.74 261.934 176.786C261.071 177.03 260.896 177.809 260.529 178.45C260.369 178.74 260.239 179.083 260.003 179.297C259.568 179.679 259.102 179.877 258.621 179.266C258.446 179.037 258.011 178.786 257.797 178.854C255.713 179.534 253.599 179.556 251.439 179.389C249.989 179.274 249.012 178.747 248.149 177.534C247.547 176.687 246.44 176.221 245.593 175.534C244.723 174.832 243.852 174.115 243.066 173.321C242.028 172.283 240.891 172.55 239.861 173.099C238.578 173.794 237.411 174.71 236.136 175.572C238.12 178.061 239.899 180.396 242.341 182.167C244.104 183.449 246.02 184.243 248.127 184.663C248.356 184.708 248.623 184.731 248.829 184.663C250.699 183.96 252.653 183.793 254.614 183.579C255.95 183.434 257.247 182.938 258.553 182.556C259.537 182.266 260.132 182.548 260.087 183.396C260.071 183.663 259.858 184.052 259.636 184.144C257.728 184.945 255.759 185.464 253.668 185.54C252.439 185.586 251.172 185.708 249.997 186.052C248.378 186.525 246.905 186.128 245.394 185.708C245.005 185.601 244.616 185.464 244.104 185.304C244.6 187.609 245.104 189.769 245.532 191.944C246.509 196.928 247.447 201.92 248.409 206.904C248.814 209.018 249.279 211.117 249.645 213.231C250.103 215.91 250.477 218.612 250.897 221.298C251.325 224.054 251.76 226.801 252.202 229.557C252.63 232.205 253.034 234.846 253.507 237.487C253.775 238.99 254.164 240.464 254.484 241.959C255.103 244.829 255.706 247.699 256.324 250.569C256.438 251.118 256.614 251.653 256.721 252.202C257.133 254.24 257.515 256.293 257.934 258.331C258.27 259.957 258.598 261.59 259.018 263.201C259.774 266.093 260.651 268.956 261.354 271.863C261.735 273.466 261.773 275.145 262.109 276.764C262.384 278.092 262.75 279.427 263.277 280.671C264.3 283.083 265.468 285.434 266.559 287.823C266.704 288.151 266.742 288.525 266.834 288.876C267.505 291.319 268.238 293.738 268.826 296.196C269.207 297.814 269.322 299.493 269.665 301.119C270.017 302.76 270.52 304.363 270.925 305.988C271.627 308.835 272.344 311.674 272.955 314.544C273.054 314.995 272.604 315.559 272.436 316.078C272.36 316.307 272.268 316.597 272.352 316.788C272.703 317.658 273.115 318.505 273.512 319.36C274.046 320.505 273.688 321.276 272.596 321.879C271.894 322.268 271.39 322.986 270.734 323.474C269.933 324.07 269.062 324.581 268.124 325.191C268.673 326.245 269.261 327.298 269.795 328.382C270.375 329.557 270.841 330.786 271.482 331.923C272.1 333.022 272.818 334.099 273.619 335.068C274.237 335.823 274.26 336.442 273.734 337.19C271.948 339.724 270.169 342.258 268.383 344.792C267.643 345.837 267.124 345.883 266.177 345.013C266.055 344.899 265.849 344.738 265.742 344.776C264.201 345.257 263.521 343.975 262.605 343.235C262.239 342.945 261.995 342.502 261.644 342.052C260.728 343.021 259.865 343.952 258.98 344.868C258.514 345.349 258.049 345.837 257.522 346.242C256.24 347.234 255.828 348.631 255.507 350.119C255.339 350.905 255.141 351.752 254.698 352.386C253.752 353.752 252.706 355.08 251.569 356.294C250.409 357.53 248.699 357.607 247.165 357.767C244.829 358.011 242.471 357.988 240.12 358.042C239.097 358.064 238.067 357.927 237.052 358.011C235.396 358.156 234.732 356.66 234.64 355.393C234.594 354.676 234.442 353.806 235.503 353.5C235.129 352.6 235.533 352.035 236.273 351.6C237.655 350.791 239.166 350.134 240.372 349.112C241.799 347.89 243.356 346.639 243.7 344.578C243.906 343.357 243.997 342.12 244.219 340.907C244.654 338.48 245.142 336.068 245.6 333.648C245.844 332.374 246.073 331.099 246.295 329.908C244.806 330.008 243.326 330.107 241.784 330.214C241.784 332.023 241.769 333.885 241.784 335.747C241.799 337.35 241.868 338.953 241.876 340.556C241.876 341.494 241.822 342.433 241.746 343.364C241.647 344.517 241.013 345.395 240.006 345.868C239.204 346.242 238.304 346.463 237.426 346.639C236.25 346.875 235.06 347.005 233.877 347.165C232.869 347.303 231.862 347.417 230.854 347.547C229.954 347.661 229.465 348.173 229.427 349.081C229.267 352.424 229.29 355.752 229.61 359.095C229.778 360.805 229.29 362.446 228.633 364.048C227.901 365.85 226.199 366.269 224.68 366.636C222.184 367.246 219.635 367.804 217.009 367.33C216.75 367.285 216.467 367.384 216.2 367.43C215.017 367.636 214.383 367.086 214.452 365.873C214.49 365.216 214.559 364.56 214.628 363.774C213.643 363.72 212.743 363.606 211.85 363.644C209.148 363.743 206.453 363.888 203.751 364.025C201.21 364.155 198.775 364.743 196.394 365.666C194.814 366.277 193.02 366.392 191.517 367.117C189.67 368.01 188.006 367.33 186.296 367.033C184.479 366.712 182.678 366.246 180.9 365.72C178.534 365.01 176.687 363.537 175.443 361.415C175.031 360.713 174.863 359.805 174.817 358.98C174.771 358.141 175.488 357.683 176.236 357.53C179.488 356.889 182.755 356.332 186.006 355.676C188.464 355.179 190.891 354.706 192.883 352.859C194.18 351.653 195.867 350.875 197.378 349.905C197.829 349.615 198.264 349.302 198.813 348.928L198.745 348.951ZM238.082 291.013C239.853 290.662 241.082 289.792 242.219 288.724C243.341 287.67 244.539 286.716 245.715 285.724C247.837 283.923 249.974 282.137 252.08 280.32C253.34 279.229 254.545 278.084 255.782 276.977C256.087 276.702 256.446 276.489 256.767 276.237C257.194 275.901 257.82 275.626 257.988 275.191C258.301 274.367 258.522 273.428 258.461 272.558C258.362 271.085 258.049 269.62 257.751 268.169C257.049 264.727 256.332 261.277 255.553 257.85C254.843 254.721 254.034 251.615 253.271 248.501C252.866 246.852 252.378 245.211 252.057 243.539C251.294 239.517 250.615 235.472 249.905 231.434C249.836 231.045 249.79 230.656 249.745 230.259C249.493 228.099 249.264 225.939 248.981 223.779C248.76 222.039 248.47 220.306 248.218 218.574C247.997 217.055 247.798 215.528 247.547 214.009C247.379 212.994 247.089 211.994 246.928 210.979C246.486 208.155 246.104 205.324 245.654 202.507C245.219 199.798 244.745 197.088 244.226 194.394C243.868 192.509 243.356 190.654 243.028 188.761C242.807 187.487 241.876 186.204 242.967 184.846C239.418 183.09 237.159 180.098 234.968 177C234.426 177.404 233.93 177.778 233.434 178.152C232.938 178.526 232.511 178.534 232.106 177.999C231.434 177.099 230.686 176.259 230.068 175.328C229.236 174.076 228.504 172.764 227.725 171.481C227.603 172.382 227.71 173.222 227.778 174.053C228.099 178.068 228.694 182.045 229.626 185.96C230.32 188.876 231.236 191.746 231.755 194.692C232.358 198.134 232.656 201.637 233.037 205.118C233.289 207.453 233.503 209.789 233.655 212.132C233.793 214.269 233.762 216.421 233.892 218.558C234.136 222.634 234.464 226.702 234.709 230.778C234.854 233.228 234.945 235.678 235.006 238.136C235.052 239.891 234.999 241.647 235.014 243.402C235.052 247.05 235.06 250.699 235.182 254.347C235.304 257.85 235.51 261.354 235.77 264.849C235.968 267.467 236.35 270.077 236.579 272.695C236.876 276.069 237.113 279.458 237.365 282.831C237.487 284.449 237.586 286.067 237.724 287.678C237.815 288.777 237.953 289.868 238.075 291.021L238.082 291.013ZM227.504 347.86C226.84 348.081 226.298 348.257 225.771 348.44C224.26 348.982 222.787 349.661 221.237 350.043C218.436 350.722 215.597 350.501 212.758 350.15C211.231 349.959 209.674 350.05 208.148 349.882C206.331 349.684 204.538 349.318 202.721 349.066C202.095 348.982 201.355 348.829 200.828 349.066C200.111 349.394 199.569 350.096 198.905 350.577C196.936 352.004 194.974 353.439 192.952 354.798C191.906 355.5 190.814 356.286 189.631 356.599C187.441 357.172 185.159 357.408 182.922 357.82C181.068 358.164 179.228 358.568 177.381 358.927C176.42 359.11 176.29 359.469 176.687 360.408C178.022 363.606 181.236 363.964 183.877 365.102C185.151 365.651 186.67 365.682 188.09 365.857C188.731 365.941 189.441 365.934 190.059 365.75C192.791 364.934 195.47 363.957 198.218 363.186C202.378 362.018 206.675 361.949 210.949 361.698C213.17 361.568 215.376 362.094 217.643 361.415C220.024 360.705 222.634 360.736 224.703 359.064C224.817 358.973 224.985 358.95 225.13 358.912C225.901 358.729 226.71 359.469 226.595 360.255C226.443 361.301 225.535 361.461 224.779 361.652C222.008 362.377 219.215 363.033 216.421 363.682C215.75 363.835 215.826 364.27 215.872 364.72C215.91 365.163 215.979 365.506 216.605 365.521C219.23 365.582 221.818 365.3 224.382 364.712C225.443 364.468 226.29 363.819 226.733 362.926C227.153 362.087 227.321 361.056 227.351 360.11C227.466 356.653 227.473 353.195 227.527 349.73C227.534 349.165 227.527 348.593 227.527 347.852L227.504 347.86ZM235.808 354.149C235.808 354.149 235.854 354.416 235.915 354.645C236.281 356.111 236.281 356.088 237.754 356.126C239.387 356.164 241.021 356.172 242.646 356.332C244.15 356.477 245.562 356.546 247.111 356.202C249.165 355.752 250.516 354.706 251.668 353.103C252.531 351.897 253.439 350.821 253.576 349.18C253.721 347.471 254.607 345.975 255.95 344.776C256.828 343.998 257.568 343.067 258.423 342.25C260.674 340.082 262.926 337.922 265.216 335.801C266.452 334.656 267.597 333.45 268.177 331.855C268.345 331.389 268.345 330.756 268.169 330.305C267.643 328.954 266.948 327.664 266.399 326.313C266.124 325.642 265.788 325.672 265.216 325.871C264.017 326.291 262.811 326.81 261.567 326.97C258.873 327.321 256.148 327.413 253.454 327.741C251.813 327.947 250.21 328.42 248.585 328.741C248.05 328.847 247.943 329.191 247.882 329.641C247.669 331.114 247.432 332.58 247.203 334.053C246.73 337.052 246.264 340.052 245.761 343.044C245.463 344.815 245.432 346.646 244.028 348.104C242.593 349.585 241.418 351.317 239.365 352.081C238.754 352.31 238.212 352.729 237.64 353.073C237.067 353.409 236.495 353.76 235.815 354.164L235.808 354.149ZM219.001 156.88C217.971 155.087 216.94 153.286 215.902 151.492C214.177 148.508 212.46 145.523 210.72 142.554C210.125 141.539 209.43 140.578 208.819 139.57C208.438 138.929 207.98 138.853 207.385 139.227C205.965 140.112 204.599 141.089 203.11 141.837C201.767 142.509 201.408 143.646 201.263 144.913C201.08 146.531 201.05 148.172 200.897 149.798C200.637 152.499 200.324 155.194 200.042 157.896C199.859 159.628 199.683 161.353 199.493 163.086C199.37 164.192 199.218 165.291 199.05 166.65C205.537 162.582 212.162 159.506 219.001 156.88ZM199.264 62.3371C199.325 62.2837 199.393 62.2226 199.454 62.1692C199.141 61.551 198.867 60.9022 198.5 60.3222C197.485 58.7346 196.409 57.1852 195.409 55.59C195.028 54.9871 194.615 54.6589 193.867 54.7505C193.577 54.781 193.226 54.6207 192.952 54.4604C191.814 53.8117 191.791 52.4455 191.104 51.499C191.066 51.4456 191.44 50.9266 191.562 50.9495C193.318 51.2701 194.234 50.2244 195.081 48.9498C195.539 48.2629 195.44 47.8049 194.745 47.4004C194.692 47.4615 194.623 47.5225 194.57 47.5912C192.226 51.0793 191.746 50.7129 187.868 50.545C187.7 50.545 187.54 50.5679 187.258 50.5908C187.662 51.4074 188.029 52.1325 188.387 52.8576C189.196 54.5139 189.967 56.193 190.822 57.8263C191.12 58.3835 191.517 59.0628 192.043 59.2994C193.829 60.0856 195.692 60.6809 197.508 61.3907C198.119 61.6349 198.676 62.0166 199.256 62.3295L199.264 62.3371ZM199.92 128.137C200.569 132.281 201.202 136.296 201.836 140.295C203.019 139.478 204.125 138.738 205.209 137.96C206.927 136.731 206.881 136.754 205.85 135.021C204.675 133.052 203.66 130.976 202.439 129.037C201.233 127.129 201.401 127.48 199.928 128.137H199.92ZM266.208 343.922C266.17 343.96 266.109 343.983 266.208 343.922C268.124 341.426 270.039 338.93 271.94 336.419C272.024 336.312 272.093 336.106 272.047 336.007C271.566 335.076 271.055 334.16 270.619 333.351C267.971 335.938 265.361 338.487 262.621 341.166C263.819 342.082 264.987 342.983 266.216 343.922H266.208ZM247.768 174.901C248.821 176.099 250.592 176.526 252.012 175.969C253.332 175.458 254.202 174.405 254.187 173.435C252.088 173.916 249.974 174.397 247.776 174.901H247.768ZM262.063 170.398C259.568 172.008 258.713 174.473 258.026 177.045C258.346 177.076 258.652 177.168 258.942 177.122C259.186 177.084 259.522 176.931 259.606 176.74C260.316 175.084 260.995 173.405 261.659 171.726C261.827 171.298 261.934 170.84 262.063 170.398ZM192.776 52.6668V52.995C193.112 53.0484 193.539 53.2545 193.776 53.1171C194.814 52.5371 195.837 51.8959 196.798 51.1861C197.371 50.7663 197.134 50.3236 196.524 49.9267C195.714 51.4838 194.241 52.0715 192.776 52.6592V52.6668ZM255.126 175.694C254.385 176.236 253.645 176.786 252.813 177.389C255.11 177.77 255.164 177.725 255.126 175.694Z" fill="black"/>
<path d="M211.765 88.5761C212.086 88.7211 212.498 88.8662 212.864 89.0951C213.635 89.5683 214.36 90.1102 215.124 90.5911C216.459 91.4154 216.337 92.7969 216.498 94.0791C216.62 95.0332 216.627 96.0254 216.933 96.9184C217.223 97.7809 217.169 98.5594 216.994 99.399C216.917 99.7729 216.948 100.254 217.123 100.582C219.352 104.581 221.428 108.657 223.13 112.916C223.817 114.641 224.519 116.358 225.214 118.076C225.267 118.213 225.389 118.396 225.351 118.495C225.214 118.846 225.076 119.251 224.802 119.465C224.68 119.564 224.077 119.327 223.962 119.106C223.13 117.473 222.352 115.816 221.588 114.153C220.329 111.39 219.108 108.611 217.856 105.848C217.116 104.223 216.269 102.635 215.605 100.979C215.261 100.116 215.292 99.1089 215.032 98.2007C214.574 96.5749 214.383 94.9721 214.818 93.3006C214.902 92.9953 214.528 92.4534 214.223 92.1786C213.483 91.5222 212.658 90.9575 211.742 90.2553C211.811 90.6369 211.758 91.0338 211.918 91.1559C212.979 91.9344 212.384 92.8808 211.933 93.4685C210.399 95.4911 209.567 97.8267 208.56 100.101C207.858 101.689 207.01 103.208 206.239 104.765C206.11 105.032 206.079 105.352 205.965 105.627C205.675 106.291 204.973 106.581 204.354 106.23C203.828 105.925 203.835 105.413 204.087 104.917C205.079 102.918 206.049 100.903 207.079 98.9181C207.995 97.155 208.987 95.4224 209.926 93.6746C210.01 93.5143 210.002 93.2854 209.979 93.0945C209.735 91.0643 209.483 89.0264 209.216 86.9962C208.896 84.5385 208.56 82.0733 208.216 79.6156C208.064 78.5089 207.858 77.4098 207.72 76.3031C207.506 74.6392 206.224 73.647 205.278 72.4716C202.568 69.1362 198.867 67.2129 195.043 65.4803C194.989 65.4574 194.905 65.4498 194.875 65.4116C194.524 64.9002 194.173 64.3888 193.829 63.8698C194.348 63.8393 194.905 63.679 195.386 63.8088C196.073 63.992 196.722 64.3507 197.355 64.6789C198.561 65.3124 199.843 65.8466 200.927 66.6481C202.706 67.9608 204.4 69.411 206.041 70.8993C206.98 71.7542 207.789 72.7617 208.575 73.7615C208.888 74.1584 209.094 74.7079 209.193 75.2193C210.071 79.6614 210.911 84.1111 211.765 88.5685V88.5761Z" fill="black"/>
<path d="M151.187 38.9825C151.164 39.2344 151.21 39.4633 151.111 39.5778C150.882 39.8679 150.622 40.2495 150.309 40.3105C150.111 40.3563 149.653 39.9518 149.569 39.6694C149.157 38.1887 148.691 36.708 148.485 35.1892C147.821 30.4265 148.478 25.7707 150.195 21.3057C151.882 16.9323 154.896 13.6809 159.155 11.6735C160.102 11.2232 161.102 10.8416 162.117 10.5897C162.697 10.4447 163.376 10.5287 163.964 10.6813C164.223 10.75 164.452 11.2537 164.506 11.5972C164.529 11.7346 164.04 12.1391 163.819 12.1086C161.499 11.7957 159.766 13.0855 157.957 14.177C155.11 15.8943 153.431 18.5351 152.095 21.4965C150.63 24.7556 149.92 28.152 149.729 31.6935C149.622 33.6932 150.035 35.5937 150.798 37.4484C150.798 37.2575 150.805 37.0591 150.798 36.8683C150.569 33.4184 151.012 30.0601 152.569 26.9537C153.851 24.3892 155.576 22.1224 157.942 20.4356C158.339 20.1532 159.003 20.1456 159.537 20.1914C160.033 20.2295 160.697 20.3745 160.926 20.718C161.132 21.0233 160.796 21.6568 160.766 22.1453C160.628 24.2976 160.392 26.45 160.422 28.5947C160.453 30.77 161.399 32.7162 162.529 34.548C162.834 35.0365 163.223 35.5021 163.414 36.0287C163.529 36.3493 163.353 36.7767 163.307 37.1583C162.926 37.1125 162.392 37.2041 162.201 36.9904C161.392 36.0593 160.69 35.0441 159.964 34.0824C159.484 34.0824 158.949 34.113 158.43 34.0824C156.904 33.9832 155.66 34.5251 154.599 35.5937C154.377 35.8226 153.981 35.8761 153.668 36.0135C153.698 35.6471 153.599 35.2044 153.774 34.9373C154.736 33.449 156.934 32.6094 158.659 32.9986C158.911 33.0597 159.171 33.1131 159.659 33.2276C157.705 29.2511 158.392 25.3433 158.987 21.2904C158.56 21.6797 158.102 22.0384 157.713 22.4582C155.171 25.1906 153.362 28.3047 152.943 32.0827C152.729 34.0366 152.454 35.9906 152.882 37.9674C153.11 39.0512 152.332 39.4862 151.157 38.9672L151.187 38.9825Z" fill="black"/>
<path d="M186.478 150.149C185.333 149.241 185.615 148.318 185.921 147.486C186.592 145.684 187.233 143.853 188.119 142.166C189.951 138.678 191.943 135.266 193.874 131.831C194.049 131.518 194.156 131.099 194.416 130.938C194.713 130.755 195.156 130.816 195.538 130.771C195.56 131.122 195.721 131.549 195.583 131.824C194.469 133.991 193.255 136.113 192.156 138.296C191.294 140.013 190.515 141.777 189.745 143.532C188.997 145.242 188.333 146.982 187.569 148.676C187.325 149.211 186.867 149.638 186.478 150.165V150.149Z" fill="black"/>
<path d="M182.374 60.4748C182.816 59.162 183.145 57.8187 183.717 56.5975C184.953 53.9567 184.137 53.2927 182.419 51.8959C181.107 50.8274 180.74 49.5222 180.84 48.0492C181.007 45.5075 182.168 43.2865 183.435 41.1341C183.786 40.5388 184.213 39.9816 184.625 39.4168C184.923 39.0047 185.305 38.7376 185.77 39.1344C186.205 39.5084 185.892 39.8214 185.679 40.2335C184.931 41.6455 184.19 43.0728 183.602 44.5611C183.099 45.8357 182.771 47.1867 182.435 48.5224C182.229 49.3543 182.641 50.0031 183.312 50.4839C185.946 52.3462 186.419 54.636 185.06 57.3226C184.579 58.2614 184.274 59.2918 183.87 60.2764C183.77 60.513 183.61 60.7496 183.419 60.9175C183.259 61.0625 182.931 61.238 182.816 61.1617C182.626 61.0396 182.542 60.7419 182.389 60.4748H182.374Z" fill="black"/>
<path d="M147.661 64.6335C148.554 62.8246 149.424 61.1607 150.195 59.4587C150.805 58.1153 150.37 57.3063 148.928 56.8407C147.508 56.3828 146.722 55.0395 146.905 53.284C147.31 49.4983 148.684 46.079 150.958 43.0336C151.301 42.5757 151.66 41.8277 152.446 42.2398C152.515 42.278 152.141 43.2168 151.92 43.7129C151.248 45.2089 150.569 46.6896 149.859 48.1703C149.073 49.8112 148.432 51.4827 148.332 53.3374C148.279 54.2991 148.5 54.9631 149.386 55.4211C149.996 55.734 150.599 56.1233 151.088 56.5965C151.843 57.3368 152.057 58.2985 151.645 59.2831C151.164 60.428 150.622 61.55 150.057 62.6567C149.714 63.3283 149.325 63.9847 148.882 64.5877C148.493 65.1219 148.012 65.2517 147.661 64.6335Z" fill="black"/>
<path d="M170.711 55.3682C168.994 55.5895 167.177 54.9789 165.33 56.0475C166.086 56.5817 166.658 57.0702 167.314 57.4137C167.704 57.6121 168.154 57.7648 167.849 58.2074C167.658 58.4898 167.093 58.6883 166.742 58.6349C166.261 58.5662 165.742 58.3067 165.376 57.9708C164.574 57.2457 163.788 56.4825 163.117 55.6353C162.613 55.0094 162.987 54.3607 163.788 54.2996C166.658 54.0783 169.528 53.8493 172.398 53.6661C172.749 53.6432 173.283 53.7501 173.428 53.9791C173.573 54.2233 173.481 54.8034 173.268 55.0476C172.352 56.1238 171.367 57.1465 170.367 58.1387C170.161 58.3372 169.749 58.4211 169.451 58.3906C169.207 58.3677 168.864 58.1387 168.787 57.9174C168.726 57.7495 168.963 57.4137 169.154 57.2381C169.726 56.7038 170.344 56.2154 170.94 55.704C170.863 55.5895 170.795 55.4827 170.718 55.3682H170.711Z" fill="black"/>
<path d="M185.699 136.555C185.364 136.357 184.936 136.25 184.822 135.99C184.707 135.738 184.791 135.25 184.974 135.021C186.852 132.693 189.096 130.732 191.493 128.961C191.805 128.732 192.401 128.74 192.805 128.846C193.011 128.9 193.195 129.426 193.195 129.739C193.195 129.984 192.935 130.266 192.729 130.457C190.661 132.327 188.577 134.189 186.486 136.036C186.28 136.219 186.012 136.349 185.707 136.548L185.699 136.555Z" fill="black"/>
<path d="M193.356 64.3062C192.997 64.5581 192.608 65.0084 192.127 65.1534C189.929 65.8098 187.708 66.3746 185.502 66.9776C185.326 67.0234 185.143 67.1226 184.975 67.0997C184.708 67.0615 184.273 67.0081 184.227 66.8554C184.143 66.5959 184.212 66.1762 184.38 65.9777C184.601 65.7258 184.983 65.5579 185.326 65.4587C187.608 64.7718 189.891 64.0849 192.188 63.4437C192.661 63.314 193.172 63.375 193.356 64.2986V64.3062Z" fill="black"/>
<path d="M159.591 49.049C159.675 48.965 159.843 48.6369 160.087 48.5834C160.285 48.5376 160.621 48.7513 160.797 48.9345C161.392 49.568 161.972 50.2168 162.491 50.9037C162.667 51.1403 162.819 51.6822 162.705 51.7891C162.445 52.0409 161.957 52.3004 161.659 52.2165C160.507 51.9035 159.591 50.5144 159.591 49.049Z" fill="black"/>
<path d="M174.152 41.0585C173.465 41.0356 172.901 40.3258 172.924 39.5091C172.946 38.8222 173.267 38.4177 173.977 38.4024C174.648 38.3948 175.312 39.1656 175.297 39.8907C175.282 40.5471 174.763 41.0738 174.152 41.0509V41.0585Z" fill="black"/>
<path d="M157.521 41.0425C157.544 40.5158 157.705 39.9892 158.468 39.951C159.117 39.9205 159.857 40.7219 159.819 41.4012C159.788 41.9736 159.101 42.6835 158.59 42.6758C157.956 42.6682 157.506 42.0271 157.514 41.0348L157.521 41.0425Z" fill="black"/>
<path d="M227.505 347.867C227.505 348.608 227.505 349.172 227.505 349.745C227.459 353.202 227.444 356.667 227.329 360.125C227.299 361.079 227.123 362.102 226.711 362.941C226.268 363.834 225.421 364.483 224.36 364.727C221.803 365.315 219.216 365.597 216.583 365.536C215.957 365.521 215.888 365.178 215.85 364.735C215.812 364.277 215.735 363.85 216.399 363.697C219.193 363.056 221.986 362.392 224.757 361.667C225.505 361.468 226.421 361.316 226.573 360.27C226.688 359.484 225.879 358.743 225.108 358.927C224.963 358.965 224.795 358.988 224.681 359.079C222.612 360.751 220.002 360.713 217.621 361.43C215.354 362.109 213.156 361.583 210.927 361.712C206.653 361.964 202.348 362.033 198.196 363.201C195.456 363.972 192.769 364.949 190.037 365.765C189.426 365.948 188.716 365.948 188.068 365.872C186.648 365.697 185.137 365.666 183.855 365.117C181.214 363.979 178.001 363.613 176.665 360.423C176.276 359.484 176.398 359.133 177.359 358.942C179.206 358.583 181.053 358.179 182.901 357.835C185.137 357.423 187.419 357.186 189.609 356.614C190.793 356.301 191.884 355.515 192.93 354.813C194.945 353.454 196.914 352.019 198.883 350.592C199.547 350.111 200.081 349.409 200.806 349.081C201.333 348.844 202.073 348.989 202.699 349.081C204.508 349.325 206.309 349.691 208.126 349.897C209.652 350.065 211.217 349.974 212.736 350.165C215.575 350.523 218.414 350.745 221.216 350.058C222.765 349.684 224.238 348.997 225.749 348.455C226.276 348.264 226.818 348.096 227.482 347.875L227.505 347.867ZM197.257 357.324C197.334 357.438 197.402 357.553 197.479 357.667C197.73 357.324 198.12 357.011 198.204 356.629C198.326 356.095 197.929 355.79 197.379 355.828C195.54 355.965 193.693 356.11 191.861 356.309C191.663 356.332 191.365 356.69 191.357 356.904C191.357 357.095 191.647 357.408 191.869 357.476C192.235 357.583 192.647 357.56 193.044 357.545C194.456 357.484 195.86 357.4 197.272 357.324H197.257Z" fill="white"/>
<path d="M235.801 354.157C236.48 353.753 237.052 353.409 237.625 353.066C238.197 352.73 238.739 352.302 239.35 352.073C241.403 351.318 242.578 349.585 244.013 348.097C245.418 346.639 245.448 344.807 245.746 343.037C246.249 340.045 246.715 337.045 247.188 334.046C247.425 332.58 247.654 331.107 247.868 329.634C247.936 329.184 248.035 328.84 248.57 328.733C250.195 328.413 251.798 327.94 253.439 327.733C256.133 327.398 258.858 327.314 261.553 326.963C262.797 326.802 264.003 326.283 265.201 325.864C265.773 325.665 266.109 325.635 266.384 326.306C266.933 327.65 267.628 328.939 268.155 330.298C268.33 330.756 268.33 331.389 268.162 331.847C267.582 333.45 266.437 334.656 265.201 335.793C262.911 337.915 260.652 340.075 258.408 342.243C257.561 343.059 256.813 343.991 255.935 344.769C254.599 345.96 253.706 347.463 253.561 349.173C253.424 350.814 252.523 351.89 251.653 353.096C250.501 354.699 249.15 355.737 247.097 356.195C245.547 356.538 244.135 356.47 242.632 356.325C241.014 356.164 239.373 356.157 237.739 356.119C236.266 356.088 236.266 356.111 235.9 354.638C235.846 354.409 235.801 354.172 235.793 354.142L235.801 354.157Z" fill="white"/>
<path d="M218.994 156.887C212.156 159.513 205.531 162.588 199.043 166.657C199.211 165.298 199.364 164.199 199.486 163.092C199.676 161.367 199.852 159.635 200.035 157.902C200.325 155.2 200.631 152.506 200.89 149.804C201.043 148.178 201.073 146.537 201.256 144.919C201.401 143.652 201.76 142.515 203.103 141.843C204.592 141.095 205.958 140.119 207.378 139.233C207.973 138.859 208.431 138.935 208.813 139.577C209.423 140.584 210.118 141.546 210.713 142.561C212.453 145.53 214.171 148.514 215.895 151.499C216.933 153.292 217.964 155.093 218.994 156.887Z" fill="white"/>
<path d="M199.912 128.144C201.385 127.488 201.217 127.144 202.423 129.045C203.652 130.984 204.659 133.052 205.835 135.029C206.865 136.761 206.911 136.746 205.194 137.967C204.11 138.738 203.011 139.478 201.82 140.303C201.194 136.311 200.561 132.289 199.904 128.144H199.912Z" fill="white"/>
<path d="M266.199 343.929C264.978 342.991 263.803 342.098 262.604 341.174C265.352 338.495 267.955 335.946 270.603 333.358C271.038 334.167 271.55 335.083 272.031 336.015C272.076 336.106 272.008 336.32 271.924 336.427C270.016 338.93 268.108 341.426 266.192 343.929C266.161 343.975 266.093 343.99 266.192 343.929H266.199Z" fill="white"/>
<path d="M247.761 174.908C249.959 174.404 252.073 173.923 254.172 173.442C254.187 174.419 253.317 175.465 251.997 175.976C250.577 176.526 248.814 176.106 247.753 174.908H247.761Z" fill="white"/>
<path d="M262.056 170.405C261.926 170.848 261.82 171.306 261.652 171.733C260.988 173.412 260.316 175.084 259.598 176.748C259.515 176.939 259.179 177.091 258.934 177.129C258.652 177.175 258.339 177.084 258.019 177.053C258.705 174.481 259.56 172.016 262.056 170.405Z" fill="white"/>
<path d="M192.775 52.667C194.241 52.0793 195.714 51.4916 196.523 49.9346C197.126 50.3315 197.37 50.7665 196.798 51.1939C195.836 51.9037 194.821 52.5372 193.775 53.1249C193.538 53.2623 193.103 53.0486 192.768 53.0028V52.6746L192.775 52.667Z" fill="white"/>
<path d="M255.124 175.694C255.162 177.732 255.109 177.778 252.812 177.389C253.643 176.778 254.376 176.236 255.124 175.694Z" fill="white"/>
<path d="M197.255 357.323C195.843 357.399 194.439 357.483 193.027 357.544C192.638 357.559 192.218 357.582 191.851 357.475C191.63 357.414 191.332 357.094 191.34 356.903C191.34 356.689 191.645 356.331 191.844 356.308C193.683 356.109 195.523 355.972 197.362 355.827C197.912 355.781 198.308 356.086 198.186 356.628C198.102 357.01 197.713 357.323 197.461 357.666C197.385 357.552 197.316 357.437 197.24 357.323H197.255Z" fill="black"/>
<path d="M323.93 65.4844L318.5 64.6178L320.859 49.6075L311.527 60.794L308.919 60.3778L303.517 47.1696L301.174 61.8527L295.743 60.986L299.734 35.9784L304.521 36.7424L311.401 53.7766L323.099 39.7071L327.85 40.4654L323.93 65.4844Z" fill="black"/>
<path d="M334.934 70.622C329.249 68.1831 326.733 62.5769 329.043 57.1908C331.354 51.8048 337.15 49.7642 342.835 52.2031C348.521 54.642 351.003 60.234 348.693 65.6201C346.382 71.0061 340.619 73.0609 334.934 70.622ZM336.759 66.3664C339.353 67.4789 342.113 66.4585 343.439 63.3666C344.766 60.2746 343.603 57.5712 341.01 56.4588C338.416 55.3463 335.623 56.3524 334.297 59.4443C332.97 62.5363 334.166 65.2539 336.759 66.3664Z" fill="black"/>
<path d="M366.176 79.2715C365.904 79.6096 365.462 80.0434 365.139 80.3871L353.668 71.1548C352.571 73.3832 353.248 75.8317 355.559 77.6918C357.165 78.9847 358.706 79.4357 360.543 79.2886L360.84 83.7077C358.138 84.18 355.344 83.3241 352.61 81.1238C347.368 76.9046 346.612 70.8626 350.242 66.3534C353.894 61.8161 359.992 61.337 364.613 65.0571C369.066 68.6412 370.1 74.3959 366.176 79.2715ZM361.965 68.4053C359.964 66.7948 357.551 66.8498 355.676 68.5448L363.144 74.556C364.377 72.3901 363.938 69.9932 361.965 68.4053Z" fill="black"/>
<path d="M383.493 85.2779C386.358 88.8695 386.431 93.254 381.793 96.954L373.083 103.903L369.563 99.4909L377.595 93.0836C380.055 91.1208 380.284 89.0872 378.727 87.1358C377.035 85.0147 374.516 84.5254 371.716 86.7589L364.194 92.7601L360.674 88.3483L375.889 76.2105L379.251 80.4244L377.469 81.8457C379.718 81.9957 381.846 83.2134 383.493 85.2779Z" fill="black"/>
<path d="M378.447 114.319C375.767 108.743 377.558 102.865 382.841 100.326C388.123 97.7876 393.832 100.062 396.511 105.637C399.191 111.213 397.384 117.059 392.102 119.597C386.819 122.136 381.126 119.894 378.447 114.319ZM382.621 112.313C383.843 114.856 386.593 115.903 389.626 114.445C392.658 112.988 393.56 110.187 392.338 107.643C391.115 105.1 388.349 104.021 385.317 105.478C382.284 106.935 381.398 109.769 382.621 112.313Z" fill="black"/>
<path d="M389.256 137.584L413.986 132.13L415.248 137.854L390.518 143.307L389.256 137.584Z" fill="black"/>
<path d="M391.757 154.138C391.465 150.859 392.071 147.463 393.1 145.556L397.303 147.071C396.34 148.9 395.817 151.598 396.028 153.976C396.259 156.571 397.03 157.483 398.111 157.386C401.282 157.104 396.998 145.681 404.745 144.992C408.421 144.665 411.31 147.75 411.813 153.407C412.051 156.074 411.701 159.083 410.783 161.017L406.617 159.499C407.528 157.493 407.718 155.551 407.561 153.786C407.337 151.263 406.448 150.253 405.439 150.342C402.124 150.637 406.373 162.063 398.733 162.743C395.13 163.063 392.273 159.94 391.757 154.138Z" fill="black"/>
<path d="M391.803 173.719C392.381 167.56 396.946 163.447 402.781 163.995C408.616 164.543 412.335 169.434 411.757 175.594C411.178 181.753 406.617 185.83 400.782 185.282C394.947 184.734 391.224 179.879 391.803 173.719ZM396.413 174.152C396.149 176.962 397.967 179.276 401.316 179.591C404.666 179.906 406.883 177.97 407.146 175.16C407.41 172.351 405.596 170 402.247 169.686C398.897 169.371 396.677 171.343 396.413 174.152Z" fill="black"/>
<path d="M411.568 207.719L409.725 213.054L384.353 204.289L386.113 199.194L388.233 199.926C387.087 198.037 386.974 195.816 387.824 193.354C389.62 188.157 394.695 185.432 400.474 187.428C406.253 189.425 408.564 194.701 406.768 199.899C405.988 202.156 404.609 203.822 402.644 204.636L411.568 207.719ZM391.882 195.79C390.973 198.423 392.179 201.136 395.359 202.235C398.539 203.333 401.163 201.943 402.072 199.31C402.994 196.643 401.787 193.93 398.607 192.831C395.427 191.732 392.804 193.123 391.882 195.79Z" fill="black"/>
<path d="M395.536 223.605C392.321 228.592 388.148 229.99 383.192 226.794L373.858 220.775L376.721 216.336L378.758 217.65C377.836 215.807 378.144 213.595 379.693 211.193C382.163 207.362 385.762 206.454 388.589 208.278C391.478 210.14 392.171 213.471 388.955 218.457L386.524 222.228C388.561 223.541 390.531 223.09 392.178 220.536C393.296 218.803 393.875 216.636 393.697 214.843L398.109 215.277C398.229 217.895 397.223 220.991 395.536 223.605ZM382.12 214.437C381.101 216.018 380.948 217.857 382.085 219.365L383.757 220.443L385.855 217.19C387.287 214.971 386.917 213.742 385.822 213.036C384.636 212.272 383.199 212.765 382.12 214.437Z" fill="black"/>
<path d="M71.3032 61.2873L63.7473 56.186L65.8972 53.0018C67.5369 50.5731 70.1846 49.9565 72.4298 51.4723C74.6749 52.9881 75.0927 55.6744 73.453 58.1031L71.3032 61.2873ZM71.0929 59.5739L72.4702 57.5338C73.7309 55.6664 73.3957 53.6958 71.701 52.5517C70.0064 51.4075 68.0533 51.8332 66.7925 53.7006L65.4152 55.7407L71.0929 59.5739Z" fill="black"/>
<path d="M78.5367 46.1087C78.6158 46.1765 78.7261 46.288 78.8066 46.3742L75.1632 50.6272C76.1847 51.2965 77.4334 51.08 78.3231 50.0415C78.8484 49.4283 79.0813 48.736 78.9865 47.9859L80.0487 47.9871C80.1959 48.9363 79.8741 49.9125 79.1285 50.7829C77.6796 52.4742 75.596 52.6443 74.0333 51.3056C72.4804 49.9753 72.3202 47.9002 73.6166 46.3869C74.913 44.8736 76.9245 44.7276 78.5367 46.1087ZM74.4177 47.0732C73.6382 47.9832 73.6753 49.1811 74.4807 50.0426L77.3616 46.6797C76.3966 46.0245 75.2057 46.1534 74.4177 47.0732Z" fill="black"/>
<path d="M83.9167 45.6146C83.0993 46.418 82.0447 46.9614 81.3165 47.038L80.9942 45.9669C81.7043 45.8534 82.5831 45.4097 83.224 44.7798C84.0507 43.9672 84.1478 43.3787 83.737 42.9607C82.6506 41.8554 80.4793 45.8704 78.553 43.9105C77.6857 43.0281 77.891 41.6577 79.1542 40.4161C79.7951 39.7862 80.6839 39.2413 81.3851 39.1L81.6981 40.1802C80.9692 40.3305 80.3765 40.7122 79.8935 41.1869C79.1133 41.9537 79.0155 42.616 79.3989 43.0061C80.5401 44.1672 82.7298 40.1523 84.6104 42.0657C85.4869 42.9574 85.2264 44.3274 83.9167 45.6146Z" fill="black"/>
<path d="M82.5505 35.5364C82.1857 35.8512 81.6798 35.8232 81.3821 35.4781C81.0843 35.133 81.1222 34.6187 81.487 34.3039C81.8518 33.9891 82.3577 34.0171 82.6469 34.3523C82.9532 34.7073 82.9252 35.2131 82.5505 35.5364ZM87.4543 42.1767L82.945 36.9506L83.8916 36.1338L88.401 41.36L87.4543 42.1767Z" fill="black"/>
<path d="M90.827 30.7387L91.7854 30.0415L95.2943 34.8651C96.7271 36.8346 96.3777 38.4577 94.482 39.8367C93.4604 40.5799 92.2214 41.0464 91.2122 40.9431L91.1297 39.8113C91.9675 39.8782 92.9854 39.5726 93.8068 38.975C95.1233 38.0173 95.2793 36.9698 94.3599 35.706L94.0381 35.2636C93.975 36.1953 93.4552 37.0083 92.6548 37.5906C91.0434 38.7628 89.0249 38.5562 87.8527 36.9448C86.6805 35.3335 87.113 33.3599 88.7244 32.1877C89.5564 31.5825 90.5369 31.3363 91.4552 31.6023L90.827 30.7387ZM92.127 36.6216C93.2434 35.8095 93.4999 34.4795 92.7184 33.4052C91.9293 32.3204 90.6002 32.176 89.4838 32.9881C88.3569 33.8079 88.0851 35.1169 88.8743 36.2017C89.6557 37.2759 91.0001 37.4414 92.127 36.6216Z" fill="black"/>
<path d="M97.3199 26.6496C98.7898 25.8358 100.293 26.1049 101.278 27.8824L103.202 31.3576L102.108 31.9632L100.253 28.6133C99.597 27.4283 98.6828 27.1753 97.6459 27.7493C96.4837 28.3928 96.1165 29.5042 96.842 30.8145L98.5642 33.9251L97.4703 34.5307L94.1269 28.4918L95.1752 27.9114L95.6799 28.8229C95.7836 27.9616 96.3628 27.1795 97.3199 26.6496Z" fill="black"/>
<path d="M109.969 24.8844C110.007 24.9817 110.051 25.1322 110.081 25.2463L104.854 27.2576C105.435 28.3319 106.637 28.7347 107.913 28.2435C108.666 27.9535 109.2 27.455 109.473 26.75L110.407 27.2557C110.086 28.1609 109.339 28.867 108.269 29.2786C106.191 30.0784 104.277 29.2382 103.538 27.3177C102.803 25.4094 103.648 23.5073 105.508 22.7917C107.368 22.076 109.207 22.9032 109.969 24.8844ZM105.887 23.7762C104.768 24.2065 104.232 25.2782 104.531 26.4189L108.664 24.8286C108.126 23.7936 107.017 23.3412 105.887 23.7762Z" fill="black"/>
<path d="M112.673 21.7363C112.904 20.8449 113.636 20.2302 114.81 19.9334L115.107 21.1076C115.003 21.1205 114.914 21.1429 114.826 21.1652C113.525 21.494 112.918 22.4937 113.288 23.9584L114.131 27.2919L112.919 27.5983L111.227 20.9061L112.389 20.6125L112.673 21.7363Z" fill="black"/>
</svg>
