<svg xmlns="http://www.w3.org/2000/svg" xml:space="preserve" id="レイヤー_1" x="0" y="0" style="enable-background:new 0 0 270.3 147" version="1.1" viewBox="0 0 270.3 147"><style>.st0{enable-background:new}.st1{fill:none;stroke:#ddd}</style><g class="st0"><path d="M40.5 61.2h-9.4L8.9 34.9c-.8-1-1.3-1.7-1.5-2h-.2v28.3H.5V3.8h6.7v27h.2c.4-.6.9-1.2 1.5-2l21.5-25h8.4L14.1 31.3l26.4 29.9zM76.5 61.2H70v-6.4h-.2c-2.9 4.9-7.1 7.4-12.6 7.4-4.1 0-7.3-1.1-9.6-3.2-2.3-2.2-3.5-5-3.5-8.6 0-7.7 4.5-12.1 13.5-13.4L70 35.2c0-7-2.8-10.5-8.4-10.5-4.9 0-9.4 1.7-13.4 5V23c4-2.6 8.7-3.8 13.9-3.8 9.6 0 14.5 5.1 14.5 15.3v26.7zM70 40.5l-9.9 1.4c-3 .4-5.3 1.2-6.9 2.3-1.5 1.1-2.3 3-2.3 5.7 0 2 .7 3.6 2.1 4.9 1.4 1.3 3.3 1.9 5.7 1.9 3.3 0 5.9-1.1 8.1-3.4 2.1-2.3 3.2-5.2 3.2-8.7v-4.1zM122.9 61.2h-6.6V37.6c0-8.5-3.2-12.8-9.5-12.8-3.2 0-5.9 1.2-8.1 3.7-2.2 2.5-3.3 5.6-3.3 9.5v23.2h-6.6V.5h6.6V27h.2c3.1-5.2 7.6-7.8 13.5-7.8 9.2 0 13.9 5.6 13.9 16.7v25.3zM152.4 62.2c-6.1 0-10.9-1.9-14.5-5.7-3.6-3.8-5.4-8.9-5.4-15.2 0-6.9 1.9-12.3 5.6-16.1 3.8-3.9 8.8-5.8 15.3-5.8 6.1 0 10.9 1.9 14.3 5.6s5.1 9 5.1 15.7c0 6.5-1.8 11.8-5.5 15.7-3.7 3.8-8.6 5.8-14.9 5.8zm.5-37.4c-4.2 0-7.6 1.4-10 4.3s-3.7 6.8-3.7 11.9c0 4.9 1.2 8.7 3.7 11.5s5.8 4.2 10 4.2 7.5-1.4 9.8-4.1c2.3-2.7 3.4-6.7 3.4-11.7 0-5.1-1.1-9.1-3.4-11.9-2.3-2.8-5.5-4.2-9.8-4.2z" class="st1"/></g><g class="st0"><path d="M43.7 127.2H37V101H7.2v26.2H.5V69.8h6.7V95h29.7V69.8h6.7v57.4zM87.2 127.2h-6.6v-6.4h-.2c-2.9 4.9-7.1 7.4-12.6 7.4-4.1 0-7.3-1.1-9.6-3.2-2.3-2.2-3.5-5-3.5-8.6 0-7.7 4.5-12.1 13.5-13.4l12.3-1.7c0-7-2.8-10.5-8.4-10.5-4.9 0-9.4 1.7-13.4 5v-6.7c4-2.6 8.7-3.8 13.9-3.8 9.6 0 14.5 5.1 14.5 15.3v26.6zm-6.6-20.7-9.9 1.4c-3 .4-5.3 1.2-6.9 2.3-1.5 1.1-2.3 3-2.3 5.7 0 2 .7 3.6 2.1 4.9 1.4 1.3 3.3 1.9 5.7 1.9 3.3 0 5.9-1.1 8.1-3.4 2.1-2.3 3.2-5.2 3.2-8.7v-4.1zM132.2 86.2l-18.9 47.6c-3.4 8.5-8.1 12.7-14.2 12.7-1.7 0-3.1-.2-4.3-.5v-5.9c1.4.5 2.7.7 3.9.7 3.3 0 5.8-2 7.4-5.9l3.3-7.8-16-40.9h7.3l11.1 31.6c.1.4.4 1.4.8 3.1h.2c.1-.6.4-1.7.8-3l11.7-31.6h6.9zM168.6 127.2H162v-6.4h-.2c-2.9 4.9-7.1 7.4-12.6 7.4-4.1 0-7.3-1.1-9.6-3.2-2.3-2.2-3.5-5-3.5-8.6 0-7.7 4.5-12.1 13.5-13.4l12.3-1.7c0-7-2.8-10.5-8.4-10.5-4.9 0-9.4 1.7-13.4 5v-6.7c4-2.6 8.7-3.8 13.9-3.8 9.6 0 14.5 5.1 14.5 15.3v26.6zm-6.6-20.7-9.9 1.4c-3 .4-5.3 1.2-6.9 2.3-1.5 1.1-2.3 3-2.3 5.7 0 2 .7 3.6 2.1 4.9 1.4 1.3 3.3 1.9 5.7 1.9 3.3 0 5.9-1.1 8.1-3.4 2.1-2.3 3.2-5.2 3.2-8.7v-4.1zM178.5 125.7v-7c3.6 2.6 7.5 4 11.8 4 5.8 0 8.6-1.9 8.6-5.8 0-1.1-.2-2-.7-2.8-.5-.8-1.2-1.4-2-2-.8-.6-1.8-1.1-3-1.6-1.1-.5-2.4-1-3.7-1.5-1.8-.7-3.4-1.4-4.8-2.2s-2.5-1.6-3.4-2.5c-.9-.9-1.6-2-2.1-3.1-.5-1.2-.7-2.5-.7-4.1 0-1.9.4-3.6 1.3-5.1.9-1.5 2.1-2.7 3.5-3.7 1.5-1 3.1-1.8 5-2.3 1.9-.5 3.8-.8 5.8-.8 3.5 0 6.7.6 9.5 1.8v6.6c-3-2-6.5-3-10.4-3-1.2 0-2.3.1-3.3.4-1 .3-1.8.7-2.5 1.2s-1.3 1.1-1.6 1.8c-.4.7-.6 1.5-.6 2.3 0 1.1.2 2 .6 2.7.4.7 1 1.4 1.7 1.9.7.6 1.7 1.1 2.7 1.5 1.1.5 2.3.9 3.6 1.5 1.8.7 3.4 1.4 4.9 2.1s2.7 1.6 3.7 2.5c1 .9 1.8 2 2.3 3.2.5 1.2.8 2.6.8 4.3 0 2-.4 3.8-1.3 5.3s-2.1 2.7-3.6 3.7-3.2 1.7-5.2 2.2c-1.9.5-4 .7-6.1.7-4.1.3-7.7-.6-10.8-2.2zM249.8 127.2h-6.6v-23.6c0-8.5-3.2-12.8-9.5-12.8-3.2 0-5.9 1.2-8.1 3.7-2.2 2.5-3.3 5.6-3.3 9.5v23.2h-6.6V66.5h6.6V93h.2c3.1-5.2 7.6-7.8 13.5-7.8 9.2 0 13.9 5.6 13.9 16.7v25.3zM265.5 75.8c-1.2 0-2.2-.4-3-1.2-.8-.8-1.2-1.8-1.2-3s.4-2.2 1.2-3.1c.8-.8 1.8-1.2 3-1.2s2.2.4 3.1 1.2c.8.8 1.3 1.8 1.3 3.1 0 1.2-.4 2.2-1.3 3-.9.8-1.9 1.2-3.1 1.2zm3.2 51.4h-6.6v-41h6.6v41z" class="st1"/></g></svg>