<svg xmlns="http://www.w3.org/2000/svg" xml:space="preserve" id="レイヤー_1" x="0" y="0" style="enable-background:new 0 0 253.9 147" version="1.1" viewBox="0 0 253.9 147"><style>.st0{enable-background:new}.st1{fill:none;stroke:#ddd}</style><g class="st0"><path d="M44.9 3.8 26 40v21.2h-6.7V40.1L.8 3.8h7.6l12.9 25.9c.2.3.6 1.5 1.4 3.5h.1c.3-.9.8-2.1 1.5-3.5L37.8 3.8h7.1zM85.2 61.2h-6.6v-6.5h-.2c-2.7 5-6.9 7.4-12.7 7.4-9.8 0-14.7-5.8-14.7-17.5V20.2h6.5v23.5c0 8.6 3.3 13 9.9 13 3.2 0 5.8-1.2 7.9-3.5 2.1-2.4 3.1-5.5 3.1-9.3V20.2H85v41zM96 59.7v-7c3.6 2.6 7.5 4 11.8 4 5.8 0 8.6-1.9 8.6-5.8 0-1.1-.2-2-.7-2.8-.5-.8-1.2-1.4-2-2-.8-.6-1.8-1.1-3-1.6-1.1-.5-2.4-1-3.7-1.5-1.8-.7-3.4-1.4-4.8-2.2-1.4-.7-2.5-1.6-3.4-2.5-.9-.9-1.6-2-2.1-3.1-.5-1.2-.7-2.5-.7-4.1 0-1.9.4-3.6 1.3-5.1.9-1.5 2.1-2.7 3.5-3.7 1.5-1 3.1-1.8 5-2.3 1.9-.5 3.8-.8 5.8-.8 3.5 0 6.7.6 9.5 1.8v6.6c-3-2-6.5-3-10.4-3-1.2 0-2.3.1-3.3.4-1 .3-1.8.7-2.5 1.2s-1.3 1.1-1.6 1.8c-.4.7-.6 1.5-.6 2.3 0 1.1.2 2 .6 2.7.4.7 1 1.4 1.7 1.9.7.6 1.7 1.1 2.7 1.5 1.1.5 2.3.9 3.6 1.5 1.8.7 3.4 1.4 4.9 2.1s2.7 1.6 3.7 2.5c1 .9 1.8 2 2.3 3.2.5 1.2.8 2.6.8 4.3 0 2-.4 3.8-1.3 5.3s-2.1 2.7-3.6 3.7-3.2 1.7-5.2 2.2c-1.9.5-4 .7-6.1.7-4.1.3-7.7-.6-10.8-2.2zM166.4 61.2h-6.6v-6.5h-.2c-2.7 5-6.9 7.4-12.7 7.4-9.8 0-14.7-5.8-14.7-17.5V20.2h6.5v23.5c0 8.6 3.3 13 9.9 13 3.2 0 5.8-1.2 7.9-3.5 2.1-2.4 3.1-5.5 3.1-9.3V20.2h6.6v41zM213.7 61.2h-9.2l-18.1-19.7h-.2v19.7h-6.6V.5h6.6V39h.2l17.2-18.8h8.6l-19 19.8 20.5 21.2zM253.4 42.3h-28.9c.1 4.6 1.3 8.1 3.7 10.6s5.6 3.7 9.7 3.7c4.6 0 8.9-1.5 12.7-4.6v6.2c-3.6 2.6-8.4 3.9-14.3 3.9-5.8 0-10.3-1.9-13.7-5.6-3.3-3.7-5-9-5-15.7 0-6.4 1.8-11.6 5.4-15.6 3.6-4 8.1-6 13.5-6S246 21 249 24.4c2.9 3.5 4.4 8.3 4.4 14.5v3.4zm-6.7-5.5c0-3.8-.9-6.7-2.7-8.8-1.8-2.1-4.3-3.2-7.5-3.2-3.1 0-5.7 1.1-7.9 3.3-2.2 2.2-3.5 5.1-4 8.7h22.1z" class="st1"/></g><g class="st0"><path d="M30.8 128.2c-8.1 0-14.7-2.7-19.6-8-4.9-5.4-7.3-12.3-7.3-20.9 0-9.2 2.5-16.6 7.5-22.1S23.2 69 31.8 69c7.9 0 14.3 2.7 19.2 8 4.8 5.3 7.3 12.3 7.3 20.9 0 9.4-2.5 16.8-7.4 22.2s-11.8 8.1-20.1 8.1zm.4-53.3c-6 0-10.9 2.2-14.7 6.5-3.8 4.4-5.6 10.1-5.6 17.1 0 7.1 1.8 12.8 5.5 17.1 3.7 4.3 8.5 6.5 14.4 6.5 6.3 0 11.3-2.1 14.9-6.2 3.6-4.1 5.4-9.9 5.4-17.3 0-7.6-1.8-13.4-5.3-17.6-3.5-4-8.4-6.1-14.6-6.1zM103.6 123.9c0 15.1-7.2 22.6-21.6 22.6-5.1 0-9.5-1-13.3-2.9V137c4.6 2.6 9 3.8 13.2 3.8 10.1 0 15.1-5.4 15.1-16.1v-4.5h-.2c-3.1 5.2-7.8 7.8-14.1 7.8-5.1 0-9.2-1.8-12.3-5.5-3.1-3.6-4.7-8.5-4.7-14.7 0-7 1.7-12.5 5-16.6C74 87.1 78.6 85 84.5 85c5.5 0 9.6 2.2 12.3 6.6h.2v-5.7h6.6v38zM97 108.7v-6c0-3.3-1.1-6-3.3-8.4s-4.9-3.5-8.2-3.5c-4.1 0-7.2 1.5-9.5 4.4-2.3 3-3.4 7.1-3.4 12.4 0 4.6 1.1 8.2 3.3 11s5.1 4.1 8.7 4.1c3.7 0 6.7-1.3 9-3.9 2.2-2.7 3.4-6.1 3.4-10.1zM134 128.2c-6.1 0-10.9-1.9-14.5-5.7-3.6-3.8-5.4-8.9-5.4-15.2 0-6.9 1.9-12.3 5.6-16.1 3.8-3.9 8.8-5.8 15.3-5.8 6.1 0 10.9 1.9 14.3 5.6 3.4 3.8 5.1 9 5.1 15.7 0 6.5-1.8 11.8-5.5 15.7-3.7 3.8-8.7 5.8-14.9 5.8zm.5-37.4c-4.2 0-7.6 1.4-10 4.3-2.5 2.9-3.7 6.8-3.7 11.9 0 4.9 1.2 8.7 3.7 11.5s5.8 4.2 10 4.2 7.5-1.4 9.8-4.1c2.3-2.7 3.4-6.7 3.4-11.7 0-5.1-1.1-9.1-3.4-11.9-2.3-2.8-5.6-4.2-9.8-4.2zM162.4 125.7v-7c3.6 2.6 7.5 4 11.8 4 5.8 0 8.6-1.9 8.6-5.8 0-1.1-.2-2-.7-2.8-.5-.8-1.2-1.4-2-2-.8-.6-1.8-1.1-3-1.6-1.1-.5-2.4-1-3.7-1.5-1.8-.7-3.4-1.4-4.8-2.2-1.4-.7-2.5-1.6-3.4-2.5-.9-.9-1.6-2-2.1-3.1-.5-1.2-.7-2.5-.7-4.1 0-1.9.4-3.6 1.3-5.1.9-1.5 2.1-2.7 3.5-3.7 1.5-1 3.1-1.8 5-2.3 1.9-.5 3.8-.8 5.8-.8 3.5 0 6.7.6 9.5 1.8v6.6c-3-2-6.5-3-10.4-3-1.2 0-2.3.1-3.3.4-1 .3-1.8.7-2.5 1.2s-1.3 1.1-1.6 1.8-.6 1.5-.6 2.3c0 1.1.2 2 .6 2.7s1 1.4 1.7 1.9 1.7 1.1 2.7 1.5c1.1.5 2.3.9 3.6 1.5 1.8.7 3.4 1.4 4.9 2.1s2.7 1.6 3.7 2.5c1 .9 1.8 2 2.3 3.2s.8 2.6.8 4.3c0 2-.4 3.8-1.3 5.3s-2.1 2.7-3.6 3.7-3.2 1.7-5.2 2.2-4 .7-6.1.7c-4 .3-7.7-.6-10.8-2.2zM232.6 108.3h-28.9c.1 4.6 1.3 8.1 3.7 10.6s5.6 3.7 9.7 3.7c4.6 0 8.9-1.5 12.7-4.6v6.2c-3.6 2.6-8.4 3.9-14.3 3.9-5.8 0-10.3-1.9-13.7-5.6-3.3-3.7-5-9-5-15.7 0-6.4 1.8-11.6 5.4-15.6 3.6-4 8.1-6 13.5-6s9.5 1.7 12.5 5.2c2.9 3.5 4.4 8.3 4.4 14.5v3.4zm-6.7-5.5c0-3.8-.9-6.7-2.7-8.8-1.8-2.1-4.3-3.2-7.5-3.2-3.1 0-5.7 1.1-7.9 3.3-2.2 2.2-3.5 5.1-4 8.7h22.1z" class="st1"/></g></svg>