<svg xmlns="http://www.w3.org/2000/svg" xml:space="preserve" id="レイヤー_1" x="0" y="0" style="enable-background:new 0 0 572 549.1" version="1.1" viewBox="0 0 572 549.1"><style>.st0{enable-background:new}.st1{fill:#fff}</style><g id="member_tawa" transform="translate(-18402 11552.037)"><path id="長方形_1506" d="M18602-11464c-104.8 0-190 85.2-190 190v10c0 104.8 85.2 190 190 190h172c104.8 0 190-85.2 190-190v-10c0-104.8-85.2-190-190-190h-172m0-10h172c110.5 0 200 89.5 200 200v10c0 110.5-89.5 200-200 200h-172c-110.5 0-200-89.5-200-200v-10c0-110.5 89.5-200 200-200z"/><g id="グループ_54823"><path d="M18798.9-11514.6h-10.9v29.6h-7.3v-29.6h-10.7v-5.9h29v5.9zM18881.2-11459.2c0-.7.2-1.5.5-2.4-2.4.8-4.8.6-7.2-.7-2.3-1.3-3.8-2.9-4.5-5.1-.8-2.1-.6-4.2.5-6.2 1.4-2.4 3.3-3.8 5.8-4.1 2.5-.3 5.5.5 9 2.4l2.8 1.6.7-1.3c.6-1.1.8-2.1.6-3-.2-.9-.9-1.7-2.1-2.4-1-.6-2-.8-2.9-.6s-1.5.7-2 1.6l-6.2-3.4c.7-1.3 1.8-2.3 3.3-3 1.5-.7 3.1-.9 5-.7 1.9.2 3.7.8 5.6 1.8 2.8 1.6 4.7 3.5 5.6 5.9.9 2.4.6 4.8-.8 7.4l-5.6 10c-1.2 2.2-1.8 4-1.8 5.5l-.2.4-6.1-3.7zm-2.7-7.1c.9.5 1.9.8 2.9.8s1.9-.2 2.6-.7l2.2-4-2.3-1.3c-3.1-1.7-5.3-1.6-6.7.5l-.2.4c-.4.8-.5 1.6-.2 2.3.2.8.8 1.5 1.7 2zM18856.5-11482.9l8.2-15.1 6.5 2-14.2 23.3-5.7-1.7.1-17.4-9.6 14.4-5.6-1.7 1.3-27.2 6.5 2-1.6 17.1 9.5-14.6 4.9 1.5-.3 17.4zM18819-11484.8c-.3-.7-.5-1.5-.6-2.4-1.8 1.8-4.1 2.6-6.8 2.5-2.6-.1-4.7-1-6.3-2.6-1.6-1.6-2.4-3.5-2.2-5.8.1-2.8 1.3-4.9 3.4-6.3 2.2-1.4 5.2-2 9.1-1.8l3.2.2.1-1.5c.1-1.2-.2-2.2-.8-3-.6-.8-1.6-1.2-2.9-1.3-1.2-.1-2.1.2-2.8.7-.7.5-1.1 1.3-1.1 2.3l-7-.4c.1-1.5.6-2.9 1.6-4.2 1-1.3 2.4-2.2 4.2-2.8 1.8-.6 3.7-.9 5.9-.8 3.2.2 5.8 1.1 7.6 2.9 1.8 1.7 2.7 4.1 2.5 7l-.6 11.4c-.1 2.5.1 4.4.8 5.7v.4l-7.3-.2zm-5.6-5.2c1 .1 2-.1 2.9-.5.9-.4 1.6-1 2-1.8l.2-4.5-2.6-.1c-3.5-.2-5.5.9-5.8 3.4v.4c0 .9.2 1.6.8 2.2s1.5.8 2.5.9zM18446-11428.4c-.9-1.1-1.9-1.6-3.2-1.5-1.2.1-3.1.6-5.5 1.6-2.5 1-4.5 1.7-6.2 2-4.5.9-7.9 0-10.3-2.9-1.2-1.5-1.9-3.1-2.1-5-.1-1.8.3-3.7 1.3-5.7s2.5-3.7 4.4-5.4c1.9-1.6 4-2.7 6.1-3.3s4.1-.6 6 0 3.6 1.7 4.9 3.3l-5.6 4.7c-1-1.2-2.3-1.9-3.6-1.9-1.4 0-2.8.5-4.2 1.7-1.4 1.2-2.2 2.3-2.5 3.6-.3 1.2 0 2.3.8 3.2.7.9 1.8 1.3 3.2 1.1 1.4-.1 3.2-.7 5.3-1.6 4-1.7 7.3-2.5 10-2.3 2.7.2 4.9 1.4 6.6 3.5 2 2.4 2.6 5 2 7.8s-2.5 5.5-5.5 8.1c-2.1 1.8-4.3 3-6.7 3.7-2.4.7-4.6.7-6.6.2-2-.6-3.8-1.7-5.2-3.5l5.6-4.7c2.5 3 5.6 3 9.2 0 1.3-1.1 2.1-2.3 2.4-3.4.5-1.2.2-2.3-.6-3.3zM18475.1-11443.9c-.6-.3-1.3-.8-2-1.5-.2 2.5-1.4 4.6-3.6 6.3-2.1 1.6-4.2 2.2-6.5 2.1-2.3-.2-4.1-1.2-5.4-3-1.7-2.2-2.1-4.6-1.4-7s2.7-4.9 5.8-7.2l2.6-2-.9-1.2c-.7-1-1.6-1.6-2.5-1.8-.9-.2-2 .1-3 .9-.9.7-1.5 1.5-1.7 2.4-.2.9 0 1.7.6 2.5l-5.6 4.2c-.9-1.2-1.4-2.6-1.4-4.2s.4-3.2 1.4-4.9c.9-1.6 2.3-3.1 4-4.4 2.6-2 5.2-2.9 7.7-2.7 2.5.2 4.7 1.4 6.4 3.8l6.9 9.1c1.5 2 2.9 3.3 4.3 3.9l.2.3-5.9 4.4zm-7.6-.5c.8-.6 1.5-1.4 1.9-2.3.4-.9.6-1.8.4-2.7l-2.7-3.6-2.1 1.6c-2.8 2.1-3.6 4.2-2.3 6.3l.2.3c.5.7 1.2 1.1 2 1.2.9.2 1.7-.1 2.6-.8zM18536.2-11510.3c-.3-1-.1-2 .4-2.8.5-.8 1.4-1.4 2.6-1.7 1.2-.3 2.2-.2 3 .3.9.5 1.4 1.2 1.7 2.3.3 1 .1 2-.4 2.8-.5.8-1.4 1.4-2.5 1.7s-2.2.2-3-.3c-1-.5-1.5-1.2-1.8-2.3zm15.3 30.5-6.9 1.7-6.4-25.6 6.9-1.7 6.4 25.6zM18593.1-11498.8c0-2.6.5-5 1.5-7 1-2.1 2.5-3.6 4.4-4.8s4.1-1.7 6.6-1.7c3.6 0 6.5 1.1 8.7 3.3 2.3 2.2 3.5 5.1 3.8 8.9l.1 1.8c0 4.1-1.1 7.3-3.4 9.8-2.3 2.4-5.3 3.7-9.1 3.7s-6.8-1.2-9.1-3.7c-2.3-2.4-3.4-5.8-3.4-10v-.3zm7 .5c0 2.5.5 4.4 1.4 5.8.9 1.3 2.3 2 4.1 2 1.7 0 3-.7 4-2s1.4-3.4 1.4-6.3c0-2.5-.5-4.4-1.4-5.7-1-1.4-2.3-2-4.1-2-1.7 0-3.1.7-4 2-.9 1.3-1.4 3.4-1.4 6.2zM18571.2-11495.9l-2.3 2.8.8 8-7 .7-3.9-37.3 7-.7 2.2 20.7 1.2-1.9 5.9-8.6 8.4-.9-8.3 12 11.9 14.2-8.1.9-7.8-9.9zM18512.3-11491.4c.9-2.8 2.7-4.7 5.3-5.8 5.3-2.1 9.3-.1 11.8 6l6.3 15.7-6.5 2.6-6.3-15.5c-.6-1.4-1.3-2.3-2.2-2.7-.9-.4-2-.4-3.4.2-1.9.8-3 2.1-3.3 3.9l7 17.4-6.5 2.6-14-34.8 6.5-2.6 5.3 13zM18495.1-11461.3c1.1-.7 1.8-1.6 2-2.7.3-1 .1-2.1-.5-3.1l5.5-3.7c1 1.5 1.5 3.1 1.5 4.9 0 1.8-.4 3.5-1.3 5.1-.9 1.6-2.2 3-3.9 4.1-3.1 2.1-6.3 2.8-9.4 2-3.2-.8-5.9-2.9-8.3-6.4l-.3-.4c-2.3-3.4-3.2-6.7-2.8-9.9.4-3.2 2.2-5.9 5.4-8 2.7-1.8 5.5-2.5 8.2-2.1 2.7.4 4.9 2 6.7 4.5l-5.5 3.7c-.8-1.1-1.8-1.8-2.9-2.1-1.2-.3-2.3 0-3.4.7-1.4.9-2.1 2.1-2.1 3.6s.7 3.3 2.2 5.5l.4.6c1.5 2.3 3 3.6 4.3 4.2 1.4.7 2.8.4 4.2-.5z" class="st0"/><g class="st0"><path d="M18910.5-11444c.4-.4.5-.9.4-1.4-.1-.5-.4-1.2-1-2.1-.6-.9-.9-1.7-1.1-2.4-.4-1.3-.2-2.4.6-3.3.7-.8 1.6-1.1 2.6-1.1s2.1.5 3.1 1.4c.7.6 1.1 1.2 1.4 2 .3.7.4 1.4.3 2.1-.1.7-.4 1.4-.9 1.9l-1.6-1.5c.4-.5.6-1 .6-1.6-.1-.6-.4-1.1-1-1.6-.5-.5-1.1-.7-1.6-.8s-.9.2-1.3.6c-.3.3-.4.8-.3 1.3.1.5.4 1.2 1 2.1.5.9.9 1.7 1.1 2.4.2.7.2 1.3.1 1.9-.1.6-.4 1.1-.8 1.6-.7.8-1.6 1.1-2.6 1.1-1-.1-2.1-.6-3.1-1.5-.7-.6-1.2-1.3-1.6-2.1-.3-.8-.5-1.5-.4-2.3.1-.7.4-1.4.9-2l1.7 1.5c-.5.5-.7 1.1-.6 1.7.1.6.5 1.2 1.1 1.8.6.5 1.1.8 1.6.8.7.1 1.1-.1 1.4-.5zM18922.5-11444.7l-1.5 1.7 1.2 1.1-1.1 1.2-1.2-1.1-3.6 3.9c-.2.3-.4.5-.4.7 0 .2.1.4.4.7.2.2.4.3.6.4l-1.1 1.2c-.5-.2-.8-.5-1.2-.8-1.2-1.1-1.2-2.3 0-3.7l3.6-4-1.2-1 1.1-1.2 1.2 1 1.5-1.7 1.7 1.6zM18922.6-11428.7c.1-.2.2-.5.4-.8-1 .1-1.8-.2-2.6-.9-.7-.6-1.1-1.4-1.2-2.2-.1-.8.1-1.5.7-2.1.7-.8 1.5-1.1 2.4-1 .9.1 1.9.6 2.9 1.6l1 .9.4-.5c.3-.4.5-.8.5-1.2 0-.4-.2-.8-.6-1.2-.4-.3-.7-.5-1.1-.5-.4 0-.7.1-1 .4l-1.6-1.4c.3-.4.8-.6 1.4-.7.6-.1 1.2-.1 1.8.2.6.2 1.2.6 1.7 1 .8.7 1.3 1.5 1.4 2.4.1.9-.2 1.7-.8 2.4l-2.9 3.2c-.6.6-.9 1.2-1.1 1.8l-.1.1-1.6-1.5zm-.7-2.7c.3.3.7.5 1.1.6.4.1.8.1 1.2-.1l1.2-1.3-.9-.8c-.6-.5-1.1-.8-1.6-.9-.5-.1-.9.1-1.2.5-.3.3-.4.6-.4 1 .1.4.3.7.6 1zM18927.5-11424.2l5.3-5.9-1.1-1 1.1-1.2 1.1 1 .6-.6c.7-.8 1.5-1.2 2.3-1.2.8 0 1.6.3 2.4 1 .3.3.5.6.8.9l-1.2 1.2c-.1-.2-.3-.4-.6-.6-.8-.7-1.5-.6-2.2.1l-.6.6 1.4 1.3-1.1 1.2-1.4-1.3-5.3 5.9-1.5-1.4zM18933.6-11418.8l5.3-5.9-1.1-1 1.1-1.2 1.1 1 .6-.6c.7-.8 1.5-1.2 2.3-1.2.8 0 1.6.3 2.4 1 .3.3.5.6.8.9l-1.2 1.2c-.1-.2-.3-.4-.6-.6-.8-.7-1.5-.6-2.2.1l-.6.6 1.4 1.3-1.1 1.2-1.4-1.3-5.3 5.9-1.5-1.4z"/></g></g><g id="田和さん" transform="translate(18609.441 -11552.037)"><path id="パス_1123" d="M150 201.9c.4.1 6.1 3.1 6.1 3.1l5.1 1.1 3.8-4.2-12-3.9-3 3.9z" class="st1"/><path id="パス_1124" d="m63.7 53.1-4.3-6.8-1.7-14 6-18.7 7.4-8.2L78 2.7 93.2.6l13.5 4.1 10 10.3s4.9 12.1 4.7 12.3c.3 1.9.7 3.7 1.2 5.6V43l.6 10.1-3 11.9-8.3 10.3-3.8 1.4-13.4-2.3-5.4 12.8 22.2 8.9 6.1 4.8 16.2 25.3-27.9 33.1 3.9 28.6 11.8 8.1 2.6 5-53.3 16.2-21.9-.8-.7-12.1.4-8.9-11.3-38.7-11.9-2.7-9.5-5 6.7-18 5.9-21.2 14.2-17.3 7.9-6.6 7-1.3 7.6-5.2c4.5-4.1 7.4-8.9 8.2-14.3l-3.9-5.7-2.1 2-1.1 9.7L56 79.3c-11.5 1.8-18.9.8-24.4-1.3 4.7-.7 9.1-2.8 12.5-6.1l4.7-9.3 6.9-5.9 6.5-1.6c.8-.2 1.5-1 1.5-2z" class="st1"/><path id="パス_1125" d="M102.9 419v5.3c.1 6.9-.3 13.9-1.1 20.8-.3 3.4-.4 6.8-.7 10.2l-.9 11.4c-.2 2.3-.5 4.5-.5 6.8-.1 2.5.1 5 0 7.5-.1 2.3-.3 4.6-.4 6.9-.2 2.1-.3 4.2-.1 6.3.2 1.2.8 2.3 1.7 3 1.5 1 1.5 2.7 2.5 3.8.8.9 1.1 2.3 2 2.9 1 .4 2.2.6 3.3.3 1.4-.1 2.7-.5 4.1-.7 3.5-.5 5.2.9 6 3.8 1.3 3.8 1.3 7.9.2 11.8-.4.7-.9 1.4-1.4 2.1l-5.1 9c-.3.5-.8.9-1.4 1.1-4.1.6-7.7 2.7-11.4 4.1-1.4.5-2.8.8-4.1 1.4-3 1.5-4.3 4.2-5 7.3-.3 1.2-.6 2.4-1 3.6-.1.3-.4.6-.8.7-1.7.2-3.4.4-5.1.5-1.1.1-1.5-.5-1.5-1.6-.2-2.4-.4-4.8-.7-7.3 0-1.1-.6-2.2-1.4-3-.5-.4-.8-1.2-1.2-1.7-.5-.5-1.1-1-1.6-1.5-.2-.2-.4-.3-.6-.5-1.8-2.6-3.5-5.3-3.8-8.6 0-.2 0-.5-.1-.7-2.2-3.5-1.4-7.2-.6-10.8.4-2.1.9-4.2 1.6-6.3 1.2-3.5 1.9-7.3 4.6-10.1.2-.3.3-.6.3-.9.7-5.7 1.8-11.4 1.4-17.2-.3-3.4-.7-6.9-1.1-10.3-.8-6.2-1.7-12.4-2.4-18.6-.5-4.2-.8-8.3-1.1-12.5-.3-4.5-.4-9-.4-13.5 0-4.1.3-8.2.4-12.3 0-1-1-2-1.9-1.8-.3.1-.6.7-.6 1.1-.5 6.4-1.4 12.8-2.9 19.1-1.1 4.4-1.8 8.9-3 13.3-1 3.5-2.4 6.9-3.6 10.4-1.5 4.2-2.9 8.5-4.3 12.7-.9 2.8-1.9 5.6-2.8 8.4-.3.9-.5 1.9-.7 2.8-.1.6-.3 1.1-.5 1.6-1.6 1.9-1 3.9-.2 5.9 2 5.3 3.3 10.8 2.5 16.5-.8 5.3-1.7 10.7-2.6 16-.4 2.4-2.3 3.9-4.1 5.5-1.4 1.2-2.7 2.4-4.1 3.5-1.9 1.5-3.9 2.9-5.8 4.5-.4.3-.7.7-.9 1.2-.7 1.8-1.2 3.7-2 5.5-.6 1.4-1.4 2.8-2.3 4-.5.5-1.2.7-1.9.7-1.1 0-2.2-.1-3.2-.3-1.2-.1-2.6-2.1-2.6-3.7 0-2.4.1-4.8.3-7.3.2-2.7-.1-5.3-2.3-7.3-1-.9-1.8-1.8-2.5-2.9-.6-1.2-1-2.4-1.2-3.7-.2-2.2 0-4.4 0-6.7-.1-3.8.4-7.6 1.4-11.2.8-2.6 1.7-5.2 2.8-7.7.6-1.8 1.4-3.5 2.3-5.2 1.2-1.9 2.4-3.7 3.9-5.4.9-1.8 1.3-3.9 1.1-5.9-.2-.9-.2-1.8-.1-2.7.8-5.7 1.7-11.4 2.5-17.1.9-6.6 1.7-13.2 2.6-19.8.4-3.5.8-6.9 1.2-10.4s1.1-6.7 1.5-10.1c.2-1.4.3-2.8.5-4.3-3-.5-6-1.1-8.9-1.6-5.2-1-10.3-2.1-14.8-5.1-2-1.4-4.3-2.3-6.2-3.7-2.6-2-5.1-4.2-7.5-6.3-1.1-.9-2.1-1.9-3.1-2.9-1.7-1.7-1.2-3.8-.8-5.8 1-4.4 2.1-8.8 3.1-13.1.8-3.2 1.6-6.5 2.4-9.7 1-3.9 2-7.7 2.9-11.6 1-4.3 1.7-8.6 2.7-12.8s2.3-8.3 3.4-12.5l2.4-9.6c.5-2.2 1.1-4.5 1.6-6.8.5-2.5 1-5 1.5-7.6.4-2.2.9-4.4 1.3-6.5.5-2.6 1.1-5.3 1.7-7.9 1.7-6.7 3.5-13.3 5.4-19.9 1.4-4.9 3-9.8 4.5-14.6 1.6-5.3 3.4-10.5 4.9-15.8 1-3.2 1.7-6.4 2.5-9.7 1.1-4.3 2.1-8.6 3.3-12.8 1.2-4.2 2.6-8.2 3.7-12.4.2-1.7.1-3.4-.4-5-.6-2.8-1.4-5.6-2.2-8.3-.1-.4-.4-.7-.8-.9-3.4-1-6.9-1.7-10.2-3-2.9-1.1-5.7-2.7-6.4-6.3 0-.1-.1-.3-.2-.4-2.4-.8-1.8-2.9-1.7-4.6.1-3.2.4-6.4.5-9.6l.3-7.5c0-.5-.3-1-.7-1.3-3.3-2-6.7-3.8-10.1-5.7-1.2-.9-1.5-2.5-.8-3.7.7-1.3 1.3-2.7 1.9-4.1 1.2-2.8 2.2-5.7 3.4-8.5 2.1-5 3.6-10.3 4.4-15.7.6-3.5 2-6.7 4-9.6 2.3-3.7 4.8-7.3 7.5-10.7 2.4-3 5.2-5.6 7.9-8.3.3-.4.7-.6 1.2-.8.6.1 1.2.2 1.8.4-.3.4-.5.8-.8 1.2-1.4 1.6-2.8 3.1-4.1 4.7-2.7 3.4-5.1 7.1-8.1 10.3-2 2.1-3.5 4.5-4.5 7.2-.9 2.6-1.6 5.3-2.2 8-.9 3.6-1.6 7.3-2.6 10.9-.9 3.1-2.2 6.1-3.3 9.1-1 2.8-2 5.5-3.1 8.5 6 1.5 10.7 6.1 17.1 6.7-.4-2.6-.8-5.1-1.1-7.6-.3-2.8-.6-5.7-.6-8.5-.1-4.7 0-9.3.1-14 0-1.5.1-3 .3-4.6.1-.4.5-.8.7-1.2.3.4.9.8.9 1.2.2 3.4.1 6.8.3 10.1.4 5.7 1.1 11.4 1.6 17.1.4 4.5 1.9 8.6 3.6 12.8.9 2.2 1.4 4.5 2.1 6.7 1.2 3.7 2.4 7.4 3.4 11.1 1.1 3.8 2.1 7.7 3.1 11.6.8 2.5 1.4 5 1.7 7.6.2 2.7.4 5.4-.7 8.1-.5 1.1-.8 2.2.9 3 1.3.7 2 2.3 3.2 3.4 2.3 2.3 5.3 3.8 8.6 4 1.9.1 3.8-.2 5.6-.8 4.1-1.2 8.1-2.7 12-4.1 4.9-1.8 9.7-3.7 14.7-5.4 5.8-2 11.8-3.3 17.9-4 2.7-.3 5.3-.7 8-1.1.2 0 .6-.4.6-.5-.1-.3-.3-.8-.6-.9-.8-.3-1.7-.6-2.5-.8-3.4-.8-6.2-2.8-9.1-4.7-2-1.2-3.3-3.4-3.3-5.7-.1-2.5-.7-5-1-7.6-.4-4.2-.7-8.4-1.1-12.6-.1-1.6-.3-3.1-.6-4.7-.1-.3-.3-.6-.6-.7-1.2-.2-1.5-1.1-1.6-2.1-.6-3.7-1.2-7.3-1.8-10.9-.3-1.6-.8-3.3-1.2-4.9-1-3.8-2-7.5-3-11.2-.1-.4-.5-.8-.5-1.2 0-.5.2-1 .5-1.4.1-.1.9 0 1.1.3.7 1 1.3 2.1 1.8 3.2 2.1 6.1 4 12.3 6 18.4.3 1.1.5 2.1.9 3.2.1.3.5.6.8.9.3-.2.5-.5.8-.8 3.1-4.2 6-8.6 10.1-11.9 2.5-2 3.9-4.8 6.1-7 3.1-3.1 5.8-6.6 8.7-10-1.9-3-3.9-6.2-5.9-9.4-2.2-3.5-4.4-7.1-6.7-10.6-1.3-2.1-2.8-4.1-4.2-6.1-.2-.4-.2-1-.2-1.4.5 0 1.2-.2 1.5.1l5.7 6.6c1.2 1.4 2.4 2.8 3.4 4.3 1.9 2.7 3.8 5.5 5.6 8.3 1.3 2 2.3 4.1 3.5 6.1.7.9.6 2.2-.3 3-.1.1-.2.1-.3.2-1.3 1.1-2 2.6-2.9 3.8-1.8 2.3-3.5 4.5-5.3 6.7-.8 1-1.1 2.3-.7 3.5.8 4.3 1.2 8.7 1.8 13 .5 3.8 1.1 7.6 1.5 11.5.2 2-.1 4.1.2 6 .3 1 .8 2 1.5 2.8.3.2.6.3 1 .3 2.9-.8 5.8-1.6 8.7-2.5 2.3-.7 4.6-1.5 6.9-2.3 1-.2 1.9-.5 2.7-1.1 1.4-1.1 3.3.3 3.5 2 1.3 1.1 2.3 1.9 3.3 2.7.3.3.7.4 1.1.5 2.6.2 5.3.3 8 .4s3.6 2.2 2 4.6c2.7 0 2.9 2.6 4.2 4 .4.4.2 1.5.1 2.3-.1.9-.7 1.3-1.7.9-.2.5-.6 1.1-.4 1.5 1.2 2.9.9 5.6-1.5 7.7.1.2.2.3.3.4 2.1 1.5 2 4-.3 5-1.5.6-2.1 1.8-3.1 2.7-1 .8-2.1 1.3-3.3 1.7-.3.1-.9-.2-1.8-.5l2.8-2.3c-1.7-.6-3.2-1.2-4.7-1.7-1.2-.4-2.5-.6-3.2-1.9-.3-.5-1.1-.6-1.7-.9l-1.3 2.6c1.1.2 2.2.5 3.4.7h.7c.8.3 1.8.5 1.6 1.6s-1.1 1.1-2 1c-4.6-.5-9.2-1.6-13.5-3.2-1.6-.5-3.2-1.1-4.8-1.8-1.5-.7-2.7-.1-4.1.4-1.6.6-3.2 1.1-4.9 1.7 0 .9-.1 1.9 0 2.9.4 5.1.8 10.2 1.3 15.3.4 3.6 1 7.2 1.5 10.8.9 6.9 1.7 13.8 2.5 20.7.4 3.8.7 7.6 1.1 11.3.4 3.8.8 7.6 1.1 11.4.3 3.1.4 6.2.7 9.2.6 6.3 1.4 12.5 1.9 18.8.4 4.1.5 8.2.8 12.3.3 3.8.7 7.7 1.1 11.5.3 2.9.5 5.8.8 8.7.3 3.2.7 6.3 1.1 9.5.6 4.6 1.2 9.1 1.7 13.7.6 5.3 1 10.6 1.5 16 .4 4.4.7 8.8 1.2 13.2.4 3.7.7 7.4 1.2 11.1.6 3.8-1.2 6.4-4.1 8.2-5.8 3.5-11.7 6.7-17.6 10-.4.2-.9.3-1.4.4-3 .6-6.1 1.2-9.1 1.6-2.1.3-4.3.1-6.4.1-2.4.3-4.4.5-6.8.6zm-16.6-66.8h-.5c-.2.5-.3 1-.5 1.5l-1.5 8.7c-.8 5.3-1.7 10.7-2.5 16-.7 5-1.6 10.1-2 15.1-.4 4.1-1.3 8.2-1 12.4.2 2.4-.3 4.8-.3 7.2 0 4.6.2 9.2.3 13.8 0 1.7.2 3.4.2 5.1 0 1.5-.1 3 0 4.5.1 1.8.3 3.6.4 5.4s-.1 3.6.1 5.3c.5 4.7 1.3 9.5 1.8 14.3.7 6.1 1.3 12.2 1.9 18.3 0 .9-.1 1.8-.4 2.6-.2.5-.4 1-.6 1.6-.1.9.1 1.8.1 2.8v8.2c4.6-1.7 9.2-.6 13.8.9 0-.5.2-.8.1-1-.5-1.4-.7-2.9-.5-4.3.2-4.6.1-9.3.2-13.9s.5-9.3.7-14c.1-1 .1-2.1.3-3.1.4-3 .8-6.1 1.1-9.1.3-2.4.5-4.9.8-7.4.4-3.4.8-6.7 1.2-10.1.5-4.5.9-9.1 1.4-13.6.1-.7.1-1.1-.8-1.1-4.3-.5-7.8-3.3-11.8-4.5-.4-.3-.6-.7-.7-1.1-.1-2.5-.2-5-.1-7.5.1-3.8.5-7.5.6-11.3 0-5.5-.1-11-.3-16.5-.3-5.9-.7-11.8-1.1-17.8.1-2.4-.2-4.9-.4-7.4zm-42.1 59.2c-.3 3.6-.5 7-.8 10.4-.3 3.5-.5 7.1-.9 10.6-.7 5.5-1.5 11-2.3 16.5-.9 6.7-1.8 13.4-2.8 20-.6 4-1.3 8-2 11.9-.3 1.7.4 3.4 1.9 4.3 2.8 1.7 6.1 2.5 9.4 2.2 1.1-.1 2.2-1.4 2.1-2.1-.2-.9-.1-1.8.1-2.7.7-1.9 1.8-3.8 2.4-5.7.9-2.6 1.4-5.4 2.3-8.1 1.8-5.4 3.7-10.8 5.6-16.1.8-2.1 1.9-4.2 2.5-6.3.9-3.3 1.6-6.7 2.4-10.1.8-3.5 1.8-7.1 2.5-10.6 1-4.8 1.9-9.7 2.9-14.7-8.5.6-16.8 2.3-25.3.5zM123 142.2c-1.8 2-3.4 3.8-5 5.5-1 1.1-2.1 2-3 3-1.8 2.2-3.6 4.4-5.3 6.6-.8 1.1-1.8 2.2-1.8 3.4-.1 3.2.1 6.5.6 9.7.8 5.9 1.8 11.7 2.8 17.5.1.4.2.8.5 1.1.7.7 1.4 1.3 2.2 1.8 1.9 1.3 3.9 2.4 6 3.4 3.5 1.7 6.8 3.6 11 2.5 3.4-.9 6-6 4.3-9.1-.8-1.5-1.5-3.2-2.4-4.7-1.1-1.7-2.3-3.3-3.6-5.2-.1.5-.1.6-.1.8 0 1.1-.5 2.1-1.7 2.2-1.1.1-2-1.2-2-2.5s-.2-2.6-.2-3.8l-.9-17.4c-.2-3.4-.5-6.8-.8-10.2-.3-1.3-.4-2.8-.6-4.6zm13.8 40.4c2.5 4.8 3.5 9.7.6 14.9l10.8 3.2c1.4.4 4-1.6 4-3 0-.2 0-.4-.2-.6-1-.7-.5-1.4.1-2s1.1-1.2 1.6-1.7c1.4-1.3 1.5-1.7 0-2.9-1-.6-1.4-1.9-.9-3 .6-1.1 1.2-2.1 2-3.1.4.3.7.4.7.5.3 1.2 1.1 1 2.1.9 2.4-.4 4.9-.7 7.3-1.1 1.7-.2 3.4-.4 5.3-.6-1.3-1.5-2.4-3.1-4.6-1.7-.4.2-.8.2-1.3.2-4.3.3-8.6.7-12.9.9-2.1 0-4.1-.1-6.2-.3-.4-.1-.8-.4-.9-.9 0-.4.3-.8.6-1 1.2-.5 2.6-.9 3.8-1.4 2.2-.9 4.5-1.7 6.4-2.5-.4-.6-.8-1.2-1.3-1.8-.2-.3-.6-.4-.9-.4-1.1.2-2.1.5-3.1 1-4.3 1.9-8.6 4.2-13 6.4zm-93.1 1.8.3-.5c-.4-1.7-.7-3.4-1.2-5.1-.6-2.5-1.3-5.1-2-7.6-1-3.5-2.1-6.9-3.2-10.4-.4-1.1-.4-2.6-2.3-2.2-.3.1-.6-.2-1-.3l-5.6-1.8v2.9c-.1 5.1-.1 10.1-.2 15.2 0 2.9 1.1 5.2 3.9 6.2 3.8 1.4 7.5 2.4 11.3 3.6zm105.9-13.2c-2.1 2.9-5.6 2.6-8.3 3.8s-5.7 2-8.8 3.1c.7.3 1.1.3 1.2.6.6.7.9 1.7 2.1 1.2.9-.2 1.8-.5 2.6-1 3.4-2.2 7.1-4 11-5.2 1.2-.4 1.8-.9 1.6-2.3l-1.4-.2zm18.5 22v-3.1l-11.4-.8c.4.8.9 1.3.9 1.8-.1 1.6.8 1.4 1.9 1.5 2.8.1 5.6.4 8.6.6zM36 527.7c.9-.1 1.7-.3 2.6-.5.4-.2.7-.5.8-1-.1-.4-.4-.8-.8-.9-.9-.2-1.9-.2-2.8-.4-1.8-.5-3.5-1.1-5.3-1.6-.5 0-1.1 0-1.6.1.1.5.1 1.2.5 1.5 1.8 1.7 4.2 2.7 6.6 2.8zm131.5-328.2.1-.4c-.2-.1-.4-.2-.6-.2-3.1-1-6.2-1.8-9.2-3.1-2.1-.9-3.3-.1-4.8 1.3 4.9.9 9.6 2 14.5 2.4zM84.9 535.4v.2c1.8-.2 3.6-.4 5.4-.7.4-.1.7-.6 1.1-.9-.4-.3-.8-.8-1.1-.7-2.5.1-5.1.3-7.6.6-.4 0-.7.5-1 .8.3.3.7.7 1 .8.6-.1 1.4-.1 2.2-.1zm81.6-357.1c-.3-1.1-3.7-1.6-7.8-1.4l.4 1.4h7.4zm-4.1 9.1c4.9.4 4.9.4 5.4-.8l-5.4.8zm-5.2-6.8c-.9-1.1-1.5-1-3 .2l3-.2z"/><path id="パス_1126" d="M87.8 86.5c1.8-3.7 3.7-7.4 5.6-11.2-1.5-.5-3.1-1.1-4.6-1.6-.8-.2-1.4-.7-1.2-1.4.1-.3 1.1-.8 1.6-.7 2.3.5 4.5 1.1 6.7 1.6 4.2 1.1 8.4 2.6 12.8 2.4 1.4 0 2.6-.7 3.5-1.7 3.2-3.8 5.6-8.1 7.2-12.8 1.6-3.7 2.4-7.8 2.3-11.9-.1-.2-.1-.5 0-.7.2-.3.4-.7.7-1 .3.3.9.5.9.8.3 2.1.4 4.3.5 6.4-.1 1.2-.3 2.4-.7 3.6 0 .4 0 .7.2 1 1 1 1.1 2.5.2 3.6 1.2 1.9 1.2 3-.1 4.3-1 1-2.1 1.1-3.7.2-1.3 2.1-2.5 4.3-3.9 6.3-2.3 3.4-4 4.6-8.7 4.3-3.5-.3-7-1-10.4-2.1-.7-.2-1.2-.2-1.6.6L90.6 87c3.8 1.1 7.3 2.2 10.9 3.3 3.8 1.1 7.4 2.8 10.6 5.2.6.6 1 1.3 1.4 2.1-1.1.6-2.5.6-3.6 0l-12.6-5.4c-1.9-.9-3.9-1.6-6-2.2-3.6-.9-7.3-1.5-10.9-2.3-.6-.1-1.2-.2-1.8-.5-.4-.2-.7-.7-1-1.1.4-.3.9-.8 1.3-.7 3.1.5 6 .8 8.9 1.1zm35.3-20.6-.4-.7c-.3-.2-.6-.6-.9-.6-.2 0-.7.6-.7.7.2.4.5.7.9.9.3.1.7-.2 1.1-.3z"/><path id="パス_1127" d="M113.4 13.3c.4 2 .7 3.8 1 5.6.1.5.1 1 0 1.4-.1.4-.6.6-.9 1-.3-.3-.7-.5-.8-.9-.2-.7-.4-1.4-.4-2.1-.4-3.7-2-6.9-4-9.8-.9-1.4-2.1-2.9-4.1-3.3-.8-.1-1.4-1-2.1-1.4-3.2-1.6-6.6-1.9-10.1-1.7-4 0-8 .6-11.9 1.9-.7.3-1.4.4-2.1.4-.5-.1-1-.2-1.4-.4.3-.4.5-.9.9-1.1 1.2-.5 2.5-1 3.7-1.3C86.1.2 91.2-.3 96.3.2c2.9.4 5.7 1.3 8.2 2.6 3.5 1.8 6.6 4.2 9.1 7.2 2.8 3 5.1 6.5 6.6 10.3 1.5 3.7 2.3 7.6 2.5 11.6 0 .3 0 .7-.1 1-.1.3-.4.6-.6.6-.3 0-.6-.2-.7-.5-.2-.7-.3-1.4-.4-2.1-.6-4-1.7-7.8-3.4-11.4-1.2-2.2-2.6-4.3-4.1-6.2z"/><path id="パス_1128" d="M62.1 79.7c.5-.6 1.1-1.1 1.7-1.6 2.7-1.8 5.2-3.9 6.5-7 1-2.1 2-4.3 1.6-6.8-.4-2.3-1.2-4.2-3.4-5.3-.1-.1-.2-.1-.4-.2-.1-.1-.1-.2-.1-.3.9-1.3 1.8-1.2 3.9.6-.3-.6-.5-.8-.6-1.1-1.8-2.7-1.5-5.7-.7-8.6.2-.8.6-1.6.9-2.4.6-1.7 1.2-2.1 3-2.1.3-3.1 2.5-5.2 4.3-7.4.6-.7 1.3-1.3 2.1-1.7.4-.2 1.1 0 1.6 0-.1.5-.1 1.2-.5 1.5-2.3 2.2-4 5-5.1 8 .8.6 1.5 1.3 2.1 2 .4.5.7 1.4.5 1.8-.3.6-1.2.6-1.8 0-.5-.5-1.1-.9-1.8-1.2-.9-.6-2-.4-2.6.5l-.3.6c-.6 2.3-1.1 4.7.3 7 .7 1.4 2.4 2.1 3.9 1.5.9-.2 1.9-.7 2.3.7.2.9-.4 1.9-1.3 2.1h-.4c-1.7.2-3.3 0-4.9 0 2.7 5.5 0 12.4-3.7 16-1.5 1.4-3.2 2.6-5 3.6-.5.3-1.4.1-2.2.1l.1-.3z"/><path id="パス_1129" d="M58.4 191.8c.6-1.2 1.2-2.2 1.7-3.1 2.2-3.5 4.5-6.9 6.5-10.4 1.8-3.2 3.3-6.5 5.1-9.8 2.5-4.7 5-9.3 7.6-13.9 1.6-2.9 3.5-5.7 5.3-8.4.3-.4 1.1-.5 1.6-.8.1.6 0 1.1-.1 1.7-3.7 7.2-7.6 14.4-11.3 21.7-2.4 4.7-4.5 9.5-7.1 14.2-1.9 3.4-4.2 6.6-6.4 9.8-.5.4-1.1.6-1.7.5-.4-.3-.7-1-1.2-1.5z"/><path id="パス_1130" d="M55.7 192.9c.6 0 1.1 0 1.7.2 2.6 1.7 5.7 1.8 8.6 2.1.9.1 1.9-.6 2.7-1.1 7.6-4 15.4-7.4 23.4-10.4 2.8-1 5.7-2.1 8.5-3.2.6-.4 1.5-.1 1.8.5 0 .1.1.1.1.2.2.5-.4 1.3-.7 1.9-.3.3-.8.6-1.2.7-3.9 1.5-7.9 2.9-11.8 4.5-5.5 2.3-11 4.7-16.6 7-1.4.6-2.8 1.4-4.2 2-.4.2-.8.3-1.2.2-3.5-.5-7-.6-10-2.8-.5-.4-.9-.9-1.2-1.4l.1-.4z"/><path id="パス_1131" d="M56.6 33.7c.1-5 .6-9.7 2.7-14.1 1.1-2.5 2.4-5 3.9-7.4 1.9-2.7 4.3-5 7.1-6.7.4-.2 1-.1 1.4-.1-.1.5 0 1.2-.3 1.5-.9.9-1.9 1.6-2.8 2.5-.9.9-1.7 1.8-2.4 2.8-2.1 2.8-3.7 6-4.9 9.3-1 2.1-1.6 4.4-1.8 6.8-.2 3.5-.4 7-.3 10.5 0 1.4.7 2.7 1.1 4.1.3 1.3.5 2.6.8 3.9.2.5.4 1.1.6 1.6.7 1.4 1.4 2.7 2 4.1.1.4.1.9 0 1.3-.5-.2-1.1-.2-1.3-.5-1.7-2.8-3.6-5.5-4.2-8.8-.4-2.2-.9-4.4-1.2-6.7-.3-1.5-.3-2.9-.4-4.1z"/><path id="パス_1132" d="M61.3 56.4C55.9 56.7 51.1 60 49 65c-1.6 3.5-3.3 6.9-6 9.7-2.8 2.9-6.1 4.8-10.3 4.6-.6 0-1.1-.2-1.6-.4-.4-.3-.7-.8-.8-1.4.2-.4.6-.7 1-.8 5 .3 8.5-2.2 11.3-6 1.2-1.6 2.2-3.3 3-5.1 2.4-5.4 6.2-9.3 12.1-10.7 1.4-.2 2.9-.2 4.3 0 .4 0 1.2.6 1.2.9 0 .8-.7.8-1.4.7-.1-.1-.3-.1-.5-.1z"/><path id="パス_1133" d="M78.9 68.9c-1.5-1-.7-2.5-.9-3.8-.1-.8-.1-1.8.3-2.3.7-.8 1.7-1.3 2.7-1.4.8 0 1.8.9 2.2 1.7 1.1 1.5.9 3.5-.4 4.8 2 2.3 2 4.5-.4 6.7 1.7.4 2.9 1.9 2.9 3.7.2 1.4-.7 2.7-2 3.1-1 .4-2.1.3-3.1 0-1.2-.7-1.8-2.1-1.4-3.5.4-1 .9-1.9 1.6-2.7.2-.3.2-.9.1-1-2.5-1.8-2.7-2.4-1.6-5.3zm2.8 7.8-.5.3c0 .8-.7 1.9.7 2.3.3.1.8-.4 1.2-.7l-1.4-1.9zm.6-4.9c-.1-.8.4-1.9-1.1-1.6-.3.1-.9.5-.9.6.2 1 .8 1.4 2 1zm-1.1-8.1c-1.3.5-1.4 1.2-.9 1.9.1.2.6.1 1 .1 0-.6 0-1.3-.1-2z"/><path id="パス_1134" d="M92 20.6c.2 1 0 1.7-1.1 1.8-3.6.4-6.9 1.8-9.8 3.9-2.9 1.8-5.7 3.9-8.3 6.1-2.2 2.1-3.8 4.8-5.7 7.2-.3.4-.8.6-1.3.7-.2 0-.7-.7-.7-1.1 0-2.1 1.1-3.7 2.3-5.1 4.4-5 9.7-9 15.7-11.9 2.8-1.5 5.9-2.1 8.9-1.6z"/><path id="パス_1135" d="M67 62.7V61c.1-.3.4-.6.6-1 .3.3.9.5 1 .9.3 1.4.4 2.9.4 4.4-.3 7.3-5.7 13.3-12.9 14.5-1.2.2-2.5.2-3.7-.1-.6-.1-1-.9-1.5-1.4.6-.3 1.2-.9 1.7-.9 3.4.1 6.7-1.1 9.3-3.3 3.9-3 5-7 5.1-11.4z"/><path id="パス_1136" d="m90.7 15.8-.8 1.1h-.4c-5.8-2-12-1.8-17.7.4-2.4 1.1-4.7 2.3-6.9 3.7-.1 0-.1.2-.2.2-.6.1-1.2.2-1.8.4.2-.6.3-1.4.7-1.8 2.7-2.4 6-4.1 9.4-5.1 3.6-1 7.3-1.4 11-.9 2.3.2 4.7.4 6.7 2z"/><path id="パス_1137" d="M86.4 5.3c1.7-1.3 3.7-1 5.6-.8 4.9.7 8.3 3.6 11.1 7.5.9 1.3 1.8 2.6 2.7 4 .1.2.3.3.3.5 0 .8.3 2.1 0 2.2-1.2.6-1.4-.6-1.9-1.3-.7-1.1-1.4-2.2-2.2-3.3-2.2-2.6-4.1-5.5-7.6-6.7-2.1-.7-4.2-1.6-6.5-1.1-1 .4-1.3-.1-1.5-1z"/><path id="パス_1138" d="M103.3 65.3c-1.4-.2-2.8-.4-4.2-.8-.5-.2-1-.5-1.3-.9-.2-.4-.4-.9-.4-1.4.5-.2.9-.2 1.4-.2 3.7 1 7.7.8 11.3-.7.6-.3 1.1-.5 1.7-.6.6 0 1.1 0 1.6.2-.2.6-.3 1.4-.6 1.6-1.8.9-3.6 1.6-5.5 2.2-1.4.3-2.7.5-4 .6z"/><path id="パス_1139" d="m57.2 83.3 6.3-.7h.1c.7.2 2-.5 2.1.8s-1.3 1.2-2.2 1.4c-4.1.8-8.3 1.6-12.4 2.3-.5 0-1-.1-1.5-.3.2-.6.3-1.4.7-1.6 1.8-.7 3.7-1.2 5.5-1.8.5 0 1-.1 1.4-.1z"/><path id="パス_1140" d="M98.6 35.1c-.6.4-1 .7-1.3.8-2.6.3-5 1.4-6.8 3.2-.6.7-1.2 1.3-1.9 1.9-.5.3-1.1.4-1.7.5 0-.5.1-1.1.2-1.6 1.4-2.2 3.3-3.9 5.6-5.1 1.4-.9 3.2-1 4.8-.4.4.2.8.4 1.1.7z"/><path id="パス_1141" d="M108 31.4c.4-.5.8-.9 1.3-1.3 3-1.4 6.6-.8 9.1 1.5.2.2.4.4.5.7v1.6c-.5-.1-.9-.2-1.4-.4-1.9-1.5-3.9-2.4-6.4-2l-2.7.6-.4-.7z"/><path id="パス_1142" d="M106.6 68.7c-.6-.5-1.3-.9-1.5-1.4-.3-.9.5-1.2 1.3-1.4 1.1-.2 2.1-.6 3.2-.8.5 0 .9.1 1.3.2-.1.5-.1 1.3-.4 1.4-1.1.8-2.4 1.3-3.9 2z"/><path id="パス_1143" d="M71.3 82.7c.9.1 1.9.3 2.7.6.4.2.6.9.9 1.4-.4.2-.9.4-1.4.4-1.4-.1-2.7-.3-4-.5-.4-.1-.7-.5-1.1-.8.4-.4.8-.7 1.2-.9.6-.1 1.1-.1 1.7 0v-.2z"/><path id="パス_1144" d="M123.1 43.7c.1.6.2 1.3.2 1.9-.1.5-.4.9-.7 1.3-.3-.3-.9-.5-.9-.8-.2-1.7-.2-3.5-.2-5.2 0-.2.5-.6.9-.6.2 0 .6.4.6.7.2.9.2 1.8.3 2.7h-.2z"/><path id="パス_1145" d="M93.2 46.2c.4-.3.9-1.1 1.6-1.2 1.1-.2 1.7.8 1.8 1.8.1.9-.9 2-1.7 1.9-1.1-.2-1.7-.9-1.7-2.5z"/><path id="パス_1146" d="M115.5 42.4c-.5.5-1 .9-1.6 1.1-.7.2-2.1-1.1-1.8-1.8.3-.7.9-1.4 1.6-1.7 1-.2 1.8.8 1.8 2.4z"/><path id="パス_1147" d="M111 57.6c-.5-.5-1-.7-1.1-1-.2-.4-.1-.8.1-1.2.8-.7 1.6-1.2 2.5-1.7.2-.1.8.4 1.1.7l-2.6 3.2z"/><path id="パス_1148" d="M91.5 53.1c-.5.5-.9.9-1.2.9-.4-.1-.7-.5-.8-.9 0-.3.5-.8.8-.8s.7.4 1.2.8z"/><path id="パス_1149" d="M86.3 352.2c.2 2.5.5 5 .6 7.5.4 5.9.8 11.8 1.1 17.8.2 5.5.4 11 .3 16.5 0 3.8-.4 7.5-.6 11.3-.1 2.5 0 5 .1 7.5 0 .5.3.9.7 1.1 4.1 1.2 7.5 4 11.8 4.5.8.1.8.5.8 1.1-.5 4.5-.9 9.1-1.4 13.6-.4 3.4-.8 6.7-1.2 10.1-.3 2.4-.5 4.9-.8 7.4-.4 3-.8 6.1-1.1 9.1-.1 1-.2 2.1-.3 3.1-.3 4.7-.6 9.3-.7 14s-.1 9.3-.2 13.9c-.2 1.5 0 2.9.5 4.3.1.2 0 .5-.1 1-4.6-1.5-9.2-2.6-13.8-.9v-8.2c0-.9-.1-1.9-.1-2.8.2-.5.3-1.1.6-1.6.3-.9.4-1.7.4-2.6-.6-6.1-1.2-12.2-1.9-18.3-.5-4.7-1.3-9.5-1.8-14.3-.2-1.8-.1-3.6-.1-5.3s-.3-3.6-.4-5.4c-.1-1.5 0-3 0-4.5 0-1.7-.2-3.4-.2-5.1-.1-4.6-.3-9.2-.3-13.8 0-2.4.5-4.8.3-7.2-.3-4.2.6-8.3 1-12.4.5-5.1 1.3-10.1 2-15.1.8-5.4 1.6-10.7 2.5-16l1.5-8.7c.1-.5.3-1 .5-1.5l.3-.1z" class="st1"/><path id="パス_1150" d="M44.2 411.5c8.4 1.8 16.8.1 25.5-.5-1 5-1.9 9.9-2.9 14.7-.7 3.6-1.7 7.1-2.5 10.6-.8 3.4-1.4 6.8-2.4 10.1-.6 2.2-1.8 4.2-2.5 6.3-1.9 5.4-3.8 10.7-5.6 16.1-.9 2.6-1.4 5.4-2.3 8.1-.7 2-1.7 3.8-2.4 5.7-.2.9-.2 1.8-.1 2.7.1.7-1.1 2-2.1 2.1-3.3.3-6.6-.4-9.4-2.2-1.5-.9-2.3-2.6-1.9-4.3.6-4 1.4-8 2-11.9 1-6.7 1.9-13.4 2.8-20 .8-5.5 1.6-11 2.3-16.5.4-3.5.6-7.1.9-10.6.1-3.4.4-6.8.6-10.4z" class="st1"/><path id="パス_1151" d="M123 142.2c.2 1.8.3 3.3.4 4.7.3 3.4.6 6.8.8 10.2l.9 17.4c.1 1.3.2 2.6.2 3.8s1 2.6 2 2.5c1.2-.1 1.7-1.1 1.7-2.2 0-.2 0-.4.1-.8 1.3 1.9 2.6 3.5 3.6 5.2.9 1.5 1.6 3.1 2.4 4.7 1.7 3.1-.9 8.3-4.3 9.1-4.2 1.1-7.6-.9-11-2.5-2-1-4-2.2-6-3.4-.8-.5-1.5-1.1-2.2-1.8-.3-.3-.5-.7-.5-1.1-.9-5.8-2-11.7-2.8-17.5-.4-3.2-.6-6.4-.6-9.7 0-1.1 1.1-2.3 1.8-3.4 1.7-2.3 3.5-4.5 5.3-6.6.9-1.1 2-2 3-3 1.8-1.8 3.4-3.6 5.2-5.6z" class="st1"/><path id="パス_1152" d="M136.8 182.6c4.4-2.2 8.7-4.4 13-6.6 1-.4 2-.8 3.1-1 .4 0 .7.1.9.4.5.6.9 1.2 1.3 1.8-1.9.7-4.2 1.6-6.4 2.5-1.3.5-2.6.9-3.8 1.4-.4.2-.6.6-.6 1 .1.4.5.7.9.9 2.1.2 4.1.3 6.2.3 4.3-.2 8.6-.6 12.9-.9.4 0 .9 0 1.3-.2 2.2-1.4 3.2.3 4.6 1.7-1.9.2-3.6.4-5.3.6-2.4.3-4.9.6-7.3 1.1-.9.2-1.7.3-2.1-.9 0-.1-.3-.2-.7-.5-.7 1-1.4 2-2 3.1-.5 1.1-.1 2.4.9 3 1.5 1.2 1.4 1.6 0 2.9-.6.5-1.1 1.1-1.6 1.7s-1.1 1.3-.1 2c.1.2.2.4.2.6 0 1.4-2.6 3.4-4 3l-10.8-3.2c3-5.1 2-9.9-.6-14.7z" class="st1"/><path id="パス_1153" d="M43.7 184.4c-3.7-1.1-7.5-2.2-11.2-3.5-2.9-1-3.9-3.3-3.9-6.2 0-5.1.1-10.1.2-15.2v-2.9l5.6 1.8c.3.1.7.3 1 .3 1.9-.4 1.9 1.2 2.3 2.2 1.1 3.4 2.2 6.9 3.2 10.4.7 2.5 1.4 5 2 7.6l1.2 5.1-.4.4z" class="st1"/><path id="パス_1154" d="m149.6 171.2 1.5.3c.2 1.4-.4 1.9-1.6 2.3-3.9 1.2-7.6 3-11 5.2-.8.4-1.7.7-2.6 1-1.2.4-1.5-.5-2.1-1.2-.2-.2-.6-.3-1.2-.6 3.2-1.1 6.1-1.9 8.8-3.1s6.1-1.1 8.2-3.9z" class="st1"/><path id="パス_1155" d="M168.1 193.2c-3-.2-5.9-.5-8.7-.6-1.1 0-2 .1-1.9-1.5 0-.5-.5-1-.9-1.8l11.4.8v3.1z" class="st1"/><path id="パス_1156" d="M36 527.7c-2.4-.1-4.8-1.1-6.6-2.8-.3-.3-.3-1-.5-1.5.5-.1 1.1-.2 1.6-.1 1.8.5 3.5 1.1 5.3 1.6.9.2 1.9.2 2.8.4.4.1.8.6.8.9-.1.4-.4.8-.8 1-.8.2-1.7.4-2.6.5z" class="st1"/><path id="パス_1157" d="M167.5 199.4c-4.9-.5-9.7-1.3-14.5-2.4 1.5-1.4 2.7-2.2 4.8-1.3 3 1.3 6.1 2.1 9.2 3.1.2.1.4.2.6.2l-.1.4z" class="st1"/><path id="パス_1158" d="M84.9 535.4c-.8.1-1.5 0-2.3 0-.4-.1-.7-.5-1-.8.3-.3.6-.7 1-.8 2.5-.3 5.1-.5 7.6-.6.4 0 .8.5 1.1.7-.4.3-.7.9-1.1.9-1.8.3-3.6.5-5.4.7l.1-.1z" class="st1"/><path id="パス_1159" d="M166.5 178.3h-7.4l-.4-1.4c4.1-.2 7.5.3 7.8 1.4z" class="st1"/><path id="パス_1160" d="m162.4 187.4 5.4-.8c-.5 1.1-.5 1.1-5.4.8z" class="st1"/><path id="パス_1161" d="m157.2 180.6-3 .2c1.5-1.2 2.1-1.3 3-.2z" class="st1"/><path id="パス_1162" d="M123.1 65.9c-.4.1-.8.4-1.1.3-.4-.2-.7-.5-.9-.9 0-.1.5-.7.7-.7.3 0 .6.4.9.6l.4.7z" class="st1"/><path id="パス_1163" d="m81.7 76.7 1.3 2c-.4.2-.9.8-1.2.7-1.3-.4-.6-1.5-.7-2.3l.6-.4z" class="st1"/><path id="パス_1164" d="M82.3 71.8c-1.2.4-1.8.1-2-1 0-.2.5-.5.9-.6 1.5-.3.9.8 1.1 1.6z" class="st1"/><path id="パス_1165" d="M81.2 63.7c0 .7 0 1.3.1 2-.3 0-.8.1-1-.1-.4-.7-.3-1.3.9-1.9z" class="st1"/></g></g></svg>