<svg xmlns="http://www.w3.org/2000/svg" xml:space="preserve" id="レイヤー_1" x="0" y="0" style="enable-background:new 0 0 471.6 585.2" version="1.1" viewBox="0 0 471.6 585.2"><style>.st1{fill:#fff}.st2{enable-background:new}</style><path d="M214.5 321.8 0 429.1V0l214.5 107.3L429.1 0v429.1L214.5 321.8z" style="fill:none" transform="translate(0 75.705)"/><path d="M419.1 488.605v-396.7l-204.6 102.2L10 91.905v396.7l204.5-102.3 204.6 102.3m10 16.2-214.6-107.3L0 504.805v-429.1l214.5 107.3 214.6-107.3v429.1z"/><path d="M198.912 502.7c-.1.6 1.4 15.5 1.4 15.5l.8 5.9-5 4.3-.2 8.7-1.3 8 .6 12.3 3.7 13.1 1.2 5.1 4.5 1.9 16.7 2.8s21.9 3.6 22 3.6 5.7 1.5 5.7 1.5l24.6-5.9 6.7-1.7 8.4-7.1-2.5-11.6-5.9-2.8-11.6-.2-10.5-6.5 1.5-5.4-9.6-6.1-6.3-.8-4.2-6.5-10.3-2-4.5-.1.6-20.6-26.5-5.4zM241.712 267.8l17-4.9 2.3-1.2-3.5-26.3-6.2-21.2-6.5-13.7-.1-32.6-3.8-27.2-5.7-15.5-5.8-9.8-1.9-4.4 5.6-14.4 9.2 2.5 6.7-4.8 3.4-3.8 5.3-11.1.9-4.9 2.3-1.6 5.3-12.7 1.5-9.8-3.5-12.4-7.8-11.8-19.4-6.9-23.8 3.7-8.2 2.5-11.7 21.9-.8 13.6 6 16.7.4 2.9 4.1-1.1-.3 6.6 5-1.3-4.2 11.8-14.4 3-1.7 1.9-5.1 32.7 34.9 119.3 17 15.4 7.5-1.1z" class="st1"/><path d="M236.812 547.2c-2.9 2.6-6.2 3.7-9.5 4.6-.4.1-1-.3-1.5-.5.2-.5.3-1.3.7-1.5 1.1-.6 2.4-.9 3.5-1.5l4.5-2.1c.8-.3 1.6-.5 2.5-.7.2-1.2.5-2.7.8-4.6-1.4.7-2.5 1.1-3.5 1.7s-1.6.9-2.3-.4c-.6-1.1-1.6-2-2.3-3-.6-.8-1-1.7-1.3-2.7-.1-.6.1-1.3.6-1.8 1.8-1.4 3.7-2.7 6.1-2.7h4.2c-1.5-2.3-4.4-3.2-7-2.3-.7.1-1.5 0-2.1-.2-.5-.1-1-.3-1.5-.4-1.8-.5-2.9.6-4.1 1.7-.7.5-1.5 1-2.4 1.3-.9.4-1.3 1.1-.7 2 1.8 2.5 3.5 5.1 5.3 7.6.7 1 .2 3.1-1.1 3.4-2.3.5-4.7.8-7.1 1-.4 0-1.2-.7-1.2-.9.1-.6.5-1.1 1-1.4 1.3-.3 2.6-.6 3.9-.7.5-.1 1-.1 1.8-.2-1-1.8-2-3.4-2.8-5.1s-2.1-3.2-2-5.3c0-.9.4-1.8 1.2-2.4 1.2-.9 2.4-1.8 3.7-2.6.5-.4.7-.6.5-1.3-.3-1-.3-2-.3-3.1V512c-4.8.3-9.8.6-14.3-1.9l-.3.3c.2 1.3.3 2.6.5 4 .6 3.4 1.2 6.8 1.7 10.2.1 1.2.1 2.4-.2 3.5-.1.5-.8.9-1.2 1.4-.4-.4-.9-.8-1.1-1.3-.2-.9-.4-1.9-.5-2.8-.4-3.9-.9-7.7-1.3-11.6-.2-1.4 0-3.2-.7-4.2s-2.5-1.3-3.8-1.9c-.8-.3-1.7-.6-2.6-.8.7 4.5 1.4 8.7 2 12.9.2 1.3 0 2.6.1 3.8 0 .6.2 1.1.5 1.5.6.8 1.4 1.3 1.9 2.1.5.7.8 1.5-.1 2.1s-1.5.2-2-.5c-.8-1.2-1.7-2.4-2.6-3.7-1.3 1.6-2.5 3.1-3.7 4.6-.2.3 0 1.1.2 1.5.9 2.3 1.2 4.7.9 7.1-.1.7-.3 1.4-.8 1.9-.9 1-1.4 2.4-1.2 3.8.3 3.5.7 7.1 1 10.6.1 1.4.1 2.7 1.2 3.8.6.6 1.3 1.2 1.9 1.9.2-.2.2-.3.2-.3.1-4 .2-8 .2-12.1 0-.5-.6-1-.8-1.6-1-3.4-1.1-6.8.7-10 .7-1.4 1.6-2.7 2.6-3.9.8-.6 1.7-1.1 2.6-1.4-.1-1.3 1-2.1 2.1-3 .2-.2 1-.1 1.1 0 .2.4.3.9.2 1.3-.7.8-1.4 1.6-2.1 2.3l7.5 9.9c.4.5 1 .9 1.2 1.5.1.6.2 1.3.1 2-.7 0-1.7.3-2.1-.1-2.3-2.2-4.1-4.8-5.3-7.8-.6-1.6-1.4-2.8-3.1-2.8-.6 1.4-1.1 2.7-1.8 3.9-.3.5-1.2.7-1.5 1.2-.8 1.7-.5 3.7.8 5.1 5.2 4.9 11.3 8.2 18.6 9 .9.1 1.8.2 2.8.4.4.1.7.4.8.8.1.2-.2.7-.5.8l-3.6 1.8c1.2 1.6 2.8 3.4 4.1 5.3 1 1.4 1.9 2.8 2.8 4.3.5 1 0 1.7-1.2 2.3 2.2.7 4.1 1.4 6.1 2 1.4.5 2.8.8 4.2 1.2 1.6.3 3.3.4 4.9.6.8.1 1.7.3 1.5 1.3-.1.4-.9.9-1.5 1.1-3.4.6-6.6-.5-9.8-1.3-2.4-.6-4.7-1.6-7-2.3-1.1-.3-1.9-.9-1.8-2s1.3-1.1 2.2-1c.2 0 .4-.1.5-.2-.8-1.1-1.5-2.2-2.3-3.2-1.3-1.8-2.5-3.6-3.8-5.4-1.3-1.9-3.6-2.9-5.9-2.6-3.1.3-5.8-.8-8.5-2.3-.8-.4-1.5-.9-2.4-1.4-.2 1.6-.1 3.1-.7 4.3-.7 1.5-.3 2.8-.1 4.1.2.5.6 1 1.1 1.2 4.6 1.3 9.2 2.5 13.8 3.8.6.2 1.8.3 1.4 1.5s-1.2 1.1-2.1.9c-3.6-.8-7.2-1.7-10.8-2.5-.9-.1-1.8-.2-2.7-.2-.9 1.5-1.6 1.5-2.7.1.2 1.7.6 3.4.7 5.1.1.9.9 2.3-.7 2.7-1.4.3-1.6-1.1-2-2.1-.2-.5-.3-1.1-.5-1.7-1.1.8-1.9.4-2.8-.3-.5-.4-1.1-.6-1.7-.6-1.2-.2-2.1-1.1-2.2-2.3-.3-1.2-.4-2.5-.3-3.8.2-2.2.6-4.3 1-6.4 0-1 .9-1.9 1.9-1.8h.1c-.2-2.2-.5-4.3-.6-6.5-.2-2.6 0-5.3.7-7.8.9-2.9 1.4-6.2.3-9.2-.8-2.3.1-3.8 1.4-5.3 1.2-1.3 2.5-2.5 3.7-3.8.2-.3.3-.7.2-1.1-.3-3.6-.7-7.3-1-10.9-.1-1.7 0-3.4 0-5.5l-2.6-.2h-.4c-1.2-.7-2.3-1.4-3.3-2.2-.3-.4-.5-1-.5-1.5.1-3.9.3-7.7.3-11.6 0-6.4 0-12.8-.2-19.2-.1-4-.8-8-.9-12-.1-4.2.1-8.5.2-12.8 0-3 .2-6.1 0-9.1-.2-6.4-.6-12.8-.9-19.1-.2-3.8-.4-7.6-.4-11.3 0-2.3.4-4.6.5-6.9.1-3 .1-5.9-.1-8.9s-.6-5.8-1-8.7c-.6-4.4-1.1-8.8-1.7-13.3-.7-4.6-1.6-9.1-2.1-13.7-.6-5.1-.8-10.2-1.2-15.2-.2-2.8-.5-5.7-.7-8.5-.1-1.9-.4-3.7-.8-5.5-.3.7-.7 1.4-1.1 2-.8 1.6-2.1 3-3.8 3.8-1.5.8-2.7 2.3-4.2 3.1-1.8.8-3.7 1.5-5.7 2-1.3.4-2.7.8-4 1.1-3.5.6-7 1.2-10.5 1.5-3 .3-6 .5-9.1-.4-1.9-.6-4.1-.1-6.2-.2-1.5-.1-3-.6-4.5-.9-1.4-.3-2.8-.5-4.2-.6-4.5-.1-7.4-2.7-10.1-5.9-2.2-2.6-2.4-5.4-2.3-8.5.2-6.3.3-12.5.5-18.8.1-6.5 0-12.9.2-19.4.1-4.6.7-9.2 1-13.8.4-6.9.7-13.7 1.1-20.6.2-4.5.7-9 .8-13.6.1-5 0-10 .1-15.1.2-7.4.5-14.7.7-22.1.1-3.1-.1-6.3 0-9.4.2-4.5.9-8.9 2.1-13.2 2.1-7.9 5.7-15.2 9.6-22.3 1.1-2 1.8-4.2 2.8-6.2 1.2-2.5 2.5-5.1 3.9-7.5 1.9-3.5 2.9-7.4 2.8-11.4l-.3-25.2c0-3.6-.1-7.2-.2-10.8-.2-7.4-.5-14.8-.7-22.2-.1-6.8 0-13.6 0-20.4 0-4.7-.1-9.5-.2-14.3s0-9.4.2-14.1c.1-3.5.3-7 .6-10.4.1-1.8.6-3.6 1.5-5.2s2.4-2.7 4.1-3.1c4.4-1 8.7-2.5 13-3.4 3.9-.7 7.3-.5 10.5.6.4.1.8.4 1.1.7 2.1 2.2 3.5 4.7 3.2 8-.1 2.5 0 5 .2 7.5.1 3.1.1 6.2.2 9.4.2 2 .3 4.1.1 6.1-.8 5.7-.1 11.4.2 17.1.3 5.2.4 10.4.5 15.6.1 4.7.2 9.3.2 14 0 3.3-.1 6.6-.1 9.9 0 5.3.2 10.6.1 15.9-.1 5.9-.6 11.8-.7 17.7-.1 3 .2 6.1.2 9.1 0 1.7.1 3.3.2 5 .8-1.5 1.7-3 2.3-4.6 1.1-2.9 2.1-5.8 3-8.8.8-2.6 1.3-5.4 2-8l3-11.1c.2-.7.2-1.4.4-2.1.1-.3.5-.6.7-.9.3.3.9.6.9.9.1.9 0 1.8-.2 2.7-.8 4.2-1.7 8.4-2.6 12.5-.1.4-.1.8-.1 1.5 4.8-4.4 10.7-5.4 16.7-6.1 1.3-.1 2.5 0 3.8.2 2.7.4 5.6.6 8.1 1.5 3.1 1.2 5.3 3.8 7.5 6.2l1 1c.8 1 1.7 2 2.5 3 .5.6.9 1.3 1.5 1.9 1 1.2 1.5 2.8 1.4 4.4.1 2.5.5 4.9 1.2 7.3 1.4 4.7 1.7 9.7 1 14.5 0 .3-.1.6-.2.7-1.7 1.2-2 2.9-1.9 4.7.1 2.9.3 5.7.5 8.6.3 4.4 0 8.8-.9 13.1-.4 1.8-1.3 2.3-2.4 1.4-.3-.2-.4-.7-.6-1.1s-.5-.7-.8-1.1l-.5.1-.9 5.4c-.9 5.1-1.8 10.1-2.6 15.2-.5 3.2-.9 6.3-1.6 9.4-.4 1.6-.9 3.1-1.6 4.6 1.4 4.1 2.7 8.5 4.3 12.9 1.5 4.2 3.2 8.3 4.7 12.4 1.9 5.1 5.1 9.6 6.6 14.8.7 2.3 1.8 4.4 2.6 6.7.2.7.3 1.5.4 2.3.1.4.2.7.4 1 .8.2 1.8.3 1.8.5 0 .7-.1 1.5-.3 2.1.5-.2 1-.5 1.5-.8 1.9-1.3 4.1-2.1 6.4-2.3 3.5-.4 6.9-1.2 10.4-1.8 1.3-.2 2.5-.4 3.7-.5-.3-3.4-.6-6.7-1.1-10.1-.5-4.2-1.1-8.4-1.8-12.7-.5-3.5-1-7-1.8-10.5-.7-3-2-5.8-2.8-8.8-1.1-3.9-3.2-7.3-4.9-10.9-2-4.1-3.1-8.5-3.4-13.1-.5-7.1-.9-14.2-1.4-21.3-.3-4.1-.9-8.1-1.3-12.2-.6-5.4-1-10.9-1.8-16.2-1.1-7.4-2.4-14.9-6.3-21.5-.2-.4-.1-.9-.1-1.4.4.2 1.1.2 1.3.5 1.2 1.8 2.2 3.7 3.3 5.6 2.1 3.7 3 7.9 3.7 12.1 1.1 5.9 2 11.8 2.8 17.7.7 4.9 1.5 9.7 2 14.6.4 4.4.3 8.8.7 13.2.3 4 .8 8.1 1.3 12.1.5 5.1 3.1 9.4 5.2 13.8 1 2.2 1.8 4.5 2.5 6.9 1.1 3.6 2.2 7.2 3 10.8.9 4.2 1.6 8.5 2.3 12.8.6 3.9.8 7.8 1.3 11.7.1 1.4.3 2.8.7 4.2.3 1.4.3 2.8-.2 4.2-.1.4-1 .8-1.6.9-1.9.3-3.7.4-5.6.8-.4.2-.7.5-.8 1-.1 8-.2 16-.2 24.1.1 1.5.4 3 .9 4.4.9 2.9 1.3 5.9 1.1 9-.3 5.4-.5 10.8-.9 16.2-.2 3.2-.7 6.5-1 9.7-.4 4.5-.8 9-1.2 13.4-.4 5.2-.8 10.3-1.2 15.5s-.9 10.2-1.4 15.2c-.5 5.4-.9 10.9-1.4 16.3-.3 3.8-.8 7.5-1.2 11.3-.3 2.7-.4 5.4-.6 8-.4 4.4-1 8.8-1.3 13.3-.2 3-.3 6-.4 9 .1 2.3-.2 4.6-.8 6.8-.3 1.5-.4 3-.2 4.6 0 4.3 0 8.7-.1 13 0 1.7-.5 3.4-.6 5.2-.2 2.1-.3 4.1-.3 6.2l-.3 23.8c-.1 4.7-.2 9.5-.3 14.3 0 1.7-.6 2-2.2 2.4-1.4.5-2.7 1.1-3.9 1.9-2 1.1-3.8 2-6.2 1.9-1.5.1-3 .4-4.4.9.2 4.7.5 9.5.7 14.5 2.1.3 4.2.4 6.3.3 2.9-.2 4.8 1.4 6.9 2.9 1.9 1.4 3.4 3.3 4.3 5.5.5 1.3 1.9 1.1 2.7 1 2.7-.5 5 .7 7.1 1.9 1.5.9 2.8 1.9 4.1 3 2.3 1.9 2.5 4.5.5 7.1 2.6 1.4 5.2 3 7.8 4.3 1.8.8 3.6 1.4 5.5 2 1.3.4 2.3 1.6 2.4 3 .1 4.2-2.4 7.5-7.1 7.4-1.3 0-2.6-.1-4-.3-.5-.1-.8-.9-1.3-1.4.5-.3 1.1-.5 1.6-.7 1.7-.2 3.4-.1 5-.3 2.6-.3 3.1-2.4 3.6-4.3.1-.2-.4-.7-.8-.9-.7-.3-1.5-.4-2.1-.7-1.4-.7-3-.7-4.4 0-1.9.7-3.8 1.2-5.8 1.3-1.4.1-2.7-.9-2.9-2.3v-.3c.2-.7.4-1.4.8-2l-3.6.4c-1.6.3-3.2-.7-3.5-2.4 0-.2-.1-.5-.1-.7-.6.1-1.1 0-1.7-.1-.4-.2-.6-.9-1.1-1.3-.1 1.7.1 3.5-1.8 4-1.6.3-3.2.5-4.9.5.3 1.7.5 3.6.8 5.4 0 .2.5.4.6.6.3.4.8.8.8 1.1s-.5.8-.9 1.1l-2.4 1.8c-1.6 1.3-3.1 2.8-4.7 4.1-.5.3-1 .3-1.5 0-.3-.4-.4-1-.3-1.5.2-.5.5-1 1-1.3 3.4-2.8 3.3-2.8 2.9-7-.3-2.9-.2-5.8-.4-8.6.7-.6.6-1.2.4-1.8zm-11.9-369.9c.2-2.3.5-4.5.5-6.8 0-6.5-.1-13-.2-19.4 0-3-.3-5.8-2.6-8.2-2.1-2.1-3.6-4.7-5.8-6.7-1.8-1.7-3.9-3.1-6.1-4.2-1.9-.9-3.9-1.5-6-1.8-1.7-.2-3.4-.2-5 .2-1.8.4-3.5 1.3-5.4 1.8-3.3.7-6.1 2.9-7.5 5.9-.8 1.9-1.8 3.7-2.9 5.4-1.5 1.9-3.1 3.7-3.2 6.2-.1 1.1-.2 2.2-.5 3.2-.5 2.7-1.1 5.5-1.6 8.2-.7 3.4-1.1 6.9-2.1 10.3-.4 1.5-.9 3.3-2.5 4.4-.2.2 0 1.1.1 1.6s.6 1 .6 1.5c.2 3.2.4 6.4.3 9.6-.1 4.9.2 9.8 1.1 14.7.8 4.6 1.3 9.2 1.9 13.7.3 2.4.5 4.7.7 7.4 1.4-3.1 2.5-6 3.9-8.8 2.6-5.4 5.4-10.7 8-16.1.8-1.4 1.4-3 1.7-4.6.5-4.4.8-8.8 1.2-13.2.2-1.7.4-3.5.6-5.4-.4.1-.7.2-1.1.3-1.5.9-3 1.8-4.5 2.8-.8.5-1.5 1.2-2.7.9-1.1-.2-1.9-1.2-1.7-2.4 0-.9-.1-1.8-.1-2.7l.3-11.6c0-.5.5-1.1.8-1.6.4.5.6 1 .8 1.6.1 1.6.2 3.1.2 4.7v7.6l2.4-1.2c2.6-1.8 5.6-2.8 8.7-3 1.9-.2 3.8-.2 5.7-.1 2.5.1 5 .3 7.5.8 2.7.7 5.3 1.6 7.8 2.6 2.5.8 4.5 1.6 6.7 2.4zm-5.4 96.4c-.1-.3-.2-.6-.3-.8-1.8-3.4-3.7-6.8-5.4-10.3-2-4.2-3.7-8.5-5.7-12.7-2.1-4.5-4.4-8.9-6.5-13.4-2.4-5.3-4.7-10.8-7-16.2-.6-1.4-1-2.8-1.5-4.2h-.4c-1.9 4-3.7 8.1-5.7 12.1-1.1 2.4-2.5 4.8-4.1 6.9-1.4 1.6-2.1 3.5-2.2 5.6 0 5.4.3 10.8.4 16.2.1.3.2.6.4.9 1.4 1.7 2.8 3.4 4.3 5.1 1.3 1.5 2.6 2.9 3.8 4.4.4.7.6 1.5.3 2.2-.5.7-1.5.7-2.2-.1-.6-.7-1.4-1.3-2-2.1l-6.9-9.3c-.6-.6-1-1.2-1.4-1.9-.2-.8-.3-1.7-.2-2.6-.3.3-.5.7-.6 1.1 0 3.7-.9 7.3.2 11.1.9 3.1.7 6.6.9 9.9l.9 16.5c.2 3.5.3 7 .4 10.2 2.1 1.2 3.1 0 4-1.3.3-.5.8-.8 1.2-1.3 1.8-2.4 4.1-4.6 4.7-7.8.2-1.2.9-2.3 2.1-2.8 1.4-.6 2.6-1.3 4-1.8 4.9-1.6 9.1-4.4 13.5-6.9 3.8-1.9 7.3-4.3 11-6.7zm-23-98.2c-.2 5.1-.4 10-.5 14.9 0 5.6.1 11.1.2 16.7 0 2.9.6 5.8-.9 8.5-.1.2 0 .5.1.7.4.9.7 1.8 1.1 2.8 1.2 2.7 2.2 5.5 3.5 8.2 1.2 2.5 2.6 4.8 3.9 7.2 1.5 2.8 3.1 5.5 4.4 8.3 2.3 4.9 4.3 9.8 6.7 14.7 2.2 4.5 4.6 8.9 6.8 13.3 1 2 2 4.1 3 6.1l.6 1.3c.4-.3.7-.6 1.1-1 2.5-3.5 5-7.1 7.5-10.6.2-.4.2-.8 0-1.1-.8-2-1.6-4-2.4-5.9-1.5-3.6-3.1-7.1-4.6-10.7-2.5-5.8-5.1-11.5-7.3-17.4-1.1-3-1.6-6.2-2.5-9.3-1.2-3.8-2.6-7.6-3.8-11.4-.1-.3.6-1.1.7-1.1 1 .3.9-.3 1.1-.9.5-2.8.8-5.6 1.4-8.4 1.5-6.8 3-13.6 4.6-20.4.2-1 .2-1.6-1.1-1.8-1.6-.3-3.2-.7-4.8-1.3-6-2.5-12.4-2.1-18.8-1.4zm-36.3 81.6h-.4c0 3 .1 5.9 0 8.9-.3 6-.5 11.9-1.1 17.9-.5 5.4-.6 10.8-.4 16.2 0 .9.2 1.9 1.3 1.8s1.2-1 1.2-2c0-4.1.1-8.3.3-12.4.4-7.2 1.1-14.3 1.5-21.5.2-3.7 0-7.4.1-11.1 0-4.6.1-9.2.2-13.8.1-6 .2-11.9.2-17.9v-19.7c0-2.6.1-5.3.1-8 0-.7-.1-1.6-1-1.5-.3 0-.7 1.1-.7 1.7-.1 2.1-.1 4.1-.2 6.2-.2 5.5-.6 11-.7 16.5-.1 3.3.1 6.7.1 10-.1 3.4-.3 6.9-.4 10.3-.1 2.8-.1 5.6-.1 8.4v10zm2.9-218.5v-9.8c0-.4-.4-.7-.7-1.1-.3.4-.5.7-.7 1.1-.1.1 0 .4 0 .6-.1 3.5-.2 7-.1 10.5.2 7 .4 14 .7 21.1.4 7.3 1.1 14.6 1.4 21.9.3 6 .4 12.1.5 18.2l.3 10.2c0 3.5.1 7.1-.1 10.6-.1 2.1-.5 4.1-.7 6.2 0 .4.4 1.1.6 1.1.5 0 1-.2 1.4-.6.3-.4.5-.8.5-1.3.3-3.3.8-6.6.8-9.9s-.3-6.7-.4-10.1c-.1-5.6 0-11.2-.1-16.8-.1-4.6-.4-9.1-.7-13.7-.4-6.2-1.1-12.5-1.5-18.7l-1.2-19.5zm3.2 105c-1.6-.4-1.8.6-2 1.5-.5 3.4-1.1 6.7-1.5 10.1-.9 8.2-1.8 16.4-2.6 24.7-.1.9-.7 2.4.9 2.5 1.5.2 1.5-1.3 1.8-2.3v-.3c.4-5.1.7-10.2 1.1-15.3s1-10 1.5-15c.3-2 .6-3.9.8-5.9zm63.8 393.2c1 1.1 2 2.1 3.1 3.1.3.2.8.3 1.2.1 2.3-.9 4.6-1.8 6.9-2.8.7-.3 1.6-.7 1.2-1.7-.3-1-.8-1.8-2.1-1.5-.7.1-1.3.1-2 .1-2.9.1-5.8.1-8.3 2.7zm-61.4-207.9 1.5-1.6c-.4-.3-.8-.7-1.2-1.1-.3-.2-.5-.4-.6-.7-.5-1.2-1.1-2.4-1.6-3.7l-3-8.4c-.2-.4-.8-.7-1.3-1.1-.2.6-.7 1.2-.5 1.7 1.3 4.3 2.8 8.6 4.2 12.8.2 1.2 1.3 2.1 2.5 2.1zm28.8 240.7.4-.3c-.1-.8-.1-1.5 0-2.3.1-1.2.3-2.3.8-3.4.4-.6.3-1.4-.2-1.8l-1.5-2.1c-.5-.8-1.9-1.4-2.3-.9-1 1.2-1.7 6.3-.8 7.5 1.1 1.3 2.3 2.3 3.6 3.3zm-34.8-550.9c.1.1.3.7.5.6.5 0 1.1-.3 1.3-.6.6-1.7 1.1-3.4 1.5-5.1.7-2.6 1.2-5.4 3.5-7.3.4-.3.5-.9.7-1.3-.6 0-1.4-.3-1.8 0-1 .7-1.9 1.5-2.6 2.6-1 1.9-1.7 3.8-2.3 5.9-.4 1.7-.7 3.4-.8 5.2zm51.7 536.1c-4.3-1.3-7.8-3.9-11.3-6.9.1 1.5-.4 2.8.9 3.5l3.3 1.8c2.2 1.1 4.4 2 7.1 1.6zm39.7-8.9c1.4 2 3.5 1.4 5-1.7l-1.4-1.2-3.6 2.9zm-10.7 2.9c-.2-2.1-.5-4.2-.7-6.7-.5.6-1.1.9-1.1 1.2-.1 1.8 0 3.6 0 5.5h1.8zm3.9-2.2 2.2-1.4c-1-.9-2-1.7-3-2.5l-.2.2 1 3.7zm7.3-3.8-5-3-.2.3 4.2 3.6 1-.9zm10.3 11.8c-2-1.8-3.5.3-5.2.2 0 .2 0 .3.1.5l5.1-.7z"/><path d="M204.912 87.3c-.4.1-.8.3-1.2.4-1.7.9-3 .2-3-1.7v-4.3c-.5.5-1 .9-1.5 1.4-.9.6-1.4.2-1.7-.8-.7-3.2-1.3-6.5-2.2-9.6-1.2-4.1-2.9-8.1-3.8-12.3-.6-2.7-.6-5.5-.1-8.2.8-4.5 2.1-9 3.8-13.3 1.9-4.1 4.4-7.9 7.3-11.4 1.7-2.2 4.6-3.1 7.5-3.2.5-.1 1 .3 1 .8 0 .3-.1.7-.4.9-.4.4-.8.6-1.3.8-3.3 1.2-6 3.7-7.5 6.8-1.1 2.1-2.6 4-3.5 6.2-1.2 2.6-2.1 5.3-2.7 8-.7 3.5-1.1 7.1-1.1 10.7 0 2.3 1.1 4.5 1.7 6.8 1.1 4.1 2.3 8.2 3.5 12.5.5-.8.9-1.7 1.4-2.5.1-.3.3-.5.5-.7 1.4-.9 1.1-2.1.6-3.4-1.1-2.9-.8-6.1.8-8.7.8-1.2 1.7-2.3 2.7-3.4 1-1 2.6-1.2 3.8-.4.9.6 1.4 1.9 2 2.9.1.2-.3 1-.6 1.1-.4 0-.9-.2-1.1-.6-1.2-2-2.1-2.1-3.5-.3-2.3 2.8-2.6 6.7-.9 9.9.4.5 1 .8 1.6.9 1 .2 1.9.4 1.5 1.8-.2 1-1.2 1.7-2.2 1.4-.8-.2-1.6-.3-2.4-.6-1 1.2-1.4 2.8-1 4.4.3 1.5.5 3.1.6 4.6 1.1-.5 2.2-.9 3.3-1.2 1.6-.2 1.9.6 1.4 2.1-1 2.7-1.7 5.5-2.6 8.2-.4 1.2-.9 2.5-1.4 3.9 8.4 2.8 15.5 8.1 22.1 14.1 1.1-4.7 3.6-11.1 5.8-14.2-.2-.1-.5-.2-.7-.3-.8-.2-1.5-.8-1.2-1.6.4-.5.9-.8 1.6-.8 1.3.2 2.6.5 3.8 1 2.5.8 5 1.6 7.6 2.4 1.4-1.6 2.8-3.2 4.3-4.7.3-.3 1.1-.3 1.6-.4 0 .6.1 1.3-.1 1.7-1.4 2-2.9 3.8-4.3 5.8-.7 1-1.5.8-2.4.2-.7-.4-1.4-.7-2.2-.9-2-.6-4-1.3-6.2-1.9-.6 1.6-1.4 3.2-1.9 4.8-.9 3-1.7 6.1-2.5 9.2-.3 1.4-.4 2.6 1.1 3.6.4.2.5 1 .7 1.6-.3.2-.6.4-1 .5-.3 0-.6-.2-.8-.4-2.4-2-4.8-4-7.3-5.9-3.8-2.9-7.5-6-11.9-8-3.4-1.5-6.7-3.5-10.6-3.1-1.4.1-2.7.6-4 .8-1.8.3-3.5.6-5.3.9-1 .2-1.8-.1-1.9-1 .1-.7.6-1.3 1.2-1.6 3.7-.9 7.4-1.6 11.1-2.3.3-.1.6-.2.8-.5.9-2.5 1.8-4.9 2.7-7.4.4-.4.4-.9.6-1.5z"/><path d="M259.812 74.1c-.9 3.2-1.6 6.3-2.6 9.4-1.1 2.9-2.9 5.5-5.2 7.7-.6.6-1.5 1.6-2.3.7s.2-1.6.7-2.3c3-3.4 5.2-7.5 6.3-11.9.4-1.7.7-3.3 1.1-5 .1-.3.5-.6.7-.9l1.2 1.1c.2-.4.4-1 .6-1.7-2-.6-1.3-2.2-1.4-3.5 0-.5.1-.9.1-1.4.3-2.7-1.7-3.6-3.6-4.5-1.3-.6-2.7-.8-4-1.3-.5-.2-.7-.9-1.1-1.4.6-.2 1.2-.8 1.8-.7 2.6.4 5 1.4 7 3 .6-6.2-.8-12.1-2-18.3-.5 1.7-1.1 3.4-1.9 5.1-2.3 4.4-5.2 8.2-9.9 10.4-4.8 2.2-9.7 4.5-14.5 6.7-1.2.4-2.4.7-3.6.7-.3 0-.9-.6-1-1-.1-.7 0-1.3.1-2-2.5 2.2-5.1 4.4-7.5 6.6-1.2 1.1-2.2 2.3-3.4 3.4-.4.5-1.2.6-1.8.1-.3-.2-.4-.5-.4-.9-.3-1.6-.5-3.2-.5-4.8-.1-3.4-.1-6.8-.1-10.2 0-.7.1-1.4.2-2.1.1-.3.5-.8.7-.7.4.1.7.4.9.7.1.7.2 1.4.2 2.1.2 3.7.5 7.4.8 11.5 2.6-2.1 4.8-3.9 7.1-5.7s4.5-3.6 6.8-5.3c.3-.2.9-.1 1.4-.1 0 .5 0 1-.1 1.5-.5 1.2-1.1 2.3-1.6 3.5l.4.3c2.1-1 4.2-2 6.4-2.9.8-.4 1.6-.7 2.5-1.1 4-1.5 7.9-3.3 10.9-6.4 3.3-3.4 6.1-7.3 6.2-12.4 0-.5.4-1 .6-1.5l1.1 1c2.4 2.3 2.4 5.5 3.2 8.4 1.5 5 2 10.3 1.5 15.5-.1 1.6 0 3.3 0 4.8 2.5-3.7 4-8 4.4-12.5.3-2.6.4-5.2.2-7.7-.4-3.4-1.4-6.7-3-9.7-.1-.5-.2-1-.1-1.5.5.2 1.4.2 1.5.6 1.4 2.7 2.6 5.5 3.6 8.3 2.1 7.2.5 14.1-2.4 20.7-1.3 2.5-2.7 4.9-4.2 7.2-.7.9-1.3 1-2 .4zM217.012 581.5c-3-.2-6-.4-8.9-.6-1.5-.1-2.3-1-3.2-2-.5-.5-1.1-.9-1.7-1.1-.5-.3-1.2-.3-1.6-.6s-.3-.9-.5-1.4c.4-.1.8-.2 1.2-.2.5 0 .9.2 1.4.2 1.4.1 2.8-.1 4 1.1.5.5 1.8.2 2.7.3 3.5.4 7 .8 10.5 1.3 1.6.2 3.1.9 4.7 1.2 2.8.7 5.7 1.4 8.5 2 1.8.3 3.6.4 5.5.5 1.2 0 2.4.1 3.5.3.5.1.8.7 1.2 1.1-.4.3-.8.9-1.2.9-1.6.2-3.2.2-4.8.3-6.5.3-12.5-2-18.8-3-.8-.2-1.6-.3-2.5-.3zM229.212 17.6c3.2.4 6.4.9 9.5 1.3 3.4.4 6.8 1.3 10 2.7 3.4 1.6 6.9 3.2 9.1 6.5.4.4.7.9.9 1.5.1.4-.2.9-.2 1.4-.4-.2-1.1-.2-1.3-.5-2.6-3.8-6.5-5.6-10.6-7.2-3.5-1.3-7.2-1.5-10.8-2-2-.4-4-.5-6.1-.5-4.9.4-9.8 1-14 3.8-.7.5-1.5.8-2.3 1.1-.5.1-1-.1-1.4-.4-.1-.5 0-1 .3-1.3 2.4-2.2 5.3-3.8 8.5-4.6 2.7-.8 5.5-1.3 8.4-1.8zM250.912 582c3-.5 5.9-.9 8.9-1.4 3.5-.7 7-1.4 10.4-2.2.9-.2 1.6-.7 2.5-.9.5-.1 1.1 0 1.6.1-.2.6-.2 1.5-.6 1.7-1.5 1-3.1 1.7-4.7 2.2-5.6 1.3-11.2 2.5-16.9 3.6-1 .2-2 .2-3 0-1.1-.1-2-.7-1.9-1.8.1-.9.9-1.6 1.8-1.5h.1c.6 0 1.1 0 1.7-.1l.1.3zM251.112 577.1c-1.1-.2-2.6-.4-4.1-.7-1-.2-1.7-.8-1.4-1.9.3-.8 1.2-1.3 2-1h.1c4.5 1.1 8.9.1 13.4-.2 3.4-.1 6.8-.6 10.1-1.4.2 0 .4 0 .5.1.6.3 1.3.6 1.9.9-.5.4-1.1.8-1.7 1.1-6.6 2.2-13.5 2.3-20.8 3.1zM284.812 559.1c1-1.2 1.6-1.2 2.4.1 1.7 2.5 2.6 5.4 2.7 8.4 0 1.5-.2 3-.6 4.5-.1.4-.4.7-.7 1-.8.8-1.6 1.4-2.5 2-1.4.8-2.8 1.4-4.3 2.1-.4.2-1 .1-1.4.4-.7.4-1.5 1-1.9 0-.1-.8.3-1.7.9-2.2.9-.5 1.8-.8 2.8-.9 2.1-.6 3.8-2 4.8-3.9.4-1.1.5-2.2.3-3.3-.1-3-.9-5.8-2.5-8.2z"/><path d="M284.612 560.1c-1 3.6-.7 7.4-3.4 10.2-.4.4-.8.8-1.3 1.1-.6.4-1.5.9-2 0-.2-.7-.1-1.5.4-2.1 1.4-1.4 2.4-3.1 3-4.9.4-1.4.7-2.9 1.1-4.2.2-.5.8-.9 1.2-1.3l1 1.2zM255.712 565.6c-3.3-.3-6.5-.5-9.8-.8-.8-.1-1.7-.8-1.4-1.8.1-.4 1.2-.6 1.8-.6 3.3.4 6.6.8 10 1.2.4 0 .9 0 1.3.1.4.2.7.5 1.1.8-.4.3-.7.7-1.1.7-.6.1-1.2.1-1.9 0v.4zM245.512 79.5c-.3-.2-.5-.4-.7-.6-.1-.3-.1-.7 0-1 .2-.3.5-.6.8-.8l2.4-2.1c.4-.3 1-.6 1.3-.4.4.3.6.8.6 1.3-.2 1.7-2.5 3.6-4.4 3.6zM275.512 555.6c2.1-.6 4.4-.4 6.4.4.4.2.6 1.1.8 1.7 0 .2-.2.5-.4.6s-.5-.1-.8-.1c-.7-.3-1.4-.6-2.1-.8-.9-.2-1.9-.1-2.8-.3-.5-.2-1-.5-1.4-.8.1-.2.2-.5.3-.7zM251.712 554.8c-.1 1.3-.4 2.6-.6 3.8-.2.6-.6 1.2-1.1 1.7-.3.2-.7.2-1 0-.2-.2-.2-.7-.2-1 .3-1.4.5-2.9.9-4.3.2-.7.1-1.9 1.2-1.6.4.1.6 1.1.8 1.4zM238.612 87.9c-.1-1.3.5-1.8 1.6-1.7 1.3 0 2.6.2 3.8.4.3.1.9.7.9.9-.2.5-.6 1.1-1 1.2-1.8.1-3.7-.1-5.3-.8zM250.212 66.7c-1.5 0-2-.7-2-1.6s.3-1.8 1.5-1.9c1 .1 1.7.9 1.7 1.9-.1 1-.6 1.6-1.2 1.6z"/><path d="M224.912 177.3c-2.2-.8-4.2-1.6-6.3-2.3-2.6-1-5.2-1.9-7.8-2.6-2.5-.5-5-.7-7.5-.8-1.9-.1-3.8-.1-5.7.1-3.1.2-6.2 1.2-8.7 3-.8.5-1.6.9-2.4 1.2v-7.6c0-1.6 0-3.1-.2-4.7-.2-.6-.4-1.1-.8-1.6-.3.5-.8 1.1-.8 1.6-.2 3.9-.3 7.7-.3 11.6 0 .9.2 1.8.1 2.7-.2 1.1.6 2.2 1.7 2.4 1.2.3 1.9-.4 2.7-.9 1.5-.9 3-1.9 4.5-2.8.3-.1.7-.3 1.1-.3-.2 1.9-.4 3.6-.6 5.4-.4 4.4-.6 8.8-1.2 13.2-.3 1.6-.9 3.1-1.7 4.6-2.6 5.4-5.4 10.7-8 16.1-1.4 2.8-2.5 5.7-3.9 8.8-.2-2.6-.4-5-.7-7.4-.6-4.6-1.1-9.2-1.9-13.7-.8-4.8-1.2-9.8-1.1-14.7 0-3.2-.2-6.4-.3-9.6 0-.5-.5-1-.6-1.5s-.3-1.5-.1-1.6c1.5-1.1 2-2.8 2.5-4.4.9-3.4 1.4-6.9 2.1-10.3.5-2.7 1.1-5.5 1.5-8.2.2-1.1.4-2.1.5-3.2.1-2.6 1.7-4.3 3.2-6.2 1.2-1.7 2.2-3.5 2.9-5.4 1.4-3.1 4.2-5.3 7.5-5.9 1.8-.5 3.5-1.4 5.4-1.8 1.6-.3 3.3-.4 5-.2 2.1.3 4.1.9 6 1.8 2.2 1.1 4.3 2.5 6.1 4.2 2.1 2 3.7 4.6 5.8 6.7 2.3 2.4 2.6 5.2 2.6 8.2 0 6.5.2 13 .2 19.4-.3 2.2-.6 4.4-.8 6.7zM219.512 273.7c-3.7 2.4-7.2 4.7-10.9 6.9-4.4 2.5-8.6 5.3-13.5 6.9-1.4.5-2.7 1.2-4 1.8-1.1.5-1.9 1.5-2.1 2.8-.6 3.2-2.9 5.3-4.7 7.8-.3.5-.9.8-1.2 1.3-.9 1.3-1.9 2.5-4 1.3-.1-3.2-.2-6.7-.4-10.2l-.9-16.5c-.2-3.3 0-6.8-.9-9.9-1.1-3.8-.2-7.4-.2-11.1 0-.4.2-.8.6-1.1 0 .9.1 1.7.2 2.6.4.7.8 1.4 1.4 1.9 2.3 3.1 4.5 6.3 6.9 9.3.6.8 1.3 1.4 2 2.1.7.8 1.7.8 2.2.1.3-.8.1-1.6-.3-2.2-1.1-1.6-2.5-3-3.8-4.4-1.4-1.7-2.9-3.4-4.3-5.1-.2-.2-.4-.5-.4-.9-.2-5.4-.4-10.8-.4-16.2.1-2.1.9-4 2.2-5.6 1.6-2.2 2.9-4.5 4.1-7 2-4 3.8-8 5.7-12.1h.4c.5 1.4.9 2.8 1.5 4.2 2.3 5.4 4.6 10.8 7 16.2 2.1 4.5 4.4 8.9 6.5 13.4 2 4.2 3.7 8.5 5.7 12.7 1.7 3.5 3.6 6.9 5.4 10.3 0 .2.1.4.2.7z" class="st1"/><path d="M196.512 175.5c6.4-.7 12.7-1.1 18.9 1.3 1.6.6 3.2 1 4.8 1.3 1.2.2 1.3.8 1.1 1.8-1.6 6.8-3.1 13.6-4.6 20.4-.6 2.8-1 5.6-1.4 8.4-.1.6 0 1.3-1.1.9-.1 0-.8.8-.7 1.1 1.2 3.8 2.6 7.6 3.8 11.4.9 3.1 1.4 6.3 2.5 9.3 2.3 5.9 4.9 11.6 7.3 17.4 1.5 3.6 3.1 7.1 4.6 10.7.8 2 1.6 3.9 2.4 5.9.2.4.2.8 0 1.1-2.5 3.6-5 7.1-7.5 10.6-.3.4-.7.7-1.1 1l-.6-1.3c-1-2-2-4.1-3-6.1-2.3-4.5-4.7-8.8-6.8-13.3-2.3-4.8-4.4-9.8-6.7-14.7-1.3-2.8-2.9-5.6-4.4-8.3-1.3-2.4-2.7-4.7-3.9-7.2-1.3-2.7-2.4-5.4-3.5-8.2-.4-.9-.7-1.8-1.1-2.8-.1-.2-.2-.5-.1-.7 1.5-2.7.9-5.7.9-8.5-.1-5.6-.2-11.1-.2-16.7 0-4.8.2-9.8.4-14.8zM160.212 257.1v-9.9c0-2.8 0-5.6.1-8.4.1-3.4.4-6.9.4-10.3.1-3.3-.2-6.7-.1-10 .2-5.5.5-11 .7-16.5.1-2.1.1-4.1.2-6.2 0-.6.4-1.6.7-1.7 1-.1 1 .8 1 1.5 0 2.6-.1 5.3-.1 8 0 6.6.1 13.2 0 19.7 0 6-.2 11.9-.2 17.9-.1 4.6-.2 9.2-.2 13.8 0 3.7.1 7.4-.1 11.1-.4 7.2-1.1 14.3-1.5 21.5-.2 4.1-.3 8.3-.3 12.4 0 1 0 1.9-1.2 2s-1.3-1-1.3-1.8c-.2-5.4-.1-10.8.4-16.2.6-5.9.8-11.9 1.1-17.9.1-3 0-5.9 0-8.9l.4-.1zM163.112 38.6c.4 6.6.8 13 1.3 19.5.5 6.2 1.1 12.5 1.5 18.7.3 4.6.6 9.1.7 13.7.1 5.6 0 11.2.1 16.8.1 3.4.4 6.7.4 10.1s-.5 6.6-.8 9.9c0 .5-.2.9-.5 1.3-.4.4-.9.6-1.4.6-.3 0-.7-.7-.6-1.1.2-2.1.6-4.1.7-6.2.1-3.5.1-7.1.1-10.6 0-3.4-.2-6.8-.3-10.2-.2-6.1-.3-12.2-.6-18.2-.4-7.3-1.1-14.6-1.4-21.9-.4-7-.6-14-.7-21.1-.1-3.5.1-7 .1-10.5 0-.2-.1-.4 0-.6.2-.4.5-.8.7-1.1.2.4.7.7.7 1.1v9.8zM166.312 143.6l-.6 6c-.5 5-1.1 10-1.5 15s-.7 10.2-1.1 15.3v.3c-.4 1-.3 2.5-1.8 2.3-1.6-.2-1-1.6-.9-2.5.8-8.2 1.7-16.5 2.6-24.7.4-3.4.9-6.7 1.5-10.1-.1-1.1.2-2 1.8-1.6zM230.112 536.8c2.5-2.5 5.3-2.6 8.2-2.7.7 0 1.3 0 2-.1 1.3-.3 1.8.5 2.1 1.5.4 1.1-.5 1.4-1.2 1.7-2.3 1-4.6 1.9-6.9 2.8-.4.1-.8.1-1.2-.1-1-1-1.9-2.1-3-3.1zM168.712 328.9c-1.2 0-2.2-.9-2.4-2.1-1.5-4.2-2.9-8.5-4.2-12.8-.1-.4.3-1.1.5-1.7.4.3 1.1.6 1.3 1.1 1.1 2.8 2 5.6 3 8.4.5 1.2 1 2.4 1.6 3.7.2.3.4.5.6.7.4.4.8.7 1.2 1.1l-1.6 1.6zM197.512 569.6c-1.3-1-2.5-2.1-3.6-3.3-1-1.2-.2-6.3.8-7.5.4-.5 1.8.1 2.3.9.4.7.9 1.4 1.5 2.1.5.5.6 1.3.2 1.8-.4 1.1-.7 2.2-.8 3.4-.1.8-.1 1.5 0 2.3l-.4.3zM162.712 18.7c.2-1.8.4-3.5.8-5.2.6-2 1.3-4 2.3-5.9.6-1 1.5-1.9 2.6-2.6.4-.3 1.2 0 1.8 0-.2.4-.3 1.1-.7 1.3-2.4 1.9-2.8 4.6-3.5 7.3-.5 1.7-.9 3.4-1.5 5.1-.1.3-.8.6-1.3.6-.2.1-.5-.5-.5-.6zM214.412 554.8c-2.6.4-4.9-.5-7.1-1.6-1.1-.6-2.3-1.1-3.3-1.8-1.3-.8-.8-2.1-.9-3.5 3.5 3 7 5.7 11.3 6.9zM254.112 545.9l3.7-2.9 1.4 1.2c-1.6 3.1-3.7 3.7-5.1 1.7zM243.412 548.8h-1.9v-5.5c0-.3.6-.7 1.1-1.2.3 2.4.5 4.5.8 6.7zM247.212 546.6l-1-3.7.2-.2c1 .8 1.9 1.7 3 2.5l-2.2 1.4zM254.612 542.8l-1 .9-4.2-3.6.2-.3 5 3zM264.912 554.6l-5.1.7c0-.2 0-.3-.1-.5 1.8 0 3.3-2.1 5.2-.2z" class="st1"/><g class="st2"><path d="m295.23 110.544-5.2 2.7 6.1 11.5-6.5 3.4-16.7-31.4 11.7-6.2c3.7-2 7-2.7 9.9-2.1 2.9.6 5.1 2.4 6.7 5.4 1.1 2.1 1.6 4.2 1.5 6.1-.2 1.9-1 3.8-2.4 5.7l13.6 9.2.2.3-6.9 3.7-12-8.3zm-7.9-2.5 5.2-2.8c1.6-.9 2.7-1.9 3.1-3.2.5-1.3.3-2.7-.5-4.1-.8-1.5-1.8-2.4-3.1-2.8-1.3-.4-2.8-.1-4.5.8l-5.2 2.8 5 9.3zM325.93 97.644l-3.4-16.8 6.7-3.5 4.9 31.9.1 1.5c.2 3.8-1.3 6.5-4.5 8.2-.9.5-1.9.8-3 1.1l-2.5-4.7 1-.5c1.2-.6 2-1.3 2.4-1.9.4-.7.5-1.5.4-2.5l-.3-2.3-20.6-19 6.7-3.6 12.1 12.1zM361.23 87.144c-.5 2.7-2.2 4.7-4.9 6.2-2.5 1.3-4.8 1.6-6.9.9-2.1-.7-3.9-2.5-5.4-5.2l-8.1-15.3 6.2-3.3 8 15.1c1.3 2.4 3 3.1 5.3 1.9 2.1-1.1 3.2-2.6 3.2-4.5l-8.8-16.5 6.3-3.3 12.4 23.3-5.9 3.1-1.4-2.4zM370.43 70.144c-1.9-3.6-2.6-6.9-2-10 .5-3.1 2.3-5.4 5.1-6.9 2.6-1.4 5-1.5 7.4-.5l-.9-2.3 5.6-3 12 22.5c1.1 2 1.6 4.1 1.4 6.1-.1 2-.8 3.8-2.1 5.5s-3 3.1-5.3 4.3c-1.7.9-3.6 1.5-5.5 1.6-2 .2-3.7 0-5.1-.7l.7-5.3c2.5.9 4.8.8 7-.4 1.7-.9 2.7-2 3.2-3.4s.2-2.9-.6-4.5l-.7-1.3c-.6 2.4-2 4.2-4.4 5.4-2.8 1.5-5.7 1.6-8.5.3-2.9-1.3-5.3-3.7-7.2-7.3l-.1-.1zm6.5-2.8c1.1 2.1 2.4 3.6 3.9 4.3 1.5.8 3 .7 4.5-.1 1.9-1 2.9-2.4 2.9-4.3l-5.2-9.8c-1.6-1-3.3-1-5.2 0-1.5.8-2.3 2-2.5 3.7-.3 1.7.3 3.7 1.6 6.2zM399.93 54.444c-1.2-2.3-1.9-4.6-1.9-6.9-.1-2.3.5-4.4 1.6-6.2s2.8-3.4 5-4.6c3.1-1.7 6.2-2.1 9.2-1.2 3 .9 5.5 2.9 7.5 6.1l.9 1.6c1.9 3.6 2.4 7 1.6 10.2s-3 5.7-6.3 7.5-6.6 2.1-9.8 1c-3.1-1.1-5.7-3.5-7.7-7.2l-.1-.3zm6.5-2.9c1.2 2.2 2.5 3.7 4 4.4 1.5.7 3 .7 4.5-.1 1.5-.8 2.4-2 2.6-3.6.2-1.6-.3-3.7-1.7-6.2-1.2-2.2-2.5-3.6-4-4.4-1.5-.7-3-.7-4.5.1-1.5.8-2.4 2-2.6 3.7-.2 1.6.4 3.6 1.7 6.1z"/></g><path d="M470.13 72.844h-10.9v29.6h-7.3v-29.6h-10.7v-5.9h29v5.9zM454.53 178.844l-2.5 2.5v8.1h-7.1v-37.5h7.1v20.8l1.4-1.8 6.8-7.9h8.5l-9.5 11 10.4 15.4h-8.1l-7-10.6zM460.23 228.444c-.3-.6-.6-1.4-.7-2.4-1.7 1.9-3.9 2.9-6.7 2.9-2.6 0-4.7-.7-6.4-2.2-1.7-1.5-2.6-3.4-2.6-5.7 0-2.8 1-4.9 3.1-6.4s5.1-2.3 9-2.3h3.2v-1.5c0-1.2-.3-2.2-.9-2.9-.6-.7-1.6-1.1-3-1.1-1.2 0-2.1.3-2.8.9-.7.6-1 1.4-1 2.3h-7.1c0-1.5.5-2.9 1.4-4.2.9-1.3 2.3-2.3 4-3.1 1.7-.7 3.7-1.1 5.8-1.1 3.3 0 5.8.8 7.8 2.5 1.9 1.6 2.9 3.9 2.9 6.9v11.5c0 2.5.4 4.4 1 5.7v.4h-7zm-5.8-4.9c1 0 2-.2 2.9-.7.9-.5 1.5-1.1 2-1.9v-4.5h-2.6c-3.5 0-5.4 1.2-5.6 3.7v.4c0 .9.3 1.6.9 2.2.4.5 1.3.8 2.4.8zM443.03 256.044c0-4.1 1-7.3 2.9-9.8 1.9-2.5 4.5-3.7 7.8-3.7 2.9 0 5.2 1 6.8 3l.3-2.5h6.4v25.5c0 2.3-.5 4.3-1.6 6s-2.5 3-4.4 3.9c-1.9.9-4.1 1.3-6.7 1.3-1.9 0-3.8-.4-5.7-1.2-1.8-.8-3.2-1.8-4.2-3l3.1-4.3c1.8 2 3.9 3 6.4 3 1.9 0 3.3-.5 4.4-1.5 1-1 1.6-2.4 1.6-4.3v-1.4c-1.6 1.8-3.8 2.8-6.4 2.8-3.2 0-5.7-1.2-7.7-3.7s-2.9-5.8-2.9-9.9v-.2zm7.1.5c0 2.4.5 4.3 1.4 5.6 1 1.4 2.3 2 4 2 2.1 0 3.7-.8 4.6-2.4v-11.1c-.9-1.6-2.5-2.4-4.6-2.4-1.7 0-3 .7-4 2.1-1 1.4-1.4 3.4-1.4 6.2zM459.83 360.144c0-.9-.4-1.5-1.3-2s-2.2-.9-4.1-1.3c-6.3-1.3-9.4-4-9.4-8 0-2.3 1-4.3 2.9-5.9 1.9-1.6 4.5-2.4 7.6-2.4 3.4 0 6 .8 8 2.4 2 1.6 3 3.6 3 6.2h-7.1c0-1-.3-1.8-1-2.5s-1.7-1-3.1-1c-1.2 0-2.1.3-2.8.8s-1 1.2-1 2.1c0 .8.4 1.4 1.1 1.9.7.5 2 .9 3.7 1.2 1.8.3 3.2.7 4.4 1.2 3.7 1.4 5.6 3.7 5.6 7.1 0 2.4-1 4.4-3.1 5.8-2.1 1.5-4.7 2.2-8 2.2-2.2 0-4.2-.4-5.9-1.2-1.7-.8-3.1-1.9-4-3.2-1-1.4-1.5-2.9-1.5-4.5h6.7c.1 1.3.5 2.2 1.4 2.9.9.7 2 1 3.5 1 1.4 0 2.4-.3 3.1-.8.9-.5 1.3-1.2 1.3-2zM451.23 390.844c1.9-2.2 4.2-3.4 7.1-3.4 5.7 0 8.6 3.3 8.7 10v16.9h-7.1v-16.7c0-1.5-.3-2.6-1-3.4-.7-.7-1.7-1.1-3.2-1.1-2.1 0-3.6.8-4.5 2.4v18.8h-7.1v-37.5h7.1v14zM451.63 428.144c0-1.1.4-1.9 1.1-2.6s1.7-1 2.9-1 2.2.3 2.9 1c.7.7 1.1 1.6 1.1 2.6 0 1.1-.4 2-1.1 2.6s-1.7 1-2.9 1-2.1-.3-2.9-1-1.1-1.5-1.1-2.6zm7.5 33.3h-7.1v-26.4h7.1v26.4zM451.63 296.144c0-1.1.4-1.9 1.1-2.6s1.7-1 2.9-1 2.2.3 2.9 1c.7.7 1.1 1.6 1.1 2.6 0 1.1-.4 2-1.1 2.6s-1.7 1-2.9 1-2.1-.3-2.9-1-1.1-1.5-1.1-2.6zm7.5 33.3h-7.1v-26.4h7.1v26.4zM460.23 140.444c-.3-.6-.6-1.4-.7-2.4-1.7 1.9-3.9 2.9-6.7 2.9-2.6 0-4.7-.7-6.4-2.2-1.7-1.5-2.6-3.4-2.6-5.7 0-2.8 1-4.9 3.1-6.4s5.1-2.3 9-2.3h3.2v-1.5c0-1.2-.3-2.2-.9-2.9-.6-.7-1.6-1.1-3-1.1-1.2 0-2.1.3-2.8.9-.7.6-1 1.4-1 2.3h-7.1c0-1.5.5-2.9 1.4-4.2.9-1.3 2.3-2.3 4-3.1 1.7-.7 3.7-1.1 5.8-1.1 3.3 0 5.8.8 7.8 2.5 1.9 1.6 2.9 3.9 2.9 6.9v11.5c0 2.5.4 4.4 1 5.7v.4h-7zm-5.8-4.9c1 0 2-.2 2.9-.7.9-.5 1.5-1.1 2-1.9v-4.5h-2.6c-3.5 0-5.4 1.2-5.6 3.7v.4c0 .9.3 1.6.9 2.2.4.5 1.3.8 2.4.8z" class="st2"/><g class="st2"><path d="m16.43 70.644 5.2-11.7 3.5 1.5c1 .5 1.8 1.1 2.4 1.9.6.8.9 1.7 1 2.8.1 1-.1 2.1-.6 3.2l-.3.6c-.5 1.1-1.1 2-2 2.6-.8.6-1.7 1-2.8 1.1-1 .1-2.1-.1-3.1-.6l-3.3-1.4zm6.5-9.1-3.8 8.4 1.3.6c1.1.5 2 .5 2.9.1.9-.4 1.6-1.2 2.2-2.5l.3-.7c.6-1.3.7-2.4.5-3.3-.3-.9-.9-1.6-2-2.1l-1.4-.5zM33.23 78.344c-1.2-.6-2.1-1.4-2.5-2.5-.4-1.1-.3-2.3.2-3.6l.1-.2c.4-.9.9-1.6 1.5-2.1s1.3-.9 2.1-1c.8-.1 1.5 0 2.3.3 1.2.5 1.9 1.3 2.2 2.4.3 1 .2 2.3-.5 3.6l-.4.8-5.7-2.5c-.3.7-.3 1.4 0 2 .2.6.7 1 1.3 1.3.9.4 1.8.4 2.7-.1l.6 1.5c-.6.4-1.2.6-1.9.6-.6 0-1.3-.2-2-.5zm3.1-7.5c-.5-.2-1.1-.2-1.5 0-.5.2-.9.7-1.3 1.3l3.7 1.7.1-.1c.2-.7.3-1.2.1-1.7-.2-.6-.6-1-1.1-1.2zM46.73 81.344c.2-.3.1-.7-.1-1-.2-.3-.6-.7-1.2-1.1-.6-.4-1.1-.9-1.4-1.3-.8-.9-.9-1.8-.5-2.7.3-.8.9-1.2 1.8-1.5.9-.2 1.8-.1 2.7.3 1 .5 1.8 1.1 2.2 1.9.4.8.4 1.6.1 2.4l-2-.9c.2-.4.2-.7 0-1.1-.2-.4-.5-.7-.9-.9-.4-.2-.8-.2-1.2-.2-.4.1-.6.3-.8.6-.1.3-.1.6.1.9.2.3.6.7 1.3 1.2s1.2 1 1.5 1.4c.3.4.5.9.6 1.3.1.4 0 .9-.2 1.3-.3.8-1 1.3-1.8 1.5s-1.8.1-2.9-.4c-.7-.3-1.3-.7-1.7-1.2-.4-.5-.7-1.1-.8-1.6-.1-.6 0-1.1.2-1.7l1.9.8c-.2.5-.2.9 0 1.3s.6.7 1.1.9c.5.2.9.3 1.3.2.3.1.5-.1.7-.4zM53.83 87.344l-2-.9 3.9-8.7 2 .9-3.9 8.7zm2.8-11.9c.1-.3.3-.5.6-.6.3-.1.6-.1.9.1.4.2.6.4.7.7.1.3.1.6 0 .9-.1.3-.3.5-.6.6s-.6.1-1-.1-.6-.4-.7-.7c-.1-.3-.1-.6.1-.9zM60.03 84.844c.6-1.3 1.4-2.3 2.4-2.8s2-.6 3.1-.1c1 .4 1.6 1.1 1.9 2.1l.5-.8 1.8.8-3.8 8.4c-.5 1.1-1.3 1.9-2.3 2.2-1 .3-2.1.2-3.3-.3-.6-.3-1.2-.7-1.7-1.2s-.8-1.1-.9-1.7l1.4-.8c.3 1 .9 1.7 1.7 2.1.6.3 1.2.3 1.8.2.5-.2.9-.6 1.3-1.3l.3-.6c-.8.4-1.7.4-2.7-.1-1-.5-1.7-1.2-2-2.3-.3-1.1-.1-2.4.5-3.8zm1.9 1c-.4.9-.5 1.6-.4 2.3.1.7.5 1.1 1.1 1.4.8.4 1.5.3 2.2-.2l1.7-3.8c-.1-.8-.5-1.4-1.3-1.8-.6-.3-1.3-.3-1.8.1-.6.3-1.1 1-1.5 2zM75.83 86.744l-.4 1c1-.5 2-.5 3 0 1.8.8 2.3 2.3 1.4 4.3l-2.6 5.7-2-.9 2.5-5.6c.2-.6.3-1 .2-1.4-.1-.4-.5-.7-1-.9-.8-.4-1.5-.3-2.2.3l-2.8 6.2-2-.9 3.9-8.7 2 .9zM85.53 101.644c-1.2-.6-2.1-1.4-2.5-2.5-.4-1.1-.3-2.3.2-3.6l.1-.2c.4-.9.9-1.6 1.5-2.1s1.3-.9 2.1-1c.8-.1 1.5 0 2.3.3 1.2.5 1.9 1.3 2.2 2.4.3 1 .2 2.3-.5 3.6l-.4.8-5.7-2.5c-.3.7-.3 1.4 0 2s.7 1 1.3 1.3c.9.4 1.8.4 2.7-.1l.6 1.5c-.6.4-1.2.6-1.9.6-.5 0-1.2-.2-2-.5zm3.1-7.5c-.5-.2-1.1-.2-1.5 0-.5.2-.9.7-1.3 1.3l3.7 1.7.1-.1c.2-.7.3-1.2.1-1.7-.2-.6-.5-1-1.1-1.2zM100.73 99.944c-.2-.2-.5-.3-.8-.4-.9-.4-1.6-.3-2.3.2l-2.6 5.9-2-.9 3.9-8.7 1.9.8-.4 1c.8-.5 1.6-.6 2.5-.3.3.1.5.3.6.4l-.8 2z"/></g></svg>