<svg version="1.1" id="レイヤー_1" xmlns="http://www.w3.org/2000/svg" xmlns:xlink="http://www.w3.org/1999/xlink" x="0" y="0" viewBox="0 0 515 572" style="enable-background:new 0 0 515 572" xml:space="preserve"><style>.st2{fill:#fff}.st4{enable-background:new}.st5{fill:#222}</style><g transform="translate(42.526 69.803)"><circle cx="221.5" cy="221.5" r="221.5" style="fill:none"/><circle cx="221.5" cy="221.5" r="216.5" style="fill:none;stroke:#222;stroke-width:10"/></g><path class="st2" d="m119.9 497.8-2.2 23.9V538l2.3 19.1 5.8 7.2 3.9 1.3h12.6s12.9-1.1 13.4-1.3c1.3-.8 2.6-1.6 3.8-2.5l.7-9 .6-4.5-6.6-6-5-18.4-5-9.6-3.3-8.9-2.9-1.9-2-7.6-16.1 1.9zM48.7 509.1l-11.8 9L15.6 538l-10.9 6.4-3.3 7.2 3.6 6.8 9.3 1 23 1.7 9.2-2 5.1-4.2H65l5.9-.6 1.4-4.6.3-8.1.9-19.6 3.9-1.9 2-3.9-9.1 3.6-1-5.5.9-7.8-21.5 2.6zM69.7 87.8l-1.6-6.3-7.3.3c-1.9.1-3.7-.9-4.6-2.6L53 73.7l-4.7-15.9L41 46.4 37.9 35 40 22.6l2.8-7 5.5-7.5 9.9-5.8H78l8.2 3.1c1.6.6 3.4.9 5.2.9h2.3l9.3 3.8 6.3 8.6 4.2 15.1-5.7 20.2-5.8 6.8c-2.2 2.3-3.5 5.3-3.5 8.4L97.3 81l2.5 13.6-20.4 10-13-5.7 3.3-11.1z" transform="translate(178.574 2.438)"/><path d="M2.9 550.1c-.8 1.7.1 3.2.5 4.8.2.7.9 1.2 1.2 1.9.3.5.6 1.2.4 1.6-.4.8-1.2.6-1.9.1-1.9-1.1-3-3-3.2-5.1 0-1.3.2-2.6.6-3.9.1-.4.4-.8.8-1 1.3-.3 1.4-1.4 1.9-2.3.3-.7.8-1.2 1.4-1.7.4-.2 1.1.1 1.6.1-.1.5-.2.9-.4 1.4-.4.9-.8 1.8-1 2.8 0 1.8 0 2-1.9 1.3z" transform="translate(178.574 2.438)"/><path d="M154.1 542.4c-.5-1.2-1.2-2.4-1.6-3.7-1.7-4.8-3.4-9.7-5-14.5-.2-1.2-.5-2.5-.9-3.7-.6-1.1-1.3-2.1-2.2-3-1.1 1.1-2 .8-2.8-.4-.2-.3-.9-.3-1.6-.5.3 1.5.5 2.7.8 4h1.7c1.7 0 3.1 1.5 3.1 3.2v.2c0 .3-.4.8-.7.8-.5 0-1-.2-1.4-.4-.6-.4-1.1-.7-1.6-1.2-.6 2.4-.1 3 2.1 3.1 1.6 0 2.8.9 3 2.3 0 .5-.2 1.1-.6 1.5-.3.2-1-.2-1.4-.4-.6-.3-1.2-.5-1.8-.7 0 1.1-.1 2.1 1.4 2.1.8.1 1.6.6 2.1 1.2.3.6.3 1.3-.1 1.8-.4.3-1.3.1-2.1.1l-1.1 1.3c1.6.4 3.2.7 4.7 1.2.7.2 1.4.5 2 .8.7.3 1.1 1 .8 1.7 0 .1 0 .1-.1.2-.4.8-1.2.8-2 .5-2.9-1.2-6-1.8-9.2-1.8-.6 0-1.1.1-1.8.2.3.6.5 1.1.7 1.7.9 0 2-.4 2.2.9.1.4-.7 1.2-1 1.1-.7-.2-1.3-.6-1.7-1.2-.7-.2-1.6 1.3-2.3-.1-.3-.6.4-1.6.7-2.5-.5.1-1.1.1-1.6 0-.6-.2-1.1-.5-1.6-.9.4-.4.8-.9 1.2-1.3.1-.1.2-.2.3-.2.1-1.1-.4-1.5-1.5-1.2-.4.1-.8.2-1.2.1-.3 0-.8-.4-.8-.5 0-.5.1-.9.4-1.3.6-.4 1.2-.7 1.9-.9-.2-.5-.3-1.1-.4-1.6-.2-.8-.4-1.3-1.5-1.1-.4.1-1-.5-1.5-.8.3-.5.6-1.2 1-1.3 1.2-.4.9-1.2.7-2-.2-.9-.8-.6-1.5-.5-.5 0-1-.1-1.5-.3.2-.5.2-1.4.5-1.5 2.2-.8 1.4-2.2 1-3.6-.1-.4-.3-.8-.4-1.1-2.2.4-5.7 5.4-5.9 8.5.7-.9 1.4-1.6 2.1-2.4.4-.5 1-1 1.6-.3.2.5.2 1 0 1.5-.8 1.6-1.7 3.1-2.7 4.6-.6 1-.8 2.2-.3 3.3.9-1.1 1.8-2.2 2.5-3.2.4-.6 1-1 1.5-.5.3.4.4 1 .2 1.5-.7 1.4-1.5 2.8-2.4 4-1.4 1.6-1.8 3.8-1.3 5.9.7-1.1 1.4-2.3 2.2-3.4.3-.4.7-.7 1.2-.8.5-.1.9.1 1.2.4.2.2-.1.8-.2 1.2s-.5.5-.7.8c-1.6 2.8-1.5 3.7 1.1 5.5 1.2.9 2.7 1.3 4 2.1.5.4 1 .9 1.3 1.5-.6.3-1.2 1-1.7.9-2.5-.1-4.9-1.4-6.3-3.5-.2-.2-.3-.5-.3-.8.1-1.1-.6-1.6-1.5-1.9v5.1c0 1.3.2 2.6.1 3.9-.1.5-.3.9-.8 1.1-.5.1-1.5.1-1.7-.2-.6-.7-.9-1.6-1.1-2.5-.2-2.2-.2-4.4-.2-6.6-.1-4.1-.3-8.2-.5-12.7-.2.3-.4.6-.5 1-.3 2-.8 4-.9 6.1 0 1.3.1 2.7.4 4 .3 2.1.6 4.2.9 6.4.1.8-.1 1.6-1 1.6-.7-.1-1.2-.5-1.5-1.2-.3-1.4-.3-2.9-.5-4.3-.1-1.6-.4-3.1-.9-4.6-.7-1.7-.3-3.3-.1-5 .2-.9.1-1.8 0-2.6-1.4-4.8-1.4-10 .2-14.8.3-1.2.6-2.3 1.1-3.5.4-.5.9-.9 1.5-1.2.8-.4 1.6-.7 2.4-.9.6-.1 1.2-.2 1.8-.2.1-1.2.4-2.6.5-4 0-1.2.9-2.2 2.1-2.5 1.5-.5 3-.9 4.5-1.2.4-.1.9.4 1.4.6-.3.4-.5 1.1-.9 1.3-2.1 1.2-2.2 1.4-1.8 4 .2 1.5.4 3 .6 4.8h1.8c1.1-.1 2.1-.3 3.2-.6.5-.2 1-.5 1.3-1 .5-.9 1.1-1.2 1.7-.5.8 1 1.6.7 2.5.6-.4-1.9-.7-3.8-1.3-5.5-.2-.5-1-.8-1.5-1.2l-.4.3c.2 1.1.3 2.1.3 3.2-.1.6-.3 1.1-.6 1.6-.5-.4-1.4-.6-1.6-1.1-.2-1.2-.4-2.4-.5-3.5-.1-.4-.2-.9-.5-1.2-.5-.5-1-.9-1.5-1.3l2.1-1.6c-.1-.5-.3-1.6-.5-2.8-4.7 1.5-9.7 2.1-14.6 1.6v1.7c0 1.7 0 3.5-.1 5.2 0 .4-.7.8-1 1.2-.4-.4-1-.8-1-1.2-.1-1.9-.2-3.8-.1-5.7.1-1.6-.1-2-1.8-2-.9.1-1.8-.3-2.5-.9-.9-.9-2.2-.5-3.3-.1-1.5.4-3-.5-3.4-2-.1-.2-.1-.4-.1-.6.1-3.3.4-6.6.4-9.9.1-4.1 0-8.2-.1-12.2-.1-3.2-.4-6.3-.7-9.5-.1-.8-.2-1.7-.3-2.6-1.8-.4-3.1-2.1-3-3.9-.1-3.6-.1-7.2-.1-10.7 0-1.2.1-2.4 0-3.6-.1-.4-.3-.8-.6-1.1-.8-.7-1.7-1.1-2.4-1.8-1.4-1.2-1.6-3-1.8-4.7-.3-2.7.7-5.2 1.3-7.8.1-.4 0-.9-.1-1.3-.5-1.7-1.1-3.4-1.6-5.1l-1.5-5.7c0-.1 0-.3-.1-.4-1.6-1.1-.9-2.8-1.1-4.3l-.8-7.6c-.5-4.1-1-8.3-1.4-12.4-.4-5.3-.8-10.7-1-16.1-.1-2.8-.1-5.7-.1-8.5 0-5.1.2-10.1 0-15.2-.1-2.8-1-5.6-1.2-8.4-.3-3.7-2.2-6.8-2.7-10.4-.3-1.8-.4-3.6-.6-5.5-.3-3.6-.4-7.3-1-10.8-.3-1.8-1.7-3.4-2.6-5.1-.8-1.3-1.7-2.5-2.4-3.9-.6-1.2-1.4-1.8-2.7-1.5h-1.2c-.2 2.9-.3 5.8-.5 8.7-.3 4.2-.7 8.4-.9 12.7-.2 2.5-.2 5.1-.2 7.6 0 5.3.1 10.6-.1 16-.2 5.8-.6 11.5-.9 17.2-.1 2.2 0 4.5.1 6.7.1 2.6.3 5.1.6 7.7.3 2.3-.6 4.3-.9 6.5-.3 2.6-.6 5.2-.9 7.9-.4 3.3-.8 6.6-1.1 10-.2 2.1-.2 4.3-.4 6.4-.2 1.5-.6 3-.8 4.5 0 .4.1.9.2 1.3 1.6 4.8 2.5 9.8 2.5 14.9.2 1.4.4 2.7.7 4.1.4 3.2.8 6.5 1.2 9.7.4 3.6.7 7.2 1.1 10.7.1.9.1 1.9.3 2.8.1.7.3 1.3.7 1.8 1 1 1.6 2.5 1.5 3.9-.2 3.6-.2 7.1.1 10.7.2 2.8.3 5.5.2 8.3 0 4.7-.3 9.4-.4 14.1v1.2c-.1 3.6-.6 3.6-3.1 4.2s-4.9 1.3-7.5 1.7c-1.8.3-3.7.3-5.6.6-1.6.2-3.1.7-4.6 1.1-.7.2-1.4.2-2.3.4 3.1 1.6 2.9 4.6 3.1 7.3.1.9.1 1.8 0 2.7-.1 1-.4 2.1-2 2.1 1.4 1.4 3.3 2.4 5.2 2.7 1.2.3 2.5.4 3.7.6.7.1 1.1-.2 1.4-.9.8-1.9 1.8-3.8 2.7-5.7-.2-.1-.4-.1-.5-.2-1.3-.1-2.4-1.2-2.3-2.5-.1-1.8 0-3.6 0-5.5l2.2-.1c.8 2.2-.2 4.5.7 6.3 2-1.2 3.9-2.4 5.8-3.4 1.1-.6 2.4-.9 3.5.2 1 1.1 1.1 2.8.4 4-1.3 2-3.4 3.4-5.8 3.8-.4.1-1.2-.4-1.2-.7-.1-.6 0-1.3.4-1.8 1.1-.9 2.5-1.5 3.7-2.3.4-.3.7-.8.8-1.3-2.7.5-5.1 2.2-6.5 4.5 1.7 1.5.9 3.4.9 5.3 0 2.7.2 5.5.1 8.2-.1 2.5-.3 5.1-.5 7.6 0 .8-.6 1.4-1.3 1.4h-.4c-.9-.1-1.3-.8-1.2-1.8.3-3 .6-6.1.8-9.1 0-.3-.1-.7-.1-1l-2.9 1.2c.7.8 1.5 1.2 1.6 1.9.2.9-.5 1.5-1.5 1.7l-4 1c-.8 1.7-1.9 3.8-3.1 6.1.6-.1 1.2-.2 1.8-.4 1.5-.6 2.9-1.3 4.4-1.8.7-.1 1.4 0 2.1.2-.2.7-.2 1.7-.7 2.1-.9.7-1.9 1.3-2.9 1.8l.1.4c1.7-.1 3.4-.2 5-.5.9-.2 1.4-.2 1.7.8.9 2.6.6 5.5-.9 7.8-.2.3-.5.6-.9.7-2.6.5-5.2 1-7.8 1.2-2.5.2-5 .1-7.5.2-.6.1-1.1.3-1.6.6-.3.1-.6.4-.9.5-1.8.6-3.7 1.1-5.6 1.6-.5.1-1.1-.3-1.6-.5.3-.4.4-1.1.8-1.3 1.2-.7 2.6-1.2 3.9-1.8v-.3c-.3-.6-.7-1.1-1-1.7.6-.2 1.3-.3 1.9-.3 4.8.9 9.6.2 14.3-.5 1-.1 2.1-.3 3.1-.5l.9-.3v-.4c-.4-.1-.7-.1-1.1-.1-4.4-.2-8.9-.4-13.3-.5-.7 0-1.2-.4-1-1 .3-.4.8-.7 1.3-.8 2.9-.1 5.7 0 8.6 0v-.5h-5.2c-.2 0-.4 0-.5-.1-1.9-2.3-4-.7-6-.1s-3.7 1.6-5.6 2.4c-1 .4-1.9 1.2-3.2.6-.1-.1-.4.1-.6.2-2.9 1.8-6.3 2.9-9.7 3.1-3.2.4-6.5.3-9.6.8-4.2.6-8-.5-11.9-1.7-1.5-.5-2.9-1.1-4.3-1.7-.7-.3-1-1-.7-1.7 0-.1.1-.2.1-.3.5-.7 1.2-.3 1.9.1 1.1.5 2.3.8 3.4 1 2.5.7 5.1 1.2 7.8 1.5 2.8 0 5.6-.3 8.4-.7 2.5-.2 4.9-.3 7.4-.7 1.6-.2 3.2-.8 4.8-1 .9-.1 1.7-.1 2.6 0v.3l6.7-4.1c-2.3-1.8-4.7-3.7-7.1-5.6-.7-.5-1.3-1.1-1.8-1.8-.2-.4-.2-.9 0-1.3.6-.2 1.2-.2 1.7 0 1.1.7 2.1 1.5 3 2.3-1.2-3.3.6-5.3 2.1-7.5.5-.6.8-1.4 1.2-2.1.3-.4.7-.7 1.1-1 .3.4.6.9.8 1.4.2 1 .5 1.9.8 2.9.6 1.2 2.1 1.7 3.3 1.1 2.4-.9 4.8-1.9 7.1-2.8 1.1-.4 2.1-1.1 3.3-.2.2.1.8-.2 1.2-.4 1.4-.9 2.8-1.8 4.8-.9v-3c-1.5 2.6-3.5 2.7-5.7 2-.7-.2-1.3-.3-2-.3-2.4-.3-4.7-1.5-6.3-3.3-1.3-1.4-1.2-1.9.2-2.5v-5.4c0-.9.1-1.9.1-2.8 0-.3-.2-.5-.5-.7-.2-.1-.6.2-.7.4-.6 1.1-1.2 2.3-1.8 3.4-.9 1.8-1.5 2-3 .8-1.4 1.3-2.8 1.4-4.5.3l-3.3-2.1c-.1-.1-.3-.1-.4-.1-.3.5-.8 1-1.3 1.4-.5.3-1 .4-1.5.2-.3-.2-.4-1-.3-1.5.2-.5.5-1 .8-1.4.7-1.1 1.3-2.1 2.1-3.1 1.3-1.9 1.8-2.1 5-2.9l-1.9-.9.1.4c-1.4.5-2.9.9-4.4 1-.6 0-1.4-1.2-1.7-2-.8-2.2-.4-4.6-.1-6.9.1-1 .6-2 .4-2.9-.2-1.2-.7-2.3-1.5-3.2-2.8-2.5-2.3-5.3-1.1-8.1 1-2.5 2.5-4.8 3.7-7.2.3-.8.4-1.7.4-2.5-.1-1.8-.2-3.6-.4-5.5-.3-3.6-.7-7.2-1.1-10.8-.5-5.1-1-10.3-1.5-15.4-.1-2.3-.3-4.5-.6-6.8-.7-3.4-.8-6.9-2.6-10-.1-.3-.1-.5-.1-.8l-3-18.9c-.1-.6-.8-1-.9-1.6-.4-1.8-.8-3.7-1-5.6-.4-4.5-.5-9.1-1-13.7-.3-3.6-.9-7.1-1.5-10.6-.7-3.8-1.5-7.6-2.2-11.4-.3-2-.5-4-.7-6-.2-3.2-.5-6.5-.6-9.7l-.3-8.4c-.2-3.8-.4-7.7-.7-11.5 0-.5 0-1.1.1-1.6.4-2.1-.6-3.8-1.1-5.7-.7-2.9-1.5-5.8-1.1-8.9.2-1.5.5-3.2 1.4-4.2 2.1-2.3 2.2-4.7 1.6-7.4-.4-1.7-.4-3.5-.6-5.3 0-.3-.1-.5-.1-.8-2.3.3-2.7 0-3.8-2.1-1.6-3-3.3-6-4.9-9.1-1.3-2.5-1.5-5.4-.5-8.1 1.3-4 2.5-8.1 4.1-12.1.9-2.2.3-4.2-.1-6.2-.6-3.2-1.5-6.2-2.3-9.4-.6-2.5-1.1-5-1.7-7.6-.6-2.7-1.3-5.5-1.8-8.2-.5-2.4-.7-5-1.2-7.4-1.1-4.8-2.3-9.5-3.4-14.2-.7-3.1-1.4-6.2-1.9-9.3-.3-1.7-.2-3.5-.4-5.2-.1-.4-.3-.7-.6-.9-1.2-.5-1.8-1.7-1.4-3 .7-3 1.5-5.9 2.4-8.9 1-3.4 2.2-6.8 3.3-10.2 1.3-4.1 2.5-8.3 3.7-12.5.8-2.8 1.1-5.7 2-8.5 1.3-4.2 2.8-8.3 4.2-12.4 1-3 2-6 3-9.1 1-3.2 2.1-6.3 3-9.5.7-2.6 1.1-5.3 1.9-7.9.4-1.3 1-2.6 1.7-3.8.4-.7 1-1.2 1.5-1.9 1.3-2.1 3.4-3.6 5.8-4.1 2.7-.8 5.2-2.5 7.8-3.8 3.1-1.5 6.2-2.9 9.2-4.6 4.2-2.4 8.3-5.1 12.5-7.6.1-.1.1-.2.2-.2 2.6-.8 2.8-2.7 2.5-5-.1-.9-.3-1.1-1.2-1.1-2.3-.1-4.6-.3-6.8-.4-.9-.1-1.4-.7-1.2-1.4.3-.5.9-.9 1.5-.9 4.6-.5 9.3-1 13.9-1.4.5 0 1 .1 1.5.3-.2.7-.1 1.6-.5 1.9-1.1.7-2.4 1.2-3.7 1.4-1.2.2-1.4.7-1.3 1.8.2 3.2.3 6.3.4 9.5.2 1.3-.2 2.6-1.1 3.5-.7.6-.3 2.2.4 2.9 1.8 1.8 4 2 6.3 1.5 2.7-.5 5.4-1.3 8-2.2 2.8-.9 5.5-2.2 7.9-3.8 3.3-2.3 4.7-5.7 4.1-9.9-.3-3.1-.5-6.2-.5-9.3-.1-3.2-.2-6.5-.3-9.7v-1.9c.1-.6.1-1.1 1.1-1.1s.9.6 1 1.1c.3 2.8.5 5.5.8 8.3.2 1.9.5 3.7.8 5.6.1.3.6.9.9.9 3.2-.1 5.7 1.3 8 3.1 2.4 1.9 5.2 3.2 8.1 3.9 4.2 1 8.4 2.2 12.6 3.4.9.4 1.8.8 2.6 1.3 2.7 1.3 5.5 2.5 8.2 3.9 3.7 1.9 7.3 4 10.9 6 .7.3 1.4.6 2.1.6 2.1.2 4 1.7 4.6 3.7.6 1.6 1 3.3 1.5 5 .6 2 1.3 3.9 1.7 5.9.6 2.2.8 4.6.4 6.8-.3 1.3.1 2.7.3 4.1.3 2.6.6 5.1.9 7.7.4 3.3.8 6.6 1.2 9.8l1.2 10.2 1.2 11.1c.6 4.8 1.3 9.6 1.8 14.4.4 3.3.6 6.5.6 9.8-.2 2.2-.8 4.3-1.7 6.3-1.8 4.6-3.7 9.2-5.6 13.8-1.2 2.8-2.5 5.6-3.6 8.5-1.2 3.1-2.3 6.4-3.4 9.5-.7 2.1-1.6 4.2-2.2 6.3-1.1 3.6-2 7.3-3 11l-1.2 4.8c-.1.5-.4 1-.9 1.3-1.5.7-1.5 2.1-1.8 3.3-.7 2.6-1.4 5.3-2.1 7.9-.3 1.3-.6 2.7-.8 4.1-.3 2.1-.9 2.8-3.6 2.8 1.1 3.8 2.2 7.5 3.2 11.2.8 3.4.9 6.8.4 10.2-.5 3.9-1.5 7.8-2 11.7-.8 5.6-1.2 11.3-1.9 16.9-.4 3.3-1.1 6.6-1.6 9.9-.4 2.6-.5 5.3-.7 8 0 .7.3 1.3.7 1.8 2 2.2 1.8 5 1.7 7.5-.3 5.1-.9 10.2-1.2 15.4.1 2 .2 3.9.5 5.9.1 2.1.1 4.3.1 6.4 0 2-.2 4-.2 6-.1 3.3-.1 6.7 0 10 .1 3 .5 6 .7 9.1.1 1 0 2.1.1 3.1 0 1.4.2 2.7.6 4 2.1 4.7 1.6 8.7 1.9 14.4.1 2 .5 4 .6 6 .2 2.2.4 4.4.3 6.5 0 3.1-.3 6.2-.4 9.3 0 1.1.1 2.2.1 3.4 0 4.3 0 8.6-.1 12.9 0 2.1-.3 4.3-.3 6.4 0 2.2.3 4.5.3 6.7 0 1.8-.2 3.5-.1 5.3.1 2.3.5 4.5.7 6.8.2 3 .4 6 .6 8.9 0 .8 0 1.6-.1 2.4-.1 1.9-.5 2.4-2.3 3-.3.1-.7.2-1 .3-1.1.2-1.3.7-1 1.8.4 1.7.8 3.2 2.6 4.1.6.5 1.1 1.2 1.2 2.1.7 2.3 1.8 4.5 3.3 6.4 1.7 2.1 2.9 4.6 3.5 7.3l.3.9c.1.1.2.3.6.3-.3-.6-.5-1.2-.6-1.8-.1-.5 0-1.3.3-1.5.5-.2 1-.1 1.4.2.6.9 1 1.9 1.3 2.9.3.8.6 1.2 1.5 1.1.9-.1 1.7-.1 2.6-.1 2.1-.2 3.9 1.4 4.1 3.5.2.9.3 1.9.3 2.8 0 .4-.5 1.2-.8 1.2-.6 0-1.1-.3-1.4-.8-.5-1-.6-2.1-1-3.1-.2-.5-.6-.9-1.2-1-1.7-.1-3.5 0-5.3 0 1 3.2 2.1 6.2 3 9.2.7 2.2 1.4 4.5 2.1 6.7.1.3.2.6.4.7 2.3 1.3 3.4 3.6 4.3 5.8.3.7-.2 1.8-.4 2.8 1.9.9 1.3 3.1 1.4 5 0 2-.1 3.9-.4 5.9 0 .8-.5 1.5-1.4 1.7-1.3.4-2.4 1.5-3.7 1.8-3.2.9-6.6 1.5-9.9 1.8-3.8.1-7.6 0-11.4-.3-1.4-.2-2.8-.6-4.1-1.1-.8-.1-1.3-.9-1.2-1.7v-.2c.3-1 1.2-.6 2-.5 2.7.7 5.4.9 8.2.7 3.3-.3 6.6-.4 9.9-.8 2.9-.5 5.7-1.1 8.5-1.9.3-.1.4-.8.5-1.2.3-1.7.5-3.4.7-5.1l-.4-.2c-.3.4-.7.8-1 1.3-.6 1-1.6 1.7-2.7 2.1-3.8 1.1-7.8 1.5-11.7 1.2-1-.1-1.6-.7-1.5-1.5.2-.6.7-1.1 1.3-1.3 2-.3 4-.4 6-.7 2.5-.5 5.2-.5 7.3-2.3 1-1 1.7-2.2 1.9-3.6.2-.8-.2-1.5-1.3-1.7-1.1-.2-2.1-.5-3-1-.5-.3-.7-.9-.7-1.5 0-.3.8-.7 1.3-.9l1.5-.3-2.2-2.6v.8zM82.3 246.2c.1.3.2.6.2.9 0 .7.6 1.3 1.3 1.3h.2c.5-.1 1-.8 1.4-1.4.2-.4.3-.9.3-1.3l.9-9.3c.4-3.8.9-7.7 1.3-11.5.4-3.6.7-7.2 1.3-10.8 1.4-7.8 3.1-15.5 3.8-23.4.4-4.3.7-8.6 1-12.9.2-2.9.4-5.8.7-8.7.5-5.3 1-10.5 1.5-15.8.3-3.5.8-7 1.1-10.4.4-4 .9-8 1.3-12 .4-4.2.8-8.4 1.2-12.7.3-4.1.5-8.2.8-12.4.2-3.7.5-7.4.7-11.1 0-.3-.4-.7-.6-1.1-.4.3-.9.4-1 .8-.2.7-.3 1.4-.4 2.1-.2 2.8-.4 5.6-.7 8.4L97.4 116c-.3 3.5-.6 7-1 10.4-.7 5.2-1.5 10.3-2.2 15.5-.6 4.7-1 9.4-1.5 14.1-.6 5.3-1.2 10.6-1.7 16-.4 4.7-.6 9.5-1.1 14.2-.5 4.9-1.1 9.8-1.9 14.7-.7 4.4-1.7 8.8-2.3 13.2-.7 4.5-1.3 9.1-1.8 13.7l-.9 8.1c-.1 3.4-.4 6.8-.7 10.3zm39.2 54.2c-.1-.8-.1-1.5 0-2.3.4-2.6.8-5.2 1.4-7.8.4-2.1.9-4.1 1.5-6.1.3-.7.2-1.4-.2-2-.7-1.5-1.2-3-1.7-4.6 0-.4.3-.8.6-1 .4 0 .9.2 1.1.5.6.9.9 1.9 1.4 2.9.5 1.1 1.7 1.6 2.8 1.2 1.2-.5 2.5-.8 3.9-1 1.7.1 3.4.2 5.1.5-.6-3-1.1-6-1.8-8.9-.5-2.1-.2-4.5-1.9-6.2-1-1-1.8-2.6-3.1-3.1-1.2-.5-2.2-1.2-3.1-2.2-.3-.4-.7-.6-1.2-.9-2-.8-4.1-1.6-6.2-2.4-.8-.3-1.6-.4-2.5-.7-.3.9-.4 1.7-.7 2.4-1.1 3.1-2.3 6.1-3.4 9.2-.1.4 0 .7.3 1 1.8.9 3.5 2.1 5.1 3.4.7.4 1.1 1.3.9 2.1-.7 6.2-1.4 12.5-2 18.7-.1 1.4.1 2.9.7 4.1.6 1.3 1.8 2 3 3.2zm-6.7-152c-.5.5-.9 1-1.3 1.6-1.4 2.8-2.7 5.5-3.9 8.4-2.2 5-4.2 10-6.4 15-2.1 4.3-3.7 8.8-4.7 13.5-.4 1.9-.9 3.8-1.2 5.8-.1.4.2 1.2.5 1.2.5.1 1-.1 1.4-.4.7-1.2 1.3-2.5 1.7-3.9 1-4.3 2.5-8.4 4.4-12.4 1.4-3.3 3-6.5 4.4-9.8 1.5-3.5 2.8-7 4.2-10.4.9-2.2 1.5-4.6 3.4-6.3 1.5-1.3 1.4-2.8.3-4.3-.5-.9-1-1.8-1.4-2.7-.7-1.5-1.3-3.1-2-4.7-.7-1.5-1.3-3.1-1.7-4.8-.5-1.9-.1-2.2 1.7-2.9 1.7-.7 3.4-1.5 5-2.5 1.5-.9 2.3-2.6 2-4.4-.2-1.9-1-3.7-2.2-5.2-1.4-1.8-2.6-3.6-3.8-5.5-1.3-2.5-2.4-5.1-3.4-7.7l-5.7-13.8c-.1-.3-.7-.7-.9-.7-.4.2-.7.5-.7.9 0 .6.1 1.2.3 1.7 1.8 4.9 3.7 9.7 5.4 14.6 1.6 4.6 4.2 8.7 6.9 12.6 2 3 1.5 4.9-1.9 6.2-1.6.6-3.3 1.2-4.8 1.8-.4.2-.8.5-.9 1-.4 2-.3 4 .3 6 .6 1.4 1.3 2.7 1.8 4 1 2.6 2.1 5.3 3.2 8.1zm-51.6-45.7-.7-.1c-.3.5-.5 1-.6 1.5-.1 4.5-.1 9-.3 13.6-.3 7.5-.9 14.9-1.2 22.3-.3 5.1-.4 10.1-.6 15.2-.1 3.5-.3 7-.2 10.5.1 7.6.4 15.3.6 22.9.1 1.9.1 3.7.3 5.6.5 4.5 1.1 9.1 1.8 13.6.3 2.1.6 4.2 1 6.2.2.9.7 1.6 1.7 1.4.6-.3 1-.8 1.1-1.4.1-1 .1-2-.1-2.9-.6-4.7-1.3-9.4-1.8-14.1-.4-4.3-.7-8.7-1-13-.2-3.6-.3-7.1-.4-10.7-.1-2.6 0-5.2-.1-7.8 0-3.5-.1-7-.1-10.4.1-5 .3-10 .4-15 .1-5.4.3-10.8.4-16.3l.3-17.1c-.1-1.5-.2-2.8-.5-4zm-13.5 40.8c-1.8 2.9-3.5 5.8-5.2 8.7-2.3 3.5-4.1 7.2-5.3 11.1-.3.9-.2 1.9.3 2.8 1.9 2.6 3.1 5.6 3.7 8.7 1.2 6 2.1 12.1 3.2 18.1.6 3 1.5 6 2.4 8.9.2.8.6 2.1 1.7 1.5.5-.2.7-1.6.6-2.4-.6-3.4-1.4-6.7-2-10.1-.9-4.8-1.6-9.6-2.4-14.4-.5-4.1-2-8-4.2-11.5-.3-.4-.3-.9-.2-1.3 1.5-3.2 2.9-6.3 4.5-9.4s3.5-5.8 5.3-8.8c1-1.4.8-3.5-.5-4.6-1.8-1.4-3.5-2.9-5.5-4.1-1.2-.7-1.8-2.2-1.2-3.5.8-2.7 1.6-5.4 2.7-8 1-2.7 2.3-5.3 3.5-7.9 1.9-4 3.7-8.1 6.6-11.5.2-.2.2-.5.2-.8-.2-.2-.6-.5-.8-.5-.6.1-1.1.4-1.5.8-2 3.1-4 6.3-5.8 9.5-1.4 2.4-2.6 4.9-3.6 7.5-1.5 3.7-2.9 7.5-4.2 11.4-.7 1.8 0 3.8 1.6 4.9 1.9 1.5 3.9 3.2 6.1 4.9zM23.1 292.4h.3c.1-.6.1-1.2.1-1.8-.2-.8-.3-1.7-.3-2.6.5-3.6 1.1-7.1 1.7-10.7.1-1 .6-1.9 1.2-2.6 1.9-1.9 3.9-3.7 5.9-5.5.8-.8 1.7-1.5 2.5-2.3s1-2.3.4-2.7c-1.2-.8-2.5-1.4-3.9-1.8-1.5-.1-3.1.1-4.6.4-2.9.3-5.3 2.3-6.1 5-1.7 3.9-2.7 8.1-2.9 12.3 0 .8.2 1.7.6 2.4.7 1.5 1.4 2.9 2.2 4.3.9 2 1.9 3.8 2.9 5.6zm103.4 12.9c.7-1.9 1.4-3.6 1.8-5.3.8-3 1.4-6.2 2.1-9.2.3-1.1.7-2.1 1.1-3.2 1.5.4 1.5 1.1 1.3 2.1-.5 3.2-.9 6.4-1.5 9.5-.3 1.9-.3 3.8-1.6 5.5-.4.5-.6 1.1-.7 1.7-.1.6-.1 1.3 0 1.9h.5c.3-.3.6-.6.9-1 1.3-2.8 3.2-5.2 3.8-8.4.8-3.7 1.8-7.4 3.1-11 .5-1.6-.8-4-2.4-4.2-1.9-.5-3.9-.4-5.8.2-.4.2-.9.2-1.3.2-.9-.1-1.3.3-1.4 1.2-.6 4.4-1.1 8.7-1.7 13.1-.1.8-.4 1.6-.9 2.3-.4.4-1.3.1-2.2.1 1.6 1.2 2.3 3.6 4.9 4.5zm5.2-152.4h.3c-.1 1.1 0 2.2.1 3.4.1.5.6 1.3 1.1 1.4.8.2 1.1-.7 1.2-1.4v-.8c0-1.5-.1-3.1 0-4.6.2-3.4.3-6.7.7-10.1.5-4.1 1.4-8.1 2.1-12.2.1-.3-.2-.7-.4-1.1-.4.2-.8.4-1.1.6-.2.3-.3.6-.3.9-.7 3.4-1.6 6.8-2.1 10.2-.7 4.7-1.1 9.2-1.6 13.7zm7.5-30.9c.1.1.4.7.7.7.5-.1.9-.4 1.2-.8.5-1.3.7-2.7 1.1-4 1.6-4.5 4-8.6 7.1-12.3.3-.4.1-1.1.1-1.6-.5.1-1.3.1-1.6.5-2.5 2.6-4.5 5.6-6.1 8.8-1.5 2.7-2.3 5.7-2.5 8.7zm-14.9 391.9c-.3.5-.6.9-.9 1.3-.5.7-1.2 1.4-1.3 2.2-.1 1.6-.1 3.1.1 4.7 0 .2.2.4.3.7 2.8-1.9 3.8-5.5 6.9-6.9.2-.1.2-.5.4-.8-2.9-1.6-1.4-4.4-2.1-7.1-.4.6-.7.9-.7 1.2 0 1.7.1 3.4.1 5.1.1.3 0 .7 0 1.1-.2.4-.5.8-.8.9-.4 0-.8-.2-1.1-.5-.5-.7-.8-1.2-.9-1.9zm-76 20.3-.5.1c-.3.9-.6 1.7-.8 2.6-.3 1.4.3 2.1 1.7 2.3 2.3.4 4.6.3 6.8-.3 1.1-.4 2.1-.7 3.2-.9 1.9-.3 2.6-1.1 2.7-3.2-.7.3-1.3.6-1.9.8-1.7.8-3.6 1.4-5.4 1.8-2.5.5-5-.8-5.8-3.2zm1.7 11.6 7.7-1.9c.2-.9.4-1.9.6-3.1-3.3 1.7-6.6 1.6-10 1.3.4 1.5 2.8 1.8 1.7 3.7zm1.6-32.8c-1.7-.5-3.3-1-4.9-1.4-.3 0-.5 0-.7.2-.6.6-1.1 1.3-1.6 2-.1.4 0 .9.3 1.3 1.1.8 2.3 1.5 3.5 2.2l3.4-4.3zm80.8 5c.2.9.4 1.7.6 2.6.1.8.8 1.3 1.5 1.2.1 0 .3 0 .4-.1 1-.3 2.1-.5 3.3-.8-.2-1.3-.5-2.5-.7-3.7l-5.1.8zm2.2 6.3c-.2 2.3-.1 2.5 2 2.4h.8c1.8-.1 1.9-.1 1.4-1.8-.2-.4-.6-.7-1-.8-1.1-.1-2.1 0-3.2.2zm5.9 7c-.4-.8-.7-1.8-1.2-1.9-1.2-.2-2.3-.2-3.5-.1 0 2.6.4 2.8 4.7 2zm1.8 4.5c-.6-1.7-1.8-1.9-3.1-1.6-.3 0-.6.1-.9.2-.3.2-.6.4-.9.7.3.3.6.7 1 .7h3.9zm-22.4-15.5h-.5v7.8h.4c0-1 .1-1.9.1-2.9v-4.9zm-67.8-9.8.1-.6-3.4-.8-.2.8 3.5.6zM57.5 41.2l7.1-1.6c-.1-.8-.1-1.5-.1-2.3 0-.5.1-1.1.4-1.6 1.2-2.1 3.3-3 5.5-3.6 2-.5 4.1-.8 6.2-1.1.3 0 .6 0 .9.1 2.8 1 6.2.2 8.5 2.8l.2-.4c-.2-.5-.5-1-.7-1.5-1.4-3.3-2.6-6.7-4.1-9.9-2-4.4-4.5-8.5-9.1-10.7-2.8-1.5-6-1.5-8.9-.2-.6.3-1.3.9-1.6 0 0-.7.3-1.3.8-1.7 1.5-.9 3.3-1.4 5.1-1.3 6.4 0 10.3 3.8 13.7 8.6 3.1 4.3 4.3 9.4 6.2 14.2.5 1.5 1.1 2.9 1.9 4.3.4.7 1.4 1.1 2.2 1.6l.3-.2c0-.5-.1-.9-.2-1.4-.3-1.4-.7-2.8-1.1-4.2-.2-.8-.3-1.7.7-1.9.3-.1 1 .7 1.2 1.2.5 1.3.9 2.7 1.4 4.1.8 2.4 2.5 4.2 4 6.2.1.2.7.2 1 .1 2-.5 4.1.2 5.3 1.8 2.6 3 1.8 6.2 1 9.4-.7 2.7-1.9 5.1-4.5 6.5-1.5.9-3.3 1.1-5 .7-1.4-.4-3.1-2.4-3.1-3.9 0-.5.5-1 .8-1.5.4.3 1 .6 1.2 1 .9 2 2.6 2.5 4.5 1.3 1.8-1.1 2.5-3 3.1-4.9.3-1 .5-2 .7-3 .4-1.5-.1-3.1-1.3-4.2-.5-.7-1.5-.8-2.2-.2-.1.1-.3.2-.3.4-.6.7-1.1 1.6-1.6 2.3-.4.6-1 1.4-1.8.9-.5-.3-.7-1-1.2-1.9-3.5-.5-6.8-1.8-7.6-6.4.9-.9 1.7-.5 2.2.5 1.7 2.7 4.4 3.2 7.2 3.2.1 0 .2-.2.3-.3l-14.6-8.2-1 .7c2.3 6.2-1.6 11.3-4.6 12.3-5.6 2-10.5-.3-12-5.5-1.9-.2-3.8.1-5.6.9-.8.2-1.2 1-1 1.8 1.1 5.2-4.5 9.6-8.5 9.4-2.4-.1-4.6-1.7-5.4-4-.2-.5-.4-1.1-.6-1.6-2 0-2.1-.5-1.2-2.6 1.4-3.2 4.1-5.5 7.5-6.4 1.2-.3 2.4-.5 3.6-.4.8.2 1.6.6 2.2 1.1.7.5 1.2.9 1.8 1.4l.2-.2zm8.9-2.2c0 .9.2 1.9.5 2.7.8 1.4 1.8 2.6 3 3.7.4.3 1.5-.1 2.2-.2s1.5-.2 2.3-.3c2.2-.4 4.7-2.5 4.8-4.7.1-1.6-.5-3.1-.7-4.7-.1-1-1-1.8-2-1.8-2.7-.4-5.4.2-7.7 1.6-1.1.6-2.9 1.6-2.4 3.7zm-10.3 6.5c-.1-.7-.2-1.4-.4-2.1-.4-1.1-.7-2.4-2.5-2.5-2.5 0-4.9.9-6.7 2.6-.6.5-1.4 1.5-1.3 2.1.3 1.6.8 3.2 1.6 4.6 1.2 1.9 4.3 2.1 6 .7.5-.5 1-1 1.6-1.4 1.2-1.1 1.9-2.5 1.7-4z" transform="translate(178.574 2.438)"/><path d="M30 537.4c2.4-.8 5-1.2 7.2-2.5 1.9-1.1 3.2-3 4.9-4.6 2.7-2.6 5.4-5.1 8.2-7.6.2-.2.6-.2.9-.4.8-.4 1.7-.9 2.2.1s-.4 1.5-1 2.1c-3.5 3.2-7 6.3-10.4 9.5-.9 1.1-2 2.1-3.1 3-1.3.7-2.7 1.3-4.2 1.7.6.8 1.2 1.6 1.8 2.5.6 1 .3 2.2-.7 2.8-2.1 1.2-4.2 2.2-6.9 2-4.1-.3-8.2.1-12.3.1-1.5 0-3-.1-4.4-.4-.5-.1-.8-.6-1.3-1 .4-.4.8-1.1 1.2-1.1 1.5.1 3-1 4.6-.2.6.3 1.6.2 1.4-1.1-.1-1.1.7-1.3 1.5-1.2s1.2.6.9 1.4c0 .2 0 .5.1.7.9-.2 1.8-.3 2.7-.5.3-.1.7-.1 1-.1 1.1.2 2.2.5 3.4.7l-.1-.4 1.6-1.3.8 1.4h2.4c.4 0 1.1 0 1.2-.2.1-.5.1-1-.1-1.5-.3-.7-.7-1.4-1.1-2-2.2.5-4.5 1-6.7 1.3-.8.1-1.5 0-2.2-.3-.3-.2-.6-.5-.6-.9.1-.4.3-.7.7-.8.9-.2 1.8-.1 2.7-.2.7-.1 1.3-.3 1.9-.7-2.3-.2-4.6-.4-6.9-.7-2-.3-3.2.4-3.6 2.4-.2 1.1-.6 1.4-1.7 1.1-.5-.1-1 0-1.5.2-1.9 1.1-3.8 2.4-5.7 3.6-.9.6-1.7.5-2.2-.5s.2-1.5.9-1.9c2.8-1.6 5.7-3.2 8.6-4.8.3-.2.7-.5.7-.8.1-1.6 1.3-2.5 2.4-3.4 4.6-4 9.2-8 13.9-12 1.2-1 2.6-2 3.9-2.9s1.7-.8 2.1.6c2 .7 4 1.3 5.9 2 1 .4 1.9 1 1.7 2.3-.1.9-.7 1.1-1.5.8-2.4-1-4.8-1.8-7.2-2.8-1.1-.5-1.7.1-2.3 1.1 1.7.4 3.3.9 4.8 1.2.9.1 1.7.8 1.9 1.7.2 1-.3 1.5-1 2.1-3.8 3.3-7.5 6.7-11.3 10l-.1.4zm1.2-4.8 4.4-4c-2.1-.6-3.7-1.1-5.4-1.6-.1 0-.3.1-.5.2-.8.7-1.7 1.3-2.6 2.1 3.6 2.1 3.6 2.1 4.1 3.3zm-1.2.9c-1.3-.6-2.6-1-3.8-1.6-.7-.4-1.6-.2-2.2.4-.7.7-1.3 1.4-2.2 2.3 1.6 0 3.2.2 4.8.5 1.7.5 2.5-.1 3.4-1.6zm2.3-8.7c3 1.3 5.6 1.6 6.5.7-1.7-.5-3.4-1-5-1.4-.4-.1-.9.4-1.5.7zM95.6 5.8c2.9.2 5.6 1.3 7.6 3.3 2 1.6 3.8 3.4 5.2 5.5 1.8 2.7 3.2 5.5 4.4 8.5 1.2 3.5 1.8 7.2 2 10.9.1 3-.4 6-1.4 8.8-.6 1.8-1.3 3.6-2 5.4-.1.2-.1.6-.3.7-.6.4-1.2.8-1.8 1.1-.2-.7-.3-1.4-.3-2.1 1.5-5.3 3.2-10.5 2.8-16.2-.1-3-.8-5.9-2-8.6-1-2.5-2.2-4.9-3.6-7.2-1.6-2.1-3.5-4-5.5-5.7-1.4-1.4-3.3-2.3-5.3-2.3-.9 0-1.8.3-2.7.3-.5-.1-1-.2-1.5-.4.2-.4.4-1.1.7-1.3 1.2 0 2.4-.3 3.7-.7zM32.3 563.4c-8.5.5-15.7-1.8-22.8-4.2-.4-.1-.9-.3-1.2-.6-.3-.4-.6-.9-.8-1.4.5-.2 1.1-.7 1.6-.7 1.2.2 2.4.6 3.7.9 4.3.9 8.6 2.1 12.9 2.5 3.8.3 7.8-.3 11.6-.5 1.6-.1 3.2-.6 4.9-.6.6 0 1.3.5 2 .7-.4.5-.7 1.4-1.2 1.6-1.9.6-3.7 1.2-5.7 1.5-1.9.4-3.9.6-5 .8zM85.9 8.9c-.6-.2-1.2-.5-1.8-.8l-5.4-3.3c-1.9-1.1-3.9-1.7-6.1-1.8l-2.3-.2c-5-.5-10 .5-14.5 2.8-2.6 1.4-5 3.3-7.5 4.9-.4.2-1 .1-1.6.1.3-.6.3-1.3.6-1.6 4-3.3 8-6.6 13.2-7.8C63.8.2 67.3-.1 70.8.1c2.2.2 4.4.5 6.6.9 3.5.9 6.2 3.3 8.9 5.5.3.3.4 1 .4 1.6.1.3-.5.5-.8.8z" transform="translate(178.574 2.438)"/><path d="M44.9 31.7c1.3-.3 2.6-.5 4-.6.7.1 1.3.4 1.9.7-.4.5-.8 1-1.4 1.4-.9.5-1.9.8-2.9 1.1-1.3.3-1.4 1-1.2 2.1.2.4.2.9.2 1.3-.1.4-.4 1-.8 1-.5 0-.9-.3-1.1-.6-.6-1.5-.9-3.1-1.1-4.7-.2-5.6 1-11.2 3.4-16.3 1.3-2.7 3-5.2 5.8-6.6 1.3-.6 2.8-.2 3.7.8.2.3.3.7.2 1.1-.3.3-.7.4-1 .3-1.6-1-2.6 0-3.6 1.1-3.1 3.2-4.1 7.4-5.1 11.5-.4 1.9-.6 4-1 6.4z" transform="translate(178.574 2.438)"/><path d="M36.1 37c.2-3 .5-5.6.7-8.3.2-2.8 1.4-5.3 2.5-7.7.8-1.6 1.7-3.1 2.7-4.6.2-.3.5-.6.9-.8.4-.1.7-.1 1.1.1.2.3.2.7 0 1.1-1.3 2.9-2.7 5.6-3.8 8.5-.6 1.8-.9 3.7-.9 5.7-.1 4-.3 8 1.2 11.8l.9 2.1c.1.5 0 1-.3 1.4-.4.2-1 .2-1.4-.1-.9-1-1.6-2.1-2.1-3.3-.7-1.9-1.2-3.9-1.5-5.9zM47.9 57.8c.1-.2.4-.8.6-.8.5.1.9.3 1.2.7.5 1.1 1 2.1 1.3 3.2 1.7 4.3 3.3 8.5 5 12.8.5 1 1 1.9 1.6 2.8.5.9 1.1 1.9.2 2.8-.7.7-1.9-.1-2.8-1.3-1.6-2.2-2.2-4.9-3-7.4-1.3-3.9-2.5-7.7-3.8-11.6-.2-.3-.3-.7-.3-1.2zM76.9 61.4c-.1.2-.4.7-.8.9-1.3.6-2.7.9-4.1 1.2-4.2.5-8.3 1.6-12.1 3.4-.7.3-1.4.6-1.8-.3s.3-1.3 1-1.6c3.6-1.6 7.2-3.4 11.3-3.8 1.6-.2 3.2-.6 4.8-1 1-.3 1.6 0 1.7 1.2zM151.5 547.6c.2 1.2-.6 2.3-1.8 2.5h-.4c-2.9.4-5.8.8-8.6 1.1-.6 0-1.2 0-1.7-.1-1.1-.1-1.4-.8-1-1.8.1-.4.1-.8.1-1.2 0-.5-.2-1.3.1-1.6s1-.1 1.5-.2c0 .6 0 1.1-.1 1.7 0 .2-.3.3-.7.8 2.2-.4 4.1-.6 5.9-.9 1.4-.2 2.8-.6 4.2-.7.9 0 1.7.2 2.5.4zM120 555.9c0-.4-.1-.8 0-1.1.2-.4.6-1 1-1s.9.5 1.1.9c.5 1.5.9 3 1.4 4.5.3 1.7 1.4 3.1 3 3.9.8.3 1.5 1.1 1 1.9-.5.5-1.3.8-2.1.6-2.1-.5-3.7-2-4.3-4-.6-1.8-.9-3.7-1.3-5.6l.2-.1zM102.1 61c.8-1.6 1.4-3.1 2.1-4.5s1.4-2.8 2.2-4.1c.2-.3.7-.5 1-.7.3.5.8 1 .7 1.4-.4 1.3-.8 2.5-1.3 3.7-.6 1.6-1.3 3.1-1.9 4.7-.3.8-.9 1.2-1.6.9-.4-.3-.7-.9-1.2-1.4zM75.8 23.2c.3 0 .7 0 1 .1l1.2.9c-.3.3-.7.6-1.1.8-2.6 1-5.2 1.9-7.8 2.8-.6.2-1.2.4-1.8.5-.4 0-.8-.2-1.1-.5-.1-.4.1-.8.4-1.1.7-.5 1.5-.9 2.2-1.2 2.1-.8 4.1-1.5 6.2-2.2.2 0 .5-.1.8-.1zM135.3 559.4c-2.2-.6-4.4-1.2-6.5-2-.6-.3-1.1-.8-1.2-1.4-.1-.8.5-1.2 1.4-1 2.4.6 4.8 1 7.2 1.5.8.2 1.9.2 1.9 1.3 0 1.3-1.1 1.2-2 1.2h-.7l-.1.4zM61.3 59c-1.6-.8-3-1.4-4.4-2.1-.3-.3-.4-.7-.3-1.1.3-.3.7-.5 1.2-.5 1.3.2 2.6.6 3.9.8.8.2 1.4.6 1.1 1.4-.2.5-.9.9-1.5 1.5zM50.6 527.9c.6-.5.9-1 1.2-1.1.5 0 1 .2 1.4.5.6.8 1.1 1.6 1.4 2.5.2.6.2 1.2 0 1.8-.5.6-1.2.2-1.7-.4-.7-1-1.4-2-2.3-3.3zM62.3 69.7c1.4.3 2.5.5 3.6.8.4.2.6.6.6 1-.1.3-.6.8-.9.8-1.2-.1-2.4-.3-3.6-.6-.3-.1-.6-.9-.6-1.3.1-.3.6-.6.9-.7zM154.1 542.4c.1.2.1.3.2.5 0 .6 0 1.1-.1 1.7-.6-.1-1.2-.2-1.7-.5-.3-.2-.6-1-.5-1.1.4-.4.9-.6 1.4-.8.2-.1.4.1.7.2zM145.6 543.4c-.4-.5-.8-1.1-1-1.7 0-.3.9-.9 1.3-.9.6 0 1.2.5 1.2 1.1v.3c-.1.4-.6.8-.9 1.2h-.6z" transform="translate(178.574 2.438)"/><path d="M146.9 545.8c-.8.6-1.2 1.2-1.7 1.3-.3.1-.8-.6-1.2-.9.4-.5.8-1 1.3-1.4.3-.1.9.5 1.6 1zM143.5 542c-.4.2-.8.7-1.1.7-.4-.1-.8-.6-1.2-.9.3-.4.7-1 1-1s.8.5 1.3.8v.4zM150 542.7c.5.7 1 1.1 1 1.5s-.6.7-.9 1.1c-.4-.3-.9-.6-1-1s.4-.9.9-1.6zM133.1 546.2c-.4-.7-.9-1.1-.8-1.4.1-.4.6-.7 1-1.1.3.3.8.7.8 1s-.5.8-1 1.5zM20.4 540c-.5-.1-.9-.3-1.4-.5-.2-.3-.2-.7-.1-1 .3-.3 1-.5 1.2-.3.3.4.5.9.7 1.4l-.4.4zM143.4 545.3c-.6.5-.9 1-1.2 1s-.6-.6-1-.9c.3-.3.6-.7 1-.8.2 0 .6.4 1.2.7zM132.7 542.8c-.3-.6-.7-1-.7-1.2.1-.4.6-.6.9-.9.3.3.9.6.8.9s-.5.7-1 1.2z" transform="translate(178.574 2.438)"/><path class="st2" d="M82.3 246.2c.3-3.5.6-6.9.9-10.2.3-2.7.5-5.4.9-8.1.6-4.6 1.1-9.1 1.8-13.7.7-4.4 1.7-8.8 2.3-13.2.7-4.9 1.4-9.8 1.9-14.7.5-4.7.7-9.5 1.1-14.2.5-5.3 1.1-10.6 1.7-16 .5-4.7.9-9.4 1.5-14.1.7-5.2 1.5-10.3 2.2-15.5.4-3.5.7-7 1-10.4l1.2-11.1c.3-2.8.5-5.6.7-8.4 0-.7.1-1.4.4-2.1.1-.3.7-.5 1-.8.2.4.6.7.6 1.1-.2 3.7-.4 7.4-.7 11.1-.3 4.1-.4 8.2-.8 12.4-.3 4.2-.7 8.5-1.2 12.7-.4 4-.9 8-1.3 12-.4 3.5-.8 7-1.1 10.4-.5 5.2-1 10.5-1.5 15.8-.3 2.9-.4 5.8-.7 8.7-.3 4.3-.6 8.6-1 12.9-.8 7.9-2.4 15.6-3.8 23.4-.7 3.6-.9 7.2-1.3 10.8-.5 3.8-.9 7.7-1.3 11.5l-.9 9.3c0 .5-.1.9-.3 1.3-.4.5-.9 1.3-1.4 1.4-.7.1-1.4-.4-1.5-1.1v-.2c-.2-.4-.3-.7-.4-1zM121.5 300.4c-1.2-1.2-2.4-1.9-2.9-3-.6-1.3-.9-2.7-.7-4.1.6-6.3 1.3-12.5 2-18.7.1-.8-.2-1.6-.9-2.1-1.5-1.3-3.2-2.5-5-3.4-.2-.3-.3-.6-.3-1 1.1-3.1 2.2-6.1 3.4-9.2.3-.8.4-1.5.7-2.4.9.2 1.7.4 2.5.7 2.1.7 4.2 1.5 6.2 2.4.4.2.9.5 1.2.9.9.9 1.9 1.7 3.1 2.2 1.2.5 2 2 3.1 3.1 1.8 1.7 1.5 4.1 1.9 6.2.6 3 1.2 6 1.8 8.9-1.7-.3-3.4-.5-5.1-.5-1.3.1-2.6.5-3.9 1-1.1.4-2.3-.1-2.8-1.2-.5-.9-.9-2-1.4-2.9-.3-.4-.7-.6-1.1-.5-.4.2-.6.6-.6 1 .5 1.6 1 3.1 1.7 4.6.4.6.5 1.4.2 2-.6 2-1.1 4-1.5 6.1-.5 2.6-.9 5.2-1.4 7.8-.2.6-.2 1.3-.2 2.1zM114.8 148.4c-1.2-2.9-2.2-5.5-3.3-8.2-.6-1.4-1.3-2.7-1.8-4-.7-1.9-.8-4-.3-6 .2-.5.5-.8.9-1 1.6-.7 3.2-1.2 4.8-1.8 3.4-1.3 4-3.2 1.9-6.2-2.7-4-5.3-8-6.9-12.6-1.7-4.9-3.6-9.7-5.4-14.6-.2-.5-.3-1.1-.3-1.7.1-.4.4-.8.7-.9.2-.1.8.4.9.7l5.7 13.8c1.1 2.6 2.1 5.2 3.4 7.7 1.1 1.9 2.4 3.8 3.8 5.5 1.2 1.5 2 3.3 2.2 5.2.2 1.7-.6 3.4-2 4.4-1.6 1-3.2 1.8-5 2.5-1.8.7-2.2 1-1.7 2.9.5 1.6 1 3.2 1.7 4.8.6 1.6 1.3 3.1 2 4.7.4.9.9 1.9 1.4 2.7 1 1.6 1.1 3-.3 4.3-1.9 1.7-2.5 4.1-3.4 6.3-1.5 3.5-2.8 7-4.2 10.4-1.4 3.3-3 6.5-4.4 9.8-1.9 4-3.3 8.1-4.4 12.4-.4 1.4-.9 2.7-1.7 3.9-.4.4-.9.5-1.4.4-.2 0-.6-.8-.5-1.2.3-1.9.8-3.8 1.2-5.8 1-4.7 2.6-9.2 4.7-13.5 2.2-5 4.3-10 6.4-15 1.2-2.8 2.6-5.6 3.9-8.4.5-.5 1-1 1.4-1.5zM63.2 102.7c.3 1.3.4 2.5.5 3.8 0 5.7-.2 11.4-.3 17.1-.1 5.4-.2 10.8-.4 16.3-.1 5-.3 10-.4 15-.1 3.5 0 7 .1 10.4 0 2.6 0 5.2.1 7.8.1 3.6.2 7.1.4 10.7.3 4.4.5 8.7 1 13 .5 4.7 1.2 9.4 1.8 14.1.2 1 .2 1.9.1 2.9-.1.6-.5 1.1-1.1 1.4-.9.3-1.5-.5-1.7-1.4-.4-2.1-.7-4.2-1-6.2-.6-4.5-1.2-9-1.8-13.6-.2-1.8-.3-3.7-.3-5.6-.2-7.6-.5-15.3-.6-22.9-.1-3.5.1-7 .2-10.5.2-5.1.3-10.1.6-15.2.4-7.5.9-14.9 1.2-22.3.2-4.5.2-9 .3-13.5.1-.5.3-1.1.6-1.5l.7.2zM49.7 143.5c-2.1-1.7-4.2-3.3-6.2-4.9-1.6-1.1-2.2-3.1-1.6-4.9 1.2-3.8 2.7-7.6 4.2-11.4 1.1-2.6 2.3-5 3.6-7.5 1.8-3.2 3.8-6.4 5.8-9.5.4-.4.9-.7 1.5-.8.2-.1.7.2.8.5.1.3 0 .6-.2.8-2.9 3.4-4.8 7.5-6.6 11.5-1.2 2.6-2.4 5.3-3.5 7.9-1 2.6-1.9 5.3-2.7 8-.6 1.3-.1 2.8 1.2 3.5 1.9 1.2 3.6 2.7 5.5 4.1 1.4 1.2 1.6 3.2.5 4.6-1.7 2.9-3.7 5.8-5.3 8.8s-3.1 6.2-4.5 9.4c-.1.5 0 .9.2 1.3 2.2 3.5 3.7 7.4 4.2 11.5.8 4.8 1.5 9.6 2.4 14.4.6 3.4 1.4 6.7 2 10.1.1.8-.1 2.1-.6 2.4-1.1.5-1.5-.8-1.7-1.5-.9-2.9-1.8-5.9-2.4-8.9-1.2-6-2-12.1-3.2-18.1-.6-3.2-1.8-6.1-3.7-8.7-.5-.8-.6-1.8-.3-2.8 1.3-3.9 3.1-7.7 5.3-11.1 1.8-2.9 3.5-5.8 5.3-8.7zM23.1 292.4c-1-1.8-2-3.6-2.9-5.5-.8-1.4-1.5-2.8-2.2-4.3-.4-.8-.6-1.6-.6-2.4.2-4.3 1.2-8.4 2.9-12.3.9-2.7 3.3-4.7 6.1-5 1.5-.3 3-.5 4.6-.4 1.4.4 2.7 1 3.9 1.8.6.3.4 1.9-.4 2.7s-1.7 1.5-2.5 2.3c-2 1.8-4 3.6-5.9 5.5-.6.7-1.1 1.6-1.2 2.6-.7 3.6-1.2 7.1-1.7 10.7 0 .9.1 1.7.3 2.6 0 .6 0 1.2-.1 1.8l-.3-.1z" transform="translate(178.574 2.438)"/><path class="st2" d="M126.5 305.3c-2.5-.9-3.2-3.3-5-4.7.8 0 1.8.3 2.2-.1.5-.7.8-1.4.9-2.3.6-4.3 1.1-8.7 1.7-13.1.1-.8.5-1.3 1.4-1.2.4 0 .9 0 1.3-.2 1.9-.6 3.9-.6 5.8-.2 1.8.5 2.8 2.4 2.4 4.2-1.3 3.6-2.4 7.3-3.1 11-.6 3.2-2.5 5.7-3.8 8.4-.2.4-.5.7-.9 1h-.5v-1.9c.1-.6.3-1.2.7-1.7 1.3-1.6 1.3-3.6 1.6-5.5.5-3.2 1-6.4 1.5-9.5.2-.9.1-1.7-1.3-2.1-.4 1-.8 2.1-1.1 3.2-.7 3.1-1.3 6.2-2.1 9.2-.4 1.9-1.1 3.6-1.7 5.5zM131.7 152.9c.5-4.5.9-9.1 1.6-13.6.5-3.4 1.4-6.8 2.1-10.2 0-.3.1-.6.3-.9.3-.3.7-.5 1.1-.6.1.4.4.8.4 1.1-.7 4.1-1.5 8.1-2.1 12.2-.4 3.3-.5 6.7-.7 10.1-.1 1.5 0 3 0 4.6v.8c-.1.7-.4 1.5-1.2 1.4-.6-.3-1-.8-1.1-1.4-.1-1.1-.1-2.2 0-3.4l-.4-.1zM139.2 122c.2-3.1 1.1-6.1 2.5-8.8 1.6-3.2 3.6-6.2 6.1-8.8.3-.3 1-.3 1.6-.5 0 .6.2 1.3-.1 1.6-3 3.7-5.4 7.8-7.1 12.3-.4 1.3-.7 2.7-1.1 4-.2.4-.7.7-1.2.8-.3.2-.6-.5-.7-.6zM124.2 513.9c.2.6.5 1.2.8 1.7.3.3.7.5 1.1.5.3-.1.7-.5.8-.9.1-.3.1-.7 0-1.1 0-1.7-.1-3.4-.1-5.1 0-.3.3-.6.7-1.2.6 2.7-.8 5.5 2.1 7.1-.1.3-.2.7-.4.8-3.1 1.4-4.1 5-6.9 6.9-.1-.2-.2-.4-.3-.7-.1-1.6-.2-3.1-.1-4.7.1-.8.9-1.4 1.3-2.2.4-.1.7-.6 1-1.1zM48.2 534.2c.9 2.3 3.4 3.7 5.8 3.2 1.9-.4 3.7-1 5.4-1.8.6-.2 1.2-.5 1.9-.8-.1 2.2-.8 2.9-2.7 3.2-1.1.2-2.2.5-3.2.9-2.2.6-4.5.7-6.8.3-1.4-.2-1.9-.9-1.7-2.3.2-.9.5-1.8.8-2.6l.5-.1zM50 545.8c1.1-1.9-1.3-2.2-1.6-3.7 3.4.3 6.7.4 10-1.3-.3 1.3-.5 2.3-.6 3.1l-7.8 1.9zM51.6 513l-3.3 4.2c-1.2-.7-2.4-1.4-3.5-2.2-.3-.3-.4-.8-.3-1.3.4-.7 1-1.4 1.6-2 .2-.2.4-.3.7-.2 1.5.5 3.1 1 4.8 1.5zM132.3 518l5.2-.8c.2 1.2.4 2.4.7 3.7-1.2.3-2.3.5-3.3.8-.7.3-1.5-.1-1.8-.8 0-.1-.1-.2-.1-.3-.2-.9-.4-1.7-.7-2.6zM134.6 524.3c1-.2 2.1-.3 3.1-.3.5.1.9.4 1 .8.5 1.7.5 1.8-1.4 1.8-.3 0-.5 0-.8.1-1.9.1-2.1-.1-1.9-2.4zM140.5 531.2c-4.3.8-4.7.7-4.7-2 1.2-.1 2.3-.1 3.5.1.5.1.8 1.2 1.2 1.9zM142.3 535.8c-1.4 0-2.7.1-4 0-.3 0-.6-.5-1-.7.3-.3.6-.5.9-.7.3-.1.6-.2.9-.2 1.4-.4 2.5-.2 3.2 1.6zM119.9 520.3v4.9c0 1-.1 1.9-.1 2.9h-.4v-7.8h.5zM52.1 510.5l-3.5-.6.2-.8 3.4.8-.1.6zM66.4 39c-.5-2.2 1.2-3.1 2.5-3.9 2.3-1.4 5.1-1.9 7.7-1.6 1 0 1.9.8 2 1.8.2 1.6.8 3.2.7 4.7-.2 2.2-2.6 4.4-4.8 4.7-.8.1-1.5.2-2.3.3s-1.9.6-2.2.2c-1.2-1.1-2.2-2.3-3-3.7-.4-.6-.5-1.6-.6-2.5zm3.3.5c.6.4 1.2 1.2 1.7 1.1.7-.3 1.2-.9 1.4-1.6.2-.8-.5-1.4-1.4-1.4s-1.5.6-1.7 1.9zM56.1 45.4c.2 1.5-.5 3-1.7 3.9-.6.4-1.1.9-1.6 1.4-1.6 1.5-4.8 1.2-6-.7-.8-1.4-1.3-3-1.6-4.6-.1-.6.7-1.6 1.3-2.1 1.8-1.6 4.2-2.5 6.7-2.6 1.8 0 2 1.3 2.5 2.5.2.9.4 1.6.4 2.2zm-3.5-.1c-.8-.6-1.3-1.2-1.8-1.2-1.1-.1-1.3.8-1.3 1.6-.1.7.4 1.3 1 1.4h.4c.6-.1 1-1 1.7-1.8zM31.2 532.6c-.5-1.1-.5-1.1-4.1-3.3.9-.7 1.8-1.4 2.6-2.1.1-.1.3-.2.5-.2 1.7.5 3.3 1 5.4 1.6l-4.4 4zM30 533.6c-.9 1.5-1.7 2.1-3.3 1.6-1.6-.3-3.2-.5-4.8-.5.8-.9 1.5-1.6 2.2-2.3.5-.7 1.4-.9 2.2-.4 1.1.6 2.3 1 3.7 1.6zM32.3 524.8c.6-.3 1.1-.8 1.4-.7 1.7.4 3.3.9 5 1.4-.8.9-3.4.6-6.4-.7z" transform="translate(178.574 2.438)"/><path d="M70.3 39.9c-.4-.4-.6-1-.3-1.5.2-.6.8-.9 1.4-.9.9 0 1.6.6 1.4 1.4-.2.7-.7 1.3-1.4 1.6-.3.1-.7-.2-1.1-.6zM52.1 44.8c.3.3.3.7.1 1-.5.6-.8 1.2-1.2 1.2-.7.1-1.3-.3-1.4-1v-.4c0-.8.2-1.8 1.3-1.6.4.2.8.5 1.2.8z" transform="translate(178.574 2.438)"/><g transform="translate(-5.473 -78.732)"><defs><path id="SVGID_1_" d="M0 94h570.1v513.8H0z"/></defs><clipPath id="SVGID_00000133511617309434380790000009861565166933842050_"><use xlink:href="#SVGID_1_" style="overflow:visible"/></clipPath><g class="st4" style="clip-path:url(#SVGID_00000133511617309434380790000009861565166933842050_)"><path class="st5" d="m54.2 272.7-2.6 6.8-27 4.9 21.8 8.4-2.6 6.8-33.2-12.8 2.6-6.8 27-4.9-21.9-8.5 2.6-6.8 33.3 12.9z"/></g></g><g class="st4"><path class="st5" d="M46.3 258.3c-2.3-1.3-4.1-2.9-5.3-4.8s-1.9-3.9-2-6.1c0-2.2.6-4.4 1.8-6.6 1.8-3.1 4.2-5.1 7.2-6 3-.9 6.2-.5 9.6 1.1l1.6.9c3.5 2 5.8 4.6 6.8 7.8s.6 6.4-1.3 9.7c-1.9 3.3-4.5 5.3-7.7 6.1-3.2.8-6.7.1-10.3-2l-.4-.1zm3.9-5.8c2.2 1.2 4.1 1.8 5.7 1.6 1.6-.2 2.9-1 3.7-2.5.8-1.5.9-3 .3-4.5-.7-1.5-2.3-2.9-4.8-4.4-2.1-1.2-4-1.7-5.7-1.6-1.7.2-2.9 1-3.8 2.5-.9 1.5-.9 3-.2 4.5.8 1.5 2.4 3 4.8 4.4z" transform="translate(-5.473 -78.732)"/></g><g class="st4"><path class="st5" d="M79.2 209.7c3.4 2.6 5.4 5.3 6.2 8.2.8 2.9.2 5.6-1.8 8.2-1.7 2.3-4 3.4-6.8 3.4l2 2-3.9 5-29.8-22.8 4.3-5.6 10.7 8.2c-.5-2.5 0-4.7 1.6-6.8 2-2.6 4.4-3.8 7.4-3.9 3 0 6.2 1.3 9.6 3.9l.5.2zm-4.7 5.3c-2.1-1.6-3.9-2.5-5.4-2.5-1.5-.1-2.7.6-3.8 1.9-1.4 1.8-1.6 3.6-.6 5.4l8.3 6.3c2 .4 3.7-.2 5.1-2 1.4-1.8 1.4-3.7.1-5.6-.8-1.1-2-2.2-3.7-3.5z" transform="translate(-5.473 -78.732)"/></g><g class="st4"><path class="st5" d="M104.2 198.4c.3 2.7-.7 5.2-2.9 7.3-2 2-4.1 2.9-6.3 2.8-2.2-.1-4.4-1.3-6.7-3.5l-12.2-12.3 5-5 12 12.1c1.9 2 3.8 2 5.6.3 1.7-1.7 2.3-3.4 1.7-5.2l-13.2-13.3 5-5 18.6 18.8-4.7 4.7-1.9-1.7z" transform="translate(-5.473 -78.732)"/></g><g class="st4"><path class="st5" d="M109.2 166.5c.1-2.9 1.3-5.2 3.6-6.9 4.6-3.5 8.9-2.5 13 2.7l10.2 13.5-5.6 4.3-10.1-13.3c-.9-1.2-1.8-1.9-2.8-2.1-1-.2-2 .2-3.2 1.1-1.7 1.2-2.4 2.8-2.1 4.6l11.3 15-5.6 4.3-22.6-29.9 5.6-4.3 8.3 11z" transform="translate(-5.473 -78.732)"/></g><g class="st4"><path class="st5" d="M126.8 142.4c-.5-.9-.7-1.8-.4-2.8.3-1 .9-1.7 1.9-2.4 1-.6 2-.8 3-.6 1 .2 1.7.8 2.3 1.7.6.9.7 1.9.4 2.8-.3 1-.9 1.7-1.9 2.4-1 .6-2 .8-3 .6-1-.2-1.7-.8-2.3-1.7zm23.6 24.6-6.1 3.7-13.6-22.7 6.1-3.7 13.6 22.7z" transform="translate(-5.473 -78.732)"/></g><g class="st4"><path class="st5" d="M163.8 137.8c-.9.3-1.7.6-2.4.9-2.4 1.2-3.6 2.8-3.5 4.8l7.6 15.5-6.3 3.1-11.7-23.7 6-2.9 1.6 2.7c.2-2.8 1.4-4.8 3.7-5.9.7-.3 1.4-.6 2.1-.7l2.9 6.2z" transform="translate(-5.473 -78.732)"/></g><g class="st4"><path class="st5" d="M173.7 140.2c-.9-2.5-1.2-4.8-.9-7.1.3-2.3 1.1-4.3 2.5-5.9s3.3-3 5.7-3.8c3.4-1.2 6.5-1.1 9.3.1 2.9 1.3 5 3.7 6.5 7.1l.7 1.7c1.4 3.8 1.4 7.3.1 10.3-1.3 3.1-3.8 5.2-7.3 6.5-3.6 1.3-6.9 1.2-9.8-.4-3-1.5-5.1-4.3-6.6-8.2l-.2-.3zm6.8-1.9c.8 2.4 1.9 4 3.3 4.9s2.8 1.1 4.5.5c1.6-.6 2.6-1.6 3.1-3.2s.2-3.7-.8-6.4c-.8-2.3-1.9-4-3.3-4.9-1.4-1-2.9-1.1-4.5-.5-1.6.6-2.7 1.7-3.1 3.2s-.1 3.7.8 6.4z" transform="translate(-5.473 -78.732)"/></g><g class="st4"><path class="st5" d="m334.7 143.9-7.1-1.9 9.3-34.3 7.1 1.9-9.3 34.3z" transform="translate(-5.473 -78.732)"/></g><g class="st4"><path class="st5" d="M360.7 145.2c.3-.8.2-1.6-.5-2.4-.6-.8-1.7-1.7-3.4-2.7-5.4-3.5-7.4-7.1-5.9-10.9.8-2.2 2.5-3.7 4.8-4.4s5-.6 8 .5c3.1 1.2 5.3 2.9 6.7 5.1 1.3 2.2 1.5 4.5.6 6.8l-6.6-2.5c.4-.9.4-1.8 0-2.7-.4-.8-1.2-1.5-2.5-2-1.1-.4-2.1-.5-2.9-.2-.8.3-1.3.8-1.6 1.6-.3.7-.2 1.5.4 2.2.5.7 1.5 1.5 3.1 2.5 1.5 1 2.8 1.9 3.7 2.7 3 2.6 3.9 5.5 2.7 8.6-.9 2.2-2.5 3.7-5 4.3-2.5.7-5.2.4-8.3-.8-2.1-.8-3.8-1.9-5.1-3.2-1.3-1.4-2.2-2.8-2.6-4.5-.4-1.6-.3-3.2.2-4.7l6.2 2.4c-.4 1.2-.3 2.3.3 3.2.6.9 1.5 1.7 2.9 2.2 1.3.5 2.3.6 3.1.4.8-.3 1.4-.8 1.7-1.5z" transform="translate(-5.473 -78.732)"/></g><g class="st4"><path class="st5" d="M389.4 140.5c2.7-1.1 5.3-1 7.8.4 5 2.7 6 7 2.9 12.9l-8 14.9-6.2-3.4 7.9-14.7c.7-1.3 1-2.5.7-3.4-.2-.9-1-1.8-2.3-2.5-1.8-1-3.5-1-5.1 0l-8.9 16.5-6.2-3.4 17.8-33 6.2 3.4-6.6 12.3z" transform="translate(-5.473 -78.732)"/></g><g class="st4"><path class="st5" d="m406.1 178.2-5.8-4 14.9-21.8 5.8 4-14.9 21.8zm12.6-31.7c.6-.9 1.4-1.4 2.3-1.6 1-.2 2 .1 3 .8 1 .7 1.6 1.5 1.8 2.5.2 1 0 1.9-.6 2.8-.6.9-1.4 1.4-2.4 1.6-1 .2-2-.1-2.9-.8-1-.7-1.6-1.5-1.8-2.5-.2-1 0-1.9.6-2.8z" transform="translate(-5.473 -78.732)"/></g><g class="st4"><path class="st5" d="M422.1 173c2.6-3.1 5.5-4.9 8.5-5.6 3.1-.6 5.9.1 8.3 2.2 2.2 1.9 3.3 4.1 3.2 6.7l1.8-1.7 4.9 4.1-16.6 19.4c-1.5 1.8-3.2 3-5.1 3.6-1.9.6-3.9.7-5.9.1-2-.6-4-1.7-6-3.3-1.5-1.3-2.7-2.8-3.6-4.6-.9-1.8-1.3-3.4-1.2-5l5.2-1.2c.1 2.6 1 4.8 3 6.4 1.4 1.2 2.9 1.8 4.3 1.7 1.4-.1 2.8-.8 4-2.2l.9-1.1c-2.4.3-4.7-.3-6.7-2.1-2.4-2.1-3.6-4.7-3.5-7.8.1-3.2 1.5-6.3 4.2-9.4l.3-.2zm5.1 4.9c-1.6 1.8-2.4 3.6-2.6 5.2-.2 1.7.4 3 1.7 4.1 1.6 1.4 3.3 1.8 5.1 1.1l7.2-8.5c.3-1.8-.3-3.4-1.9-4.8-1.3-1.1-2.8-1.4-4.4-1-1.6.6-3.3 1.8-5.1 3.9z" transform="translate(-5.473 -78.732)"/></g><g class="st4"><path class="st5" d="M448.7 216.7c.3-.7.7-1.4 1.3-2.1-2.6 0-4.8-1-6.6-3.1-1.7-1.9-2.6-4-2.6-6.3s.8-4.2 2.5-5.7c2.1-1.9 4.4-2.5 6.9-2s5.1 2.3 7.7 5.2l2.2 2.4 1.1-1c.9-.8 1.4-1.7 1.6-2.7.1-1-.3-1.9-1.2-2.9-.8-.9-1.6-1.4-2.5-1.5s-1.7.1-2.4.8l-4.7-5.3c1.1-1 2.5-1.6 4.1-1.8 1.6-.2 3.3.1 5 .9 1.7.8 3.3 2 4.7 3.6 2.2 2.4 3.3 4.9 3.3 7.4.1 2.5-1 4.8-3.2 6.7l-8.5 7.6c-1.9 1.7-3 3.2-3.5 4.6l-.3.3-4.9-5.1zm-.3-7.6c.7.8 1.5 1.3 2.4 1.7.9.3 1.8.4 2.7.2l3.4-3-1.8-2c-2.4-2.6-4.5-3.2-6.5-1.8l-.3.3c-.7.6-1 1.3-1 2.1 0 .9.4 1.7 1.1 2.5z" transform="translate(-5.473 -78.732)"/></g><g class="st4"><path class="st5" d="m484.6 219.5-2.4 1.8c2.9.3 5.3 1.9 7 4.6 1.8 2.9 1.9 5.6.4 8.1 3.3.1 5.8 1.6 7.7 4.5 1.5 2.4 2 4.7 1.3 6.7-.7 2.1-2.4 4-5.2 5.8l-14.2 9.1-3.8-6 14.2-9c1.3-.8 2-1.6 2.3-2.5.3-.9 0-1.9-.8-3.2-1.1-1.8-2.8-2.5-4.9-2.1l-15.3 9.8-3.9-6.1 14.2-9c1.3-.8 2.1-1.7 2.3-2.5.3-.9 0-1.9-.8-3.1-1.1-1.7-2.6-2.5-4.4-2.3l-15.7 10-3.8-5.9 22.3-14.2 3.5 5.5z" transform="translate(-5.473 -78.732)"/></g><g class="st4"><path class="st5" d="M487.1 279.7c-1.5-3.6-1.7-6.9-.4-10.1 1.2-3.2 3.7-5.5 7.3-7.1l.6-.3c2.4-1 4.8-1.5 7.1-1.4 2.3.1 4.4.8 6.2 2.1 1.8 1.3 3.1 3 4.1 5.2 1.4 3.3 1.5 6.4.2 9.2-1.3 2.8-3.8 5-7.7 6.7l-2.6 1.1-6.6-15.5c-1.5.9-2.5 2.1-3 3.5-.5 1.5-.4 3 .3 4.6 1.1 2.5 2.8 4.1 5.2 4.7l-2.2 4.7c-1.8-.4-3.4-1.2-4.9-2.6-1.6-1.1-2.8-2.8-3.6-4.8zm19.6-9.3c-.6-1.3-1.4-2.1-2.6-2.6-1.2-.4-2.7-.4-4.4.1l3.9 9 .5-.2c1.4-.6 2.4-1.5 2.8-2.6.5-1 .4-2.3-.2-3.7z" transform="translate(-5.473 -78.732)"/></g><g transform="rotate(-21 384.83 193.86)"><defs><path id="SVGID_00000150797109493098382660000016704440594768037562_" transform="rotate(-21.001 242.842 236.503)" d="M0 0h485.7v473H0z"/></defs><clipPath id="SVGID_00000036942955169212820380000018084634108122984613_"><use xlink:href="#SVGID_00000150797109493098382660000016704440594768037562_" style="overflow:visible"/></clipPath><path d="M470 295.2c-1.3-.4-2.2-1.2-2.8-2.2-.5-1-.7-2.3-.3-3.7.2-1 .7-1.8 1.3-2.5.6-.6 1.4-1.1 2.4-1.3 1-.2 2-.2 3.2.1l1.2.3c1.2.3 2.2.7 3 1.3.8.6 1.4 1.4 1.7 2.3.3.9.3 1.8.1 2.9-.3 1.4-.9 2.4-1.9 3.1-.9.7-2.1.9-3.5.7l.5-2.2c.9.1 1.6 0 2.1-.3s.8-.9 1-1.7c.2-.9 0-1.7-.5-2.4-.6-.7-1.5-1.2-2.9-1.5l-1.1-.3c-1.3-.3-2.4-.3-3.3 0-.8.3-1.3.9-1.6 1.9-.2.9-.2 1.5.1 2.1.3.5.9.9 1.7 1.3l-.4 2.1z" class="st4" style="clip-path:url(#SVGID_00000036942955169212820380000018084634108122984613_)"/></g><path d="M470.9 304.4c.1-.3.2-.5.3-.8.3-.9.1-1.7-.6-2.2l-6.3-1.7.6-2.1 9.2 2.5-.5 2-1-.2c.7.7.9 1.5.6 2.4-.1.3-.2.5-.3.7l-2-.6zM461.4 309.2c.4-1.3 1.2-2.2 2.2-2.7 1.1-.5 2.3-.6 3.6-.2l.3.1c.9.3 1.7.7 2.3 1.3.6.6 1 1.2 1.2 2 .2.8.2 1.5-.1 2.3-.4 1.2-1.1 2.1-2.1 2.5-1 .4-2.2.4-3.7-.1l-.8-.3 1.9-5.9c-.8-.2-1.4-.1-2 .2-.6.3-1 .8-1.2 1.4-.3.9-.2 1.8.4 2.6l-1.4.8c-.4-.5-.7-1.2-.8-1.9-.2-.6-.1-1.4.2-2.1zm7.8 2.2c.2-.6.1-1.1-.2-1.5-.3-.5-.8-.9-1.4-1.2l-1.2 3.9h.2c.7.2 1.3.2 1.7 0 .4-.2.7-.6.9-1.2zM457.3 321.3c.2 0 .5 0 .9.1-.4-.9-.5-1.8-.1-2.7.3-.9.9-1.5 1.6-1.9.7-.4 1.5-.4 2.2-.1.9.4 1.5 1 1.8 1.9.2.9.1 2-.4 3.3l-.5 1.2.6.2c.5.2.9.2 1.3 0s.7-.5.9-1c.2-.5.2-.9.1-1.2-.1-.4-.4-.6-.7-.8l.7-2c.5.2.9.5 1.2 1 .3.5.5 1 .5 1.7 0 .6-.1 1.3-.3 2-.4 1-1 1.8-1.7 2.2-.8.4-1.6.5-2.6.1l-4-1.5c-.8-.3-1.5-.4-2-.4l-.1-.1.6-2zm2.2-1.6c-.1.4-.2.8-.1 1.2.1.4.2.8.5 1.1l1.7.6.4-1.1c.3-.7.4-1.3.2-1.8-.1-.5-.4-.8-.9-1-.4-.1-.7-.1-1.1 0-.3.2-.5.5-.7 1zM465 333.7l-2.1-.9-.7 1.5-1.5-.6.7-1.5-4.9-2.1c-.3-.1-.6-.2-.8-.1-.2.1-.4.3-.5.6-.1.2-.2.5-.2.7l-1.5-.6c.1-.5.2-1 .4-1.4.6-1.5 1.8-1.9 3.5-1.2l5 2.1.6-1.4 1.5.6-.6 1.4 2.1.9-1 2zM451.2 335.8l.9-1.9 8.7 3.9-.9 1.9-8.7-3.9zm11.8 2.9c.3.1.5.3.6.6.1.3.1.6-.1.9-.2.4-.4.6-.7.7-.3.1-.6.1-.9-.1-.3-.1-.5-.3-.6-.6-.1-.3-.1-.6.1-.9.2-.4.4-.6.7-.7.3-.1.6 0 .9.1zM450.4 343.6l5.2 4.8-1 2-7-7.2.8-1.7 10 1.3-1 2-7-1.2zM442.5 352.4c.7-1.2 1.6-1.9 2.7-2.3 1.2-.3 2.4-.1 3.6.6l.2.1c.8.5 1.5 1 2 1.7s.7 1.4.8 2.2c0 .8-.1 1.5-.5 2.2-.6 1.1-1.5 1.8-2.5 2-1.1.2-2.3 0-3.6-.8l-.8-.4 3-5.4c-.7-.3-1.4-.4-2-.2-.6.2-1.1.6-1.4 1.2-.5.9-.5 1.7-.1 2.7l-1.5.5c-.3-.6-.4-1.3-.4-2-.1-.7.1-1.4.5-2.1zm7.2 3.8c.3-.5.3-1 .2-1.5-.2-.5-.6-1-1.2-1.4l-2 3.6.1.1c.6.3 1.2.4 1.7.3.5-.3.9-.6 1.2-1.1zM440.1 366.3c1.2.8 2 1.7 2.4 2.8.4 1.1.2 2.1-.4 3-.6.8-1.3 1.3-2.2 1.5l4.1 2.7-1.2 1.8-11.3-7.5 1.1-1.6.9.5c-.3-1-.1-1.9.4-2.8.6-.9 1.5-1.4 2.6-1.5 1.1-.2 2.3.2 3.6 1.1zm-1.4 1.7c-.8-.5-1.5-.8-2.2-.8-.7 0-1.2.3-1.6.9-.5.7-.5 1.5-.1 2.2l3.4 2.2c.9.1 1.5-.2 2-1 .4-.6.4-1.2.2-1.8-.2-.5-.8-1.1-1.7-1.7zM427.8 375.6l1.2-1.7 7.7 5.6-1.2 1.7-7.7-5.6zm11.1 5.2c.3.2.4.4.5.7.1.3 0 .6-.3.9-.2.3-.5.5-.8.5-.3 0-.6 0-.8-.2-.3-.2-.4-.4-.5-.7-.1-.3 0-.6.3-.9.2-.3.5-.5.8-.5.2-.1.5 0 .8.2zM428.4 387.4l.6-.6c.6-.8.7-1.5.3-2.3l-5.2-4 1.3-1.7 7.5 5.8-1.2 1.6-.9-.6c.3.9.2 1.7-.3 2.5-.2.2-.4.4-.6.5l-1.5-1.2zM417.7 388.3c.9-1 1.9-1.6 3.1-1.7 1.2-.1 2.3.3 3.4 1.2l.2.2c.7.6 1.3 1.3 1.6 2.1.3.8.5 1.5.4 2.3-.1.8-.4 1.5-.9 2.1-.8 1-1.8 1.5-2.9 1.5-1.1 0-2.2-.5-3.4-1.4l-.7-.6 4-4.8c-.6-.5-1.3-.6-1.9-.6-.6.1-1.2.4-1.6.9-.6.8-.8 1.6-.6 2.6l-1.6.2c-.2-.7-.2-1.3 0-2 .1-.8.4-1.4.9-2zm6.4 5c.4-.4.5-.9.4-1.5-.1-.5-.4-1.1-.9-1.6l-2.6 3.1.1.1c.6.4 1.1.6 1.6.6.6 0 1-.2 1.4-.7zM411.7 397.7c-.4.4-.5.8-.6 1.3 0 .5.1.9.5 1.2l-1.4 1.5c-.4-.4-.7-.9-.8-1.5-.1-.6-.1-1.2.1-1.9.2-.6.5-1.2 1-1.7.9-1 1.9-1.5 3.1-1.5 1.2 0 2.3.5 3.4 1.6l.2.1c1.1 1 1.7 2 1.8 3.2.1 1.2-.3 2.2-1.2 3.2-.8.8-1.6 1.3-2.6 1.4-1 .1-1.9-.2-2.7-.9l1.4-1.5c.4.4.9.5 1.4.5.5 0 .9-.2 1.3-.6.5-.5.6-1.1.5-1.7-.1-.6-.5-1.3-1.3-2l-.3-.2c-.8-.7-1.5-1.1-2.1-1.2s-1.2.2-1.7.7zM412.1 412.1l-1.6-1.6-1.2 1.2-1.1-1.1 1.2-1.2-3.8-3.7c-.3-.3-.5-.4-.7-.4-.2 0-.5.1-.7.4-.2.2-.3.4-.5.6l-1.2-1.2c.2-.4.5-.8.8-1.1 1.2-1.2 2.4-1.1 3.7.2l3.8 3.8 1.1-1.1 1.1 1.1-1 1 1.6 1.6-1.5 1.5zM403.8 410.6c.6.7 1.1 1.4 1.3 2.2.2.8.2 1.6 0 2.3-.2.7-.6 1.4-1.3 2-.9.9-2 1.3-3.1 1.2-1.1-.1-2.2-.6-3.2-1.5l-.3-.4c-.6-.7-1.1-1.4-1.3-2.2-.2-.8-.2-1.6 0-2.3.2-.8.6-1.4 1.3-2 1-.9 2.1-1.3 3.3-1.2 1.1.1 2.2.7 3.3 1.9zm-1.7 1.3c-.7-.7-1.3-1.1-2-1.3-.7-.1-1.3 0-1.8.5s-.7 1.1-.7 1.8c.1.7.5 1.4 1.2 2.2.7.7 1.3 1.1 2 1.3.7.1 1.3 0 1.8-.5s.7-1.1.7-1.7c-.1-.7-.5-1.5-1.2-2.3zM392.5 424.3c.2-.1.5-.3.7-.5.7-.6 1-1.3.8-2.1l-4.2-5 1.6-1.4 6.2 7.2-1.6 1.3-.7-.8c.1 1-.1 1.7-.8 2.3-.2.2-.5.3-.7.4l-1.3-1.4z" transform="rotate(-21 384.83 193.86)" class="st4"/></svg>