<svg xmlns="http://www.w3.org/2000/svg" xml:space="preserve" id="レイヤー_1" x="0" y="0" style="enable-background:new 0 0 703.4 98.8" version="1.1" viewBox="0 0 703.4 98.8"><style>.st1{fill:none;stroke:#ddd}</style><g style="enable-background:new"><path d="M65.8 96.7H53.1L37.8 71.2c-1.4-2.4-2.8-4.4-4.1-6.1-1.3-1.7-2.7-3-4-4.1-1.4-1.1-2.9-1.8-4.4-2.3s-3.4-.7-5.4-.7h-8.8v38.7H.5v-91h27.2c4 0 7.6.5 11 1.5s6.3 2.5 8.8 4.5 4.4 4.6 5.8 7.6c1.4 3 2.1 6.6 2.1 10.6 0 3.2-.5 6.1-1.4 8.7s-2.3 5-4.1 7.1c-1.8 2.1-3.9 3.8-6.3 5.3-2.5 1.5-5.3 2.6-8.3 3.4v.3c1.5.7 2.8 1.5 4 2.3 1.1.9 2.2 1.9 3.2 3.1 1 1.2 2 2.5 3 4s2.1 3.2 3.3 5.2l17 27.4zM11.2 15.4v33h14.5c2.7 0 5.1-.4 7.4-1.2 2.3-.8 4.2-2 5.9-3.5 1.7-1.5 2.9-3.3 3.9-5.5.9-2.2 1.4-4.6 1.4-7.3 0-4.9-1.6-8.7-4.7-11.4-3.2-2.7-7.7-4.1-13.7-4.1H11.2zM82.2 15.2c-1.9 0-3.4-.6-4.8-1.9-1.3-1.3-2-2.9-2-4.8s.7-3.6 2-4.9c1.3-1.3 2.9-1.9 4.8-1.9s3.5.6 4.9 1.9 2 2.9 2 4.9c0 1.9-.7 3.4-2 4.8-1.4 1.3-3 1.9-4.9 1.9zm5.1 81.5H76.9v-65h10.4v65zM142.2 42.3c-1.8-1.4-4.4-2.1-7.9-2.1-4.4 0-8.2 2.1-11.1 6.3s-4.5 9.9-4.5 17.1v33.1h-10.4v-65h10.4v13.4h.3c1.5-4.6 3.7-8.1 6.8-10.7 3-2.6 6.5-3.8 10.2-3.8 2.7 0 4.8.3 6.2.9v10.8zM158.9 15.2c-1.9 0-3.4-.6-4.8-1.9-1.3-1.3-2-2.9-2-4.8s.7-3.6 2-4.9c1.3-1.3 2.9-1.9 4.8-1.9s3.5.6 4.9 1.9 2 2.9 2 4.9c0 1.9-.7 3.4-2 4.8-1.4 1.3-3 1.9-4.9 1.9zm5.1 81.5h-10.4v-65H164v65zM239 96.7h-14.6l-28.7-31.2h-.3v31.2H185V.5h10.4v61h.3L223 31.7h13.6l-30.2 31.4L239 96.7zM276.8 98.3c-9.6 0-17.3-3-23-9.1-5.7-6.1-8.6-14.1-8.6-24.2 0-10.9 3-19.4 9-25.6 6-6.1 14-9.2 24.2-9.2 9.7 0 17.3 3 22.7 9 5.4 6 8.2 14.2 8.2 24.8 0 10.4-2.9 18.7-8.8 24.9-6 6.2-13.8 9.4-23.7 9.4zm.8-59.3c-6.7 0-12 2.3-15.9 6.8-3.9 4.5-5.8 10.8-5.8 18.8 0 7.7 2 13.8 5.9 18.2s9.2 6.7 15.8 6.7c6.7 0 11.9-2.2 15.5-6.5 3.6-4.4 5.4-10.6 5.4-18.6 0-8.1-1.8-14.4-5.4-18.8-3.6-4.4-8.8-6.6-15.5-6.6zM455.6 96.7H445v-61c0-4.8.3-10.7.9-17.7h-.3c-1 4.1-1.9 7-2.7 8.8l-31.1 70h-5.2l-31-69.4c-.9-2-1.8-5.1-2.7-9.3h-.3c.3 3.6.5 9.6.5 17.8v60.9h-10.3v-91h14.1l27.9 63.5c2.2 4.9 3.6 8.5 4.2 10.9h.4c1.8-5 3.3-8.7 4.4-11.2l28.5-63.2h13.3v90.9zM524.7 96.7h-10.4V86.6h-.3c-4.5 7.8-11.2 11.7-20 11.7-6.5 0-11.5-1.7-15.2-5.1-3.7-3.4-5.5-8-5.5-13.6 0-12.1 7.2-19.2 21.5-21.2l19.5-2.7c0-11-4.5-16.6-13.4-16.6-7.8 0-14.9 2.7-21.2 8V36.3c6.4-4.1 13.8-6.1 22.1-6.1 15.3 0 22.9 8.1 22.9 24.2v42.3zm-10.4-32.9L498.6 66c-4.8.7-8.5 1.9-10.9 3.6-2.5 1.7-3.7 4.8-3.7 9.1 0 3.2 1.1 5.8 3.4 7.8s5.3 3 9 3c5.2 0 9.4-1.8 12.8-5.4 3.4-3.6 5-8.2 5-13.7v-6.6zM596.5 66.8h-45.9c.2 7.2 2.1 12.8 5.8 16.8s8.8 5.9 15.4 5.9c7.3 0 14-2.4 20.2-7.2V92c-5.7 4.1-13.3 6.2-22.7 6.2-9.2 0-16.4-3-21.6-8.9-5.2-5.9-7.9-14.2-7.9-24.9 0-10.1 2.9-18.4 8.6-24.7 5.7-6.4 12.9-9.6 21.4-9.6s15.1 2.8 19.7 8.3c4.7 5.5 7 13.1 7 22.9v5.5zM585.9 58c0-6-1.5-10.7-4.3-14-2.9-3.3-6.8-5-11.9-5-4.9 0-9.1 1.8-12.5 5.3-3.4 3.5-5.5 8.1-6.3 13.8h35zM642.4 96.1c-2.5 1.4-5.7 2-9.7 2-11.4 0-17.1-6.3-17.1-19V40.6h-11.2v-8.9h11.2V15.9l10.4-3.4v19.2h16.4v8.9H626v36.6c0 4.4.7 7.5 2.2 9.3 1.5 1.9 3.9 2.8 7.4 2.8 2.6 0 4.9-.7 6.8-2.2v9zM702.9 96.7h-10.4V86.6h-.3c-4.5 7.8-11.2 11.7-20 11.7-6.5 0-11.5-1.7-15.2-5.1s-5.5-8-5.5-13.6c0-12.1 7.2-19.2 21.5-21.2l19.5-2.7c0-11-4.5-16.6-13.4-16.6-7.8 0-14.9 2.7-21.2 8V36.3c6.4-4.1 13.8-6.1 22.1-6.1 15.3 0 22.9 8.1 22.9 24.2v42.3zm-10.4-32.9L676.8 66c-4.8.7-8.5 1.9-10.9 3.6-2.5 1.7-3.7 4.8-3.7 9.1 0 3.2 1.1 5.8 3.4 7.8s5.3 3 9 3c5.2 0 9.4-1.8 12.8-5.4 3.4-3.6 5-8.2 5-13.7v-6.6z" class="st1"/></g></svg>