<svg xmlns="http://www.w3.org/2000/svg" xml:space="preserve" id="レイヤー_1" x="0" y="0" style="enable-background:new 0 0 321 143.7" version="1.1" viewBox="0 0 321 143.7"><style>.st0{enable-background:new}.st1{fill:none;stroke:#ddd}</style><g class="st0"><path d="M47.5 57.9h-8l-9.6-16.1c-.9-1.5-1.7-2.8-2.6-3.8-.8-1.1-1.7-1.9-2.5-2.6-.8-.7-1.8-1.1-2.8-1.4s-2.1-.5-3.4-.5h-5.5v24.4H6.4V.5h17.1c2.5 0 4.8.3 6.9.9s4 1.6 5.5 2.9 2.8 2.9 3.7 4.8c.9 1.9 1.3 4.1 1.3 6.7 0 2-.3 3.8-.9 5.5s-1.5 3.2-2.6 4.5c-1.1 1.3-2.4 2.4-4 3.3-1.6.9-3.3 1.6-5.3 2.1v.2c1 .4 1.8.9 2.5 1.5.7.5 1.4 1.2 2 1.9.6.7 1.3 1.6 1.9 2.5.6.9 1.3 2 2.1 3.3l10.9 17.3zM13.1 6.6v20.8h9.1c1.7 0 3.2-.3 4.7-.8 1.4-.5 2.7-1.2 3.7-2.2 1-.9 1.9-2.1 2.4-3.5.6-1.4.9-2.9.9-4.6 0-3.1-1-5.5-3-7.2-2-1.7-4.9-2.6-8.6-2.6h-9.2zM87.2 16.9 68.3 64.5C65 73 60.2 77.2 54.2 77.2c-1.7 0-3.1-.2-4.3-.5v-5.9c1.4.5 2.7.7 3.9.7 3.3 0 5.8-2 7.4-5.9l3.3-7.8-16-40.9h7.3l11.1 31.6c.1.4.4 1.4.8 3.1h.2c.1-.6.4-1.7.8-3L80.4 17h6.8zM127.4 57.9h-6.6v-6.5h-.2c-2.7 5-6.9 7.4-12.7 7.4-9.8 0-14.7-5.8-14.7-17.5V16.9h6.5v23.5c0 8.6 3.3 13 9.9 13 3.2 0 5.8-1.2 7.9-3.5 2.1-2.4 3.1-5.5 3.1-9.3V16.9h6.6v41zM175.6 54.6c0 15.1-7.2 22.6-21.6 22.6-5.1 0-9.5-1-13.3-2.9v-6.6c4.6 2.6 9 3.8 13.2 3.8 10.1 0 15.1-5.4 15.1-16.1V51h-.2c-3.1 5.2-7.8 7.8-14.1 7.8-5.1 0-9.2-1.8-12.3-5.5-3.1-3.6-4.7-8.5-4.7-14.7 0-7 1.7-12.5 5-16.6 3.3-4.1 7.9-6.2 13.8-6.2 5.5 0 9.6 2.2 12.3 6.6h.2v-5.7h6.6v37.9zm-6.5-15.2v-6c0-3.3-1.1-6-3.3-8.4-2.2-2.3-4.9-3.5-8.2-3.5-4.1 0-7.2 1.5-9.5 4.4-2.3 3-3.4 7.1-3.4 12.4 0 4.6 1.1 8.2 3.3 11s5.1 4.1 8.7 4.1c3.7 0 6.7-1.3 9-3.9 2.2-2.7 3.4-6 3.4-10.1zM206.1 58.9c-6.1 0-10.9-1.9-14.5-5.7-3.6-3.8-5.4-8.9-5.4-15.2 0-6.9 1.9-12.3 5.6-16.1 3.8-3.9 8.8-5.8 15.3-5.8 6.1 0 10.9 1.9 14.3 5.6s5.1 9 5.1 15.7c0 6.5-1.8 11.8-5.5 15.7-3.8 3.8-8.7 5.8-14.9 5.8zm.4-37.4c-4.2 0-7.6 1.4-10 4.3s-3.7 6.8-3.7 11.9c0 4.9 1.2 8.7 3.7 11.5s5.8 4.2 10 4.2 7.5-1.4 9.8-4.1c2.3-2.7 3.4-6.7 3.4-11.7 0-5.1-1.1-9.1-3.4-11.9-2.3-2.8-5.5-4.2-9.8-4.2z" class="st1"/></g><g class="st0"><path d="M40.3 72.6H23.8v51.3H17V72.6H.5v-6.1h39.8v6.1zM68.6 123.9H62v-6.4h-.2c-2.9 4.9-7.1 7.4-12.6 7.4-4.1 0-7.3-1.1-9.6-3.2-2.3-2.2-3.5-5-3.5-8.6 0-7.7 4.5-12.1 13.5-13.4L62 97.9c0-7-2.8-10.5-8.4-10.5-4.9 0-9.4 1.7-13.4 5v-6.7c4-2.6 8.7-3.8 13.9-3.8 9.6 0 14.5 5.1 14.5 15.3v26.7zM62 103.2l-9.9 1.4c-3 .4-5.3 1.2-6.9 2.3-1.5 1.1-2.3 3-2.3 5.7 0 2 .7 3.6 2.1 4.9 1.4 1.3 3.3 1.9 5.7 1.9 3.3 0 5.9-1.1 8.1-3.4 2.1-2.3 3.2-5.2 3.2-8.7v-4.1zM115 123.9h-9.2l-18.1-19.7h-.2v19.7H81V63.2h6.6v38.5h.2L105 82.9h8.6l-19 19.8 20.4 21.2zM151.1 123.9h-6.6v-6.4h-.2c-2.9 4.9-7.1 7.4-12.6 7.4-4.1 0-7.3-1.1-9.6-3.2-2.3-2.2-3.5-5-3.5-8.6 0-7.7 4.5-12.1 13.5-13.4l12.3-1.7c0-7-2.8-10.5-8.4-10.5-4.9 0-9.4 1.7-13.4 5v-6.7c4-2.6 8.7-3.8 13.9-3.8 9.6 0 14.5 5.1 14.5 15.3v26.6zm-6.6-20.7-9.9 1.4c-3 .4-5.3 1.2-6.9 2.3-1.5 1.1-2.3 3-2.3 5.7 0 2 .7 3.6 2.1 4.9 1.4 1.3 3.3 1.9 5.7 1.9 3.3 0 5.9-1.1 8.1-3.4 2.1-2.3 3.2-5.2 3.2-8.7v-4.1zM198.5 120.6c0 15.1-7.2 22.6-21.6 22.6-5.1 0-9.5-1-13.3-2.9v-6.6c4.6 2.6 9 3.8 13.2 3.8 10.1 0 15.1-5.4 15.1-16.1V117h-.2c-3.1 5.2-7.8 7.8-14.1 7.8-5.1 0-9.2-1.8-12.3-5.5-3.1-3.6-4.7-8.5-4.7-14.7 0-7 1.7-12.5 5-16.6 3.3-4.1 7.9-6.2 13.8-6.2 5.5 0 9.6 2.2 12.3 6.6h.2v-5.7h6.6v37.9zm-6.6-15.2v-6c0-3.3-1.1-6-3.3-8.4-2.2-2.3-4.9-3.5-8.2-3.5-4.1 0-7.2 1.5-9.5 4.4-2.3 3-3.4 7.1-3.4 12.4 0 4.6 1.1 8.2 3.3 11 2.2 2.7 5.1 4.1 8.7 4.1 3.7 0 6.7-1.3 9-3.9 2.2-2.7 3.4-6 3.4-10.1zM215.1 72.5c-1.2 0-2.2-.4-3-1.2-.8-.8-1.2-1.8-1.2-3s.4-2.2 1.2-3.1c.8-.8 1.8-1.2 3-1.2s2.2.4 3.1 1.2c.8.8 1.3 1.8 1.3 3.1 0 1.2-.4 2.2-1.3 3-.9.8-1.9 1.2-3.1 1.2zm3.2 51.4h-6.6v-41h6.6v41zM229.1 122.4v-7c3.6 2.6 7.5 4 11.8 4 5.8 0 8.6-1.9 8.6-5.8 0-1.1-.2-2-.7-2.8-.5-.8-1.2-1.4-2-2-.8-.6-1.8-1.1-3-1.6-1.1-.5-2.4-1-3.7-1.5-1.8-.7-3.4-1.4-4.8-2.2s-2.5-1.6-3.4-2.5c-.9-.9-1.6-2-2.1-3.1-.5-1.2-.7-2.5-.7-4.1 0-1.9.4-3.6 1.3-5.1.9-1.5 2.1-2.7 3.5-3.7 1.5-1 3.1-1.8 5-2.3 1.9-.5 3.8-.8 5.8-.8 3.5 0 6.7.6 9.5 1.8v6.6c-3-2-6.5-3-10.4-3-1.2 0-2.3.1-3.3.4-1 .3-1.8.7-2.5 1.2s-1.3 1.1-1.6 1.8c-.4.7-.6 1.5-.6 2.3 0 1.1.2 2 .6 2.7.4.7 1 1.4 1.7 1.9.7.6 1.7 1.1 2.7 1.5 1.1.5 2.3.9 3.6 1.5 1.8.7 3.4 1.4 4.9 2.1s2.7 1.6 3.7 2.5c1 .9 1.8 2 2.3 3.2.5 1.2.8 2.6.8 4.3 0 2-.4 3.8-1.3 5.3s-2.1 2.7-3.6 3.7-3.2 1.7-5.2 2.2c-1.9.5-4 .7-6.1.7-4 .3-7.7-.5-10.8-2.2zM300.4 123.9h-6.6v-23.6c0-8.5-3.2-12.8-9.5-12.8-3.2 0-5.9 1.2-8.1 3.7-2.2 2.5-3.3 5.6-3.3 9.5v23.2h-6.6V63.2h6.6v26.5h.2c3.1-5.2 7.6-7.8 13.5-7.8 9.2 0 13.9 5.6 13.9 16.7v25.3zM316.2 72.5c-1.2 0-2.2-.4-3-1.2-.8-.8-1.2-1.8-1.2-3s.4-2.2 1.2-3.1c.8-.8 1.8-1.2 3-1.2s2.2.4 3.1 1.2c.8.8 1.3 1.8 1.3 3.1 0 1.2-.4 2.2-1.3 3-.9.8-1.9 1.2-3.1 1.2zm3.2 51.4h-6.6v-41h6.6v41z" class="st1"/></g></svg>