<svg version="1.1" id="レイヤー_1" xmlns="http://www.w3.org/2000/svg" x="0" y="0" viewBox="0 0 477.7 577.8" style="enable-background:new 0 0 477.7 577.8" xml:space="preserve"><style>.st0{fill:#fff}.st1{enable-background:new}</style><g id="member_hayashi" transform="translate(-665.91 -387.742)"><path id="長方形_1505" d="M871.7 463c-104.8 0-190 85.2-190 190v234h425V653c0-104.8-85.2-190-190-190h-45m0-10h45c110.5 0 200 89.5 200 200v244h-445V653c0-110.5 89.6-200 200-200z"/><g id="林さん" transform="translate(773.741 433.057)"><path id="パス_977" class="st0" d="M83.9 457.7s16.2-2 17-1.5 8.8 8.3 8.8 8.3l19.6-21.8-11.2-38.2-43.9 37.8 9.7 15.4z"/><path id="パス_978" class="st0" d="M188.7 428.3c.1-3 .2-31.5.2-31.5l-11.1 3.6s-7.7 25.8-6.5 25.6 17.4 2.3 17.4 2.3z"/><path id="パス_979" class="st0" d="M93 224.1 90.8 284l44.7 23.4 32.3-74.8-65.8-17-9 8.5z"/><path id="パス_980" class="st0" d="m113.3 6.5 9.2-3.7 10.3-1.2L144.2 4l8.5 6.3 12.4 13.9 6 26.8v25l-1.5 29.9-1.6 4.5 6.8 3.7 8.1 10.5 1.3 24.3-1.1 24.2 6.9 23.6 4.9 34.2 2.5 22.4-14.4 1-98.1-18.8-1.6 17.9-21.8 6.5-17.3-6.9-4.9-7.3 6-13.9L59.7 188l-1-6.6 2.7-4.5 4.3-5.5 1.4-20.7 2.3-14.4 3.4-15.9 3.7-8L85 104l13.8-6 2-5.2-1.2-19.9-3.9-23.8V33.2l4.2-12.4c1-3 2.9-5.7 5.4-7.7l8-6.6z"/><path id="パス_981" d="M18 411.2c.7-1.4 1.5-2.7 2.4-3.9 2.3-2.7 4-5.8 5-9.1.9-2.7 1.7-5.5 2.6-8.2 1.2-3.6 2.5-7.2 3.6-10.9.6-2.2.7-4.6 1.3-6.9.8-3.2 1.9-6.3 2.9-9.4.7-2.2 1.4-4.3 2.1-6.5 1-2.8 2-5.5 3-8.3 1-3 2-6.1 3-9.1.9-2.7 1.8-5.4 2.7-8 1.5-4.4 3.1-8.8 4.6-13.2 2.1-6.3 4-12.7 6.1-19 1-3.1 2.3-6.1 3.5-9.2 1.5-3.9 3-7.9 4.6-11.8 1.1-2.7 2.3-5.4 3.6-8 1.7-3.7 3.5-7.3 5.3-11 .1-.2.1-.5.1-.7-1.8.7-3.7 1.3-5.6 1.8-1.6.4-1.6 1.2-1.4 2.5.2 1.8.3 3.6.3 5.4 0 1.6-.6 2.2-2.2 2.2-2.5 0-3.5-1-3.9-3.5-.2-1.7-.5-3.4-.8-5.5-.3.3-.5.6-.8.9-1.2 2.9-2.1 6-2.4 9.2-.2 2.1-.6 4.2-2.6 5.6-1 .7-1.9 1.1-2.9.7-1.3-.5-2.1-1.8-2.2-3.1 0-.6-.1-1.2-.3-1.8-.3 1.1-.6 2.3-1 3.4-.3.8-.6 1.5-1.7 1.3-.7-.1-1.4-.1-2.2 0-1.7.4-3.3-.7-3.7-2.4-.1-.3-.1-.7-.1-1 0-.3-.1-.7-.3-.8-2-1-1.7-2.9-1.7-4.6s.3-3.5.4-5.3c-.4.2-.8.3-1.1.5-2 1.1-3.5.7-4.4-1.4-.2-.5-.2-1.1.1-1.7 1.2-2.7 2.6-5.3 3.7-8 .8-2.1 2.3-4.3 1.6-6.7-.7-2.5.4-4.6 1.2-6.7 2.1-5.7 4.3-11.3 6.3-17s3.6-11.5 5.5-17.1c.9-2.6 2-5.1 3-7.7.8-2.1 1.4-4.2 2.3-6.2.2-.5.9-.8 1.4-1.2.3.5.9.9 1 1.4.1.8 0 1.5-.2 2.2-.9 2.8-1.7 5.6-2.8 8.3-1.2 3-2.5 5.9-3.8 8.8-.4.9-.6 1.9-.9 2.8-2.3 6.8-4.7 13.5-7 20.3-.7 2-1.3 4-1.9 5.9-.6 1.8-.7 3.9-3.2 4 .4.6.7 1.1 1 1.8.9 3.7 3.4 6.9 6.8 8.6 3.7 2 7.9 3 12.2 3 4.6.1 9.3-.7 13.6-2.3 1.7-.6 3.4-1.4 5.1-2.1 2.3-1 2.7-2.9 2.9-5.1.5-4.8 1.2-9.6 1.8-14.4.5-4 1-8.1 1.6-12.1.5-3.6 1-7.2 1.6-10.8.2-1.3.3-2.7.6-4 .1-.4.7-1.1.8-1.1.5.2 1.3.6 1.3 1 .2 1.2.2 2.3 0 3.5-.5 4.1-1 8.2-1.6 12.3-.4 3-.9 6-1.2 9 0 .7.3 1.3.8 1.7 2.5 1.6 5.1 3 7.6 4.6 3 1.9 6.3 3.1 9.8 3.8 3.8.6 7.6 1 11.4 1.1 2.5.2 5.1.2 7.7.1 4.4-.1 8.8-.3 12.9-.5.6.9 1.2 1.8 1.9 2.6.7.5.8 1.4.3 2.1l-.1.1c-.7.9-1.6 1.7-2.6 2.2-1.4.6-2 1.4-1.1 3.3.4.8.7 1.5.9 2.4.5 2.4-.6 4.2-3.2 5.2v-1.9c-.1-1.5-1.2-2.3-2.6-1.5-1.5.9-3 2-4.5 3-.6.4-1.2.8-1.9 1.2-1.3.6-2.3-.2-2.1-1.6.1-.9.5-1.8.5-2.7.1-.7-.2-1.4-.6-1.9-.8-.5-1.6 0-2.2.8-.4.6-.9 1.1-1.5 1.6-1 .8-1.9.4-2.2-.8-.6-2.5-.4-5.2.6-7.6.1-.2.3-.4.4-.6.3-.4.7-.9.7-1.3-.1-.5-.5-.8-1-.9-.6 0-1.4.2-1.6.7-.7 1.2-1.2 2.6-1.4 4-.3 2.1-.3 4.2-.1 6.3.4 2.6 1.7 3.8 4.6 3.1h.3c.3.9.6 1.7 1 2.5 1.3 1.9 3.9 2.4 5.8 1.2 1.5-.9 2.9-2 4.3-3.1.1.4.3.8.5 1.2.7.9.2 1.1-.6 1.6-1.6 1-2.9 2.2-4 3.7-1.6 2.5-3 5.2-4 8-.7 1.9-.7 4 .1 5.9.8 2.2 1.4 4.5 2.9 6.3.1.2 0 .8-.2 1-.7.8-1 1.8.1 2.3.8.2 1.7.1 2.4-.5 2.1-2.5 4.1-5.2 5.9-7.9 2.4-3.5 2.6-7.4 2.2-11.5-.2-1.8-.5-3.6-.9-5.4-.2-.7-.5-1.3-.9-2 4.1-.7 6.9-4.6 6.2-8.7-.1-.7-.3-1.3-.6-1.9-.3-.8-.1-1 .5-1.5 1.1-.9 2.1-2 2.9-3.3 1-1.7.6-3.9-.9-5.1-.2-.3-.4-.5-.5-.8.4-.2.9-.3 1.4-.5 5-.7 10-1.4 15-2 3.9-.5 7.7-.9 11.6-1.5 2.5-.4 5-1.2 7.6-1.8 1.2-.3 2.5-.3 3.7-.5 1.1-.1 2.1-.3 3.1-.6.5-.2.8-.7.8-1.2-.3-2.7-.5-5.5-1.1-8.2-.3-1.1-.9-2-1.6-2.9-1.4-1.8-2.3-3.7-1.8-5.9.6-2.4 1.4-4.8 2.4-7.1 1.5-3.2.7-6.2-.2-9.3-.3-1.2-.7-2.3-1.2-3.4-1-2.3-3.2-3.7-5.7-3.6v3.1l1.2-.8c.2.4.7 1 .6 1.3-.3 1.4-.9 2.7-1.5 3.9-2.7 4.2-6.4 7.5-10.1 10.8-2.4 2.2-4.8 4.3-7.4 6.3-4 3-8.1 6-12.4 8.7-2.2 1.2-4.5 2.3-6.9 3.1-.7.3-1.6.1-1.6-.8 0-.7.4-1.3.9-1.6 4.8-1.8 8.9-4.8 13-7.9 4.4-3.3 8.9-6.6 13.1-10.1 3.5-2.9 6.6-6.2 9.6-9-.5-1.6-.8-3.2-1.1-4.9-.2-3.5-.4-7.1-.4-10.6 0-4.5-.1-9.1.1-13.6.2-5.5.5-11.1.7-16.6.1-2.3.1-4.7 0-7 0-.4-.1-.7-.3-1-1.7-1.9-1.5-4.6-2.8-6.8-.1-.2.2-.9.5-1.2.2-.1.9 0 1.1.3.5.6.9 1.3 1.2 2.1 2.7 5.5 2.4 11.3 2.2 17.1-.2 6.9 0 13.7 0 20.6 0 4 .1 8 .1 11.9 0 .2.1.3.1.5 1 .2 1.9.4 2.9.7 2.4.8 4.3 1.9 5.3 4.5 1.1 3 2.3 5.8 2.7 9 .2 2.8-.4 5.6-1.8 8.1s-1.2 5.6.6 7.8c1.9 2.3 2.4 5 2.5 7.8.1 1.7-.1 3.4-.1 5.1 0 .1-.1.2-.1.3 1.6 2.4.5 5.1.9 7.7.5 3.2.7 6.5 1 10 1.2-.4 2.3-.7 3.5-1 1.2-.2 2.4-.3 3.6-.3-.3-3.6-.6-7.2-1-10.8s-.9-7.3-1.4-10.9c-.4-3-.9-6-1.3-9l-1.8-10.5c-.5-2.8-1-5.7-1.5-8.5-.6-3.7-1.1-7.4-1.9-11-1.1-4.9-2.6-9.8-3.9-14.8l-1.2 1-.4-.1c.1-3.9.3-7.8.4-11.7.2-6.1.4-12.1.5-18.2.1-3.6 0-7.1 0-10.7.1-5.7-1.1-10.9-4.5-15.6-.9-1.3-1.6-2.7-2.6-3.9-.6-.8-1.6-1.3-2.2-2-.6-.7-1.1-1.4-1.4-2.2-.1-.1.2-.7.4-.7.4-.1 1.1-.2 1.3 0 1.5 1.2 2.9 2.5 4.1 3.9 2.1 2.7 4 5.6 5.6 8.6 1.1 2.2 1.8 4.7 2 7.1.4 4.2.4 8.5.5 12.7s.2 8.4.1 12.6c0 2-.3 3.9-.5 5.9-.2 2.8-.3 5.6-.8 8.4-.4 2.3.4 4.3 1.1 6.4 1.1 3.2 2.3 6.4 3.2 9.6 1.4 5 2.6 10.1 3.7 15.2 1.1 5.4 1.9 10.8 2.8 16.2.6 3.7 1.2 7.5 1.7 11.2.6 4.7 1 9.5 1.5 14.2.2 1.7.3 3.3.4 5 .1.5.1 1 0 1.4-.7 2 .4 4 .2 5.9-.3 2.1.3 4.2-.3 6.3-.3 1.1.1 2.5.2 3.7.1 1.5.2 3.1.2 4.7-.1.5-.3.9-.8 1.2-.4.2-.9.1-1.3-.1-1.8-1.2-2.8-2.4-4.6-6.1-.4.4-.7.9-.9 1.4-.5 1.3-.9 2.6-1.2 4-.2 1.2-.8 1.7-2.3 1.6.3 2.8.6 5.5.9 8.2.2 2.3.5 4.6.6 6.8.3 4.7.6 9.5.8 14.2.2 3.7.2 7.4.3 11 .1 6.2.1 12.3.1 18.5 0 7.7.1 15.4.1 23 0 3-.3 6-.5 9-.3 6.4-.7 12.9-1 19.3-.2 5.5-.3 11-.4 16.4 0 .3 0 .6-.1 1-2.9-.2-4.2 1.8-5.2 4-.8 1.8-1.4 3.7-1.7 5.6-.3 1.9.7 3.1 2.9 4l-.6 2.7c-.8 3 .6 6.1 3.3 7.6.8.5 1.4.9 1.3 2.1-.3 6.9-.3 13.9-.7 20.8-.2 4.8-.8 9.6-1.2 14.4-.3 1.5-1.5 2.7-3 2.9-.3 0-.6.1-.8.2-1.3.4-2.5.9-3.8 1.3-2 .6-3.9 1.2-5.9 1.9-2.8.9-5.7 1-8.5.4-3.4-.7-6.7-1.7-10-2.8.1 1.2.2 2.6.3 4.1.3 3.9.6 7.9.9 11.8.1 1.2.3 2.3.8 3.4 1.4 3 2.8 6 4.5 8.9 1.4 2.2 2.9 4.3 4.5 6.2 2.5 3.4 4.5 7.1 5.9 11 1.2 2.7 2.1 5.4 2.8 8.2.4 2.4.6 4.9.5 7.4-.1.7-.5 1.3-1 1.7-2.6 2-5.2 4-8.4 5-1.9.5-3.9.3-5.6-.4-1-.5-2.1-.9-3.2-1.1-.9-.3-1.8-.8-2.5-1.4-2.5-1.8-5-3.5-7.3-5.5-2.2-2-4.2-4.2-6-6.5-1.7-2.1-3.3-4.2-4.8-6.4-.5-.9-.8-1.9-.9-2.9-.4-3.7-.6-7.3-.9-11 0-.1-.1-.3-.3-.4-.4 1.7-.8 3.3-1.2 5-.4 1.5-1.2 1.9-2.6 1.3-1.3-.5-2.7-.9-4-1.4-1.3-.6-1.9-2.1-1.6-3.5l3-14.2c.9-4.3 1.8-8.5 2.7-12.9-1.3 0-2.3.1-3.4 0-4-.3-8 0-11.8-1.3-3-1-5.6-2.6-7.1-5.5-.3-.8-.5-1.6-.3-2.4.3-1.9.8-3.7 1.1-5.5.1-.8.3-.9 1.2-.8 2.6.4 5.3 0 7.6-1.2 1.9-1.1 2.2-3.2 2.2-5.2 0-1.2-.4-2.4-.5-3.6-.1-.6.1-1.3.5-1.8 2.1-2.4 2.1-5.4-.3-7.3-.9-.7-.6-1.2-.3-2 .5-1.2.8-2.5.9-3.8 0-1.5-.9-2.1-2.4-2.1-1.4 0-2.8.2-4.5.3.2-1.7.5-3.3.7-4.9.2-1.2.5-2.3.6-3.4 0-.5-.3-1-.5-1.5-.4.4-.9.7-1 1.1-.5 2.2-.9 4.4-1.4 6.6-.4 1.6-.9 3.1-1.2 4.7-.2.9 0 2-.1 2.9-.6 4.7-1.3 9.3-2.1 14-.6 3.6-1.4 7.2-2.1 10.8-.1.4-.2.8-.5 1.5l-4.2-3.2c.3-1 .6-1.9 1.1-2.8 1.4-1.9 1.1-4.7-.9-6.1-.5-.4-1-.6-1.6-.7-1.9-.6-3.8-.8-5.5.7-.4.2-.8.3-1.3.2-3.4-.4-4.5 1.3-5.2 3.9-.2 1.3-.2 2.6.1 3.9.1.5.8 1.3 1.2 1.3.9 0 .7-.8.7-1.5-.1-1.5-.5-3 .5-4.5.5-.8 1.4-1.2 2.3-1 .9 0 .7.8.9 1.4.2.5.5.9.8 1.3 1-.1 1.8-.9 1.7-2 0-.1 0-.2-.1-.4-.1-1.1.6-1.5 1.6-1.5 1.9-.1 3.2 1 3.1 2.6-.1.3-.2.7-.4.9-.5.7-.8 1.4-1.1 2.1-.3 1.2-.7 2.1-2.3 1.8v19c0 3.6.2 7.2.2 10.9 0 4.2-.2 8.4-.4 12.5-.1 1.8-.7 3.6-.5 5.4.1 1 .4 2-.2 2.9-.8 1.2-1.7 2.3-2.5 3.5-2.5 3.3-5 6.6-7.6 9.8-2.6 3.4-5.3 6.7-8 10-1.4 1.8-3.5 2.2-5.6 2.3-2.2.1-4.5.2-6.4-.7-2.5-1.1-5.3-1.9-7-4.3-1-1.3-1.3-3-.7-4.6.7-2 1.1-4 1.7-6 1.2-4.1 2.4-8.1 3.5-12.2.3-1 .4-2.1.8-3.1.4-1.3 1.2-2.4 1.6-3.7.9-3.2 1.7-6.4 2.4-9.6.3-1.7 0-3.5.2-5.3.4-3.8 1-7.7 1.5-11.5.3-2 .6-4.1.9-6.4-4.7 1.5-9.5 1.5-13.7 3.6-2.6 1.3-5.3 1.1-8 .8-2.8-.3-5.6-1-8.1-2.2-3.4-1.2-5.9-4-6.9-7.5-.1-.2-.1-.4-.3-.8l-9.9 1.8c-1 .2-2 .6-3.1.9-3 .8-6.3.4-9-1.3-4.1-2.3-6.5-6-8.8-9.8-1.4-2.2-2.4-4.6-2.9-7.2.3-2.6.1-4.7.1-6.9 0-.5.5-1 .8-1.5 3.1-4.6 6.2-9.3 9.3-13.8 2.1-3.1 4.3-6.1 6.5-9.2.3-.4.6-.7.9-1-.6 1.6-1.1 3.2-.5 4.9 1.1 2.9 3.8 4.1 6.2 2.7.9-.7 1.8-1.4 2.7-2.2 2 .5 4.2-.1 5.6-1.6 1.2-1.1 2.1-1.8 3.9-1.6 2 .2 3.3-1.8 2.7-4.5-.1-.5-.2-1.1 0-1.4 1.5-1.6 1.6-4 .4-5.7-1.3-2.2-1.5-4.8-.5-7.2.3-.9.4-1.8.2-2.8-.2-.7-.8-1.2-1.5-1.5-2.5-.2-5 .4-7.2 1.6-.7.5-1.3 1.2-1.7 1.9-.1.2.1.8.4 1 .4.1.7.1 1-.2 1.8-2.2 4.4-2.1 7.1-2.5-.1.6-.2 1.2-.4 1.8-1.1 2.9-1.4 5.7.2 8.6.7.9.5 2.1-.3 2.8-.9.7-1.2 1.9-.7 3 .2.6.2 1.2.4 2.2-.7-.5-1.1-.8-1.4-1-.5-.6-1.5-.7-2.1-.2-.2.1-.3.3-.4.5-.4.6-.7 1.2-1 1.7-.8 1.3-2.1 1.7-3.7 1.8.1-.7.1-1.2.2-1.7.2-1.3-.5-2.6-1.4-2.7s-1.7.7-1.9 2.1c-.1 1.6-.7 3.2-1.8 4.4-.7.7-1.7.4-1.6-.5.1-1.1.3-2.2.8-3.3.2-.5.7-.9.9-1.5.1-.5 0-1-.3-1.3-.4-.2-.8-.3-1.2-.1-1 .9-1.9 1.5-2.6 2.2zm86-79.6c-.8.7-1.5 1.1-1.7 1.7-.7 1.8-1.3 3.6-1.8 5.5-.8 3.3-1.5 6.6-2.2 9.9-.8 3.4-1.7 6.7-2.4 10.1-.9 4.3-1.8 8.6-2.6 12.9-.5 2.9-.9 5.9-1.4 8.8s-1.1 6-1.6 9c-1.7-.9-3.8-.9-5.5-.1-3.5 1.8-5.6 6.5-5 10.9-2.5 1.2-4.1 3.9-3.9 6.7 0 .8-.4 1.1-1.1 1.2-1.7.4-3.4.8-5.1 1.3-.7.3-1.3.6-1.9 1.1.1.2.1.5.2.7.7.2 1.4.2 2.1.2 2-.4 3.9-1.1 5.9-1.6.3-.1.8-.2 1 0 1.1 1.3 2.6 2.3 4.2 2.9.2.1.3.6.5.8.7.5 1.5.9 2.3 1.2.6.1 1.3.2 2 .1 0 .4-.1.7-.1 1.1-1.2 4.3-2.5 8.6-3.6 13-.9 3.8-1.4 7.6-2 11.4-.2 1.4 0 2.5-1.7 3.5-1.8 1.3-3.4 2.9-4.7 4.8-1 1.3-2.5 2.1-4.2 2.1-2.8.1-5.5 1.1-7.8 2.7-.5.4-1.1.7-1.4.9-.5-1.4-.6-2.9-1.4-3.9s-2.3-1.4-3.7-2.2c0-.2.2-.6.3-1.1.9-3.8-.2-5.5-4-5.2-1 .1-1.9.2-3 .4-.1-1-.2-1.9-.3-2.8-.5-2.5-2-3.5-4.3-2.7-.9.4-1.7.9-2.5 1.4.2-.9.3-1.8.5-2.6.8-3.1 1.5-6.2 2.3-9.4.2-.8.5-1.8-.6-2.1-.9-.2-1.3.6-1.5 1.4-.6 1.8-1.1 3.6-1.6 5.4-.9 3.4-1.7 6.8-2.7 10.1-.9 2.9-1.9 5.8-3 8.7-.9 2.4-1.8 4.8-2.8 7.1-.3.8 0 1.4.7 1.4.6 0 1.1-.4 1.4-.9 1.3-2.8 2.4-5.7 3.6-8.6.8-2.1 1.6-4.2 2.4-6.2.6.1 1.1.4 1.4.3.2-.1.4-.7.4-1.1 0-1.3.8-2.5 2-3 1.1-.7 1.7-.4 1.9.8.4 1.7.3 3.5-.3 5.2-.2.7 0 1.4.4 1.9.5.4 1.3.3 1.7-.2.1-.1.1-.2.2-.3 1-1.6 2.6-1.6 4.1-1.7.7 0 1.2.3.9 1.1-.6 1.6-1.3 3.1-2.2 4.5-.5.9-1.1 1.6-.6 2.5.5.8 1.8.6 2.8 0 .8-.4 1.6-.7 2.5-.9 1-.2 1.5.5 1.2 1.4-.5 1.6-1.2 3.2-2.8 4-1.2.6-1.9 1.2-1.6 2.7.2 1-.7 1.9-1.5 1.6-.6-.4-1.4-.2-1.8.5-.1.2-.2.4-.2.6-.1 1.1.6 2.1 1.7 2.3 1.8.3 3.6-.6 4.3-2.3l1.2-2.7c1.2 1 1.8.9 2.3 0 .4-.9 1-1.7 1.7-2.5 2.1-2.1 4.7-3.6 7.6-4.1 2.4-.4 4.9.2 6.9-1.2.5.7 1 1.7 1.3 1.6.7-.2 1.3-.6 1.8-1.2.3-.4.5-.8.7-1.2.2.5.3 1 .2 1.6-.2 1.5-.3 2.9-.4 4.4.1.7.4 1.3 1 1.6.9.3 1.1-.6 1.3-1.3.2-1 .3-2 .5-3.1.6-3.6 1.2-7.3 1.7-10.9.8-5.1 1.3-10.3 2.2-15.3 1-5 2.4-9.8 3.5-14.8.6-2.6 1-5.2 1.4-7.8 0-.3-.3-.7-.5-1-.4.1-.7.3-1 .6-.2.2-.2.7-.3 1-.3 1.3-.6 2.6-1 3.9-.4 1.1-2.3 1.1-3.1.3-.6-.6-1.4-1-2.2-1.3-1.3-.5-2.3-1.7-2.5-3.1 0-2.2.9-3.1 3.4-3.8.7-.2 1.2-.6 1.5-1.2 0-.7-.2-1.3-.7-1.8-1-.9-1.4-2-.8-3.1.8-1.6 1.9-3.1 3.1-4.5.8-.5 1.9-.7 2.8-.3 1 .5 1.3 1.6.9 2.6-.3 1.3-.6 2.6-.6 4l.5.2c.4-.4 1-.6 1.2-1.1.4-.9.8-1.9 1-2.9.7-2.9 1.3-5.9 1.9-8.8.7-3.6 1.3-7.3 1.9-10.9s1.3-7.4 2.1-11.1c1.1-5 2.6-9.9 3.7-14.9 1.2-5.2 2.1-10.4 3.1-15.5 0-.2 0-.8-.1-1.3zm51.5 96.4c.2-5.3.5-10.3.7-15.3.1-2.1.1-4.2.2-6.3.2-3.7.5-7.4.8-11 .4-5.5.8-11 1.2-16.4.4-5.7.8-11.4 1.3-17.1.2-2.1.4-4.1.5-6.2-.1-.5-.3-1-.5-1.5-.4.4-1.1.7-1.2 1.2-.3 1.5-.5 3-.6 4.5-.4 4.5-.6 9-1.1 13.4s-1 8.9-1.5 13.4c-.3 3.3-.6 6.6-.9 10-.3 3.7-.4 7.5-.7 11.2-.1 2.1-.4 4.2-.6 6.3 0 .9-.7 1.6-1.6 1.6-1.5.1-3 .8-4 1.9-.3.3-.8.3-1.2.5-.1-.5-.1-1-.2-1.5 0-.2.2-.4.3-.6.5-.9.1-2-.8-2.4-.2-.1-.5-.2-.8-.2-1.4-.1-2.9-.2-4.3-.4-1.6-.2-1.9-.6-1.1-2 1.7-3.3 3.8-6.4 6.3-9.2.9-1 .9-2.2-.1-2.6-.6-.1-1.3 0-1.8.3-1 .4-2 .5-2.2-.7-.4-1.5-.5-3-.4-4.5.3-1.3.8-2.4 1.6-3.4.7-.9 2.2-.7 2.3.2.1 1.1.8 1.2 1.6 1.1.9-.2 1.9.4 2.1 1.3.2.8.3 1.7.4 2.5 0 .8.1 1.6.4 2.3.7 1.1 1.1 2.5 1 3.8 0 .9.6 1.8 1.5 1.7.6-.1 1.7-1 1.6-1.5-.2-1.4-.5-2.9-1-4.3-.4-.9-.8-1.8-1.1-2.7-.3-3.3-1.4-4.6-4.6-5.5-.3-.1-.4-.4-.7-.6-.7-.5-1.5-.8-2.3-1-2.3-.1-3.4 1.5-4.5 3.2-1.1 1.8-.9 3.9-1 5.9-.2 2 .9 4 2.7 4.9-.1.3-.3.7-.5 1-1.5 2.3-3.4 4.5-4.6 7.1-1.4 3-1 5.5 3 6 1.1.1 2.2.3 3.3.5 0 .4 0 .7-.1 1-.4 1.4.4 2.9 1.7 3.5 1.8 1 3.8.6 5.5-1.2 1-1.1 2-1.8 3.6-1.1-.3 6.3-.6 12.6-1 19l-.6-.3c-.8.5-1.9.8-2.3 1.5-.8 1.5-1.4 3.1-1.9 4.8-.3 1.1.1 2.3 1 3 .3.3.5.8.5 1.3-.1 1.5-.3 2.9-.4 4.4-.1 1.1.5 2.1 1.7 2.1 1.6 0 1.4.9 1.4 1.9 0 1.5.1 3 .3 4.6 0 .3.6.6.8.9.3-.3.7-.7.8-1 .2-.9.3-1.9.3-2.8.3-7.3.4-14.5 1-21.8.2-2.3-.6-4.8 1.7-7.1 1.4-1.5 3.3-2.3 5.4-2.4 2.1 0 2.5.5 2.2 2.5-.1.4-.2.9-.4 1.3l-2.1 3.9c-.7 1.3-.3 2.5 1.1 2.5 1.5.1 1.9.8 1.7 2.1-.1.8-.2 1.6-.4 2.3-.8 2.2.3 4.7 2.5 5.5.2.1.4.1.5.2.4.1.8.3 1.2.5-.8 1.1-1.5 2-2.1 2.8-.2.2-.3.4-.5.6-1.3 1.2-2.4 1.4-3.6.6-1.2-.8-2.2-1.7-3.4-2.4-.5-.3-1.5-.6-1.8-.4-.5.6-.7 1.3-.7 2 .1.6.5 1.1 1 1.5 1.1.9 2.4 1.7 3.6 2.4 1.8 1.2 3.6.9 5.4-.2s2.7-2.8 4-4.3c2.2-2.6.6-5.4-1.9-6.1-1-.3-1.3-.8-1.1-1.8.3-1.5.4-2.9.5-4.4.1-1.3-.6-2.5-1.7-3.2-.5-.2-.7-.9-.5-1.4v-.1c.6-1.4 1-2.9 1.3-4.4.4-2-.9-4-3-4.4-.2 0-.5-.1-.7-.1-2.6.1-5.4.4-7.4 3.3zm-86.8-71.3.2-.3c-.9-.8-1.6-2.1-2.7-2.4-3.1-1-7.4 2-7.6 5.2.1 1.2-.6 2.2-1.7 2.6-.5.2-1 .5-1.4.8-3.6 1.7-5.4 5.7-4.5 9.5.4 2.3 1.4 3.2 3.8 3.1.9 0 1.1.3 1.3 1.1.4 2.2 2.4 3.8 4.6 3.5 1.2-.2 2.3-.5 3.4-1.1.7-.3 1-.5 1.5.2 1.2 1.7 4.4 1.8 5.9.8 2.2-1.4 3.7-3.2 4-5.9.1-1.2 1-1.3 1.8-1.5.8-.2 1.5-.3 2.3-.3 1.3.8 2.9.7 4.1-.2 4.2-3 6.7-7.7 7-12.8.3-4.2-.5-8.5-.8-12.8 0-.2 0-.4-.1-.5-.4-.9-.9-1.8-2-1.6-1.2.3-.7 1.4-.6 2.2.2 1 .7 1.9-.2 2.8-1.4 1.5-2.8 3-4.4 4.3-2.2 1.7-4.1 3.6-4.9 6.3-.4 1.4-.8 2.8-1.2 4.4-.7-.9-1.2-1.6-.7-2.8.6-1.7-.3-3.6-2.1-4.2-.8-.3-1.6-.5-2.5-.7.3-.7.6-1.5.8-2.3.7-2.9 1.9-5.8 1.5-8.8-.2-.5-.4-1-.7-1.4-.3.5-.8.9-.9 1.4-.3 1.2-.3 2.4-.5 3.6-.4 2.5-.9 4.9-1.5 7.6l-1.2.2zm77-20.4c-.8 2.4-1.6 4.5-2.3 6.7-1.2 3.8-1.7 7.6-.2 11.5.8 2 1.4 4 1.9 6.1.2.9.3 1.8 1.1 2 .8.1 1.5-.1 2.1-.7 2.2-2 3.9-4.6 4.9-7.4.6-2.2.9-4.5 1-6.8.1-1.3-.1-2.7-.6-4-1.4-2.9-3.1-5.6-4.7-8.5.1-.1.1-.2.2-.3 1.6-1.9 3.8-2 5.9-1.9 2.7.1 3.6-1.3 3.6-3.9 0-.6-.1-1.3-.2-1.9-.7-2.5-.7-5.2.1-7.7.2-.7.3-1.4.3-2.1 0-1.3-.1-2.6-1.5-3.1-1.2-.4-2.4-.7-3.7-.8-1.2.1-2.4.2-3.5.5-.2-.9-.4-1.6-.7-2.4-.8-2.4-3.3-3.7-5.7-2.9-.5.2-.9.4-1.3.7-2.7 1.9-3.8 5.3-2.8 8.4.1.5.6.9 1 1.3.2-.5.5-1 .7-1.6.1-.2-.1-.4-.1-.6-.4-2.3.8-4.7 2.9-5.8 1-.6 2.4-.3 3 .7.1.1.1.3.2.4.2.7.4 1.5.4 2.2.1 2.6 1.1 3.3 3.6 2.3 1-.4 2.1-.6 3.1-.7 1.9-.1 2.4.8 1.8 2.6-1.1 2.5-1.3 5.4-.5 8 .3 1.2.4 2.5.4 3.8h-2c-1.9-.2-3.8.3-5.3 1.6-1.2 1-2.8 1.5-4.3 1.4-.8 0-1.7.3-2.5.3s-2 .1-2.6-.3c-1.8-1.5-2.1-2.6-.9-5 .5-.7.9-1.5 1.3-2.3.1-.7.1-1.3 0-2-.7.1-1.6-.1-2 .3-.7.8-1.4 1.7-2 2.7-2 2.6-1.4 5.1.6 7.7 1.1 1.5 3 2.3 4.8 1.9 1.3-.1 2.8-.2 4.5-.4zm21.8-55.6c.6.9 1.8 1.3 2.8 1 1.3-.3 2.6-.7 3.7-1.3 3.6-2.1 6.6-5.1 7.5-9.3.6-3 .4-6.1.6-9.2.1-1.4.4-2.8.5-4.2 0-.5.1-1.2-.1-1.4-.4-.3-1-.4-1.5-.2-2.2 1.5-4.3 3.1-6.3 4.8-1.3 1.4-2.6 2.9-3.7 4.5-.9-1.2-2.3-1.9-3.8-1.8-1.4.1-2.8.4-3.7 1.6-.6.8-.5 2.3.3 2.7 1 .5 1.1-.5 1.5-1 .7-1 2.1-1.1 3.1-.4.2.1.4.3.5.5-.3.4-.7.8-1.1 1.1-1 .7-1.5 2-1.1 3.2.2.6.5 1.1.8 1.7.9 2-.1 4.3-2.1 5.2-.2.1-.4.2-.6.2-.2 0-.4 0-.6-.1-1.7-.7-2.1-.7-2.9.9s-2.1 2.1-3.6 2.7c-1 .4-2.2-.1-2.6-1.1-.3-.5-.6-1-.7-1.6-.5-1.8-1.1-3.5-.4-5.4.7-1.7.7-1.9-.9-2.7-1-.5-1.6-1.4-1.7-2.5-.2-1.4.7-2.7 2.1-3.1 1.5-.6 3-2 4.7-.2.5.2 1 .1 1.4-.2.4-.6.6-1.3.5-2-.2-.6-.7-1-1.2-1.2-2.8-.4-5.7.3-8.1 1.8-3 2-2.9 6.5-.9 8.8.4.5.7 1.1.7 1.7-.3 3.3.6 6.6 2.6 9.2.7 1.1 2 1.6 3.2 1.5 2.3-.2 4.4-1.3 5.8-3.1.4-.4.8-.8 1.4-.9 1.2 0 2.4 0 3.9-.2zm-97.7 13.5.3.3c-.1.5-.2 1.1-.4 1.6-.5 1.1-.9 2.2-1.2 3.4-.3 1.5.6 2.3 2.2 1.8.4-.1.7-.4 1.1-.5 1.8-.8 3.9-.8 5.8-.2l-2.7 2.7c-.7.5-1.7.8-1.4 1.9.2.6 1.1 1.1 1.6 1.6.8.7 1.6 1.5 2.3 2.3.5.6.4 1.6-.2 2.1-.1.1-.1.1-.2.1-.9.6-2 .5-2.7-.3-.4-.4-.7-.8-1.1-1.2-.5-.7-1.5-.8-2.2-.3-.1.1-.2.1-.2.2-.7.6-.8 1.7-.2 2.4.3.5.7.9 1 1.3-.5.6-.8 1-1.2 1.5-1 1.1-1.7 1-2.5-.2-1.4-2.2-2-2.3-4.2-1.1-.4.3-.8.5-1.1.7-.3.1-.8.3-1.1.2-.3-.3-.4-.7-.3-1 .3-1.2.7-2.3 1.1-3.4.5-1 .1-2.1-.9-2.6-.2-.1-.4-.2-.7-.2-.4-.1-.8 0-1.2 0-1.9-.2-2.3.4-1.8 2.2.2.9.3 1.8.2 2.7 0 .6-.2 1.1-.3 1.7-.3 3.4 1.9 5.3 5.1 4.3.5-.1.9-.4 1.3-.7.7-.6 1.1-.3 1.6.3s1.2 1 2 1.3c2.3.8 3.9-.4 5.4-2.1.9-1 1.5-2.2 3.1-2.3 3-.1 5.1-2.4 4.5-5.3-.4-1.7-1.5-3.2-2.3-4.8-.1-.2.1-.5.3-.9.6-.9 1.1-1.8 1.4-2.9.5-2.6-1.2-3.6-4-3.7-1.3 0-2.6.1-4 .2.2-.6.6-1.1.5-1.6 0-1.1-.3-2.3-.8-3.3-.7-1-2-1.2-3-.6-2.3 1.1-4.4 2.8-5.9 5-.8.9-1 2.2-.6 3.4.1.4.6.6 1 .9.3-.3.6-.7.8-1.1.3-.9.6-1.8 1.1-2.6 1.1-1.1 2.3-2.1 3.6-3 .3 0 .7-.2 1.1-.2zm30 16.5c.1-1.5.1-3.1 0-4.6-.2-2-.3-4.1-1.2-5.9-2.2-4.4-5.8-7.6-10-10.1-.8-.5-1.5-.7-2.2 0s-.4 1.4.1 2c1 1.2 1.2 2.8.7 4.2l-.3 1.5c-.5 4 0 8 1.3 11.7 1 3 2.9 5.5 6.1 6.4.8.1 1.6.2 2.4.2-.3 1.8-.5 3.5 1.3 4.9-.5.4-.9.7-1.3 1-2.3 1.9-3.9 4.1-4 7.2-.1 2.5-.1 4.9 2.2 6.5.9.7 2.2.7 3-.1.8-.8.5-1.9-.5-2.1-1.5-.2-1.8-1.2-1.9-2.4-.2-2.9.4-5.4 2.9-7.3.6-.5 1.1-1 1.6-1.6.8-.7.9-2 .2-2.8l-.2-.2c-.9-.6-1.3-1.8-.8-2.8.6-2.2 1.8-4.2 3.5-5.6.3-.4.6-.8.8-1.3-.6-.2-1.2-.2-1.8-.2-.7.4-1.3.9-1.9 1.4zm80.7 47.4c.2-.3.4-.7.6-1 .7-1.6 1.2-3.2 1.6-4.9.3-1.9-1-3.3-2.8-3.9-1.7-.5-3.4-.6-4.7.8-1.6 1.8-2.6 3.8-1.8 6.3.4.6.9 1 1.6 1.2 1 .3 1.3-.4.9-1.2-1-1.8 0-3.2.9-4.6.3-.3.6-.5 1-.5 2-.2 3.1 1.4 2.2 3.3-.7 1.4-1.6 2.8-2.4 4.2-.9 1.6-.6 2.4 1.1 2.6 1.2.1 1.4.7 1 1.6l-.9 1.8c-.3 1-.5 1.9-.5 2.9.1.7.3 1.4.6 2.1.3 1.4-.6 2.8-2 3.2-1.3.2-1.2-1.1-1.6-1.8-.1-.2-.1-.4-.1-.5-.5-2-1.6-2.4-3.4-1.4-1.6 1.1-3.7 1.4-5.6 1 0-.3.1-.5.2-.8l1.5-2.4c1.3-1.8 1.2-2.6-.2-4.3-.2-.3-.3-.7-.5-1 1.3.4 2.3.6 3.2.9.8.3 1.6-.1 1.8-.9.1-.3.1-.6 0-.9-.4-1.2-1-2.3-1.7-3.3-.3-.5-1.1-.6-1.7-.9-.1.6-.2 1.1-.3 1.7 0 .2 0 .4.1.6-1.5.4-3.4-.1-4.2 1.8-.6 1.5-.3 3.3 1 4.4-.7 1.1-1.4 2.1-2 3.1-.7 1.1-.7 2.6-.1 3.7.6 1.3 2.1 2.1 3.5 1.8l5.7-.9c.2.4.4.8.6 1.3.8 1.6 1.5 2.1 3 1.9 3.3-.5 6.4-3.6 4.8-7.6-.4-.9-.4-1.9.2-2.7 1.8-3 1.5-5.1-.6-6.7zm-29.9 135.1v-.2c1.6-.3 3.3-.6 4.8-1 .5-.1 1.2-.8 1.2-1.1 0-.9-.7-1.1-1.6-1-1.5.2-3 .4-4.6.6-1 .1-1.4 0-1.4-1.2s-.1-2.3-.4-3.5c-1.7-6.5-2.4-13.2-3.4-19.9-.2-.5-.5-1-.8-1.5-.3.5-.6.9-.9 1.5-.1.3-.1.6 0 .9.1 1.7.2 3.3.4 5 .2 2.6.3 5.3.7 7.9.5 3.6 1.2 7.1 1.8 10.6 0 .4-.2.7-.5.9-1.5 1.2-3.1 2.4-4.7 3.6-.6.5-.9 1.1-.3 1.7.3.2 1 .1 1.5-.1.6-.2 1.1-.9 1.6-.9 1.6 0 3.2.2 5 .3.2.5.5 1.1.8 1.8 1.3 2.8 2.4 5.6 3.8 8.3 1.5 3 3.2 5.9 4.9 8.8 1.3 2.1 2.6 4.2 4 6.2.3.4 1.1.3 1.6.5 0-.6.3-1.3 0-1.8-.4-.9-1.1-1.6-1.6-2.5-2.8-5-5.6-10-8.3-15-1.1-2.1-2-4.3-3.1-6.6.8 0 1.4-.1 2-.1 1.4-.1 2.8-.2 4.1-.4.3 0 .9-.7.8-.9-.2-.4-.6-.8-1-1-.4-.1-.8-.1-1.2-.1l-5.2.2zm-34.5-98.7c-1.3-1.8-2.1-1.8-3.3 0-.9 1.2-1.8 2.5-2.7 3.7-.6.7-1.2 1.3-2 2.1-.2-.4-.3-.8-.4-1.2-.7-3.3-2.1-4-5.1-2.4-.6.3-1 .3-1.1-.6-.5-3.8.6-6.9 3.8-9.2 2-1.4 1.9-2.2-.2-3.3-1.6-.8-2.8-2.2-3.5-3.8l-.9-1.2c-.2.5-.7 1-.7 1.5.4 2 1.5 3.7 3.1 4.9-.7.8-1.3 1.6-2 2.4-2.2 2.7-3.1 6.4-2.2 9.8.3.8.9 1.4 1.6 1.9 1.3.9 2.6.3 4-.4.3.5.5 1.1.6 1.7.1 1.5 1.2 2.7 2.7 2.9 1.4.3 2.3-.7 3.2-1.6s1.5-2.1 2.4-3.1c.4-.3.8-.5 1.3-.4 2.2.3 3.3-.2 4.5-2.2 1.6-2.4 2.1-5.3 1.6-8-.2-2-1.4-3.8-3.1-4.8-.7-.5-1.7-.4-2.2.3-.9 1-.1 1.7.6 2 2.6 1.7 1.9 7.1 0 9zm-91.4 55.1-.6.2c-.1-.2-.2-.4-.4-.6-1.9-2.3-4.3-4.2-6.9-5.6-4.3-2.5-8-5.4-8.7-10.8-.1-.5-.6-.8-1-1.3-.2.5-.7 1.1-.7 1.5.3 2.8 1.4 5.5 3.3 7.6 2.4 2.8 5.8 4.4 8.6 6.6 2.4 1.9 4.8 3.8 5.2 7.2.1.9.7 1.9 1.7 1.6.7-.3 1.3-1 1.5-1.8.3-1.3.4-2.7.4-4 .1-3.6.2-7.1-1.3-10.6-1.4-3.6-3.6-6.7-6.4-9.3-1.8-1.6-4.1-2.4-6.4-2.3-.5 0-1.1.7-1.3 1.2-.1.3.4 1 .8 1.2.5.2 1 .3 1.5.4 1 .2 1.9.5 2.7 1 4.3 3 6.5 7.3 7.5 12.2.4 2 .3 3.8.5 5.6zM83 492.1v-.4c1.8-.6 3.6-1.1 5.4-1.7.7-.2 1.4-.7.9-1.4-.4-.4-.9-.6-1.5-.5-1.5.3-2.9.7-4.5 1.1 0-.4-.1-.7-.1-1.1.2-2.2.5-4.4.7-6.5.5-4.7 1-9.4 1.4-14.2.2-2.1.3-4.3.4-6.5 0-.7-.1-1.4-1.1-1.4-1-.1-1 .8-1.1 1.4-.1.5 0 1.1-.1 1.6-.8 5.7-1.8 11.5-2.5 17.2-.5 3.3-.7 6.6-1.1 9.9 0 .4-.2.8-.6 1.1-1.9.8-3.9 1.4-5.8 2.2-.5.3-.9.6-1.3 1 .5.3 1 .6 1.5.8.4.1.7 0 1.1-.1 1.4-.4 2.7-.9 4.1-1.3.5-.1 1-.1 1.5.1 2.7 1.2 5.6 2 8.5 2.3.6 0 1.8-.3 1.9-.6.2-1-.7-1.4-1.6-1.6H89l-6-1.4zm.5-227.9c2.9 1.2 5.2.5 7.1-2.3.4-.6.8-1.2 1.4-1.6 1.9-.9 3.4-2.6 4-4.6.7-2 1.3-3.6-1.2-5.3-.7-.5-1.3-1.1-1.9-1.7-1.1-1-2.1-2.1-3.2-3-.9-.7-2.1-.6-2.8.2-.6.8-.4 2 .4 2.6 1.5 1.4 3 2.7 4.5 4 1.3 1.1 1.5 2.2.3 3.4-1.6 1.6-3.2 3.1-4.8 4.7-.8.9-2.2 1.1-3.3.4-1.5-.7-2.3-.2-3 1.4-.9 1.9-2 3.6-3.3 5.3-.8 1.1-2 .8-2.5-.5-.3-1.1-.5-2.2-.7-3.3-.1-.6.1-1.4-.9-1.4s-1.1.8-1.1 1.6c.1 1.1.2 2.2.5 3.3.3 1.5 1.4 2.8 2.9 3.3s3.1-.2 3.9-1.5c1.4-1.6 2.5-3.3 3.7-5zm-30.8 10.9.7.2c.5-.6 1-1.4 1.3-2.1.7-4.4 1.6-8.8 4.1-12.8-2.2-.2-4.4-.5-6.6-1-2-.7-4-1.5-5.9-2.4-.2 2.2-.4 4.7-.8 7.1-.3 1.8-.7 3.6-1 5.4-.3 1.7-.5 3.4-.7 5.2 1.4 0 2.5-.1 3-1.2.5-1.3.9-2.6 1.2-4 .8-2.9 1.4-5.9 2.2-8.8 1.3.1 1.6.5 1.6 2.3.1 3.2.2 6.4.4 9.5 0 .9.2 1.7.5 2.6zM129 461.9c.1 5 .1 5 2.3 8.1.7 1 1.2 1 2.1.5 2.1-1.3 4.1-2.6 6.2-3.9.9-.6 1.4-1.6 1.3-2.6.1-4.6-.6-9.2-2.3-13.5-.8-2.3-1.7-4.6-2.7-6.9-.2-.5-1-.6-1.5-1-.2.6-.6 1.2-.5 1.8.4 2 0 4.1-1 5.9-2.1 3.8-4.6 7.5-3.9 11.6zM113.3 296l.2.4h.5c.6.2 1.5.2 1.8.6s-.1 1.3-.4 1.8c-.5.9-1 1.8-1.6 2.7-1.7 2.4-1.8 3 0 5.3 1.4 1.7 1.4 4.1-.2 5.7-.3.4-.6.8-.8 1.2-.7 1.7-1.5 3.3-3.6 3.8-.2 0-.5.8-.5 1.2s.6.9 1 .9c1.6.2 3.2-.6 4.1-1.9 1.1-1.6 2.1-3.3 2.9-5 .6-1.1.8-2.2.7-3.4-.3-1.4-.9-2.8-1.7-4.1-.4-.7-.8-1.2-.1-2.1.9-1.3 1.7-2.7 2.3-4.2.8-2.1-.4-4.3-2.4-4.4-1.8 0-3.6.2-5.3.7-.9.3-1.6.9-2.2 1.6-.3.3-.1 1-.1 1.5.4-.1.8-.2 1.3-.3 1.4-.8 2.7-1.4 4.1-2zm64.6 2.5c-.1 1.1-.1 2.2 0 3.2.5 2.4 1.9 4.6 3.8 6.2 1.5 1.4 4 1.2 4.9-.2.3-.5.4-1.2.3-1.8-.2-.3-1.2-.5-1.7-.4-.9.3-1.8-.1-2.3-1-.4-.7-.8-1.3-1.2-2-1.2-1.4-.7-2.8.1-4.1.5-.8.8-1.6.2-2.2-.4-.4-1.3-.3-1.9-.5-.5-.2-1.2-.4-1.3-.8-.7-2 1.4-5.8 3.4-6.6.3-.1.8-.7.7-.9-.1-.4-.7-1-.9-.9-1 .1-1.8.5-2.6 1.1-1.1 1.3-2 2.8-2.7 4.3-.9 2-1.2 5.2 1.2 6.6zM69.6 525.6c.4.4.7 1.1 1.2 1.2.4.1 1-.5 1.4-.9.2-.2.2-.6.3-.9 1.1-4.2 2-8.4 3.2-12.5 1.5-4.9 3.2-9.8 4.8-14.7.3-.8.3-1.5-.5-1.8-.3-.1-1.1.6-1.3 1.1-.8 1.7-1.4 3.4-2 5.1-1.5 4.4-3.1 8.7-4.4 13.1-1 3.4-1.7 6.7-2.7 10.3zm42.7-150.7c-.3-.6-.6-1.2-.8-1.9-.4-1.5-.7-3-1.1-4.4-.4-1.6-1.2-2.2-2.8-1.9-1.2.2-2.3.5-3.4 1-2.8 1.4-4.8 5.7-4 8.6.2.6.9 1 1.4 1.5.2-.6.6-1.2.5-1.7-.4-3.1 1.4-6 4.4-7.1 1.5-.6 1.9-.3 2 1.3 0 2 .6 3.9 1.5 5.7.6 1.3 2.2 1.9 3.5 1.3.1 0 .2-.1.3-.2.3-.1.5-.3 1-.7v2.4c0 .5.2.9.6 1.2.5.1.9 0 1.3-.3.4-.4.9-1.1.8-1.6-.2-1.5-.7-2.9-1.3-4.3-.6-1.1-1.5-1.1-2.4-.3-.5.4-.9.8-1.5 1.4zm64.1-133h.1v1.8c.2 1.6 1.7 2.8 3.3 2.7 1.7 0 3.2.3 4 2 .2.3.4.6.7.8.6.6 1.6.6 2.2 0l.1-.1c.3-.3.1-1.3-.1-1.8-1.2-2.4-3.7-3.8-6.4-3.6-.9.1-1.3-.4-1.3-1.3 0-1.4-.4-2.9.5-4.2.2-.2 0-1.1-.2-1.1-.5-.2-1-.2-1.5.1-.4.4-.8.9-.9 1.5-.3 1-.3 2.1-.5 3.2zm11.6 25 .3.1c.2-.4.3-.9.5-1.3l1.8-6.6c.2-.7.8-1.3.8-1.9 0-1.3-.1-2.6-.3-3.9-.8.1-1.5.3-2.2.5-.3.1-.6.4-.7.8-.1 1.1-.2 2.2-.2 3.3v9zm8.3-.1v-11.2c0-1.5-1.3-2.7-2.8-2.6-.2 0-.3 0-.5.1 1.1 1.1.6 2.5.6 3.8 0 3.5.9 6.9 2.7 9.9zm-155.2 3.9h.2c.3-1.1.7-2.2.9-3.3.5-1.5.8-3 .9-4.6-.1-2.4-.1-4.8.9-7 .1-.3.1-.6 0-.9-.7-1-1.5-2-2.2-2.9-.2 6.3-.4 12.5-.7 18.7zm122.3 48.5.2-.4c1.2 0 2.5-.2 3.7-.3.5-.1.9-.7 1.4-1-.5-.3-1-.6-1.6-.8-1.7-.2-3.5-.1-5.2-.3-1-.1-1.3.3-1.2 1.4.3 1.8 1.5 3.4 3.2 4.1.3.2.8 0 1.2 0 0-.5.1-1-.2-1.3-.5-.6-1-1-1.5-1.4zM59.3 441.5c.2-.2.5-.5.6-.7 1.3-2.4 3.2-4.4 5.6-5.7.3-.1.3-.8.5-1.2-.4-.1-1-.5-1.3-.3-1.3.6-2.6 1.4-3.6 2.4-1.1 1.3-2.1 2.7-2.9 4.1-.4.5-.5 1.4 1.1 1.4zm46.6-174.4c.2.4.3.9.6.9.4.1.8 0 1.2-.3 2-1.4 4-2.8 6-4.3.5-.4 1.4-.7.7-1.5-.5-.3-1.1-.4-1.7-.2-2.1 1.3-4.1 2.6-6.2 4-.2.4-.3.9-.6 1.4zm15.1 96.2c-.1-.3-.3-.8-.4-.9-.5-.1-.9 0-1.3.2-2 1.9-3.6 4.3-4.6 6.9-.1.4.1.7.3 1 .3.2.7.2 1.1 0 .3-.3.6-.6.8-.9 1.2-1.8 2.4-3.5 3.6-5.3.1-.3.3-.7.5-1zM77 283h.5c.3-.3.6-.7.8-1.1.8-2.3 1.5-4.6 2.2-6.9.1-.4-.3-1-.4-1.5-.5.2-1.2.4-1.4.7-.9 2.3-1.7 4.5-2.3 6.9-.1.5.4 1.2.6 1.9zm-13.5 45.2c-.2 1-.5 2-.7 3-.3 1.5-.6 3.1-.8 4.6 0 .4.6.9 1 1.4.4-.4 1-.8 1.1-1.2.4-2.1.7-4.3 1-6.5.1-.8-.4-1.3-1.6-1.3zm19.6-55.1c.1 1 .2 1.8.3 2.5.2 1.6.6 3.1 1 4.6.2.5 1.1.7 1.6 1 .2-.5.3-1 .3-1.5-.4-2.2-.9-4.3-1.4-6.4-.1-.4-.6-.7-1-1.1l-.8.9zm-5.9 140.6c-.9.6-1.8 1-2.5 1.6-1.1.8-2.2 1.8-3.4 2.6-.4.3-1.4.3-1 1.2.4.8 1.1 1.2 2 .6 1.9-1.4 3.8-2.9 5.7-4.4.2-.3.3-.7.1-1-.1-.2-.5-.3-.9-.6zm22.1 2.8c.3.4.6.9 1 1 .3.1.9-.3 1.1-.7l3-6c.2-.4 0-1 0-1.4-.5.1-1.2.1-1.5.4-.8 1.1-1.5 2.2-2.1 3.4-.6 1-.9 2-1.5 3.3zm35.8-35-.5.5c-1 .1-1 .7-.7 1.5.9 2 1.7 3.9 2.7 5.9.2.4.6.8 1 1 .3.2.7.2 1 0 .2-.3.3-.7.2-1.1-.9-2.1-1.9-4.2-2.9-6.2-.2-.6-.6-1.1-.8-1.6zm-8-40.5c.4.5.7 1.2.9 1.2.5-.1 1-.4 1.3-.8 1.1-1.4 2.2-2.8 3.2-4.3.2-.5.4-1 .5-1.6-.6 0-1.3-.2-1.7.1-1.1 1-2.1 2.2-3.1 3.4-.3.6-.7 1.3-1.1 2zm-87-88.7-.3-.1c-.2.5-.3 1-.5 1.4-1 2.4-2 4.8-3 7.3-.1.3.1.7.2 1.1 1-.6 2.8-1 3-1.8.3-2.6.5-5.3.6-7.9zm128.4 134.5c.4.4.8.7 1.3 1 .8.3 1.1-.3 1.2-1 .2-1.1.4-2.1.7-3.1.3-.9.7-1.8.9-2.7.1-.4-.2-1-.3-1.4-.4.2-1 .4-1.2.7-.6 1.2-1.2 2.5-1.7 3.8l-.9 2.7zm-63.8 28.8 1.3 1.5c.4-.4.7-.9 1-1.5.5-2 .8-4 1.2-6.1.1-.4-.2-.8-.3-1.2-.4.2-1 .4-1.1.7-.7 2-1.3 4.2-2.1 6.6zm19.8-80.5c.4-.1.7-.2.9-.3 1.7-.6 3.3-1.1 5-1.7.5-.2 1.3-.5 1.4-.8.1-.9-.8-1.1-1.4-.9-2.1.4-4.2 1-6.2 1.6-.3.1-.5.9-.5 1.4.1.2.6.4.8.7zM49 388.7c.3-.2.5-.3.6-.4 1.7-1.3 3.3-2.5 5-3.9.3-.3.4-.8.5-1.3-.5-.1-1.1-.4-1.4-.2-1.8 1.2-3.6 2.5-5.3 3.8-.2.2-.2.8-.1 1.2 0 .3.4.5.7.8zm23.6-55.4c-.5-.6-.9-1.2-1.3-1.9-.6-1.2-1-2.6-1.6-3.8-.2-.3-.7-.5-1-.8-.2.4-.4.9-.5 1.3 0 .8.2 1.5.5 2.2.6 1.2 1.2 2.3 2 3.4.2.3.9.3 1.3.2.2.1.4-.3.6-.6zm-44.2 86c-.2-.3-.3-.8-.7-1-.4 0-.8.2-1 .5-.5 2-.9 4-1.2 6-.1.3.4.7.7 1 .4-.3.9-.5 1-.8.4-1.7.7-3.6 1.2-5.7zm93.9-52.8c-1.4 0-4.3 2.8-4.2 4.2.1.4.3.7.6.9.3.1.7.1 1-.1 1.2-1.2 2.4-2.4 3.4-3.7.5-.6 0-1.3-.8-1.3zM62.9 260.6c.3 2.1.5 4.1.9 6 .1.5.8.8 1.6 1.5v-7.5h-2.5zm77.9 123.5c0-1-.1-1.9-.4-2.9-.1-.4-.8-.6-1.3-.9-.2.4-.4.8-.5 1.2 0 1.2 0 2.3.1 3.5 0 .5.1 1.1.3 1.6.3.3.7.5 1.1.5.1 0 .5-.4.5-.7.1-.7.1-1.5.2-2.3zm37 1.1c-.5-1.6-1-3.2-1.6-4.7-.1-.3-.8-.4-1.3-.6-.2.4-.5.9-.4 1.2.1 1 .4 2 .7 3 .2.6.5 1.1.9 1.6.4.2.8.3 1.2.2.2.1.3-.4.5-.7zm-8.7 143.1c-.5-1.3-1-2.5-1.4-3.6-.2-.6-.6-1.3-1.3-.9-.4.4-.6 1-.6 1.5.1 1 .7 2 .8 3.1.1.8.3 1.6 1.1 1.5.5 0 .9-.9 1.4-1.6zm-56.9-258.6 1 1.4c.4-.3 1.1-.5 1.3-1 .6-1.2 1.1-2.5 1.4-3.7.1-.4-.1-.9-.2-1.3-.5.1-1.2.1-1.4.4-.7 1.3-1.4 2.7-2.1 4.2zM57 391.2l.7 1c.4-.3.8-.7 1.2-1.1.6-1 1.2-2.1 1.7-3.1.1-.5.2-1 .2-1.5-.5 0-1-.1-1.3.1-1.7 1-2.6 2.7-2.5 4.6zm36.7 45.2c-.3.6-.4 1.2-.5 1.8.3 1.6.7 3.2 1.1 4.8.1.4.3.7.6 1 .2.2.5.2.8.1.3-.2.4-.5.4-.8l-1.5-5.7c-.1-.3-.4-.6-.9-1.2zm64.7-131.9c.7-1.3 1.5-2.6 2.1-4 .2-.5-.1-1.2-.1-1.8-.5.3-1.2.5-1.6.9-.6.8-1.1 1.7-1.5 2.7-.6 1.3-.5 1.6 1.1 2.2zM64.7 446.2c1.4-.8 2.8-1.5 4.1-2.3.2-.1.3-.7.2-1.1-.2-.3-.5-.4-.8-.4-1.4.6-2.9 1.2-4.2 1.9-.2.1-.2.8-.1 1.2 0 .3.4.4.8.7zm123.9-158.6c-.5-.7-.7-1.2-1-1.4-1.1-.5-2.2-1-3.4-1.3-.3-.1-.9-.1-1 .1-.2.4-.3.9-.2 1.4 1.5.4 2.5 2.1 4.3 1.8.4-.2.8-.4 1.3-.6zM75 355.9c.4-.4.7-.9 1.1-1.4.5-1.1 1-2.2 1.4-3.3.1-.5.1-1 0-1.6-.5.2-1.2.3-1.4.6-.7 1.4-1.2 2.8-1.7 4.2-.1.3.3.8.6 1.5zm-43.6 62.5v5.1c0 .3.4.7.7.9.3.1.6.1.8 0 .2-.2.4-.5.3-.8-.1-1.3-.2-2.7-.3-4 .1-.8-.1-1.3-1.5-1.2zm129-111.1c.8-.2 1.8-.4 2.8-.7.3-.1.4-.6.6-.9-.3-.2-.6-.5-.9-.5-1.1 0-2.2.1-3.3.2-.5.2-1 .4-1.4.7.4.4.9.7 1.3 1.1.2.1.6.1.9.1zm-59.5 130-.9-1.1c-.4.3-.7.7-.9 1.1-.3.6-.4 1.3-.4 1.9.1.5.3.9.5 1.4.4-.3 1-.5 1.1-.9.3-.8.5-1.6.6-2.4zM88.5 268.4l1.5 2.1c.2-.4.7-.8.6-1.1-.1-.7.3-1.8-1-1.8-.3-.1-.6.4-1.1.8z"/><path id="パス_982" d="M114.6 53.6c.7 4.8 1.4 9.7 2.1 14.6 1.6-.6 2.9-1.5 4.3-.1s2.2 3 .8 5c1.3.4 2.4 1.5 2.6 2.9.1.2.3.4.5.6 3.5 2.6 7.4 4.6 11.5 5.7 2.4.6 4.8 1 7.2 1.6 3.1.8 5.5-.6 7.5-2.7 2.4-2.3 4.6-4.9 6.5-7.6 3-4.8 4.5-10.4 4.2-16.1 0-1.1.3-2.2.7-3.2 2 2.1 1.4 4.7 1.8 7.2 1.3.2 2.7.6 3.2 2.1.3.8.5 2 .1 2.6-1.2 1.7-.4 3.4-.4 5.1.1 1.5 0 3.1-.2 4.6-.2 1.9-1.8 2.3-4.1 2.2-1.5-.1-2.3-.9-2.4-2.7-.1-.3-.1-.6-.2-.9-4.1 4.9-7.5 10.2-13.3 12.9.5 1.5 1.3 2.9 1.4 4.3-.1 1.4-.3 2.8-.8 4.1l5.1 1.9c.5-2.2.9-4.2 1.5-6.3.2-.8 0-2.3 1.3-2.1s.9 1.4.7 2.3c-.9 4.2-1.6 8.4-2.7 12.6-.7 2.9-1.7 5.7-2.8 8.4-1.5 3.4-3.5 6.7-5.2 10-.4.7-.9 1.3-1.3 2-.5.8-1.3 1.1-1.9.5-.3-.6-.3-1.3-.1-1.9 1.3-2.7 2.7-5.3 4-7.9.1-.2.1-.4.1-.6-3.2 2.3-6 4.9-9.9 5.2-3.8.3-7.5.1-10.9-2.1-.1.4-.2.7-.2 1.1 0 6-1.6 11.9-4.5 17.2-.8 1.4-1.7 2.6-2.9 3.7-.4.4-1.3.2-1.9.3 0-.6-.3-1.3 0-1.8 1.2-2.5 2.9-4.9 3.8-7.6 1.3-3.6 1.9-7.5 1.7-11.3-.1-3.5 0-7-.2-10.5-.1-3.7-.4-7.5-1-11.1-.5-3.5-1.6-6.9-2.4-10.4-.7-2.9-1.3-5.9-1.9-8.8-.8-3.6-1.9-7.2-2.4-10.8-.8-5.7-1.4-11.4-1.8-17.1-.1-3.3 0-6.6.3-10 0-.4.1-.7.3-1 .2-.3.5-.5.8-.7.2.3.5.6.5.9.1 3.2.2 6.5.4 9.7.2 1.2.4 2.6.5 4zm31.3 44.3c-1.2 1.6-2.1 2.9-3.2 4-.5.3-1.1.4-1.7.3-.2-.1-.4-1-.3-1.5.2-.5.4-1.1.8-1.5 1.2-1.7 2.3-3.5 3.6-5.1 1.9-2.3-.5-7.2-3.3-7.2-1 0-2-.4-3.1-.5-.4 0-.7.1-.9.4-.4.8-.6 1.7-.9 2.6 1-.4 1.9-.8 2.9-1 .5-.1 1.1.4 1.6.6-.2.5-.4 1.3-.8 1.5a24.6 24.6 0 0 1-12.1 3.2c-1.8-.1-3.6-.3-5.5-.6 1.9 7.6 2.2 15.4 2.4 22.9 1 .1 1.7.2 2.3.2 2.5.2 5 .2 7.5.1 3.5-.3 6.1-2.4 8.7-4.6 1.5-1.4 2.3-1.4 3.5.1 1.1-.8 1.7-2.1 1.6-3.4-.3-1.2-.6-2.5-.9-3.7-.7-2-1.4-4.3-2.2-6.8zm-20.8-18.1c0 .4-.1.7-.1.9-.1 2.8-.4 3.1-3.1 3.9-.4.2-.7.7-.7 1.2.2 1.4.5 2.8.9 4.2.2.3.5.6.8.7 3.6.9 7.4.8 10.9-.2-.2-1.9 1.3-3.2 1.6-4.7l-10.3-6zm-4.5 2.5c1.8.1 1.9.1 1.8-1.5v-.5c-.1-1.1-.1-2.1-.3-3.2-.3-1-1.3-1.6-2.3-1.3h-.1c-1.2.3-.6 1-.4 1.6.4 1.6.9 3.3 1.3 4.9zM163.1 70c-.1 1.5-.2 2.9-.4 4.3-.1 1.1.5 1.3 1.3 1.4s.9-.6.9-1.3c0-.9 0-1.9.1-2.8.1-1.7.1-1.7-1.9-1.6zm-12.5 33.9h.3c.3-1.1.7-2.2.9-3.3 0-.2-.1-.5-.2-.7-.8-.5-1.7-.9-2.6-1.4.6 2.1 1.1 3.8 1.6 5.4zm13.9-37.2c1.2-1.6 1-2.3-.5-2.9.1 1 .3 1.8.5 2.9z"/><path id="パス_983" d="M172.2 56.6c.1 9.8.3 19.6.4 29.3 0 2.7-.3 5.5-.4 8.2 0 2.7-.2 5.3-.5 8-.8 5.2-2.1 10.3-4.1 15.2-1.1 2.5-2.8 4.6-5 6.3-1.1.8-2.1 1.6-3.2 2.4-.5.3-.9.5-1.5.7-.8.3-1.8.4-2.3-.5s.4-1.6 1.1-2c3.9-2.4 6.9-5.9 8.6-10.1 1.7-4.2 2.8-8.6 3.1-13.1.4-4.5.8-9 .9-13.4.1-8.3-.1-16.6-.1-25 0-2.8.3-5.6.1-8.3-.2-3.9-.6-7.8-1.2-11.7-.5-3.8-1.3-7.6-2.4-11.3-1.2-3.3-2.9-6.4-4.8-9.3-2.1-3.3-4.6-6.3-7.1-9.4-.8-1-1.8-1.9-2.8-2.7-1.6-1.3-3.3-2.4-5-3.6-2.7-1.6-5.6-2.6-8.7-3.2-4.7-1-9.6-.8-14.3.5-1.8.6-3.6 1.3-5.3 2.3-.7.3-1.4.7-1.7-.1-.1-.6.1-1.2.6-1.7 2.3-1.9 5.1-2.6 7.9-3.2 5.6-1.4 11.5-1.2 17.1.5 3.6 1.2 6.9 3.1 9.7 5.7 2.3 1.8 4.4 3.8 6.5 5.9 1.5 1.8 2.9 3.7 4.2 5.7 4.6 6.2 7.6 13.4 8.6 21 .9 5.6 1.5 11.2 2.2 16.8l-.6.1z"/><path id="パス_984" d="M98.7 98c0-4.3.2-8.5 0-12.7-.3-5.4-.7-10.9-1.3-16.3-.4-3.5-1.5-6.8-2.2-10.3-1.1-6.1-2.2-12.4-1.4-18.7.1-1.1 0-2.2.1-3.2.2-1.4.4-2.7.8-4.1 1.2-5.6 3.3-11 6.3-15.8.9-1.7 2-3.3 3.2-4.8 1.4-1.5 3-2.8 4.7-4 .6-.3 1.3-.5 2-.5.3.1.6.3.7.6 0 .3-.1.7-.4.9-4.1 2-5.9 5.8-8.2 9.4-1.9 3.4-3.5 7-4.7 10.7-.9 2.6-1.4 5.3-1.5 8-.5 5-.4 10 .3 14.9.5 2.8 1.2 5.6 1.7 8.4.7 4.1 1.4 8.2 2 12.3.4 3 .7 6.1.9 9.1.1 3.3-.1 6.6-.1 9.8 0 1.8 0 3.6-.1 5.4 0 .9-.4 1.7-.4 2.6-.4 5-1.2 9.9-2.6 14.7-1.1 4.1-2 8.3-3.1 12.4-.2.5-.7.9-1.3 1-.4 0-1.2-.6-1.2-1-.1-1.6 0-3.1.3-4.7.9-4.2 1.9-8.3 2.9-12.5.7-3.2 1.3-6.3 2.1-9.7-1.7.5-3.3.8-4.8 1.4-2.5 1-5.1 1.8-7.2 3.3-2.2 1.5-4 3.7-5.9 5.7-1.1 1.2-2 2.6-3 3.8-.3.3-.8.5-1.2.5-.3-.1-.9-.7-.9-.9.1-1.2.5-2.3 1-3.4 1.8-2.9 4.5-5 7.2-7 3.7-2.7 7.9-4.6 12.4-5.6 1 .2 1.9.2 2.9.3z"/><path id="パス_985" d="M114.6 53.6c.8-3 1.6-6 2.4-9.1.8-3.1 1.6-6.2 2.3-9.4.3-1.5.5-3.1.5-4.7.1-1 .2-1.9 1.6-1.5.2-1.6-1-3.2.5-4.7.4.4.9.7 1.1 1.2.7 1.9 1.1 3.9 2.1 5.6 1.5 2.3 3.2 4.6 5 6.7.5.7 3.5.3 3.8-.5.1-.5-.2-1.2-.5-1.7-1.1-2.6-2.2-5.3-3.2-7.9-.2-.4.2-1 .3-1.6.6.2 1.6.1 1.9.6 4 5.2 8.6 9.7 15.1 11.7 3.2 1 6.3 2 9.5 3 .2 0 .3.1.5.1 2.1.2 2.4-.1 1.6-2.1-.7-1.9-1.6-3.7-2.4-5.6-.2-.6-.9-1.3 0-1.7s1.4.3 1.8.9c1.8 2.8 3.1 6 3.8 9.3.4 1.6.8 3.2 1.1 4.9.1.7.3 1.8-.7 1.9-.4 0-1.1-.9-1.3-1.5-.5-1.5-.8-3-1.2-4.6-2.7 1.1-5.3.2-7.8-.3-4.5-.8-8.8-2.5-12.7-4.9-1.4-.9-2.6-2.2-4.1-3.1l5.6 7.3c-.7 1.2-1.4 1-2.2.4-.5-.3-.9-.7-1.3-1.1-1.6-1.9-1.6-1.9-4.4-1 1.1.6 1.9 1 2.7 1.4.9.4 2.2.9 1.7 2-.5 1.3-1.7.5-2.6.1-1.5-.7-3-1.5-4.5-2.2-.3-.1-.7-.1-1 0-2 .9-3.7 2.4-5 4.2-.4.6-1 1.1-1.5.4-.3-.5-.3-1.1 0-1.6 1.6-1.7 3.2-3.3 4.8-4.8l-5.8-9.5v1.4c-.3 3.3-.8 6.7-1.4 10-.9 3.7-2.2 7.3-3.4 10.9-.5 1.6-1 1.8-2.4 1.1h-.3z"/><path id="パス_986" class="st0" d="M18 411.2c.8-.6 1.6-1.2 2.5-1.8.4-.2.8-.1 1.2.1.3.4.4.9.3 1.3-.1.5-.7.9-.9 1.5-.4 1-.7 2.2-.8 3.3 0 .9.9 1.2 1.6.5 1.1-1.2 1.8-2.7 1.8-4.4.1-1.4.8-2.3 1.9-2.1s1.6 1.4 1.4 2.7c-.1.5-.1 1-.2 1.7 1.6-.1 2.9-.5 3.7-1.8.3-.6.7-1.2 1-1.7.3-.8 1.2-1.1 2-.7.2.1.4.2.5.4.3.3.7.5 1.4 1-.2-1-.2-1.6-.4-2.2-.4-1-.2-2.2.7-3 .8-.8.9-2 .3-2.8-1.6-2.9-1.3-5.7-.2-8.6.2-.6.3-1.2.4-1.8-2.7.4-5.2.4-7.1 2.5-.3.2-.7.3-1 .2-.3-.2-.5-.8-.4-1 .4-.8 1-1.4 1.7-1.9 2.2-1.2 4.7-1.8 7.2-1.6.7.2 1.2.8 1.5 1.5.2.9.1 1.9-.2 2.8-1 2.3-.8 5 .5 7.2 1.2 1.8 1 4.2-.4 5.7-.2.3-.1.9 0 1.4.5 2.7-.7 4.7-2.7 4.5-1.8-.2-2.7.4-3.9 1.6-1.4 1.5-3.6 2.1-5.6 1.6-.9.8-1.8 1.5-2.7 2.2-2.3 1.4-5.1.2-6.2-2.7-.6-1.7-.1-3.3.5-4.9l.6-.7z"/><path id="パス_987" d="M63.9 168.8c.5-6 .9-12 1.5-18 .6-5.3 1.4-10.5 2.2-15.7.3-2.2.6-4.3 1.2-6.5.5-1.7 1.1-3.4 1.7-5 .8-2.2 1.6-4.4 2.6-6.5.2-.4 1-.5 1.5-.8.1.5.4 1.1.2 1.5-1.6 4.2-2.7 8.7-3.4 13.1-.7 4.6-1.6 9.2-2.3 13.8-.5 3.1-.9 6.1-1.1 9.2-.4 4.3-.6 8.6-.9 12.9-.1.8.1 1.6.1 2.4 0 1-.2 1.9-1.3 2-1.3.1-1.4-1-1.6-1.9v-.7l-.4.2z"/><path id="パス_988" d="M118.2 430.2c-.6 1-1.1 2.1-1.7 3.1-.9 1.4-.9 1.9.2 3.1.4.5.8.9 1.3 1.4 1.1 1.1 1.2 2.2 0 3.1-1.8 1.4-1.4 3-1.2 4.8.1.6.2 1.2.3 1.7.2 3.2-.2 3.7-3.4 4-.4 0-.8.2-1.2.3-.3 0-.9.1-.9 0-.3-1.1-1.7-1.5-1.4-3 .9-5.4 1.6-10.8 2.3-16.3.3-1.9.7-2.3 3.1-2.6h2.3l.3.4z"/><path id="パス_989" d="M132.1 268.4c.5 3.1 1.3 6.4-.2 9.4-1.5 2.8-3.2 5.6-4.9 8.2-4.9-4.8-3.6-15.4 2-19.6 1.9 2-.3 4.6.9 7 2.4-1 1.4-3.4 2.2-5z"/><path id="パス_990" d="M89.2 191.1c.3-2.2.6-4.2 2.3-5.8.9-.9 1.7-1.9 2.4-2.9.5-.8.6-1.8.2-2.7-.6-1.8-1.1-3.7-1.5-5.5-.1-.7 0-1.3.3-2 .2-.4.8-.7 1.2-1 .3.4.7.8.8 1.2.4 2.1.7 4.1 1.1 6.2.2.5.4 1 .7 1.4.8 1.8-.5 3.1-1.2 4.5-.5.8-1 1.5-1.6 2.2-.9 1.3-1.5 2.9-1.6 4.4-.2.8-.3 1.7-1.4 1.7-1.5.1-1.5-1-1.7-1.7z"/><path id="パス_991" d="M188.8 420.9c-2.1-2-2.7-4-1.9-6.3.2-.5.3-.9.4-1.4.4-.9 0-2-.9-2.4-.2-.1-.4-.1-.6-.2-.9 0-1.6-.8-1.6-1.7v-.3c0-2.5.9-4.8 2.5-6.7.5-.4 1.1-.7 1.7-.8.1.5.2 1 .2 1.5.1 4.4.2 8.8.2 13.2.3 1.6.1 3.1 0 5.1z"/><path id="パス_992" d="M85.5 127.8c2.8 3.8 4.8 8.1 5.9 12.6.6 3 1.3 5.9 2 8.9.1.4.2.9.1 1.3-.2.5-.4.9-.7 1.4-.4-.3-1.1-.6-1.2-1-.8-2.8-1.5-5.6-2-8.4-.8-4-1.8-7.9-3.9-11.5-.4-.6-.6-1.3-.7-2-.2-.5.3-.9.5-1.3z"/><path id="パス_993" d="M65.2 174.2c-1.2 1.2-2.4 2.4-3.5 3.8-1.3 1.5-1.7 3-.5 4.9s.7 4.1.2 6.1c-.2.4-.6.7-1 .7-.5-.1-1.1-.5-1.2-.8-.3-1.2-.4-2.5-.6-3.8 0-.3-.1-.6-.2-.9-2-3.3-.3-5.8 1.9-8.2.8-.9 1.8-1.7 2.8-2.3.8-.7 1.7-.8 2.1.5z"/><path id="パス_994" d="M147.5 69.6c2.3 0 2.8.8 2.2 2.3-.2.5-.5 1-.8 1.5-2.3 4.3-4.9 2.5-7.5.1-.5-.4-.5-1.1-.2-1.5.1-.1.2-.2.4-.3 2.2-.9 4.3-1.5 5.9-2.1z"/><path id="パス_995" d="M154.2 60.9c-.4 1.7-1.4 3.1-2.8 4.1-.4.3-.9.6-1.4.7-.5.1-1.1 0-1.6 0 0-.5-.1-1.2.2-1.5 1.2-1.4 2.4-2.6 3.7-3.9.3-.3.8-.3 1.2-.3.3.2.5.7.7.9z"/><path id="パス_996" d="M132.2 50.2c1.1.1 2 1.1 1.9 2.2 0 1-.8 1.9-1.7 2.1-1.2-.2-2-1.3-1.9-2.5.2-.9.8-1.6 1.7-1.8z"/><path id="パス_997" d="M154.4 48.8c-.3 1.2-1.4 2.4-2.3 2.3-.8-.1-1.3-.7-1.3-1.5v-.1c.1-1.5.9-2.7 1.9-2.4.7.2 1.1 1.1 1.7 1.7z"/><path id="パス_998" class="st0" d="M104 331.6c.1.6.2 1.1.1 1.7-1 5.2-2 10.4-3.1 15.5-1.1 5-2.6 9.9-3.7 14.9-.8 3.7-1.4 7.4-2.1 11.1s-1.2 7.3-1.9 10.9c-.6 3-1.2 5.9-1.9 8.8-.2 1-.6 2-1 2.9-.2.4-.8.7-1.2 1.1l-.5-.2c.1-1.3.3-2.7.6-4 .5-1 .1-2.1-.9-2.6-.9-.4-2-.2-2.8.3-1.2 1.3-2.3 2.8-3.1 4.5-.6 1.1-.1 2.2.8 3.1.5.4.8 1.1.7 1.8-.3.6-.9 1-1.5 1.2-2.5.6-3.4 1.5-3.4 3.8.2 1.4 1.1 2.6 2.5 3.1.8.3 1.6.7 2.2 1.3.8.8 2.7.8 3.1-.3.4-1.3.7-2.6 1-3.9.1-.3.1-.8.3-1 .3-.3.6-.5 1-.6.2.3.5.7.5 1-.4 2.6-.8 5.2-1.4 7.8-1.1 4.9-2.6 9.8-3.5 14.8-1 5.1-1.5 10.2-2.2 15.3-.5 3.6-1.2 7.3-1.7 10.9-.2 1-.3 2-.5 3.1-.1.7-.4 1.6-1.3 1.3-.6-.3-.9-.9-1-1.6.1-1.5.2-2.9.4-4.4.1-.5 0-1.1-.2-1.6-.2.4-.4.8-.7 1.2-.5.6-1.1 1-1.8 1.2-.3 0-.8-1-1.3-1.6-1.9 1.5-4.5.8-6.9 1.2-2.9.6-5.5 2-7.6 4.1-.7.7-1.3 1.6-1.7 2.5-.5.9-1 1-2.3 0-.4.9-.7 1.8-1.2 2.7-.7 1.7-2.5 2.6-4.3 2.3-1.1-.2-1.8-1.2-1.7-2.3.3-1 .9-1.5 2-1.1.8.3 1.7-.6 1.5-1.6-.3-1.5.4-2.1 1.6-2.7 1.6-.8 2.3-2.4 2.8-4 .3-.9-.2-1.6-1.2-1.4-.9.2-1.7.5-2.5.9-1.1.6-2.3.8-2.8 0-.6-1 0-1.7.6-2.5.8-1.5 1.6-3 2.2-4.5.3-.8-.2-1.2-.9-1.1-1.5.1-3.2.1-4.1 1.7-.3.6-1 .9-1.6.6-.1 0-.2-.1-.3-.2-.4-.5-.6-1.2-.4-1.9.6-1.7.7-3.5.3-5.2-.2-1.2-.9-1.5-1.9-.8-1.2.6-1.9 1.7-2 3 0 .4-.2 1-.4 1.1-.4.1-.9-.2-1.4-.3-.8 2-1.5 4.1-2.4 6.2-1.1 2.9-2.3 5.7-3.6 8.6-.3.5-.9.8-1.4.9-.8 0-1-.6-.7-1.4.9-2.4 1.9-4.7 2.8-7.1 1-2.9 2.1-5.7 3-8.7 1-3.4 1.8-6.8 2.7-10.1.5-1.8 1-3.6 1.6-5.4.2-.7.6-1.6 1.5-1.4 1.1.3.8 1.3.6 2.1-.7 3.1-1.5 6.3-2.3 9.4-.2.8-.3 1.6-.5 2.6.8-.6 1.7-1 2.5-1.4 2.3-.7 3.8.3 4.3 2.7.2.9.2 1.8.3 2.8 1.1-.1 2-.3 3-.4 3.7-.3 4.9 1.4 4 5.2-.1.5-.3.9-.3 1.1 1.4.8 2.8 1.2 3.7 2.2s.9 2.5 1.4 3.9c.3-.2.9-.5 1.4-.9 2.3-1.7 5-2.6 7.8-2.7 1.6 0 3.2-.8 4.2-2.1 1.3-1.8 2.9-3.5 4.7-4.8 1.6-1 1.5-2.1 1.7-3.5.6-3.8 1.1-7.6 2-11.4 1-4.4 2.4-8.7 3.6-13 .1-.4.1-.7.1-1.1-.7 0-1.3 0-2-.1-.8-.3-1.6-.7-2.3-1.2-.2-.2-.3-.7-.5-.8-1.6-.6-3.1-1.6-4.2-2.9-.2-.2-.7-.1-1 0-2 .5-3.9 1.1-5.9 1.6-.7 0-1.4 0-2.1-.2-.1-.2-.1-.5-.2-.7.6-.4 1.2-.8 1.9-1.1 1.7-.5 3.4-.9 5.1-1.3.7-.2 1.1-.4 1.1-1.2-.2-2.8 1.4-5.5 3.9-6.7-.6-4.4 1.6-9.1 5-10.9 1.8-.8 3.8-.8 5.5.1.6-3.1 1.1-6 1.6-9s.8-5.9 1.4-8.8c.8-4.3 1.7-8.6 2.6-12.9.7-3.4 1.7-6.7 2.4-10.1.8-3.3 1.4-6.6 2.2-9.9.5-1.9 1.1-3.7 1.8-5.5.2-.9.9-1.3 1.7-2z"/><path id="パス_999" class="st0" d="M155.5 428c2-2.9 4.8-3.1 7.7-3.1 2.1 0 3.8 1.7 3.7 3.8 0 .2 0 .5-.1.7-.3 1.5-.7 3-1.3 4.4-.3.5-.1 1.1.4 1.4h.1c1.1.7 1.7 1.9 1.7 3.2-.1 1.5-.2 2.9-.5 4.4-.2 1 .1 1.5 1.1 1.8 2.5.7 4.2 3.4 1.9 6.1-1.3 1.5-2.2 3.2-4 4.3s-3.6 1.4-5.4.2l-3.6-2.4c-.5-.4-.9-.9-1-1.5-.1-.7.2-1.4.7-2 .3-.2 1.3 0 1.8.4 1.2.7 2.2 1.7 3.4 2.4 1.3.8 2.3.6 3.6-.6.2-.2.4-.4.5-.6.7-.9 1.3-1.8 2.1-2.8-.4-.2-.8-.4-1.2-.5-2.3-.5-3.7-2.8-3.2-5.1 0-.2.1-.4.2-.5.2-.8.4-1.5.4-2.3.2-1.3-.2-2-1.7-2.1-1.3-.1-1.7-1.3-1.1-2.5s1.4-2.6 2.1-3.9c.2-.4.3-.8.4-1.3.2-2.1-.2-2.6-2.2-2.5-2 0-4 .9-5.4 2.4-2.4 2.2-1.5 4.7-1.7 7.1-.5 7.2-.7 14.5-1 21.8 0 .9-.1 1.9-.3 2.8-.1.4-.5.7-.8 1-.3-.3-.8-.6-.8-.9-.2-1.5-.3-3-.3-4.6 0-1.1.2-2-1.4-1.9-1.1 0-1.7-.9-1.7-2.1.1-1.5.3-2.9.4-4.4 0-.5-.2-.9-.5-1.3-.9-.7-1.3-1.9-1-3 .5-1.7 1.1-3.3 1.9-4.8.4-.7 1.5-1 2.3-1.5l.6.3c.3-6.3.7-12.7 1-19-1.7-.7-2.6 0-3.6 1.1-1.7 1.8-3.7 2.2-5.5 1.2-1.3-.6-2-2.1-1.7-3.5 0-.3 0-.5.1-1-1.1-.2-2.2-.3-3.3-.5-4-.6-4.4-3.1-3-6 1.4-2.4 2.9-4.8 4.6-7.1.2-.3.3-.7.5-1-1.9-.9-3-2.8-2.7-4.9.1-2-.1-4.1 1-5.9 1-1.7 2.2-3.3 4.5-3.2.8.2 1.6.5 2.3 1 .3.1.4.5.7.6 3.2.9 4.3 2.3 4.6 5.5.3.9.6 1.8 1.1 2.7.5 1.4.8 2.8 1 4.3 0 .5-1 1.4-1.6 1.5-.9.1-1.5-.8-1.5-1.7.1-1.3-.3-2.7-1-3.8-.3-.7-.5-1.5-.4-2.3 0-.9-.2-1.7-.4-2.5-.2-.9-1.2-1.5-2.1-1.3-.8.1-1.5 0-1.6-1.1-.1-.9-1.6-1.1-2.3-.2-.8 1-1.4 2.2-1.6 3.4-.1 1.5 0 3 .4 4.5.3 1.3 1.2 1.2 2.2.7.6-.3 1.2-.4 1.8-.3 1 .4 1.1 1.6.1 2.6-2.5 2.8-4.6 5.9-6.3 9.2-.8 1.4-.5 1.9 1.1 2 1.4.1 2.9.3 4.3.4 1 0 1.8.8 1.8 1.8 0 .3-.1.6-.2.8-.1.2-.3.4-.3.6 0 .5.1 1 .2 1.5.4-.2 1-.2 1.2-.5 1-1.2 2.5-1.9 4-1.9.9 0 1.6-.7 1.6-1.6.2-2.1.5-4.2.6-6.3.3-3.8.4-7.5.7-11.2.2-3.3.5-6.6.9-10 .5-4.5 1-8.9 1.5-13.4s.7-9 1.1-13.4c.1-1.5.3-3 .6-4.5.1-.5.8-.8 1.2-1.2.3.5.4 1 .5 1.5-.1 2.1-.4 4.1-.5 6.2-.4 5.7-.8 11.4-1.3 17.1-.4 5.5-.8 11-1.2 16.4-.3 3.7-.6 7.4-.8 11-.1 2.1-.1 4.2-.2 6.3-.4 4.8-.7 9.8-.9 15.1zm-3.7 20c.1-2.3.2-4.7.3-7.1 0-.3-.2-.6-.5-.8-.3 0-.6.1-.8.4-.4 1.3-.8 2.5-1.1 3.8 0 .3 0 .5.2.8.7 1 1.3 2 1.9 2.9z"/><path id="パス_1000" class="st0" d="m68.7 356.7 1.2-.2c.5-2.6 1-5.1 1.5-7.6.2-1.2.3-2.4.5-3.6.2-.5.5-1 .9-1.4.3.4.5.9.7 1.4.5 3.1-.8 5.9-1.5 8.8-.2.8-.5 1.5-.8 2.3.8.2 1.7.4 2.5.7 1.7.6 2.6 2.4 2.1 4.2-.4 1-.1 2.1.7 2.8.4-1.5.8-2.9 1.2-4.4.8-2.8 2.6-4.7 4.9-6.3 1.6-1.3 3-2.8 4.4-4.3.9-.9.4-1.8.2-2.8-.1-.8-.6-1.9.6-2.2 1.1-.3 1.6.7 2 1.6.1.2.1.3.1.5.3 4.3 1.2 8.6.8 12.8-.2 5.1-2.8 9.9-7 12.8-1.2.9-2.8 1-4.1.2-.8.1-1.6.2-2.3.3-.8.2-1.7.4-1.8 1.5-.3 2.6-1.8 4.4-4 5.9-1.5 1-4.7.9-5.9-.8-.5-.7-.9-.6-1.5-.2-1 .6-2.2 1-3.4 1.1-2.2.2-4.2-1.3-4.6-3.5-.2-.8-.4-1.1-1.3-1.1-2.4.1-3.3-.8-3.8-3.1-.9-3.8.9-7.8 4.5-9.5.5-.3.9-.5 1.4-.8 1.1-.4 1.8-1.5 1.7-2.6.1-3.2 4.5-6.2 7.6-5.2 1 .3 1.8 1.6 2.7 2.4l-.2.3zm-14.1 14.8h1.7c2.1-.1 2.7.6 2.9 2.7.1.8.5 1.6 1.1 2.1.9.5 2 .2 2.5-.7.4-.6.7-1.3.9-2 .3-.7.5-1.6 1.6-1.6.9 0 1.7.8 1.6 1.8 0 .3 0 .6.1.9.6 1.7 1.3 2.7 2.4 2.4 2.1-.4 3.6-2.4 3.2-4.6 0-.3-.1-.5-.2-.8-.2-.5-.1-1.1.2-1.5.3-.3 1-.2 1.5-.2.4 0 1 .1 1.2-.1.3-.3.3-.8.2-1.2-.6-1.6-1.2-3.1-2-4.6-.6-1-1-1.8-.2-2.9.5-.6.7-1.4-.2-1.9-1.6-.8-3.5-.6-4.9.5-.4.3-.9.5-1.4.4-.3-.1-.5-.8-.6-1.2-.1-.4.2-.8.2-1.2 0-.7.2-1.6-.8-1.8-1.1-.3-2.2 0-3 .7-1.6 1.4-2.4 2.9-1.7 5 .1.4.2.8.2 1.2-.1.3-.4.9-.6.9-1.6-.3-2.5.9-3.5 1.7-2.1 1.4-2.9 3.8-2.4 6zm33.9-20c-1.6 1.3-2.9 2.6-4.5 3.7-2.2 1.4-3.8 3.6-4.6 6.1-.7 2.3-.4 4.5-.4 7.2.6-.7.9-1.2 1.3-1.4.5-.2 1.1-.4 1.6-.5 0 .6-.1 1.1-.2 1.7-.5.8-1.1 1.6-1.7 2.3 1.6.1 3.1-.6 4.1-1.8 2.1-2.5 3.6-5.4 4.4-8.6.8-2.8.2-5.8 0-8.7z"/><path id="パス_1001" class="st0" d="M145.6 336.3c-1.7.2-3.2.3-4.7.5-1.8.4-3.7-.4-4.8-1.9-2.1-2.6-2.6-5-.6-7.7.6-1 1.3-1.8 2-2.7.4-.4 1.3-.2 2-.3.1.7.1 1.3 0 2-.4.8-.8 1.6-1.3 2.3-1.2 2.4-.9 3.5.9 5 .6.5 1.7.3 2.6.3s1.7-.4 2.5-.3c1.6.1 3.1-.4 4.3-1.4 1.4-1.3 3.4-1.8 5.3-1.6h2c0-1.3-.2-2.5-.4-3.8-.7-2.7-.5-5.5.5-8 .6-1.8.1-2.7-1.8-2.6-1.1.1-2.1.3-3.1.7-2.5 1-3.6.3-3.6-2.3 0-.8-.1-1.5-.4-2.2-.4-1.1-1.6-1.7-2.7-1.4-.2.1-.3.1-.4.2-2.1 1.1-3.3 3.4-2.9 5.8 0 .2.2.5.1.6-.2.5-.5 1.1-.7 1.6-.3-.4-.8-.8-1-1.3-1-3.1.1-6.5 2.8-8.4 2-1.5 4.9-1.1 6.4 1 .3.4.5.8.7 1.3.3.8.4 1.6.7 2.4 1.2-.3 2.3-.5 3.5-.5 1.3.1 2.5.3 3.7.8 1.4.5 1.5 1.9 1.5 3.1 0 .7-.1 1.4-.3 2.1-.8 2.5-.8 5.2-.1 7.7.2.6.2 1.2.2 1.9.1 2.6-.8 4-3.5 3.9-2.1-.1-4.3.1-5.9 1.9-.1.1-.1.2-.2.3 1.6 2.9 3.3 5.6 4.7 8.5.5 1.2.7 2.6.6 4-.1 2.3-.5 4.5-1 6.8-1 2.8-2.7 5.4-4.9 7.4-.6.5-1.3.8-2.1.7-.7-.2-.9-1.1-1.1-2-.5-2.1-1.1-4.2-1.8-6.2-1.5-3.9-1-7.7.2-11.5.5-2.1 1.3-4.2 2.1-6.7zm1.7 1.8c-3.4 5.7-3.2 13.3.3 20.6 2.2-2.6 2.8-3.5 3.3-5.9.5-2.2.7-4.4.6-6.6-.1-1.3-1-2.5-1.6-3.7-.2.8-.3 1.6-.3 2.4 0 .3-.4.9-.7.9-.4 0-.8-.3-.9-.7-.2-.7-.3-1.5-.4-2.3-.1-1.3-.2-2.9-.3-4.7z"/><path id="パス_1002" class="st0" d="M167.5 280.7c-1.4.2-2.6.3-3.8.5-.5.1-1 .4-1.4.9-1.5 1.7-3.6 2.8-5.8 3.1-1.3.1-2.5-.4-3.2-1.5-2-2.7-2.9-5.9-2.6-9.2 0-.6-.3-1.2-.7-1.7-2-2.4-2.2-6.8.9-8.8 2.4-1.6 5.2-2.2 8.1-1.9.6.2 1 .6 1.2 1.2.1.7-.1 1.4-.5 2-.4.3-1 .4-1.4.2-1.7-1.7-3.2-.4-4.7.2-1.4.3-2.3 1.7-2.1 3.1 0 1.1.7 2.1 1.7 2.5 1.6.8 1.6 1 .9 2.7-.7 1.8-.1 3.6.4 5.4.2.6.4 1.1.7 1.6.4 1 1.6 1.5 2.6 1.1 1.4-.6 2.8-1.1 3.5-2.7s1.2-1.6 2.9-.9c.2.1.4.1.6.1 2.1-.5 3.4-2.7 2.9-4.8-.1-.2-.1-.4-.2-.6-.3-.5-.6-1.1-.8-1.7-.3-1.2.1-2.5 1.1-3.2.4-.3.8-.7 1.1-1.1-.7-1-2-1.3-3-.6-.2.1-.4.3-.5.5-.3.6-.4 1.6-1.5 1-.8-.4-.9-1.9-.3-2.7.9-1.2 2.3-1.5 3.7-1.6 1.5-.1 2.9.6 3.8 1.8 1.1-1.6 2.3-3.1 3.7-4.5 2-1.7 4.1-3.3 6.3-4.8.5-.2 1.1-.1 1.5.2.3.2.2.9.1 1.4-.1 1.4-.4 2.8-.5 4.2-.2 3.1 0 6.2-.6 9.2-.9 4.2-3.9 7.1-7.5 9.3-1.2.6-2.4 1-3.7 1.3-1.1.1-2.3-.3-2.9-1.2zm2.5-2.1.2.4c.7-.2 1.3-.4 2-.7 4.4-2.5 7.5-5.9 7.6-11.3v-7.2c-2.1 1.1-4.2 3.1-6.4 6.3-1 1.4-2.2 2.6-1.8 4.6.1.6-.9 1.1-1.4.7-.2-.2-.4-.5-.6-.7l-.1.1c.4 1.1.8 2.2 1.3 3.5 1-1.2 1.8-2.3 2.8-3.4.3-.3.9-.4 1.3-.5.1.5.2 1 .1 1.5-.2.5-.5 1-.9 1.4-1.4 1.7-2.8 3.5-4.1 5.3z"/><path id="パス_1003" class="st0" d="M69.8 294.2c-.4.1-.8.2-1.2.4-1.3.9-2.5 1.9-3.6 3-.5.8-.9 1.7-1.1 2.6-.2.4-.5.7-.8 1.1-.3-.3-.8-.5-1-.9-.4-1.2-.2-2.5.6-3.4 1.5-2.1 3.5-3.8 5.9-5 1-.6 2.3-.3 3 .6.5 1 .8 2.1.8 3.3.1.5-.3 1-.5 1.6 1.4-.1 2.7-.3 4-.2 2.7.1 4.5 1.1 4 3.7-.3 1-.8 2-1.4 2.9-.2.3-.5.7-.3.9.8 1.6 1.9 3.1 2.3 4.8.7 2.9-1.5 5.2-4.5 5.3-1.6 0-2.3 1.3-3.1 2.3-1.4 1.6-3 2.8-5.4 2.1-.7-.3-1.4-.7-2-1.3-.5-.6-.9-.9-1.6-.3-.4.3-.8.5-1.3.7-3.2 1-5.4-.9-5.1-4.3.1-.6.3-1.1.3-1.7.1-.9 0-1.8-.2-2.7-.5-1.8-.1-2.4 1.8-2.2h1.2c1.1.1 1.8 1 1.7 2.1 0 .2-.1.5-.2.7-.4 1.1-.8 2.3-1.1 3.4-.1.4 0 .8.3 1 .2.1.7 0 1.1-.2.4-.2.8-.5 1.1-.7 2.2-1.2 2.8-1.1 4.2 1.1.8 1.2 1.6 1.3 2.5.2.4-.4.7-.9 1.2-1.5-.3-.4-.7-.9-1-1.3-.6-.7-.5-1.8.2-2.4.6-.6 1.5-.7 2.2-.2l.2.2c.3.4.7.8 1.1 1.2.7.8 1.9.9 2.7.3.7-.4 1-1.3.6-2 0-.1-.1-.1-.1-.2-.7-.8-1.5-1.6-2.3-2.3-.6-.5-1.4-1-1.6-1.6-.4-1 .7-1.3 1.4-1.9.9-.8 1.8-1.7 2.7-2.7-1.9-.6-3.9-.5-5.8.2-.4.1-.7.4-1.1.5-1.5.5-2.5-.3-2.2-1.8.3-1.2.8-2.3 1.2-3.4.2-.5.3-1.1.4-1.6l-.2-.4z"/><path id="パス_1004" class="st0" d="M99.8 310.7c.5-.5 1.1-1 1.8-1.4.6-.1 1.2 0 1.8.2-.2.5-.4.9-.8 1.3-1.7 1.5-2.9 3.5-3.5 5.6-.5 1-.1 2.2.8 2.8.8.7.9 2 .2 2.8l-.2.2c-.5.6-1 1.1-1.6 1.6-2.4 1.9-3.1 4.4-2.9 7.3.1 1.1.5 2.2 1.9 2.3 1 .1 1.3 1.3.5 2.1s-2.1.9-3 .1c-2.4-1.6-2.3-4.1-2.2-6.5.1-3.1 1.7-5.3 4-7.2.4-.3.8-.6 1.3-1-1.7-1.4-1.5-3.1-1.3-4.9-.8 0-1.6 0-2.4-.2-3.3-1-5.1-3.5-6.1-6.4-1.4-3.8-1.8-7.8-1.3-11.7l.3-1.5c.5-1.4.3-3-.7-4.2-.5-.6-.8-1.3-.1-2s1.4-.5 2.2 0c4.2 2.5 7.8 5.7 10 10.1.8 1.7.9 3.9 1.2 5.9.2 1.6.2 3.2.1 4.7zm-2.5-3c1.2-4.5-3.4-12.9-7.5-13.7v1.2c-.8 3.6-.7 7.3.1 10.8.5 2.4 1.2 4.8 3.1 6.6 1 .9 2 1.9 3.6 1.4-.4-2-.7-4-1.2-6-.2-.9.1-1.2.8-1.6l1.1 1.3z"/><path id="パス_1005" class="st0" d="M180.5 358.1c2.1 1.7 2.4 3.8.8 6.5-.5.8-.6 1.9-.2 2.7 1.6 4-1.4 7.1-4.8 7.6-1.5.2-2.2-.2-3-1.9-.2-.4-.4-.9-.6-1.3-2 .3-3.8.6-5.7.9-1.4.3-2.9-.4-3.5-1.8-.6-1.2-.6-2.6.1-3.7.6-1 1.3-2 2-3.1-1.2-1.1-1.6-2.8-1-4.4.8-1.9 2.6-1.4 4.2-1.8-.1-.2-.1-.4-.1-.6.1-.6.2-1.1.3-1.7.6.3 1.4.4 1.7.9.7 1 1.2 2.2 1.7 3.3.3.8-.1 1.6-.9 1.8-.3.1-.6.1-.9 0-1-.2-1.9-.5-3.2-.9.1.3.3.7.5 1 1.4 1.7 1.5 2.5.2 4.3l-1.5 2.4c-.1.2-.2.5-.2.8 1.9.5 3.9.1 5.6-1 1.8-1 2.9-.6 3.4 1.4 0 .2 0 .4.1.5.4.7.3 2 1.6 1.8 1.4-.3 2.3-1.8 2-3.2-.3-.7-.5-1.3-.6-2.1 0-1 .2-2 .5-2.9l.9-1.8c.4-.9.2-1.5-1-1.6-1.7-.2-2-1-1.1-2.6.8-1.4 1.7-2.8 2.4-4.2.9-1.9-.2-3.6-2.2-3.3-.4 0-.8.2-1 .5-1 1.4-1.9 2.7-.9 4.6.4.8.1 1.5-.9 1.2-.7-.2-1.2-.6-1.6-1.2-.8-2.4.1-4.5 1.8-6.3 1.3-1.5 3-1.4 4.7-.8 1.9.6 3.1 2 2.8 3.9-.4 1.7-.9 3.3-1.6 4.9-.4.5-.6.9-.8 1.2z"/><path id="パス_1006" class="st0" d="M150.6 493.2h5.4c.4-.1.8 0 1.2.1.4.2.8.6 1 1 .1.2-.5.8-.8.9-1.4.2-2.8.3-4.1.4-.6 0-1.2.1-2 .1 1.1 2.3 2 4.5 3.1 6.6 2.7 5 5.5 10 8.3 15 .6.8 1.1 1.6 1.6 2.5.1.6.1 1.2 0 1.8-.5-.2-1.3-.1-1.6-.5-1.4-2-2.8-4.1-4-6.2-1.7-2.9-3.4-5.8-4.9-8.8-1.4-2.7-2.5-5.5-3.8-8.3-.3-.7-.6-1.3-.8-1.8-1.8-.1-3.4-.4-5-.3-.5 0-1 .7-1.6.9-.5.2-1.2.3-1.5.1-.6-.6-.3-1.2.3-1.7 1.6-1.2 3.2-2.4 4.7-3.6.3-.2.5-.5.5-.9-.6-3.5-1.3-7.1-1.8-10.6-.4-2.6-.5-5.3-.7-7.9-.1-1.7-.3-3.3-.4-5-.1-.3-.1-.6 0-.9l.9-1.5c.4.4.6.9.8 1.5 1 6.7 1.7 13.3 3.4 19.9.3 1.1.4 2.3.4 3.5 0 1.1.4 1.3 1.4 1.2 1.5-.2 3-.4 4.6-.6.8-.1 1.6.1 1.6 1 0 .4-.7 1-1.2 1.1-1.6.4-3.2.7-4.8 1h-.2z"/><path id="パス_1007" class="st0" d="M116.1 394.5c1.9-1.9 2.6-7.2-.2-8.9-.6-.4-1.5-1-.6-2 .5-.7 1.5-.8 2.2-.3 1.7 1 2.9 2.8 3.1 4.8.5 2.8-.1 5.7-1.6 8-1.2 2-2.3 2.5-4.5 2.2-.5-.1-.9.1-1.3.4-.9 1-1.5 2.1-2.4 3.1s-1.8 1.9-3.2 1.6c-1.5-.2-2.6-1.4-2.7-2.9-.1-.6-.3-1.2-.6-1.7-1.4.7-2.7 1.2-4 .4-.7-.4-1.3-1.1-1.6-1.9-.9-3.4-.1-7.1 2.2-9.8.7-.8 1.3-1.6 2-2.4-1.6-1.2-2.7-3-3.1-4.9-.1-.5.4-1 .7-1.5.4.4.7.8.9 1.2.7 1.6 2 2.9 3.5 3.8 2.2 1.1 2.2 1.9.2 3.3-3.2 2.3-4.3 5.4-3.8 9.2.1.8.6.9 1.1.6 2.9-1.6 4.4-.9 5.1 2.4.1.4.3.8.4 1.2.7-.6 1.4-1.3 2-2.1 1-1.2 1.8-2.4 2.7-3.7 1.5-1.9 2.2-2 3.5-.1z"/><path id="パス_1008" class="st0" d="M24.7 449.6c0-1.8-.1-3.5-.4-5.3-1-5-3.2-9.2-7.5-12.2-.9-.5-1.8-.8-2.7-1-.5-.1-1.1-.2-1.5-.4-.4-.3-.9-1-.8-1.2.2-.5.9-1.2 1.3-1.2 2.4-.1 4.7.7 6.4 2.3 2.9 2.5 5.1 5.7 6.4 9.3 1.5 3.4 1.3 7 1.3 10.6 0 1.3-.1 2.7-.4 4-.2.8-.8 1.4-1.5 1.8-1 .3-1.6-.7-1.7-1.6-.4-3.4-2.8-5.4-5.2-7.2-2.9-2.2-6.2-3.8-8.6-6.6-1.9-2.1-3-4.8-3.3-7.6-.1-.5.4-1 .7-1.5.3.4.9.8 1 1.3.7 5.4 4.4 8.3 8.7 10.8 2.7 1.4 5 3.3 6.9 5.6.1.2.2.4.4.6l.5-.5z"/><path id="パス_1009" class="st0" d="m83 492.1 5.9 1.4h.3c.9.2 1.8.6 1.6 1.6-.1.3-1.2.6-1.9.6-3-.3-5.8-1.1-8.5-2.3-.5-.2-1-.2-1.5-.1-1.4.4-2.7.9-4.1 1.3-.3.1-.7.2-1.1.1-.5-.2-1-.5-1.5-.8.4-.4.8-.7 1.3-1 1.9-.8 3.9-1.4 5.8-2.2.3-.3.6-.7.6-1.1.4-3.3.6-6.6 1.1-9.9.8-5.8 1.7-11.5 2.5-17.2.1-.5 0-1.1.1-1.6.1-.6.1-1.4 1.1-1.4.9.1 1.1.7 1.1 1.4-.1 2.2-.2 4.3-.4 6.5-.4 4.7-1 9.5-1.4 14.2-.2 2.2-.5 4.4-.7 6.5 0 .4 0 .7.1 1.1 1.6-.4 3-.9 4.5-1.1.6-.1 1.1.1 1.5.5.5.8-.2 1.2-.9 1.4-1.8.6-3.6 1.1-5.4 1.7l-.1.4z"/><path id="パス_1010" class="st0" d="M83.5 264.2c-1.2 1.8-2.4 3.5-3.6 5.2-.8 1.3-2.4 1.9-3.9 1.5-1.5-.5-2.6-1.8-2.9-3.3-.3-1.1-.4-2.2-.5-3.3-.1-.8.1-1.5 1.1-1.6s.8.8.9 1.4c.2 1.1.4 2.2.7 3.3.4 1.3 1.6 1.6 2.5.5 1.3-1.7 2.4-3.4 3.3-5.3.8-1.6 1.5-2.1 3-1.4 1 .7 2.4.5 3.3-.4 1.5-1.6 3.2-3.1 4.8-4.7 1.2-1.2 1-2.3-.3-3.4-1.5-1.3-3-2.6-4.5-4-.8-.6-1-1.7-.4-2.6.7-.8 2-.9 2.8-.2 1.1.9 2.2 2 3.2 3 .6.6 1.2 1.2 1.9 1.7 2.5 1.7 1.9 3.3 1.2 5.3s-2.1 3.7-4 4.6c-.6.4-1.1.9-1.4 1.6-2 2.6-4.3 3.3-7.2 2.1z"/><path id="パス_1011" class="st0" d="M52.7 275.1c-.3-.8-.5-1.7-.6-2.6-.2-3.2-.2-6.4-.4-9.5-.1-1.9-.4-2.2-1.6-2.3-.7 2.9-1.4 5.9-2.2 8.8-.3 1.4-.7 2.7-1.2 4-.5 1.1-1.6 1.2-3 1.2.2-1.8.4-3.5.7-5.2.3-1.8.8-3.6 1-5.4.3-2.4.5-4.8.8-7.1 1.9.9 3.9 1.8 5.9 2.4 2.2.5 4.4.8 6.6 1-2.4 4-3.3 8.3-4.1 12.8-.3.8-.7 1.5-1.3 2.1l-.6-.2z"/><path id="パス_1012" class="st0" d="M129 461.9c-.7-4.2 1.7-7.8 3.8-11.6 1-1.8 1.3-3.9 1-5.9-.1-.6.3-1.2.5-1.8.5.3 1.3.5 1.5 1 1 2.3 1.9 4.6 2.7 6.9 1.6 4.3 2.4 8.9 2.3 13.5.1 1-.4 2-1.3 2.6-2.1 1.3-4.1 2.6-6.2 3.9-.8.5-1.4.5-2.1-.5-2-3.1-2.1-3-2.2-8.1zm7-12.4h-.3c-.4.7-.7 1.5-1.1 2.1-2.3 4-4.1 8.1-3.4 12.9.2 1.1.3 2.2.5 3.3.2.8.7.9 1.4.5 1.4-.9 2.9-1.7 4.3-2.6.3-.2.6-.5.7-.9.2-1.8.2-3.7 0-5.5-.5-3.3-1.4-6.5-2.1-9.8z"/><path id="パス_1013" class="st0" d="M113.3 296c-1.4.6-2.7 1.2-4.1 1.8-.4.1-.8.3-1.3.3 0-.5-.2-1.2.1-1.5.6-.7 1.4-1.3 2.2-1.6 1.7-.5 3.5-.7 5.3-.7 2 .1 3.2 2.4 2.4 4.4-.6 1.5-1.4 2.9-2.3 4.2-.6.9-.3 1.4.1 2.1.8 1.3 1.3 2.6 1.7 4.1.1 1.2-.2 2.4-.7 3.4-.9 1.7-1.9 3.4-2.9 5-.9 1.3-2.5 2-4.1 1.9-.3 0-.9-.5-1-.9s.2-1.2.5-1.2c2.1-.4 2.9-2 3.6-3.8.2-.4.5-.9.8-1.2 1.5-1.6 1.6-4.1.2-5.7-1.7-2.3-1.7-2.9 0-5.3.6-.8 1.1-1.7 1.6-2.7.3-.6.6-1.4.4-1.8s-1.1-.4-1.8-.6h-.5l-.2-.2z"/><path id="パス_1014" class="st0" d="M177.9 298.5c-2.4-1.4-2.2-4.6-1.2-6.5.7-1.5 1.6-3 2.7-4.3.7-.6 1.6-1 2.6-1.1.2-.1.8.5.9.9.1.2-.4.8-.7.9-2 .8-4 4.5-3.4 6.6.1.4.8.6 1.3.8.6.2 1.5.1 1.9.5.6.6.3 1.4-.2 2.2-.8 1.3-1.3 2.7-.1 4.1.4.6.8 1.3 1.2 2 .4.8 1.4 1.2 2.3 1 .6-.1 1.5 0 1.7.4.2.6.1 1.3-.3 1.8-.9 1.4-3.4 1.6-4.9.2-1.9-1.5-3.3-3.7-3.8-6.2 0-1.1-.1-2.2 0-3.3z"/><path id="パス_1015" class="st0" d="M69.6 525.6c.9-3.6 1.7-7 2.7-10.2 1.4-4.4 2.9-8.7 4.4-13.1.6-1.7 1.3-3.5 2-5.1.2-.5 1-1.1 1.3-1.1.8.2.8 1 .5 1.8-1.7 4.9-3.4 9.8-4.8 14.7-1.2 4.1-2.1 8.3-3.2 12.5-.1.3-.1.7-.3.9-.4.4-1 1-1.4.9-.5-.2-.8-.9-1.2-1.3z"/><path id="パス_1016" class="st0" d="M112.3 374.9c.6-.6 1-.9 1.4-1.3 1-.8 1.9-.9 2.4.3.6 1.4 1.1 2.8 1.3 4.3 0 .6-.3 1.2-.8 1.6-.4.3-.8.4-1.3.3-.3-.3-.5-.8-.6-1.2v-2.4c-.5.3-.8.5-1 .7-1.2.8-2.9.4-3.6-.8-.1-.1-.1-.2-.1-.3-1-1.7-1.5-3.7-1.5-5.7-.1-1.6-.5-1.9-2-1.3-2.5 1-4.9 3.8-4.4 7.1.1.5-.3 1.2-.5 1.7-.5-.5-1.2-.9-1.4-1.5-.8-3 1.1-7.2 4-8.6 1.1-.5 2.2-.9 3.4-1 1.6-.3 2.4.3 2.8 1.9.4 1.5.7 3 1.1 4.4.2.5.5 1.2.8 1.8z"/><path id="パス_1017" class="st0" d="M176.4 241.9c.2-1.1.3-2.2.5-3.3.1-.6.4-1.1.9-1.5.5-.2 1-.3 1.5-.1.2.1.4.9.2 1.1-.9 1.3-.5 2.8-.5 4.2 0 .9.4 1.3 1.3 1.3 2.7-.2 5.2 1.2 6.4 3.6.3.5.4 1.5.1 1.8-.5.7-1.5.8-2.2.3l-.1-.1c-.3-.2-.5-.5-.7-.8-.8-1.7-2.3-2-4-2-1.7.1-3.1-1.1-3.3-2.7v-1.8h-.1z"/><path id="パス_1018" class="st0" d="M188 266.9v-9c0-1.1.1-2.2.2-3.3.1-.4.3-.7.7-.8.7-.2 1.5-.4 2.2-.5.2 1.3.3 2.6.3 3.9 0 .6-.6 1.2-.8 1.9l-1.8 6.6c-.1.4-.3.9-.5 1.3l-.3-.1z"/><path id="パス_1019" class="st0" d="M196.3 266.8c-1.8-3-2.7-6.4-2.7-9.9 0-1.3.5-2.7-.6-3.8 1.4-.3 2.9.6 3.2 2 0 .2.1.3.1.5v11.2z"/><path id="パス_1020" class="st0" d="M41.1 270.7c.2-6.2.5-12.4.7-18.6.7.9 1.5 1.8 2.2 2.9.1.3.1.6 0 .9-1 2.3-.9 4.6-.9 7-.1 1.6-.4 3.1-.9 4.6l-.9 3.3-.2-.1z"/><path id="パス_1021" class="st0" d="M163.4 319.2c.5.4 1 .8 1.5 1.3.2.3.1.9.2 1.3-.4 0-.9.2-1.2 0-1.7-.7-2.9-2.3-3.2-4.1-.2-1.1.2-1.4 1.2-1.4 1.7.1 3.5.1 5.2.3.6.2 1.1.4 1.6.8-.5.4-.9.9-1.4 1-1.2.2-2.4.3-3.7.3l-.2.5z"/><path id="パス_1022" class="st0" d="M59.3 441.5c-1.5 0-1.5-.8-1.1-1.4.8-1.5 1.8-2.9 2.9-4.1 1.1-1 2.3-1.8 3.6-2.4.3-.2.8.2 1.3.3-.2.4-.2 1-.5 1.2-2.3 1.4-4.3 3.3-5.6 5.7-.2.2-.4.4-.6.7z"/><path id="パス_1023" class="st0" d="M105.9 267.1c.2-.5.3-1 .6-1.2 2-1.4 4.1-2.8 6.2-4 .5-.2 1.2-.2 1.7.2.7.8-.2 1.1-.7 1.5-2 1.4-4 2.9-6 4.3-.3.2-.8.3-1.2.3-.2-.2-.4-.8-.6-1.1z"/><path id="パス_1024" class="st0" d="M121 363.3c-.2.4-.3.7-.5 1-1.2 1.8-2.4 3.6-3.6 5.3-.2.4-.4.7-.8.9-.3.2-.7.2-1.1 0-.3-.3-.4-.6-.3-1 1-2.6 2.6-5 4.6-6.9.4-.3.9-.3 1.3-.2.1 0 .2.6.4.9z"/><path id="パス_1025" class="st0" d="M77 283c-.2-.6-.8-1.4-.6-1.9.7-2.3 1.5-4.6 2.3-6.9.1-.4.9-.5 1.4-.7.2.5.6 1.1.4 1.5-.7 2.3-1.4 4.6-2.2 6.9-.2.4-.5.8-.8 1.1H77z"/><path id="パス_1026" class="st0" d="M63.5 328.2c1.2 0 1.7.4 1.6 1.4-.3 2.2-.6 4.3-1 6.5-.1.5-.7.8-1.1 1.2-.3-.5-1-1-1-1.4.2-1.5.4-3.1.8-4.6.2-1.1.4-2.1.7-3.1z"/><path id="パス_1027" class="st0" d="m83.1 273.1.9-1c.3.4.8.7 1 1.1.5 2.1 1 4.3 1.4 6.4 0 .5-.1 1-.3 1.5-.6-.3-1.5-.5-1.6-1-.4-1.5-.8-3-1-4.6-.2-.6-.3-1.4-.4-2.4z"/><path id="パス_1028" class="st0" d="M77.2 413.7c.4.3.8.5.9.7.1.3.1.7-.1 1-1.9 1.5-3.7 2.9-5.7 4.3-.9.6-1.6.2-2-.6-.4-.9.6-.9 1-1.2 1.1-.9 2.2-1.8 3.4-2.6.8-.6 1.6-1.1 2.5-1.6z"/><path id="パス_1029" class="st0" d="M99.3 416.5c.5-1.2.9-2.3 1.4-3.3.6-1.2 1.3-2.3 2.1-3.4.2-.3 1-.3 1.5-.4.1.5.1 1 0 1.4-.9 2-1.9 4.1-3 6-.2.3-.8.8-1.1.7-.3-.1-.6-.7-.9-1z"/><path id="パス_1030" class="st0" d="M135.1 381.5c.3.5.6 1 .8 1.5 1 2.1 2 4.1 2.9 6.2.1.4.1.8-.2 1.1-.3.2-.7.1-1 0-.4-.2-.8-.6-1-1-.9-1.9-1.8-3.9-2.7-5.9-.3-.8-.3-1.3.7-1.5l.5-.4z"/><path id="パス_1031" class="st0" d="M127.1 341c.3-.7.7-1.4 1.2-2 .9-1.2 2-2.3 3.1-3.4.3-.3 1.1-.1 1.7-.1-.1.6-.3 1.1-.5 1.6-1 1.5-2.1 2.9-3.2 4.3-.3.4-.8.7-1.3.8-.3 0-.6-.7-1-1.2z"/><path id="パス_1032" class="st0" d="M40.1 252.3c0 2.7-.3 5.3-.7 7.9-.2.8-1.9 1.2-3 1.8-.1-.4-.3-.8-.2-1.1 1-2.4 2-4.8 3-7.3.2-.5.3-1 .5-1.4l.4.1z"/><path id="パス_1033" class="st0" d="M168.5 386.8c.4-1.1.6-1.9.9-2.7.5-1.3 1-2.6 1.7-3.8.2-.4.8-.5 1.2-.7.1.5.4 1 .3 1.4-.2.9-.6 1.8-.9 2.7-.3 1-.5 2.1-.7 3.1-.1.7-.5 1.3-1.2 1-.5-.3-.9-.6-1.3-1z"/><path id="パス_1034" class="st0" d="M104.7 415.6c.7-2.4 1.3-4.5 2-6.6.1-.3.7-.5 1.1-.7.1.4.4.8.3 1.2-.3 2-.7 4.1-1.2 6.1-.2.6-.6 1.1-1 1.5l-1.2-1.5z"/><path id="パス_1035" class="st0" d="M124.6 335.1c-.3-.2-.8-.5-.8-.8 0-.5.2-1.3.5-1.4 2-.6 4.1-1.2 6.2-1.6.6-.1 1.5 0 1.4.9 0 .3-.9.7-1.4.8-1.6.6-3.3 1.1-5 1.7-.3.1-.5.2-.9.4z"/><path id="パス_1036" class="st0" d="M49 388.7c-.3-.2-.7-.4-.8-.7-.1-.4-.1-1 .1-1.2 1.7-1.3 3.5-2.6 5.3-3.8.3-.2 1 .1 1.4.2-.2.4-.2 1-.5 1.3-1.6 1.3-3.3 2.6-5 3.9-.1 0-.3.1-.5.3z"/><path id="パス_1037" class="st0" d="M72.6 333.3c-.3.3-.4.7-.6.7-.5 0-1.2 0-1.3-.2-.8-1.1-1.4-2.2-2-3.4-.3-.7-.5-1.4-.5-2.2.1-.5.3-.9.5-1.3.4.2.9.4 1 .8.6 1.2 1 2.6 1.6 3.8.4.5.8 1.2 1.3 1.8z"/><path id="パス_1038" class="st0" d="M28.4 419.3c-.4 2.1-.8 3.9-1.3 5.8-.1.3-.7.6-1 .8-.2-.3-.7-.7-.7-1 .3-2 .7-4 1.2-6 .2-.3.6-.5 1-.5.5.1.6.7.8.9z"/><path id="パス_1039" class="st0" d="M122.3 366.5c.8 0 1.3.7.7 1.3-1.1 1.3-2.2 2.5-3.4 3.7-.3.2-.6.3-1 .1-.3-.2-.5-.5-.6-.9 0-1.4 2.9-4.2 4.3-4.2z"/><path id="パス_1040" class="st0" d="M62.9 260.6h2.5v7.5c-.7-.6-1.5-1-1.6-1.5-.4-2-.6-4-.9-6z"/><path id="パス_1041" class="st0" d="M140.8 384.1c0 .8 0 1.5-.1 2.3 0 .3-.4.7-.5.7-.4 0-.8-.2-1.1-.5-.2-.5-.3-1-.3-1.6-.1-1.2-.1-2.3-.1-3.5.1-.4.3-.8.5-1.2.4.3 1.2.5 1.3.9.1 1 .3 1.9.3 2.9z"/><path id="パス_1042" class="st0" d="M177.8 385.2c-.2.3-.3.7-.5.8-.4.1-.9.1-1.2-.2-.4-.5-.7-1-.9-1.6-.3-1-.5-2-.7-3 0-.4.3-.8.4-1.2.4.2 1.1.2 1.3.6.6 1.5 1 3 1.6 4.6z"/><path id="パス_1043" class="st0" d="M169.1 528.3c-.5.6-.9 1.6-1.4 1.6-.8.1-1-.7-1.1-1.5-.1-1-.7-2-.8-3.1-.1-.6.2-1.1.6-1.5.7-.5 1.1.2 1.3.9.4 1.2.9 2.3 1.4 3.6z"/><path id="パス_1044" class="st0" d="M112.2 269.7c.7-1.4 1.3-2.9 2.1-4.2.2-.3.9-.3 1.4-.4.1.4.3.9.2 1.3-.4 1.3-.9 2.5-1.4 3.7-.2.4-.8.6-1.3 1l-1-1.4z"/><path id="パス_1045" class="st0" d="M57 391.2c-.1-1.8.9-3.6 2.4-4.6.3-.2.9-.1 1.3-.1 0 .5 0 1-.2 1.5-.5 1.1-1.1 2.1-1.7 3.1-.3.4-.7.8-1.2 1.1l-.6-1z"/><path id="パス_1046" class="st0" d="M93.7 436.3c.5.7.8 1 .9 1.3.6 1.9 1.1 3.8 1.5 5.7 0 .3-.2.6-.4.8-.3.1-.6 0-.8-.1-.3-.3-.5-.6-.6-1-.4-1.6-.8-3.2-1.1-4.8 0-.5.3-1 .5-1.9z"/><path id="パス_1047" class="st0" d="M158.4 304.5c-1.6-.6-1.7-.9-1.1-2.2.4-.9.9-1.8 1.5-2.7.3-.4 1-.6 1.6-.9.1.6.3 1.3.1 1.8-.6 1.4-1.3 2.7-2.1 4z"/><path id="パス_1048" class="st0" d="M64.7 446.2c-.4-.3-.8-.4-.9-.7-.1-.4-.1-1.1.1-1.2 1.4-.7 2.8-1.3 4.2-1.9.3 0 .6.1.8.4.1.4 0 .8-.2 1.1-1.2.8-2.5 1.5-4 2.3z"/><path id="パス_1049" class="st0" d="M188.6 287.6c-.4.2-.9.4-1.3.5-1.8.3-2.8-1.3-4.3-1.8 0-.5.1-1 .2-1.4.1-.2.7-.2 1-.1 1.2.4 2.3.8 3.4 1.3.3.3.5.8 1 1.5z"/><path id="パス_1050" class="st0" d="M75 355.9c-.3-.7-.8-1.2-.7-1.5.4-1.4 1-2.9 1.7-4.2.2-.4.9-.4 1.4-.6.1.5.1 1 0 1.6-.4 1.1-.9 2.3-1.4 3.3-.2.4-.6.9-1 1.4z"/><path id="パス_1051" class="st0" d="M31.4 418.4c1.3-.1 1.6.4 1.6 1.3.1 1.3.2 2.7.3 4 0 .3-.1.6-.3.8-.3.1-.6.1-.8 0-.3-.2-.7-.6-.7-.9-.1-1.8-.1-3.5-.1-5.2z"/><path id="パス_1052" class="st0" d="M160.4 307.3c-.3 0-.6 0-1-.1-.5-.3-.9-.7-1.3-1.1.4-.3.9-.6 1.4-.7 1.1-.2 2.2-.2 3.3-.2.3 0 .6.3.9.5-.2.3-.3.8-.6.9-.9.3-1.9.5-2.7.7z"/><path id="パス_1053" class="st0" d="M100.9 437.3c-.1.8-.3 1.6-.5 2.3-.2.4-.8.6-1.1.9-.2-.4-.4-.9-.5-1.4 0-.7.1-1.3.4-1.9.3-.4.6-.8.9-1.1l.8 1.2z"/><path id="パス_1054" class="st0" d="M88.5 268.4c.5-.4.8-.8 1.1-.8 1.3 0 .9 1.1 1 1.8 0 .3-.4.7-.6 1.1l-1.5-2.1z"/><path id="パス_1055" class="st0" d="M145.9 97.9c.8 2.5 1.5 4.8 2.2 7.1.4 1.2.6 2.4.9 3.7.1 1.3-.5 2.6-1.6 3.4-1.2-1.5-2-1.5-3.5-.1-2.5 2.2-5.2 4.4-8.7 4.6-2.5.1-5 0-7.5-.1-.7 0-1.3-.1-2.3-.2-.2-7.6-.5-15.3-2.4-22.9 1.8.3 3.6.5 5.5.6 4.3 0 8.4-1.1 12.1-3.2.4-.2.5-1 .8-1.5-.5-.2-1.1-.7-1.6-.6-1 .2-2 .6-2.9 1 .3-.9.6-1.8.9-2.6.2-.3.6-.4.9-.4 1 .2 2 .4 3.1.5 2.8 0 5.2 4.9 3.3 7.2-1.3 1.6-2.4 3.4-3.6 5.1-.4.4-.6.9-.8 1.5-.1.5 0 1.4.3 1.5.6.2 1.2.1 1.7-.3 1.2-1.6 2.2-3 3.2-4.3z"/><path id="パス_1056" class="st0" d="m125.1 79.8 10.5 5.9c-.3 1.4-1.8 2.8-1.6 4.7-3.6 1-7.3 1.1-10.9.2-.4-.1-.7-.3-.8-.7-.4-1.4-.7-2.8-.9-4.2 0-.5.3-.9.7-1.2 2.7-.8 2.9-1.1 3.1-3.9-.1-.1-.1-.4-.1-.8z"/><path id="パス_1057" class="st0" d="M120.7 82.3c-.5-1.7-.9-3.3-1.3-4.9-.2-.6-.7-1.4.4-1.6 1-.3 2.1.2 2.4 1.3v.1c.1 1.1.2 2.1.3 3.2v.5c0 1.5 0 1.6-1.8 1.4z"/><path id="パス_1058" class="st0" d="M163.1 70c2-.1 2-.1 1.9 1.6 0 .9-.1 1.9-.1 2.8 0 .7 0 1.3-.9 1.3s-1.5-.3-1.3-1.4c.2-1.4.3-2.8.4-4.3z"/><path id="パス_1059" class="st0" d="M150.6 103.9c-.5-1.7-1-3.4-1.6-5.2.9.5 1.8.9 2.6 1.4.2.2.3.4.2.7l-.9 3.3-.3-.2z"/><path id="パス_1060" class="st0" d="M164.5 66.7c-.2-1.1-.4-1.9-.5-2.9 1.5.6 1.6 1.3.5 2.9z"/><path id="パス_1061" d="M151.8 448c-.6-.9-1.2-1.9-1.9-3-.2-.2-.2-.5-.2-.8.3-1.3.7-2.6 1.1-3.8.2-.3.5-.4.8-.4.3.2.5.5.5.8 0 2.5-.2 5-.3 7.2z"/><path id="パス_1062" d="M54.6 371.5c-.5-2.3.4-4.7 2.3-6 1-.8 1.9-2 3.5-1.7.1 0 .5-.5.6-.9 0-.4 0-.8-.2-1.2-.7-2.1.2-3.6 1.7-5 .8-.7 2-1 3-.7 1 .2.8 1.1.8 1.8 0 .4-.3.8-.2 1.2.1.4.3 1.1.6 1.2.5.1 1-.1 1.4-.4 1.4-1.1 3.3-1.3 4.9-.5.9.6.7 1.3.2 1.9-.9 1.1-.4 1.9.2 2.9.8 1.5 1.5 3 2 4.6.1.4 0 .9-.2 1.2-.2.2-.8.1-1.2.1-.5 0-1.2-.1-1.5.2-.3.5-.4 1-.2 1.5.8 2-.1 4.3-2.2 5.1-.3.1-.5.2-.8.2-1.1.2-1.8-.8-2.4-2.4-.1-.3-.1-.6-.1-.9.1-.9-.7-1.8-1.6-1.8-1.1-.1-1.2.8-1.6 1.6-.2.7-.5 1.4-.9 2-.5.8-1.6 1.1-2.5.7-.6-.5-1-1.3-1.1-2.1-.2-2.1-.9-2.8-2.9-2.7-.4.2-1 .1-1.6.1z"/><path id="パス_1063" d="M88.5 351.5c.3 2.9.8 5.9 0 8.7-.8 3.2-2.3 6.1-4.4 8.6-1 1.2-2.5 1.9-4.1 1.8.6-.7 1.2-1.5 1.7-2.3.2-.5.2-1.1.2-1.7-.6.1-1.1.2-1.6.5-.4.2-.7.7-1.3 1.4 0-2.6-.3-4.9.4-7.2.8-2.5 2.4-4.6 4.6-6.1 1.5-1.1 2.9-2.4 4.5-3.7z"/><path id="パス_1064" d="M147.3 338.1c.1 1.8.2 3.3.3 4.8 0 .8.2 1.5.4 2.3.2.4.5.6.9.7.3 0 .6-.5.7-.9 0-.8.1-1.6.3-2.4.6 1.2 1.5 2.5 1.6 3.7.1 2.2-.2 4.4-.6 6.6-.5 2.4-1.1 3.3-3.3 5.9-3.5-7.4-3.7-15-.3-20.7z"/><path id="パス_1065" d="M170 278.6c1.4-1.8 2.8-3.6 4.1-5.4.4-.4.7-.9.9-1.4.1-.5 0-1-.1-1.5-.4.2-1 .2-1.3.5-1 1.1-1.8 2.2-2.8 3.4-.5-1.3-.9-2.4-1.3-3.5l.1-.1c.2.3.3.5.6.7.5.4 1.5-.1 1.4-.7-.4-2 .8-3.2 1.8-4.6 2.2-3.2 4.3-5.2 6.4-6.3v7.2c-.1 5.4-3.1 8.8-7.6 11.3-.6.3-1.3.5-2 .7l-.2-.3z"/><path id="パス_1066" d="m97.3 307.7-1-1.2c-.7.4-1 .7-.8 1.6.5 2 .8 3.9 1.2 6-1.7.5-2.6-.5-3.6-1.4-1.9-1.8-2.5-4.2-3.1-6.6-.8-3.6-.9-7.3-.1-10.8v-1.2c3.9.8 8.5 9.2 7.4 13.6z"/><path id="パス_1067" d="M136 449.5c.7 3.3 1.5 6.5 2 9.8.2 1.8.2 3.7 0 5.5-.1.4-.3.7-.7.9-1.4.9-2.8 1.7-4.3 2.6-.7.5-1.2.3-1.4-.5-.2-1.1-.4-2.2-.5-3.3-.7-4.8 1-8.9 3.4-12.9.4-.7.7-1.4 1.1-2.1h.4z"/></g><g id="name"><path d="m1100.6 850.6-1 5.5 5.5 8.5-6.1 4-19.4-29.8 6.1-4 8.8 13.5.3-5.5 1.2-14.7 7.6-4.9-2 20.1 21.7 9.5-7.3 4.8-15.4-7zM1159.9 815.9c1.2-2.7 3.2-4.3 5.9-5.1 5.5-1.5 9.2 1 11 7.4l4.4 16.3-6.8 1.8-4.3-16.2c-.4-1.5-1-2.5-1.8-3s-2-.6-3.4-.2c-2 .5-3.2 1.7-3.7 3.5l4.9 18.1-6.8 1.8-9.7-36.2 6.8-1.8 3.5 13.6zM1187.8 820.5c-.3-2.6 0-5 .8-7.1.8-2.1 2.1-3.9 3.8-5.2 1.8-1.3 3.9-2.1 6.4-2.4 3.5-.4 6.6.4 9 2.3 2.5 1.9 4 4.7 4.7 8.4l.2 1.8c.4 4-.4 7.4-2.4 10.1-2 2.7-4.9 4.2-8.7 4.6s-6.9-.5-9.5-2.7c-2.5-2.2-4-5.4-4.4-9.6l.1-.2zm7.1-.2c.3 2.5.9 4.4 2 5.6 1.1 1.2 2.5 1.7 4.2 1.6 1.7-.2 3-1 3.8-2.4.8-1.4 1.1-3.5.8-6.4-.3-2.5-.9-4.3-2-5.5-1.1-1.2-2.5-1.8-4.2-1.6-1.7.2-3 1-3.8 2.4-.9 1.4-1.1 3.5-.8 6.3zM1142.8 846.7c-.5-.5-1-1.2-1.4-2-1 2.4-2.8 4-5.4 4.9-2.4.8-4.7.8-6.8 0s-3.5-2.4-4.3-4.5c-.9-2.6-.6-5 .8-7.1 1.5-2.1 4.1-3.8 7.8-5.1l3.1-1.1-.5-1.4c-.4-1.2-1-2-1.8-2.5s-1.9-.5-3.2-.1c-1.1.4-1.9 1-2.4 1.7s-.5 1.6-.2 2.5l-6.7 2.3c-.5-1.4-.5-2.9 0-4.5.5-1.5 1.4-2.9 2.8-4.2 1.4-1.3 3.1-2.2 5.1-2.9 3.1-1.1 5.8-1.1 8.1-.2 2.3.9 4 2.8 5 5.6l3.7 10.8c.8 2.4 1.8 4 2.8 5l.1.4-6.6 2.4zm-7.1-2.7c1-.3 1.8-.9 2.5-1.6.7-.7 1.1-1.5 1.2-2.4l-1.5-4.3-2.5.9c-3.3 1.1-4.7 2.9-4.1 5.3l.1.4c.3.8.8 1.4 1.6 1.8.8.2 1.7.2 2.7-.1zM1312.8 838.1l-7.2-1.4 2.9-15-14-2.7-2.9 15-7.2-1.4 6.8-34.9 7.2 1.4-2.7 14.1 14 2.7 2.7-14.1 7.2 1.4-6.8 34.9zM1335.7 845.8c-.1-.7 0-1.5.3-2.5-2.3 1.1-4.7 1.1-7.3 0-2.4-1-4.1-2.5-5-4.6-1-2-1-4.1-.1-6.2 1.1-2.6 2.9-4.2 5.4-4.7 2.5-.6 5.6-.1 9.2 1.4l3 1.3.6-1.4c.5-1.1.6-2.1.3-3.1-.3-.9-1.1-1.6-2.3-2.2-1.1-.5-2.1-.6-2.9-.3-.8.3-1.5.8-1.8 1.8l-6.5-2.8c.6-1.4 1.6-2.5 3-3.4 1.4-.8 3-1.2 4.9-1.3 1.9 0 3.8.4 5.8 1.2 3 1.3 5.1 3 6.2 5.3 1.1 2.3 1.1 4.7-.1 7.5l-4.5 10.5c-1 2.3-1.4 4.2-1.3 5.6l-.2.4-6.7-2.5zm-3.4-6.8c1 .4 1.9.6 2.9.5 1-.1 1.8-.4 2.5-1l1.8-4.2-2.4-1c-3.3-1.4-5.5-1-6.6 1.2l-.2.4c-.3.8-.3 1.6 0 2.4.3.7 1 1.3 2 1.7zM1387.2 877.7c.1-.7.5-1.5.9-2.3-2.5.4-4.9-.3-7-2-2-1.6-3.2-3.6-3.6-5.8-.4-2.2.1-4.2 1.6-6 1.8-2.2 3.9-3.2 6.5-3 2.6.1 5.4 1.4 8.4 3.9l2.5 2 1-1.2c.8-.9 1.1-1.9 1.1-2.9s-.6-1.9-1.6-2.7c-.9-.7-1.8-1.1-2.7-1.1s-1.6.4-2.3 1.2l-5.5-4.4c1-1.2 2.2-2 3.8-2.4 1.6-.4 3.2-.4 5 .1 1.8.5 3.5 1.4 5.2 2.8 2.5 2 4 4.3 4.5 6.8s-.2 4.9-2.1 7.2l-7.2 8.9c-1.6 2-2.5 3.7-2.8 5.1l-.3.3-5.4-4.5zm-1.5-7.4c.8.7 1.7 1.1 2.7 1.3 1 .2 1.9.1 2.7-.2l2.9-3.5-2-1.7c-2.7-2.2-5-2.5-6.7-.7l-.3.3c-.6.7-.8 1.4-.6 2.3 0 .7.5 1.5 1.3 2.2zM1364.3 848.1l13-11.1 6.3 4.1-25.5 19.8-1.2.8c-3.2 2-6.3 2.1-9.4.1-.9-.6-1.7-1.3-2.4-2.1l2.9-4.5.9.6c1.1.7 2.1 1.1 2.8 1.1.8 0 1.6-.3 2.4-.9l1.9-1.4 6.7-27.3 6.4 4.1-4.8 16.7zM1413.7 893c.6-.6.8-1.4.6-2.3-.2-1-.8-2.3-1.8-3.9-3.3-5.5-3.5-9.6-.6-12.4 1.7-1.6 3.8-2.2 6.3-1.9 2.5.4 4.8 1.7 6.9 4 2.3 2.5 3.5 5 3.8 7.5.2 2.5-.6 4.7-2.4 6.4l-4.8-5.2c.7-.7 1.1-1.5 1.2-2.4 0-.9-.4-1.9-1.4-2.9-.8-.9-1.6-1.4-2.5-1.5-.8-.1-1.6.1-2.2.7-.6.5-.8 1.2-.6 2.1.2.9.7 2.1 1.6 3.6s1.7 2.9 2.2 4.1c1.5 3.7 1.1 6.6-1.4 8.9-1.8 1.6-3.9 2.2-6.4 1.7-2.5-.5-4.9-1.9-7.1-4.3-1.5-1.6-2.6-3.3-3.2-5.1-.6-1.8-.7-3.5-.4-5.2s1.1-3 2.3-4.1l4.6 4.9c-.9.9-1.3 1.9-1.2 3 .1 1.1.6 2.2 1.6 3.2.9 1 1.8 1.6 2.7 1.7.9.2 1.6 0 2.2-.6zM1441.6 899.9c2.9 0 5.3 1.2 7.1 3.4 3.6 4.5 2.8 8.8-2.3 13.1l-13.1 10.6-4.4-5.5 13-10.5c1.2-1 1.8-1.9 2-2.9.2-1-.2-2-1.2-3.2-1.3-1.6-2.9-2.3-4.7-2l-14.6 11.8-4.4-5.5 29.1-23.6 4.4 5.5-10.9 8.8zM1441.1 943.6l-3.6-6.1 22.6-13.6 3.6 6.1-22.6 13.6zm24.6-23.5c.9-.5 1.8-.7 2.8-.4 1 .3 1.7.9 2.4 2 .6 1 .8 2 .6 3-.2 1-.8 1.7-1.7 2.3-.9.6-1.9.7-2.8.4-1-.3-1.7-.9-2.4-1.9-.6-1-.8-2-.6-3 .2-1.1.8-1.9 1.7-2.4z" transform="translate(-344 -391.588)" class="st1"/></g><g id="グループ_54822"><path d="m620.4 641.8-10.9-6.8 2-3.2c.6-1 1.3-1.7 2.2-2.2.9-.5 1.9-.7 2.9-.6 1 .1 2.1.4 3.1 1.1l.5.3c1 .6 1.8 1.4 2.3 2.3.5.9.8 1.9.7 2.9-.1 1-.4 2-1 3l-1.8 3.2zm-8.2-7.7 7.8 4.9.8-1.2c.6-1 .8-1.9.5-2.9-.3-.9-1-1.7-2.2-2.5l-.6-.4c-1.2-.7-2.2-1-3.2-.9-.9.1-1.7.7-2.3 1.6l-.8 1.4zM672.7 569.5c-.3.1-.5.3-.7.5-.8.6-1.1 1.3-.9 2.1l4 5.1-1.7 1.3-5.9-7.5 1.6-1.3.7.8c-.1-1 .2-1.7.9-2.3.2-.2.5-.3.7-.4l1.3 1.7zM649.3 585.1l.7.8c0-1.1.5-2 1.4-2.7 1.5-1.2 3-1 4.5.7l4 4.9-1.7 1.3-3.9-4.8c-.4-.5-.8-.7-1.1-.8-.4-.1-.8.1-1.3.5-.7.5-.9 1.2-.8 2.1l4.3 5.3-1.7 1.3-6-7.4 1.6-1.2zM640.8 599.2c-1.1-1-1.7-2.1-1.9-3.2-.2-1.1.1-2.1.9-2.9.7-.8 1.6-1.2 2.6-1.1l-.6-.7 1.3-1.4 6.7 6.3c.9.9 1.4 1.8 1.4 2.9 0 1.1-.5 2.1-1.4 3-.5.5-1 .9-1.7 1.2-.7.3-1.3.4-1.9.3l-.2-1.6c1 .1 1.9-.3 2.5-1 .5-.5.7-1.1.7-1.6 0-.6-.3-1.1-.8-1.6l-.5-.4c.1.9-.2 1.8-.9 2.5-.8.8-1.7 1.2-2.8 1.1-1.2-.1-2.3-.7-3.4-1.8zm1.5-1.4c.7.7 1.4 1 2 1.1.7.1 1.2-.1 1.7-.6.6-.6.8-1.3.5-2.2l-3.1-2.9c-.8-.2-1.5 0-2.1.7-.5.5-.6 1.1-.5 1.8.3.6.7 1.3 1.5 2.1zM632.8 602.2c-.2-.2-.4-.5-.4-.8 0-.3.1-.6.3-.9.3-.3.5-.4.8-.5.3 0 .6.1.8.3.2.2.4.5.4.8 0 .3-.1.6-.3.9-.3.3-.5.4-.8.5-.3 0-.5-.1-.8-.3zm10.6 6.1L642 610l-7.2-6.2 1.4-1.6 7.2 6.1zM634.9 613.7c-.3-.2-.6-.3-1-.2-.3.1-.8.4-1.4.9-.6.5-1.1.8-1.6 1.1-1.1.5-2 .5-2.8-.1-.6-.5-1-1.2-1-2.1 0-.9.3-1.7 1-2.6.7-.9 1.5-1.4 2.4-1.7.9-.2 1.7 0 2.4.5l-1.3 1.7c-.3-.3-.7-.3-1.1-.3-.4.1-.8.3-1.1.7-.3.4-.4.7-.5 1.1 0 .4.1.7.4.9.3.2.5.3.9.1.3-.1.8-.4 1.5-1s1.2-.9 1.7-1.1c.5-.2 1-.3 1.4-.3.4 0 .8.2 1.2.5.7.5 1 1.2 1 2.1 0 .9-.4 1.8-1.1 2.7-.5.6-1 1.1-1.6 1.4-.6.3-1.2.4-1.8.4-.6 0-1.1-.2-1.6-.6l1.3-1.6c.4.3.8.4 1.3.3.4-.1.8-.4 1.2-.8.3-.4.5-.8.5-1.2.1-.3 0-.5-.3-.8zM629.3 625.9c-.8 1.1-1.8 1.7-3 1.9-1.2.2-2.3-.2-3.5-1l-.2-.2c-.8-.6-1.3-1.2-1.7-2-.4-.7-.5-1.5-.5-2.3.1-.8.3-1.5.8-2.1.8-1 1.7-1.6 2.8-1.7 1.1-.1 2.2.4 3.4 1.3l.7.5-3.7 5c.7.4 1.3.6 2 .5.6-.1 1.2-.4 1.6-1 .6-.8.8-1.7.5-2.6l1.6-.3c.2.6.3 1.3.1 2-.2.7-.5 1.4-.9 2zm-6.7-4.7c-.4.5-.5 1-.4 1.5.1.5.4 1.1 1 1.6l2.4-3.3-.1-.1c-.6-.4-1.1-.6-1.6-.5-.5.1-.9.3-1.3.8zM666 583.9c-1.1.8-2.3 1.1-3.4.8-1.2-.2-2.2-.9-3-2.1l-.2-.2c-.5-.8-.9-1.6-1-2.4-.1-.8 0-1.6.3-2.3.3-.7.8-1.3 1.5-1.8 1.1-.7 2.1-1 3.2-.7 1.1.3 2 1 2.9 2.3l.5.7-5.1 3.6c.5.6 1.1 1 1.7 1.1.6.1 1.2 0 1.8-.4.8-.6 1.2-1.3 1.3-2.3l1.6.2c0 .7-.1 1.3-.5 2-.5.5-1 1.1-1.6 1.5zm-4.9-6.5c-.5.3-.7.8-.8 1.3-.1.5.1 1.1.4 1.8l3.3-2.3-.1-.1c-.4-.6-.9-.9-1.4-1-.4-.2-.9 0-1.4.3z" transform="rotate(-4 -543.525 -300.76)" class="st1"/></g></g></svg>