<svg xmlns="http://www.w3.org/2000/svg" width="227.923" height="569.081"><path fill="#fff" d="m25.594 268.372.774 5.753 13.287-7.08 15.254-25.595-8.225-4.438Z" data-name="パス 765"/><path fill="#fff" d="m83.134 91.832-2.725-5.7-5.527-3.7-3.482-6.185-2.984 4.786s-4.145 5.527-4.217 4.637-2.515-11.17-2.515-11.17l-7.483-13 3.5-6.3-1.63-4.465 1.829-5.2-3-11.512 9.9-19.9 11.337-5.858h6.466l-4.421-3.482 7.423-.829 7.5 2.946 6.809-2.946 7.627-3.1 12.761 1.365 7.8 6.837 2.7 10.086-1.3 8.207 7.8 5.527 1.7 1.735-.553 4.974-.967 8.2 5 6.378-1.111 7.377-7.185 9.948-12.712 1.63-1.103 18.759-16.4 20.295-21.4 2.1s-4.283-16.581-4.421-16.9 4.984-5.54 4.984-5.54Z" data-name="パス 766"/><path d="M25.743 270.731a3.8 3.8 0 0 1-.553-1.028c-.674-4.421-2.653-8.423-4.311-12.513a63.976 63.976 0 0 0-2.763-5.87 6.34 6.34 0 0 0-1.619-1.713c-2.7-2.266-5.024-4.869-5.914-8.334a41.3 41.3 0 0 1-.752-6.632c-.088-1.056.05-2.144-.1-3.189-.553-3.869.89-7.091 3.023-10.1.464-.658.641-.962.149-1.746-1.6-2.576-.995-4.6 1.658-6.3a2.128 2.128 0 0 0 .746-.89c2-4.355 4.245-8.622 5.87-13.115 1.216-3.371 3.316-6.483 3.515-10.18a11.485 11.485 0 0 0-.47-3.747c-.73-2.526-.171-4.913.459-7.323.182-.707.254-1.442.475-2.133a28.681 28.681 0 0 1 1.039-2.736c1.105-2.559 2.448-5.052 3.393-7.677a26.064 26.064 0 0 0 .746-4.825c.105-.636.343-1.244.5-1.874.354-1.448.7-2.9 1.039-4.355.033-.144-.033-.365.05-.437 1.735-1.448.608-3.172.52-4.814-.094-1.879-.077-3.769-.083-5.648 0-3.222-.232-6.466.033-9.666a18.41 18.41 0 0 1 4.421-10.927c3.012-3.421 5.9-6.975 9.147-10.164a85.635 85.635 0 0 1 8.118-6.481 1.907 1.907 0 0 1 1.4-.431c1.564.442 2.763-.47 4.024-.973 4.477-1.752 7.931-5.013 11.684-7.865a121.825 121.825 0 0 1 10.263-6.726c1.459-.89 2.9.1 3.073 1.885a11.056 11.056 0 0 1-.088 1.343 54.26 54.26 0 0 0-.188 7.329c.127 1.3 1.227 2.5 1.885 3.753a4.211 4.211 0 0 1 .464.917 2.659 2.659 0 0 0 2.592 2.067c5.483.785 10.5-.475 15.425-2.929 4.731-2.338 7.572-6.03 9.523-10.661a51.5 51.5 0 0 0 2.962-7.528 23.885 23.885 0 0 0 .337-6.853c-.111-2.576.929-4.764 1.89-6.986.58-1.332 2.465-1.592 3.869-.553 4.272 3.09 8.241 6.538 10.871 11.17 1.166 2.05 2.907 2.288 4.759 2.338 3.316.1 6.632-.16 9.948 0a39.2 39.2 0 0 1 6.726 1.034c2.017.448 3.968 1.166 5.947 1.774.381.116.779.431 1.105.37 2.465-.431 4.421 1.006 6.461 1.874a17.464 17.464 0 0 1 5.333 3.316c1.133 1.105 1.658 2.885 2.266 4.421.691 1.791 1.15 3.664 1.719 5.5.774 2.493 1.548 4.974 2.354 7.472s1.807 4.974 2.526 7.539a114.671 114.671 0 0 0 5.168 14.2c1.525 3.526 3.172 7.008 4.477 10.617 1.614 4.455 2.819 9.064 4.421 13.53 1.061 2.973 2.57 5.787 3.753 8.721 1.221 3.034 2.283 6.129 3.438 9.186 1.105 2.879 2.122 5.776 3.316 8.6a12.966 12.966 0 0 1 .2 9.816 6.527 6.527 0 0 0 .591 5.9 9.572 9.572 0 0 1 1.072 7.008c-.868 4.217-2.133 8.362-3.377 12.491-.724 2.393-1.8 4.681-2.614 7.052a49.289 49.289 0 0 0-2.415 7.82 7.281 7.281 0 0 1-5.77 6.317c-2.338.6-3.919 2.167-5.7 3.443-2.382 1.708-4.421 3.869-6.737 5.7s-2.614 4.377-2.144 6.848c.741 3.924 2.117 7.738 2.946 11.64.851 4.012 1.238 8.119 2.062 12.131.79 3.825 2.034 7.55 2.813 11.369.912 4.421 2.808 8.517 4.294 12.75a27.579 27.579 0 0 1 1.575 10.059c-.133 4.178.216 8.368.127 12.546a70.743 70.743 0 0 0 2.023 17.752 124.126 124.126 0 0 0 4.14 14.845c2.482 6.665 3.979 13.568 5.936 20.361a61.984 61.984 0 0 0 4.073 10.667 96.2 96.2 0 0 1 7.041 18.111c1.105 4.162 2.526 8.246 3.67 12.4 1.011 3.648 1.846 7.345 2.763 11.021 1.105 4.5 2.062 9.053 3.366 13.5.79 2.7-.707 3.869-3.123 3.653-4.775-.381-9.556-.824-14.37-.967a18.539 18.539 0 0 0-5.228 1.105c-.343.088-.68.658-.785 1.067-1.011 4.14-1.968 8.29-2.946 12.435-1.21 5.134-2.211 10.3-4.057 15.293-1.658 4.538-2.7 9.3-4 13.977-.553 1.962-1.045 3.935-1.575 5.9-.674 2.515-2.763 3.4-4.886 4.289a16.536 16.536 0 0 1-7.1 1.105c-2.211-.066-4.488.553-7.185.929 1.658 1.686 2.924 3.41 4.913 4.283 2.26.995 4.543 1.934 6.859 2.763 2.448.9 2.719 1.531 2.117 4.084-.348 1.47-.984 2.924.232 4.582 1.028 1.387.453 3.316-.282 4.842s-.448 2.476.227 3.957c1.691 3.7 5.14 4.8 8.29 6.251 4.421 2.045 9.025 3.8 12.911 6.87 2.078 1.658 4.361 3.134 6.008 5.14a7.826 7.826 0 0 1 1.559 5.129 10.316 10.316 0 0 1-3.471 6.87c-2.4 2.294-5.206 2.763-7.953 3.1-5.09.674-10.263.757-15.409.962a23.9 23.9 0 0 1-3.869-.553c-3.758-.586-7.566-.951-11.258-1.8-3.537-.818-6.958-2.139-10.435-3.228-.984-.3-1.973-.553-3.112-.917a4.559 4.559 0 0 0-.42.752 2.108 2.108 0 0 1-2.763 1.542c-1.454-.337-2.891-.752-4.339-1.105a445.678 445.678 0 0 0-7.594-1.719c-2.211-.481-2.968-1.221-3.366-3.41a52.123 52.123 0 0 1-.415-14.69c.155-1.509-.238-3.068-.149-4.587a47.383 47.383 0 0 1 2.791-13.861 34.13 34.13 0 0 0 1.835-11.789 11.557 11.557 0 0 1 .332-2.034c-.741-.713-1.5-1.409-2.211-2.139-2.211-2.211-4.421-4.482-6.66-6.721-2.415-2.426-4.913-4.781-7.224-7.306a16.783 16.783 0 0 1-3.465-4.908c-.636-1.619-.376-3.6-.437-5.427-.072-2.211-.072-4.422-.094-6.632-.033-3.161-.116-6.323-.077-9.484.072-5.776.3-11.551.3-17.332 0-3.6-.2-7.185-.525-10.8a52.933 52.933 0 0 0-1.227-6.444l-3.316-15.05a44.768 44.768 0 0 0-1.592-5.925c-.348 1.343-.6 2.73-1.072 4.029-1.166 3.167-1.061 6.417-.857 9.689.3 4.748.426 9.517.917 14.243.591 5.726 1.57 11.407 2.211 17.133.321 2.841.249 5.726.415 8.589.133 2.211.376 4.421.553 6.632.409 5.173.857 10.346 1.177 15.525a60.486 60.486 0 0 1-.088 6.328 2.636 2.636 0 0 1-.553 1.465c-1.437 1.818-3.034 3.521-4.421 5.394-1.7 2.31-3.272 4.72-4.775 7.157a4.445 4.445 0 0 0-.276 2.15c0 2.144-.343 2.437-2.808 2.128.1 2.084.122 4.134.326 6.168a51.993 51.993 0 0 0 1 6.986 25.445 25.445 0 0 0 1.918 4.217 8.014 8.014 0 0 1 .8 2.211 20.334 20.334 0 0 1 .127 7.185c-.5 2.266.227 4.77.149 7.185s-.055 4.853-.9 6.964c-.52 1.31-2.448 2.211-3.924 2.957a157.698 157.698 0 0 1-10.634 4.77 6.5 6.5 0 0 1-2.984.21 7.69 7.69 0 0 0-4.737 1.465c-3.316 2-6.389 4.421-9.81 6.184-2.824 1.465-6.013 2.211-9.02 3.316-5.284 1.957-10.772 1.443-16.194 1.177-1.8-.083-3.57-.989-5.322-1.614-1.216-.431-2.371-1.045-3.565-1.536-3.211-1.326-3.985-3.228-4.554-6.527s1.067-6.079 1.614-9.092c.21-1.15 1.5-2.354 2.609-3.034a68.3 68.3 0 0 1 6.422-3.134c2.763-1.315 4.781-3.51 6.875-5.621a37.133 37.133 0 0 1 9.987-7.688c-2.128-1.7-2.117-1.691-1.105-4.322.287-.752.464-1.542.812-2.714-1.221.945-2.144 1.581-2.973 2.327a2 2 0 0 1-2.929-.1c-.553-.448-.967-1.017-1.492-1.481-2.763-2.47-2.537-4.913.553-6.936 3.438-2.255 7.058-4.234 10.6-6.345.978-.553 1.945-1.194 3.316-2.028-1.6-.4-2.863-.708-4.112-1.028s-2.564-.337-3.073-1.923c-.127-.392-1.105-.426-1.492-.829-1.337-1.382-2.581-2.852-3.869-4.294-.481-.553-.94-1.105-1.409-1.658-2.41-2.846-4.681-5.82-7.262-8.5a51.562 51.562 0 0 1-6.384-8.351c-1.227-1.945-2.6-3.814-3.8-5.781a3.465 3.465 0 0 1-.486-2.117c1.2-8.036 1.166-16.144 1.586-24.23a2.708 2.708 0 0 0-1.465-2.841 78.839 78.839 0 0 1-8.854-7.533c-2.144-2.039-3.808-4.582-5.969-6.594a15.049 15.049 0 0 0-7.638-3.653 27.991 27.991 0 0 0-6.157-.923c-4.272.188-8.533.746-12.795 1.21-1.6.177-3.581-.028-3.371-2.288a61.07 61.07 0 0 1 1.017-8.334c1.542-6.455 3.449-12.828 5.035-19.278.84-3.41 1.105-6.958 1.99-10.357 1.288-5.074 3.007-10.031 4.289-15.1 1.382-5.488 2.537-11.054 3.659-16.581.674-3.371 1.105-6.792 1.619-10.2.73-4.924 1.4-9.865 2.117-14.79.868-5.925 1.8-11.838 2.631-17.763.658-4.687 1.31-9.4 1.78-14.077.392-3.9.448-7.826.768-11.728.4-4.924.94-9.832 1.387-14.751a3.238 3.238 0 0 1 1.531-2.957 20.306 20.306 0 0 0 4.6-4.858c3.764-5.024 7.384-10.153 11.054-15.232 1.94-2.675 3.9-5.333 5.842-8a3.785 3.785 0 0 0 .392-.636 1.665 1.665 0 0 0-.846-2.448 2.26 2.26 0 0 0-1.89.879c-2.244 3.161-4.344 6.422-6.527 9.633-1.879 2.763-3.742 5.56-5.72 8.257-2.631 3.576-5.361 7.08-8.064 10.6a7.188 7.188 0 0 1-.94.818Zm105.905-125.46a9.733 9.733 0 0 1 2.017-1.15c2.907-.746 5.831-1.454 8.771-2.067 1.63-.337 3.344-.337 4.974-.746a2.211 2.211 0 0 0 1.244-1.658 10.606 10.606 0 0 0-.591-3.366 779.447 779.447 0 0 0-3.869-12.413c-.818-2.6-1.708-5.179-2.5-7.787a1011.876 1011.876 0 0 1-4.482-15.077c-.42-1.47-.553-3.018-.928-4.515a7.135 7.135 0 0 0-.724-1.454c-.47.486-1.3.951-1.338 1.465a14.75 14.75 0 0 0 .332 4.151c.591 2.542 1.393 5.035 2.078 7.555q1.956 7.163 3.869 14.326c.768 2.846 1.5 5.709 2.338 8.539.619 2.084 1.382 4.129 2.095 6.19.254.746.216 1.2-.752 1.343-1.52.227-3.007.674-4.527.906a26.259 26.259 0 0 0-9.291 2.951 2.41 2.41 0 0 0-1.365 3.067 21.692 21.692 0 0 0 2.117 4.753c1.542 2.5 3.316 4.847 4.974 7.29.586.879.746 1.835-.348 2.526a12.159 12.159 0 0 0-4.974 6.632c-1.658 5.018-3.36 10.07-4.626 15.21-2.211 8.926-4.156 17.918-6.08 26.91-1.045 4.891-1.8 9.843-2.692 14.773l-3.316 18.432a1.465 1.465 0 0 0 1.2 1.879c1.105.293 1.5-.459 1.708-1.216.492-1.824.884-3.675 1.244-5.527.912-4.725 1.785-9.462 2.664-14.193.823-4.422 1.6-8.81 2.454-13.2 1.227-6.3 2.382-12.607 3.8-18.863 1.2-5.311 2.675-10.567 4.145-15.812a80.9 80.9 0 0 1 2.669-7.9c.989-2.515 2.951-4.333 4.974-6.08a2.609 2.609 0 0 0 .724-3.117 19.9 19.9 0 0 0-1.8-3.25 730.15 730.15 0 0 1-6.188-9.507Zm-65.394 3.869c-1.431 3.189-2.83 6.03-3.985 8.97-1.658 4.167-3.073 8.417-4.632 12.612a4.487 4.487 0 0 0 .553 3.869c.735 1.415 1.514 2.819 2.106 4.294 1.548 3.869 3.134 7.765 4.46 11.728 2.415 7.229 4.7 14.5 6.947 21.781 1.454 4.714 2.653 9.512 4.14 14.215 1.105 3.587 2.493 7.1 3.869 10.612a36.753 36.753 0 0 0 2.459 5.079c.243.415 1.105.453 1.724.663a4.853 4.853 0 0 0 .287-1.658 16.339 16.339 0 0 0-.9-2.642c-.9-2.354-1.962-4.665-2.7-7.069-1.553-5.04-2.935-10.131-4.421-15.193-.962-3.316-1.9-6.665-2.935-9.948-1.5-4.781-2.984-9.561-4.637-14.287-1.3-3.7-2.907-7.29-4.278-10.971-1.028-2.763-1.719-5.648-3.41-8.152a3.1 3.1 0 0 1-.033-2.244 169.683 169.683 0 0 1 9.224-23.113 2.084 2.084 0 0 0-.039-1.735 1.719 1.719 0 0 0-1.553-.4c-2.846.884-5.709 1.758-8.456 2.9a26.154 26.154 0 0 0-4.1 2.642c1.315-6.035 2.57-12.159 4-18.288.978-4.145 2.161-8.246 3.316-12.347 1.293-4.521 2.708-9.009 4.007-13.53a4.09 4.09 0 0 0-.221-1.564l-.5-.033a9.11 9.11 0 0 0-1.105 1.658c-1.3 3.36-2.669 6.7-3.769 10.136-1.509 4.7-2.852 9.467-4.156 14.232-.807 2.957-1.376 5.975-2.117 8.942-1.105 4.421-2.327 8.843-3.316 13.264a2.676 2.676 0 0 0 .735 2.354 3.724 3.724 0 0 0 2.542-.332 4.9 4.9 0 0 0 1.752-1.36c2.332-2.7 5.461-4 9.136-5.107Zm44.734-37.03h-.044a9.44 9.44 0 0 0-.039-2.095 4.521 4.521 0 0 0-.9-1.315c-.276.414-.73.807-.8 1.255-.149 1.105-.072 2.211-.171 3.288-.348 3.747-.929 7.489-1.056 11.242-.2 5.632-.066 11.275-.116 16.907-.055 6.765-.16 13.53-.221 20.289-.05 5.7-.166 11.413-.072 17.133.127 7.948.4 15.89.663 23.832.122 3.664.392 7.318.553 10.982.249 5.842.4 11.689.707 17.531a12.011 12.011 0 0 0 .956 3.736c.16.4 1.006.674 1.548.691.232 0 .713-.812.691-1.233-.21-4.195-.553-8.39-.763-12.585-.276-6.08-.426-12.115-.669-18.167-.271-6.909-.707-13.817-.846-20.72-.122-6.046.116-12.1.111-18.15 0-5.748-.127-11.5-.171-17.238-.028-4.245 0-8.484 0-12.712 0-4.477-.105-8.954 0-13.425.05-3.15.4-6.218.63-9.291Zm69.119 148.12a48.169 48.169 0 0 0-3.078-4.294c-1.658-1.829-3.487-3.493-5.262-5.206-2.907-2.813-5.709-5.742-8.766-8.384-3.692-3.194-7.362-6.378-10.125-10.451-.437-.641-.779-1.514-1.658-.824a1.821 1.821 0 0 0-.1 1.752 55.163 55.163 0 0 0 4.825 6.577c2.045 2.266 4.5 4.151 6.632 6.328a230.332 230.332 0 0 1 7.9 8.428c2.006 2.244 3.814 4.659 5.836 6.881a3.156 3.156 0 0 0 2.211.807c.492.005.916-.857 1.586-1.614ZM75.545 513.214a9.847 9.847 0 0 1-.354-.354c-3.913 2.8-8.533 4.543-12 8.019 1.476 1.979 2.255 2.073 3.946.514 2.288-2.1 4.576-4.206 6.831-6.339a21.975 21.975 0 0 0 1.581-1.84Zm-4.035 14.215c.105.138.216.271.326.4.525-.2 1.255-.249 1.525-.63a9.34 9.34 0 0 0 1.21-2.592 18.428 18.428 0 0 0 .553-2.763c.144-.873.249-1.752.365-2.625l-.475-.127Zm15.624.486c.824-.962 1.293-2.05.453-3.167-.232-.315-1.349-.448-1.525-.227a3.963 3.963 0 0 0-1.011 2.211c.017 1.282 1.078 1.343 2.084 1.172Zm84.041-7.323c-.249-.741-.2-1.868-1.5-1.863a1.6 1.6 0 0 0-1.658 1.763c.028.752.066 1.9 1.4 1.879 1.129.003 1.649-.616 1.76-1.783Zm-82.173-3.493c-.343-.293-.917-1.177-1.5-1.177a1.509 1.509 0 0 0-1.5 1.918c.16.63.763 1.542 1.26 1.608 1.133.166 1.676-.728 1.741-2.352Zm-3.731 14.574a4.348 4.348 0 0 0-1.326-1.011c-.724-.243-1.879 1.105-1.658 2.067.111.553.829 1.437 1.249 1.42 1.046-.047 1.742-.81 1.737-2.479Zm94.144 6.334c.282 1.349.879 2.067 1.8 1.9.553-.1 1.443-1.006 1.393-1.476a2.249 2.249 0 0 0-1.4-1.63c-.52-.087-1.189.76-1.791 1.203Zm10.125 5.472c-.37-1.3-.685-2.272-1.791-2.095-.525.083-1.376 1.105-1.277 1.454a2.93 2.93 0 0 0 1.536 1.658c.3.11 1.028-.658 1.531-1.017Zm-114.547-1.265c-.812-.768-1.31-1.63-1.807-1.63a1.658 1.658 0 0 0-1.57 1.769c.033.486.873 1.349 1.232 1.288.68-.1 1.232-.763 2.144-1.426Zm104.419-25.285-.4.26 3.708 5.958c1.194-3.46-2.222-4.134-3.305-6.218Zm-98.854 19.685c-.293-.249-.724-.89-1.249-.978-1.056-.177-1.47.7-1.575 1.581s.464 1.255 1.271 1.277c1 .028 1.431-.553 1.553-1.879Zm87.706-25.5h-.73c-.321.586-.89 1.183-.873 1.763 0 .47.73.917 1.133 1.376.5-.448 1.354-.851 1.415-1.354s-.619-1.183-.945-1.785Zm9.55 22.047a19.968 19.968 0 0 0-1.42-2.211 1.962 1.962 0 0 0-1.244.669 1.884 1.884 0 0 0 .105 1.57c.583.957 1.426.825 2.559-.027Zm-7.273-5.67 1.658 1.5c.376-.431.934-.807 1.105-1.3.293-.978-.553-1.365-1.271-1.376-.431-.006-.84.625-1.492 1.177Zm12.773-13.519-2.62-1.039-.127.2 2.316 2.139c.165-.498.287-.858.43-1.299Z" data-name="パス 767"/><path d="M139.562 35.282a12.756 12.756 0 0 1-2.73-.7c-2.493-1.249-4.93-2.62-7.367-3.985a3.311 3.311 0 0 1-1.735-3.7 89.5 89.5 0 0 0 .978-9.3c.188-6.168-3.073-10.379-8.351-13-6.179-3.073-12.529-2.763-18.835-.238-.663.265-1.161.923-1.818 1.249a5.488 5.488 0 0 1-1.57.276c0-.553-.166-1.349.111-1.57a13.047 13.047 0 0 1 3.559-2.3c4.272-1.5 8.6-2.592 13.264-1.658 5.405 1.105 10.258 3 13.629 7.638a16.31 16.31 0 0 1 3.078 11.733c-.243 2.211-.431 4.421-.674 6.632a1.823 1.823 0 0 0 1.26 2.067c2.133 1.034 4.2 2.211 6.245 3.421 1.205.732 1.371 1.401.956 3.435Z" data-name="パス 768"/><path d="M54.875 34.514a30.641 30.641 0 0 1 2.819-10.552c1.525-3.454 3.09-6.892 5.66-9.749 3.836-4.267 8.39-7.113 14.281-7.29a25.12 25.12 0 0 1 4.687.3c.5.077.9.807 1.337 1.238a4.6 4.6 0 0 1-1.658.613 19.443 19.443 0 0 0-9.539 1.625 21.555 21.555 0 0 0-9.683 9.18 98.291 98.291 0 0 0-4.5 9.545 20.637 20.637 0 0 0-1.177 4.753c-.133.812 0 1.874-1.011 1.774-.536-.045-.984-1.139-1.216-1.437Z" data-name="パス 769"/><path d="M59.379 71.516c-.26-2.47 1.271-4.239 2.7-5.759 3.172-3.382 2.841-6.826 1.15-10.678a7.185 7.185 0 0 1-.475-4.316c1.194-4.626 2.846-9.1 6.024-12.811a9.136 9.136 0 0 1 1.84-1.741c.348-.221.978 0 1.481 0-.094.442-.039 1.028-.3 1.3a23.515 23.515 0 0 0-5.107 9.009c-.392 1.166-.8 2.332-1.21 3.493-.553 1.564-.044 2.984.409 4.493.674 2.26 1.514 4.632 1.409 6.914-.077 1.769-1.431 3.51-2.354 5.19-.553 1.034-1.658 1.824-2.05 2.891a25.959 25.959 0 0 0-.691 3.869 7.616 7.616 0 0 1-.812 1.658c-.553-.4-1.3-.685-1.581-1.221a7.112 7.112 0 0 1-.433-2.291Z" data-name="パス 770"/><path d="M96.988 28.274a11.545 11.545 0 0 1 10.07 6.693c1.249 3.067 2.382 6.185 3.7 9.219a30.948 30.948 0 0 0 2.57 4.7c2.006 3.029 5 3.012 8.13 2.426.337-.066.713-.3.995-.216.525.166 1.338.453 1.393.8a1.807 1.807 0 0 1-.713 1.531 9.064 9.064 0 0 1-11.888-2.846c-2.365-3.6-3.686-7.616-5.134-11.606-.824-2.277-1.536-4.687-3.487-6.328a9.806 9.806 0 0 0-8.229-2.1 4.448 4.448 0 0 1-1.658-.431c.409-.409.746-1.011 1.238-1.183a22.106 22.106 0 0 1 3.013-.659Z" data-name="パス 771"/><path d="M140.884 56.135a3.77 3.77 0 0 0-2.454-4.007c-3.355-1.608-4.554-3.5-2.62-7.848a10.6 10.6 0 0 0 .448-1.105c.3-.973 1.105-2.211.741-2.863a13.267 13.267 0 0 0-3.007-2.979 15.829 15.829 0 0 1-1.454-1.15 1.15 1.15 0 0 1-.111-1.105 1.249 1.249 0 0 1 1.072-.475 10.5 10.5 0 0 1 6.251 5.018c.873 1.658 0 3.272-.553 4.864a10.353 10.353 0 0 0-.764 2.67c0 .442.613 1.006 1.067 1.371.962.768 2.1 1.326 2.973 2.172 2.343 2.255 2.57 4.9 1.459 7.738-.415 1.061-.956 2.078-1.448 3.106-.448.945-1.326 1.509-2.161 1.022a2.508 2.508 0 0 1-.674-2.144 36.952 36.952 0 0 1 1.238-4.289Z" data-name="パス 772"/><path d="M118.732 64.381c-.956 5.787-2.388 11.015-6 15.475a26.651 26.651 0 0 1-7.585 6.533 3 3 0 0 1-1.625.553c-.426-.05-1.105-.641-1.105-.978a2.3 2.3 0 0 1 .807-1.592c1.3-1.006 2.907-1.658 4.035-2.819a27.216 27.216 0 0 0 4.808-5.969 101 101 0 0 0 4.029-9.816 5.891 5.891 0 0 1 .928-1.658 1.409 1.409 0 0 1 1.183-.414c.304.027.47.596.525.685Z" data-name="パス 773"/><path d="M132.549 52.807c-.652 3.869-1.658 7.124-4.974 9a3.526 3.526 0 0 1-5.145-2.056c-.155-.553.254-1.288.409-1.934.619.166 1.387.16 1.829.553 1.105.945 1.973 1 2.979-.094a7.836 7.836 0 0 0 1.525-8.456c-.586-1.658-2.316-1.863-3.5-.608-.332.348-.978.4-1.476.591-.088-.553-.365-1.139-.221-1.6a2.907 2.907 0 0 1 2.763-2.211c1.658 0 3.41.459 4.206 2.084a32.607 32.607 0 0 1 1.605 4.731Z" data-name="パス 774"/><path d="m66.796 67.669.873-1.42c.4.415.962.763 1.161 1.255 1.382 3.388 2.476 6.909 4.084 10.175a17.453 17.453 0 0 0 6.356 6.737c.039 0 .111 0 .133.061.4.663.8 1.332 1.2 2a6.156 6.156 0 0 1-2.316.1c-4.129-1.57-6.472-4.974-8.158-8.771a93.062 93.062 0 0 1-3.112-9.267 2.587 2.587 0 0 1 0-.746Z" data-name="パス 775"/><path d="M81.68 23.394c1.282.409 2.6.735 3.825 1.26a2.4 2.4 0 0 1 1.067 1.332c.309.873-.326 1.448-1.227 1.216-5.875-1.509-9.086-.243-12.441 4.886a3.261 3.261 0 0 1-.984 1.105 7.046 7.046 0 0 1-1.7.464c-.039-.652-.354-1.47-.072-1.918a28.42 28.42 0 0 1 3.465-4.759 10.938 10.938 0 0 1 8.067-3.586Z" data-name="パス 776"/><path d="M53.466 61.512a2.188 2.188 0 0 1 .553-3.283c1.785-1.437 1.691-3.25.835-4.924-1.4-2.736.238-6.776 2.084-8.611a2.045 2.045 0 0 1 1.934-.249c.785.5 0 1.039-.354 1.559-1.542 2.161-2.211 4.421-1.034 7.047 1.984 4.421.359 5.936-2.614 8.18-.365.276-.995.204-1.404.281Z" data-name="パス 777"/><path d="M84.637 2.231a12.618 12.618 0 0 1 7 2.089 17.785 17.785 0 0 1 3.626 2.951c.5.553.934 1.968.652 2.249-.829.835-1.774.149-2.6-.47-1.338-1.011-2.725-1.962-4.079-2.951-2.935-2.139-6.08-1.293-9.28-.824a5 5 0 0 1-1.791-.464c.442-.464.807-1.188 1.337-1.349 1.852-.573 3.759-.922 5.135-1.231Z" data-name="パス 778"/><path d="M90.108 23.764c.995-4.582 2.432-8.953 6.9-11.479.508-.287 1.321 0 2 0-.155.669-.083 1.608-.5 1.957-2.5 2.073-3.659 4.974-5.079 7.738a5.361 5.361 0 0 0-.376 2.012c-.083 1.028-.287 2.211-1.437 2.211-1.253-.063-1.602-1.19-1.508-2.439Z" data-name="パス 779"/><path d="M94.209 75.136c1.813-.448 3.62-.94 5.449-1.3a4.311 4.311 0 0 1 1.564.3c-.287.719-.409 1.874-.9 2.062a24.031 24.031 0 0 1-5.035 1.277c-2.913.453-5.847.763-8.777 1.105a10.4 10.4 0 0 1-2.482.1c-.348-.05-.752-.553-.89-.978-.061-.171.459-.735.79-.812 2.167-.5 4.361-.89 6.538-1.354" data-name="パス 780"/><path d="M127.824 67.045h4.085a3.316 3.316 0 0 1 3.029 2.277 3.038 3.038 0 0 1-1.221 3.316 2.459 2.459 0 0 1-1.857.437c-.271-.05-.553-1.039-.492-1.564.105-.956-.188-1.271-1.105-1.238a10.534 10.534 0 0 1-3.128-.111c-.757-.21-1.824-.923-1.912-1.536a5.694 5.694 0 0 1 .8-2.9 1.365 1.365 0 0 1 1.271-.359c.303.257.308.893.53 1.678Z" data-name="パス 781"/><path d="M104.202 40.759c.321.216.917.481.89.63-.094.553-.265 1.255-.658 1.492-1.9 1.144-3.869 2.161-5.836 3.217a12.8 12.8 0 0 1-2.128 1.071 5.881 5.881 0 0 1-1.735 0c.155-.553.122-1.42.5-1.658a61.312 61.312 0 0 1 5.571-3.421 25.7 25.7 0 0 1 3.4-1.332Z" data-name="パス 782"/><path d="M79.941 48.635c-1.266-.365-2.255-.674-3.25-.945-1.431-.387-2.9-.68-4.294-1.155-.414-.144-.663-.763-.984-1.161.459-.293.973-.9 1.36-.824 2.4.448 4.786.995 7.135 1.658a1.769 1.769 0 0 1 .956 1.31c.026.348-.616.763-.923 1.117Z" data-name="パス 783"/><path d="M90.136 71.588c-1.945-.586-3.67-1.028-5.333-1.658a1.581 1.581 0 0 1-.591-1.4 1.514 1.514 0 0 1 1.266-.774 25.855 25.855 0 0 1 4.781.989 2.507 2.507 0 0 1 1.244 1.658c.059.273-.881.787-1.367 1.185Z" data-name="パス 784"/><path d="M67.261 79.154c.376.453.934.857 1.105 1.376.553 1.818-1.437 5.632-3.233 6.262a2.31 2.31 0 0 1-1.6-.332 1.4 1.4 0 0 1 .144-1.21 8.914 8.914 0 0 0 3.161-5.936Z" data-name="パス 785"/><path d="m92.546 89.843-.868 1.105c-.492-.415-1.343-.779-1.409-1.249a43.47 43.47 0 0 1-.315-5.693c0-.348.553-.7.884-1.045.376.343 1.022.641 1.105 1.034.261 1.758.377 3.549.603 5.848Z" data-name="パス 786"/><path d="M88.862 89.959c-.066.066-.26.448-.553.553s-.928-.028-.967-.177a28.692 28.692 0 0 1-.763-3.736c0-.166.63-.6.962-.591s.586.453.812.757a1.547 1.547 0 0 1 .221.7c.103.72.174 1.449.288 2.494Z" data-name="パス 787"/><path d="M96.901 88.655c-.718.647-1.105 1.288-1.581 1.36-.934.138-1.824-1.459-1.658-3.045.05-.459.652-.857 1-1.282Z" data-name="パス 788"/><path d="M104.086 53.626a1.034 1.034 0 0 1 .094 1.63 3.7 3.7 0 0 1-1.365.906c-.326.088-1.3-.84-1.343-1.354-.061-.846.348-1.9 1.548-1.713a2.764 2.764 0 0 1 1.067.531Z" data-name="パス 789"/><path d="M96.365 85.803c.332-.453.553-1.105.984-1.238.276-.1.967.426 1.172.829a5.687 5.687 0 0 1 .553 2.117 1.172 1.172 0 0 1-.625.934 1.2 1.2 0 0 1-1.061-.387 17.006 17.006 0 0 1-1.023-2.255Z" data-name="パス 790"/><path d="M85.04 88.202c-.37.42-.741 1.2-1.105 1.2-1.293 0-1.293-1.2-1.321-2.056 0-.553.52-1.553.835-1.559 1.448-.034 1.199 1.199 1.591 2.415Z" data-name="パス 791"/><path d="M80.06 56.681c-1.564 0-1.8-.807-1.89-1.658a1.144 1.144 0 0 1 1.459-1.227 2.393 2.393 0 0 1 1.382 1.575c.083.383-.702.983-.951 1.31Z" data-name="パス 792"/><path fill="#fff" d="M131.649 145.272c2.139 3.316 4.156 6.428 6.135 9.556a19.9 19.9 0 0 1 1.8 3.25 2.609 2.609 0 0 1-.724 3.117c-2.012 1.73-3.974 3.548-4.974 6.08a80.9 80.9 0 0 0-2.669 7.9c-1.47 5.245-2.94 10.5-4.145 15.812-1.415 6.256-2.57 12.568-3.8 18.863-.851 4.394-1.63 8.8-2.454 13.2-.879 4.731-1.752 9.467-2.664 14.193-.359 1.857-.752 3.708-1.244 5.527-.2.757-.625 1.509-1.708 1.216a1.465 1.465 0 0 1-1.2-1.879l3.316-18.432c.89-4.93 1.658-9.882 2.692-14.773 1.923-8.992 3.869-17.984 6.08-26.91 1.266-5.14 2.94-10.191 4.626-15.21a12.159 12.159 0 0 1 4.974-6.632c1.105-.691.934-1.658.348-2.526-1.658-2.443-3.421-4.786-4.974-7.29a21.692 21.692 0 0 1-2.117-4.753 2.41 2.41 0 0 1 1.365-3.067 26.484 26.484 0 0 1 9.291-2.951c1.52-.232 3.007-.68 4.527-.906.967-.144 1.006-.6.752-1.343-.713-2.062-1.476-4.106-2.095-6.19-.84-2.83-1.57-5.693-2.338-8.539q-1.94-7.163-3.869-14.326c-.685-2.52-1.487-5.013-2.078-7.555a14.751 14.751 0 0 1-.332-4.151c.033-.514.868-.978 1.337-1.465a7.134 7.134 0 0 1 .724 1.454c.354 1.5.508 3.045.928 4.515 1.448 5.04 2.957 10.064 4.482 15.077.79 2.609 1.658 5.19 2.5 7.787 1.3 4.134 2.609 8.263 3.869 12.413a10.606 10.606 0 0 1 .591 3.366 2.211 2.211 0 0 1-1.244 1.658c-1.608.409-3.316.409-4.974.746a198.98 198.98 0 0 0-8.771 2.067 8.252 8.252 0 0 0-1.963 1.101Z" data-name="パス 793"/><path fill="#fff" d="M66.255 149.118c-3.675 1.105-6.8 2.382-9.169 5.074a4.9 4.9 0 0 1-1.752 1.36c-.807.309-1.934.674-2.542.332a2.518 2.518 0 0 1-.735-2.354c1.017-4.421 2.211-8.843 3.316-13.264.741-2.968 1.31-5.986 2.117-8.942 1.3-4.764 2.647-9.528 4.156-14.232 1.105-3.432 2.47-6.776 3.769-10.136a9.111 9.111 0 0 1 1.105-1.658l.5.033c.083.553.354 1.105.221 1.564-1.3 4.521-2.714 9.009-4.007 13.53-1.172 4.1-2.354 8.2-3.316 12.347-1.431 6.107-2.686 12.253-4 18.288a26.147 26.147 0 0 1 4.1-2.642c2.763-1.144 5.61-2.017 8.456-2.9a1.719 1.719 0 0 1 1.553.4 2.084 2.084 0 0 1 .039 1.735 169.687 169.687 0 0 0-9.224 23.113 3.091 3.091 0 0 0 .033 2.244c1.691 2.5 2.382 5.389 3.41 8.152 1.371 3.681 2.973 7.273 4.278 10.971 1.658 4.725 3.139 9.506 4.637 14.287 1.034 3.316 1.973 6.632 2.935 9.948 1.465 5.063 2.846 10.153 4.421 15.193.741 2.4 1.8 4.714 2.7 7.069a16.339 16.339 0 0 1 .9 2.642 4.9 4.9 0 0 1-.287 1.658c-.591-.21-1.481-.249-1.724-.663a36.751 36.751 0 0 1-2.459-5.079c-1.365-3.51-2.725-7.025-3.869-10.612-1.487-4.7-2.686-9.5-4.14-14.215-2.249-7.284-4.532-14.552-6.947-21.781-1.326-3.963-2.913-7.837-4.46-11.728-.591-1.476-1.371-2.879-2.106-4.294a4.618 4.618 0 0 1-.553-3.869c1.559-4.195 3-8.445 4.632-12.612 1.182-2.929 2.58-5.77 4.012-8.959Z" data-name="パス 794"/><path fill="#fff" d="M110.989 112.066c-.227 3.073-.58 6.14-.652 9.213-.105 4.471 0 8.948 0 13.425v12.712c.044 5.742.171 11.49.171 17.238 0 6.079-.232 12.1-.111 18.15.138 6.909.553 13.817.846 20.72.243 6.052.392 12.115.669 18.167.193 4.195.553 8.39.763 12.585 0 .42-.459 1.238-.691 1.232-.553 0-1.387-.293-1.548-.691a12.009 12.009 0 0 1-.956-3.736c-.3-5.842-.459-11.689-.707-17.531-.149-3.664-.42-7.318-.553-10.982-.26-7.942-.553-15.884-.663-23.832-.094-5.7 0-11.407.072-17.133.061-6.759.166-13.524.221-20.289.05-5.632-.083-11.275.116-16.907.127-3.753.707-7.494 1.056-11.242.1-1.105 0-2.211.171-3.288.066-.448.52-.84.8-1.255a4.521 4.521 0 0 1 .9 1.315 9.439 9.439 0 0 1 .039 2.095Z" data-name="パス 795"/><path fill="#fff" d="M180.108 260.227c-.674.757-1.105 1.619-1.542 1.658a3.156 3.156 0 0 1-2.211-.807c-2.023-2.211-3.83-4.637-5.836-6.881a225.28 225.28 0 0 0-7.9-8.428c-2.15-2.178-4.609-4.062-6.632-6.328a55.163 55.163 0 0 1-4.8-6.6 1.821 1.821 0 0 1 .1-1.752c.857-.691 1.2.182 1.658.823 2.763 4.073 6.433 7.257 10.125 10.451 3.056 2.642 5.858 5.571 8.766 8.384 1.774 1.713 3.615 3.377 5.262 5.206 1.064 1.231 1.92 2.735 3.01 4.274Z" data-name="パス 796"/><path fill="#fff" d="M75.545 513.211a21.976 21.976 0 0 1-1.581 1.84 620.735 620.735 0 0 1-6.831 6.339c-1.691 1.559-2.471 1.465-3.946-.514 3.471-3.476 8.091-5.217 12-8.019.12.12.236.238.358.354Z" data-name="パス 797"/><path fill="#fff" d="m71.511 527.425 3.493-8.29.475.127c-.116.873-.221 1.752-.365 2.625a18.438 18.438 0 0 1-.553 2.764 9.338 9.338 0 0 1-1.21 2.592c-.271.381-1 .431-1.525.63a3.738 3.738 0 0 0-.315-.448Z" data-name="パス 798"/><path fill="#fff" d="M87.135 527.901c-1.006.16-2.067.1-2.084-1.161a3.962 3.962 0 0 1 1.011-2.211c.177-.221 1.293-.088 1.525.227.863 1.105.371 2.194-.452 3.145Z" data-name="パス 799"/><path fill="#fff" d="M171.177 520.589c-.111 1.166-.63 1.763-1.741 1.78-1.332 0-1.371-1.105-1.4-1.879a1.6 1.6 0 0 1 1.658-1.763c1.284-.006 1.234 1.121 1.483 1.862Z" data-name="パス 800"/><path fill="#fff" d="M89.003 517.099c-.066 1.625-.608 2.5-1.741 2.349-.5-.066-1.105-.978-1.26-1.608a1.509 1.509 0 0 1 1.5-1.918c.584-.004 1.159.877 1.501 1.177Z" data-name="パス 801"/><path fill="#fff" d="M85.274 531.67c0 1.658-.691 2.432-1.758 2.476-.42 0-1.139-.862-1.249-1.42-.2-.984.956-2.31 1.658-2.067a4.349 4.349 0 0 1 1.349 1.011Z" data-name="パス 802"/><path fill="#fff" d="M179.417 538.008c.6-.442 1.271-1.293 1.791-1.21a2.249 2.249 0 0 1 1.4 1.63c.05.47-.818 1.371-1.393 1.476-.919.156-1.516-.552-1.798-1.896Z" data-name="パス 803"/><path fill="#fff" d="M189.542 543.476c-.553.359-1.227 1.105-1.531.995a2.93 2.93 0 0 1-1.536-1.658c-.1-.37.752-1.371 1.277-1.454 1.105-.155 1.42.818 1.79 2.117Z" data-name="パス 804"/><path fill="#fff" d="M74.993 542.216c-.928.663-1.492 1.326-2.144 1.426-.359.061-1.2-.8-1.232-1.288a1.658 1.658 0 0 1 1.57-1.769c.492.028.992.862 1.806 1.631Z" data-name="パス 805"/><path fill="#fff" d="M179.411 516.93c1.105 2.084 4.5 2.763 3.316 6.218l-3.708-5.958Z" data-name="パス 806"/><path fill="#fff" d="M80.558 536.611c-.122 1.326-.553 1.907-1.553 1.879-.807 0-1.382-.414-1.271-1.277s.52-1.758 1.575-1.581c.526.089.956.729 1.249.979Z" data-name="パス 807"/><path fill="#fff" d="M168.264 511.116c.348.6 1.011 1.238.945 1.785s-.912.906-1.415 1.354c-.4-.459-1.105-.906-1.133-1.376 0-.58.553-1.177.873-1.763Z" data-name="パス 808"/><path fill="#fff" d="M177.814 533.163c-1.133.851-1.979.984-2.559.05a1.884 1.884 0 0 1-.105-1.57 1.962 1.962 0 0 1 1.244-.669 19.972 19.972 0 0 1 1.42 2.189Z" data-name="パス 809"/><path fill="#fff" d="M170.541 527.492c.652-.553 1.061-1.183 1.459-1.177.718 0 1.564.4 1.271 1.376-.149.5-.707.873-1.105 1.3Z" data-name="パス 810"/><path fill="#fff" d="M183.313 513.973c-.144.442-.265.8-.431 1.3l-2.316-2.139.127-.2Z" data-name="パス 811"/></svg>