<svg version="1.1" id="レイヤー_1" xmlns="http://www.w3.org/2000/svg" x="0" y="0" viewBox="0 0 587.5 583.3" style="enable-background:new 0 0 587.5 583.3" xml:space="preserve"><style>.st1{fill:#fff}.st2{enable-background:new}</style><path d="m287.5 0 86.2 183.6L575 208.9 427.1 347.7 465.2 547l-177.7-97.9L109.8 547l38.1-199.3L0 208.9l201.2-25.3L287.5 0z" style="fill:none" transform="translate(3.529)"/><path d="M287.5 23.5 208 192.9 22.4 216.2l136.4 128L123.6 528l163.9-90.2L451.4 528l-35.2-183.8 136.4-128L367 192.9 287.5 23.5m0-23.5 86.2 183.6L575 208.9 427.1 347.7 465.2 547l-177.7-97.9L109.8 547l38.1-199.3L0 208.9l201.2-25.3L287.5 0z" transform="translate(3.529)"/><path class="st1" d="M73.2 79v-6.7l-3.8-6.8-5-1.5-3.8-5.6v-3.8l-5-9.7 2.7-23.7 6.8-8.8 4.5-5 15-5.4h17.5l16.6 6.7 6.9 16.4-1 19.9 3.5 1v6.5l-3 7-5 .7-4.7 12.6c-1.3 3.4-1.8 7.1-1.5 10.7v.2l5.3 6.5-3.5 8.5-25.6 9.6-18.3-9.6L73.2 79zM178.3 291.5l.4 5-5 19.7 9.8 6.3 2.4 10.3 8.6 1.4 10.6-2.9 5.9-16-1.3-4.4-10.8-25.7-20.6 6.3zM93.9 511.7c.1 1.6-2.2 25.1-2.2 25.1l.6 4.6-19.2 10.5-34.5 7-16-4.4-4.2-4.2 2.1-8.3 4-3.8 16.1-5.2L58 517.9l7.5-1.2 1.9-5h26.5zM99.7 509.9l-2.3 18.5.4 11.2 27.4 16.5 21.9 2.3 12.9-5.9.5-6.3-8.3-10.9-16.5-19.6-6.7-9.9-29.3 4.1z" transform="translate(186.919 20.154)"/><path d="M156.4 240.4c-.1 1.7-.2 3.5-.1 5.2 0 3.2.1 6.3.1 9.5 0 3.7-.2 7.5-.3 11.2.1 1.3-.5 2.5-1.5 3.3-.4.4-.6 1-.6 1.5l.3 18c.1 4.4.2 8.9.1 13.4 0 3.7-.2 7.5-.3 11.2-.1 3-.1 6-.2 9-.1 4.3-.3 8.5-.4 12.8-.1 4.1 0 8.3-.1 12.4-.3 7-.7 14-1.1 21-.1 1-.4 2-.5 3.1-.2 2-.3 4-.4 6l-.6 8.7c-.2 3.1-.4 6.2-.8 9.3-.4 3.7-1 7.3-1.6 11-1 6.4-1.5 12.9-1.5 19.4 0 4.2-.1 8.5-.4 12.7-.2 2.7-.9 5.3-1.2 7.9-.4 3.5-.6 7-1 10.5-.5 5.3-1.2 10.6-1.7 15.8-.2 1.8-.4 3.5-.6 5.3-.4 2.8-.9 5.5-1.2 8.2-.2 2.4-.3 4.8-.4 7.1-.1 3.2-.1 6.5-.2 9.7 0 1.1-.7 2.2-1.9 2.4-2.6.8-5.3 1.6-7.8 2.7-2.7 1.1-5.5 1.1-8.3 1.3-3.7.4-7.5 0-11.3-.1h-6.6c-.6 2.3-.6 4.6 1 6.5.8.8 1.7 1.4 2.7 1.9.2.1.8-.1 1.1-.3 4.7-3.4 10.3-5.1 16.1-4.9 2.3 0 4.7.3 6.9.5-.6-1.2-1.3-2.8-2-4.4 1.1-.1 2-.2 2.6.9 1.1 1.9 2.4 3.6 3.6 5.4 2.9 4.2 6.9 7.3 10.2 11.1 2.2 2.6 4.2 5.4 6.1 8.3.3.6.2 1.4-.2 2-.7.7-1.4 0-1.8-.6-1-1.4-1.9-2.8-3-4.1-2.6-3.1-5.2-6.2-7.8-9.4-.5-.6-1.1-1.3-1.6-2-1.1-1.6-2.9-2-4.5-2.7-4.9-2.3-10.5-2.9-15.7-1.6-2.6.8-5.1 1.8-7.6 2.9-.2.2-.4.4-.4.7 0 1.3-.8 1.5-1.8 1.2-3.4-.9-7.1-4.7-6.7-8.6.1-.7.3-1.5.5-2.2-1-.2-1.4.3-1.7 1.2-.9 2.8-1.3 5.7-1.3 8.6 0 4.4-.4 8.8-.6 13.1v.1c.7.4 1.3.9 2 1.4 2.1 2.2 3.8 4.9 6.2 6.7 3.1 2.2 6.3 4.1 9.7 5.7 2.4 1.3 5 2.1 7.5 3.3 1 .6 1.9 1.2 2.8 2 1.4 1.1 3.2 1.7 5 1.7 2.4-.1 4.8 0 7.1-.3s4.5-.9 6.7-1.3c1.9-.4 3.8-.8 5.7-1 .7-.1 1.4-.1 2.1.1 2.5.8 4.2-.4 6-1.8.3-.3.4-.8.4-1.2-.6-2.4-1.7-4.6-3.2-6.4-.5-.6-.8-1.3-1.3-2s-1.1-1.3-1.7-2c-.2-.3-.4-.7-.6-1 .4-.2 1-.6 1.2-.5.9.5 1.7 1.2 2.4 1.9 1 1.1 1.9 2.3 2.9 3.4 1.6 2.1 2.7 4.6 3.1 7.2.2 1.2.7 2.4.9 3.6.6 3.4-2.4 7.3-5.9 7.5l-19.2 1.5c-2.4.2-4.9.8-7.3.9-3 .2-5.9-.7-8.2-2.6-1.8-1.2-3.6-2.4-5.5-3.4-.4-.2-.8-.2-1.1 0-.7.5-1.7.5-2.3-.1-1.2-.9-2.2-2-3.4-2.9-1.7-1.3-3.5-2.5-5.2-3.9-2.9-2.5-5.9-5-8.1-8.3-.5-.9-.7-2-.7-3-.1-2.9 0-5.8 0-8.7 0-2.7-.3-5.4-.1-8.1.2-3.6.8-7.1 1.2-10.7-1.8-.3-2.9-.1-3 2.7-.1 3.7-.6 7.5-.5 11.2 0 5 .4 10 .6 15 .1.6-.2 1.3-.6 1.7-2.4 2.6-5.8 3.6-8.8 5.3-3.2 1.8-6.5 3.3-9.6 5.2-1.9 1.1-3.9 1.2-5.9 1.5-7.6 1.3-15.3 2.5-22.9 3.8-2.3.4-4.6 1.2-6.9 1.7-.9.2-2 .3-2.3-.5-1 .3-2 .5-3.1.5-4.2-.4-8.2-1.7-11.9-3.9-.5-.3-.9-.7-1.3-1.1-.2-.2-.2-.7-.2-1 .3-.1.7-.2 1-.1 4.1 1.1 8.2 2.2 12.2 3.3l3.3.9c1.6-.4 3.4-1.1 5.3-1.4 5.7-1.1 11.4-2.2 17.2-3.3 3.3-.6 6.6-1.4 10-1.7 2.9-.3 5.1-1.5 7.5-2.9 3.1-1.9 6.4-3.2 9.6-4.9 1.4-.6 2.8-1.5 4-2.4.6-.5.6-1.8.8-2.7l-.3-.2c-1.1.6-2.1 1.1-3.2 1.7-3.7 2.2-7.6 4.2-11 6.7-2.3 1.7-4.7 2-7.3 2.3-5.8.7-11.5 1.3-17.3 2.2-2.5.5-4.9 1.1-7.3 1.8-.1 0-.3.2-.4.1-.7-.2-1.8.4-2.1-.7-.2-.6 1-1.9 1.7-2.1 3.6-1 7.1-2.1 10.7-3.1 1.4-.3 2.9-.5 4.4-.6 5.3-.6 10.5-1 15.8-1.8 1.2-.2 2.2-1.3 3.3-2 3.4-2.2 6.8-4.5 10.3-6.5.9-.4 1.5-1.2 1.5-2.2.1-3.2.3-6.3.6-9.5.3-3.3.6-6.7 1-10v-.9l-1.5.9c-2.6 2.3-5.2 4.6-7.6 7.1-1.2 1.2-2.7 2-4.4 2.3-1.2.2-2.5.8-3.7-.1-.5-.3-1-.7-1.4-1.1-2.4-3.2-5.5-5.2-9.7-4.9-1.2.1-2.4.8-3.6.8-2.6 0-4.2 1.6-6 3.1-2.3 1.9-4.8 3.6-7.1 5.5s-4.5 4-6.8 6c-1.5 1.5-3.4 2.5-5.5 3-2.7.5-5.2 2.1-7.8 3.3-.8.4-1.6.7-2.4 1.1-1 .4-1.8.2-2.2-.8s.2-1.6 1.1-1.9c2.1-.9 4.2-1.7 6.4-2.3 4.7-1 8.2-3.8 11.7-6.9 3.3-2.9 6.9-5.6 10.4-8.4.9-.8 1.8-1.6 2.7-2.5 1.7-1.7 4-1.8 6.2-2l3.5-.3c.1-.7.3-1.3.4-2.2-1.2-.4-2.3-.9-3.4-1.5-.6-.5-1-1.2-1.1-1.9-1.2-6.4-2.9-12.8-4.9-19-1.1-3.4-2.2-6.8-3.2-10.2-1-3.6-1.8-7.2-2.8-10.8-1.5-5.9-3.1-11.7-4.5-17.6-1.2-5.2-2.4-10.4-3.3-15.6-.5-3.1-2.2-5.5-3.6-8-1.1-1.9-3.1-3.3-3-5.7 0-1.5.2-3 .3-4.5.1-2 0-4 .1-5.9 0-4.1.1-8.2.2-12.3.1-5.1.4-10.1.4-15.2 0-5.6-.2-11.3-.2-16.9 0-5-.5-10.1-1.5-15-.3-2.2-.5-4.4-.5-6.6-.2-2.8-.2-5.6-1-8.4-.7-2.3-.6-4.8-.9-7.2-.5-3.6-1-7.2-1.4-10.8-.3-2.8-.3-5.7-.5-8.6-.2-3.6-.4-7.1-.5-10.7-.2-3.3-.2-6.7-.4-10-.2-3.1-.5-6.1-.8-9.2-.1-.4-.2-.8-.2-1.2.5-2.5-1.1-3.9-2.9-5.1-.9-.6-1.9-1.2-2.8-1.8-1.4-.8-2.3-2.3-2.5-3.9-.1-.8-.4-1.5-.5-2.3l-.6-5.4c-3.9-.9-4.1-1.3-3.4-5.7.1-.7-.1-1.4-.5-2-3.1-3.9-6.3-7.7-9.5-11.5l-.1-.1c-1-1.4-2.4-2.4-4-2.9-1.4-.4-2-2.7-1.6-4.7.5-2.3.8-4.6 1-6.9.2-2.8 0-5.5.2-8.3.2-2.8.7-5.7 1-8.5.3-3.2.5-6.3.9-9.5.5-3.7 1.1-7.4 1.8-11 1.2-6.1 2.7-12.2 3.9-18.4.7-3.6 1-7.2 1.7-10.8.9-4.1 2.1-8.2 3.1-12.3.7-2.7 1.3-5.3 1.7-8 1-6.5 1.7-13.1 2.8-19.6 1-6 2.6-11.9 3.7-17.9.7-3.6 1-7.3 1.7-10.8.7-3.3 1.6-4.7 5.4-5.1 3.4-.4 6.9-1 10.2-1.9 5.4-1.3 10.8-2.7 16.1-4.3 3.7-1.1 7.2-2.8 10.8-4.1 1.9-.7 3.9-1.2 5.9-1.6 1.5-.3 2.1.2 2.5 1.7.9 3.7 1.7 7.5 2.5 11.2 0 .4 0 .8-.1 1.1 0 1.1 0 2.2-.1 3.3-.2 1.5.9 1.9 1.8 2.6 4.1 3.6 9.3 5.7 14.7 5.9 3.2.2 6.4.6 9.5-.4 3.3-1.1 6.6-2.4 9.8-3.8.4-.3.7-.8.6-1.4-.5-2.8-1.1-5.7-1.7-8.5-.2-.7-.4-1.3-.7-2-.6-1.3-.4-2.9.6-3.9.5-.4 1-.5 1.6-.4 2.3.2 3.9 1.8 5.4 3.3 2.2 2.4 5.1 3.7 7.9 5.1 3.4 1.8 7.1 3 10.6 4.7 2.5 1.2 4.8 2.8 7.2 4.1 2.2 1.2 4.5 2.2 6.7 3.3 2.4 1.2 4.7 2.6 7 3.9 2.4 1.4 4.9 2.8 7.8 2.9 1.2 0 2.2.6 2.9 1.6.6.8 1.8 1 2.7 1.6.3.2.6.5.7.9 1.2 2.1 1.7 4.5 1.6 7-.2 2.4.3 5-.1 7.4-.9 5 .1 9.9.6 14.8.2 1.8.4 3.7.6 5.5.6 6.5 1.1 12.9 1.8 19.4.2 2.6.6 5.2.9 7.8.1 1.1.2 2.3.3 3.4.3 4 .7 7.9 1.1 11.9.1.9.2 1.7.4 2.6.1.4.4.7.8.9.5.2 1 .4 1.5.5 1.5.6 3 2.1 1.8 4.3l-.1.2c-1.1 2.1-1.1 2.1.9 3.4 1.4.9 1.4 1.7.2 2.8-.4.5-.7 1.1-.9 1.7 2.2 1.4 2.3 2.2 1 4.4-.5.9-.7 2-.7 3 0 4 2 7.5 2.8 11.4.7 3.4 1.6 6.7 2.6 10 .9 3.1 2 6.1 3 9.2.7 2.1 1.5 4.2 2.2 6.3 1.5 4.8 2.9 9.7 4.3 14.5 1.1 3.6 2.1 7.1 3.2 10.6.4 1.3.8 2.7 1.3 4 .8 2.2.5 3.2-1.5 4.4-6.4 3.7-13.5 6-20.9 6.8-1.3.1-2.4.8-3.8.6-1.1 0-2-.8-2.2-1.9-.8-3-1.6-6-2.6-8.9-1.5-4-3.3-7.8-4.9-11.7-1-2.7-1.8-5.4-2.7-8.1-1.8-5.4-3.7-10.7-5.6-16.1-.5-1.3-1-2.5-1.5-3.8-.1-.3-.3-.5-.4-.8l-.4.3zM77.2 97.5l-.4.1c0 3.6-.1 7.2-.1 10.8s.1 7.1.1 10.7c0 2.3-.3 4.6-.5 6.8-.3 3.8-.5 7.6-.8 11.4-.3 4-.8 7.9-1.1 11.9-.4 5.3-.8 10.5-1.1 15.8-.3 5.1-.7 10.2-.8 15.3-.1 5.6.1 11.3.1 16.9v5.1c.7-.2 1.2-.4 1.7-.6 4.2-1.7 8.5-3.4 12.7-5 4.5-1.7 9.1-3.1 13.6-4.8 3-1.1 6-2.5 8.9-3.8 2.2-1 4.3-2 6.5-2.9 1.1-.4 2.2-.7 3.4-.9.3 0 .6.2.8.4.1.4 0 .8-.2 1.1-.2.3-.5.4-.9.5-1.6.7-3.1 1.4-4.7 2.1-5.5 2.4-10.9 4.9-16.5 7.1-4 1.6-8.2 2.7-12.2 4.1s-7.9 3-11.8 4.5c-.8.2-1.3 1-1.2 1.8.1 3.9.1 7.7.2 11.6v4.5c2.4-1.8 4.5-3.3 6.6-4.8 4.4-3.2 8.7-6.3 13.1-9.5 3-2.2 6-4.3 9-6.4 2.4-1.7 5-3.3 7.5-4.9 1.1-.8 2.2-1.5 3.4-2 .4-.2 1.2.3 1.7.5-.2.3-.2.8-.5 1-1.6 1.1-3.2 2-4.8 3.1-3 2-6 4-8.9 6.1-3.4 2.5-6.7 5.1-10.1 7.6-2.9 2.2-5.9 4.4-8.8 6.6-2.6 2-5.3 4-8 5.8-.8.5-1.3.9-1.2 2 .4 3.9.7 7.7 1 11.6.1.8.3 1.1 1.2 1.2 2.2.1 4.3.3 6.5.5 4.1.4 8.2.7 12.3 1.2 4.9.6 9.8-.2 14.6-1 3.2-.5 6.5-1.1 9.7-1.6.8 0 1.5-.6 1.6-1.5.3-1.3.8-2.6 1.1-3.9.4-1.4.8-2.8 1-4.2.3-4.5.6-9.1.7-13.6.2-4.4.2-8.7.3-13.1.1-3.3.2-6.6.5-9.9.2-3.5.6-7 1-10.4.5-4.9-.3-9.7-.7-14.5-.3-3.7-1.1-7.4-1.5-11.1-.4-3.4-.7-6.7-1-10.1-.5-4.6-1-9.2-1.5-13.9-.4-3.7-.7-7.4-1.2-11.1-.1-1.3-.5-2.5-.7-3.8-.3-1.7-.5-3.4-.7-5.1-.3-2.5-.7-5-1-7.5-.3-1.9-.6-3.7-.9-5.6-2.5 1-4.8 1.9-7.1 2.8-1.8.8-3.6 1.3-5.5 1.7-4.1.6-8.3.4-12.3-.6-3.8-.7-7.3-2.4-10.3-4.9-.7-.2-1.3-.7-1.8-1.2zm6.5 300.1c1.1 0 1.8-.1 2.6 0 2.6.3 3.2 1.5 1.7 3.7-.1.2-.2.5-.3.7-.4 1.4-.8 2.8-1.2 4.3-.3 1-.8 1.8-.4 3 1 2.8 1.9 5.7 2.7 8.6 1.3 5.7 2.5 11.5 3.7 17.2.5 2.1 1.2 4.2 1.5 6.3.9 5.1 1.8 10.2 2.4 15.3.7 5.5 1.1 11 1.6 16.6.2 1.8.4 3.6.6 5.5.2-1.6.3-3.3.2-5 0-3.3-.2-6.6-.2-9.9 0-2.8.2-5.5.2-8.3 0-1.8-.4-3.7-.5-5.5-.3-6-.7-12.1-.9-18.1-.1-4.5-.1-9 0-13.5 0-2.9.1-5.7.1-8.6 0-3.3.2-6.5.1-9.8-.1-5.9-.5-11.8-.6-17.7-.1-3.9 0-7.9.1-11.8.1-4.2.5-8.4.6-12.5.1-3.7.1-7.5.1-11.2 0-4 .1-8 .2-12l.3-11.1c.1-4.3.1-8.7.1-13 0-.5-.2-1-.6-1.3-1.9-1.3-4.1-2.1-6.4-2.3-.7 0-1.2 0-1.2.9 0 .7-.1 1.4-.2 2.1-.3 2.4-.7 4.8-.9 7.2-.5 5.4-.8 10.7-1.4 16.1-.5 4.5-1.2 9.1-1.7 13.6-.5 4-.9 7.9-1.3 11.9-.6 5.7-1.2 11.3-1.6 17-.4 4.8-.5 9.7-.7 14.5-.1 1.3.4 1.9 1.7 2.1.4 0 .8.1 1.2.2.8.1 1.3.8 1.2 1.6 0 .3-.2.6-.5.9-.9.4-1.5 1.2-2.3 2.3zm37.7-306.2c-1 .5-1.6.8-1 1.8 2.3 4.2 4.5 8.4 6.7 12.6 1.5 2.8 3.1 5.6 4.6 8.4 1.2 2.3 2.1 4.6 3.3 7.1h-5.7c-1.3 1.3-1 2.5-.3 3.7.5.9.9 1.8 1.4 2.7 1.9 3.8 3.8 7.7 5.6 11.5 1.4 2.8 2.6 5.7 4.1 8.5.8 1.4 1.5 2.5.1 3.9-.1.1-.2.4-.2.6-1.8 4.3-1.5 8.9-2.3 13.3-.5 2.7-.5 5.4-.8 8.1-.3 2.2-.7 4.3-.9 6.5-.3 2.8-.5 5.6-.8 8.5-.3 3-.7 6-1.1 9-.4 3.4-.8 6.8-1.3 10.2-.5 3.6-1 7.2-1.7 10.7-.5 3-1.3 6-1.9 9s-1.2 6-1.7 9c-.2.9.1 1.7 1.1 1.8 1.1.1 1.3-.7 1.6-1.7.9-3.8 2-7.7 2.8-11.5.7-3.1 1.4-6.1 2-9.2.4-2.3.7-4.7 1-7 .3-2.2.8-4.3 1.1-6.5.4-3.5.7-7 1.1-10.5.6-5.4 1.4-10.8 2-16.2.7-6.2 1.3-12.3 2-18.5.2-1.7.4-3.5 1.6-4.9s.8-2.9.1-4.4c-1.8-3.6-3.5-7.2-5.3-10.8-1.7-3.4-3.3-6.8-5-10.2-.3-.6-.6-1.3-1-2.2h3.9c1.1.1 2.1-.7 2.2-1.8 0-.4 0-.8-.2-1.1-1.6-3.7-3.4-7.2-5.4-10.7-2.6-4.3-4.9-8.7-7.4-13.1-1.6-2.5-3-4.5-4.3-6.6zm-60.5 23.7c-1.4 1.7-2.7 3.1-3.9 4.6-2.3 3-4.6 6.1-6.9 9.1-.8.9-1 2.1-.7 3.2.3.9.5 1.8.7 2.7.7 5.2 1.3 10.4 1.9 15.7.4 3.2.6 6.4 1 9.6.7 5.2 1.5 10.4 2.2 15.6.5 3.4 1 6.8 1.5 10.1.4 2.3.9 4.6 1.2 6.9.5 4.3.9 8.5 1.5 12.8.3 2.4.7 4.8 1.2 7.1.1.4.7.6 1.1.9.3-.4.8-.8.8-1.3 0-.7 0-1.5-.2-2.2-.4-3-.9-6-1.3-9-.6-4.2-1-8.4-1.6-12.6-.4-2.8-.9-5.7-1.3-8.5-.8-5.6-1.5-11.3-2.2-16.9-.7-6-1.4-12.1-2.1-18.1-.5-4.3-1.1-8.6-1.6-12.9-.1-.6.1-1.2.4-1.7 1.7-2.3 3.4-4.5 5.2-6.7 1.9-2.3 3.8-4.7 5.9-6.9 1.2-1.3 1.3-2.6-.3-3.4-1.7-.8-3.4-1.5-5.2-2.2-2.1-.7-4.3-1.2-6.7-1.8.8-1.1 1.5-2 2.2-2.8 2-2.3 3.9-4.7 5.8-7 3-3.6 6-7.3 9-10.9.2-.3.2-.7 0-1.1-.4-.2-.9-.3-1.4-.3-.3.1-.6.5-.8.8-3.9 4.2-7.8 8.4-11.6 12.7-2.4 2.7-4.6 5.5-6.8 8.4-.7.7-.6 1.8.1 2.4.2.2.6.4.9.4.9.3 1.8.5 2.8.7 3.1.9 6 1.7 9.2 2.6zm37.8 421.2c-.9 1.9-.3 4.2 1.5 5.4.7.6 1.4 1.1 2 1.6 2.8 2.5 5.6 4.9 8.3 7.4.8.6 1.5 1.2 2.2 2 1.1 1.6 2.1 3.2 4.4 2.7.2 0 .3.1.5.1 2.2.9 4.4 1.9 6.6 3 2.6 1.5 5.6 2.1 8.6 1.6 4.4-.6 8.9-1 13.3-1.6 4-.5 8 .2 11.9-1.2 2-.7 3.3-2.8 3-4.9-2.3 1.7-4.7 3-7.6 2.1h-.3c-1.8.4-3.7.7-5.6 1.1-2.8.6-5.5 1.3-8.3 1.7-2.5.3-5 .3-7.5.2-2 0-4-.6-5.7-1.8-1.2-.9-2.5-1.7-3.9-2.4-3-1.5-6.2-2.6-9.2-4.2-2.5-1.2-4.8-2.7-6.9-4.5-2.5-2.5-4.8-5.5-7.3-8.3zm-31.3-20.9c4.3.6 7.3 3 10.1 6 .5-.1 1-.3 1.6-.4.7-.2 1.7-.3 2.1-.8 1.5-1.6 2.9-3.4 4.4-5.1-2.3 0-4.4.1-6.6 0-2.8-.1-5.6-.5-8.4-.5-.9 0-2.2-.6-3.2.8z" transform="translate(186.919 20.154)"/><path d="M192.8 333c.5.6 1.4.7 2 .3l.1-.1c1.5-.9 3.1-1.8 4.6-2.9.9-.7 1.7-1.5 2.4-2.4 2.4-3.3 4.7-6.7 7-10l.3-.6c-1.9 0-3.7.6-5.3 1.7-1 .8-2.4.9-3.6.3-1-.5-1.6.1-2.3.6-1 .8-2.1 1.5-3.2 2.2-1.2.7-2.5 0-3.2-1.3-.2-.3 0-.9.1-1.3.4.1 1 0 1.2.2.5.5 1.3.6 1.8.1.1 0 .1-.1.1-.1.9-.7 1.7-1.5 2.6-2.2.9-.8 2.1-1.1 3.3-.8.4.1.8.1 1.1-.1 2.2-.8 4.4-1.7 6.7-2.5.9-.3 1.2-.6.5-1.6-.6-.8-.6-2-.9-3l-1.2-2.4c-1.2-2.4-2.5-4.7-3.4-7.1-1.2-2.9-2-6-3-9-1.3.7-2.6 1.4-3.9 2-2.7.9-5.5 1.6-8.3 2.4-2.5.8-5.1 1-7.7.5h-.1c-1.2-.2-2.5-1.3-2.3-2 .5-1.5 1.7-.6 2.6-.6 2 0 4-.1 6-.5 3-.8 5.9-1.8 8.8-3 1.9-.8 3.7-1.8 5.5-3 1-.7 1.9-.9 2.6.1.8 1.1-.1 1.8-.8 2.4l-.5.5c2.3 5.2 4.8 10.4 7.1 15.7.9 2.1 1.6 4.2 2.2 6.3.1.5-.3 1.1-.7 1.7 0 .1.1.3.1.4 2.4.8 1.2 2.5.8 3.8-1.6 4.8-3.3 9.5-5 14.2-.5 1.3-1.7 1.7-2.9 2-1.7.5-3.4 1.2-5.1 1.1-1.3-.1-2.6.1-3.8.7-.9.4-2.1-.1-3.2-.2-1.7-.2-3.4-.4-5-.7-1-.1-1.9-.4-2.1-1.6-.3-1.7-.7-3.4-1.1-5.1-.1-.5-.6-.9-.8-1.3-.4-.9-.8-1.8-1-2.5l-2.5-1.2c-1.5-.6-3.1-1.3-4.5-2.1-1.2-.7-2.2-1.7-2.8-3-.8-2.2-.5-4.6.8-6.6 2.4-4.4 4.2-9 5.6-13.8.3-.9.8-1.6 1.7-1.3.8.3.9 1.1.7 2-1.6 5.5-3.5 10.9-5.9 16.1-.4.7-.6 1.4-.7 2.2 0 .5.3.9.7 1.1 1.2.7 2.5 1.2 3.8 1.8 1 .4 2 .8 2.9 1.1-.3-2.3-.6-4.8-.8-7.2.1-.5.3-.9.6-1.2.6.2 1.7.4 1.8.8.6 3.3 1 6.7 1.6 10 .5 2.7 1.1 5.4 1.7 8.2.1.7.7 1.2 1.4 1.1.8 0 1.6.2 2.3.5.9.4 1.3 0 1.7-.6 1.3-2.1 2.6-4.3 4-6.3.2-.3.8-.4 1.2-.6.1.4.5.9.3 1.2-.6 1.3-1.3 2.5-2 3.7-1.1.7-1.9 1.7-2.7 2.8zm13.2-7.1-4.2 5.9c3.3-.6 3.2-3.7 4.2-5.9zM126.4 46.4c-.2.1-.4.1-.5.2-1 .3-2.1.8-2.7-.3-.2-.8-.2-1.7 0-2.5.2-1.6.5-3.1.6-4.7.1-3.7.3-7.3.2-11-.2-4-1.2-8-3-11.6-1.2-2.5-2.9-4.7-5.1-6.4-.3-.2-.7-.3-.9-.5-.3-.5-.7-1-1-1.5.6-.2 1.2-.6 1.8-.5 2.3.3 3.9 1.9 5.4 3.5 2.1 2.2 2.9 5.1 4 7.8 2.4 5.9 2.5 12.1 2.5 18.3-.1 2-.4 3.9-.7 5.8-.1.7-.2 1.3.6 1.8 1 .8 1.7 2 1.8 3.4.8 4.1-.5 7.7-2.8 10.9-1.2 1.8-2.9 3.4-5.4 3.2-1.4-.2-2.8.7-3.1 2.1-.7 2-1.2 4.1-2 6.1-.2.7-.7 1.2-1.4 1.5-1.1.2-1.7-.8-1.4-2 .9-2.9 2-5.7 2.9-8.5.4-1.3.9-2.5 1.5-3.8.3-.5.8-.9 1.4-1.1.7 0 1.1.6 1 1.4-.1 1.1.5 1.5 1.5 1.1.5-.1.9-.3 1.3-.6 3-2.7 5-7 3.5-11.4.2-.2.1-.4 0-.7zM61.7 55.6l-.8-.3c0 .6 0 1.2.2 1.8 1.2 2.7 2.7 5.2 6 6.4-.2-.7-.4-1.5-.5-2.2 0-.5.1-1 .2-1.6.5.2 1.2.2 1.5.5.6.9 1.1 1.8 1.5 2.7 1 2.1 1.9 4.2 2.9 6.3.6 1 1.1 2.1 1.5 3.2.2.6.1 1.2-.3 1.7-.6.5-1.3.1-1.7-.6-1.4-2.4-2.8-4.9-4.2-7.5-3.5.8-5.6-1.6-7.5-4.1-1.7-2-2.4-4.6-1.9-7.1 0-.2 0-.3-.1-.4-2.2-2.8-3-6-3.5-9.4-.7-4.6-.6-9.2.2-13.8.5-2.5.9-5.1 1.5-7.6 1-4.6 3.9-7.9 7.5-10.7.3-.2.6-.4.9-.5.4 0 .7.2.9.5.1.1-.1.6-.3.8-2.6 2.3-4.6 5.1-5.8 8.3-1.6 4.8-2 9.8-2.4 14.8-.3 4.3.1 8.7 1.2 12.9.3 1.1.8 2.2 1.2 3.3.1.2.2.4.3.4 1.4.1 1.3 1.2 1.5 2.2z" transform="translate(186.919 20.154)"/><path d="M113.8 52.7c2.1-1 4.1-2 6.2-2.9.6-.2 1.3-.1 1.8.3.4.6.1 1.3-.7 1.6-2.2.9-4.4 2-6.7 2.8-.7.2-1.2.9-1.3 1.6-.3 1.3-.7 2.6-1.4 3.7-1.1 1.7-3.1 2.7-5.2 2.6-2.4 0-4.8-.1-7.3-.3-2.3-.2-3.5-1.5-4-3.9h-7.9c-.8-.1-1.6.4-1.7 1.2v.1c-.3 1.7-1.8 2.3-3.3 2.7-2.6.8-5.4.9-8.1.4-1.8-.4-3.1-1.8-3.4-3.6-.1-.9-.8-1.5-1.6-1.5H69c-.7 0-1.4 0-2.1-.2-.4-.1-.6-.6-1-.9.3-.3.6-.8 1-.9.7-.1 1.4 0 2.1 0 .6 0 1.2.1 1.3-.9 0-.3.6-.6.9-.9.2.3.6.7.7 1 .2 1.1.3 2.2.6 3.3.5 2 2 2.5 3.8 2.5 1.9-.1 3.7-.3 5.6-.6 1.8-.3 2.2-1.8 2.4-4.2.1-.7.2-1.3.3-2l.5-.2 1.6 2.1h6c.8 0 1.6-.2 2.4-.4.3-.1.4-.8.6-1.2.3-.5.6-.9.9-1.4l.6.2c.1 1 .1 2.1.2 3.1.1 3.2.4 3.6 3.8 3.9 2.2.1 4.5.1 6.7-.1 1.4-.2 2.6-1.2 2.9-2.7.2-1.5.3-3 .4-4.6 0-.4.1-.8.2-1.1.2-.3.6-.7.9-.7s.7.4.9.7c.3.8.5 1.1.6 1.4zM112.7 45.1l-.8 1.4c.5.1 1 .2 1.5.4.4.4.8.8 1.1 1.2-.5.3-1 .8-1.4.8-3.4-.4-6.9-.8-10.1-2.2-.8-.2-1.6-.2-2.4.1-1.1.2-2.1.8-3.1 1-.5.1-1.1-.3-1.6-.4.3-.5.6-1.1 1-1.6.1-.2.5-.2.7-.3-3-1.7-6.1-3.2-8.8-5.1-4.6-3-8.6-6.8-11.9-11.3-.3-.4-.7-.7-.8-1.1 0-.6 0-1.2.2-1.7.4.1 1 .1 1.3.4 2.2 2.1 4.3 4.5 6.6 6.5 3.5 3.2 7.5 5.8 11.9 7.7 2.7 1.1 5.4 2 8.2 2.7 1.7.2 3.4.3 5.1.2 1.2-.4 2.5.2 3.3 1.3z" transform="translate(186.919 20.154)"/><path d="M83.5 46.4c-5.1-4.4-9.8-9.2-12.7-15.5h-.4c-.3 1-.8 2-1 3.1-1.4 5.8-2.4 11.7-2.9 17.6-.1 1.3-.4 2.5-.7 3.7-.2.5-.5.9-1 1-.3.1-1-.4-1.1-.8-.3-.9-.4-1.7-.4-2.6.4-7.3 1.9-14.5 4.4-21.4.5-1.3 1-2.5 1.7-3.7.2-.4.9-.7 1.3-1 .2.4.5.8.7 1.2 1.5 2.4 2.8 4.8 4.5 7.1 2.5 3.3 5.4 6.2 8.6 8.8 1.6 1.2 3.2 2.4 4.8 3.7.3.4.6.8.8 1.3-.6.2-1.3.7-1.7.5-1.1-.5-2.2-1.2-3.3-1.9-.5-.4-1.1-.7-1.6-1.1zM90.8 0c3.6.1 7.2.4 10.7 1 2.4.5 4.7 1.9 7 2.9.6.2 1.2.5 1.8.9.7.5 1.4 1.1.8 2.1s-1.4.7-2.1.4c-1.5-.5-2.8-1.2-4.3-1.7-2.1-.8-4.3-1.5-6.4-2-5.5-1-11.1-.9-16.6.3-3.4.6-6.6 1.9-9.5 3.8-.5.3-.9.8-1.4 1.2s-1.1 1-1.7.3c-.4-.6-.1-1.2.4-1.8 1.3-1.6 3-2.9 5-3.5C78 2.6 81.4 1 85.2.8 87.1.7 89 .4 90.9.3l-.1-.3zM22.7 548.2c1.6.3 3 .4 4.4.7 4.1.9 8.2 1.2 12.4 1.1.6 0 1.2 0 1.8.2.6.2.9.8.8 1.4-.1.3-.4.6-.7.7-2.2 1.1-4.6.8-7 .6-1.5-.1-2.9-.3-4.4-.6-2.7-.4-5.2-1.4-7.4-3-1.1.9-1.8.3-2.6-.7l-.3.2c.3 1.3.5 2.7.8 4-.8.3-1.6-.1-1.9-.8v-.1c-1-2.4-1.1-5.1-.3-7.5.4-1.2.9-2.3 1.5-3.4.5-.9 1.2-1.4 2.3-.7.3.2.5.6.4.9-.9 2.3-.8 4.8.2 7zM94.7 85.1c1 .1 2.2.2 3.3.2.3 0 .6 0 .9-.2 1.6-1.3 3.1-2.6 4.7-3.9 1.5-1.2 3.1-2.3 4.7-3.4.3-.2.9-.1 1.4-.1-.1.6.1 1.3-.2 1.7-1 1-2.1 2-3.3 2.8-2.1 1.7-4.3 3.3-6.5 4.9-.7.4-1.5.6-2.3.6-3.1.1-6.1.2-9.2.1-.6-.1-1.2-.4-1.5-1-.1-.8.6-1.2 1.5-1.3 2.2-.2 4.3-.3 6.5-.4zM95 77.3c-3.2.2-6.3.4-9.5.6-.5.1-1 0-1.5-.1-.3-.1-.9-.7-.8-.8.2-.5.6-1.1.9-1.2 4-.4 8-.7 12-1.1 1.3-.2 2.5-.5 3.8-.9.8-.2 1.5 0 1.7.7 0 .6-.4 1.1-.9 1.4-1.8.7-3.7 1.2-5.6 1.7l-.1-.3z" transform="translate(186.919 20.154)"/><path d="m83.4 46.3.3 1.2c-.6 1.6-1.9 1.2-3.1 1-3.3-.7-6.6-1.4-10-1-.4 0-.9-.5-1.3-.8.3-.3.5-.8.9-1 2.3-.8 4.7-1 7.1-.6 2.1.3 4.2.7 6.1 1.2zM90.8 72.3c-1.4-.5-2.8-.8-4-1.4-.3-.3-.5-.7-.5-1.1.2-.4.8-1 1.2-.9 1.3.1 2.5.4 3.7.8.5.4.9 1 .9 1.6 0 .3-.9.7-1.3 1zM88.7 81.4c-.3-1.1.1-1.6 1.1-1.7 1.1-.1 2.1-.2 3.2-.2.4.1.7.4.8.8-.1.4-.3.8-.7 1-1.4.8-3 .8-4.4.1zM77 55.1c0-.8.7-1.4 1.4-1.3 1.1-.1 2.1.7 2.2 1.8 0 .9-.8 1.6-1.9 1.6s-1.7-.6-1.7-2.1zM104 55.7c-.9.1-1.8-.5-1.9-1.5V54c0-1.1.7-1.5 1.7-1.5s2 .8 1.8 1.6c0 .9-.7 1.6-1.6 1.6z" transform="translate(186.919 20.154)"/><path class="st1" d="M77.2 97.5c.5.5 1.1 1 1.6 1.5 3 2.5 6.5 4.2 10.3 4.9 4 1 8.2 1.2 12.3.6 1.9-.4 3.7-1 5.5-1.7 2.3-.8 4.6-1.8 7.1-2.8.3 1.8.6 3.7.9 5.6.4 2.5.7 5 1 7.5.2 1.7.4 3.4.7 5.1.2 1.3.5 2.5.7 3.8l1.2 11.1c.5 4.6 1 9.2 1.5 13.9.4 3.4.6 6.7 1 10.1.5 3.7 1.2 7.4 1.5 11.1.4 4.8 1.2 9.6.7 14.5-.4 3.5-.7 6.9-1 10.4-.2 3.3-.4 6.6-.5 9.9-.1 4.4-.1 8.7-.3 13.1-.2 4.5-.4 9.1-.7 13.6-.2 1.4-.5 2.8-1 4.2-.4 1.3-.8 2.6-1.1 3.9-.1.8-.8 1.4-1.6 1.5-3.2.5-6.5 1.1-9.7 1.6-4.8.7-9.6 1.6-14.6 1-4.1-.5-8.2-.8-12.3-1.2-2.2-.2-4.3-.4-6.5-.5-.9 0-1.1-.3-1.2-1.2-.3-3.9-.6-7.7-1-11.6-.1-1.1.4-1.4 1.2-2 2.7-1.9 5.4-3.8 8-5.8 2.9-2.2 5.9-4.4 8.8-6.6 3.4-2.5 6.7-5.2 10.1-7.6 2.9-2.1 5.9-4.1 8.9-6.1 1.6-1.1 3.2-2 4.8-3.1.3-.2.3-.6.5-1-.6-.2-1.3-.7-1.7-.5-1.2.6-2.3 1.3-3.4 2-2.5 1.6-5 3.2-7.5 4.9-3 2.1-6 4.3-9 6.4-4.4 3.1-8.7 6.3-13.1 9.4-2.1 1.5-4.2 3.1-6.6 4.8v-4.5c0-3.9-.1-7.7-.2-11.6-.1-.8.4-1.6 1.2-1.8 4-1.5 7.9-3.1 11.8-4.5s8.2-2.5 12.2-4.1c5.6-2.2 11-4.7 16.5-7.1 1.6-.7 3.1-1.4 4.7-2.1.3-.1.6-.3.9-.5.2-.3.3-.7.2-1.1-.2-.3-.5-.4-.8-.4-1.1.2-2.3.5-3.4.9-2.2.9-4.3 2-6.5 2.9-3 1.3-5.9 2.7-8.9 3.8-4.5 1.7-9.1 3.2-13.6 4.8-4.3 1.6-8.5 3.3-12.7 5-.5.2-1 .4-1.7.6v-5.1c0-5.6-.2-11.3-.1-16.9.1-5.1.4-10.2.8-15.3.3-5.3.7-10.5 1.1-15.8.3-4 .7-7.9 1.1-11.9.3-3.8.5-7.6.8-11.4.2-2.3.5-4.5.5-6.8.1-3.6-.1-7.1-.1-10.7s.1-7.2.1-10.8l.6-.3zM121.4 91.4c1.3 2.1 2.7 4.1 4 6.3 2.5 4.3 4.8 8.8 7.4 13.1 2 3.5 3.8 7 5.4 10.7.5 1 .1 2.2-.9 2.8-.3.2-.7.3-1.1.2h-3.9c.4.9.7 1.5 1 2.2 1.7 3.4 3.3 6.8 5 10.2 1.8 3.6 3.5 7.2 5.3 10.8.7 1.5 1.1 3-.1 4.4s-1.4 3.2-1.6 4.9c-.7 6.2-1.3 12.3-2 18.5-.6 5.4-1.4 10.8-2 16.2-.4 3.5-.7 7-1.1 10.5-.3 2.2-.7 4.3-1.1 6.5-.4 2.3-.6 4.7-1 7-.6 3.1-1.2 6.2-2 9.2-.9 3.8-2 7.7-2.8 11.5-.2 1-.4 1.8-1.6 1.7-1-.1-1.3-1-1.1-1.8.5-3 1.1-6 1.7-9s1.4-6 1.9-9c.6-3.6 1.2-7.1 1.7-10.7.5-3.4.9-6.8 1.3-10.2.4-3 .8-6 1.1-9 .3-2.8.5-5.6.8-8.5.2-2.2.7-4.3.9-6.5.3-2.7.3-5.4.8-8.1.9-4.4.5-9.1 2.3-13.3.1-.2.1-.5.2-.6 1.4-1.4.6-2.5-.1-3.9-1.5-2.7-2.7-5.6-4.1-8.5-1.9-3.9-3.7-7.7-5.6-11.5-.4-.9-.9-1.8-1.4-2.7-.7-1.2-1-2.4.3-3.7h5.7c-1.1-2.5-2.1-4.9-3.3-7.1-1.5-2.8-3.1-5.6-4.6-8.4-2.2-4.2-4.4-8.4-6.7-12.6-.3-.8.2-1.2 1.3-1.6zM60.9 115.1c-3.2-.9-6.1-1.7-9.1-2.4-.9-.2-1.9-.4-2.8-.7-.9-.2-1.6-1.1-1.4-2 .1-.3.2-.6.4-.9 2.2-2.8 4.4-5.7 6.8-8.4 3.8-4.3 7.7-8.5 11.6-12.7.3-.3.5-.7.8-.8.5-.1 1 0 1.4.3.2.1.2.9 0 1.1-3 3.7-6 7.3-9 10.9-2 2.3-3.9 4.7-5.8 7-.7.9-1.4 1.7-2.2 2.8 2.4.6 4.6 1.1 6.7 1.8 1.8.6 3.5 1.3 5.2 2.2 1.6.8 1.5 2.1.3 3.4-2.1 2.2-4 4.5-5.9 6.9-1.8 2.2-3.5 4.4-5.2 6.7-.3.5-.5 1.1-.4 1.7.5 4.3 1.1 8.6 1.6 12.9.7 6 1.4 12.1 2.1 18.1.7 5.6 1.4 11.3 2.2 16.9.4 2.8.9 5.7 1.3 8.5.6 4.2 1 8.4 1.6 12.6.4 3 .9 6 1.3 9 .2.7.2 1.5.2 2.2-.1.4-.5.8-.8 1.3-.4-.3-1-.6-1.1-.9-.5-2.4-.9-4.7-1.2-7.1-.5-4.3-.9-8.5-1.5-12.8-.3-2.3-.8-4.6-1.2-6.9-.5-3.4-1-6.8-1.5-10.1-.7-5.2-1.5-10.4-2.2-15.6-.4-3.2-.7-6.4-1-9.6-.6-5.2-1.2-10.4-1.9-15.7-.2-.9-.4-1.8-.7-2.7-.3-1.1-.1-2.3.7-3.2 2.3-3 4.6-6.1 6.9-9.1 1.1-1.6 2.4-3 3.8-4.7zM98.8 536.3c2.4 2.8 4.7 5.7 7.4 8.2 2.1 1.8 4.4 3.3 6.9 4.5 3 1.6 6.2 2.7 9.2 4.2 1.4.7 2.7 1.5 3.9 2.4 1.6 1.2 3.6 1.8 5.7 1.8 2.5.1 5 0 7.5-.2 2.8-.4 5.5-1.1 8.3-1.7 1.8-.4 3.7-.7 5.5-1.1h.3c2.9.9 5.3-.4 7.6-2.1.3 2.1-1 4.2-3 4.9-3.9 1.3-8 .7-11.9 1.2-4.4.6-8.9 1-13.3 1.6-3 .5-6-.1-8.6-1.6-2.1-1.1-4.3-2.1-6.6-3-.1-.1-.3-.1-.5-.1-2.3.5-3.3-1.2-4.4-2.7-.7-.7-1.4-1.4-2.2-2l-8.3-7.4c-.6-.6-1.3-1.1-2-1.6-1.9-1.4-2.3-3-1.5-5.3zM67.4 515.4c1-1.5 2.2-.8 3.3-.8 2.8 0 5.6.4 8.4.5 2.2.1 4.3 0 6.6 0-1.5 1.8-2.9 3.5-4.4 5.1-.5.5-1.4.5-2.1.8-.5.2-1.1.3-1.6.4-2.8-2.9-5.8-5.4-10.2-6zM206 325.9c-1 2.2-.8 5.3-4.2 5.9l4.2-5.9z" transform="translate(186.919 20.154)"/><g class="st2"><path d="m1134.8 530-10.8 1.3 3.6 29.4-7.3.9-3.6-29.4-10.7 1.3-.7-5.9 28.7-3.5.8 5.9zM1157.7 557c-.4-.6-.7-1.3-1-2.3-1.5 2.1-3.6 3.3-6.3 3.6-2.6.3-4.8-.2-6.7-1.4-1.9-1.3-2.9-3-3.2-5.3-.3-2.8.4-5 2.3-6.8 1.9-1.7 4.8-2.9 8.7-3.3l3.2-.4-.2-1.5c-.1-1.2-.6-2.1-1.3-2.8-.7-.7-1.7-.9-3.1-.7-1.2.1-2.1.5-2.7 1.2-.6.6-.8 1.5-.7 2.5l-7 .9c-.2-1.5.1-3 .9-4.4.8-1.4 2-2.6 3.6-3.5 1.6-.9 3.5-1.5 5.6-1.8 3.2-.4 5.9.1 8 1.5 2.1 1.4 3.3 3.6 3.7 6.5l1.4 11.4c.3 2.5.9 4.3 1.7 5.5l.1.4-7 .7zm-6.4-4.1c1-.1 2-.5 2.8-1 .8-.6 1.4-1.3 1.7-2.1l-.6-4.5-2.6.3c-3.5.4-5.2 1.9-5.2 4.3v.4c.1.9.5 1.6 1.2 2 .7.5 1.6.7 2.7.6zM1181.8 543.4l-2.2 2.8 1 8-7 .9-4.6-37.2 7-.9 2.5 20.6 1.1-1.9 5.7-8.7 8.4-1-8.1 12.1 12.2 14-8 1-8-9.7zM1219.9 546.7c-1.5 2.3-3.7 3.7-6.8 4-2.8.3-5.1-.2-6.7-1.6-1.7-1.4-2.7-3.7-3.1-6.8l-2.1-17.2 7-.9 2.1 17c.3 2.7 1.7 3.9 4.2 3.6 2.4-.3 3.9-1.3 4.6-3.1l-2.3-18.6 7-.9 3.2 26.2-6.6.8-.5-2.5zM1245.3 536.2l2.8-16.9 7.5-.9-6.8 31.6-.4 1.5c-1.1 3.6-3.5 5.6-7.1 6.1-1 .1-2.1.1-3.2-.1l-.7-5.3 1.1-.1c1.3-.2 2.3-.5 2.9-1 .6-.5 1-1.2 1.3-2.2l.6-2.3-12.4-25.2 7.5-.9 6.9 15.7zM1281 541.9c-.4-.6-.7-1.3-1-2.3-1.5 2.1-3.6 3.3-6.3 3.6-2.6.3-4.8-.2-6.7-1.4-1.9-1.3-2.9-3-3.2-5.3-.3-2.8.4-5 2.3-6.8 1.9-1.7 4.8-2.9 8.7-3.3l3.2-.4-.2-1.5c-.1-1.2-.6-2.1-1.3-2.8-.7-.7-1.7-.9-3.1-.7-1.2.1-2.1.5-2.7 1.2-.6.6-.8 1.5-.7 2.5l-7 .9c-.2-1.5.1-3 .9-4.4.8-1.4 2-2.6 3.6-3.5 1.6-.9 3.5-1.5 5.6-1.8 3.2-.4 5.9.1 8 1.5 2.1 1.4 3.3 3.6 3.7 6.5l1.4 11.4c.3 2.5.9 4.3 1.7 5.5l.1.4-7 .7zm-6.4-4.2c1-.1 2-.5 2.8-1 .8-.6 1.4-1.3 1.7-2.1l-.6-4.5-2.6.3c-3.5.4-5.2 1.9-5.2 4.3v.4c.1.9.5 1.6 1.2 2 .7.6 1.6.8 2.7.6z" transform="translate(-1102.354 -369)"/></g><g class="st2"><path d="m1491.9 540.6-7.3-.9 4.3-35.3 7.3.9-4.3 35.3zM1523.7 534.8l5.5-16.3 6.8.8-9.9 25.4-5.9-.7-2.9-17.1-7 15.9-5.8-.7-3.5-27 6.8.8 1.4 17.1 6.8-16.1 5.1.6 2.6 17.3zM1552.8 548c-.2-.7-.4-1.5-.4-2.4-1.9 1.7-4.2 2.4-7 2-2.6-.3-4.6-1.3-6.1-3s-2.1-3.7-1.8-5.9c.3-2.8 1.6-4.8 3.9-6 2.2-1.2 5.3-1.6 9.2-1.2l3.2.4.2-1.5c.1-1.2 0-2.2-.6-3-.5-.8-1.5-1.3-2.8-1.5-1.2-.1-2.1 0-2.9.5-.7.5-1.2 1.2-1.3 2.2l-7-.9c.2-1.5.8-2.9 1.9-4 1.1-1.2 2.5-2 4.3-2.6s3.8-.7 5.9-.4c3.2.4 5.7 1.5 7.4 3.4 1.7 1.9 2.4 4.3 2 7.2l-1.4 11.4c-.3 2.5-.2 4.4.3 5.8l-.1.4-6.9-.9zm-5.2-5.5c1 .1 2 0 2.9-.3.9-.4 1.7-.9 2.2-1.6l.6-4.5-2.6-.3c-3.5-.4-5.5.6-6 2.9l-.1.4c-.1.9.1 1.6.7 2.3.5.5 1.3.9 2.3 1.1zM1575.5 524.2l-.1 3c2.1-2 4.8-2.9 8-2.5 3.4.4 5.5 2 6.5 4.9 2.2-2.4 5-3.4 8.4-3 2.8.3 4.9 1.4 6 3.3 1.2 1.8 1.6 4.4 1.2 7.7l-2.1 16.7-7-.9 2.1-16.7c.2-1.5 0-2.6-.5-3.4-.5-.8-1.5-1.2-3-1.4-2.1-.3-3.7.6-4.7 2.5l-2.2 18-7-.9 2-16.7c.2-1.5 0-2.7-.5-3.4-.5-.8-1.5-1.2-2.9-1.4-2-.2-3.5.4-4.6 1.9l-2.3 18.5-7-.9 3.2-26.2 6.5.9zM1610.7 541.6c.3-2.6 1.1-4.9 2.4-6.8 1.3-1.9 2.9-3.3 4.9-4.2 2-.9 4.3-1.2 6.8-.9 3.5.4 6.3 1.9 8.3 4.3 2 2.4 2.9 5.5 2.7 9.3l-.2 1.8c-.5 4-2 7.1-4.6 9.3s-5.7 3-9.5 2.5-6.6-2-8.6-4.7-2.7-6.1-2.2-10.3v-.3zm7 1.4c-.3 2.5-.1 4.5.7 5.9.8 1.4 2 2.3 3.8 2.5 1.7.2 3.1-.3 4.2-1.5s1.8-3.2 2.2-6.1c.3-2.4.1-4.4-.7-5.9-.8-1.5-2-2.3-3.8-2.5-1.7-.2-3.1.3-4.2 1.5-1.2 1.3-1.9 3.3-2.2 6.1zM1652.1 527.1l-.8 6.4 4.5.6-.6 5.1-4.5-.5-1.6 13.1c-.1 1 0 1.7.3 2.2.3.5 1 .8 2.1.9.8.1 1.5.1 2.1.1l-.7 5.3c-1.4.2-2.9.3-4.3.1-4.9-.6-7.1-3.4-6.6-8.4l1.7-14.1-3.8-.5.6-5.1 3.8.5.8-6.4 7 .7zM1657.8 547.4c.3-2.6 1.1-4.9 2.4-6.8 1.3-1.9 2.9-3.3 4.9-4.2 2-.9 4.3-1.2 6.8-.9 3.5.4 6.3 1.9 8.3 4.3 2 2.4 2.9 5.5 2.7 9.3l-.2 1.8c-.5 4-2 7.1-4.6 9.3-2.5 2.2-5.7 3-9.5 2.5s-6.6-2-8.6-4.7-2.7-6.1-2.2-10.3v-.3zm7 1.3c-.3 2.5-.1 4.5.7 5.9.8 1.4 2 2.3 3.8 2.5 1.7.2 3.1-.3 4.2-1.5s1.8-3.2 2.2-6.1c.3-2.4.1-4.4-.7-5.9-.8-1.5-2-2.3-3.8-2.5-1.7-.2-3.1.3-4.2 1.5-1.2 1.3-1.9 3.3-2.2 6.1z" transform="translate(-1102.354 -369)"/></g><g class="st2"><path d="m1558.1 732.6-8.6-9.5 2.8-2.5c.8-.8 1.8-1.2 2.7-1.5s2-.1 2.9.2 1.9 1 2.7 1.9l.4.5c.8.9 1.3 1.9 1.6 2.9.3 1 .2 2-.1 3-.3 1-.9 1.8-1.8 2.6l-2.6 2.4zm-5.7-9.6 6.2 6.9 1.1-1c.9-.8 1.3-1.7 1.3-2.6 0-1-.5-2-1.4-3l-.5-.5c-.9-1-1.9-1.6-2.8-1.8-.9-.1-1.8.2-2.7.9l-1.2 1.1zM1571.3 721c-1 .9-2.1 1.3-3.3 1.3-1.2-.1-2.3-.6-3.2-1.7l-.2-.2c-.6-.7-1.1-1.5-1.3-2.3-.2-.8-.2-1.6 0-2.3.2-.8.6-1.4 1.2-1.9 1-.9 2-1.2 3.1-1.1 1.1.1 2.1.8 3.1 1.9l.6.6-4.6 4.2c.6.5 1.2.8 1.8.9s1.2-.2 1.7-.7c.7-.7 1.1-1.5 1-2.5h1.6c.1.7 0 1.3-.2 2-.3.7-.7 1.3-1.3 1.8zm-5.6-5.8c-.4.4-.6.9-.6 1.4 0 .5.2 1.1.6 1.7l3-2.7-.1-.1c-.5-.5-1-.8-1.5-.8-.5-.1-1 .1-1.4.5zM1578.8 710.6c-.3-.3-.6-.4-.9-.3-.4.1-.9.3-1.5.7-.6.4-1.2.6-1.7.8-1.1.3-2 .1-2.7-.6-.5-.6-.8-1.4-.6-2.2.1-.9.6-1.7 1.4-2.4.8-.8 1.7-1.2 2.6-1.2.9 0 1.6.3 2.2.9l-1.6 1.4c-.3-.3-.6-.5-1-.5s-.8.2-1.2.5c-.3.3-.6.6-.6 1-.1.4 0 .7.3.9.2.2.5.3.8.3s.9-.3 1.6-.7c.7-.4 1.4-.7 1.9-.8.5-.1 1-.1 1.4 0 .4.1.8.4 1.1.7.6.6.8 1.4.6 2.3-.2.9-.7 1.7-1.5 2.5-.6.5-1.2.9-1.8 1.1-.6.2-1.3.2-1.8.1s-1.1-.4-1.4-.8l1.5-1.4c.4.4.8.5 1.2.5.4 0 .9-.2 1.3-.6.4-.4.7-.7.7-1.1 0-.6 0-.9-.3-1.1zM1576.8 699.7c-.2-.2-.3-.5-.3-.8 0-.3.2-.6.4-.8s.6-.4.9-.4c.3 0 .6.2.8.4.2.2.3.5.3.8 0 .3-.2.6-.5.8-.3.3-.6.4-.9.4-.2 0-.5-.1-.7-.4zm9.7 7.4-1.6 1.4-6.4-7.1 1.6-1.4 6.4 7.1zM1586.1 701c-1-1.1-1.5-2.2-1.6-3.3-.1-1.1.3-2.1 1.2-2.8.8-.7 1.7-1 2.7-.9l-.6-.8 1.4-1.3 6.2 6.9c.8.9 1.2 1.9 1.1 3-.1 1.1-.6 2-1.6 2.9-.5.5-1.1.8-1.8 1-.7.2-1.3.3-1.9.2l-.1-1.6c1 .1 1.9-.1 2.6-.8.5-.5.8-1 .9-1.6 0-.6-.2-1.1-.7-1.7l-.4-.5c0 .9-.4 1.7-1.1 2.4-.8.7-1.8 1-2.9.8-1.3-.1-2.4-.7-3.4-1.9zm1.7-1.3c.6.7 1.3 1.1 1.9 1.3.7.1 1.2 0 1.8-.5.6-.6.9-1.3.7-2.1l-2.8-3.1c-.8-.3-1.5-.1-2.1.5-.5.5-.7 1-.7 1.7.1.7.5 1.4 1.2 2.2zM1593.6 687.9l.8.8c0-1.1.4-2 1.2-2.8 1.5-1.3 3-1.2 4.5.5l4.2 4.7-1.6 1.4-4.1-4.6c-.4-.4-.8-.7-1.2-.7-.4 0-.8.1-1.2.5-.6.6-.9 1.3-.6 2.2l4.5 5-1.6 1.4-6.4-7.1 1.5-1.3zM1610.5 685.7c-1 .9-2.1 1.3-3.3 1.3-1.2-.1-2.3-.6-3.2-1.7l-.2-.2c-.6-.7-1.1-1.5-1.3-2.3-.2-.8-.2-1.6 0-2.3.2-.8.6-1.4 1.2-1.9 1-.9 2-1.2 3.1-1.1s2.1.8 3.1 1.9l.6.6-4.6 4.2c.6.5 1.2.8 1.8.9.6 0 1.2-.2 1.7-.7.7-.7 1.1-1.5 1-2.5h1.6c.1.7 0 1.3-.2 2-.3.7-.7 1.3-1.3 1.8zm-5.6-5.9c-.4.4-.6.9-.6 1.4 0 .5.2 1.1.6 1.7l3-2.7-.1-.1c-.5-.5-1-.8-1.5-.8s-1 .2-1.4.5zM1614.4 671.8c-.2.2-.5.3-.7.5-.7.7-1 1.4-.7 2.2l4.4 4.8-1.6 1.4-6.4-7.1 1.5-1.4.8.8c-.2-1 .1-1.7.8-2.4.2-.2.4-.3.6-.4l1.3 1.6z" transform="translate(-1102.354 -379)"/></g></svg>