<svg xmlns="http://www.w3.org/2000/svg" xml:space="preserve" id="レイヤー_1" x="0" y="0" style="enable-background:new 0 0 901.5 127.8" version="1.1" viewBox="0 0 901.5 127.8"><style>.st1{fill:none;stroke:#ddd}</style><g style="enable-background:new"><path d="M65.8 96.7H53.1L37.8 71.2c-1.4-2.4-2.8-4.4-4.1-6.1-1.3-1.7-2.7-3-4-4.1-1.4-1.1-2.9-1.8-4.4-2.3s-3.4-.7-5.4-.7h-8.8v38.7H.5v-91h27.2c4 0 7.6.5 11 1.5s6.3 2.5 8.8 4.5 4.4 4.6 5.8 7.6c1.4 3 2.1 6.6 2.1 10.6 0 3.2-.5 6.1-1.4 8.7s-2.3 5-4.1 7.1c-1.8 2.1-3.9 3.8-6.3 5.3-2.5 1.5-5.3 2.6-8.3 3.4v.3c1.5.7 2.8 1.5 4 2.3 1.1.9 2.2 1.9 3.2 3.1 1 1.2 2 2.5 3 4s2.1 3.2 3.3 5.2l17 27.4zM11.2 15.4v33h14.5c2.7 0 5.1-.4 7.4-1.2 2.3-.8 4.2-2 5.9-3.5 1.7-1.5 2.9-3.3 3.9-5.5.9-2.2 1.4-4.6 1.4-7.3 0-4.9-1.6-8.7-4.7-11.4-3.2-2.7-7.7-4.1-13.7-4.1H11.2zM128.6 31.7l-29.9 75.4c-5.3 13.5-12.8 20.2-22.5 20.2-2.7 0-5-.3-6.8-.8v-9.3c2.2.8 4.3 1.1 6.2 1.1 5.2 0 9.2-3.1 11.8-9.4l5.2-12.3-25.4-64.9h11.6l17.6 50c.2.6.7 2.3 1.3 5h.4c.2-1 .6-2.6 1.3-4.8l18.5-50.1h10.7zM192.3 96.7h-10.4V86.4h-.3c-4.3 7.9-11 11.8-20.1 11.8-15.5 0-23.2-9.2-23.2-27.7V31.7h10.3v37.2c0 13.7 5.2 20.6 15.7 20.6 5.1 0 9.3-1.9 12.5-5.6 3.3-3.7 4.9-8.6 4.9-14.7V31.7h10.4v65zM268.8 91.5c0 23.9-11.4 35.8-34.3 35.8-8 0-15.1-1.5-21.1-4.6v-10.4c7.3 4.1 14.3 6.1 20.9 6.1 16 0 24-8.5 24-25.5v-7.1h-.3c-5 8.3-12.4 12.4-22.3 12.4-8.1 0-14.6-2.9-19.5-8.7-4.9-5.8-7.4-13.5-7.4-23.3 0-11 2.7-19.8 8-26.3s12.6-9.8 21.8-9.8c8.8 0 15.3 3.5 19.5 10.5h.3v-9h10.4v59.9zm-10.4-24.2v-9.6c0-5.2-1.7-9.6-5.2-13.3s-7.8-5.5-13-5.5c-6.4 0-11.5 2.3-15.1 7-3.6 4.7-5.5 11.2-5.5 19.6 0 7.2 1.7 13 5.2 17.4s8.1 6.5 13.9 6.5c5.8 0 10.6-2.1 14.3-6.2 3.6-4.1 5.4-9.4 5.4-15.9zM317.1 98.3c-9.6 0-17.3-3-23-9.1-5.7-6.1-8.6-14.1-8.6-24.2 0-10.9 3-19.4 9-25.6 6-6.1 14-9.2 24.2-9.2 9.7 0 17.3 3 22.7 9 5.4 6 8.2 14.2 8.2 24.8 0 10.4-2.9 18.7-8.8 24.9-6 6.2-13.9 9.4-23.7 9.4zm.7-59.3c-6.7 0-12 2.3-15.9 6.8-3.9 4.5-5.8 10.8-5.8 18.8 0 7.7 2 13.8 5.9 18.2s9.2 6.7 15.8 6.7c6.7 0 11.9-2.2 15.5-6.5 3.6-4.4 5.4-10.6 5.4-18.6 0-8.1-1.8-14.4-5.4-18.8-3.6-4.4-8.8-6.6-15.5-6.6zM456.9 15.4h-26.3v81.4H420V15.4h-26.2V5.7H457v9.7zM501.7 96.7h-10.4V86.6h-.3c-4.5 7.8-11.2 11.7-20 11.7-6.5 0-11.5-1.7-15.2-5.1-3.7-3.4-5.5-8-5.5-13.6 0-12.1 7.2-19.2 21.5-21.2l19.5-2.7c0-11-4.5-16.6-13.4-16.6-7.8 0-14.9 2.7-21.2 8V36.3c6.4-4.1 13.8-6.1 22.1-6.1 15.3 0 22.9 8.1 22.9 24.2v42.3zm-10.4-32.9L475.6 66c-4.8.7-8.5 1.9-10.9 3.6-2.5 1.7-3.7 4.8-3.7 9.1 0 3.2 1.1 5.8 3.4 7.8s5.3 3 9 3c5.2 0 9.4-1.8 12.8-5.4 3.4-3.6 5-8.2 5-13.7v-6.6zM575.3 96.7h-14.6L532 65.5h-.3v31.2h-10.4V.5h10.4v61h.3l27.3-29.8h13.6l-30.2 31.4 32.6 33.6zM632.5 96.7h-10.4V86.6h-.3c-4.5 7.8-11.2 11.7-20 11.7-6.5 0-11.5-1.7-15.2-5.1-3.7-3.4-5.5-8-5.5-13.6 0-12.1 7.2-19.2 21.5-21.2l19.5-2.7c0-11-4.5-16.6-13.4-16.6-7.8 0-14.9 2.7-21.2 8V36.3c6.4-4.1 13.8-6.1 22.1-6.1 15.3 0 22.9 8.1 22.9 24.2v42.3zm-10.4-32.9L606.4 66c-4.8.7-8.5 1.9-10.9 3.6-2.5 1.7-3.7 4.8-3.7 9.1 0 3.2 1.1 5.8 3.4 7.8s5.3 3 9 3c5.2 0 9.4-1.8 12.8-5.4 3.4-3.6 5-8.2 5-13.7v-6.6zM707.6 91.5c0 23.9-11.4 35.8-34.3 35.8-8 0-15.1-1.5-21.1-4.6v-10.4c7.3 4.1 14.3 6.1 20.9 6.1 16 0 24-8.5 24-25.5v-7.1h-.3c-5 8.3-12.4 12.4-22.3 12.4-8.1 0-14.6-2.9-19.5-8.7-4.9-5.8-7.4-13.5-7.4-23.3 0-11 2.7-19.8 8-26.3s12.6-9.8 21.8-9.8c8.8 0 15.3 3.5 19.5 10.5h.3v-9h10.4v59.9zm-10.4-24.2v-9.6c0-5.2-1.7-9.6-5.2-13.3-3.5-3.7-7.8-5.5-13-5.5-6.4 0-11.5 2.3-15.1 7-3.6 4.7-5.5 11.2-5.5 19.6 0 7.2 1.7 13 5.2 17.4 3.5 4.3 8.1 6.5 13.9 6.5 5.8 0 10.6-2.1 14.3-6.2 3.5-4.1 5.4-9.4 5.4-15.9zM734 15.2c-1.9 0-3.4-.6-4.8-1.9-1.3-1.3-2-2.9-2-4.8s.7-3.6 2-4.9c1.3-1.3 2.9-1.9 4.8-1.9s3.5.6 4.9 1.9c1.3 1.3 2 2.9 2 4.9 0 1.9-.7 3.4-2 4.8-1.4 1.3-3 1.9-4.9 1.9zm5 81.5h-10.4v-65H739v65zM756.2 94.4V83.2c5.7 4.2 11.9 6.3 18.7 6.3 9.1 0 13.7-3 13.7-9.1 0-1.7-.4-3.2-1.2-4.4-.8-1.2-1.8-2.3-3.2-3.2-1.3-.9-2.9-1.8-4.7-2.5-1.8-.7-3.7-1.5-5.8-2.3-2.9-1.1-5.4-2.3-7.6-3.5-2.2-1.2-4-2.5-5.5-3.9-1.5-1.5-2.6-3.1-3.3-5-.7-1.9-1.1-4-1.1-6.5 0-3 .7-5.7 2.1-8.1 1.4-2.3 3.3-4.3 5.6-5.9 2.3-1.6 5-2.8 8-3.6 3-.8 6.1-1.2 9.2-1.2 5.6 0 10.7 1 15.1 2.9v10.5c-4.8-3.1-10.3-4.7-16.5-4.7-1.9 0-3.7.2-5.3.7-1.6.4-2.9 1.1-4 1.9-1.1.8-2 1.8-2.6 2.9s-.9 2.4-.9 3.7c0 1.7.3 3.1.9 4.3s1.5 2.2 2.7 3c1.2.9 2.6 1.7 4.3 2.4 1.7.7 3.6 1.5 5.8 2.3 2.9 1.1 5.5 2.2 7.7 3.4s4.2 2.5 5.8 3.9c1.6 1.5 2.8 3.1 3.7 5s1.3 4.2 1.3 6.8c0 3.2-.7 6-2.1 8.4-1.4 2.4-3.3 4.3-5.7 5.9-2.4 1.6-5.1 2.7-8.2 3.5-3.1.8-6.3 1.1-9.7 1.1-6.5.1-12.3-1.2-17.2-3.8zM869.2 96.7h-10.4V59.3c0-13.5-5-20.3-15.1-20.3-5.1 0-9.4 2-12.8 5.9-3.5 3.9-5.2 8.9-5.2 15.1v36.8h-10.4V.5h10.4v42h.3c5-8.2 12.1-12.3 21.3-12.3 14.6 0 22 8.8 22 26.5v40zM894.2 15.2c-1.9 0-3.4-.6-4.8-1.9-1.3-1.3-2-2.9-2-4.8s.7-3.6 2-4.9c1.3-1.3 2.9-1.9 4.8-1.9s3.5.6 4.9 1.9c1.3 1.3 2 2.9 2 4.9 0 1.9-.7 3.4-2 4.8-1.4 1.3-3 1.9-4.9 1.9zm5.1 81.5h-10.4v-65h10.4v65z" class="st1"/></g></svg>