<svg xmlns="http://www.w3.org/2000/svg" xml:space="preserve" id="レイヤー_1" x="0" y="0" style="enable-background:new 0 0 799.8 127.8" version="1.1" viewBox="0 0 799.8 127.8"><style>.st1{fill:none;stroke:#ddd}</style><g style="enable-background:new"><path d="m70.8 5.7-30 57.4v33.6H30.1V63.3L.8 5.7h12.1l20.4 41.1c.3.5 1 2.4 2.2 5.6h.2c.4-1.4 1.2-3.3 2.4-5.6L59.5 5.7h11.3zM134.6 96.7h-10.4V86.4h-.2c-4.3 7.9-11 11.8-20.1 11.8-15.5 0-23.2-9.2-23.2-27.7V31.7H91v37.2c0 13.7 5.2 20.6 15.7 20.6 5.1 0 9.3-1.9 12.5-5.6 3.3-3.7 4.9-8.6 4.9-14.7V31.7h10.4v65zM209.6 96.7H195l-28.7-31.2h-.3v31.2h-10.4V.5H166v61h.3l27.3-29.8h13.6L177 63.1l32.6 33.6zM225.6 15.2c-1.9 0-3.4-.6-4.8-1.9-1.3-1.3-2-2.9-2-4.8s.7-3.6 2-4.9c1.3-1.3 2.9-1.9 4.8-1.9s3.5.6 4.9 1.9 2 2.9 2 4.9c0 1.9-.7 3.4-2 4.8-1.4 1.3-3 1.9-4.9 1.9zm5.1 81.5h-10.4v-65h10.4v65zM357.2 96.7h-10.7V55.2h-47.1v41.5h-10.7v-91h10.7v39.9h47.1V5.7h10.7v91zM426.2 96.7h-10.4V86.6h-.3c-4.5 7.8-11.2 11.7-20 11.7-6.5 0-11.5-1.7-15.2-5.1-3.7-3.4-5.5-8-5.5-13.6 0-12.1 7.2-19.2 21.5-21.2l19.5-2.7c0-11-4.5-16.6-13.4-16.6-7.8 0-14.9 2.7-21.2 8V36.3c6.4-4.1 13.8-6.1 22.1-6.1 15.3 0 22.9 8.1 22.9 24.2v42.3zm-10.4-32.9L400.1 66c-4.8.7-8.5 1.9-10.9 3.6-2.5 1.7-3.7 4.8-3.7 9.1 0 3.2 1.1 5.8 3.4 7.8s5.3 3 9 3c5.2 0 9.4-1.8 12.8-5.4 3.4-3.6 5-8.2 5-13.7v-6.6zM501.3 91.5c0 23.9-11.4 35.8-34.3 35.8-8 0-15.1-1.5-21.1-4.6v-10.4c7.3 4.1 14.3 6.1 20.9 6.1 16 0 24-8.5 24-25.5v-7.1h-.3c-5 8.3-12.4 12.4-22.3 12.4-8.1 0-14.6-2.9-19.5-8.7-4.9-5.8-7.4-13.5-7.4-23.3 0-11 2.7-19.8 8-26.3s12.6-9.8 21.8-9.8c8.8 0 15.3 3.5 19.5 10.5h.3v-9h10.4v59.9zm-10.4-24.2v-9.6c0-5.2-1.7-9.6-5.2-13.3-3.5-3.7-7.8-5.5-13-5.5-6.4 0-11.5 2.3-15.1 7-3.6 4.7-5.5 11.2-5.5 19.6 0 7.2 1.7 13 5.2 17.4 3.5 4.3 8.1 6.5 13.9 6.5 5.8 0 10.6-2.1 14.3-6.2 3.5-4.1 5.4-9.4 5.4-15.9zM527.7 15.2c-1.9 0-3.4-.6-4.8-1.9s-2-2.9-2-4.8.7-3.6 2-4.9 2.9-1.9 4.8-1.9 3.5.6 4.9 1.9c1.3 1.3 2 2.9 2 4.9 0 1.9-.7 3.4-2 4.8-1.4 1.3-3 1.9-4.9 1.9zm5 81.5h-10.4v-65h10.4v65zM646.1 96.7h-10.4V59.4c0-7.2-1.1-12.4-3.3-15.6-2.2-3.2-6-4.8-11.2-4.8-4.4 0-8.2 2-11.3 6.1-3.1 4.1-4.7 8.9-4.7 14.6v37.1h-10.4V58.1c0-12.8-4.9-19.2-14.8-19.2-4.6 0-8.3 1.9-11.3 5.7-3 3.8-4.4 8.8-4.4 14.9v37.1h-10.4v-65h10.4V42h.3c4.6-7.9 11.3-11.8 20.2-11.8 4.4 0 8.3 1.2 11.6 3.7 3.3 2.5 5.6 5.7 6.8 9.7 4.8-9 12-13.5 21.6-13.5 14.3 0 21.5 8.8 21.5 26.5v40.1zM693 98.3c-9.6 0-17.3-3-23-9.1-5.7-6.1-8.6-14.1-8.6-24.2 0-10.9 3-19.4 9-25.6 6-6.1 14-9.2 24.2-9.2 9.7 0 17.3 3 22.7 9 5.4 6 8.2 14.2 8.2 24.8 0 10.4-2.9 18.7-8.8 24.9-6 6.2-13.9 9.4-23.7 9.4zm.7-59.3c-6.7 0-12 2.3-15.9 6.8-3.9 4.5-5.8 10.8-5.8 18.8 0 7.7 2 13.8 5.9 18.2s9.2 6.7 15.8 6.7c6.7 0 11.9-2.2 15.5-6.5 3.6-4.4 5.4-10.6 5.4-18.6 0-8.1-1.8-14.4-5.4-18.8-3.6-4.4-8.7-6.6-15.5-6.6zM775.9 42.3c-1.8-1.4-4.4-2.1-7.9-2.1-4.4 0-8.2 2.1-11.1 6.3-3 4.2-4.5 9.9-4.5 17.1v33.1H742v-65h10.4v13.4h.3c1.5-4.6 3.7-8.1 6.8-10.7 3-2.6 6.5-3.8 10.2-3.8 2.7 0 4.8.3 6.2.9v10.8zM792.5 15.2c-1.9 0-3.4-.6-4.8-1.9-1.3-1.3-2-2.9-2-4.8s.7-3.6 2-4.9c1.3-1.3 2.9-1.9 4.8-1.9s3.5.6 4.9 1.9c1.3 1.3 2 2.9 2 4.9 0 1.9-.7 3.4-2 4.8-1.4 1.3-3 1.9-4.9 1.9zm5.1 81.5h-10.4v-65h10.4v65z" class="st1"/></g></svg>