<svg xmlns="http://www.w3.org/2000/svg" width="254.529" height="529.779"><path fill="#fff" d="m179.687 429.058 25.412-1.2 12.848 21.405 9.255 17.616h4.355l14.66 6.571 6.364 9.445 1.089 6.609-36.131 34.253-24.04 3.963a5.068 5.068 0 0 1-3.74-.866l-2.423-1.715a3.653 3.653 0 0 1-1.464-3.718l1.6-7.763 16.1-7.311 6.07-11.318 4.181-13.381-.338-6.081Z" data-name="パス 1068"/><path fill="#fff" d="m41.424 498.675-20.458 7.752-15.716 2.455-4.736 4.921.947 7.033 2.248 6.364h9.495l27.464.855h15.256l17.317-4.3v-18.978l-3.794-7.028Z" data-name="パス 1069"/><path fill="#fff" d="m153.116 109.097.2 1.051 7.774 40.453v33.229l-8.709 56.867-4.578 31.465 2.951 17.132 12.113 24.225 13.588 25.553 20.975 39.288 16.396 36.337-59.185 14.922-51.825 2.657-46.889-20.387 2.22-153.451v-25.123l8.863-24.519 22.3-60.71Z" data-name="パス 1070"/><path fill="#fff" d="m65.008 135.398 5.623 3.495 15.7-.773-2.031 8.051 18.514 1.916 50.6-37.96-1.481-8.416 7.681-14.622 5.025-21.715 4.132-19.592-5.313-21.144-13-15.983-11.523-6.497h-12.308l-10.572 3.1-5.961 2.782-8.819 7.7-5.346 11.378-3.076 11.225-.887 10.077-5.76 13.593-.147 20.05-1.758 9.6-6.946 11.372 3.239 13-2.51 10.485Z" data-name="パス 1071"/><path fill="#fff" d="M30.227 120.022c.147-.74 1.633-9.064 1.633-9.064V105.1l-3.348-8.411a12.091 12.091 0 0 1-.691-6.407l1.748-10.583-.74-7.24-1.553-13.005 2.292-2.553 3.337 6.429s1.045 10.485 1.334 10.343 11.976-3.522 11.976-3.522l5.019-15.384 3.549-2.363 1.916 1.181-3.811 22.26 3.811-3.963 3.462 1.633.158 4.355-5.242 19.6-5.841 4.976.648 22.45h2.363l8.051 26.882v2.51l22.38-7.529-14.007 40.764s-18.612 3.544-19.434 3.1-11.579-5.809-11.579-5.809l-7.752-21.362-2.618-26.74Z" data-name="パス 1072"/><path fill="#fff" d="M28.502 94.36a3.609 3.609 0 0 0 1.884-3.468c0-3.5.5-7 .664-10.5.054-1.274 1.492-2.4.392-3.756-.272-.338-.7-.822-1.007-.795a1.492 1.492 0 0 0-.98.887 11.922 11.922 0 0 0-.544 2.406c-.544 3.724-1.121 7.442-1.633 11.176a5.079 5.079 0 0 0 1.187 4.05 7.418 7.418 0 0 0-.441 2.537c.425 2.178 1.089 4.355 1.677 6.533a14.691 14.691 0 0 1 .915 2.722c.147 2.466.114 4.943.093 7.414a11.575 11.575 0 0 1-.294 3.435 15.954 15.954 0 0 1-1.791 3.049c-.174.283-.365.544-.544.833-.457.7-1.225 1.35-1.323 2.1-.446 3.392-.806 6.8-1 10.213a31.4 31.4 0 0 0 .68 9.075c.735 3.087 1.4 6.2 1.9 9.331.621 3.941 1.023 7.921 1.557 11.878.207 1.535 1.154 2.439 2.227 2.1 1.268-.4 1.345-1.454 1.176-2.591-.376-2.515-.664-5.041-1.089-7.545-.5-2.918-1.089-5.825-1.7-8.71-.457-2.134-1.034-4.241-1.492-6.086a50.57 50.57 0 0 0 4.861 3.043 3.864 3.864 0 0 0 4.311-.289c2.869-2.3 5.618-4.78 8.618-6.908 3.359-2.384 4.938-5.727 6.021-9.761.664 2.178 1.377 4.132 1.813 6.13a236.538 236.538 0 0 1 2.134 11.193c.5 2.94.855 5.9 1.181 8.857.294 2.64.142 5.379.778 7.921a11.633 11.633 0 0 1-.593 7.268 342.2 342.2 0 0 1-3.969 9.772c-.359.844-.24 1.633.544 1.769a2.224 2.224 0 0 0 1.943-.784c1.5-3.751 2.961-7.523 4.132-11.383a3.931 3.931 0 0 1 2.319-3.01c.463 2.874.9 5.613 1.35 8.351.142.855.147 1.693 1.5 1.633s1.236-.991 1.23-1.753a26.592 26.592 0 0 0-4.469-14.334 19.8 19.8 0 0 1-1.421-3.359l16.609-5.819c-.441 1.426-.8 2.569-1.154 3.718-2.085 6.75-4.23 13.484-6.239 20.257-1.209 4.067-2.178 8.2-3.321 12.3-.082.316-.343.773-.593.833q-5.879 1.334-11.78 2.559c-3.555.746-6.957.593-10.1-1.584-2.629-1.818-4.932-3.887-6.173-6.914s-2.482-6.173-3.767-9.255a23.61 23.61 0 0 0-1.541-3 1.149 1.149 0 0 0-1-.3c-.191.038-.425.544-.392.833a11.5 11.5 0 0 0 .463 2c.626 2.063 1.268 4.116 1.911 6.173 1.492 4.774 3.364 9.255 7.447 12.575 2.472 2 5.232 3.626 8.264 3.653 4.05.038 8.117-.762 12.162-1.328a22.606 22.606 0 0 0 3.734-1.2c-.174 1.007-.24 1.775-.446 2.5-1.775 6.2-2.178 12.6-2.662 18.972a24.208 24.208 0 0 1-.174 4.045c-.637 2.45-1.541 4.84-2.412 7.229-2.608 7.164-3.441 14.595-3.506 22.162-.033 3.266.278 6.6-.789 9.8a56.554 56.554 0 0 0-1.633 5.618c-.61 2.722-1.176 5.471-1.541 8.237-.882 6.739-1.524 13.517-2.471 20.251-1.089 7.73-2.352 15.433-3.62 23.136-1.034 6.3-2.178 12.575-3.266 18.858-1.143 6.386-2.292 12.777-3.533 19.146-.517 2.673-1.334 5.286-1.938 7.943-.664 2.907-1.2 5.847-1.873 8.754-.86 3.767-1.807 7.523-2.722 11.285s-1.775 7.425-2.618 11.149c-.936 4.1-1.856 8.2-2.722 12.314-.381 1.8-.615 3.637-.92 5.444-.544 3.266-1.187 6.533-1.557 9.8a1.869 1.869 0 0 0 1.633 2.3c.234 0 .484.3.659.517 1.187 1.421 2.275 2.923 3.533 4.273a14.2 14.2 0 0 0 10.888 4.616c3.092 0 6.184.114 9.255.18a17.766 17.766 0 0 1 .31 2.1c.049 5.177.033 10.343.114 15.531.044 2.929.3 5.858.343 8.786q.082 6.369-.027 12.744c-.049 3.065-.131 6.141-.4 9.195-.348 3.925-.893 7.828-1.366 11.742-.142 1.192.076 2.722-.544 3.5-1.187 1.459-2.891 2.493-4.627 3.909v-2.177c-.626.289-1.268.637-1.949.882a29.555 29.555 0 0 0-2.88.915c-3.3 1.573-6.6 3.185-9.848 4.867a43.765 43.765 0 0 1-13.724 4.262c-3.707.544-7.491.9-11 2.537a9.764 9.764 0 0 0-5.531 7.425c-.452 2.5.054 5.248.485 7.828a5.4 5.4 0 0 0 4.137 4.508c.915.24 1.878.484 2.21-.784a44.673 44.673 0 0 0 5.988 1.475c4.948.544 9.913.958 14.883 1.176 4.6.2 9.211.06 13.816.12 2.139 0 4.279.212 6.418.229 1.089 0 2.276-.425 2.178-1.633-.049-.5-1.415-1.181-2.232-1.257-3.315-.3-6.647-.457-9.979-.544-5.03-.152-10.066-.125-15.09-.338-4.094-.169-8.166-.642-12.26-.838-1.312-.065-2.961-.828-3.778 1.029-.381-.19-.719-.386-1.089-.544-2.493-1.051-3.441-3.087-3.473-5.624a2.112 2.112 0 0 1 .675-1.388c.719-.664.68-1.138-.125-1.606a7.875 7.875 0 0 0-.92-.425c1.688-3.533 3.609-6.6 7.915-7.012a19.454 19.454 0 0 0 1.992-.386c2.782-.572 5.574-1.089 8.335-1.753 1.089-.261 1.415.283 1.688 1.089.343 1 .648 2.02.991 3.021a2.551 2.551 0 0 0 2.885 1.965 2.835 2.835 0 0 0 2.635-2.368c.25-.789.354-1.633.544-2.515a13.626 13.626 0 0 0 1.633 2.553 3.359 3.359 0 0 0 2.139.953c.871 0 1.339-.789 1.481-1.742.191-1.241.544-2.461.822-3.734.163.12.272.158.316.234a3.571 3.571 0 0 0 2.58 2.15c1.551.261 2.248-.512 2.8-1.737.065-.131.588-.191.817-.093 1.546.68 2.537.25 2.9-1.372.158-.708.229-1.443.354-2.248 2.477.626 4.845 1.268 7.24 1.8a7.291 7.291 0 0 0 2.76.169c2.352-.408 4.66-1.029 7-1.481 3.326-.648 6.663-1.225 10.126-1.851.25 2.874.637 5.624.7 8.384.087 3.691-.06 7.387-.174 11.084a1.459 1.459 0 0 1-.713 1.121c-2.014.621-4.045 1.208-6.1 1.633-4.448.936-8.917 1.753-13.37 2.678a1.459 1.459 0 0 0-.827.953c-.054.2.468.778.751.795a18.885 18.885 0 0 0 4.039 0c2.722-.425 5.444-1.187 8.166-1.551a40.478 40.478 0 0 0 9.543-2.591 2.341 2.341 0 0 0 1.7-2.45c-.109-4.312-.142-8.628-.49-12.924-.223-2.8-1.089-5.553-1.366-8.362-.125-1.437-.294-2.379-1.807-2.423.131-.8.278-1.519.37-2.248.5-3.985.866-7.992 1.508-11.976.811-5.025 1.84-10.017 2.787-15.02.512-2.722.713-5.526 1.633-8.079a20.733 20.733 0 0 0 .953-6.462 71.742 71.742 0 0 0-1.274-18.041c-.43-1.916-.648-3.881-.969-5.825l.463-.327a40.921 40.921 0 0 1 4.355 3.642c1.7 1.845 3.119 3.952 4.725 5.9a3.266 3.266 0 0 0 1.633 1.154c3.811.8 7.382-.147 10.888-1.53 3.179-1.252 6.266-3.147 9.559-3.609a20.034 20.034 0 0 1 16.332 4.529 9.053 9.053 0 0 0 8.748 1.633c4.263-1.334 7.077-4.475 8.759-8.628a2.477 2.477 0 0 1 1.753-1.219c5.77-.512 11.5-1.731 17.322-1.2 2.809.256 5.64.893 7.806 2.929 2.373 2.232 4.088 2.722 7.05 1.361a47.742 47.742 0 0 0 4.355-2.52l.479.708c2.9 4.279 5.618 8.656 8.656 12.8 2.357 3.212 5.1 6.141 7.681 9.189 1.769 2.09 3.7 4.061 5.308 6.271 1.905 2.613 3.56 5.444 5.281 8.166.855 1.366 1.519 2.858 2.461 4.159a2.21 2.21 0 0 0 1.884.757c.849-.245 1.007-1.089.544-1.982-.675-1.279-1.268-2.6-1.965-3.876a57.2 57.2 0 0 0-7.316-10.942c-3.326-3.691-6.456-7.551-9.685-11.323-.768-.9-1.633-1.7-2.352-2.64-1.5-2.009-2.934-4.066-4.382-6.113-1.584-2.232-3.152-4.464-4.758-6.75 2.842-2.139 5.907-1.873 8.933-1.372s5.945 1.328 8.939 1.758c1.481.212 3.049-.218 4.573-.185a2.693 2.693 0 0 1 2.02.713c2.248 3.658 4.437 7.36 6.478 11.138 1.671 3.076 3.152 6.26 4.649 9.423 1.693 3.571 3.266 7.186 4.976 10.752a23.076 23.076 0 0 0 2.793 5c.544.68 2.177.844 3.212.691 1.17-.169.506-1.318.463-2.08 0-.065.1-.131.169-.218l4.9 2.787c-.544 2.178-2.243 3.386-3.7 4.834a14 14 0 0 0-3.484 5.259 19.13 19.13 0 0 1-7.453 9.543 3.317 3.317 0 0 1-2.444.653 21.067 21.067 0 0 1-4.2-2.3 1.633 1.633 0 0 1-.4-1.317c.272-2.281.719-4.546.909-6.832a4.426 4.426 0 0 0-.757-2.363c-.169-.283-1-.4-1.388-.25-.267.1-.392.8-.414 1.241s.24 1.034.212 1.541c-.169 2.994-.316 5.988-2.569 8.367a.783.783 0 0 0-.131.261q-2.684 6.614-5.378 13.228c-.795 1.943-1.633 3.713-3.925 4.524-3.549 1.247-6.979 2.831-10.447 4.3-1.66.7-3.163 1.551-3.571 3.566-.425 2.1-1.056 4.148-1.421 6.255a8.711 8.711 0 0 0 1 5.907c.294.506 1.089.719 1.671 1.089.212-.544.457-1.089.626-1.633a1.322 1.322 0 0 0-.082-.729c-1.089-3.375-.261-6.674.419-9.973a1.687 1.687 0 0 1 .746-1.023c4.137-2.118 8.291-4.181 12.488-6.282.947 1.633 1.987.746 2.961.289.746.827 1.437 1.584 2.118 2.352a2.722 2.722 0 0 0 2.891.985c2.265-.631 3.544-4.524 1.943-6.282a44.192 44.192 0 0 0-4.126-3.566l.392-1.089c.572.474 1.089.876 1.546 1.285a7.8 7.8 0 0 0 4.774 1.971c1.633.076 2.433-.544 2.428-2.178a16.952 16.952 0 0 0-.577-3.266c.866-.544 2.178-.947 2.39-1.677.3-.909-.267-2.107-.435-3.054a11.755 11.755 0 0 0 3.457-.642 21.041 21.041 0 0 0 9.641-10.888 16.984 16.984 0 0 1 4.246-6.086c1.481-1.355 2.831-2.624 2.755-5 1.17.457 2.384.593 3.1 1.263 3.811 3.539 7.73 7.006 9.587 12.14.4 1.089 1.508 1.927 2.281 2.874a9.926 9.926 0 0 0-1.154.969q-5.444 5.776-10.806 11.574c-1.726 1.862-3.381 3.811-5.139 5.607-2.477 2.569-5.041 5.057-7.54 7.621s-5.683 4.192-7.469 7.376c-.2.365-.768.544-1.181.762a30.323 30.323 0 0 1-2.853 1.492 17.771 17.771 0 0 1-3.669 1.361c-3.713.713-7.436 1.459-11.187 1.824-4 .381-8.046.321-12.064.512a4.753 4.753 0 0 0-1.481.621c.245.43.386 1.023.757 1.252a3.621 3.621 0 0 0 1.807.544c4.551.076 9.1.577 13.648-.272 2.983-.544 6.059-.642 8.993-1.366a43.463 43.463 0 0 0 6.6-2.695 6.552 6.552 0 0 0 3.631-3.01 6.313 6.313 0 0 1 1.546-1.758c2.325-2.03 4.8-3.9 7.006-6.054s4.175-4.622 6.282-6.914c2.357-2.559 4.752-5.079 7.126-7.621.632-.675 1.241-1.377 1.856-2.074 2.178-2.45 4.3-4.9 6.495-7.338.985-1.089.991-1.905-.152-2.934 1.252-.544 1.089-1.7.713-2.531a22.994 22.994 0 0 0-2.929-5.313 52.92 52.92 0 0 0-6.347-6.391c-1.78-1.524-3.468-3.571-6.326-3-.191.038-.446-.3-.691-.425-3.114-1.568-6.239-3.114-9.353-4.693a2.178 2.178 0 0 1-.936-.811c-1.334-2.564-2.57-5.182-3.925-7.73-1.241-2.341-2.624-4.605-3.892-6.93-1.709-3.119-3.321-6.293-5.074-9.38-1.5-2.635-3.136-5.183-4.938-8.133 2.112-.218 3.838-.4 5.564-.544 1.388-.136 2.374-1.127 2.036-2.15-.223-.675-.61-1.3-.855-1.971a7.466 7.466 0 0 1-.234-1.307 6.043 6.043 0 0 1 1.573-.174c1.633.25 3.3.67 4.9-.152.392-.2.893-.664.9-1.013a2.1 2.1 0 0 0-.724-1.334 3.4 3.4 0 0 0-1.328-.544 5.651 5.651 0 0 1-3.68-3.01 4.336 4.336 0 0 0 1.6-.033 5.02 5.02 0 0 0 2.237-1.519c.5-.882-.544-2.629-1.459-2.858a14.078 14.078 0 0 1-7.012-4.676 11.771 11.771 0 0 1-2.259-3.424c-.98-2.444-1.573-5.041-2.542-7.485-1.3-3.266-2.771-6.462-4.219-9.663-1.606-3.549-3.3-7.077-4.9-10.621-2.069-4.578-4.023-9.2-6.13-13.757-1.633-3.566-3.462-7.077-5.172-10.588-.778-1.606-1.4-3.266-2.243-4.861-1.633-2.972-3.266-5.907-5-8.814-2.635-4.448-5.286-8.89-8.019-13.278-2.9-4.644-6.1-9.113-8.824-13.855-3.266-5.634-6.56-11.263-8.471-17.556-.784-2.6-1.813-5.139-2.384-7.779-.746-3.446-1.056-6.984-1.72-10.458a49.484 49.484 0 0 1-.648-13.582c.648-7.491 1.3-14.981 3.076-22.32 1.3-5.368 2.178-10.839 3.157-16.272.9-4.9 1.8-9.8 2.58-14.7.713-4.486 1.176-9.015 1.905-13.5a102.437 102.437 0 0 0 1.552-18.259c-.147-8.3-.37-16.587-.713-24.878a113.428 113.428 0 0 0-1.089-11.6c-.68-4.649-1.633-9.255-2.515-13.876-1.051-5.553-2-11.127-3.266-16.636a35.515 35.515 0 0 0-2.591-6.495c-.163-.359-.882-.474-1.35-.7-.1.5-.4 1.062-.278 1.5.289 1.029.985 1.96 1.17 2.994 1.383 7.774 2.755 15.548 3.974 23.349.768 4.9 1.459 9.853 1.845 14.807.446 5.662.582 11.35.74 17.028.093 3.332-.261 6.685-.027 10a109.042 109.042 0 0 1-1.024 20.802c-.795 6.533-2.041 13.027-3.049 19.549-.49 3.147-.778 6.326-1.361 9.451-.768 4.11-1.84 8.166-2.591 12.276-1.263 6.979-2.553 13.958-3.495 20.981a78.79 78.79 0 0 0-.866 14.034 88.617 88.617 0 0 0 2.488 17.252c.9 3.647 2.27 7.077 3.4 10.621 1.916 6.021 5.308 11.269 8.454 16.631 2.276 3.881 4.84 7.589 7.246 11.394 1.29 2.041 2.526 4.121 3.773 6.19 1.96 3.266 4 6.5 5.836 9.837 1.6 2.9 2.951 5.928 4.464 8.874 2.02 3.941 4.192 7.806 6.113 11.791 1.829 3.811 3.381 7.7 5.139 11.519 2.4 5.221 4.9 10.387 7.3 15.613s4.616 10.419 6.952 15.618c.882 1.971 1.845 3.9 2.787 5.879a14.841 14.841 0 0 1-2.657-.027 37.161 37.161 0 0 0-12.276.114q-6.255.931-12.483 2.025a38.99 38.99 0 0 0-6.533 1.481c-5.155 1.922-10.142 4.246-15.5 5.662a94.148 94.148 0 0 0-9.951 3.729c-1.9.74-3.756 1.6-5.656 2.341-1.584.621-3.043.283-3.664-.621 1.258-1.236 2.548-2.4 3.713-3.686.92-1.007.849-2.673-.12-2.9a4.4 4.4 0 0 0-2.542.582c-1.633.746-3.076 1.916-4.747 2.406a28.485 28.485 0 0 1-7.257 1.252 46.219 46.219 0 0 1-10.381-.713c-3.315-.7-6.44-2.286-9.652-3.462-3.364-1.23-6.75-2.39-10.1-3.658a17.137 17.137 0 0 0-8.982-.642 15.9 15.9 0 0 0-4.665 1.835c-1.829.969-3.533 2.178-5.3 3.266-.354-2.265-.713-4.437-1.029-6.614-.484-3.37-.931-6.75-1.4-10.12l-1.4-10.142c-.419-2.972-.871-5.945-1.258-8.922-.294-2.314-.463-4.644-.768-6.952-.392-3.016-.909-6.021-1.29-9.037-.675-5.319-1.225-10.654-1.954-15.961-.452-3.266-1.176-6.484-1.72-9.734-.6-3.587-1.062-7.2-1.709-10.779-.582-3.185-1.4-6.331-2-9.521a856.308 856.308 0 0 1-2.678-15.352c-1.16-6.963-2.357-13.92-3.386-20.9-.746-5.068-1.274-10.169-1.829-15.243a38.277 38.277 0 0 1 0-4.05c.67 1.562 1.263 2.891 1.813 4.246.4 1 1 2.123 2.134 1.688 1.328-.512.544-1.818.245-2.684a51.139 51.139 0 0 1-2.918-14.927c-.327-5.591-.114-11.214-.065-16.822a48.493 48.493 0 0 1 2.515-14.7c1.372-4.2 3.157-8.264 4.747-12.4 1.437-3.74 2.825-7.5 4.3-11.231 1.546-3.936 3.059-7.888 4.774-11.748 1.3-2.934 2.961-5.705 4.306-8.618 1.018-2.21 1.7-4.578 2.689-6.8 1.236-2.771 2.662-5.444 3.958-8.2 1.982-4.2 3.969-8.394 5.852-12.635.757-1.709 2.923-3.005 1.8-4.948 1 0 2.3.4 3-.082a26.967 26.967 0 0 0 4.355-4.094c.256-.278-.114-1.127-.212-1.829-2.695 1.018-4.012 3.68-6.69 3.9a9.218 9.218 0 0 0-.06-2.912 3.461 3.461 0 0 1 .327-2.667c.212-.6.354-1.7.065-1.905-.784-.544-1.2.272-1.666.887-2.232 2.967-4.42 6.032-8.661 6.407-.419-.931-.822-1.677.316-2.635a11.056 11.056 0 0 0 2.722-3.56c1.633-3.4 2.929-6.974 4.616-10.343 1.307-2.618 2.956-5.085 5.765-6.44 2.118-1.018 4.29-1.933 6.3-3.13a20.066 20.066 0 0 0 7.915-8.71 29.131 29.131 0 0 0 1.976-5.912 44.709 44.709 0 0 0 1.345-7.861c.218-4.524.338-9.015 2.591-13.109 2.559-4.649 5.542-8.961 9.761-12.292 1.149-.909 2.325-1.791 3.473-2.722a9.115 9.115 0 0 0 2.461-2.085 28.6 28.6 0 0 0 3.266-11.748 43.006 43.006 0 0 0-1.339-15.45c-1.16-4.165-4.137-6.729-7.551-8.928-2-1.285-4.2-2.286-6.119-3.675a25.042 25.042 0 0 1-9.022-11.751c-.1-.256-.354-.648-.544-.642a6.242 6.242 0 0 0-2.782.332 30.306 30.306 0 0 0-12.592 13.985 26.784 26.784 0 0 0-2.58 10.452c0 .925-.131 2.281 1.138 2.363s1.165-1.258 1.421-2.178c.855-3.054 1.633-6.13 2.64-9.135a26.439 26.439 0 0 1 5.406-8.8c1.758-2.02 3.811-3.811 5.564-5.553 1.573 2.853 2.874 5.5 4.448 7.975 2.178 3.408 5.384 5.716 8.775 7.8a198.667 198.667 0 0 1 6.282 4.045 4.545 4.545 0 0 1 .86 1.089 9.254 9.254 0 0 1-2.749-.985 9.548 9.548 0 0 0-5.387-1.144c-.484.044-.931.512-1.394.778.436.387.882 1.121 1.307 1.089 4.088-.1 6.772 2.918 10.12 4.437.158.071.25.4.272.621.359 3.724.958 7.453.969 11.182a36.667 36.667 0 0 1-1.219 8.416c-.387 1.633-.686 3.364-2.139 4.676-3.713 3.364-8.111 5.9-11.339 9.848-4.132 5.052-6.935 10.594-7.545 17.17q-.484 5.161-1.279 10.283a19.554 19.554 0 0 1-4.448 9.483c-2.64 3.206-6.347 4.8-9.946 6.565a8.967 8.967 0 0 0-3.266 2.031 36.725 36.725 0 0 0-5.754 9.652 54.809 54.809 0 0 1-3.7 8.422 56.061 56.061 0 0 1-4.845 6.337c-1.127-.92-1.437.316-1.731.724-.806-.446-1.7-1.345-2.237-1.17-3.484 1.132-6.892 2.488-10.316 3.811-1.513.577-3.01 1.219-4.589 1.862a7.225 7.225 0 0 1-.414-1.029c-.893-4.943-1.573-9.935-2.722-14.818-.931-3.941-2.466-7.741-3.647-11.628-.321-1.062-.544-1.992-1.954-1.726 0-.61.212-1.274-.033-1.59-1.568-2.041-1.247-4.448-1.394-6.734-.256-4.175-.381-8.356-.512-12.521a1.486 1.486 0 0 1 .6-1c1.606-1.2 3.266-2.346 4.9-3.528.267-.191.642-.4.719-.67.86-3.043 1.764-6.081 2.466-9.157.544-2.417.762-4.9 1.285-7.333s.61-2.406-2.063-3.3a22.765 22.765 0 0 0-1.35 3.43c-.92 4.11-1.579 8.28-2.635 12.352-.327 1.279.169 2.891-1.268 3.876a95.232 95.232 0 0 0-5.3 3.9 2.708 2.708 0 0 0-1.16 1.633c0 .4.915.827 1.372 1.2v11.34c0 1.247.142 2.472-1.089 3.4-.817.615-.463 1.366.376 1.9a1.4 1.4 0 0 1 .24 2.488 12.072 12.072 0 0 1-9.772 3.522 4.9 4.9 0 0 1-4.007-2.5c-.724-1.2-1.361-2.45-2.063-3.718 1.8.327 1.726-1.17 1.7-2.08-.1-3.266-.419-6.533-.659-9.853 1.16-.675 1.356-1.459.735-3.038-1.2-3.059-2.433-6.1-3.517-9.195-.346-.851-.547-1.537-1.63-1.423Z" data-name="パス 1073"/><path fill="#fff" d="M78.28 234.398a15.059 15.059 0 0 0 2.978 7.028c2.025 2.874 4.932 4.355 8.193 5.275a1.421 1.421 0 0 0 1.274-.359 1.6 1.6 0 0 0 .109-1.464 12.945 12.945 0 0 0-2.5-2.08c-1.481-.974-3.13-1.715-4.546-2.771a4.775 4.775 0 0 1-1.72-5.542c.909-2.989 1.818-5.988 2.657-8.993.582-2.1.849-4.29 1.606-6.315 1.35-3.626 2.912-7.17 4.464-10.719a141.409 141.409 0 0 0 8.373-23.784c1.279-5.346 3.212-10.539 4.758-15.825.691-2.363 1.132-4.8 1.742-7.191a83.827 83.827 0 0 1 2.39-8.819c1.443-3.854 3.549-7.469 4.872-11.361a52.206 52.206 0 0 1 9.8-17.039c1.089-1.3 2.129-3.065 4.083-3.239a10.9 10.9 0 0 1 8.3 2.178c.365.289 1.013.229 1.53.332.114-.593.441-1.247.289-1.753a3.027 3.027 0 0 0-1.236-1.323c-3.468-2.335-7.219-2.031-11-1.029a3.392 3.392 0 0 0-1.415.969c-1.355 1.415-2.749 2.82-3.969 4.355a79.05 79.05 0 0 0-5.847 7.861 77.6 77.6 0 0 0-3.767 8.057c-1.557 3.364-3.3 6.658-4.644 10.109a92.928 92.928 0 0 0-2.874 9.407c-.61 2.227-.9 4.54-1.546 6.756s-1.633 4.2-2.292 6.342c-1.089 3.424-1.992 6.9-3.027 10.343-1.372 4.567-2.635 9.184-4.241 13.669-1.366 3.811-3.168 7.485-4.758 11.225-1.17 2.749-2.51 5.444-3.419 8.286-1.279 4.007-2.178 8.128-3.364 12.167a4.338 4.338 0 0 1-1.475 2.412c-3.6 2.178-4.4 5.444-4.322 9.293.038 1.987.659 4.224-1.867 5.934 0-2.831-.082-5.444 0-8.013.158-4.094.435-8.166.653-12.265.071-1.252.185-2.51.136-3.756 0-.31-.588-.6-.909-.893-.25.3-.642.572-.735.92-.348 1.274-.577 2.575-.882 3.86a19.645 19.645 0 0 0-.762 3.125c-.316 5.444-.7 10.888-.724 16.332a36.877 36.877 0 0 0 1.089 8.868 34.085 34.085 0 0 0 3.636 9.118 21.241 21.241 0 0 0 5.923 7.023c1.633 1.16 3.179 2.455 5.248 2.989a14.008 14.008 0 0 0 8.482 0 2.428 2.428 0 0 1 1.835.376c4.126 2.771 8.041 5.9 12.347 8.351 5.09 2.912 10.458 5.357 15.787 7.806a69.683 69.683 0 0 0 8.013 2.787c.936.3 2.134.381 2.521-.795s-.452-1.894-1.519-2.33c-.9-.365-1.775-.773-2.657-1.181-4.355-2.02-8.743-4.034-13.109-6.081-4.077-1.905-8.166-3.762-12.194-5.809-2.412-1.23-4.649-2.8-6.941-4.2 1.7-.925 3.364-1.742 4.932-2.722 1.464-.9 1.666-2.722.359-3.343a3.632 3.632 0 0 0-2.412 0c-2.178.7-4.273 1.579-6.413 2.379-5.03 1.878-9.451.626-13.359-2.771-1.415-1.225-2.912-2.363-3.522-4.388-.762-2.5-1.927-4.9-2.9-7.322-.855-2.134-.958-4.126.642-6.075 1.23-1.5 2.433-3.081 2.21-5.275-.18-1.726-.229-3.468-.239-5.2-.011-1.534.078-3.085 1.875-3.907Z" data-name="パス 1074"/><path fill="#fff" d="M131.537 419.357a32.875 32.875 0 0 0-1.247-3.718c-1.089-2.346-2.319-4.649-3.549-6.941-1.6-2.961-3.266-5.885-4.861-8.841s-3.125-5.781-4.611-8.71c-1.911-3.811-3.7-7.621-5.623-11.432-1.666-3.266-3.435-6.494-5.182-9.723-1.2-2.221-2.548-4.355-3.647-6.631-2.433-5.019-4.7-10.115-7.137-15.128-1.8-3.691-3.876-7.267-5.613-10.986-1.606-3.484-2.885-7.115-4.355-10.67-1.089-2.646-2.025-5.351-3.315-7.888a150.424 150.424 0 0 1-8.356-20.088c-1.78-5.264-3.446-10.572-5.221-15.842-.142-.414-.719-.686-1.089-1.023-.267.446-.778.909-.762 1.345a15.788 15.788 0 0 0 .544 3.675c1.356 4.595 2.782 9.167 4.219 13.735 1.089 3.446 2.09 6.925 3.381 10.294 1.187 3.1 2.831 6.032 4.056 9.119 2.139 5.395 3.979 10.888 6.184 16.266 1.633 3.919 3.653 7.67 5.444 11.519 1.845 3.952 3.577 7.959 5.471 11.889 1.851 3.811 3.811 7.621 5.787 11.388 2.254 4.328 4.578 8.618 6.854 12.935 1.018 1.938 2.036 3.881 2.951 5.869 1.138 2.488 2.041 5.084 3.266 7.523 1.154 2.292 2.651 4.415 3.914 6.658 2.684 4.774 5.286 9.6 7.992 14.355a8.366 8.366 0 0 0 2.014 2.254 1.741 1.741 0 0 0 1.551.071c.461-.185.662-.844.94-1.274Z" data-name="パス 1075"/><path fill="#fff" d="M133.823.008c-6.1.3-11.846 1.089-17.224 3.566a16.024 16.024 0 0 0-3.451 2.559c-.2.169-.033.768-.038 1.165a3.468 3.468 0 0 0 1.154-.125c.963-.457 1.845-1.121 2.831-1.5a46.087 46.087 0 0 1 16.93-2.825 18.646 18.646 0 0 1 11.154 3.99 48.717 48.717 0 0 1 7.572 7c3.571 3.952 6.914 8.117 8.961 13.147.893 2.178 2.178 4.235 2.9 6.467a57.478 57.478 0 0 1 2.357 15.918 32.069 32.069 0 0 1-2.45 13.348c-.86 2.118-1.758 4.23-2.477 6.4a32.571 32.571 0 0 0-1.116 4.845c-.474 2.825-.795 5.678-1.247 8.5a40.559 40.559 0 0 1-2.918 8.922c-2.134 5.2-6.135 8.623-10.343 11.857-2.3 1.758-5.014 3.01-6.7 5.444a6.338 6.338 0 0 0-.5 2.254 5.815 5.815 0 0 0 2.227-.387c3.228-2.112 6.505-4.175 9.5-6.582a41.764 41.764 0 0 0 6.315-6.337c1.328-1.633 2.074-3.745 3.092-5.634a26.675 26.675 0 0 0 3.332-10.953c.338-5.444 1.187-10.719 3.549-15.569a34.3 34.3 0 0 0 3.266-13.283 63.8 63.8 0 0 0-1.089-14.116c-1.051-6.25-3.909-11.9-7.1-17.322a43.739 43.739 0 0 0-4.9-6.914c-2.308-2.6-4.97-4.9-7.48-7.295a21.673 21.673 0 0 0-16.107-6.54Z" data-name="パス 1076"/><path fill="#fff" d="M29.198 58.121a21.558 21.558 0 0 1 2.02 9.652c0 1.747-.931 3.811 1.247 5.074.076.044.065.267.071.4.06 1.551.338 1.758 1.78 1.307a14.065 14.065 0 0 1 1.551-.457c3.881-.762 7.763-1.5 11.644-2.248 1.274-.24 1.949-1.356 1.181-2.178a1.754 1.754 0 0 1-.289-1.987c1.165-3.985 2.341-7.964 3.582-11.927.653-2.085 1.4-2.531 3.811-2.5a15.4 15.4 0 0 1 .223 3.446c-.49 3.092-1.448 6.081-2 9.189-.9 5.041-2.9 9.886-4.475 14.807a1.3 1.3 0 0 1-.784.653 31.063 31.063 0 0 0-4.736 1.328c-2.629 1.258-5.357 2.5-7.18 4.9a2.463 2.463 0 0 0-.12 2.341 2.9 2.9 0 0 0 2.33.577c1.089-.2 1.149-1.165.68-2.08a28.784 28.784 0 0 1 2.335-1.807 55.4 55.4 0 0 1 5.166-3.027c.648-.327 1.633-.817 2.178.544.136.348 1.089.653 1.524.544s.838-.784.991-1.285a38.172 38.172 0 0 1 1.633-5.743 14.092 14.092 0 0 1 3.141-3.936c.327-.316 1.394.2 2.118.2a2.645 2.645 0 0 0 1.323-.414c.158-.093.207-.621.1-.844a3.865 3.865 0 0 0-4.11-1.372c-.332.147-.686.245-1.029.365l-.446-.234c.653-2.6 1.127-5.259 2.014-7.779a22.668 22.668 0 0 0 1.492-9.761 2.644 2.644 0 0 0-1.786-2.569c-1.884-.632-5.275.855-5.923 2.673-1.209 3.413-2.4 6.832-3.6 10.251a5.443 5.443 0 0 1 0-1.786c.229-3.027.544-6.048.626-9.08.06-2.178-1.2-3.642-2.749-3.636a3.593 3.593 0 0 0-3.685 3.266c-.544 3.538-1.062 7.077-1.59 10.626a36.632 36.632 0 0 1-.272-5.667 8.222 8.222 0 0 0-1.878-5.858 3.3 3.3 0 0 0-2.047-1.132c-1.356 0-3.174 2.325-3.163 3.734v3.653c-.724-.838-1.138-1.742-1.8-2.009-1.971-.789-4.312 1.323-4.077 3.43.37 3.348.593 6.712.974 10.06a25.941 25.941 0 0 0 .909 4.415 1.557 1.557 0 0 0 1.334.762c.365-.065.789-.784.86-1.263a7.539 7.539 0 0 0-.218-2.041c-.577-4.1-1.181-8.209-1.709-12.325-.071-.346.43-.713.828-1.252Z" data-name="パス 1077"/><path fill="#fff" d="M153.215 143.24c-.98 1.786-2.031 3.484-2.874 5.281-1.96 4.17-3.92 8.34-5.683 12.592-1.7 4.094-3.163 8.291-4.731 12.439-1.415 3.734-2.722 7.513-4.279 11.187-1.824 4.311-3.811 8.552-5.819 12.788-2.063 4.388-4.143 8.77-6.358 13.065-1.769 3.451-3.811 6.767-5.6 10.2-1.633 3.13-3.032 6.386-4.676 9.51-1.851 3.511-3.952 6.9-5.787 10.414-1.47 2.82-2.722 5.743-4.028 8.656-.953 2.178-1.851 4.355-2.608 6.6a1.813 1.813 0 0 0 1.225 2.357 1.715 1.715 0 0 0 2.259-1.149c.936-2.515 2.123-4.938 3.217-7.4 1.056-2.368 2-4.8 3.223-7.077 2.346-4.355 4.9-8.629 7.273-12.994 1.905-3.539 3.587-7.2 5.444-10.752 1.29-2.461 2.722-4.84 4.094-7.262a117.732 117.732 0 0 0 7.387-15.787c1.339-3.538 3.266-6.843 4.736-10.343 1.247-3 2.216-6.119 3.239-9.205 1.209-3.626 2.3-7.295 3.533-10.888 1.274-3.756 2.6-7.5 4.018-11.209 1.317-3.441 2.787-6.821 4.208-10.278Z" data-name="パス 1078"/><path fill="#fff" d="M104.9 13.666a1.827 1.827 0 0 0-2.722.169 25.586 25.586 0 0 0-6.282 8.013c-2.662 5.155-4.693 10.556-4.965 16.424-.136 2.9.082 5.809.114 8.71a3.548 3.548 0 0 1-.25 1.415c-1.176 2.629-2.515 5.193-3.571 7.866a46.864 46.864 0 0 0-3.266 12.706c-.354 3.642-.517 7.191.92 10.735a6.8 6.8 0 0 1 .033 5.716c-.969 1.905-1.862 3.854-2.82 5.77-1.742 3.473-3.664 6.865-5.221 10.42-1.421 3.266-2.112 6.625-.7 10.2a16.446 16.446 0 0 1 1.225 5.711c.087 5.58-2.972 9.527-7.322 12.521-1.747 1.219-3.811 2-5.651 3.081a1.633 1.633 0 0 0-.7 1.383c.093.381.8.67 1.3.866a1.7 1.7 0 0 0 1-.114c5.346-1.666 9.8-4.48 12.613-9.538a15.728 15.728 0 0 0 1.007-14.241 8.866 8.866 0 0 1-.071-7.387c2.412-5.188 4.72-10.436 7.453-15.455a11.938 11.938 0 0 0 .871-10.06c-1.372-3.9-.953-7.8-.43-11.661a64.572 64.572 0 0 1 2.477-10.371c.817-2.635 1.2-5.542 3.413-7.583.147-.131.152-.441.163-.675.093-1.9.087-3.811.267-5.694a70.748 70.748 0 0 1 1.2-10.049 50.67 50.67 0 0 1 3.745-10.311c1.274-2.586 3.321-4.8 5.03-7.164.339-.472.726-.896 1.14-1.403Z" data-name="パス 1079"/><path fill="#fff" d="m75.275 39.65 1.328 1.96c.468-.381 1.241-.686 1.361-1.16 1.023-3.892 3.157-7.251 5.286-10.545a111.446 111.446 0 0 1 6.892-8.928 33.615 33.615 0 0 1 10.6-8.95c3.076-1.633 6.184-2.945 9.8-2.139.343.076.8-.381 1.2-.593-.25-.381-.457-1.045-.768-1.089a14.454 14.454 0 0 0-4.709-.452c-7.077 1.312-12.7 5.3-17.5 10.447-3.909 4.181-7.621 8.541-10.12 13.784-1.171 2.493-2.189 5.028-3.37 7.665Z" data-name="パス 1080"/><path fill="#fff" d="M247.839 482.892a10.74 10.74 0 0 0-1.045.544c-.593.425-1.132.925-1.747 1.317a27.852 27.852 0 0 0-8.961 9.32 23.253 23.253 0 0 1-3.947 4.867 92.006 92.006 0 0 0-8.079 8.079c-1.786 2.177-4.2 3.811-6.3 5.672a7.784 7.784 0 0 0-.936 1.258 5.2 5.2 0 0 0 1.769.484c2.335-.348 3.729-2.177 5.324-3.653 2.847-2.6 5.607-5.291 8.4-7.948a47.33 47.33 0 0 0 3.871-3.729c1.72-2.047 3.152-4.355 4.9-6.386a33.11 33.11 0 0 1 3.811-3.615c1.285-1.089 2.64-2.117 3.979-3.152.871-.67.544-1.383.065-2.041a7.473 7.473 0 0 0-1.104-1.017Z" data-name="パス 1081"/><path fill="#fff" d="M95.989 56.286h-.06c.087.773.12 1.557.267 2.319a52.363 52.363 0 0 0 1.693 8.166 28.561 28.561 0 0 0 3.685 6.25 68.977 68.977 0 0 0 5.482 7.219 28.106 28.106 0 0 0 5.014 3.925c.354.24 1.3-.093 1.753-.441.223-.174.093-1.045-.12-1.486a3.511 3.511 0 0 0-1.089-1.089 49.788 49.788 0 0 1-4.9-3.631 27.5 27.5 0 0 1-6.391-9.064 31.255 31.255 0 0 1-2.749-9.968c-.218-3.032-.414-6.064-.675-9.091-.033-.343-.43-.659-.659-.991-.31.245-.789.43-.9.746a6.45 6.45 0 0 0-.338 1.987c-.043 1.725-.013 3.439-.013 5.149Z" data-name="パス 1082"/><path fill="#fff" d="M62.21 521.358v-.321l3.37-.152a8.872 8.872 0 0 0 2.45-.147 2.281 2.281 0 0 0 1.4-1.372c.163-1.051-.74-1.481-1.682-1.579a8.461 8.461 0 0 0-1.317.136c-6.587.463-13.223.261-19.734 1.742-2.624.6-5.368.664-8.035 1.089-.457.076-.817.768-1.219 1.17.485.283.991.838 1.448.8 5.253-.4 10.5-.969 15.749-1.339 2.512-.174 5.044-.027 7.57-.027Z" data-name="パス 1083"/><path fill="#fff" d="m28.741 523.754.027-.223a5.331 5.331 0 0 0 .887 0c.887-.147 2.02-.12 2.063-1.361s-1.089-1.176-1.927-1.3q-4.769-.681-9.538-1.312-1.372-.179-2.722-.294c-2.052-.169-4.116-.256-6.157-.5-1.829-.218-3.631-.653-5.444-.855-.43-.044-.915.468-1.372.729.31.425.544 1.056.958 1.23a14.8 14.8 0 0 0 2.722.659c2.335.49 4.665 1.018 7.017 1.432 1.764.3 3.56.436 5.34.675 2.68.363 5.413.744 8.146 1.12Z" data-name="パス 1084"/><path fill="#fff" d="M195.24 520.645c3.266-.392 7.224-.833 11.154-1.334a15.111 15.111 0 0 0 3.675-.8c.631-.25 1.481-1.154 1.421-1.671-.1-.953-.964-1.328-2.08-1.089a69.321 69.321 0 0 1-7.033 1.339c-4.219.544-8.454.882-12.673 1.4-.506.06-.947.664-1.421 1.018.544.376 1.023 1.018 1.579 1.089 1.557.136 3.135.048 5.378.048Z" data-name="パス 1085"/><path fill="#fff" d="m114.22 70.653.082.354c2.923-.7 5.869-1.323 8.754-2.178a2.25 2.25 0 0 0 1.312-1.726c-.136-.866-1.089-1.089-1.987-.735a8.8 8.8 0 0 1-.985.272c-4.1 1.121-8.193 2.51-12.221-.3-.3-.207-.953.087-1.443.147.093.479.027 1.089.31 1.415 1.622 1.809 3.587 3.05 6.178 2.751Z" data-name="パス 1086"/><path fill="#fff" d="M72.216 139.501a26.258 26.258 0 0 0 3.778-.572c.806-.245 1.633-.779 1.268-1.954a1.556 1.556 0 0 0-2.232-.925 9.858 9.858 0 0 1-5.738 0 1.851 1.851 0 0 0-1.383.664 1.274 1.274 0 0 0 .343 1.165c1.361.653 2.793 1.165 3.964 1.622Z" data-name="パス 1087"/><path fill="#fff" d="M99.456 38.474c.316 1.236.7 1.546 1.922.855 1.949-1.089 4.045-2.036 6.44-1.149a1.089 1.089 0 0 0 1.475-.817 1.905 1.905 0 0 0-1.062-1.459c-3.402-1.007-6.265.082-8.775 2.57Z" data-name="パス 1088"/><path fill="#fff" d="M108.311 56.901c-.191.583-.577 1.143-.484 1.633a4.9 4.9 0 0 0 2.722 3.441c.37.191 1.045-.2 1.584-.332a4.356 4.356 0 0 0-.392-1.4c-.713-.974-1.519-1.878-2.325-2.776-.193-.218-.525-.283-1.105-.566Z" data-name="パス 1089"/><path fill="#fff" d="M143.828 125.978c-.98 0-1.372.675-.844 1.35a39.156 39.156 0 0 0 2.831 3.266c.261.267.817.25 1.236.37.044-.484.31-1.132.1-1.415-.893-1.192-1.922-2.281-2.923-3.392a.85.85 0 0 0-.4-.18Z" data-name="パス 1090"/><path fill="#fff" d="M126.626 47.717c0 1.905.789 3.01 1.769 2.918 1.225-.12 1.579-.98 1.584-2.069s-.474-1.949-1.573-1.862c-.702.061-1.323.746-1.78 1.013Z" data-name="パス 1091"/><path fill="#fff" d="M106.522 46.863c-.332-.24-.871-.9-1.519-1.051-1.023-.229-1.666.795-1.731 2.216a1.541 1.541 0 0 0 1.464 1.7c.861.162 1.808-1.259 1.786-2.865Z" data-name="パス 1092"/><path d="M28.501 94.36c1.089-.087 1.285.6 1.6 1.486 1.089 3.092 2.319 6.135 3.517 9.195.621 1.579.425 2.363-.735 3.038.24 3.326.544 6.587.659 9.853.027.909.1 2.406-1.7 2.08.7 1.268 1.339 2.52 2.063 3.718a4.9 4.9 0 0 0 4.007 2.5 12.072 12.072 0 0 0 9.772-3.522 1.4 1.4 0 0 0-.239-2.489c-.838-.544-1.192-1.285-.376-1.9 1.252-.931 1.089-2.178 1.089-3.4v-11.34c-.457-.37-1.383-.8-1.372-1.2 0-.544.637-1.219 1.16-1.633a95.023 95.023 0 0 1 5.3-3.9c1.437-.985.942-2.6 1.268-3.876 1.056-4.072 1.715-8.242 2.635-12.352a22.765 22.765 0 0 1 1.35-3.43c2.673.893 2.586.876 2.063 3.3s-.729 4.9-1.285 7.333c-.7 3.076-1.606 6.113-2.466 9.157-.076.272-.452.479-.719.67-1.633 1.181-3.266 2.325-4.9 3.528a1.486 1.486 0 0 0-.6 1c.131 4.181.256 8.362.512 12.521.147 2.286-.174 4.693 1.394 6.734.245.316.033.98.033 1.59 1.421-.267 1.633.664 1.954 1.726 1.181 3.887 2.722 7.687 3.647 11.628 1.149 4.9 1.829 9.875 2.722 14.818a7.222 7.222 0 0 0 .414 1.029c1.579-.642 3.076-1.285 4.589-1.862 3.424-1.312 6.832-2.667 10.316-3.811.544-.174 1.432.724 2.237 1.17.294-.408.6-1.633 1.731-.724a56.056 56.056 0 0 0 4.845-6.337 54.81 54.81 0 0 0 3.7-8.422 36.724 36.724 0 0 1 5.754-9.652 9.021 9.021 0 0 1 3.266-2.031c3.6-1.769 7.306-3.359 9.946-6.565a19.554 19.554 0 0 0 4.448-9.483q.8-5.123 1.279-10.283c.61-6.576 3.413-12.118 7.545-17.17 3.228-3.952 7.621-6.484 11.34-9.848 1.454-1.312 1.753-3.049 2.139-4.676a36.665 36.665 0 0 0 1.219-8.416c0-3.729-.61-7.458-.969-11.182a.786.786 0 0 0-.272-.621c-3.348-1.519-6.032-4.54-10.12-4.437-.425 0-.871-.719-1.307-1.089.463-.267.909-.735 1.394-.778a9.549 9.549 0 0 1 5.395 1.138 9.255 9.255 0 0 0 2.749.985 4.546 4.546 0 0 0-.86-1.089 233.552 233.552 0 0 0-6.282-4.045c-3.392-2.08-6.609-4.388-8.775-7.8-1.573-2.477-2.874-5.123-4.448-7.975-1.775 1.753-3.811 3.533-5.564 5.553a26.439 26.439 0 0 0-5.406 8.8c-1.007 3-1.786 6.081-2.64 9.135-.256.9-.174 2.243-1.421 2.178s-1.16-1.437-1.138-2.363a26.784 26.784 0 0 1 2.58-10.469 30.306 30.306 0 0 1 12.601-13.934 6.242 6.242 0 0 1 2.782-.332c.169 0 .425.387.544.642a25.042 25.042 0 0 0 9.026 11.7c1.922 1.388 4.116 2.39 6.119 3.675 3.413 2.178 6.391 4.763 7.551 8.928a43.007 43.007 0 0 1 1.356 15.45 28.768 28.768 0 0 1-3.266 11.748c-.5.876-1.633 1.415-2.461 2.085-1.149.909-2.325 1.791-3.473 2.722-4.219 3.332-7.2 7.621-9.761 12.292-2.254 4.094-2.374 8.585-2.591 13.109a44.71 44.71 0 0 1-1.345 7.861 29.133 29.133 0 0 1-1.976 5.912 20.066 20.066 0 0 1-7.915 8.71c-2.009 1.2-4.181 2.112-6.3 3.13-2.809 1.356-4.458 3.811-5.765 6.44-1.688 3.37-2.972 6.946-4.616 10.343a11.057 11.057 0 0 1-2.722 3.56c-1.138.958-.735 1.7-.316 2.635 4.241-.376 6.429-3.44 8.661-6.407.463-.615.882-1.421 1.666-.887.289.2.147 1.3-.065 1.905a3.572 3.572 0 0 0-.327 2.667 9.218 9.218 0 0 1 .06 2.912c2.678-.223 4-2.885 6.691-3.9.1.7.468 1.551.212 1.829a26.969 26.969 0 0 1-4.355 4.094c-.7.479-2.009.082-3.005.082 1.127 1.943-1.04 3.239-1.8 4.948-1.884 4.241-3.871 8.438-5.852 12.635-1.3 2.722-2.722 5.444-3.958 8.2-.991 2.227-1.671 4.595-2.689 6.8-1.345 2.912-3.01 5.683-4.306 8.618-1.715 3.86-3.228 7.812-4.774 11.748-1.47 3.729-2.858 7.491-4.3 11.231-1.59 4.132-3.375 8.193-4.747 12.4a48.494 48.494 0 0 0-2.515 14.7c-.049 5.607-.261 11.231.065 16.821a51.141 51.141 0 0 0 2.918 14.927c.321.866 1.089 2.178-.245 2.684-1.132.436-1.731-.691-2.134-1.688-.544-1.356-1.143-2.684-1.813-4.246a38.281 38.281 0 0 0 0 4.05c.544 5.1 1.089 10.2 1.829 15.243 1.029 6.984 2.227 13.942 3.386 20.9a866.917 866.917 0 0 0 2.678 15.352c.593 3.19 1.415 6.337 2 9.521.648 3.582 1.089 7.191 1.709 10.779.544 3.266 1.268 6.473 1.72 9.734.729 5.308 1.279 10.643 1.954 15.961.381 3.016.9 6.021 1.29 9.037.3 2.308.474 4.638.768 6.952.387 2.978.838 5.95 1.258 8.922l1.4 10.142c.468 3.37.915 6.75 1.4 10.12.316 2.178.675 4.355 1.029 6.614 1.764-1.089 3.468-2.314 5.3-3.266a15.9 15.9 0 0 1 4.665-1.835 17.137 17.137 0 0 1 8.982.642c3.348 1.268 6.734 2.428 10.1 3.658 3.212 1.176 6.337 2.76 9.652 3.462a46.226 46.226 0 0 0 10.371.67 28.483 28.483 0 0 0 7.338-1.279c1.671-.49 3.136-1.633 4.747-2.406a4.4 4.4 0 0 1 2.542-.582c.969.229 1.04 1.894.12 2.9-1.165 1.285-2.455 2.45-3.713 3.686.621.9 2.08 1.241 3.664.621 1.9-.74 3.756-1.6 5.656-2.341a93.261 93.261 0 0 1 9.951-3.729c5.357-1.415 10.343-3.74 15.5-5.662a37.574 37.574 0 0 1 6.533-1.481q6.222-1.089 12.483-2.025a37.161 37.161 0 0 1 12.276-.114 14.832 14.832 0 0 0 2.657.027c-.942-1.982-1.905-3.909-2.787-5.879-2.335-5.2-4.589-10.43-6.952-15.618s-4.9-10.392-7.3-15.613c-1.758-3.811-3.31-7.736-5.139-11.519-1.922-3.985-4.094-7.85-6.113-11.791-1.513-2.945-2.863-5.988-4.464-8.873-1.84-3.337-3.876-6.565-5.836-9.837-1.247-2.069-2.482-4.148-3.773-6.19-2.406-3.811-4.97-7.513-7.246-11.394-3.147-5.362-6.533-10.61-8.454-16.631-1.127-3.538-2.5-6.974-3.4-10.621a88.617 88.617 0 0 1-2.488-17.251 78.785 78.785 0 0 1 .866-14.034c.942-7.023 2.232-14 3.495-20.98.751-4.11 1.824-8.166 2.591-12.276.582-3.125.871-6.3 1.361-9.451 1.007-6.533 2.254-13.005 3.049-19.549a109.04 109.04 0 0 0 1.018-20.817c-.234-3.315.12-6.669.027-10-.158-5.678-.294-11.367-.74-17.028-.387-4.954-1.089-9.9-1.845-14.807-1.219-7.8-2.591-15.575-3.974-23.349-.185-1.034-.882-1.965-1.17-2.994-.125-.441.174-1 .278-1.5.468.223 1.187.337 1.35.7a35.207 35.207 0 0 1 2.591 6.495c1.247 5.509 2.178 11.084 3.266 16.636.866 4.622 1.835 9.227 2.515 13.876a113.41 113.41 0 0 1 1.089 11.6c.343 8.291.544 16.582.713 24.878a102.435 102.435 0 0 1-1.546 18.275c-.729 4.486-1.192 9.015-1.905 13.5-.778 4.9-1.677 9.8-2.58 14.7-1 5.444-1.862 10.888-3.157 16.272-1.78 7.36-2.428 14.851-3.076 22.32a49.483 49.483 0 0 0 .648 13.582c.664 3.473.974 7.012 1.72 10.458.544 2.64 1.6 5.183 2.384 7.779 1.911 6.293 5.232 11.922 8.471 17.556 2.722 4.742 5.923 9.211 8.824 13.855 2.722 4.388 5.384 8.83 8.019 13.277 1.633 2.918 3.315 5.852 4.9 8.846.844 1.568 1.464 3.266 2.243 4.861 1.709 3.539 3.528 7.023 5.172 10.588 2.107 4.557 4.061 9.178 6.13 13.757 1.6 3.555 3.294 7.077 4.9 10.621 1.448 3.2 2.923 6.4 4.219 9.663.969 2.444 1.562 5.041 2.542 7.485a11.772 11.772 0 0 0 2.259 3.424 14.079 14.079 0 0 0 7.012 4.676c.925.229 1.954 1.976 1.459 2.858a5.021 5.021 0 0 1-2.237 1.519 4.336 4.336 0 0 1-1.6.033 5.651 5.651 0 0 0 3.669 2.863 3.4 3.4 0 0 1 1.328.544 2.1 2.1 0 0 1 .724 1.334c0 .348-.506.811-.9 1.013-1.59.822-3.266.4-4.9.152a6.037 6.037 0 0 0-1.573.174 7.469 7.469 0 0 0 .234 1.307c.245.67.631 1.3.855 1.971.337 1.023-.648 2.014-2.036 2.15-1.726.169-3.451.348-5.564.544 1.8 2.951 3.441 5.5 4.938 8.133 1.753 3.087 3.364 6.26 5.074 9.38 1.268 2.325 2.651 4.589 3.892 6.93 1.355 2.548 2.591 5.166 3.925 7.73a2.177 2.177 0 0 0 .936.811c3.114 1.579 6.239 3.125 9.353 4.693.245.12.5.463.691.425 2.858-.544 4.546 1.475 6.326 3a52.92 52.92 0 0 1 6.347 6.391 22.992 22.992 0 0 1 2.929 5.313c.365.827.544 1.976-.713 2.531 1.143 1.029 1.138 1.851.152 2.934-2.177 2.417-4.355 4.9-6.494 7.338-.615.7-1.225 1.4-1.856 2.074-2.374 2.542-4.769 5.063-7.126 7.621-2.107 2.292-4.056 4.742-6.282 6.914s-4.66 4.039-6.979 6.092a6.314 6.314 0 0 0-1.546 1.758 6.552 6.552 0 0 1-3.631 3.01 43.9 43.9 0 0 1-6.6 2.695c-2.934.724-5.988.806-8.993 1.366-4.546.849-9.1.348-13.648.272a3.621 3.621 0 0 1-1.807-.544c-.37-.229-.512-.822-.757-1.252a4.752 4.752 0 0 1 1.481-.621c4.018-.19 8.062-.131 12.064-.512 3.751-.365 7.474-1.089 11.187-1.824a17.77 17.77 0 0 0 3.669-1.361c.98-.425 1.911-.98 2.853-1.492.414-.229.98-.4 1.181-.762 1.786-3.185 5.019-4.9 7.469-7.376s5.063-5.03 7.54-7.621c1.758-1.824 3.413-3.745 5.139-5.607q5.389-5.8 10.806-11.574a9.92 9.92 0 0 1 1.154-.969c-.773-.947-1.884-1.78-2.281-2.874-1.856-5.134-5.776-8.6-9.587-12.14-.719-.67-1.933-.806-3.1-1.263.076 2.373-1.274 3.642-2.755 5a16.984 16.984 0 0 0-4.246 6.13 20.878 20.878 0 0 1-9.641 10.888 11.477 11.477 0 0 1-3.457.642c.169.947.735 2.145.436 3.054-.234.729-1.524 1.116-2.39 1.677a16.959 16.959 0 0 1 .577 3.266c0 1.633-.811 2.265-2.428 2.178a7.8 7.8 0 0 1-4.774-1.971c-.485-.408-.974-.811-1.546-1.285l-.392 1.089a44.21 44.21 0 0 1 4.126 3.566c1.6 1.758.321 5.651-1.943 6.282a2.722 2.722 0 0 1-2.891-.985c-.68-.768-1.372-1.524-2.118-2.352-.974.457-2.014 1.317-2.961-.288-4.2 2.1-8.351 4.164-12.488 6.282a1.688 1.688 0 0 0-.746 1.023c-.681 3.3-1.513 6.6-.419 9.973a1.323 1.323 0 0 1 .082.729c-.169.544-.414 1.089-.626 1.633-.572-.348-1.377-.544-1.671-1.089a8.71 8.71 0 0 1-1-5.863c.365-2.107 1-4.159 1.421-6.255.408-2.014 1.911-2.863 3.571-3.566 3.468-1.464 6.9-3.049 10.447-4.3 2.3-.811 3.13-2.58 3.925-4.524q2.722-6.614 5.379-13.228a.784.784 0 0 1 .131-.261c2.254-2.363 2.4-5.373 2.569-8.367 0-.506-.234-1.029-.212-1.541s.147-1.138.414-1.241c.392-.152 1.219-.033 1.388.25a4.426 4.426 0 0 1 .757 2.363c-.191 2.286-.637 4.551-.909 6.832a1.633 1.633 0 0 0 .4 1.317 21.071 21.071 0 0 0 4.2 2.3 3.317 3.317 0 0 0 2.444-.653 19.13 19.13 0 0 0 7.447-9.538 14 14 0 0 1 3.484-5.259c1.453-1.448 3.147-2.651 3.7-4.834l-4.9-2.787c-.065.087-.174.152-.169.218.044.762.708 1.911-.463 2.08-1.051.152-2.64 0-3.212-.691a22.948 22.948 0 0 1-2.793-5c-1.7-3.566-3.266-7.18-4.976-10.752-1.5-3.163-2.978-6.348-4.649-9.423-2.041-3.778-4.23-7.48-6.478-11.138-.3-.485-1.323-.7-2.02-.713-1.524-.033-3.092.4-4.573.185-3.01-.436-5.961-1.268-8.961-1.764s-6.092-.768-8.933 1.372c1.606 2.286 3.174 4.518 4.758 6.75 1.448 2.047 2.88 4.1 4.382 6.113.708.936 1.584 1.742 2.352 2.64 3.228 3.773 6.358 7.621 9.685 11.323a55.716 55.716 0 0 1 7.317 10.942c.7 1.274 1.29 2.6 1.965 3.876.468.871.31 1.737-.544 1.982a2.21 2.21 0 0 1-1.884-.757c-.942-1.3-1.633-2.793-2.461-4.159-1.72-2.722-3.375-5.553-5.281-8.166-1.606-2.21-3.539-4.181-5.308-6.271-2.586-3.049-5.324-5.988-7.681-9.189-3.043-4.148-5.776-8.525-8.639-12.8l-.479-.708a47.748 47.748 0 0 1-4.355 2.521c-2.961 1.339-4.676.871-7.05-1.361-2.178-2.036-5-2.673-7.806-2.929-5.819-.544-11.552.686-17.322 1.2a2.477 2.477 0 0 0-1.753 1.219c-1.7 4.154-4.5 7.295-8.759 8.629a9.053 9.053 0 0 1-8.748-1.633 20.066 20.066 0 0 0-16.332-4.529c-3.294.463-6.38 2.357-9.559 3.609-3.511 1.383-7.077 2.33-10.888 1.53a3.267 3.267 0 0 1-1.633-1.154c-1.606-1.943-3.021-4.05-4.725-5.9a43.219 43.219 0 0 0-4.355-3.642l-.463.327c.321 1.943.544 3.909.969 5.825a67.928 67.928 0 0 1 1.2 18.025 20.709 20.709 0 0 1-.953 6.462c-.936 2.553-1.138 5.373-1.633 8.079-.947 5-1.976 9.995-2.787 15.02-.642 3.963-1.007 7.97-1.508 11.976-.093.729-.24 1.448-.37 2.248 1.513.044 1.682.985 1.807 2.423.256 2.809 1.143 5.558 1.366 8.362.348 4.3.381 8.612.49 12.924a2.341 2.341 0 0 1-1.7 2.45 40.477 40.477 0 0 1-9.543 2.589c-2.722.365-5.444 1.127-8.166 1.551a18.893 18.893 0 0 1-4.039 0c-.283 0-.806-.593-.751-.795a1.459 1.459 0 0 1 .827-.953c4.453-.925 8.922-1.742 13.37-2.678 2.058-.43 4.088-1.018 6.1-1.633a1.459 1.459 0 0 0 .713-1.121c.114-3.7.261-7.393.174-11.084-.06-2.76-.446-5.509-.7-8.384-3.462.626-6.8 1.2-10.126 1.851-2.341.452-4.649 1.089-7 1.481a7.288 7.288 0 0 1-2.76-.169c-2.4-.544-4.763-1.176-7.24-1.8-.125.806-.2 1.541-.354 2.248-.365 1.633-1.355 2.052-2.9 1.372-.229-.1-.751-.038-.817.092-.544 1.225-1.252 2-2.8 1.737a3.536 3.536 0 0 1-2.58-2.15c-.044-.076-.152-.114-.316-.234-.289 1.274-.631 2.493-.822 3.734-.142.953-.61 1.737-1.481 1.742a3.359 3.359 0 0 1-2.139-.953 13.806 13.806 0 0 1-1.633-2.553 24.235 24.235 0 0 1-.544 2.515 2.825 2.825 0 0 1-2.635 2.368 2.54 2.54 0 0 1-2.885-1.965c-.343-1-.648-2.02-.991-3.021-.272-.795-.6-1.339-1.688-1.089-2.76.664-5.553 1.181-8.335 1.753a19.489 19.489 0 0 1-1.992.387c-4.306.408-6.228 3.479-7.915 7.012.348.158.648.267.92.425.806.468.844.942.125 1.606a2.112 2.112 0 0 0-.675 1.388c.033 2.537.98 4.573 3.473 5.624.354.152.691.348 1.089.544.817-1.856 2.466-1.089 3.778-1.029 4.088.2 8.166.67 12.26.838 5.025.212 10.06.185 15.09.338 3.332.1 6.663.261 9.979.544.817.076 2.178.757 2.232 1.258.109 1.2-1.089 1.633-2.178 1.633-2.139 0-4.279-.207-6.418-.229-4.605-.06-9.216.082-13.816-.12-4.97-.218-9.935-.637-14.883-1.176a43.856 43.856 0 0 1-5.988-1.475c-.332 1.268-1.3 1.023-2.21.784a5.4 5.4 0 0 1-4.137-4.508c-.43-2.58-.936-5.324-.485-7.828a9.764 9.764 0 0 1 5.531-7.425c3.506-1.633 7.289-1.971 11-2.537a43.764 43.764 0 0 0 13.7-4.241c3.266-1.682 6.533-3.266 9.848-4.867a29.52 29.52 0 0 1 2.88-.915c.681-.245 1.323-.593 1.949-.882v2.177c1.737-1.415 3.441-2.45 4.627-3.909.648-.795.43-2.308.544-3.5.474-3.914 1.018-7.817 1.366-11.742.272-3.054.354-6.13.4-9.195q.1-6.369.027-12.744c-.038-2.929-.3-5.858-.343-8.786-.082-5.177-.065-10.343-.114-15.531a17.773 17.773 0 0 0-.31-2.1c-3.054-.065-6.146-.18-9.255-.18a14.2 14.2 0 0 1-10.888-4.616c-1.258-1.35-2.346-2.853-3.533-4.273-.174-.212-.425-.49-.659-.517a1.905 1.905 0 0 1-1.633-2.3c.37-3.266 1.018-6.533 1.557-9.8.3-1.824.544-3.658.92-5.444a851.584 851.584 0 0 1 2.722-12.314c.844-3.724 1.737-7.436 2.619-11.149s1.84-7.518 2.722-11.285c.67-2.907 1.209-5.847 1.873-8.754.6-2.657 1.421-5.27 1.938-7.943 1.241-6.369 2.39-12.76 3.533-19.146 1.127-6.282 2.248-12.559 3.266-18.857 1.268-7.7 2.531-15.406 3.62-23.136.947-6.734 1.59-13.512 2.471-20.251.365-2.765.931-5.509 1.541-8.237a56.557 56.557 0 0 1 1.633-5.618c1.089-3.212.757-6.533.789-9.8.065-7.567.9-15 3.506-22.162.871-2.39 1.775-4.78 2.412-7.229a24.313 24.313 0 0 0 .174-4.045c.506-6.375.887-12.771 2.662-18.972.207-.73.272-1.5.446-2.5a22.607 22.607 0 0 1-3.734 1.2c-4.045.544-8.111 1.366-12.162 1.328-3.032-.027-5.792-1.633-8.264-3.653-4.083-3.3-5.956-7.8-7.447-12.575-.642-2.058-1.285-4.11-1.911-6.173a11.5 11.5 0 0 1-.463-2c-.033-.272.2-.795.392-.833a1.149 1.149 0 0 1 1 .3 23.613 23.613 0 0 1 1.628 3.031c1.285 3.07 2.5 6.162 3.767 9.255s3.544 5.1 6.173 6.914c3.141 2.178 6.533 2.33 10.1 1.584q5.907-1.236 11.78-2.559c.25-.06.512-.517.593-.833 1.121-4.1 2.112-8.231 3.321-12.3 2.009-6.772 4.154-13.506 6.239-20.257.354-1.149.713-2.292 1.154-3.718l-16.609 5.819a19.8 19.8 0 0 0 1.421 3.359 26.52 26.52 0 0 1 4.469 14.334c0 .762.2 1.715-1.23 1.753s-1.361-.806-1.5-1.633c-.452-2.722-.887-5.476-1.35-8.351a3.931 3.931 0 0 0-2.319 3.01c-1.17 3.86-2.629 7.621-4.132 11.383a2.224 2.224 0 0 1-1.943.784c-.773-.142-.893-.925-.544-1.769 1.366-3.239 2.722-6.489 3.969-9.772a11.633 11.633 0 0 0 .6-7.349c-.637-2.542-.485-5.281-.778-7.921-.327-2.956-.686-5.917-1.181-8.857a236.78 236.78 0 0 0-2.134-11.193c-.436-2-1.149-3.93-1.813-6.13-1.089 4.034-2.662 7.376-6.021 9.761-3 2.129-5.749 4.605-8.618 6.908a3.874 3.874 0 0 1-4.312.288 50.577 50.577 0 0 1-4.861-3.043c.457 1.845 1.034 3.952 1.492 6.086.621 2.9 1.2 5.8 1.7 8.71.436 2.5.724 5.03 1.089 7.545.169 1.138.093 2.178-1.176 2.591-1.089.343-2.02-.544-2.227-2.1-.544-3.958-.936-7.937-1.557-11.878-.5-3.136-1.165-6.244-1.9-9.331a31.4 31.4 0 0 1-.642-9.1c.2-3.413.544-6.821 1-10.213.1-.746.866-1.4 1.323-2.1.185-.278.376-.544.544-.833a15.79 15.79 0 0 0 1.791-3.049 11.575 11.575 0 0 0 .294-3.435c0-2.471.054-4.948-.093-7.415a14.428 14.428 0 0 0-.915-2.722c-.6-2.178-1.252-4.312-1.677-6.533a7.417 7.417 0 0 1 .441-2.537Zm41.482 405.566c-1.818-.958-1.8-2.33-1.579-3.811.256-1.677.436-3.359.724-5.03.822-4.78 1.557-9.581 2.559-14.328 1.274-6.043 2.956-11.976 4.11-18.068a52.728 52.728 0 0 0 .746-10.24c-.038-3.767-.468-7.534-.827-11.291-.229-2.352-.653-4.687-1.023-7.246l-20.523-.838c.147 4.273.288 8.264.414 12.259.1 3.266.544 6.582.18 9.8a65.2 65.2 0 0 0 .12 10.817c.076 1.323.207 2.64.185 3.958 0 1.181-.3 2.357-.316 3.539-.033 2.972.2 5.95 0 8.906-.267 4.029-.789 8.046-1.285 12.053a8.133 8.133 0 0 1-.893 3.054 12.653 12.653 0 0 1-2.118 2.134 11.079 11.079 0 0 1-5.928 3.2c-.071 1.579.9 2.128 2.123 2.461l5.063 1.377a6.1 6.1 0 0 0 4.192-.076 8.8 8.8 0 0 1 1.954-.5c3.93-.719 7.85-1.4 12.123-2.167ZM30.45 121.579a6.736 6.736 0 0 0-.762 1.59c-.332 2.722-.724 5.444-.855 8.166-.185 3.892 1.922 6.75 4.676 9.184a2.8 2.8 0 0 0 3.68 0c3-2.493 6.021-4.948 8.955-7.512 2.052-1.791 2.689-4.3 3.076-6.99a14.658 14.658 0 0 1-10.969 3.424c-4.8-.348-6.467-3.784-7.8-7.915Zm175.934 382.484-1.285 2.047.43-.338a33.313 33.313 0 0 0 2.178 2.809 1.367 1.367 0 0 0 1.312.071c.615-.8 1-1.786.044-2.618-.795-.664-1.694-1.258-2.679-1.971Zm7.077-2.972c-.5-2.934-3.31-2.929-4.742-4.709-.289.751-.479 1.241-.675 1.758a8.711 8.711 0 0 0 5.438 2.951Zm-190.1 6.1c.479 1.192.915 2.373 1.437 3.517.142.3.544.474.844.7a4.142 4.142 0 0 0 .621-.909c.588-1.633-.381-2.869-1.165-4.159Zm14.617-.365c1.307-2.493.37-4.638-2.384-5.6Zm176.5-11.8.31-.354a6.226 6.226 0 0 0-4.224-3.13l-.256.354ZM31.691 508.799l.7-.256-1.47-3.767-.474.185Z" data-name="パス 1093"/><path d="M78.28 234.397c-1.8.822-1.889 2.374-1.878 3.914a50.263 50.263 0 0 0 .24 5.2c.223 2.178-.98 3.778-2.21 5.275-1.6 1.949-1.5 3.941-.642 6.075.974 2.439 2.139 4.818 2.9 7.322.61 2.025 2.107 3.163 3.522 4.388 3.909 3.4 8.329 4.649 13.359 2.771 2.139-.8 4.246-1.677 6.413-2.379a3.631 3.631 0 0 1 2.412 0c1.307.61 1.089 2.444-.359 3.343-1.568.969-3.228 1.786-4.932 2.722 2.292 1.4 4.529 2.967 6.941 4.2 4.007 2.047 8.117 3.9 12.194 5.809 4.355 2.047 8.737 4.061 13.109 6.081.882.408 1.758.817 2.657 1.181 1.089.436 1.905 1.154 1.519 2.33s-1.584 1.089-2.521.795a69.683 69.683 0 0 1-8.013-2.787c-5.34-2.45-10.708-4.9-15.787-7.806-4.306-2.455-8.22-5.58-12.347-8.351a2.428 2.428 0 0 0-1.835-.376 14.008 14.008 0 0 1-8.481 0c-2.069-.544-3.593-1.829-5.248-2.989a20.987 20.987 0 0 1-5.923-7.023 34.083 34.083 0 0 1-3.647-9.135 36.875 36.875 0 0 1-1.089-8.868c.027-5.444.408-10.888.724-16.332a19.644 19.644 0 0 1 .762-3.125c.3-1.285.544-2.586.882-3.86.093-.348.485-.615.735-.92.321.294.9.582.909.893.049 1.247-.065 2.5-.136 3.756-.218 4.088-.5 8.166-.653 12.265-.1 2.586 0 5.182 0 8.013 2.526-1.709 1.905-3.947 1.867-5.934-.076-3.843.724-7.137 4.322-9.293a4.337 4.337 0 0 0 1.475-2.412c1.17-4.039 2.085-8.166 3.364-12.167.915-2.847 2.281-5.569 3.424-8.291 1.59-3.74 3.392-7.4 4.758-11.225 1.633-4.486 2.869-9.1 4.241-13.67 1.034-3.44 1.949-6.919 3.027-10.343.67-2.145 1.666-4.192 2.292-6.342s.936-4.529 1.546-6.756a92.9 92.9 0 0 1 2.874-9.407c1.345-3.451 3.087-6.745 4.644-10.109a75.064 75.064 0 0 1 3.767-8.057 78.214 78.214 0 0 1 5.847-7.861c1.219-1.535 2.613-2.94 3.969-4.355a3.392 3.392 0 0 1 1.415-.969c3.783-1 7.534-1.307 11 1.029a3.027 3.027 0 0 1 1.236 1.323c.152.506-.174 1.16-.289 1.753-.517-.1-1.165-.044-1.53-.332a11.085 11.085 0 0 0-8.3-2.178c-1.954.174-2.978 1.938-4.083 3.239a52.208 52.208 0 0 0-9.8 17.039c-1.323 3.892-3.43 7.507-4.872 11.361a85.915 85.915 0 0 0-2.39 8.819c-.61 2.39-1.051 4.829-1.742 7.191-1.546 5.286-3.479 10.479-4.758 15.825a141.407 141.407 0 0 1-8.373 23.784c-1.551 3.549-3.114 7.077-4.464 10.719-.757 2.025-1.023 4.219-1.606 6.315-.838 3.01-1.747 5.988-2.657 8.993a4.775 4.775 0 0 0 1.72 5.542c1.415 1.056 3.065 1.8 4.546 2.771a12.946 12.946 0 0 1 2.5 2.079 1.6 1.6 0 0 1-.109 1.464 1.421 1.421 0 0 1-1.274.359c-3.266-.915-6.168-2.4-8.193-5.275a15.024 15.024 0 0 1-2.971-7.011Z" data-name="パス 1094"/><path d="M131.536 419.357c-.278.43-.479 1.089-.893 1.274a1.742 1.742 0 0 1-1.552-.071 8.371 8.371 0 0 1-2.014-2.254c-2.722-4.758-5.308-9.581-7.992-14.356-1.263-2.243-2.76-4.355-3.914-6.658-1.23-2.439-2.134-5.035-3.266-7.523-.915-1.987-1.933-3.93-2.951-5.869-2.276-4.317-4.6-8.607-6.854-12.935-1.971-3.773-3.936-7.556-5.787-11.389-1.895-3.93-3.626-7.937-5.471-11.889-1.8-3.849-3.838-7.621-5.444-11.519-2.178-5.362-4.045-10.888-6.184-16.266-1.225-3.087-2.869-5.988-4.056-9.119-1.29-3.37-2.3-6.848-3.381-10.294-1.437-4.567-2.863-9.14-4.219-13.735a15.788 15.788 0 0 1-.544-3.675c0-.435.5-.9.762-1.345.376.337.953.61 1.089 1.023 1.775 5.27 3.441 10.577 5.221 15.842a150.426 150.426 0 0 0 8.356 20.088c1.29 2.537 2.237 5.242 3.315 7.888 1.448 3.555 2.722 7.186 4.355 10.67 1.72 3.729 3.811 7.295 5.6 10.991 2.439 5.014 4.7 10.109 7.137 15.128 1.089 2.265 2.444 4.409 3.647 6.631 1.747 3.228 3.517 6.451 5.183 9.723 1.927 3.783 3.713 7.621 5.623 11.432 1.486 2.934 3.049 5.825 4.611 8.71s3.266 5.879 4.861 8.841c1.23 2.292 2.439 4.595 3.549 6.941a32.873 32.873 0 0 1 1.213 3.715Z" data-name="パス 1095"/><path d="M133.823.008a21.855 21.855 0 0 1 16.163 6.533c2.51 2.412 5.172 4.693 7.48 7.295a43.739 43.739 0 0 1 4.9 6.914c3.2 5.444 6.054 11.073 7.1 17.322a65.141 65.141 0 0 1 1.089 14.116 34.3 34.3 0 0 1-3.266 13.283c-2.363 4.85-3.212 10.153-3.549 15.569a26.675 26.675 0 0 1-3.332 10.953c-1.018 1.889-1.764 3.99-3.092 5.634a41.764 41.764 0 0 1-6.326 6.386c-3 2.406-6.277 4.469-9.5 6.582a5.97 5.97 0 0 1-2.227.387 6.338 6.338 0 0 1 .5-2.254c1.688-2.461 4.4-3.713 6.7-5.444 4.219-3.234 8.22-6.658 10.343-11.857a40.462 40.462 0 0 0 2.918-8.922c.452-2.825.773-5.678 1.247-8.5a32.563 32.563 0 0 1 1.116-4.845c.719-2.178 1.633-4.279 2.477-6.4a32.069 32.069 0 0 0 2.45-13.348 57.48 57.48 0 0 0-2.357-15.918c-.74-2.232-2.009-4.279-2.9-6.467-2.047-5.03-5.389-9.195-8.961-13.147a48.717 48.717 0 0 0-7.572-7 18.814 18.814 0 0 0-11.154-3.99 46.2 46.2 0 0 0-16.93 2.825c-.985.381-1.867 1.045-2.831 1.5a3.467 3.467 0 0 1-1.154.125c0-.4-.163-1 .038-1.165a16.02 16.02 0 0 1 3.451-2.559c5.334-2.492 11.082-3.304 17.179-3.608Z" data-name="パス 1096"/><path d="M29.198 58.121c-.4.544-.9.909-.86 1.214.544 4.116 1.132 8.22 1.709 12.325a7.539 7.539 0 0 1 .218 2.041c-.071.479-.5 1.2-.86 1.263a1.557 1.557 0 0 1-1.334-.762 25.941 25.941 0 0 1-.909-4.415c-.381-3.348-.6-6.712-.974-10.06-.234-2.107 2.107-4.219 4.077-3.43.664.267 1.089 1.17 1.8 2.009v-3.652c0-1.41 1.807-3.756 3.163-3.734a3.3 3.3 0 0 1 2.047 1.132 8.164 8.164 0 0 1 1.878 5.858 36.632 36.632 0 0 0 .272 5.667c.544-3.539 1.045-7.077 1.59-10.626a3.593 3.593 0 0 1 3.685-3.266c1.546 0 2.809 1.454 2.749 3.636-.076 3.032-.4 6.054-.626 9.08a5.444 5.444 0 0 0 0 1.786l3.6-10.251c.648-1.818 4.039-3.3 5.923-2.673a2.61 2.61 0 0 1 1.786 2.57 22.668 22.668 0 0 1-1.492 9.761c-.887 2.52-1.361 5.183-2.014 7.779l.446.234c.343-.12.7-.218 1.029-.365a3.828 3.828 0 0 1 4.11 1.372c.109.223.06.751-.1.844a2.646 2.646 0 0 1-1.323.414c-.724 0-1.791-.512-2.118-.2a14.094 14.094 0 0 0-3.129 3.938 43.969 43.969 0 0 0-1.633 5.743c-.152.5-.544 1.165-.991 1.285s-1.388-.18-1.524-.544c-.544-1.339-1.535-.849-2.178-.544-1.78.893-3.479 1.96-5.166 3.027a28.793 28.793 0 0 0-2.335 1.807c.468.915.414 1.878-.68 2.08a2.807 2.807 0 0 1-2.33-.577 2.4 2.4 0 0 1 .12-2.341c1.824-2.4 4.551-3.647 7.18-4.9a30.548 30.548 0 0 1 4.736-1.328 1.3 1.3 0 0 0 .784-.653c1.573-4.9 3.577-9.766 4.475-14.807.544-3.108 1.508-6.1 2-9.189a15.4 15.4 0 0 0-.223-3.446c-2.4-.027-3.141.419-3.811 2.5-1.241 3.963-2.417 7.943-3.582 11.927a1.754 1.754 0 0 0 .288 1.987c.768.817.093 1.933-1.181 2.178-3.881.751-7.763 1.486-11.644 2.248a14.064 14.064 0 0 0-1.551.457c-1.443.452-1.72.245-1.78-1.307 0-.136 0-.359-.071-.4-2.178-1.258-1.236-3.326-1.247-5.074a21.558 21.558 0 0 0-1.992-9.619Zm5.672-5.036a7.6 7.6 0 0 0-.648 2.275c.245 5.477.588 10.948.9 16.489l8.166-1.878a4.965 4.965 0 0 1-.267-1.568c.327-1.9.7-3.811 1.165-5.667a33.251 33.251 0 0 0 1.089-9.255c0-.61-.457-1.633-.866-1.731-1.089-.24-1.219.849-1.334 1.633-.18 1.214-.174 2.45-.327 3.669q-.7 5.732-1.475 11.432c-.169 1.258-.849 1.524-1.551 1a5.9 5.9 0 0 1-2.178.544c-.3-.054-.6-1.013-.615-1.568-.093-3.049-.082-6.1-.142-9.157-.071-2.119.206-4.313-1.917-6.218Z" data-name="パス 1097"/><path d="m153.214 143.24 1.426.762c-1.421 3.457-2.891 6.837-4.208 10.278-1.421 3.707-2.722 7.453-4.018 11.209-1.23 3.615-2.324 7.284-3.533 10.888-1.023 3.087-1.992 6.206-3.239 9.206-1.453 3.5-3.4 6.8-4.736 10.343a117.745 117.745 0 0 1-7.387 15.787c-1.356 2.423-2.8 4.8-4.094 7.262-1.873 3.555-3.555 7.213-5.444 10.752-2.357 4.355-4.927 8.618-7.273 12.994-1.225 2.281-2.178 4.709-3.223 7.077-1.089 2.461-2.281 4.9-3.217 7.4a1.715 1.715 0 0 1-2.259 1.149 1.813 1.813 0 0 1-1.225-2.357 73.756 73.756 0 0 1 2.608-6.6c1.279-2.912 2.559-5.836 4.028-8.656 1.835-3.517 3.936-6.9 5.787-10.414 1.633-3.125 3.038-6.38 4.676-9.51 1.8-3.435 3.811-6.75 5.6-10.2 2.216-4.312 4.3-8.71 6.358-13.065 2-4.235 4-8.476 5.819-12.788 1.557-3.675 2.863-7.453 4.279-11.187 1.568-4.148 3.027-8.345 4.731-12.439 1.764-4.252 3.724-8.422 5.683-12.592.83-1.815 1.876-3.513 2.861-5.299Z" data-name="パス 1098"/><path d="M104.9 13.666c-.414.506-.8.931-1.132 1.388-1.709 2.368-3.756 4.578-5.03 7.164a50.67 50.67 0 0 0-3.745 10.311 70.943 70.943 0 0 0-1.2 10.049c-.18 1.889-.174 3.811-.267 5.694 0 .234 0 .544-.163.675-2.216 2.041-2.6 4.948-3.413 7.583a64.569 64.569 0 0 0-2.477 10.37c-.544 3.86-.942 7.757.43 11.661a11.939 11.939 0 0 1-.893 10.1c-2.722 5.019-5.041 10.267-7.453 15.455a8.865 8.865 0 0 0 .071 7.387 15.723 15.723 0 0 1-1.007 14.241c-2.82 5.057-7.268 7.872-12.613 9.538a1.7 1.7 0 0 1-1 .114c-.5-.2-1.2-.484-1.3-.866a1.633 1.633 0 0 1 .7-1.383c1.851-1.089 3.9-1.862 5.651-3.081 4.355-3.021 7.409-6.968 7.322-12.521a16.446 16.446 0 0 0-1.225-5.711c-1.41-3.571-.719-6.952.7-10.2 1.557-3.555 3.479-6.946 5.221-10.419.958-1.916 1.856-3.86 2.82-5.77a6.824 6.824 0 0 0-.033-5.716c-1.437-3.544-1.274-7.077-.92-10.735a46.867 46.867 0 0 1 3.266-12.706c1.056-2.673 2.4-5.237 3.571-7.866a3.55 3.55 0 0 0 .25-1.415c-.033-2.9-.25-5.814-.114-8.71.272-5.868 2.3-11.269 4.965-16.424a25.585 25.585 0 0 1 6.271-8.013 1.856 1.856 0 0 1 2.747-.194Z" data-name="パス 1099"/><path d="M75.275 39.649c1.154-2.64 2.178-5.193 3.375-7.676 2.477-5.242 6.211-9.6 10.12-13.784 4.807-5.144 10.414-9.135 17.5-10.447a14.454 14.454 0 0 1 4.709.452c.31.054.517.719.768 1.089-.4.212-.86.67-1.2.593-3.615-.806-6.723.544-9.8 2.139a33.615 33.615 0 0 0-10.6 8.961 110.485 110.485 0 0 0-6.892 8.928c-2.129 3.294-4.263 6.652-5.286 10.545-.12.474-.893.778-1.361 1.16Z" data-name="パス 1100"/><path d="M247.839 482.892a7.486 7.486 0 0 1 1.089 1.029c.457.659.806 1.372-.065 2.041-1.339 1.034-2.722 2.052-3.979 3.152a33.1 33.1 0 0 0-3.811 3.615c-1.726 2.047-3.157 4.355-4.9 6.385a47.328 47.328 0 0 1-3.871 3.729c-2.793 2.657-5.553 5.346-8.4 7.948-1.6 1.459-2.989 3.3-5.324 3.653a4.8 4.8 0 0 1-1.769-.485 7.781 7.781 0 0 1 .936-1.258c2.107-1.889 4.518-3.522 6.3-5.672a95.9 95.9 0 0 1 8.079-8.079 23.256 23.256 0 0 0 3.947-4.867 27.851 27.851 0 0 1 8.961-9.32c.615-.392 1.154-.893 1.747-1.317a10.718 10.718 0 0 1 1.06-.554Z" data-name="パス 1101"/><path d="M95.989 56.286c0-1.709-.033-3.424 0-5.134a6.45 6.45 0 0 1 .337-1.987c.114-.316.593-.5.9-.746.229.332.626.648.659.991.261 3.027.457 6.059.675 9.091a31.254 31.254 0 0 0 2.749 9.968 27.5 27.5 0 0 0 6.391 9.064 47.316 47.316 0 0 0 4.9 3.631 3.511 3.511 0 0 1 1.089 1.089c.212.441.343 1.312.12 1.486-.457.348-1.4.68-1.753.441a27.431 27.431 0 0 1-5.014-3.925 68.976 68.976 0 0 1-5.482-7.219 28.558 28.558 0 0 1-3.685-6.25 52.361 52.361 0 0 1-1.693-8.166c-.147-.762-.18-1.546-.267-2.319Z" data-name="パス 1102"/><path d="M62.21 521.359c-2.526 0-5.057-.147-7.572 0-5.253.37-10.5.936-15.749 1.339-.457.038-.964-.544-1.448-.8.4-.4.762-1.089 1.219-1.17 2.667-.425 5.411-.49 8.035-1.089 6.533-1.481 13.147-1.279 19.734-1.742a8.461 8.461 0 0 1 1.317-.136c.942.1 1.845.544 1.682 1.579a2.281 2.281 0 0 1-1.4 1.372 8.885 8.885 0 0 1-2.45.147l-3.37.152Z" data-name="パス 1103"/><path d="M28.74 523.754c-2.722-.376-5.444-.757-8.2-1.121-1.78-.24-3.577-.37-5.34-.675-2.352-.414-4.682-.942-7.017-1.432a14.827 14.827 0 0 1-2.722-.659c-.419-.174-.648-.806-.958-1.23.457-.261.942-.773 1.372-.729 1.829.2 3.631.637 5.444.855 2.041.24 4.1.327 6.157.5q1.372.114 2.722.294 4.769.637 9.538 1.312c.844.12 1.971.033 1.927 1.3s-1.176 1.214-2.063 1.361a5.371 5.371 0 0 1-.887 0Z" data-name="パス 1104"/><path d="M195.24 520.64c-2.243 0-3.811.093-5.379-.054-.544-.049-1.051-.691-1.579-1.089.474-.354.915-.958 1.421-1.018 4.219-.544 8.454-.86 12.673-1.4 2.363-.3 4.7-.811 7.033-1.339 1.089-.256 1.976.12 2.08 1.089.06.545-.789 1.421-1.421 1.671a15.094 15.094 0 0 1-3.675.8c-3.93.507-7.87.948-11.153 1.34Z" data-name="パス 1105"/><path d="M28.507 94.361a5.079 5.079 0 0 1-1.187-4.05c.49-3.734 1.056-7.453 1.633-11.176a11.923 11.923 0 0 1 .544-2.406 1.492 1.492 0 0 1 .98-.887c.31-.027.735.457 1.007.795 1.089 1.356-.338 2.482-.392 3.756-.163 3.506-.664 7-.664 10.5a3.609 3.609 0 0 1-1.884 3.468Z" data-name="パス 1106"/><path d="M114.22 70.652c-2.591.289-4.535-.942-6.179-2.722-.283-.31-.218-.936-.31-1.415.49-.06 1.143-.354 1.443-.147 4.028 2.814 8.122 1.426 12.221.3a8.791 8.791 0 0 0 .985-.272c.915-.37 1.851-.131 1.987.735a2.25 2.25 0 0 1-1.312 1.726c-2.885.838-5.83 1.464-8.754 2.178Z" data-name="パス 1107"/><path d="M72.216 139.501c-1.17-.457-2.6-.969-3.963-1.633a1.274 1.274 0 0 1-.343-1.165 1.851 1.851 0 0 1 1.383-.664 9.949 9.949 0 0 0 5.738 0c.833-.289 1.851-.278 2.232.925s-.463 1.709-1.268 1.954a26.247 26.247 0 0 1-3.778.583Z" data-name="パス 1108"/><path d="M99.456 38.474c2.51-2.488 5.373-3.577 8.775-2.569a1.905 1.905 0 0 1 1.062 1.459 1.089 1.089 0 0 1-1.475.817c-2.4-.887-4.491.044-6.44 1.149-1.225.69-1.606.38-1.922-.856Z" data-name="パス 1109"/><path d="M108.314 56.901a4.677 4.677 0 0 1 1.089.544 32.025 32.025 0 0 1 2.325 2.776 4.357 4.357 0 0 1 .392 1.4c-.544.131-1.214.544-1.584.332a4.9 4.9 0 0 1-2.722-3.441c-.077-.468.307-1.028.5-1.611Z" data-name="パス 1110"/><path d="M143.829 125.978a.85.85 0 0 1 .4.163 40.708 40.708 0 0 1 2.923 3.392c.212.283-.054.931-.1 1.415-.419-.12-.974-.1-1.236-.37a39.156 39.156 0 0 1-2.831-3.266c-.528-.659-.116-1.314.844-1.334Z" data-name="パス 1111"/><path d="M126.626 47.718c.43-.267 1.089-.953 1.78-1.013 1.089-.087 1.573.789 1.573 1.862s-.359 1.949-1.584 2.069c-.98.092-1.758-1.013-1.769-2.918Z" data-name="パス 1112"/><path d="M106.522 46.863c0 1.633-1 3.01-1.786 2.863a1.573 1.573 0 0 1-1.464-1.7c.065-1.421.708-2.444 1.731-2.216.648.149 1.187.809 1.519 1.053Z" data-name="パス 1113"/><path fill="#fff" d="M69.984 499.888c-4.273.762-8.193 1.448-12.113 2.178a8.792 8.792 0 0 0-1.954.5 6.1 6.1 0 0 1-4.192.076l-5.063-1.377c-1.219-.332-2.178-.882-2.123-2.461a11.079 11.079 0 0 0 5.928-3.228 12.648 12.648 0 0 0 2.118-2.134 8.133 8.133 0 0 0 .893-3.054c.5-4.007 1.018-8.024 1.285-12.053.191-2.956-.044-5.934 0-8.906 0-1.181.3-2.357.316-3.539 0-1.317-.109-2.635-.185-3.958a65.2 65.2 0 0 1-.12-10.817c.343-3.228-.076-6.533-.18-9.8-.125-4-.267-7.986-.414-12.259l20.523.838c.37 2.559.795 4.9 1.023 7.246.359 3.756.789 7.523.827 11.291a52.729 52.729 0 0 1-.746 10.24c-1.154 6.064-2.836 12.025-4.11 18.068-1 4.747-1.737 9.549-2.559 14.328-.288 1.671-.468 3.353-.724 5.03-.232 1.461-.249 2.833 1.57 3.791Z" data-name="パス 1114"/><path fill="#fff" d="M30.45 121.525c1.334 4.132 2.989 7.567 7.8 7.894a14.658 14.658 0 0 0 10.969-3.424c-.387 2.695-1.023 5.2-3.076 6.99-2.934 2.564-5.956 5.019-8.955 7.512a2.8 2.8 0 0 1-3.68 0c-2.755-2.433-4.861-5.291-4.676-9.184.131-2.722.544-5.444.855-8.166a6.293 6.293 0 0 1 .763-1.622Z" data-name="パス 1115"/><path fill="#fff" d="M206.384 504.063c.985.713 1.884 1.279 2.678 1.971.958.833.572 1.818-.043 2.618a1.366 1.366 0 0 1-1.312-.071 33.242 33.242 0 0 1-2.178-2.809l-.43.338Z" data-name="パス 1116"/><path fill="#fff" d="M213.483 501.092a8.71 8.71 0 0 1-5.417-2.951c.2-.544.387-1.007.675-1.758 1.432 1.779 4.241 1.774 4.742 4.709Z" data-name="パス 1117"/><path fill="#fff" d="m23.362 507.193 1.737-.849c.784 1.29 1.753 2.5 1.165 4.159a4.141 4.141 0 0 1-.621.909c-.289-.229-.7-.4-.844-.7-.522-1.145-.958-2.326-1.437-3.519Z" data-name="パス 1118"/><path fill="#fff" d="m37.979 506.829-2.384-5.6c2.755.962 3.691 3.108 2.384 5.6Z" data-name="パス 1119"/><path fill="#fff" d="m214.479 495.027-4.17-3.13.256-.354a6.29 6.29 0 0 1 4.224 3.13Z" data-name="パス 1120"/><path fill="#fff" d="m31.692 508.8-1.247-3.811.474-.185 1.47 3.767Z" data-name="パス 1121"/><path fill="#fff" d="M34.87 53.085c2.123 1.905 1.856 4.1 1.9 6.217.06 3.054.049 6.108.142 9.157 0 .544.316 1.513.615 1.568a5.846 5.846 0 0 0 2.178-.544c.7.544 1.383.261 1.551-1q.778-5.721 1.475-11.432c.152-1.219.147-2.455.327-3.669.114-.768.234-1.856 1.334-1.633.408.087.844 1.121.866 1.731a33.252 33.252 0 0 1-1.089 9.255c-.468 1.873-.838 3.767-1.165 5.667a4.965 4.965 0 0 0 .267 1.568l-8.166 1.878c-.316-5.542-.659-11.013-.9-16.489a8.422 8.422 0 0 1 .665-2.274Z" data-name="パス 1122"/></svg>