<svg xmlns="http://www.w3.org/2000/svg" xml:space="preserve" id="レイヤー_1" x="0" y="0" style="enable-background:new 0 0 754.9 127.8" version="1.1" viewBox="0 0 754.9 127.8"><style>.st1{fill:none;stroke:#ddd}</style><g style="enable-background:new"><path d="M63.8 96.7H49L13.8 55.1c-1.3-1.6-2.1-2.6-2.4-3.2h-.3v44.8H.5v-91h10.7v42.8h.3c.6-.9 1.4-2 2.4-3.1l34-39.7h13.3l-39 43.7 41.6 47.3zM121 96.7h-10.4V86.6h-.3c-4.5 7.8-11.2 11.7-20 11.7-6.5 0-11.5-1.7-15.2-5.1-3.7-3.4-5.5-8-5.5-13.6 0-12.1 7.2-19.2 21.5-21.2l19.5-2.7c0-11-4.5-16.6-13.4-16.6-7.8 0-14.9 2.7-21.2 8V36.3c6.4-4.1 13.8-6.1 22.1-6.1 15.3 0 22.9 8.1 22.9 24.2v42.3zm-10.4-32.9L95 66c-4.8.7-8.5 1.9-10.9 3.6-2.5 1.7-3.7 4.8-3.7 9.1 0 3.2 1.1 5.8 3.4 7.8s5.3 3 9 3c5.2 0 9.4-1.8 12.8-5.4 3.4-3.6 5-8.2 5-13.7v-6.6zM194.6 96.7h-10.4V59.3c0-13.5-5-20.3-15.1-20.3-5.1 0-9.4 2-12.8 5.9-3.5 3.9-5.2 8.9-5.2 15.1v36.8h-10.4V.5h10.4v42h.3c5-8.2 12.1-12.3 21.3-12.3 14.6 0 22 8.8 22 26.5v40zM241.4 98.3c-9.6 0-17.3-3-23-9.1-5.7-6.1-8.6-14.1-8.6-24.2 0-10.9 3-19.4 9-25.6 6-6.1 14-9.2 24.2-9.2 9.7 0 17.3 3 22.7 9 5.4 6 8.2 14.2 8.2 24.8 0 10.4-2.9 18.7-8.8 24.9-6 6.2-13.8 9.4-23.7 9.4zm.8-59.3c-6.7 0-12 2.3-15.9 6.8-3.9 4.5-5.8 10.8-5.8 18.8 0 7.7 2 13.8 5.9 18.2s9.2 6.7 15.8 6.7c6.7 0 11.9-2.2 15.5-6.5 3.6-4.4 5.4-10.6 5.4-18.6 0-8.1-1.8-14.4-5.4-18.8-3.6-4.4-8.8-6.6-15.5-6.6zM395.8 96.7h-10.7V55.2H338v41.5h-10.7v-91H338v39.9h47.1V5.7h10.7v91zM464.8 96.7h-10.4V86.6h-.3c-4.5 7.8-11.2 11.7-20 11.7-6.5 0-11.5-1.7-15.2-5.1s-5.5-8-5.5-13.6c0-12.1 7.2-19.2 21.5-21.2l19.5-2.7c0-11-4.5-16.6-13.4-16.6-7.8 0-14.9 2.7-21.2 8V36.3c6.4-4.1 13.8-6.1 22.1-6.1 15.3 0 22.9 8.1 22.9 24.2v42.3zm-10.4-32.9L438.7 66c-4.8.7-8.5 1.9-10.9 3.6-2.5 1.7-3.7 4.8-3.7 9.1 0 3.2 1.1 5.8 3.4 7.8s5.3 3 9 3c5.2 0 9.4-1.8 12.8-5.4 3.4-3.6 5-8.2 5-13.7v-6.6zM536.2 31.7l-29.9 75.4c-5.3 13.5-12.8 20.2-22.5 20.2-2.7 0-5-.3-6.8-.8v-9.3c2.2.8 4.3 1.1 6.2 1.1 5.2 0 9.2-3.1 11.8-9.4l5.2-12.3-25.4-64.9h11.6l17.6 50c.2.6.7 2.3 1.3 5h.4c.2-1 .6-2.6 1.3-4.8l18.5-50.1h10.7zM593.9 96.7h-10.4V86.6h-.3c-4.5 7.8-11.2 11.7-20 11.7-6.5 0-11.5-1.7-15.2-5.1-3.7-3.4-5.5-8-5.5-13.6 0-12.1 7.2-19.2 21.5-21.2l19.5-2.7c0-11-4.5-16.6-13.4-16.6-7.8 0-14.9 2.7-21.2 8V36.3c6.4-4.1 13.8-6.1 22.1-6.1 15.3 0 22.9 8.1 22.9 24.2v42.3zm-10.4-32.9L567.8 66c-4.8.7-8.5 1.9-10.9 3.6-2.5 1.7-3.7 4.8-3.7 9.1 0 3.2 1.1 5.8 3.4 7.8s5.3 3 9 3c5.2 0 9.4-1.8 12.8-5.4 3.4-3.6 5-8.2 5-13.7v-6.6zM609.6 94.4V83.2c5.7 4.2 11.9 6.3 18.7 6.3 9.1 0 13.7-3 13.7-9.1 0-1.7-.4-3.2-1.2-4.4-.8-1.2-1.8-2.3-3.2-3.2-1.3-.9-2.9-1.8-4.7-2.5-1.8-.7-3.7-1.5-5.8-2.3-2.9-1.1-5.4-2.3-7.6-3.5s-4-2.5-5.5-3.9c-1.5-1.5-2.6-3.1-3.3-5-.7-1.9-1.1-4-1.1-6.5 0-3 .7-5.7 2.1-8.1 1.4-2.3 3.3-4.3 5.6-5.9 2.3-1.6 5-2.8 8-3.6 3-.8 6.1-1.2 9.2-1.2 5.6 0 10.7 1 15.1 2.9v10.5c-4.8-3.1-10.3-4.7-16.5-4.7-1.9 0-3.7.2-5.3.7-1.6.4-2.9 1.1-4 1.9-1.1.8-2 1.8-2.6 2.9-.6 1.1-.9 2.4-.9 3.7 0 1.7.3 3.1.9 4.3.6 1.1 1.5 2.2 2.7 3 1.2.9 2.6 1.7 4.3 2.4 1.7.7 3.6 1.5 5.8 2.3 2.9 1.1 5.5 2.2 7.7 3.4s4.2 2.5 5.8 3.9c1.6 1.5 2.8 3.1 3.7 5 .9 1.9 1.3 4.2 1.3 6.8 0 3.2-.7 6-2.1 8.4-1.4 2.4-3.3 4.3-5.7 5.9-2.4 1.6-5.1 2.7-8.2 3.5-3.1.8-6.3 1.1-9.7 1.1-6.5.1-12.3-1.2-17.2-3.8zM722.6 96.7h-10.4V59.3c0-13.5-5-20.3-15.1-20.3-5.1 0-9.4 2-12.8 5.9-3.5 3.9-5.2 8.9-5.2 15.1v36.8h-10.4V.5h10.4v42h.3c5-8.2 12.1-12.3 21.3-12.3 14.6 0 22 8.8 22 26.5v40zM747.6 15.2c-1.9 0-3.4-.6-4.8-1.9-1.3-1.3-2-2.9-2-4.8s.7-3.6 2-4.9c1.3-1.3 2.9-1.9 4.8-1.9s3.5.6 4.9 1.9c1.3 1.3 2 2.9 2 4.9 0 1.9-.7 3.4-2 4.8-1.4 1.3-3 1.9-4.9 1.9zm5 81.5h-10.4v-65h10.4v65z" class="st1"/></g></svg>