<svg xmlns="http://www.w3.org/2000/svg" width="165.664" height="509.564"><path fill="#fff" d="m44.121 208.387 28.657-6.467h31.629l21.119.9 2.1 4.457.961 5.675 10.578 23.1-1.2 17.245 1.171 30.81 3.407 25.586 17.5 163.666-23.429 11.974 12.835 2.142-1.257 6.865-5.775 7.916-8.762 3.785-15.663 1.099-13.869-6.887.892-13.329 3.559-5.869-8.7-6.347-3.071-.1-7.827 3.58s.971 13.938 1.05 14.646.1 9.449.1 9.449l-13.641 4.257-11.743 1.129-26.51-1.129-5.013-24.148-8.515-3.3-8.667-9.077-4.924-4.467 21.271-125.733 6.824-73.127-1.9-26.132 3.99-26.411Z" data-name="パス 869"/><path fill="#fff" d="m123.726 158.622-4.924 22.311-5.523 10.825-68.486 5.145v10.646s65.62-5.528 65.772-5.118 16.169 6.856 16.169 6.856l15.423-35.109 3.281-19.651Z" data-name="パス 870"/><path fill="#fff" d="M72.033 75.62h7.7v-6.824l-15.056-.525-2.578-4.992-1.633-8.4.9-6.3-4.646-4.341 1.05-4.809A56.023 56.023 0 0 1 62.6 26.1l.43-.829 9.176-11.8 7.528-5.076 6.751-3.066a26.657 26.657 0 0 1 10.079-2.373l6.877-.247c6.824 1.244 13.308 4.494 19.607 9.014l9.972 20.042-2.864 17.244-15.492 18.82-3.591 1.78-5.339-.824 1.092 6.048 15.276 1.879-33.261 13Z" data-name="パス 871"/><path d="M126.508 293.985c.95 2.1 1.9 4.2 2.845 6.268a5.249 5.249 0 0 1 .677 1.7c.047.772.184 1.612-1.192 1.78-.814.095-1.575 1.087-2.247 1.774-1.3 1.3-2 1.291-3.013-.2-2.982-4.383-5.953-8.783-9.181-13.087.289 1.4.472 2.835.877 4.2.892 3.029 1.921 6.016 2.835 9.035.241.793.262 1.617-.908 1.806a1.974 1.974 0 0 0-.94.457c-1.717 1.5-3.648 1.381-4.725-.667-1.438-2.756-2.546-5.7-3.759-8.567-.882-2.1-1.706-4.168-2.557-6.257l-.373.1.682 8.457c.173 2.189.32 4.378.525 6.557.126 1.249-.42 1.7-1.6 1.633-1.843-.105-1.89.031-1.89 1.8 0 2.457-.178 4.914-.226 7.349-.047 2.546 0 5.1-.042 7.643-.094 4.52-.278 9.035-.357 13.554-.11 6.53-.163 13.056-.247 19.586-.068 4.987-.173 9.974-.215 14.956-.042 5.25 0 10.5-.047 15.78a125.612 125.612 0 0 1-.362 8.205c-.042.572-.651 1.1-1 1.643-.493-.525-1.349-1.05-1.417-1.638-.3-2.525-.446-5.082-.525-7.628-.116-4.914-.157-9.827-.184-14.741 0-2.452.074-4.9.1-7.349.042-3.638 0-7.281.126-10.919.147-4.945.4-9.89.588-14.835.178-4.751.247-9.512.525-14.258.352-6.389.871-12.767 1.26-19.156a5.024 5.024 0 0 0-.583-1.743 51.285 51.285 0 0 1-1.827-5.118c-1-4.126-1.832-8.284-2.767-12.6-1.286 1.155-2.536 2.131-3.6 3.276-.677.724-1.491 1.213-2.221.74a2.945 2.945 0 0 1-1.118-2.1 25.952 25.952 0 0 1 .388-6.027 51.285 51.285 0 0 0 .856-11.255 21 21 0 0 1 2.32-10.142 4.725 4.725 0 0 1 1.024-1.507c.331-.268.94-.184 1.423-.257a4.762 4.762 0 0 1 0 1.307c-.672 2.4-1.711 4.725-2.016 7.187-.315 2.551.184 5.2.105 7.8-.105 3.57-.415 7.134-.646 10.877.43-.488.856-.908 1.207-1.381.677-.892 1.244-1.879 1.979-2.714 1.312-1.486.913-3.192.824-4.882a6.717 6.717 0 0 1 .178-1.276 8.426 8.426 0 0 0 1.27.268 17.889 17.889 0 0 0 3.675.089c3.286-.525 5.523-2.84 7.874-4.882.772-.667 1.417-1.444 2.856-1.092-.063.556.1 1.4-.236 1.706-2.672 2.457-5.344 5-9 5.922a29.13 29.13 0 0 1-4.257.446c-.336 1.207-.745 2.583-1.092 3.969a2.273 2.273 0 0 0 .052 1.108c1.223 4.441 2.446 8.882 3.706 13.313.436 1.528.971 3.024 1.449 4.541a9.2 9.2 0 0 0 .856 2.147c-.2-5.675-.409-11.344-.6-16.746l-1.806-1.176c.446-.478.808-1.207 1.354-1.391 3.029-1.05 6.105-1.906 9.15-2.866 1.575-.493 3.087-1.087 4.641-1.575a10.215 10.215 0 0 1 2.562-.577 2.45 2.45 0 0 1 1.774.593c.3.42-.147 1.171-.257 1.78l-.525.215c2.336 2.1 4.662 4.2 7.008 6.3a1.575 1.575 0 0 0 .892.4c.367 0 .971-.047 1.076-.268a1.365 1.365 0 0 0-.157-1.186c-3.528-4.368-7.16-8.657-10.62-13.082a27.926 27.926 0 0 1-2.457-4.583c-.525-1.008-.971-2.047-1.486-3.055-.357-.7-.525-1.48-1.622-1.638-.457-.068-1.05-1.05-1.118-1.633-.3-3.57-.451-7.155-.677-10.73a1.905 1.905 0 0 0-.824-1.843 2.938 2.938 0 0 1-.577-2.525 69.16 69.16 0 0 1 2.352-6.793c1-2.683 2.026-5.355 3.15-7.974 1.444-3.344 3.082-6.6 4.5-9.974 1.05-2.446 1.769-5.029 2.814-7.475 1.921-4.494 3.974-8.924 5.984-13.392 1.15-2.562 2.336-5.113 3.48-7.68.766-1.727 1.528-3.46 2.2-5.223a2.236 2.236 0 0 0-.262-1.307c-.231-.609-.845-1.249-.74-1.764s.919-.824 1.6-1.381c.079-1.669 1.339-2.914 2.866-3.942-.772-2.263-.793-2.919 2.047-6.021-2.478-1.748-1.48-4.8 2.625-6.609l-.829-.525c-2.425-1.575-2.483-4 .11-5.25 2.263-1.113 2.557-3.15 3.417-5.37-6.352 2.1-12.6 2.026-18.9 1.759-.42 2.058-.824 4.053-1.218 5.964a25.729 25.729 0 0 1 3.15-.142 2.927 2.927 0 0 1 2.625 2.441 2.22 2.22 0 0 1-1.26 2.593c-1.822 1.081-3.606 2.215-5.412 3.318-.961.588-1.927 1.16-2.415 1.459-.525 2.1-.871 3.774-1.328 5.428-.85 3.081-1.743 6.147-2.625 9.218-.115.4-.3 1.05-.525 1.1-2.394.352-1.874 2.5-2.252 3.879-1.113 4.026-1.843 8.158-2.866 12.216-1.449 5.738-3 11.444-4.551 17.156a59.448 59.448 0 0 1-1.89 5.953c-.21.525-1.092.808-1.669 1.2-.283-.525-.892-1.118-.8-1.575.467-2.4 1.05-4.788 1.7-7.16 1.717-6.546 3.47-13.087 5.218-19.628.2-.766.472-1.517.667-2.126l-14.478-1.05c.084 1.47.273 3.113.21 4.725 0 .619-.572 1.654-1 1.722-.845.131-1.339-.583-1.391-1.575-.22-3.827-.525-7.643-.709-11.47 0-.341.457-.709.7-1.05.352.289.924.525 1.024.887.42 1.575.709 3.208 1.05 4.782 5.05-.2 10.184-.892 15.187.835.525-1.759 1.1-3.643 1.7-5.512.283-.882.1-1.27-.887-1.449-1.759-.325-3.465-.913-5.223-1.223a19.6 19.6 0 0 0-3.675-.163c-2.625.053-5.25.042-7.874.284-4.956.457-9.89 1.05-14.83 1.627-2.683.3-5.386.457-8.032.94-6.116 1.113-12.2 2.373-18.29 3.622a1.123 1.123 0 0 0-.635.845c-.063 1.417 0 2.835 0 4.662 4.105-.74 8.021-1.454 11.938-2.147q5.066-.887 10.132-1.743a1.906 1.906 0 0 1 1.118.068 8.641 8.641 0 0 1 1.323 1.05c-.357.357-.661.94-1.076 1.05-2.074.446-4.173.735-6.257 1.123-4.368.819-8.714 1.738-13.087 2.488-3.648.625-7.349 1.05-10.987 1.638-.425.068-.829.682-1.113 1.129a25.2 25.2 0 0 0-3.454 9.659c-.787 4.872-1.78 9.722-2.289 14.625a90.541 90.541 0 0 0 0 10.268c0 .761-.1 1.381-.955 1.454a1.871 1.871 0 0 1-1.984-1.664 20.535 20.535 0 0 1-.1-2.977 59.783 59.783 0 0 1 2.1-18.626c.85-3.354 1.643-6.746 2.777-10.006a33.4 33.4 0 0 1 2.971-5.307c-1.785-1.638-.724-3.675-.672-5.685-1.932-.236-2.866-1.837-3.906-3.328-.619-.892-1.249-1.79-1.953-2.625a1.611 1.611 0 0 0-1.092-.441q-8.588-.158-17.182-.247c-2.1 0-3.627-1.008-3.79-2.536a2.431 2.431 0 0 1-2.1-2.672c.236-4.242.32-8.515.929-12.709.871-5.974 2.173-11.885 3.234-17.849a1.4 1.4 0 0 0-.525-1.181c-1.3-.73-2.719-1.239-3.995-2.005a24.117 24.117 0 0 1-3.024-2.31c-1.648-1.386-3.213-2.866-4.887-4.2-2.289-1.832-4.483-3.753-4.845-6.856a5.018 5.018 0 0 1 .7-3.15c2.567-3.675 5.344-7.2 7.99-10.814 2.935-4.011 5.822-8.048 8.7-12.074 2.242-3.15 4.515-6.3 6.651-9.528 4.5-6.824 9.255-13.418 14.137-19.948 2.735-3.675 6.352-5.817 10.116-7.985a36.416 36.416 0 0 1 9.859-3.722 11.887 11.887 0 0 1 1.491-.163c-.31-1.024.073-1.575 1.16-1.685a69.445 69.445 0 0 1 7.013-.8c2.551 0 4.588 1.622 6.2 3.328 3.99 4.2 9.04 6.063 14.489 7.008a33.68 33.68 0 0 0 8.436.42 27.588 27.588 0 0 0 6.74-1.879c2.9-1.05 5.706-2.31 8.583-3.412a71.39 71.39 0 0 1 7.008-2.436c3.3-.877 6.3.068 9.213 1.774 5.334 3.15 8.294 8.3 11.281 13.386a181.211 181.211 0 0 0 10.893 16.1c2.8 3.78 5.685 7.5 8.441 11.313a47.167 47.167 0 0 1 2.966 4.929c1.15 2.1 2.3 4.2 3.265 6.394a4.777 4.777 0 0 1 .189 2.719 40.491 40.491 0 0 1-4.032 11.728 45.545 45.545 0 0 1-5.916 8.888c-2.163 2.373-5.145 3.99-7.706 6.021a6.3 6.3 0 0 0-1.969 3.827 3.229 3.229 0 0 0 .163 1.333 35.929 35.929 0 0 1 1.4 4.562 14.291 14.291 0 0 1-.346 3.575c1.4 1.276 1.811 2.546-.961 5.2 2.236 4.546-1.307 5.775-4.289 7.292a4.655 4.655 0 0 1-2.326 5.381c-2.966 1.307-4.158 3.575-5.118 6.473-1.753 5.281-3.916 10.431-5.943 15.749 2 2.016 3.15 4.725 4.278 7.47 1.407 3.391 2.929 6.73 4.362 10.105a90.995 90.995 0 0 1 1.942 4.956 2.236 2.236 0 0 1 .052 1.4 6.824 6.824 0 0 1-.961 1.444c-.436-.352-1.081-.619-1.276-1.076-1.664-3.958-3.255-7.948-4.845-11.938-.467-1.165-.871-2.352-1.3-3.507h-4.824a1.281 1.281 0 0 0-1.475.95 559.984 559.984 0 0 1-5.418 13.035c-1.281 2.987-2.761 5.9-3.974 8.924a60.817 60.817 0 0 0-2.709 8.105c-.294 1.192.283 2.625.457 3.916.415 3.192.814 6.389 1.249 9.581a3.485 3.485 0 0 0 .451 1.087q2.431 4.63 4.887 9.25a4.655 4.655 0 0 0 .488.85q5.276 6.09 10.573 12.153a13.958 13.958 0 0 1 1 1.013c.6.861-.058 1.381-.451 2.142a3.064 3.064 0 0 1-4.2 1.7Zm-10.72-107.433c.556-1.465 1.118-2.94 1.675-4.42.457-1.223 1.27-2.441 1.286-3.675 0-1.937.388-3.029 2.1-3.816a176.045 176.045 0 0 0 4.593-2.2 9.973 9.973 0 0 0 1.774-1.108c.556-.457.6-.987-.2-1.265-1-.336-3.008.7-3.837 1.27a26.688 26.688 0 0 1-4.231 2.047.284.284 0 0 1-.252-.094c-.84-1.218-1.643-.346-2.436.047-3.15 1.575-6.273 3.186-9.449 4.725a2.65 2.65 0 0 1-1.517 0c-1.643-.3-3.26-.766-4.914-.992-2.242-.3-4.515-.357-6.746-.682-3.312-.483-6.578-1.312-9.9-1.638-5.638-.562-11.3-1-16.956-1.207-6.662-.242-13.339-.142-20.011-.257-3.832-.068-7.67-.252-11.5-.446a1.685 1.685 0 0 1-1.213-.751c-.121-.231.367-.787.614-1.181.1-.163.378-.262.42-.425.562-2.3 1.1-4.614 1.606-6.8-2.551-.567-5-1.013-7.391-1.659-2.977-.8-5.922-1.732-8.856-2.693-.971-.32-1.291 0-1.417.882-.756 5.465-1.654 10.919-2.242 16.4-.457 4.273-.525 8.588-.766 12.882-.063 1.218.32 2.1 1.832 2 .63-.042 1.276.278 1.916.268 3.108-.031 6.21-.163 9.318-.184 2.583 0 5.171.131 7.759.079 3.843-.079 7.68-.236 11.549-.425 5.365-.268 10.735-.525 16.1-.9 3.921-.263 7.832-.656 11.749-.987 5.024-.43 10.042-.9 15.066-1.27 4.2-.315 8.447-.525 12.667-.756l3.15-.189a8.263 8.263 0 0 1-.22-2.415c.052-.241 1-.525 1.438-.409 2.413.666 4.839 1.432 7.442 2.241Zm4.159-74.367a16.584 16.584 0 0 1-1.265-2.5 2.016 2.016 0 0 0-1.995-1.491 26.914 26.914 0 0 0-4.509.131c-5.092.724-10.179 1.543-15.261 2.362-1.249.2-2.467.6-3.722.761-2.877.383-5.8.493-8.641 1.05-6.042 1.16-12.074 2.509-18.059 3.848a2.136 2.136 0 0 0-1.165 1.134 7.607 7.607 0 0 0-.462 2.021q-1.575 9.906-3.081 19.817c-.43 2.8-.919 5.6-1.186 8.4-.367 3.79-.488 7.607-.824 11.4-.168 1.879.829 3.15 2.7 3.029a15.23 15.23 0 0 0 2.1-.43c2.184-.467 4.352-1.05 6.557-1.381 4.32-.6 8.672-.966 12.993-1.575 6.53-.924 13.045-1.969 19.565-2.982a89.953 89.953 0 0 0 4.147-.751c2.415-.483 4.824-1.008 7.239-1.5a2.856 2.856 0 0 0 2.3-2.53 24.863 24.863 0 0 0 .346-3.365c.126-2.719.178-5.444.315-8.163.1-2.1.32-4.2.446-6.336.241-4 .415-8.006.688-12 .168-2.835.472-5.643.772-8.972Zm5.932 190.869a1.5 1.5 0 0 0 .5-2.347c-.184-.31-.2-.714-.357-1.05-1.5-3.187-2.935-6.4-4.536-9.538-.908-1.785-2.1-3.433-3.218-5.25l-4.987 1.822Zm-19.859-14.6 8.069 18.1c1.05-.242 1.15-.845.929-1.732-.919-3.675-1.8-7.407-2.667-11.119-.525-2.147-.971-4.3-1.47-6.515Zm-61.226-82.025 6.063-1.417v-4.851l-6.063.845v5.423Zm101.353-32.631a4.588 4.588 0 0 0-5.733.824c-.388.457-.856.992 0 1.491 1.774.987 5.024-.294 5.733-2.315Zm-1.843 4.788a6.127 6.127 0 0 0-4.866 2.572c-.462.525-.352 1.223.436 1.2a7.35 7.35 0 0 0 4.966-2.047 1.785 1.785 0 0 0 .257-1.423c-.032-.213-.709-.276-.788-.303Zm.394-8.074c1-1.386.982-2.966.11-3.612s-2.425.079-3.57 1.7Zm-17.187 43.613c-.745 1.685-1.36 3.087-1.984 4.494h4.084c-.362-.924-.635-1.717-.982-2.478-.268-.593-.63-1.15-1.118-2.016Zm12.315-29.4c-2.425.735-4.126 2.714-3.8 4.341 2.956-1.039 4.047-2.252 3.8-4.368Z" data-name="パス 872"/><path d="M139.763 294.853v4.095a4.072 4.072 0 0 1-.095 1.27c-.257.766-.672 1.727-1.617 1.3a2.525 2.525 0 0 1-1.26-1.843c-.173-6.651-.241-13.3-.289-19.948-.026-4.2.058-8.4.042-12.6 0-3.675-.11-7.4-.131-11.1-.026-4.137 0-8.273 0-12.226-1.192 1.69-2.509 3.633-3.9 5.523-.982 1.328-2.053 2.593-3.108 3.864a1.617 1.617 0 0 1-2.5.21c-.814-.693-.677-1.533 0-2.326 2.005-2.315 3.99-4.641 5.979-6.961.829-.966 1.685-1.911 2.483-2.9a2.1 2.1 0 0 1 2.5-.63 1.633 1.633 0 0 1 .9 1.181c.173 6.719.278 13.439.383 20.158.031 1.995-.1 4 .058 5.985.3 3.869.651 7.743 1.165 11.591.866 6.441 2.053 12.841 2.788 19.3.887 7.832 1.47 15.7 2.137 23.56.5 5.827.892 11.659 1.391 17.486.373 4.326.84 8.646 1.27 12.961.614 6.184 1.2 12.363 1.864 18.536.625 5.827 1.328 11.644 1.995 17.465.766 6.735 1.575 13.47 2.294 20.211.409 3.753.761 7.517 1.134 11.281s.719 7.57 1.113 11.35c.724 6.95 1.5 13.9 2.2 20.851.341 3.375.567 6.761.892 10.142.268 2.819.609 5.628.929 8.578 1.307.651 1.622 1.9.656 3.4-1.575 2.441-3.927 3.984-6.362 5.412-2.1 1.228-2.31 1.722-1.984 4.152a9.655 9.655 0 0 1 .131 3.864 19.874 19.874 0 0 1-2.557 5.507c-2.168 3.118-4.609 6.042-6.987 9.013-.262.331-.845.409-1.281.6l-.4-.273a6.244 6.244 0 0 1 .6-1.921c1.407-1.89 2.95-3.675 4.389-5.549a3.675 3.675 0 0 0 .625-1.785c-2.1 2.242-4.2 4.509-6.362 6.688-.4.4-1.2.4-1.8.6a9.187 9.187 0 0 0-1.79.646c-.971.567-1.8 1.433-3.108.987-.184-.063-.472.236-.724.331a28.494 28.494 0 0 0-3.643 1.428c-.614.341-.966 1.16-1.522 1.869 2.746.089 4.845-1.1 6.987-2.126 1.444-.7 2.85-1.475 4.31-2.137a1.239 1.239 0 0 1 1.134.142c.273.278.525.955.357 1.213a5.775 5.775 0 0 1-1.7 2c-5.108 3.15-10.588 4.956-16.683 4.037-2.341-.352-4.662-.83-6.987-1.26a1.107 1.107 0 0 1-.619-.278c-1.344-1.575-3.307-1.753-5.092-2.32-2.74-.871-4.331-3.045-5.848-5.25a1.811 1.811 0 0 1 .283-1.753c.619-.483.945.3 1.318.772a16.854 16.854 0 0 0 1.648 1.575c.493-1.78 1.748-3.25-.147-4.688a1.05 1.05 0 0 1-.031-1 4.411 4.411 0 0 1 1.291-.488c.913-3.633 1.864-7.386 2.772-11.145a1.05 1.05 0 0 0-.357-.877 18.747 18.747 0 0 0-1.853-1.05c-.9 2.961-2.866 5.607-2.845 8.887 0 1.575.079 3.1.047 4.646a6.381 6.381 0 0 1-.383 1.486 4.209 4.209 0 0 1-1.5-.646 2.625 2.625 0 0 1-.614-1.522c-.32-3.953 0-7.769 2.4-11.171 1.307-1.837.971-2.756-.9-3.969-2.1-1.349-4.095-2.814-6-4.137-.656.22-1.438.745-2.131.651-1.081-.152-1.344-1.181-1.354-2.194-.084-5.9-.3-11.806-.194-17.707.084-4.425.709-8.835.877-13.255.221-5.6.247-11.208.315-16.8.074-6.331.094-12.662.142-18.993a20 20 0 0 1 .11-3.076c.079-.478.635-.871.976-1.307.32.4.819.751.929 1.2a12.472 12.472 0 0 1 .226 2.551q.2 7.313.362 14.631c.116 4.83.231 9.659.315 14.484.053 3.37.142 6.746.053 10.116-.084 3.055-.43 6.105-.577 9.161-.126 2.625-.126 5.292-.189 7.932-.026.966-.11 1.927-.121 2.893a26.231 26.231 0 0 1 0 2.945c-.525 3.953 2.273 5.775 4.987 7.381a116.7 116.7 0 0 0 10.483 5.528 27.168 27.168 0 0 0 5.427 1.547c2.53.583 5.1.987 7.622 1.606a15.15 15.15 0 0 0 9.391-.577c2.1-.808 4.389-1.05 6.4-1.995 3.024-1.4 5.89-3.15 8.783-4.8a65.578 65.578 0 0 0 4.961-3.15 2.127 2.127 0 0 0 .782-1.575c-.215-3.108-.525-6.205-.871-9.3-.525-4.478-1.165-8.924-1.669-13.418-.4-3.585-.619-7.2-1.05-10.788-.441-3.838-1.081-7.654-1.512-11.491-.493-4.4-.814-8.83-1.276-13.234q-.9-8.709-1.916-17.408c-.793-6.714-1.68-13.423-2.483-20.137q-.808-6.825-1.507-13.686c-.436-4.252-.772-8.515-1.192-12.772s-.961-8.52-1.344-12.793c-.294-3.276-.457-6.567-.635-9.848-.2-3.706-.3-7.423-.525-11.124q-.488-8-1.1-15.99c-.142-1.822-.462-3.633-.7-5.449Zm-3.04 200.933c4.168-1.785 3.433-5.538 4.074-9.334-5.848 2.473-11.4 3.029-17.192.126v11.549a24.49 24.49 0 0 0 3.937-.593c2.215-.693 4.389-1.575 6.531-2.451 1.181-.51 2.052-.457 2.651.703Zm-15.564 2.429c.184-3.706.32-7.118.525-10.525.052-.808.136-1.354-.908-1.507a21.206 21.206 0 0 1-3.26-.787c-1.512-.478-3-1.05-4.656-1.622-.745 4.2-1.47 8.31-2.221 12.541Zm6.788 2.431a7.789 7.789 0 0 0-1.15 0 21.871 21.871 0 0 1-10.09-.525c-1.748-.473-3.48-1.05-5.25-1.47-.415-.105-1.3.074-1.318.221a10.5 10.5 0 0 0-.173 3.475c.073.4 1.265.577 1.932.9a12.531 12.531 0 0 1 1.606.877c.525.325.9.877 1.444 1.081 3.386 1.265 6.961 1.181 10.5 1.323a1 1 0 0 0 .808-.425c.583-1.739 1.092-3.488 1.691-5.461Zm17.964-11.192c-1.417 1.79-3.386 2.7-3.827 4.914a1.621 1.621 0 0 1-.661.84c-.787.578-1.675 1.05-2.425 1.643-.94.782-1.822 1.1-2.578.326l-6.971 3.15c.068.578.152 1.291.226 1.9 1.648-.373 3.459-.383 4.819-1.176a54 54 0 0 0 8.289-5.775c1.547-1.306 3.202-2.976 3.128-5.826Zm-3.5-3.024c.105 1.15.2 2.231.325 3.643l4.494-5.276-.178-.157Zm5.775-2.273c.247.682.451 1.27.724 2.037.787-1.134 2.494-1.606 1.507-3.386Z" data-name="パス 873"/><path d="M28.294 483.292a50.088 50.088 0 0 1-4.793-3.265q-4.071-3.465-7.874-7.244a15.551 15.551 0 0 1-2.263-3.423c-.194-.346 0-.9 0-1.349.525.184 1.218.215 1.575.577a44.754 44.754 0 0 0 3.024 3.554c5.365 4.646 10.909 8.924 18.452 9.5 2.84.21 5.607 1.265 8.447 1.575a38.6 38.6 0 0 0 13.838-.451c3.323-.824 6.746-1.207 10.095-1.932 3.04-.656 6.037-1.507 9.05-2.284 4.462-1.16 8.888-2.515 13.56-2.556.856 0 1.837.026 1.827 1.018 0 .525-.929 1.018-1.423 1.543-.262.278-.693.588-.693.882 0 3.764.063 7.528.121 11.292 0 .121.147.236.252.394 1.181-.661 1.732-.126 2.047 1.05a12.2 12.2 0 0 1-.85 8.956c-.913 1.822-2.625 2.625-4.2 3.675a23.583 23.583 0 0 1-15.266 3.57 7.947 7.947 0 0 1-2.562-.756c-.32-.142-.446-.724-.661-1.113.409-.2.824-.593 1.228-.577 1.36.042 2.709.326 4.063.336s2.32-.472 2.063-2.336l-23.256 1.643v.273c.929.042 1.858.052 2.782.131 3.4.3 6.793.6 10.184.971.336.037.619.525.929.793-.483.252-.966.724-1.449.719-2.882-.026-5.775-.268-8.651-.226-3.039.047-6.079.472-9.118.472-4.809 0-9.7.257-14.415-.457-5.16-.787-10.342-2.063-14.242-6.221-.94-1-2.273-1.633-2.625-3.108a22.468 22.468 0 0 1-.241-2.525c-.142-1.433-.336-2.856-.42-4.289a3.486 3.486 0 0 1 .273-1.906 10.835 10.835 0 0 1 6.5-5.328c1.621-.429 3.196-1.064 4.692-1.578Zm36.569 17.024-4.131.845c-2.425.483-4.856.955-7.286 1.433l.047.388c8.079-.357 16.153-1.15 24.374-.672l.157-1.753c-1.906.137-3.638.194-5.349.394-2.667.31-5.318.667-7.874-.614.236-.777.152-1.806 1.318-1.911.688-.058 1.391 0 2.1 0a61.688 61.688 0 0 0 13.3-1.47c1.375-5.423.462-10.6-.2-15.927l-6.641 2.068a5.832 5.832 0 0 1-1.165 5.523c-1.638 1.78-2.84 4.226-6.163 3.47-3.024-.688-5.181-2.935-4.956-6a1.218 1.218 0 0 0-.115-.388l-.593.1c-4.683.866-9.37 1.575-14.174 1.087-1.486-.157-2.982-.425-4.158 1.081-.31.4-1.433.362-2.126.236-1.732-.32-3.6.262-5.25-.756 0 0-.136.095-.21.142.168 1.454-.3 2.2-1.486 2.352s-1.879-.682-2.257-2.42c-1.47-.1-2.667-.567-2.74-2.735l-1.874 1.1c-.362.215-.714.583-1.087.614a7.822 7.822 0 0 0-6.292 3.996c-.525.856-.829 1.375.131 2.063.651-1.276 1.423-.656 2.226-.168a32.164 32.164 0 0 0 5.218 2.982 47.374 47.374 0 0 0 6.593 1.528c1.155.236 2.483.787 3.459.43a4.123 4.123 0 0 1 3.585.383 22.769 22.769 0 0 0 2.268.793 21.371 21.371 0 0 0 12.19 1.05 57.118 57.118 0 0 1 6.588-.641 2.315 2.315 0 0 1 2.572 1.397Zm-21.9 1.5.047-.352c-1.018-.294-2.047-.525-3.04-.892a14.963 14.963 0 0 0-2.278-1.05c-3.307-.556-6.625-1.05-9.974-1.423-3.512-.367-5.88-2.367-8.179-5.281-.042.766-.273 1.407-.068 1.822 1.108 2.215 2.578 4.153 5.145 4.761 2.478.588 5 .982 7.475 1.575.551.136.971.814 1.449 1.244-.525.257-1.1.751-1.627.725a34.038 34.038 0 0 1-5-.577c-1.669-.331-3.3-.882-5.25-1.412a8.79 8.79 0 0 0 1.822 1.3c1.528.525 3.108.934 4.672 1.365 2.3.63 4.572 1.575 6.914 1.785 4.982.425 9.974.457 14.993.635a7.348 7.348 0 0 0 1.165-.136v-.362c-2.987-.436-5.99-.819-8.966-1.328A26.071 26.071 0 0 1 38 503.071c-.289-.1-.341-.877-.5-1.339a4.3 4.3 0 0 1 1.255-.31c1.434.101 2.82.254 4.211.39Zm45.9-22.741-5.853 1.37c.572 3.785 1.139 7.46 1.664 11.14.073.525.131 1.454-.11 1.575-1.276.619-.646 1.827-1.05 2.725a35.665 35.665 0 0 0 4.525-2.662 2.557 2.557 0 0 0 .908-1.743c.074-1.921-.063-3.848-.084-5.774-.016-2.147 0-4.294 0-6.63Zm-8.924 21.571c-.142 1.307-.331 3.061-.525 4.777.252.084.341.152.425.142 3-.252 5.286-2.179 7.874-3.386a1.15 1.15 0 0 0 .415-.725c.525-2.1 1-4.2 1.459-6.137Zm-6.861-17c-2.625.446-4.877.85-7.155 1.228-.766.126-1.412.278-1.732 1.165a2.021 2.021 0 0 0 .577 2.446c1.05.877 2.184 2.032 3.753 1.407a8.032 8.032 0 0 0 4.368-4.41 6.356 6.356 0 0 0 .178-1.837Zm-33.645 2.567c-3.123-1.265-6.095-2.126-9.26-1.2 1.507 1.381 3.354.882 5.1.976a14.032 14.032 0 0 1 2.415.525l-.037.4ZM91 497.605l.556.068c.084-1.244.173-2.488.257-3.738l-.525-.037Z" data-name="パス 874"/><path d="M38.347 265.256c-1.076-.095-1.26-.992-1.26-1.906 0-3.948 0-7.874.1-11.827 0-.5.556-1.339.929-1.386.745-.089.987.583 1 1.36.068 4.2.436 8.4.2 12.557-.121 2.158.394 4.278-.042 6.441-.451 2.273-.525 4.614-.8 6.924s-.5 4.593-.756 6.887c-.787 6.95-1.638 13.9-2.341 20.851-.483 4.725-.682 9.449-1.15 14.142-.861 8.646-1.711 17.292-2.793 25.907-.835 6.62-1.969 13.208-3.061 19.791s-2.326 13.287-3.5 19.948c-1.018 5.774-2.063 11.549-3.04 17.366-.7 4.2-1.291 8.4-1.969 12.6-.577 3.627-1.286 7.234-1.8 10.872-.8 5.69-1.465 11.4-2.231 17.093-.478 3.554-1.1 7.087-1.533 10.641-.525 4.158-.835 8.342-1.354 12.5a2.435 2.435 0 0 1-1.213 1.785c-1.05.268-1.685-.672-1.717-1.606a31.894 31.894 0 0 1 .247-4.525c.367-3.57.751-7.134 1.207-10.693.436-3.4 1.013-6.777 1.47-10.174.814-5.995 1.507-12.006 2.394-17.99 1.05-7.2 2.273-14.384 3.433-21.576.95-5.9 1.89-11.791 2.893-17.681.63-3.727 1.417-7.433 2.037-11.166.709-4.242 1.26-8.51 1.958-12.751.525-3.192 1.223-6.357 1.748-9.554.588-3.58 1.155-7.166 1.575-10.767.525-4.541.835-9.1 1.281-13.649.824-8.347 1.575-16.7 2.557-25.025.556-4.814 1.512-9.581 2.2-14.384.924-6.462 1.759-12.935 2.662-19.423a7.346 7.346 0 0 1 .669-1.582Z" data-name="パス 875"/><path d="M102.392 46.229c.756-2.005 1.391-3.675 2.005-5.344.273-.756.693-1.538 1.575-1.1.367.189.525 1.218.43 1.79a25.869 25.869 0 0 1-1.133 3.354 2.368 2.368 0 0 0 .682 0c2.289-.9 4.3.131 5.1 3.1.987 3.675-.457 6.546-3.265 8.867-.178.152-.4.252-.593.394-.661.493-1.78.913-1.89 1.512a27.047 27.047 0 0 0-.089 4.725c3.187-1.018 3.743-.719 4.961 2.1a29.042 29.042 0 0 0 1.575 2.683c.383.661.772 1.575-.037 1.948a2.33 2.33 0 0 1-2.163-.2 31.487 31.487 0 0 1-2.667-4.026c.089 0 0-.032-.084 0-2.856 1.291-3.8.724-3.832-2.4 0-1.365.121-2.735.189-4.2-1.575-.252-3.228-.4-4.8-.808a3.5 3.5 0 0 1-2.861-2.41 1.927 1.927 0 0 1 .331-1.575 2.149 2.149 0 0 1 1.606-.157c1.512.3 3 1.05 4.494 1.018 3.349-.026 6.635-3.239 6.362-6.41-.058-.682-.646-1.848-1.05-1.864a3.627 3.627 0 0 0-2.5.882c-.94.94-2.662 1.575-3.675.829-2.053-1.459-4.116-2.908-6.079-4.478a27.975 27.975 0 0 1-6.677-7.244c-.3-.525-.987-.756-1.47-1.155a6.645 6.645 0 0 1-1.323-1.213c-.6-.866-1.05-1.848-1.575-2.735-1-1.575-2.294-2.478-4.3-1.858a4.672 4.672 0 0 1-1.984.089c-.4-.058-1.087-.472-1.05-.672.042-.457.362-1.176.709-1.265 1.711-.446 3.47-.724 5.25-1.05-1.979-5.439-3.533-11.092-2.226-17.36a12.317 12.317 0 0 0-1.57.514 30.474 30.474 0 0 0-12.3 11.953c-.147.257-.362.577-.315.829.173 1.05 0 1.638-1.255 1.659-.362 0-.656.766-1.081 1-.525.294-1.339.714-1.7.525a2.2 2.2 0 0 1-.6-1.69 8.509 8.509 0 0 1 .73-2.1 33.988 33.988 0 0 1-2.431-2.483c-.278-.336-.257-.924-.373-1.4a3.308 3.308 0 0 1 1.512.089 30.45 30.45 0 0 1 2.782 2.1A29.314 29.314 0 0 1 77.569 8.777c-2.95-.672-5.412.173-7.848.976a44.869 44.869 0 0 0-11.952 5.607 1.549 1.549 0 0 1-1.428-.184 2.328 2.328 0 0 1-.047-1.879 8.625 8.625 0 0 1 2.436-2.1 39.408 39.408 0 0 1 14.447-5.013 16.588 16.588 0 0 1 5.969.735 8.066 8.066 0 0 1 2.872 1.8c.247.2.163.9.115 1.349a27.114 27.114 0 0 0 .682 10.436 46.112 46.112 0 0 0 7.633 14.993c3.277 4.352 7.434 7.455 11.944 10.732Z" data-name="パス 876"/><path d="M131.5 35.944c.273-5.775-1.869-10.714-4.515-15.628a31.418 31.418 0 0 0-6.3-8.741c-2.478-2.221-5.155-4.457-8.447-5.544a82.506 82.506 0 0 0-8.111-2.32 24.146 24.146 0 0 0-4.7-.136c-.136 0-.294.126-.409.084-.688-.247-1.9-.436-1.953-.8-.184-1.123.929-1.05 1.7-1.165a27.554 27.554 0 0 1 18.991 4.086 29.231 29.231 0 0 1 9.192 8.237 69.56 69.56 0 0 1 5.444 9.864 29.8 29.8 0 0 1 2.179 7.1 23.917 23.917 0 0 1-.824 11.339c-1.963 6.588-5.775 12.111-10.006 17.366-2.488 3.071-5.076 6.063-7.664 9.05a2.956 2.956 0 0 1-1.575 1.05 2.173 2.173 0 0 1-1.764-.625 1.884 1.884 0 0 1 .2-1.753c3.533-4.4 7.454-8.52 10.625-13.155 2.992-4.362 6.258-8.735 7.118-14.237.199-1.364.535-2.713.819-4.072Z" data-name="パス 877"/><path d="M93.084 333.984c-.394.745-.714 1.48-1.144 2.137-1.932 2.95-3.974 5.837-5.838 8.83-2.026 3.255-3.942 6.583-5.832 9.917-1.575 2.777-2.987 5.648-4.562 8.4-2.252 3.974-4.6 7.874-6.882 11.848q-2.336 4.037-4.593 8.121a22.649 22.649 0 0 0-.887 2.215 3.381 3.381 0 0 1-.525 1c-.583.614-1.365 1.391-2.126.677a2.556 2.556 0 0 1-.667-2.273 61.94 61.94 0 0 1 3.438-6.662c2.026-3.486 4.2-6.877 6.252-10.347 3.6-6.095 6.992-12.316 10.751-18.311 2.977-4.725 6.373-9.239 9.58-13.843.551-.8 1.05-1.633 1.648-2.383a1.123 1.123 0 0 1 .976-.21c.18.081.269.537.411.884Z" data-name="パス 878"/><path d="M99.073 217.994c-.577-3.018-1.129-5.775-1.617-8.562-.058-.331.194-1 .383-1.05a1.4 1.4 0 0 1 1.2.347 7.684 7.684 0 0 1 1.2 2.556c.656 3.323 1.186 6.672 1.748 10.011a1.417 1.417 0 0 1-.032.84c-.289.562-.593 1.428-1.05 1.528-.971.21-1.323-.619-1.438-1.491-.068-.556-.168-1.108-.231-1.528-2.719-.31-5.339-.646-7.958-.908-3.055-.3-6.111-.619-9.176-.8-5.911-.362-11.575 1.276-17.324 2.378a11.756 11.756 0 0 0-2.625.971c-.724.331-1.528.5-1.816-.294-.131-.357.493-1.333.971-1.522a56.151 56.151 0 0 1 6.515-2.189 57.221 57.221 0 0 1 7.827-1.575 63.524 63.524 0 0 1 9.78-.462c3.99.184 7.958.819 11.938 1.276a14.7 14.7 0 0 1 1.711.478Z" data-name="パス 879"/><path d="M50.242 364.772a21.021 21.021 0 0 1 2.315-3.36q6.11-5.874 12.389-11.549 4.378-3.974 8.956-7.743c4.3-3.538 8.7-6.95 13.04-10.452 1.05-.856 1.979-1.89 3.045-2.751a7.592 7.592 0 0 1 1.743-.819c-.189.6-.2 1.381-.6 1.769-2.625 2.546-5.25 5.055-7.953 7.481-3 2.683-6.095 5.25-9.129 7.874-3.606 3.15-7.244 6.242-10.762 9.481-3.019 2.777-5.9 5.7-8.793 8.6a3.712 3.712 0 0 0-1.171 1.874 1.118 1.118 0 0 1-1.444 1.076c-.596-.168-1.022-.887-1.636-1.481Z" data-name="パス 880"/><path d="M77.939 70.618c-3.255 0-6.415-.152-9.559.053a5.952 5.952 0 0 1-6.121-3.675 20.764 20.764 0 0 1-.877-3.26c-.074-.415.236-.9.373-1.354.451.142.919.252 1.354.436.131.053.236.294.268.462.646 3.906 3.312 4.31 6.6 4.037 2.824-.236 5.68-.079 8.52-.152a28.868 28.868 0 0 0 3.066-.362c1-.136 1.979.079 2.158 1.108a1.444 1.444 0 0 1-1.449 1.753 14.845 14.845 0 0 0-2.126.467l.892 3.675a9.575 9.575 0 0 1 .31 1.244 1.575 1.575 0 0 1-1.276 1.827c-.415.053-1.234-.756-1.365-1.3-.39-1.631-.526-3.295-.768-4.959Z" data-name="パス 881"/><path d="M94.963 258.81c.583-1.942 1.123-3.6 1.575-5.286 1.281-4.725 2.515-9.449 3.8-14.174a27.723 27.723 0 0 1 1.155-3.491c.173-.415.73-.672 1.113-1 .241.488.761 1.024.688 1.459-.352 1.995-.882 3.958-1.318 5.937-1.018 4.641-1.99 9.292-3.05 13.927a17.138 17.138 0 0 1-1.218 3.239 1.157 1.157 0 0 1-1.759.593 4.725 4.725 0 0 1-.982-1.207Z" data-name="パス 882"/><path d="M59.513 231.664a1.177 1.177 0 0 1 .121-.378c.3-.446.635-.882.955-1.318.331.441.856.84.966 1.328.6 2.756 1.118 5.528 1.633 8.3a22.111 22.111 0 0 0 3.58 8.977c.525.714 1 1.575.079 2.257s-1.7 0-2.326-.677a13.577 13.577 0 0 1-3.339-7.3c-.63-3.564-1.05-7.171-1.549-10.762a3.667 3.667 0 0 0-.12-.427Z" data-name="パス 883"/><path d="M85.881 202.072h-4.772c-.777 0-1.622-.147-1.407-1.081a2.189 2.189 0 0 1 1.465-1.234 31.687 31.687 0 0 1 3.969-.472c0-1.47-1.3-2.84-.126-4.2 1.318-.037 1.717.887 2.147 1.9a32.687 32.687 0 0 0 1.575 2.914c.105.189.326.436.273.562-.782 1.811.241 3.528.22 5.292a4.32 4.32 0 0 1-.1 1.528 8.158 8.158 0 0 1-1.05 1.507c-.451-.483-1.16-.9-1.3-1.454-.401-1.687-.595-3.414-.894-5.262Z" data-name="パス 884"/><path d="M79.451 256.264a14.77 14.77 0 0 1-2.3-.462 1.155 1.155 0 0 1-.525-.955c0-.315.488-.877.682-.845 2.725.457 4.163-1.685 6.063-2.908 1.753-1.123 3.57-2.147 5.349-3.234.814-.5 1.606-.346 1.906.446a1.864 1.864 0 0 1-.588 1.648 242.39 242.39 0 0 1-8.714 5.811 6.653 6.653 0 0 1-1.873.499Z" data-name="パス 885"/><path d="M68.059 58.932c-2.478-.64-4.971-1.213-7.412-1.974-.562-.168-1.354-1.05-1.286-1.47a4.462 4.462 0 0 1 1.26-2.525c.63-.556 1.15.215 1.05.887-.147 1.05.32 1.36 1.223 1.444 2.289.226 4.578.43 6.824.751a7.389 7.389 0 0 1 1.874.856 8.079 8.079 0 0 1-1.575 1.5 5.948 5.948 0 0 1-1.911.331Z" data-name="パス 886"/><path d="M84.884 0c2.278.425 4.336.756 6.363 1.218a2.441 2.441 0 0 1 1.438 1.008 2.1 2.1 0 0 1 0 1.627c-.084.2-.892.294-1.281.168a21.785 21.785 0 0 0-8.678-1.438c-.415.037-.84.3-1.223.236s-.961-.325-1.05-.635a1.213 1.213 0 0 1 .577-1.05C82.306.672 83.655.346 84.884 0Z" data-name="パス 887"/><path d="M115.851 246.531a15.238 15.238 0 0 1 2.5 1.575 14.244 14.244 0 0 0 5.281 3.675c.425.152.651.882.971 1.344-.525.231-1.05.693-1.533.656a7.171 7.171 0 0 1-5.423-3.192 6.893 6.893 0 0 0-1.475-1.717c-.867-.546-.982-1.149-.321-2.341Z" data-name="パス 888"/><path d="M108.439 75.31c-.289.373-.583 1.108-1.087 1.307-.856.341-1.512-.3-1.622-1.123a71.01 71.01 0 0 1-.525-5.864c0-.283.525-.724.913-.84.2-.063.761.347.84.63.525 1.848.951 3.738 1.481 5.89Z" data-name="パス 889"/><path d="M61.272 49.498c-1.837-.152-4.767-3.26-4.725-4.751a1.234 1.234 0 0 1 .488-.929 1.276 1.276 0 0 1 1.123.1c1.323 1.171 2.625 2.389 3.827 3.675a1.333 1.333 0 0 1 .21 1.234c-.168.357-.723.545-.923.671Z" data-name="パス 890"/><path d="M80.48 42.185a1.825 1.825 0 0 1-1.575-2.047 2.3 2.3 0 0 1 1.916-1.937 1.512 1.512 0 0 1 1.69 1.622 2.41 2.41 0 0 1-2.031 2.362Z" data-name="パス 891"/><path d="M63.729 30.316c0 1.837-.95 3.15-1.932 3.06s-1.36-.74-1.333-1.685c.026-1.092 1.05-2.625 1.748-2.42a5.37 5.37 0 0 1 1.517 1.045Z" data-name="パス 892"/><path fill="#fff" d="M115.788 186.549c-2.625-.787-5.029-1.575-7.486-2.231-.436-.116-1.386.168-1.438.409a8.316 8.316 0 0 0 .22 2.415l-3.15.189c-4.2.247-8.447.441-12.667.756-5.024.367-10.042.84-15.066 1.27-3.916.331-7.827.724-11.749.987-5.365.357-10.735.635-16.1.9-3.843.189-7.68.346-11.549.425-2.588.053-5.176-.1-7.759-.079-3.108 0-6.21.152-9.318.184-.64 0-1.286-.31-1.916-.268-1.512.1-1.9-.782-1.832-2 .215-4.294.31-8.609.766-12.882.588-5.481 1.486-10.935 2.242-16.4.126-.866.446-1.2 1.417-.882 2.935.961 5.88 1.89 8.856 2.693 2.394.646 4.84 1.092 7.391 1.659-.525 2.184-1.05 4.494-1.606 6.8-.042.163-.315.262-.42.425-.247.394-.735.95-.614 1.181a1.685 1.685 0 0 0 1.213.751c3.832.194 7.67.378 11.5.446 6.672.115 13.35 0 20.011.257 5.659.2 11.318.646 16.956 1.207 3.318.325 6.583 1.155 9.9 1.638 2.231.326 4.5.378 6.746.682 1.654.226 3.271.688 4.914.992a2.652 2.652 0 0 0 1.517 0c3.15-1.533 6.3-3.15 9.449-4.725.793-.394 1.575-1.265 2.436-.047a.284.284 0 0 0 .252.094 26.681 26.681 0 0 0 4.231-2.047c.829-.572 2.84-1.606 3.837-1.27.808.278.761.808.2 1.265a9.974 9.974 0 0 1-1.774 1.108c-1.517.761-3.05 1.491-4.593 2.2-1.7.787-2.058 1.879-2.1 3.816 0 1.228-.829 2.446-1.286 3.675-.512 1.447-1.074 2.922-1.631 4.407Z" data-name="パス 893"/><path fill="#fff" d="M119.946 112.168c-.3 3.328-.6 6.137-.793 8.956-.273 3.995-.446 8-.688 12-.126 2.1-.341 4.2-.446 6.336-.137 2.719-.189 5.444-.315 8.163a24.854 24.854 0 0 1-.346 3.365 2.856 2.856 0 0 1-2.3 2.53c-2.415.488-4.824 1.013-7.239 1.5-1.375.278-2.756.525-4.147.751-6.52 1.013-13.035 2.058-19.565 2.982-4.32.614-8.672.976-12.993 1.575-2.2.31-4.373.913-6.557 1.381a15.217 15.217 0 0 1-2.1.431c-1.869.137-2.866-1.15-2.7-3.029.336-3.8.457-7.612.824-11.4.268-2.819.756-5.617 1.186-8.4q1.522-9.916 3.082-19.817a7.608 7.608 0 0 1 .462-2.021 2.137 2.137 0 0 1 1.165-1.134c6.006-1.339 12.016-2.688 18.059-3.848 2.84-.525 5.775-.656 8.641-1.05 1.255-.163 2.473-.562 3.722-.761 5.082-.819 10.168-1.638 15.261-2.362a26.913 26.913 0 0 1 4.509-.131 2.016 2.016 0 0 1 1.995 1.491 16.585 16.585 0 0 0 1.283 2.492Zm-22.531 23.219c3.029-2.872 6-5.57 8.83-8.4 3.433-3.423 7.029-6.725 9.449-11.024a.915.915 0 0 1 .178-.22c.693-.63 1.438-1.213 2.068-1.9a8.125 8.125 0 0 0 .882-1.5c-.73-.357-1.459-1.008-2.194-1.013a66.337 66.337 0 0 0-6.919.373 3.186 3.186 0 0 0-1.8.882c-2.814 2.829-5.565 5.722-8.326 8.6-1.648 1.711-3.276 3.438-4.935 5.145-1.139 1.171-2.315 2.3-3.407 3.386-2.336-1.8-4.5-3.4-6.6-5.108-2.263-1.843-4.9-3.3-6.3-6.048a1.2 1.2 0 0 0-.919-.525c-2.914.142-5.827.294-8.725.588-.446.047-.9.761-1.165 1.265-.073.137.483.667.814.95.856.745 1.769 1.423 2.625 2.184 2.982 2.693 5.943 5.418 8.924 8.121a812.682 812.682 0 0 0 5.2 4.672c-2.793 3.029-5.538 6.006-8.289 8.977-.766.829-1.491 1.706-2.32 2.473-2.688 2.494-5.449 4.914-8.1 7.444a2.021 2.021 0 0 0-.425 1.748 1.692 1.692 0 0 0 1.475.693c3.286-.6 6.562-1.307 9.822-2.042a2.882 2.882 0 0 0 1.255-.887 403.518 403.518 0 0 0 5.286-5.549q3.675-3.9 7.349-7.806c3.444 2.835 6.583 5.381 9.675 7.985 1.176.987 2.625 1.627 3.354 3.213a2.011 2.011 0 0 0 2.362 1.05c2.3-.609 4.635-1.118 6.924-1.78a1.424 1.424 0 0 0 .331-1.333 10.09 10.09 0 0 0-1.853-2.021c-2.578-2.236-5.2-4.415-7.78-6.651-2.3-1.937-4.483-3.927-6.756-5.948Z" data-name="パス 894"/><path fill="#fff" d="m125.878 303.037-12.6-16.379 4.987-1.822c1.134 1.837 2.31 3.486 3.218 5.25 1.6 3.15 3.039 6.352 4.536 9.538.157.331.173.735.357 1.05a1.51 1.51 0 0 1-.498 2.363Z" data-name="パス 895"/><path fill="#fff" d="m106.019 288.433 4.861-1.27c.5 2.21.966 4.368 1.47 6.515a868.608 868.608 0 0 0 2.667 11.119c.22.887.116 1.491-.929 1.732Z" data-name="パス 896"/><path fill="#fff" d="M44.793 206.431v-5.423l6.063-.845v4.851Z" data-name="パス 897"/><path fill="#fff" d="M146.152 173.798c-.714 2.021-3.963 3.3-5.712 2.315-.877-.5-.409-1.05 0-1.491a4.588 4.588 0 0 1 5.712-.824Z" data-name="パス 898"/><path fill="#fff" d="M144.31 178.586c.079.026.756.1.793.3a1.785 1.785 0 0 1-.257 1.423 7.349 7.349 0 0 1-4.966 2.047c-.787.026-.9-.677-.436-1.2 1.206-1.358 2.529-2.586 4.866-2.57Z" data-name="パス 899"/><path fill="#fff" d="m144.703 170.512-3.465-1.916c1.144-1.617 2.735-2.32 3.57-1.7s.892 2.23-.105 3.616Z" data-name="パス 900"/><path fill="#fff" d="M127.51 214.125c.488.866.85 1.423 1.118 2.016.346.761.619 1.575.982 2.478h-4.084c.625-1.407 1.239-2.809 1.984-4.494Z" data-name="パス 901"/><path fill="#fff" d="M139.826 184.701c.252 2.1-.84 3.328-3.8 4.341-.326-1.627 1.375-3.606 3.8-4.341Z" data-name="パス 902"/><path fill="#fff" d="M136.723 495.786c-.6-1.16-1.47-1.213-2.625-.714-2.142.9-4.315 1.759-6.53 2.452a24.49 24.49 0 0 1-3.937.593v-11.545c5.775 2.9 11.344 2.347 17.192-.126-.666 3.802.069 7.555-4.1 9.34Z" data-name="パス 903"/><path fill="#fff" d="m121.158 498.212-10.5-1.9c.751-4.231 1.475-8.326 2.221-12.541 1.659.583 3.15 1.144 4.656 1.622a21.2 21.2 0 0 0 3.26.787c1.05.152.961.7.908 1.507-.225 3.403-.361 6.818-.545 10.525Z" data-name="パス 904"/><path fill="#fff" d="M127.946 500.642c-.6 1.974-1.108 3.722-1.685 5.454a1 1 0 0 1-.808.425c-3.533-.142-7.108-.058-10.5-1.323-.525-.2-.94-.756-1.444-1.081a12.522 12.522 0 0 0-1.606-.877c-.667-.32-1.858-.493-1.932-.9a10.5 10.5 0 0 1 .173-3.475c0-.147.9-.325 1.318-.22 1.759.436 3.491 1 5.25 1.47a21.868 21.868 0 0 0 10.09.525 7.785 7.785 0 0 1 1.144.002Z" data-name="パス 905"/><path fill="#fff" d="M145.911 489.45c.079 2.835-1.575 4.5-3.15 5.848a54 54 0 0 1-8.289 5.775c-1.36.793-3.15.8-4.819 1.176l-.226-1.9 6.971-3.15c.756.772 1.638.457 2.578-.326.751-.619 1.638-1.05 2.425-1.643a1.623 1.623 0 0 0 .661-.84c.465-2.221 2.431-3.134 3.849-4.94Z" data-name="パス 906"/><path fill="#fff" d="m142.414 486.442 4.641-1.79.178.158-4.494 5.276c-.126-1.413-.22-2.494-.325-3.644Z" data-name="パス 907"/><path fill="#fff" d="m148.189 484.169 2.231-1.349c.987 1.78-.719 2.252-1.507 3.386-.273-.767-.477-1.356-.724-2.037Z" data-name="パス 908"/><path fill="#fff" d="M64.862 500.316a2.315 2.315 0 0 0-2.572-1.428 57.118 57.118 0 0 0-6.588.64 21.37 21.37 0 0 1-12.189-1.05c-.751-.284-1.575-.446-2.268-.793a4.177 4.177 0 0 0-3.585-.383c-.976.357-2.3-.194-3.459-.43a44.4 44.4 0 0 1-6.593-1.528 33.375 33.375 0 0 1-5.218-2.982c-.8-.488-1.575-1.108-2.226.168-.961-.688-.661-1.207-.131-2.063a7.822 7.822 0 0 1 6.336-3.957c.373-.031.724-.4 1.087-.614l1.874-1.1c.073 2.168 1.27 2.625 2.74 2.735.378 1.738 1.15 2.557 2.257 2.42s1.654-.9 1.486-2.352c.074-.047.184-.163.21-.142 1.627 1.018 3.5.436 5.25.756.693.126 1.816.163 2.126-.236 1.176-1.507 2.672-1.239 4.158-1.081 4.788.525 9.475-.221 14.174-1.087l.593-.1a1.217 1.217 0 0 1 .116.388c-.226 3.06 1.932 5.307 4.956 5.995 3.323.756 4.525-1.69 6.163-3.47a5.832 5.832 0 0 0 1.165-5.523l6.6-2.042c.661 5.328 1.575 10.5.2 15.927a61.684 61.684 0 0 1-13.3 1.47c-.693 0-1.4-.063-2.1 0-1.165.1-1.081 1.134-1.318 1.911Z" data-name="パス 909"/><path fill="#fff" d="M42.966 501.812c-1.391-.136-2.777-.3-4.2-.388a4.3 4.3 0 0 0-1.255.31c.157.462.21 1.239.5 1.339a26.065 26.065 0 0 0 4.263 1.144c2.977.525 5.979.892 8.966 1.328v.362a7.334 7.334 0 0 1-1.165.137c-5-.179-10.011-.21-14.993-.635-2.341-.2-4.614-1.155-6.914-1.785-1.575-.43-3.15-.829-4.672-1.365a9.227 9.227 0 0 1-1.822-1.3c1.937.525 3.564 1.081 5.25 1.412a34.03 34.03 0 0 0 5 .577c.525 0 1.081-.467 1.627-.724-.478-.43-.9-1.108-1.449-1.244-2.473-.6-5-1-7.475-1.575-2.567-.609-4.037-2.546-5.145-4.761-.2-.415 0-1.05.068-1.822 2.3 2.913 4.667 4.914 8.179 5.281 3.328.352 6.646.866 9.974 1.423a14.969 14.969 0 0 1 2.278 1.05c.992.362 2.021.6 3.04.892Z" data-name="パス 910"/><path fill="#fff" d="M88.868 479.072v6.63c0 1.921.158 3.848.084 5.775a2.557 2.557 0 0 1-.908 1.743 35.668 35.668 0 0 1-4.525 2.661c.4-.9-.231-2.1 1.05-2.724.241-.115.184-1.05.11-1.575-.525-3.675-1.092-7.349-1.664-11.14Z" data-name="パス 911"/><path fill="#fff" d="m79.934 500.644 9.654-5.328c-.457 1.937-.945 4.042-1.459 6.137a1.149 1.149 0 0 1-.415.724c-2.588 1.207-4.872 3.15-7.874 3.386a2.288 2.288 0 0 1-.425-.142c.188-1.718.403-3.472.519-4.777Z" data-name="パス 912"/><path fill="#fff" d="M73.073 483.639a6.009 6.009 0 0 1-.189 1.837 8.032 8.032 0 0 1-4.368 4.41c-1.575.625-2.683-.525-3.753-1.407a2.021 2.021 0 0 1-.577-2.446c.32-.887.966-1.05 1.732-1.165 2.278-.379 4.551-.783 7.155-1.229Z" data-name="パス 913"/><path fill="#fff" d="M64.82 500.337c2.536 1.281 5.187.924 7.874.614 1.711-.2 3.444-.257 5.349-.394l-.158 1.753c-8.221-.478-16.274.315-24.374.672l-.047-.388c2.431-.478 4.861-.95 7.286-1.433l4.131-.845Z" data-name="パス 914"/><path fill="#fff" d="m39.428 486.206-1.78.714.037-.4a14.038 14.038 0 0 0-2.415-.525c-1.748-.094-3.6.4-5.1-.976 3.163-.939 6.135-.078 9.258 1.187Z" data-name="パス 915"/><path fill="#fff" d="m90.995 497.597.294-3.706.525.037c-.084 1.249-.173 2.494-.257 3.738Z" data-name="パス 916"/><path d="M97.415 135.387c2.273 2.021 4.473 4.011 6.714 5.953 2.578 2.236 5.2 4.415 7.78 6.651a10.088 10.088 0 0 1 1.853 2.021c.178.278-.094 1.265-.331 1.333-2.289.661-4.62 1.171-6.924 1.78a2.011 2.011 0 0 1-2.362-1.05c-.719-1.575-2.179-2.226-3.354-3.213-3.092-2.625-6.231-5.15-9.675-7.985q-3.675 3.9-7.349 7.806a532.608 532.608 0 0 1-5.286 5.549 2.881 2.881 0 0 1-1.255.887c-3.26.735-6.536 1.438-9.822 2.042a1.693 1.693 0 0 1-1.475-.693 2.021 2.021 0 0 1 .425-1.748c2.651-2.53 5.412-4.95 8.1-7.444.829-.766 1.575-1.643 2.32-2.473 2.751-2.971 5.5-5.948 8.289-8.977-1.711-1.533-3.465-3.092-5.2-4.672-2.982-2.7-5.943-5.428-8.924-8.121-.845-.761-1.759-1.438-2.625-2.184-.331-.283-.887-.814-.814-.95.262-.525.719-1.218 1.165-1.265 2.9-.294 5.811-.446 8.725-.588a1.2 1.2 0 0 1 .919.525c1.423 2.746 4.063 4.2 6.3 6.048 2.1 1.706 4.263 3.307 6.6 5.108 1.092-1.081 2.268-2.215 3.407-3.386 1.659-1.706 3.286-3.433 4.935-5.145 2.761-2.877 5.512-5.775 8.326-8.6a3.186 3.186 0 0 1 1.8-.882 66.338 66.338 0 0 1 6.919-.373c.735 0 1.465.656 2.194 1.013a8.125 8.125 0 0 1-.882 1.5c-.63.682-1.375 1.265-2.068 1.9a.914.914 0 0 0-.178.22c-2.4 4.31-6 7.612-9.449 11.024-2.803 2.819-5.769 5.518-8.798 8.389Z" data-name="パス 917"/></svg>