<svg xmlns="http://www.w3.org/2000/svg" xml:space="preserve" id="レイヤー_1" x="0" y="0" style="enable-background:new 0 0 330.2 147" version="1.1" viewBox="0 0 330.2 147"><style>.st0{enable-background:new}.st1{fill:none;stroke:#ddd}</style><g class="st0"><path d="M44.9 3.8 26 40v21.2h-6.7V40.1L.8 3.8h7.6l12.9 25.9c.2.3.6 1.5 1.4 3.5h.1c.3-.9.8-2.1 1.5-3.5L37.8 3.8h7.1zM85.2 61.2h-6.6v-6.5h-.2c-2.7 5-6.9 7.4-12.7 7.4-9.8 0-14.7-5.8-14.7-17.5V20.2h6.5v23.5c0 8.6 3.3 13 9.9 13 3.2 0 5.8-1.2 7.9-3.5 2.1-2.4 3.1-5.5 3.1-9.3V20.2H85v41zM132.5 61.2h-9.2l-18.1-19.7h-.2v19.7h-6.6V.5h6.6V39h.2l17.2-18.8h8.6L112 40l20.5 21.2zM142.6 9.8c-1.2 0-2.2-.4-3-1.2-.8-.8-1.2-1.8-1.2-3s.4-2.2 1.2-3.1c.8-.8 1.8-1.2 3-1.2s2.2.4 3.1 1.2 1.3 1.8 1.3 3.1c0 1.2-.4 2.2-1.3 3-.9.8-1.9 1.2-3.1 1.2zm3.2 51.4h-6.6v-41h6.6v41z" class="st1"/></g><g class="st0"><path d="M50.8 127.2h-6.7V101H14.3v26.2H7.6V69.8h6.7V95H44V69.8h6.7v57.4zM94.3 127.2h-6.6v-6.4h-.2c-2.9 4.9-7.1 7.4-12.6 7.4-4.1 0-7.3-1.1-9.6-3.2-2.3-2.2-3.5-5-3.5-8.6 0-7.7 4.5-12.1 13.5-13.4l12.3-1.7c0-7-2.8-10.5-8.4-10.5-4.9 0-9.4 1.7-13.4 5v-6.7c4-2.6 8.7-3.8 13.9-3.8 9.6 0 14.5 5.1 14.5 15.3v26.6zm-6.6-20.7-9.9 1.4c-3 .4-5.3 1.2-6.9 2.3-1.5 1.1-2.3 3-2.3 5.7 0 2 .7 3.6 2.1 4.9 1.4 1.3 3.3 1.9 5.7 1.9 3.3 0 5.9-1.1 8.1-3.4 2.1-2.3 3.2-5.2 3.2-8.7v-4.1zM141.7 123.9c0 15.1-7.2 22.6-21.6 22.6-5.1 0-9.5-1-13.3-2.9V137c4.6 2.6 9 3.8 13.2 3.8 10.1 0 15.1-5.4 15.1-16.1v-4.5h-.2c-3.1 5.2-7.8 7.8-14.1 7.8-5.1 0-9.2-1.8-12.3-5.5-3.1-3.6-4.7-8.5-4.7-14.7 0-7 1.7-12.5 5-16.6 3.3-4.1 7.9-6.2 13.8-6.2 5.5 0 9.6 2.2 12.3 6.6h.2v-5.7h6.6v38zm-6.6-15.2v-6c0-3.3-1.1-6-3.3-8.4s-4.9-3.5-8.2-3.5c-4.1 0-7.2 1.5-9.5 4.4-2.3 3-3.4 7.1-3.4 12.4 0 4.6 1.1 8.2 3.3 11s5.1 4.1 8.7 4.1c3.7 0 6.7-1.3 9-3.9 2.3-2.7 3.4-6.1 3.4-10.1zM158.3 75.8c-1.2 0-2.2-.4-3-1.2-.8-.8-1.2-1.8-1.2-3s.4-2.2 1.2-3.1c.8-.8 1.8-1.2 3-1.2s2.2.4 3.1 1.2 1.3 1.8 1.3 3.1c0 1.2-.4 2.2-1.3 3-.8.8-1.9 1.2-3.1 1.2zm3.2 51.4H155v-41h6.6v41zM233 127.2h-6.6v-23.5c0-4.5-.7-7.8-2.1-9.8-1.4-2-3.8-3-7.1-3-2.8 0-5.2 1.3-7.1 3.8-2 2.6-2.9 5.6-2.9 9.2v23.4h-6.6V103c0-8.1-3.1-12.1-9.3-12.1-2.9 0-5.3 1.2-7.1 3.6-1.9 2.4-2.8 5.6-2.8 9.4v23.4h-6.6v-41h6.6v6.5h.2c2.9-5 7.2-7.4 12.7-7.4 2.8 0 5.2.8 7.3 2.3 2.1 1.6 3.5 3.6 4.3 6.1 3-5.7 7.6-8.5 13.6-8.5 9 0 13.5 5.6 13.5 16.7v25.2zM262.6 128.2c-6.1 0-10.9-1.9-14.5-5.7-3.6-3.8-5.4-8.9-5.4-15.2 0-6.9 1.9-12.3 5.6-16.1 3.8-3.9 8.8-5.8 15.3-5.8 6.1 0 10.9 1.9 14.3 5.6 3.4 3.8 5.1 9 5.1 15.7 0 6.5-1.8 11.8-5.5 15.7-3.7 3.8-8.7 5.8-14.9 5.8zm.5-37.4c-4.2 0-7.6 1.4-10 4.3-2.5 2.9-3.7 6.8-3.7 11.9 0 4.9 1.2 8.7 3.7 11.5s5.8 4.2 10 4.2 7.5-1.4 9.8-4.1c2.3-2.7 3.4-6.7 3.4-11.7 0-5.1-1.1-9.1-3.4-11.9-2.3-2.8-5.6-4.2-9.8-4.2zM314.9 92.8c-1.1-.9-2.8-1.3-5-1.3-2.8 0-5.1 1.3-7 4-1.9 2.6-2.8 6.2-2.8 10.8v20.9h-6.6v-41h6.6v8.4h.2c.9-2.9 2.4-5.1 4.3-6.7 1.9-1.6 4.1-2.4 6.4-2.4 1.7 0 3 .2 3.9.6v6.7zM325.4 75.8c-1.2 0-2.2-.4-3-1.2s-1.2-1.8-1.2-3 .4-2.2 1.2-3.1 1.8-1.2 3-1.2 2.2.4 3.1 1.2c.8.8 1.3 1.8 1.3 3.1 0 1.2-.4 2.2-1.3 3-.9.8-1.9 1.2-3.1 1.2zm3.2 51.4H322v-41h6.6v41z" class="st1"/></g></svg>