<svg xmlns="http://www.w3.org/2000/svg" xml:space="preserve" style="enable-background:new 0 0 811.2 127.8" viewBox="0 0 811.2 127.8"><path d="M571.8 127.8c-3.8 0-7.7-.4-11.4-1.2-3.4-.7-6.8-1.9-9.9-3.5l-.3-.1v-11.6l.7.4c3.4 1.9 6.9 3.4 10.6 4.5 3.3 1 6.7 1.5 10.1 1.5 3.5.1 7-.5 10.3-1.6 2.8-.9 5.3-2.5 7.3-4.7s3.5-4.9 4.4-7.8c1-3.6 1.5-7.3 1.5-11v-5.8c-2.2 3.5-5.2 6.4-8.8 8.4-4.1 2.2-8.7 3.3-13.3 3.2-3.8.1-7.6-.7-11.1-2.2-3.4-1.5-6.4-3.8-8.8-6.6-2.6-3-4.5-6.5-5.6-10.3-1.3-4.3-1.9-8.8-1.9-13.3-.1-5.1.6-10.1 2-15 1.2-4.2 3.3-8.2 6.1-11.6 2.6-3.2 5.9-5.8 9.6-7.5 4-1.7 8.3-2.6 12.6-2.5 4.1-.1 8.1.8 11.7 2.7 3.1 1.7 5.7 4.1 7.6 7V31h11.4v60.3c.1 5.4-.6 10.7-2.2 15.8-1.3 4.2-3.5 8.1-6.5 11.4-3 3.1-6.8 5.5-10.9 6.8-4.9 1.9-10.1 2.6-15.2 2.5zm-20.6-5.4c3 1.5 6.1 2.6 9.4 3.2 3.7.8 7.4 1.2 11.2 1.1 5 .1 10-.7 14.8-2.2 4-1.3 7.6-3.6 10.5-6.6 2.9-3.1 5.1-6.9 6.3-11 1.5-5 2.2-10.3 2.1-15.5V32.2h-9.4v9h-1l-.1-.2c-1.9-3.2-4.6-5.9-7.9-7.7-3.5-1.8-7.3-2.7-11.2-2.6-4.2-.1-8.3.7-12.2 2.4-3.6 1.6-6.8 4.1-9.3 7.2-2.7 3.3-4.7 7.2-5.9 11.3-1.4 4.8-2 9.7-2 14.7-.1 4.4.6 8.8 1.8 13 1.1 3.7 3 7.1 5.4 10 2.3 2.7 5.2 4.9 8.4 6.4 3.4 1.5 7.1 2.2 10.7 2.1 4.5.1 8.9-1 12.8-3 3.8-2.2 6.9-5.3 9.1-9.2l.1-.2h1V93c.1 3.8-.4 7.6-1.5 11.3-.9 3-2.5 5.8-4.6 8.2-2.1 2.2-4.8 3.9-7.7 4.9-3.4 1.1-7 1.7-10.7 1.6-3.5 0-7-.5-10.4-1.5-3.5-1-6.9-2.5-10.1-4.2l.4 9.1zm232.3-23.6c-4.3.1-8.5-.7-12.5-2.3-3.7-1.5-6.9-3.8-9.5-6.8-2.7-3.1-4.8-6.8-6-10.8-1.4-4.7-2.1-9.5-2-14.4-.1-4.7.7-9.4 2.2-13.9 1.4-4.1 3.6-7.9 6.6-11.1 2.7-3.1 6.1-5.6 9.8-7.3 3.8-1.6 7.8-2.5 11.9-2.4 3.9-.1 7.8.6 11.5 2.1 3.3 1.4 6.3 3.6 8.6 6.3 2.4 2.9 4.3 6.4 5.3 10 1.2 4.3 1.8 8.7 1.8 13.2v6h-45.9c.1 3 .6 6.1 1.5 9 .9 2.6 2.3 5 4.1 7 1.8 1.9 4 3.4 6.4 4.3 2.7 1 5.6 1.5 8.5 1.4 3.5 0 7-.6 10.4-1.8 3.4-1.3 6.6-3.1 9.5-5.4l.8-.6v11.1l-.2.1c-3.1 2.2-6.5 3.8-10.1 4.7-4 1.1-8.3 1.6-12.7 1.6zm.5-68.1c-4 0-7.9.8-11.5 2.3-3.6 1.7-6.8 4.1-9.5 7-2.8 3.1-5 6.8-6.3 10.8-1.5 4.4-2.2 9-2.1 13.6-.1 4.8.6 9.5 1.9 14.1 1.2 3.9 3.1 7.4 5.8 10.5 2.5 2.8 5.6 5.1 9.2 6.5 3.9 1.5 8 2.2 12.1 2.2 4.2 0 8.5-.5 12.6-1.5 3.4-.9 6.7-2.4 9.6-4.4v-8.5c-2.7 2.1-5.8 3.7-9 4.9-3.4 1.2-7.1 1.8-10.7 1.8-3 0-6.1-.5-8.9-1.5-2.6-1-4.9-2.5-6.8-4.6-2-2.1-3.4-4.6-4.4-7.3-1-3.2-1.6-6.4-1.6-9.8v-.5h45.9v-5c.1-4.4-.5-8.7-1.7-12.9-1-3.5-2.8-6.8-5.1-9.7-2.2-2.6-5-4.7-8.2-6.1-3.7-1.3-7.5-2-11.3-1.9zm-67.2 68.1c-3.2 0-6.4-.3-9.5-1-2.8-.6-5.6-1.6-8.2-3l-.3-.1V82.2l.8.6c2.7 2 5.6 3.6 8.8 4.6 3.1 1 6.4 1.6 9.6 1.5 4.4 0 7.8-.7 10-2.2 1-.7 1.8-1.6 2.4-2.7.6-1.2.8-2.5.8-3.8 0-1.5-.3-2.9-1.1-4.1-.8-1.2-1.8-2.3-3-3.1-1.4-1-3-1.8-4.6-2.5-1.8-.7-3.7-1.5-5.8-2.3-2.6-1-5.2-2.2-7.6-3.5-2-1.1-3.9-2.4-5.6-4-1.5-1.5-2.6-3.2-3.4-5.2-.8-2.1-1.2-4.4-1.1-6.7-.1-2.9.7-5.8 2.2-8.3 1.4-2.4 3.4-4.5 5.7-6.1 2.5-1.7 5.2-2.9 8.1-3.7 3.1-.8 6.2-1.2 9.4-1.2 5.3-.1 10.5.9 15.3 3l.3.1v11.8l-.8-.5c-2.3-1.5-4.9-2.7-7.6-3.5-2.8-.8-5.7-1.2-8.7-1.2-1.7 0-3.5.2-5.1.6-1.4.4-2.7 1-3.9 1.8-1 .7-1.9 1.6-2.5 2.7-.6 1.1-.9 2.3-.9 3.5 0 1.4.2 2.8.9 4 .6 1.1 1.5 2.1 2.6 2.9 1.3.9 2.7 1.7 4.2 2.4 1.7.7 3.6 1.5 5.8 2.3 2.7 1 5.3 2.1 7.8 3.4 2.2 1.1 4.2 2.4 5.9 4 1.6 1.5 2.9 3.2 3.8 5.2.9 2.2 1.4 4.6 1.3 7 .1 3-.7 6-2.2 8.6-1.5 2.4-3.5 4.5-5.8 6.1-2.6 1.7-5.4 2.9-8.3 3.6-3.1 1.1-6.4 1.5-9.7 1.5zm-16.9-4.7c2.4 1.2 5 2.1 7.6 2.7 3 .7 6.1 1 9.3 1 3.2 0 6.5-.4 9.6-1.1 2.9-.7 5.6-1.8 8-3.4 2.3-1.5 4.1-3.4 5.5-5.7 1.4-2.5 2.1-5.3 2.1-8.1.1-2.3-.4-4.5-1.3-6.6-.9-1.9-2.1-3.5-3.6-4.9-1.7-1.5-3.7-2.8-5.7-3.9-2.5-1.3-5.1-2.4-7.7-3.4-2.2-.8-4.1-1.6-5.8-2.4-1.6-.6-3.1-1.5-4.4-2.5-1.2-.9-2.1-1.9-2.8-3.2-.7-1.4-1-2.9-1-4.5 0-1.4.3-2.7 1-4 .7-1.2 1.6-2.3 2.7-3.1 1.3-.9 2.7-1.5 4.2-1.9 1.8-.5 3.6-.7 5.4-.7 3 0 6 .4 8.9 1.2 2.5.7 4.9 1.8 7.1 3.1v-9.3c-4.6-1.9-9.6-2.8-14.6-2.7-3.1 0-6.1.4-9.1 1.2-2.8.7-5.4 1.9-7.8 3.5-2.2 1.5-4.1 3.5-5.4 5.7-1.4 2.4-2.1 5.1-2 7.8 0 2.2.3 4.3 1.1 6.4.7 1.8 1.8 3.4 3.2 4.8 1.6 1.5 3.4 2.8 5.3 3.8 2.4 1.3 5 2.4 7.5 3.4 2.1.8 4 1.6 5.8 2.3 1.7.7 3.3 1.5 4.8 2.6 1.3.9 2.4 2 3.3 3.3.9 1.4 1.3 3 1.3 4.7.2 2.9-1.2 5.7-3.7 7.3-2.4 1.6-5.9 2.4-10.6 2.4-3.4 0-6.7-.5-10-1.6-2.9-1-5.7-2.4-8.3-4.2l.1 10zm-45.6 4.7c-4.5.1-8.9-.7-13.1-2.3-3.9-1.5-7.4-3.9-10.2-7-2.9-3.1-5.1-6.8-6.6-10.8-1.5-4.4-2.2-9.1-2.2-13.7-.1-5 .7-10 2.3-14.7 1.4-4.2 3.8-8 6.8-11.2 3-3.1 6.7-5.5 10.7-7 4.4-1.6 9.1-2.4 13.8-2.3 4.5-.1 8.9.7 13.1 2.3 3.8 1.5 7.2 3.8 9.9 6.8 2.8 3.1 4.9 6.8 6.2 10.9 1.4 4.6 2.1 9.5 2.1 14.3.1 4.8-.7 9.6-2.2 14.2-1.4 4.1-3.7 7.9-6.7 11.1-2.9 3.1-6.5 5.6-10.5 7.1-4.2 1.5-8.8 2.3-13.4 2.3zm1.5-68.1c-4.6-.1-9.2.7-13.5 2.3-3.9 1.5-7.4 3.8-10.3 6.8-3 3.1-5.2 6.8-6.6 10.8-1.5 4.6-2.3 9.5-2.2 14.4-.1 4.6.7 9.1 2.1 13.4 1.4 3.9 3.5 7.4 6.3 10.4 2.8 2.9 6.1 5.2 9.9 6.7 4.1 1.5 8.4 2.3 12.8 2.2 4.5.1 8.9-.7 13.1-2.3 3.8-1.5 7.3-3.9 10.1-6.9 2.9-3.1 5.1-6.7 6.5-10.7 1.5-4.5 2.2-9.1 2.2-13.8.1-4.7-.6-9.5-2-14-1.2-3.9-3.3-7.5-6-10.5-2.6-2.9-5.9-5.2-9.6-6.6-4.1-1.5-8.4-2.3-12.8-2.2zM490.7 98.8c-6 .1-12-1-17.6-3.2-5.2-2.2-9.9-5.5-13.8-9.7-3.9-4.3-6.9-9.4-8.8-14.9-2-6-3-12.3-2.9-18.7-.1-6.8.9-13.5 3-19.9 1.9-5.7 5-11 9-15.5 3.9-4.3 8.8-7.7 14.2-9.9 5.9-2.3 12.2-3.4 18.5-3.3 5.9-.1 11.7 1 17.2 3.2 5.2 2.2 9.8 5.5 13.5 9.6 3.9 4.3 6.9 9.3 8.7 14.8 2 6 3 12.4 2.9 18.7.1 6.8-.9 13.6-3 20.1-1.9 5.7-4.9 11-9 15.5-3.9 4.3-8.6 7.6-14 9.8-5.7 2.3-11.8 3.4-17.9 3.4zm1.5-94.1c-6.2-.1-12.3 1-18.1 3.2-5.3 2.1-10 5.4-13.8 9.7-3.9 4.4-6.9 9.5-8.8 15.1-2 6.3-3 12.9-2.9 19.6-.1 6.2.9 12.4 2.9 18.4 1.9 5.4 4.8 10.3 8.6 14.5 3.7 4.1 8.3 7.3 13.4 9.4 5.5 2.2 11.3 3.2 17.2 3.2 6 .1 12-1 17.6-3.2 5.2-2.1 9.9-5.4 13.6-9.6 3.9-4.4 6.9-9.5 8.8-15.1 2-6.4 3-13.1 2.9-19.8.1-6.2-.9-12.5-2.9-18.4-1.8-5.4-4.7-10.3-8.5-14.5-3.6-4.1-8.1-7.3-13.2-9.4-5.3-2.1-11.1-3.2-16.8-3.1zM374.1 98.8c-4.3.1-8.5-.7-12.5-2.3-3.7-1.5-6.9-3.8-9.5-6.8-2.7-3.1-4.8-6.8-6-10.8-1.4-4.7-2.1-9.5-2-14.4-.1-4.7.7-9.4 2.2-13.9 1.4-4.1 3.6-7.9 6.6-11.1 2.7-3.1 6.1-5.6 9.8-7.3 3.8-1.6 7.8-2.5 11.9-2.4 3.9-.1 7.8.6 11.5 2.1 3.3 1.4 6.3 3.6 8.6 6.3 2.4 2.9 4.3 6.4 5.3 10 1.2 4.3 1.8 8.7 1.8 13.2v6h-45.9c.1 3 .6 6.1 1.5 9 .9 2.6 2.3 5 4.1 7 1.8 1.9 4 3.4 6.5 4.3 2.7 1 5.6 1.5 8.5 1.4 3.5 0 7-.6 10.4-1.8 3.4-1.3 6.6-3.1 9.5-5.4l.8-.6v11.1l-.2.1c-3.1 2.2-6.5 3.8-10.1 4.7-4.2 1.1-8.5 1.6-12.8 1.6zm.4-68.1c-4 0-7.9.8-11.5 2.3-3.6 1.7-6.8 4.1-9.5 7-2.8 3.1-5 6.8-6.4 10.8-1.5 4.4-2.2 9-2.1 13.6-.1 4.8.6 9.5 1.9 14.1 1.2 3.9 3.1 7.4 5.8 10.5 2.5 2.8 5.6 5.1 9.2 6.5 3.9 1.5 8 2.2 12.1 2.2 4.2 0 8.5-.5 12.6-1.5 3.4-.9 6.7-2.4 9.6-4.4v-8.5c-2.7 2.1-5.8 3.7-9 4.9-3.4 1.2-7.1 1.8-10.7 1.8-3 0-6.1-.5-8.9-1.5-2.6-1-4.9-2.5-6.8-4.6-2-2.1-3.4-4.6-4.4-7.3-1-3.2-1.6-6.4-1.6-9.8v-.5h45.9v-5c.1-4.4-.5-8.7-1.7-12.9-1-3.5-2.8-6.8-5.1-9.7-2.2-2.6-5-4.7-8.2-6.1-3.6-1.3-7.4-2-11.2-1.9zM232.6 98.8c-3.5.1-7-.5-10.3-1.8-2.9-1.1-5.5-3-7.5-5.3-2.1-2.6-3.6-5.6-4.5-8.8-1-4-1.5-8.1-1.5-12.2V31.2h11.3v37.7c0 6.7 1.3 11.8 3.8 15.1 1.2 1.6 2.9 2.9 4.7 3.7 2.1.9 4.4 1.3 6.7 1.2 2.3 0 4.6-.4 6.7-1.4 2.1-1 3.9-2.3 5.4-4.1 1.6-1.8 2.8-4 3.6-6.3.8-2.6 1.2-5.3 1.2-8.1V31h11.4v66h-11.4v-9.4c-1.9 3.2-4.6 5.9-7.8 7.9-3.4 2.3-7.6 3.3-11.8 3.3zm-22.7-66.6v38.3c-.1 4 .4 8.1 1.4 12 .8 3.1 2.3 6 4.3 8.5 1.9 2.2 4.3 4 7.1 5 3.2 1.2 6.6 1.8 10 1.7 4 .1 8-.9 11.6-2.9 3.4-2.1 6.2-5.1 8.1-8.7l.1-.3h1v10.3h9.4v-64h-9.4v37c0 2.8-.4 5.7-1.3 8.4-.8 2.4-2.1 4.7-3.8 6.7-1.6 1.8-3.6 3.3-5.8 4.3-2.3 1-4.7 1.5-7.1 1.4-2.4 0-4.8-.4-7.1-1.3-2-.9-3.8-2.3-5.1-4-1.4-2-2.5-4.2-3-6.6-.7-3-1-6.1-1-9.1V32.2h-9.4zm-40.8 66.6c-3.2 0-6.4-.3-9.5-1-2.8-.6-5.6-1.6-8.2-3l-.3-.1V82.2l.8.6c2.7 2 5.6 3.6 8.8 4.6 3.1 1 6.4 1.6 9.6 1.5 4.4 0 7.8-.7 10-2.2 1-.7 1.8-1.6 2.4-2.7.6-1.2.8-2.5.8-3.8 0-1.5-.3-2.9-1.1-4.1-.8-1.2-1.8-2.3-3-3.1-1.4-1-3-1.8-4.6-2.5-1.8-.7-3.7-1.5-5.8-2.3-2.6-1-5.2-2.2-7.6-3.5-2-1.1-3.9-2.4-5.6-4-1.5-1.5-2.6-3.2-3.4-5.2-.8-2.1-1.2-4.4-1.1-6.7-.1-2.9.7-5.8 2.2-8.3 1.4-2.4 3.4-4.5 5.7-6.1 2.5-1.7 5.2-2.9 8.1-3.7 3.1-.8 6.2-1.2 9.4-1.2 5.3-.1 10.5.9 15.3 3l.3.1v11.8l-.8-.5c-2.3-1.5-4.9-2.7-7.6-3.5-2.8-.8-5.7-1.2-8.7-1.2-1.7 0-3.5.2-5.1.6-1.4.4-2.7 1-3.9 1.8-1 .7-1.9 1.6-2.5 2.7-.6 1.1-.9 2.3-.9 3.5 0 1.4.2 2.8.9 4 .6 1.1 1.5 2.1 2.6 2.9 1.3.9 2.7 1.7 4.2 2.4 1.7.7 3.6 1.5 5.8 2.3 2.7 1 5.3 2.1 7.8 3.4 2.2 1.1 4.2 2.4 5.9 4 1.6 1.5 2.9 3.2 3.8 5.2.9 2.2 1.4 4.6 1.3 7 .1 3-.7 6-2.2 8.6-1.5 2.4-3.5 4.5-5.8 6.1-2.6 1.7-5.4 2.9-8.3 3.6-3.1 1.1-6.4 1.5-9.7 1.5zm-16.9-4.7c2.4 1.2 5 2.1 7.6 2.7 3 .7 6.1 1 9.3 1 3.2 0 6.5-.4 9.6-1.1 2.9-.7 5.6-1.8 8-3.4 2.3-1.5 4.1-3.4 5.5-5.7 1.4-2.5 2.1-5.3 2.1-8.1.1-2.3-.4-4.5-1.3-6.6-.9-1.9-2.1-3.5-3.6-4.9-1.7-1.5-3.7-2.8-5.7-3.9-2.5-1.3-5.1-2.4-7.7-3.4-2.2-.8-4.1-1.6-5.8-2.4-1.6-.6-3.1-1.5-4.4-2.5-1.2-.9-2.1-1.9-2.8-3.2-.7-1.4-1-2.9-1-4.5 0-1.4.3-2.7 1-4 .7-1.2 1.6-2.3 2.8-3.1 1.3-.9 2.7-1.5 4.2-1.9 1.8-.5 3.6-.7 5.4-.7 3 0 6 .4 8.9 1.2 2.5.7 4.9 1.8 7.1 3.1v-9.3c-4.6-1.9-9.6-2.8-14.6-2.7-3.1 0-6.1.4-9.1 1.2-2.8.7-5.4 1.9-7.8 3.5-2.2 1.5-4.1 3.5-5.4 5.7-1.4 2.4-2.1 5.1-2 7.8 0 2.2.3 4.3 1.1 6.4.7 1.8 1.8 3.4 3.2 4.8 1.6 1.5 3.4 2.8 5.3 3.8 2.4 1.3 5 2.4 7.5 3.4 2.1.8 4 1.6 5.8 2.3 1.7.7 3.3 1.5 4.8 2.6 1.3.9 2.4 2 3.3 3.3.9 1.4 1.3 3 1.3 4.7.2 2.9-1.2 5.7-3.6 7.3-2.4 1.6-5.9 2.4-10.6 2.4-3.4 0-6.7-.5-10-1.6-2.9-1-5.7-2.4-8.3-4.2l-.1 10zm-48.3 4.7c-3.5.1-7-.5-10.3-1.8-2.9-1.1-5.5-3-7.5-5.3-2.1-2.6-3.6-5.6-4.5-8.8-1-4-1.5-8.1-1.5-12.2V31.2h11.3v37.7c0 6.7 1.3 11.8 3.8 15.1 1.2 1.6 2.9 2.9 4.7 3.7 2.1.9 4.4 1.3 6.7 1.2 2.3 0 4.6-.4 6.7-1.4 2.1-1 3.9-2.3 5.4-4.1 1.6-1.8 2.8-4 3.6-6.3.8-2.6 1.2-5.3 1.2-8.1V31h11.4v66h-11.4v-9.4c-1.9 3.2-4.6 5.9-7.8 7.9-3.4 2.3-7.6 3.4-11.8 3.3zM81.2 32.2v38.3c-.1 4 .4 8.1 1.4 12 .8 3.1 2.3 6 4.3 8.5 1.9 2.2 4.3 4 7.1 5 3.2 1.2 6.6 1.8 10 1.7 4 .1 8-.9 11.6-2.9 3.4-2.1 6.2-5.1 8.1-8.7l.1-.3h1.1v10.3h9.4v-64h-9.4v37c0 2.8-.4 5.7-1.3 8.4-.8 2.4-2.1 4.7-3.8 6.7-1.6 1.8-3.6 3.3-5.8 4.3-2.3 1-4.7 1.5-7.1 1.4-2.4 0-4.8-.4-7.1-1.3-2-.9-3.8-2.3-5.1-4-1.4-2-2.5-4.2-3-6.6-.7-3-1-6.1-1-9.1V32.2h-9.5zm258.3 65h-16l-.1-.2-28.1-30.6v30.7h-11.4V0h11.4v60.5l26.8-29.3h15l-30.6 31.9 33 34.1zm-15.6-1h13.2l-32-33.1.3-.3 29.3-30.5h-12.3L295.2 62h-1V1h-9.4v95.2h9.4V65h1l.1.2 28.6 31zm-282.7 1H29.6V63.5L0 5.2h13.2l.1.3 20.4 41.1c.2.5.8 2 1.8 4.6.6-1.6 1.3-3.1 2.1-4.6L59.2 5.2h12.4l-30.4 58v34zm-10.6-1h9.7V63l.1-.1L69.9 6.2H59.8L38.6 47.1c-1 1.8-1.8 3.6-2.4 5.5l-.1.4h-.9l-.1-.3c-1.2-3.2-2-5-2.2-5.5l-20.3-41h-11l28.9 57 .1 33zM655.1 90c-3.1 0-6.2-.5-9.1-1.7-2.7-1.2-5.1-2.9-7.1-5.1-2.1-2.3-3.6-5.1-4.5-8.1-1-3.4-1.5-6.9-1.5-10.5-.1-3.7.4-7.3 1.5-10.9.9-3 2.4-5.9 4.5-8.3 1.9-2.3 4.3-4.1 7.1-5.3 5.9-2.3 12.4-2.3 18.3-.1 2.6 1.1 5 2.9 6.8 5.1 1.9 2.4 3.3 5.2 4.2 8.2 1 3.6 1.4 7.2 1.4 10.9.1 3.7-.4 7.3-1.4 10.8-.8 3-2.2 5.7-4.2 8.1-1.8 2.2-4.1 3.9-6.8 5-3 1.4-6.1 2-9.2 1.9zm0-50.5c-3 0-6 .5-8.8 1.7-2.6 1.1-4.9 2.8-6.7 5-2 2.3-3.4 5-4.3 7.9-1 3.4-1.5 7-1.4 10.6 0 3.4.4 6.9 1.5 10.2.9 2.8 2.4 5.5 4.3 7.7 1.8 2.1 4.1 3.8 6.7 4.9 5.6 2.2 11.8 2.2 17.4 0 2.5-1 4.7-2.7 6.4-4.8 1.8-2.3 3.2-4.9 4-7.7.9-3.4 1.4-7 1.3-10.5.1-3.6-.4-7.2-1.3-10.7-.8-2.9-2.1-5.5-4-7.8-1.7-2.1-3.9-3.7-6.4-4.8-2.8-1.2-5.7-1.8-8.7-1.7zM575.9 90c-2.8 0-5.5-.5-8-1.7-2.4-1.2-4.6-2.9-6.3-5-1.8-2.3-3.2-4.9-4-7.8-.9-3.2-1.4-6.6-1.3-9.9 0-3.8.4-7.7 1.4-11.4.8-3.1 2.2-6 4.2-8.6 1.8-2.3 4.1-4.2 6.7-5.4 2.8-1.2 5.8-1.9 8.8-1.8 2.5 0 5 .5 7.4 1.4 2.3 1 4.3 2.4 6 4.3 1.7 1.8 3.1 3.9 4 6.2.9 2.4 1.4 4.9 1.3 7.4v9.6c0 3.1-.4 6.1-1.4 9-.9 2.7-2.3 5.1-4.2 7.3-1.8 2.1-4 3.7-6.5 4.8-2.5 1.1-5.3 1.6-8.1 1.6zm1.5-50.5c-2.9 0-5.8.5-8.4 1.7-2.5 1.2-4.7 2.9-6.3 5.1-1.9 2.5-3.2 5.3-4 8.2-.9 3.6-1.4 7.4-1.3 11.1 0 3.3.4 6.5 1.3 9.6.8 2.7 2.1 5.2 3.8 7.4 1.6 2 3.6 3.6 5.9 4.7 2.4 1.1 5 1.6 7.6 1.6 2.7 0 5.3-.5 7.7-1.5 2.4-1 4.4-2.6 6.1-4.5 1.8-2 3.1-4.4 4-6.9.9-2.8 1.4-5.7 1.3-8.7v-9.6c0-2.4-.4-4.8-1.3-7s-2.2-4.2-3.8-5.9c-1.6-1.7-3.6-3.1-5.7-4-2.2-.9-4.5-1.4-6.9-1.3zm-86.7 49.7c-4.4.1-8.8-.8-12.9-2.6-3.9-1.8-7.4-4.5-10.2-7.8-3-3.5-5.2-7.6-6.6-12.1-1.5-5-2.3-10.1-2.2-15.3-.1-5.2.7-10.4 2.3-15.4 1.4-4.5 3.8-8.6 6.8-12.1 2.9-3.4 6.4-6.1 10.5-7.9 4.2-1.8 8.7-2.7 13.2-2.6 4.6-.1 9.1.8 13.3 2.5 3.9 1.7 7.4 4.3 10.2 7.5 2.9 3.5 5.1 7.6 6.4 12.1 1.5 5.2 2.2 10.7 2.1 16.1.1 5.3-.7 10.7-2.2 15.8-1.3 4.4-3.6 8.4-6.6 11.9-2.8 3.3-6.4 5.8-10.4 7.5-4.5 1.6-9.1 2.4-13.7 2.4zm.7-74.9c-4.4-.1-8.8.8-12.8 2.5-3.9 1.8-7.4 4.4-10.1 7.6-3 3.5-5.2 7.5-6.6 11.8-1.5 4.9-2.3 9.9-2.2 15-.1 5.1.7 10.2 2.2 15 1.4 4.3 3.5 8.3 6.5 11.7 2.7 3.2 6.1 5.8 9.9 7.6 3.9 1.7 8.2 2.6 12.5 2.5 4.5.1 9-.7 13.2-2.4 3.9-1.6 7.3-4.1 10-7.2 2.9-3.4 5.1-7.3 6.4-11.5 1.5-5 2.2-10.2 2.1-15.5.1-5.4-.6-10.7-2.1-15.8-1.2-4.3-3.3-8.3-6.2-11.7-2.6-3.1-6-5.6-9.8-7.2-4.1-1.6-8.5-2.4-13-2.4zm309.2 44.2h-36.2l.1-.6c.4-2.7 1.1-5.3 2.2-7.8 1.1-2.3 2.5-4.4 4.3-6.2 5.2-5.2 13-6.8 19.8-4.1 2 .9 3.9 2.2 5.3 3.9 1.5 1.8 2.7 3.9 3.3 6.2.8 2.6 1.2 5.4 1.1 8.2l.1.4zm-35.1-1h34c0-2.5-.4-5-1.1-7.4-.6-2.1-1.7-4.1-3.1-5.8-1.3-1.6-3-2.8-4.9-3.6-6.5-2.7-13.9-1.2-18.7 3.9-1.7 1.7-3.1 3.7-4.1 5.9-1 2.2-1.7 4.6-2.1 7zm-374.4 1h-36.2l.1-.6c.4-2.7 1.1-5.3 2.2-7.8 1.1-2.3 2.5-4.4 4.3-6.2 5.2-5.2 13-6.8 19.8-4.1 2 .9 3.9 2.2 5.3 3.9 1.5 1.8 2.7 3.9 3.3 6.2.8 2.6 1.2 5.4 1.1 8.2l.1.4zm-35.1-1h34c0-2.5-.4-5-1.1-7.4-.6-2.1-1.7-4.1-3.1-5.8-1.3-1.6-3-2.8-4.9-3.6-6.5-2.7-13.9-1.2-18.7 3.9-1.7 1.7-3.1 3.7-4.1 5.9-1 2.2-1.7 4.6-2.1 7z" style="fill:#ddd"/></svg>