<svg xmlns="http://www.w3.org/2000/svg" xml:space="preserve" id="レイヤー_1" x="0" y="0" style="enable-background:new 0 0 336.4 147" version="1.1" viewBox="0 0 336.4 147"><style>.st0{enable-background:new}.st1{fill:none;stroke:#ddd}</style><g class="st0"><path d="M46.8 61.2h-8.2L9 15.4c-.7-1.1-1.4-2.3-1.8-3.6h-.3c.2 1.2.3 3.9.3 7.9v41.5H.5V3.8h8.7l28.7 45c1.2 1.9 2 3.2 2.3 3.8h.2c-.3-1.7-.4-4.5-.4-8.4V3.8h6.7v57.4zM78.1 62.2c-6.1 0-10.9-1.9-14.5-5.7-3.6-3.8-5.4-8.9-5.4-15.2 0-6.9 1.9-12.3 5.6-16.1 3.8-3.9 8.8-5.8 15.3-5.8 6.1 0 10.9 1.9 14.3 5.6 3.4 3.8 5.1 9 5.1 15.7 0 6.5-1.8 11.8-5.5 15.7-3.7 3.8-8.7 5.8-14.9 5.8zm.5-37.4c-4.2 0-7.6 1.4-10 4.3-2.5 2.9-3.7 6.8-3.7 11.9 0 4.9 1.2 8.7 3.7 11.5s5.8 4.2 10 4.2 7.5-1.4 9.8-4.1c2.3-2.7 3.4-6.7 3.4-11.7 0-5.1-1.1-9.1-3.4-11.9-2.3-2.8-5.6-4.2-9.8-4.2zM115.7 55.3h-.2v5.9H109V.5h6.6v26.9h.2c3.2-5.4 8-8.2 14.2-8.2 5.3 0 9.4 1.8 12.4 5.5s4.5 8.6 4.5 14.8c0 6.9-1.7 12.4-5 16.5s-7.9 6.2-13.7 6.2c-5.6 0-9.7-2.3-12.5-6.9zm-.1-16.6v5.7c0 3.4 1.1 6.3 3.3 8.6 2.2 2.4 5 3.5 8.4 3.5 4 0 7.1-1.5 9.3-4.6 2.3-3 3.4-7.3 3.4-12.7 0-4.6-1.1-8.1-3.2-10.7-2.1-2.6-5-3.9-8.6-3.9-3.8 0-6.9 1.3-9.2 4s-3.4 6.1-3.4 10.1zM190.4 61.2h-6.6v-6.5h-.2c-2.7 5-6.9 7.4-12.7 7.4-9.8 0-14.7-5.8-14.7-17.5V20.2h6.5v23.5c0 8.6 3.3 13 9.9 13 3.2 0 5.8-1.2 7.9-3.5 2.1-2.4 3.1-5.5 3.1-9.3V20.2h6.6v41zM237.7 61.2h-6.6V37.6c0-8.5-3.2-12.8-9.5-12.8-3.2 0-5.9 1.2-8.1 3.7-2.2 2.5-3.3 5.6-3.3 9.5v23.2h-6.6V.5h6.6V27h.2c3.1-5.2 7.6-7.8 13.5-7.8 9.2 0 13.9 5.6 13.9 16.7v25.3zM253.4 9.8c-1.2 0-2.2-.4-3-1.2s-1.2-1.8-1.2-3 .4-2.2 1.2-3.1 1.8-1.2 3-1.2 2.2.4 3.1 1.2c.8.8 1.3 1.8 1.3 3.1 0 1.2-.4 2.2-1.3 3-.9.8-1.9 1.2-3.1 1.2zm3.2 51.4H250v-41h6.6v41zM291.3 26.8c-1.1-.9-2.8-1.3-5-1.3-2.8 0-5.1 1.3-7 4-1.9 2.6-2.8 6.2-2.8 10.8v20.9h-6.6v-41h6.6v8.4h.2c.9-2.9 2.4-5.1 4.3-6.7 1.9-1.6 4.1-2.4 6.4-2.4 1.7 0 3 .2 3.9.6v6.7zM315.5 62.2c-6.1 0-10.9-1.9-14.5-5.7-3.6-3.8-5.4-8.9-5.4-15.2 0-6.9 1.9-12.3 5.6-16.1 3.8-3.9 8.8-5.8 15.3-5.8 6.1 0 10.9 1.9 14.3 5.6 3.4 3.8 5.1 9 5.1 15.7 0 6.5-1.8 11.8-5.5 15.7-3.7 3.8-8.7 5.8-14.9 5.8zm.5-37.4c-4.2 0-7.6 1.4-10 4.3-2.5 2.9-3.7 6.8-3.7 11.9 0 4.9 1.2 8.7 3.7 11.5s5.8 4.2 10 4.2 7.5-1.4 9.8-4.1c2.3-2.7 3.4-6.7 3.4-11.7 0-5.1-1.1-9.1-3.4-11.9-2.3-2.8-5.5-4.2-9.8-4.2z" class="st1"/></g><g class="st0"><path d="M7.2 127.2H.5V69.8h6.7v57.4zM19 125.7v-7c3.6 2.6 7.5 4 11.8 4 5.8 0 8.6-1.9 8.6-5.8 0-1.1-.2-2-.7-2.8-.5-.8-1.2-1.4-2-2-.8-.6-1.8-1.1-3-1.6-1.1-.5-2.4-1-3.7-1.5-1.8-.7-3.4-1.4-4.8-2.2-1.4-.7-2.5-1.6-3.4-2.5-.9-.9-1.6-2-2.1-3.1-.5-1.2-.7-2.5-.7-4.1 0-1.9.4-3.6 1.3-5.1.9-1.5 2.1-2.7 3.5-3.7 1.5-1 3.1-1.8 5-2.3 1.9-.5 3.8-.8 5.8-.8 3.5 0 6.7.6 9.5 1.8v6.6c-3-2-6.5-3-10.4-3-1.2 0-2.3.1-3.3.4-1 .3-1.8.7-2.5 1.2s-1.3 1.1-1.6 1.8c-.4.7-.6 1.5-.6 2.3 0 1.1.2 2 .6 2.7.4.7 1 1.4 1.7 1.9.7.6 1.7 1.1 2.7 1.5 1.1.5 2.3.9 3.6 1.5 1.8.7 3.4 1.4 4.9 2.1s2.7 1.6 3.7 2.5c1 .9 1.8 2 2.3 3.2.5 1.2.8 2.6.8 4.3 0 2-.4 3.8-1.3 5.3s-2.1 2.7-3.6 3.7-3.2 1.7-5.2 2.2c-1.9.5-4 .7-6.1.7-4.1.3-7.7-.6-10.8-2.2zM90.3 127.2h-6.6v-23.6c0-8.5-3.2-12.8-9.5-12.8-3.2 0-5.9 1.2-8.1 3.7-2.2 2.5-3.3 5.6-3.3 9.5v23.2h-6.6V66.5h6.6V93h.2c3.1-5.2 7.6-7.8 13.5-7.8 9.2 0 13.9 5.6 13.9 16.7v25.3zM106 75.8c-1.2 0-2.2-.4-3-1.2-.8-.8-1.2-1.8-1.2-3s.4-2.2 1.2-3.1c.8-.8 1.8-1.2 3-1.2s2.2.4 3.1 1.2 1.3 1.8 1.3 3.1c0 1.2-.4 2.2-1.3 3-.9.8-1.9 1.2-3.1 1.2zm3.2 51.4h-6.6v-41h6.6v41zM157.5 123.9c0 15.1-7.2 22.6-21.6 22.6-5.1 0-9.5-1-13.3-2.9V137c4.6 2.6 9 3.8 13.2 3.8 10.1 0 15.1-5.4 15.1-16.1v-4.5h-.2c-3.1 5.2-7.8 7.8-14.1 7.8-5.1 0-9.2-1.8-12.3-5.5-3.1-3.6-4.7-8.5-4.7-14.7 0-7 1.7-12.5 5-16.6 3.3-4.1 7.9-6.2 13.8-6.2 5.5 0 9.6 2.2 12.3 6.6h.2v-5.7h6.6v38zm-6.6-15.2v-6c0-3.3-1.1-6-3.3-8.4s-4.9-3.5-8.2-3.5c-4.1 0-7.2 1.5-9.5 4.4-2.3 3-3.4 7.1-3.4 12.4 0 4.6 1.1 8.2 3.3 11s5.1 4.1 8.7 4.1c3.7 0 6.7-1.3 9-3.9 2.3-2.7 3.4-6.1 3.4-10.1zM200.1 127.2h-6.6v-6.4h-.2c-2.9 4.9-7.1 7.4-12.6 7.4-4.1 0-7.3-1.1-9.6-3.2-2.3-2.2-3.5-5-3.5-8.6 0-7.7 4.5-12.1 13.5-13.4l12.3-1.7c0-7-2.8-10.5-8.4-10.5-4.9 0-9.4 1.7-13.4 5v-6.7c4-2.6 8.7-3.8 13.9-3.8 9.6 0 14.5 5.1 14.5 15.3v26.6zm-6.5-20.7-9.9 1.4c-3 .4-5.3 1.2-6.9 2.3-1.5 1.1-2.3 3-2.3 5.7 0 2 .7 3.6 2.1 4.9 1.4 1.3 3.3 1.9 5.7 1.9 3.3 0 5.9-1.1 8.1-3.4 2.1-2.3 3.2-5.2 3.2-8.7v-4.1zM270.7 127.2h-6.6v-23.5c0-4.5-.7-7.8-2.1-9.8-1.4-2-3.8-3-7.1-3-2.8 0-5.2 1.3-7.1 3.8-2 2.6-2.9 5.6-2.9 9.2v23.4h-6.6V103c0-8.1-3.1-12.1-9.3-12.1-2.9 0-5.3 1.2-7.1 3.6-1.9 2.4-2.8 5.6-2.8 9.4v23.4h-6.6v-41h6.6v6.5h.2c2.9-5 7.2-7.4 12.7-7.4 2.8 0 5.2.8 7.3 2.3 2.1 1.6 3.5 3.6 4.3 6.1 3-5.7 7.6-8.5 13.6-8.5 9 0 13.5 5.6 13.5 16.7v25.2zM316.1 108.3h-28.9c.1 4.6 1.3 8.1 3.7 10.6s5.6 3.7 9.7 3.7c4.6 0 8.9-1.5 12.7-4.6v6.2c-3.6 2.6-8.4 3.9-14.3 3.9-5.8 0-10.3-1.9-13.7-5.6-3.3-3.7-5-9-5-15.7 0-6.4 1.8-11.6 5.4-15.6 3.6-4 8.1-6 13.5-6s9.5 1.7 12.5 5.2c2.9 3.5 4.4 8.3 4.4 14.5v3.4zm-6.7-5.5c0-3.8-.9-6.7-2.7-8.8-1.8-2.1-4.3-3.2-7.5-3.2-3.1 0-5.7 1.1-7.9 3.3-2.2 2.2-3.5 5.1-4 8.7h22.1z" class="st1"/></g></svg>