<svg xmlns="http://www.w3.org/2000/svg" xml:space="preserve" id="レイヤー_1" x="0" y="0" style="enable-background:new 0 0 215.5 128.7" version="1.1" viewBox="0 0 215.5 128.7"><style>.st0{enable-background:new}.st1{fill:none;stroke:#ddd}</style><g class="st0"><path d="M41.7 61.2h-8L24 45.1c-.9-1.5-1.7-2.8-2.6-3.8-.8-1.1-1.7-1.9-2.5-2.6-.9-.7-1.8-1.2-2.8-1.5s-2.1-.5-3.4-.5H7.2v24.4H.5V3.8h17.1c2.5 0 4.8.3 6.9.9s4 1.6 5.5 2.9 2.8 2.9 3.7 4.8c.9 1.9 1.3 4.1 1.3 6.7 0 2-.3 3.8-.9 5.5s-1.5 3.2-2.6 4.5c-1.1 1.3-2.4 2.4-4 3.3-1.6.9-3.3 1.6-5.3 2.1v.2c1 .4 1.8.9 2.5 1.5.7.5 1.4 1.2 2 1.9.6.7 1.3 1.6 1.9 2.5.6.9 1.3 2 2.1 3.3l11 17.3zM7.2 9.9v20.8h9.1c1.7 0 3.2-.3 4.7-.8 1.4-.5 2.7-1.2 3.7-2.2 1-.9 1.9-2.1 2.4-3.5.6-1.4.9-2.9.9-4.6 0-3.1-1-5.5-3-7.2-2-1.7-4.9-2.6-8.6-2.6H7.2zM52 9.8c-1.2 0-2.2-.4-3-1.2-.8-.8-1.2-1.8-1.2-3s.4-2.2 1.2-3.1c.8-.8 1.8-1.2 3-1.2s2.2.4 3.1 1.2 1.3 1.8 1.3 3.1c0 1.2-.4 2.2-1.3 3-.8.8-1.9 1.2-3.1 1.2zm3.2 51.4h-6.6v-41h6.6v41zM89.9 26.8c-1.1-.9-2.8-1.3-5-1.3-2.8 0-5.1 1.3-7 4s-2.8 6.2-2.8 10.8v20.9h-6.6v-41h6.6v8.4h.2c.9-2.9 2.4-5.1 4.3-6.7 1.9-1.6 4.1-2.4 6.4-2.4 1.7 0 3 .2 3.9.6v6.7zM100.4 9.8c-1.2 0-2.2-.4-3-1.2-.8-.8-1.2-1.8-1.2-3s.4-2.2 1.2-3.1c.8-.8 1.8-1.2 3-1.2s2.2.4 3.1 1.2 1.3 1.8 1.3 3.1c0 1.2-.4 2.2-1.3 3-.9.8-1.9 1.2-3.1 1.2zm3.2 51.4H97v-41h6.6v41zM150.9 61.2h-9.2l-18.1-19.7h-.2v19.7h-6.6V.5h6.6V39h.2l17.2-18.8h8.6l-19 19.8 20.5 21.2zM174.8 62.2c-6.1 0-10.9-1.9-14.5-5.7-3.6-3.8-5.4-8.9-5.4-15.2 0-6.9 1.9-12.3 5.6-16.1 3.8-3.9 8.8-5.8 15.3-5.8 6.1 0 10.9 1.9 14.3 5.6s5.1 9 5.1 15.7c0 6.5-1.8 11.8-5.5 15.7-3.7 3.8-8.7 5.8-14.9 5.8zm.5-37.4c-4.2 0-7.6 1.4-10 4.3s-3.7 6.8-3.7 11.9c0 4.9 1.2 8.7 3.7 11.5s5.8 4.2 10 4.2 7.5-1.4 9.8-4.1c2.3-2.7 3.4-6.7 3.4-11.7 0-5.1-1.1-9.1-3.4-11.9-2.3-2.8-5.6-4.2-9.8-4.2z" class="st1"/></g><g class="st0"><path d="M59 127.2h-6.7V88.7c0-3 .2-6.8.6-11.2h-.2c-.6 2.6-1.2 4.4-1.7 5.6l-19.6 44.1h-3.3L8.5 83.4c-.6-1.3-1.1-3.2-1.7-5.9h-.1c.2 2.3.3 6 .3 11.3v38.4H.5V69.8h8.9l17.6 40c1.4 3.1 2.2 5.4 2.6 6.9h.2c1.1-3.1 2.1-5.5 2.8-7l18-39.9H59v57.4zM102.6 127.2H96v-6.4h-.2c-2.9 4.9-7.1 7.4-12.6 7.4-4.1 0-7.3-1.1-9.6-3.2-2.3-2.2-3.5-5-3.5-8.6 0-7.7 4.5-12.1 13.5-13.4l12.3-1.7c0-7-2.8-10.5-8.4-10.5-4.9 0-9.4 1.7-13.4 5v-6.7c4-2.6 8.7-3.8 13.9-3.8 9.6 0 14.5 5.1 14.5 15.3v26.6zM96 106.5l-9.9 1.4c-3 .4-5.3 1.2-6.9 2.3-1.5 1.1-2.3 3-2.3 5.7 0 2 .7 3.6 2.1 4.9 1.4 1.3 3.3 1.9 5.7 1.9 3.3 0 5.9-1.1 8.1-3.4 2.1-2.3 3.2-5.2 3.2-8.7v-4.1zM147.9 108.3H119c.1 4.6 1.3 8.1 3.7 10.6s5.6 3.7 9.7 3.7c4.6 0 8.9-1.5 12.7-4.6v6.2c-3.6 2.6-8.4 3.9-14.3 3.9-5.8 0-10.3-1.9-13.7-5.6-3.3-3.7-5-9-5-15.7 0-6.4 1.8-11.6 5.4-15.6 3.6-4 8.1-6 13.5-6s9.5 1.7 12.5 5.2c2.9 3.5 4.4 8.3 4.4 14.5v3.4zm-6.7-5.5c0-3.8-.9-6.7-2.7-8.8-1.8-2.1-4.3-3.2-7.5-3.2-3.1 0-5.7 1.1-7.9 3.3-2.2 2.2-3.5 5.1-4 8.7h22.1zM176.9 126.8c-1.5.9-3.6 1.3-6.1 1.3-7.2 0-10.8-4-10.8-12V91.8h-7v-5.6h7v-10l6.6-2.1v12.1h10.3v5.6h-10.3v23.1c0 2.8.5 4.7 1.4 5.9.9 1.2 2.5 1.8 4.6 1.8 1.7 0 3.1-.5 4.3-1.4v5.6zM215 127.2h-6.6v-6.4h-.2c-2.9 4.9-7.1 7.4-12.6 7.4-4.1 0-7.3-1.1-9.6-3.2s-3.5-5-3.5-8.6c0-7.7 4.5-12.1 13.5-13.4l12.3-1.7c0-7-2.8-10.5-8.4-10.5-4.9 0-9.4 1.7-13.4 5v-6.7c4-2.6 8.7-3.8 13.9-3.8 9.6 0 14.5 5.1 14.5 15.3v26.6zm-6.6-20.7-9.9 1.4c-3 .4-5.3 1.2-6.9 2.3-1.5 1.1-2.3 3-2.3 5.7 0 2 .7 3.6 2.1 4.9 1.4 1.3 3.3 1.9 5.7 1.9 3.3 0 5.9-1.1 8.1-3.4 2.1-2.3 3.2-5.2 3.2-8.7v-4.1z" class="st1"/></g></svg>