<svg xmlns="http://www.w3.org/2000/svg" width="172.058" height="549.078"><path fill="#fff" d="M150.026 201.885c.4.058 6.146 3.055 6.146 3.055l5.118 1.145 3.825-4.221-12.135-3.852Z" data-name="パス 1123"/><path fill="#fff" d="m63.678 53.137-4.316-6.827-1.72-14.024 6.036-18.741 7.386-8.178 6.943-2.638L93.181.661l13.538 4.084 10.025 10.256s4.9 12.1 4.748 12.341a55.04 55.04 0 0 0 1.24 5.566v10.114l.612 10.114-3.017 11.915-8.262 10.262-3.756 1.372-13.429-2.334-5.355 12.8 22.244 8.917 6.1 4.8 16.155 25.325-27.879 33.091 3.925 28.591 11.755 8.1 2.638 5.049-53.288 16.177-21.922-.791-.723-12.1.4-8.943-11.286-38.747-11.94-2.707-9.455-5.044 6.732-18.028 5.925-21.152 14.182-17.306 7.914-6.574 6.991-1.282 7.634-5.181c4.522-4.126 7.355-8.859 8.231-14.293l-3.91-5.746-2.11 2.047-1.055 9.7-10.816 8.283c-11.544 1.826-18.883.844-24.433-1.324a23.018 23.018 0 0 0 12.5-6.052l4.748-9.307 6.859-5.851 6.495-1.646a2.052 2.052 0 0 0 1.541-2Z" data-name="パス 1124"/><path d="M102.942 419.016c0 1.789-.037 3.54 0 5.276a166.473 166.473 0 0 1-1.055 20.761c-.327 3.387-.448 6.79-.691 10.188q-.4 5.7-.855 11.4c-.174 2.269-.464 4.537-.528 6.811-.084 2.5.079 5.007 0 7.513-.053 2.316-.285 4.627-.4 6.938a41.614 41.614 0 0 0-.137 6.331 4.538 4.538 0 0 0 1.741 3.023c1.514.96 1.472 2.68 2.5 3.83.77.865 1.055 2.279 1.963 2.86a5.331 5.331 0 0 0 3.255.317c1.361-.106 2.7-.528 4.052-.718 3.466-.528 5.213.929 6.046 3.825a19.6 19.6 0 0 1 .153 11.771 13.537 13.537 0 0 1-1.388 2.058c-1.715 3-3.366 6.041-5.1 9.027a2.327 2.327 0 0 1-1.366 1.092c-4.1.633-7.666 2.68-11.449 4.147-1.351.528-2.812.807-4.1 1.446-3.007 1.483-4.321 4.221-5.023 7.323a40.035 40.035 0 0 1-1 3.635 1.207 1.207 0 0 1-.77.728 78.276 78.276 0 0 1-5.07.475c-1.055.069-1.456-.459-1.53-1.551-.158-2.427-.448-4.849-.744-7.27a4.221 4.221 0 0 0-1.424-2.986c-.528-.433-.776-1.187-1.245-1.715a18.441 18.441 0 0 0-1.641-1.493 3.805 3.805 0 0 1-.644-.528c-1.841-2.6-3.466-5.276-3.751-8.568a1.621 1.621 0 0 0-.148-.691c-2.211-3.5-1.4-7.165-.607-10.821a61.62 61.62 0 0 1 1.583-6.252c1.171-3.524 1.889-7.276 4.632-10.1a1.658 1.658 0 0 0 .29-.908c.744-5.693 1.815-11.37 1.361-17.152-.275-3.429-.681-6.859-1.108-10.272-.77-6.2-1.672-12.393-2.4-18.609q-.712-6.242-1.06-12.483c-.269-4.479-.443-8.969-.448-13.464 0-4.094.264-8.188.433-12.283.042-.987-.95-2.016-1.9-1.767-.28.074-.57.67-.6 1.055a123.581 123.581 0 0 1-2.86 19.147c-1.055 4.411-1.8 8.9-2.992 13.264-.966 3.53-2.411 6.928-3.6 10.394-1.456 4.221-2.875 8.489-4.3 12.736a825.13 825.13 0 0 0-2.781 8.4c-.3.934-.485 1.9-.739 2.844a4.446 4.446 0 0 1-.527 1.583c-1.583 1.942-.96 3.894-.216 5.9 1.968 5.334 3.324 10.784 2.469 16.53a604.081 604.081 0 0 1-2.6 16c-.433 2.432-2.348 3.92-4.089 5.45-1.351 1.187-2.707 2.374-4.121 3.487-1.915 1.514-3.9 2.949-5.8 4.458a2.859 2.859 0 0 0-.913 1.171c-.691 1.82-1.2 3.693-1.968 5.492a20.715 20.715 0 0 1-2.29 4.015 2.663 2.663 0 0 1-1.878.7 22.542 22.542 0 0 1-3.245-.3c-1.177-.143-2.638-2.111-2.638-3.736 0-2.422.132-4.843.264-7.265.153-2.738-.116-5.276-2.263-7.344a12.907 12.907 0 0 1-2.474-2.949 9.677 9.677 0 0 1-1.161-3.735c-.179-2.211 0-4.448-.047-6.669a39.371 39.371 0 0 1 1.4-11.227 72.428 72.428 0 0 1 2.77-7.745 34.972 34.972 0 0 1 2.343-5.2 48.089 48.089 0 0 1 3.857-5.376 10.41 10.41 0 0 0 1.113-5.92 6.78 6.78 0 0 1-.074-2.67c.807-5.7 1.725-11.375 2.511-17.073.913-6.6 1.736-13.19 2.57-19.827.433-3.451.765-6.912 1.229-10.362s1.055-6.748 1.53-10.13c.206-1.393.327-2.8.5-4.305a1657.64 1657.64 0 0 1-8.938-1.583c-5.181-.95-10.3-2.052-14.773-5.139-1.979-1.372-4.274-2.3-6.2-3.725-2.638-1.952-5.06-4.184-7.55-6.331q-1.615-1.393-3.1-2.923c-1.651-1.7-1.24-3.783-.812-5.751.96-4.395 2.052-8.758 3.1-13.132q1.171-4.865 2.38-9.719c.96-3.878 2.01-7.74 2.9-11.634.971-4.263 1.7-8.584 2.728-12.837s2.3-8.315 3.392-12.488c.839-3.166 1.583-6.395 2.364-9.6.528-2.248 1.087-4.5 1.583-6.759.528-2.511.96-5.039 1.456-7.555q.638-3.276 1.335-6.548c.528-2.638 1.055-5.276 1.715-7.914 1.746-6.658 3.519-13.317 5.4-19.938 1.4-4.907 2.981-9.761 4.5-14.631 1.646-5.276 3.377-10.526 4.949-15.828.95-3.166 1.667-6.432 2.485-9.655 1.087-4.268 2.11-8.563 3.276-12.81 1.161-4.163 2.638-8.236 3.693-12.425a11.694 11.694 0 0 0-.354-5.007c-.607-2.807-1.435-5.572-2.226-8.336a1.493 1.493 0 0 0-.828-.918c-3.387-1.013-6.891-1.715-10.172-2.992-2.9-1.129-5.714-2.717-6.447-6.263-.026-.132-.069-.343-.153-.369-2.4-.839-1.757-2.9-1.72-4.58.074-3.218.375-6.431.528-9.65.132-2.511.232-5.023.264-7.534a1.683 1.683 0 0 0-.67-1.256c-3.334-1.952-6.711-3.836-10.072-5.74a2.871 2.871 0 0 1-.8-3.725 31.965 31.965 0 0 0 1.873-4.126c1.15-2.828 2.211-5.688 3.392-8.5a67.633 67.633 0 0 0 4.39-15.733 25.166 25.166 0 0 1 4.015-9.639 128.735 128.735 0 0 1 7.466-10.695c2.39-2.97 5.245-5.571 7.914-8.32a2.169 2.169 0 0 1 1.177-.76 6.167 6.167 0 0 1 1.783.438c-.28.4-.527.823-.839 1.192-1.356 1.583-2.791 3.065-4.084 4.685-2.707 3.408-5.134 7.065-8.078 10.257a22.118 22.118 0 0 0-4.532 7.16 66.216 66.216 0 0 0-2.158 8.02c-.881 3.614-1.557 7.286-2.606 10.853-.907 3.1-2.216 6.083-3.34 9.117-1.018 2.754-2.021 5.519-3.123 8.51 6.041 1.493 10.652 6.136 17.052 6.716-.354-2.58-.77-5.107-1.055-7.65-.3-2.828-.586-5.661-.638-8.5-.084-4.659 0-9.318.063-13.982a42.413 42.413 0 0 1 .317-4.553c.053-.433.485-.818.749-1.224.306.4.865.776.886 1.182.164 3.382.09 6.774.348 10.146.438 5.693 1.1 11.365 1.615 17.052.4 4.5 1.931 8.647 3.609 12.789.881 2.168 1.435 4.479 2.11 6.722 1.156 3.693 2.374 7.355 3.445 11.08 1.113 3.846 2.11 7.729 3.113 11.607a44.721 44.721 0 0 1 1.7 7.592c.2 2.67.417 5.445-.728 8.083-.464 1.055-.823 2.153.855 3.034 1.287.675 2.036 2.316 3.166 3.377a13.432 13.432 0 0 0 8.574 4.015 16.993 16.993 0 0 0 5.6-.791c4.057-1.235 8.051-2.67 12.04-4.1 4.9-1.757 9.74-3.662 14.652-5.376a85.153 85.153 0 0 1 17.87-3.973c2.67-.322 5.334-.712 7.993-1.108.232-.032.628-.406.6-.528-.121-.348-.317-.818-.612-.944a15.706 15.706 0 0 0-2.548-.8c-3.435-.8-6.226-2.849-9.085-4.748a6.658 6.658 0 0 1-3.276-5.719c-.074-2.527-.728-5.028-.971-7.555-.406-4.179-.675-8.378-1.055-12.562a70.129 70.129 0 0 0-.57-4.659 1.055 1.055 0 0 0-.623-.744c-1.214-.2-1.472-1.055-1.635-2.052-.607-3.651-1.177-7.307-1.841-10.943-.3-1.646-.781-3.255-1.208-4.875q-1.483-5.63-3-11.249c-.111-.406-.464-.781-.459-1.166a2.326 2.326 0 0 1 .47-1.351c.1-.127.923.048 1.087.3a14.794 14.794 0 0 1 1.789 3.229c2.058 6.12 4.026 12.267 6 18.408.332 1.055.528 2.11.86 3.166.116.348.528.6.792.9a7.124 7.124 0 0 0 .786-.813c3.081-4.221 5.994-8.611 10.061-11.924 2.485-2.026 3.947-4.8 6.147-7.017 3.076-3.113 5.8-6.574 8.737-9.956-1.92-3.028-3.941-6.194-5.946-9.37-2.221-3.519-4.395-7.065-6.658-10.552-1.345-2.079-2.849-4.052-4.221-6.115-.248-.369-.163-.96-.232-1.446.5 0 1.224-.179 1.451.074 1.947 2.168 3.815 4.406 5.682 6.648 1.171 1.409 2.374 2.807 3.429 4.3a213.553 213.553 0 0 1 5.619 8.283c1.272 1.984 2.348 4.094 3.54 6.131a2.112 2.112 0 0 1-.528 3.166c-1.256 1.055-1.952 2.559-2.944 3.836-1.752 2.258-3.493 4.532-5.323 6.727a3.774 3.774 0 0 0-.7 3.509c.77 4.311 1.25 8.674 1.841 13.011.527 3.83 1.129 7.645 1.541 11.481.216 2-.058 4.052.19 6.041a7.521 7.521 0 0 0 1.467 2.775 1.14 1.14 0 0 0 1 .253c2.912-.8 5.8-1.583 8.716-2.48 2.321-.7 4.622-1.488 6.922-2.269a6.969 6.969 0 0 0 2.749-1.1c1.366-1.145 3.329.348 3.524 2 1.319 1.092 2.306 1.942 3.34 2.744a2.111 2.111 0 0 0 1.108.475c2.638.174 5.334.253 8 .449s3.641 2.237 2 4.638c2.675 0 2.9 2.554 4.221 3.989.406.443.227 1.535.111 2.306-.132.908-.733 1.293-1.667.881-.158.528-.591 1.124-.438 1.5 1.214 2.939.907 5.614-1.488 7.708a2.022 2.022 0 0 0 .333.422c2.068 1.514 2.042 4.026-.338 4.97-1.52.607-2.11 1.826-3.129 2.733a11.352 11.352 0 0 1-3.324 1.741c-.348.137-.9-.227-1.831-.5l2.828-2.29c-1.725-.612-3.219-1.166-4.748-1.678-1.2-.412-2.48-.565-3.208-1.9-.259-.47-1.124-.607-1.667-.871l-1.266 2.638c1.1.237 2.237.491 3.387.728a6.377 6.377 0 0 1 .712.042c.807.264 1.836.5 1.635 1.609s-1.055 1.055-2.026.966a51.95 51.95 0 0 1-13.523-3.24 48.59 48.59 0 0 1-4.8-1.836c-1.525-.749-2.733-.116-4.068.4-1.583.612-3.2 1.055-4.917 1.651 0 .871-.069 1.889 0 2.891.4 5.1.776 10.209 1.3 15.3.375 3.625 1 7.228 1.456 10.848.86 6.906 1.72 13.818 2.5 20.74.427 3.767.681 7.561 1.055 11.338s.8 7.576 1.14 11.37c.285 3.081.433 6.168.734 9.244.617 6.273 1.351 12.531 1.926 18.8.375 4.1.528 8.22.849 12.325.3 3.836.712 7.666 1.055 11.5.259 2.9.464 5.8.76 8.69.317 3.166.691 6.331 1.055 9.46.559 4.569 1.208 9.128 1.7 13.718.57 5.313 1.013 10.637 1.493 15.96.4 4.416.733 8.832 1.155 13.243.354 3.693.654 7.386 1.214 11.08.575 3.762-1.219 6.432-4.052 8.178-5.756 3.546-11.739 6.722-17.638 10.025a4.362 4.362 0 0 1-1.351.406c-3.044.559-6.078 1.224-9.143 1.583-2.11.253-4.295.053-6.442.116-1.846.101-3.856.244-6.194.37ZM86.318 352.2l-.454-.042a12.322 12.322 0 0 0-.459 1.525c-.528 2.9-1.018 5.8-1.477 8.7-.844 5.345-1.688 10.695-2.469 16.05-.733 5.028-1.556 10.056-2.015 15.116-.369 4.11-1.33 8.162-.981 12.362.2 2.374-.274 4.8-.258 7.2 0 4.6.169 9.2.3 13.792.042 1.7.2 3.408.238 5.112.042 1.514-.063 3.029 0 4.543.068 1.8.28 3.609.364 5.418s-.058 3.567.142 5.324c.528 4.748 1.266 9.5 1.82 14.3.7 6.1 1.33 12.209 1.921 18.319a8.878 8.878 0 0 1-.39 2.638 14.439 14.439 0 0 0-.57 1.583c-.074.918.063 1.847.069 2.77v8.183c4.622-1.72 9.186-.628 13.8.907.047-.464.179-.781.079-.992a8.82 8.82 0 0 1-.527-4.316c.153-4.632.063-9.27.216-13.9s.475-9.349.744-14.024q.084-1.551.28-3.1c.364-3.039.77-6.073 1.129-9.106.285-2.448.527-4.907.786-7.355.39-3.356.849-6.7 1.2-10.061.485-4.527.886-9.07 1.367-13.6.069-.67.058-1.055-.76-1.134-4.305-.528-7.782-3.3-11.834-4.548a1.488 1.488 0 0 1-.66-1.145c-.105-2.49-.221-4.991-.142-7.481.116-3.757.528-7.508.554-11.264q0-8.239-.332-16.482c-.253-5.925-.675-11.85-1.055-17.77-.167-2.515-.415-5.026-.626-7.522Zm-42.1 59.25c-.264 3.641-.5 7.044-.765 10.441-.28 3.54-.485 7.091-.913 10.61-.675 5.5-1.5 10.974-2.258 16.472-.929 6.685-1.82 13.375-2.8 20.049-.586 3.994-1.335 7.956-1.958 11.945a4.084 4.084 0 0 0 1.931 4.284 15.168 15.168 0 0 0 9.449 2.184c1.055-.074 2.211-1.356 2.142-2.11a6.566 6.566 0 0 1 .063-2.691c.7-1.947 1.773-3.767 2.427-5.73.892-2.638 1.409-5.429 2.29-8.083 1.8-5.4 3.693-10.763 5.635-16.118.765-2.11 1.9-4.158 2.517-6.331.944-3.324 1.583-6.738 2.364-10.114.828-3.54 1.757-7.059 2.5-10.615 1.013-4.843 1.9-9.708 2.865-14.71-8.704.602-17.024 2.311-25.487.518Zm78.784-269.237c-1.815 2-3.393 3.783-5.012 5.529-.965 1.055-2.063 1.957-2.97 3.039a151.18 151.18 0 0 0-5.276 6.637c-.765 1.055-1.81 2.232-1.831 3.377a62.6 62.6 0 0 0 .591 9.676c.791 5.862 1.81 11.692 2.759 17.527a2.074 2.074 0 0 0 .528 1.1 14.313 14.313 0 0 0 2.211 1.778 64.984 64.984 0 0 0 5.951 3.445c3.466 1.657 6.822 3.614 11.037 2.538 3.387-.86 5.972-6.046 4.253-9.138-.849-1.53-1.5-3.166-2.411-4.664-1.055-1.709-2.29-3.3-3.614-5.181-.058.47-.095.644-.106.823-.032 1.14-.475 2.074-1.683 2.2-1.055.106-1.963-1.2-2.016-2.485s-.164-2.564-.232-3.846c-.3-5.8-.554-11.607-.9-17.411-.2-3.408-.528-6.811-.834-10.22-.134-1.432-.282-2.909-.445-4.724Zm13.834 40.362c2.532 4.838 3.519 9.671.638 14.857l10.827 3.224c1.356.4 4.02-1.583 4-2.986a.845.845 0 0 0-.169-.586c-.976-.728-.528-1.361.084-2s1.055-1.182 1.646-1.725c1.393-1.314 1.451-1.7-.042-2.891a2.451 2.451 0 0 1-.934-3.028 21.117 21.117 0 0 1 1.957-3.113c.417.311.654.4.691.528.327 1.2 1.113 1.018 2.063.855 2.432-.427 4.891-.739 7.339-1.055 1.7-.232 3.419-.417 5.276-.644-1.329-1.493-2.364-3.113-4.569-1.746a2.887 2.887 0 0 1-1.266.169c-4.305.306-8.605.67-12.911.865a49.827 49.827 0 0 1-6.2-.269 1.319 1.319 0 0 1-.9-.855 1.234 1.234 0 0 1 .617-1.008c1.245-.528 2.554-.929 3.825-1.409 2.242-.855 4.474-1.741 6.405-2.49a19.973 19.973 0 0 0-1.314-1.767 1.224 1.224 0 0 0-.934-.417 14.283 14.283 0 0 0-3.123.955c-4.332 2.099-8.627 4.315-13.006 6.536Zm-93.144 1.815.274-.475c-.385-1.694-.739-3.392-1.161-5.07-.638-2.533-1.271-5.065-2.01-7.566q-1.535-5.207-3.24-10.362c-.354-1.055-.364-2.638-2.279-2.242-.29.063-.644-.153-.96-.253l-5.582-1.8v2.938c-.053 5.054-.137 10.1-.164 15.158 0 2.87 1.055 5.234 3.9 6.21 3.704 1.267 7.476 2.317 11.222 3.462Zm105.949-13.238c-2.11 2.886-5.566 2.612-8.315 3.793s-5.688 2.037-8.848 3.139c.67.285 1.055.332 1.234.554.559.681.9 1.657 2.11 1.229a12.072 12.072 0 0 0 2.638-.955 44.251 44.251 0 0 1 11.032-5.234c1.2-.385 1.8-.9 1.625-2.269Zm18.5 22.075v-3.087l-11.444-.8c.406.807.886 1.314.86 1.794-.084 1.583.834 1.44 1.921 1.488 2.812.116 5.619.38 8.663.6ZM36.021 527.73a19.831 19.831 0 0 0 2.6-.528 1.356 1.356 0 0 0 .8-.981 1.3 1.3 0 0 0-.834-.892c-.907-.222-1.884-.158-2.786-.4-1.767-.475-3.493-1.124-5.276-1.583a4.652 4.652 0 0 0-1.583.132c.148.528.148 1.161.475 1.477a10.84 10.84 0 0 0 6.606 2.759Zm131.458-328.27.095-.406c-.2-.084-.38-.179-.575-.243-3.076-1-6.236-1.789-9.191-3.055-2.11-.9-3.345-.111-4.823 1.277 4.912.96 9.639 2.089 14.493 2.417Zm-82.612 335.9v.2c1.789-.237 3.582-.422 5.355-.744.4-.074.723-.607 1.055-.929-.38-.259-.776-.76-1.14-.739-2.548.132-5.091.343-7.634.607-.354.037-.665.528-1 .786.338.274.654.723 1.029.786a14.339 14.339 0 0 0 2.332.032Zm81.641-357.1c-.348-1.055-3.693-1.583-7.824-1.377l.391 1.377Zm-4.068 9.1c4.9.375 4.9.375 5.371-.828Zm-5.276-6.759c-.918-1.087-1.467-1.018-3.028.185Z" data-name="パス 1125"/><path d="M87.805 86.519c1.847-3.667 3.693-7.386 5.64-11.2-1.535-.528-3.071-1.134-4.648-1.583-.818-.237-1.361-.733-1.187-1.44.09-.348 1.055-.776 1.557-.681 2.263.454 4.5 1.055 6.737 1.636 4.221 1.055 8.384 2.591 12.847 2.427a4.622 4.622 0 0 0 3.482-1.7 41.135 41.135 0 0 0 7.239-12.773 28.277 28.277 0 0 0 2.264-11.871 1.517 1.517 0 0 1 0-.707 6.868 6.868 0 0 1 .681-.992c.322.274.892.528.923.834a58.4 58.4 0 0 1 .485 6.425 23.677 23.677 0 0 1-.654 3.614 1.429 1.429 0 0 0 .237 1.008 2.692 2.692 0 0 1 .216 3.6c1.2 1.936 1.161 2.955-.116 4.268-.987 1.008-2.052 1.055-3.693.179-1.282 2.11-2.5 4.253-3.862 6.3-2.263 3.393-4.047 4.638-8.695 4.295a48.877 48.877 0 0 1-10.368-2.11c-.691-.206-1.245-.216-1.583.649-1.467 3.53-3 7.028-4.506 10.52 3.772 1.15 7.334 2.19 10.869 3.324a32.092 32.092 0 0 1 10.552 5.213 9.162 9.162 0 0 1 1.409 2.063 3.569 3.569 0 0 1-3.583-.032c-4.221-1.81-8.394-3.614-12.62-5.36a43.043 43.043 0 0 0-5.962-2.153c-3.609-.892-7.27-1.541-10.911-2.3a6.856 6.856 0 0 1-1.778-.459c-.412-.211-.681-.7-1.013-1.055.433-.259.881-.76 1.287-.733 2.946.197 5.895.519 8.754.794Zm35.255-20.625-.39-.686c-.29-.227-.565-.612-.871-.633-.222 0-.728.565-.681.66a1.957 1.957 0 0 0 .865.929c.28.105.713-.17 1.077-.27Z" data-name="パス 1126"/><path d="M113.389 13.26c.364 1.968.712 3.772 1.018 5.577a2.8 2.8 0 0 1 0 1.419c-.148.38-.607.644-.928.96-.28-.3-.691-.528-.812-.886a8.7 8.7 0 0 1-.422-2.079c-.354-3.693-2.031-6.859-4-9.813-.929-1.4-2.11-2.9-4.131-3.266-.765-.142-1.366-1-2.11-1.393-3.166-1.646-6.632-1.868-10.109-1.72a37.692 37.692 0 0 0-11.871 1.9 7.075 7.075 0 0 1-2.11.448 3.994 3.994 0 0 1-1.319-.422c.306-.369.528-.907.929-1.055a32.327 32.327 0 0 1 3.735-1.314A39.459 39.459 0 0 1 96.375.197a25.278 25.278 0 0 1 8.22 2.638 29.546 29.546 0 0 1 9.133 7.16 33.961 33.961 0 0 1 6.632 10.288 35.472 35.472 0 0 1 2.469 11.607 2.478 2.478 0 0 1-.079.992c-.105.264-.385.6-.622.628a.892.892 0 0 1-.718-.475 20.6 20.6 0 0 1-.364-2.079 41.835 41.835 0 0 0-3.435-11.449 54.663 54.663 0 0 0-4.222-6.247Z" data-name="パス 1127"/><path d="M62.1 79.671a15.722 15.722 0 0 1 1.746-1.583c2.712-1.826 5.165-3.9 6.516-6.964.95-2.147 1.957-4.284 1.583-6.774-.354-2.285-1.219-4.173-3.371-5.276a1.62 1.62 0 0 1-.353-.227.775.775 0 0 1-.116-.259c.892-1.266 1.768-1.187 3.931.565-.327-.565-.454-.818-.607-1.055-1.825-2.744-1.5-5.667-.7-8.611.222-.818.57-1.583.86-2.4.612-1.683 1.24-2.11 3.007-2.11.311-3.118 2.485-5.165 4.332-7.386a7.223 7.223 0 0 1 2.052-1.7c.417-.227 1.087 0 1.641.042-.148.528-.143 1.2-.48 1.535a21.364 21.364 0 0 0-5.128 7.988 17.184 17.184 0 0 1 2.147 1.989c.375.48.749 1.4.528 1.815-.343.638-1.15.644-1.82.042a9.881 9.881 0 0 0-1.757-1.224 1.9 1.9 0 0 0-2.923 1.113c-.649 2.337-1.055 4.7.348 6.959a3.085 3.085 0 0 0 3.878 1.541c.892-.237 1.889-.707 2.274.7a1.74 1.74 0 0 1-1.715 2.11c-1.651.153-3.324.037-4.875.037 2.749 5.5.032 12.388-3.693 15.965a28.528 28.528 0 0 1-4.986 3.582c-.528.322-1.425.053-2.153.053Z" data-name="パス 1128"/><path d="M58.412 191.84c.649-1.171 1.15-2.184 1.746-3.139 2.163-3.477 4.474-6.859 6.516-10.41 1.831-3.166 3.334-6.537 5.065-9.777 2.49-4.669 4.991-9.339 7.608-13.945 1.641-2.886 3.466-5.667 5.276-8.442.28-.427 1.055-.528 1.583-.8a4.419 4.419 0 0 1-.106 1.667c-3.746 7.233-7.571 14.425-11.307 21.669-2.4 4.68-4.548 9.534-7.075 14.177-1.878 3.414-4.163 6.606-6.368 9.829a2.047 2.047 0 0 1-1.741.475c-.443-.101-.749-.808-1.197-1.304Z" data-name="パス 1129"/><path d="M55.664 192.948a4.321 4.321 0 0 1 1.651.232c2.638 1.7 5.682 1.81 8.632 2.11.865.09 1.852-.607 2.728-1.055a203.928 203.928 0 0 1 23.415-10.42c2.844-1.029 5.693-2.063 8.484-3.229a1.335 1.335 0 0 1 1.91.728c.169.528-.354 1.345-.749 1.915a2.67 2.67 0 0 1-1.24.665c-3.941 1.493-7.914 2.875-11.829 4.469-5.55 2.269-11.048 4.675-16.551 7.049-1.419.612-2.786 1.356-4.221 1.994a2.364 2.364 0 0 1-1.245.243c-3.461-.48-7.049-.565-10.025-2.807a9.872 9.872 0 0 1-1.245-1.356Z" data-name="パス 1130"/><path d="M56.597 33.668c.084-5 .575-9.713 2.686-14.087a63.835 63.835 0 0 1 3.909-7.386 23.368 23.368 0 0 1 7.07-6.7c.364-.227.95-.106 1.43-.142-.079.528 0 1.187-.274 1.493-.865.9-1.936 1.583-2.833 2.48a24.518 24.518 0 0 0-2.448 2.754 38.452 38.452 0 0 0-4.923 9.265 21.531 21.531 0 0 0-1.794 6.759c-.19 3.487-.364 6.986-.306 10.473 0 1.382.718 2.744 1.055 4.131.306 1.287.5 2.606.807 3.894a7.863 7.863 0 0 0 .633 1.583c.675 1.382 1.425 2.733 2.047 4.136a2.845 2.845 0 0 1-.048 1.324c-.459-.153-1.145-.169-1.345-.485-1.746-2.754-3.567-5.477-4.184-8.769-.417-2.216-.87-4.432-1.2-6.669-.202-1.405-.202-2.845-.282-4.054Z" data-name="パス 1131"/><path d="M61.277 56.436a13.987 13.987 0 0 0-12.262 8.558c-1.646 3.493-3.345 6.917-6.009 9.7-2.77 2.891-6.12 4.8-10.315 4.632a3.013 3.013 0 0 1-1.583-.443 2.169 2.169 0 0 1-.8-1.388 1.413 1.413 0 0 1 1.024-.839c5 .306 8.537-2.163 11.312-5.962a27.121 27.121 0 0 0 3.018-5.1c2.4-5.44 6.157-9.291 12.056-10.679a14.8 14.8 0 0 1 4.321-.047c.433.032 1.192.575 1.187.871 0 .776-.707.828-1.367.7a2.985 2.985 0 0 0-.586-.005Z" data-name="パス 1132"/><path d="M78.946 68.876c-1.53-.955-.7-2.511-.86-3.836-.09-.76-.142-1.826.29-2.279a4.242 4.242 0 0 1 2.717-1.414c.765 0 1.752.939 2.221 1.715a3.729 3.729 0 0 1-.385 4.817c1.989 2.263 2 4.511-.412 6.7a3.813 3.813 0 0 1 2.9 3.651 2.844 2.844 0 0 1-1.984 3.1 4.459 4.459 0 0 1-3.087-.042 3.009 3.009 0 0 1-1.377-3.477 11.583 11.583 0 0 1 1.583-2.722c.158-.3.248-.944.111-1.029-2.677-1.686-2.888-2.267-1.717-5.184Zm2.775 7.8-.565.317c.032.839-.665 1.91.681 2.332.3.095.792-.443 1.2-.691Zm.559-4.907c-.137-.776.375-1.9-1.113-1.583-.338.079-.913.454-.886.607.19 1.055.839 1.425 2 .981Zm-1.055-8.046c-1.282.528-1.409 1.219-.907 1.936.116.164.633.053.965.069.005-.665-.016-1.33-.037-2Z" data-name="パス 1133"/><path d="M91.989 20.552c.206.976 0 1.731-1.055 1.82a20.224 20.224 0 0 0-9.8 3.925 65.711 65.711 0 0 0-8.278 6.126c-2.211 2.079-3.82 4.791-5.74 7.186a1.889 1.889 0 0 1-1.277.7c-.248 0-.681-.733-.691-1.14-.042-2.063 1.108-3.693 2.343-5.144a48.471 48.471 0 0 1 15.717-11.871 13.932 13.932 0 0 1 8.781-1.602Z" data-name="パス 1134"/><path d="M67.028 62.676a9.337 9.337 0 0 1 0-1.72c.069-.348.406-.644.628-.96.332.29.9.528.955.871a22.692 22.692 0 0 1 .438 4.374 15.177 15.177 0 0 1-12.874 14.451 10.553 10.553 0 0 1-3.693-.063c-.575-.106-1.008-.934-1.5-1.435.58-.322 1.166-.929 1.736-.918a14.124 14.124 0 0 0 9.312-3.261c3.731-2.923 4.913-6.875 4.998-11.339Z" data-name="パス 1135"/><path d="m90.723 15.846-.813 1.055a1.636 1.636 0 0 1-.427 0 25.494 25.494 0 0 0-17.664.422 63.378 63.378 0 0 0-6.859 3.693c-.079.047-.137.164-.216.179-.607.132-1.214.248-1.82.369.222-.612.264-1.435.7-1.8a25.246 25.246 0 0 1 9.423-5.091 28.026 28.026 0 0 1 10.964-.95c2.295.245 4.717.429 6.712 2.123Z" data-name="パス 1136"/><path d="M86.386 5.32c1.72-1.335 3.693-1.055 5.614-.786 4.875.691 8.336 3.567 11.08 7.476.923 1.324 1.82 2.638 2.728 4 .105.158.264.327.275.5.047.776.322 2.068 0 2.232-1.156.623-1.409-.6-1.878-1.324a39.011 39.011 0 0 0-2.242-3.276c-2.158-2.638-4.131-5.535-7.582-6.669-2.11-.686-4.194-1.583-6.49-1.055-.972.258-1.299-.243-1.505-1.098Z" data-name="パス 1137"/><path d="M103.256 65.272c-1.377-.243-2.823-.433-4.221-.77a2.67 2.67 0 0 1-1.345-.929 3.877 3.877 0 0 1-.411-1.361 3.758 3.758 0 0 1 1.435-.174 17.735 17.735 0 0 0 11.291-.665 9.991 9.991 0 0 1 1.741-.628 6.548 6.548 0 0 1 1.646.174c-.206.559-.259 1.435-.638 1.614a39.242 39.242 0 0 1-5.487 2.19 25 25 0 0 1-4.011.549Z" data-name="パス 1138"/><path d="m57.226 83.316 6.273-.675a.443.443 0 0 1 .142 0c.718.248 2-.528 2.11.76s-1.266 1.24-2.179 1.414q-6.213 1.2-12.441 2.321a4.686 4.686 0 0 1-1.525-.264c.237-.554.343-1.44.739-1.583 1.794-.718 3.693-1.245 5.519-1.81a10.153 10.153 0 0 1 1.388-.232Z" data-name="パス 1139"/><path d="M98.605 35.112c-.591.354-.955.739-1.345.765a11.078 11.078 0 0 0-6.759 3.25 22.039 22.039 0 0 1-1.926 1.862 5.175 5.175 0 0 1-1.7.475 4.743 4.743 0 0 1 .243-1.583 14.034 14.034 0 0 1 5.614-5.1 5.529 5.529 0 0 1 4.791-.443 6.91 6.91 0 0 1 1.082.77Z" data-name="パス 1140"/><path d="M108.023 31.416a6.658 6.658 0 0 1 1.324-1.293 8.138 8.138 0 0 1 9.07 1.483 1.493 1.493 0 0 1 .464.691 10.892 10.892 0 0 1 0 1.551 4.288 4.288 0 0 1-1.351-.448c-1.9-1.483-3.941-2.432-6.421-1.963-.907.174-1.81.4-2.717.591Z" data-name="パス 1141"/><path d="M106.589 68.67c-.586-.528-1.335-.871-1.483-1.388-.264-.939.48-1.24 1.345-1.4 1.055-.2 2.11-.612 3.166-.818a3.867 3.867 0 0 1 1.34.237c-.111.5-.063 1.266-.364 1.44-1.193.715-2.523 1.237-4.004 1.929Z" data-name="パス 1142"/><path d="M71.349 82.694a13.719 13.719 0 0 1 2.744.6c.417.179.591.934.871 1.425a3.867 3.867 0 0 1-1.367.427 33.759 33.759 0 0 1-4.047-.528c-.406-.084-.739-.528-1.1-.834a4.525 4.525 0 0 1 1.214-.913 5.845 5.845 0 0 1 1.667-.037Z" data-name="パス 1143"/><path d="M123.149 43.682a8.792 8.792 0 0 1 .19 1.91 4.068 4.068 0 0 1-.659 1.293c-.327-.269-.913-.528-.939-.813a53.488 53.488 0 0 1-.237-5.2c0-.232.528-.565.886-.644.153-.032.565.427.612.707.164.9.211 1.826.3 2.738Z" data-name="パス 1144"/><path d="M93.176 46.188c.354-.29.918-1.113 1.583-1.224 1.108-.185 1.678.77 1.82 1.789.116.86-.929 2.037-1.7 1.931-1.07-.158-1.661-.844-1.703-2.496Z" data-name="パス 1145"/><path d="M115.542 42.416a5.939 5.939 0 0 1-1.636 1.15c-.691.222-2.068-1.119-1.794-1.757a3.108 3.108 0 0 1 1.583-1.688c.981-.306 1.841.681 1.847 2.295Z" data-name="パス 1146"/><path d="M111.036 57.601c-.527-.475-.971-.686-1.1-1.018a1.3 1.3 0 0 1 .1-1.171 12.793 12.793 0 0 1 2.538-1.7c.211-.106.755.448 1.14.7Z" data-name="パス 1147"/><path d="M91.546 53.142c-.57.417-.944.886-1.2.828a1.261 1.261 0 0 1-.812-.881c0-.259.528-.754.828-.791s.63.422 1.184.844Z" data-name="パス 1148"/><path fill="#fff" d="M86.317 352.2c.211 2.517.459 5.028.623 7.545.385 5.92.807 11.845 1.055 17.77.227 5.492.359 10.99.332 16.482 0 3.757-.438 7.508-.554 11.264-.079 2.49.037 4.991.143 7.482a1.488 1.488 0 0 0 .659 1.145c4.052 1.245 7.529 3.994 11.834 4.548.818.1.828.464.76 1.134-.48 4.532-.881 9.075-1.366 13.6-.354 3.361-.813 6.706-1.2 10.061-.28 2.448-.528 4.907-.786 7.355-.359 3.034-.765 6.068-1.129 9.107q-.19 1.541-.28 3.1c-.269 4.675-.591 9.344-.744 14.024s-.063 9.27-.216 13.9a8.58 8.58 0 0 0 .528 4.316c.1.211-.032.528-.079.992-4.611-1.535-9.175-2.638-13.8-.908v-8.183c0-.923-.143-1.852-.069-2.77a12.686 12.686 0 0 1 .57-1.583 8.871 8.871 0 0 0 .39-2.638c-.591-6.11-1.219-12.219-1.92-18.318-.528-4.748-1.277-9.5-1.82-14.3-.2-1.757-.058-3.551-.142-5.324s-.3-3.614-.364-5.419c-.058-1.514.048-3.028 0-4.543-.042-1.7-.2-3.408-.237-5.113-.127-4.6-.269-9.2-.3-13.792 0-2.4.459-4.828.259-7.2-.348-4.221.612-8.252.981-12.362.459-5.06 1.282-10.088 2.016-15.116.781-5.355 1.625-10.705 2.469-16.05.459-2.907.966-5.8 1.477-8.7a12.32 12.32 0 0 1 .459-1.525Z" data-name="パス 1149"/><path fill="#fff" d="M44.22 411.45c8.442 1.794 16.783.084 25.494-.528-.966 5-1.852 9.866-2.865 14.71-.744 3.556-1.673 7.075-2.5 10.615-.786 3.377-1.419 6.79-2.364 10.114-.617 2.179-1.752 4.221-2.517 6.331-1.926 5.355-3.836 10.721-5.635 16.118-.881 2.638-1.4 5.434-2.29 8.083-.654 1.963-1.73 3.783-2.427 5.73a6.566 6.566 0 0 0-.063 2.691c.069.749-1.1 2.031-2.142 2.11a15.168 15.168 0 0 1-9.449-2.184 4.084 4.084 0 0 1-1.931-4.284c.623-3.989 1.372-7.951 1.958-11.945.976-6.68 1.868-13.37 2.8-20.049.76-5.492 1.583-10.969 2.258-16.472.427-3.519.633-7.07.913-10.61.264-3.386.517-6.789.76-10.43Z" data-name="パス 1150"/><path fill="#fff" d="M123.001 142.213c.164 1.794.311 3.271.432 4.748.29 3.408.633 6.811.834 10.22.348 5.8.6 11.607.9 17.411.068 1.282.179 2.564.232 3.846s.987 2.591 2.016 2.485c1.208-.127 1.651-1.055 1.683-2.2 0-.179.047-.354.105-.823 1.324 1.878 2.564 3.472 3.614 5.181.913 1.488 1.583 3.134 2.411 4.664 1.72 3.092-.865 8.278-4.253 9.138-4.221 1.055-7.571-.881-11.037-2.538a64.989 64.989 0 0 1-5.952-3.445 14.315 14.315 0 0 1-2.21-1.778 2.072 2.072 0 0 1-.528-1.1c-.95-5.835-1.968-11.665-2.759-17.527a62.585 62.585 0 0 1-.591-9.676c0-1.145 1.055-2.343 1.831-3.377a159.86 159.86 0 0 1 5.276-6.637c.907-1.055 2-2 2.97-3.039 1.634-1.753 3.211-3.527 5.026-5.553Z" data-name="パス 1151"/><path fill="#fff" d="M136.836 182.575c4.379-2.221 8.674-4.437 13.011-6.574a14.285 14.285 0 0 1 3.123-.955 1.224 1.224 0 0 1 .934.417 19.965 19.965 0 0 1 1.314 1.768c-1.931.749-4.163 1.636-6.405 2.49-1.272.48-2.58.871-3.825 1.409a1.235 1.235 0 0 0-.617 1.008 1.319 1.319 0 0 0 .9.855 49.827 49.827 0 0 0 6.2.269c4.305-.2 8.605-.559 12.911-.865a2.886 2.886 0 0 0 1.266-.169c2.206-1.366 3.24.253 4.569 1.746-1.878.227-3.593.411-5.276.644-2.448.332-4.907.644-7.339 1.055-.95.164-1.736.348-2.063-.855-.037-.137-.274-.227-.691-.528a20.871 20.871 0 0 0-1.957 3.113 2.47 2.47 0 0 0 .934 3.028c1.493 1.187 1.435 1.583.042 2.891-.58.528-1.1 1.145-1.646 1.725s-1.055 1.277-.084 2a.845.845 0 0 1 .19.612c0 1.4-2.638 3.387-4 2.986l-10.827-3.224c2.855-5.175 1.868-10.005-.664-14.846Z" data-name="パス 1152"/><path fill="#fff" d="M43.692 184.39c-3.746-1.145-7.518-2.195-11.222-3.461-2.87-.976-3.91-3.34-3.9-6.21.026-5.055.111-10.1.164-15.158v-2.944l5.582 1.8c.316.1.67.317.96.253 1.915-.406 1.926 1.177 2.279 2.242q1.709 5.149 3.24 10.362c.739 2.5 1.372 5.033 2.01 7.566.422 1.678.776 3.377 1.161 5.07Z" data-name="パス 1153"/><path fill="#fff" d="m149.641 171.152 1.456.259c.179 1.372-.427 1.884-1.625 2.269a44.25 44.25 0 0 0-11.032 5.234 11.686 11.686 0 0 1-2.638.955c-1.2.427-1.541-.528-2.11-1.229-.179-.222-.565-.269-1.234-.554 3.166-1.1 6.083-1.942 8.848-3.139s6.214-.909 8.335-3.795Z" data-name="パス 1154"/><path fill="#fff" d="M168.139 193.227c-3.044-.222-5.851-.485-8.663-.6-1.087-.047-2 .074-1.921-1.488 0-.48-.454-.987-.86-1.794l11.444.8Z" data-name="パス 1155"/><path fill="#fff" d="M36.016 527.719a10.566 10.566 0 0 1-6.579-2.786c-.327-.316-.327-.976-.475-1.477a4.657 4.657 0 0 1 1.583-.132c1.768.48 3.493 1.129 5.276 1.583.9.237 1.878.174 2.786.4.353.084.844.591.834.891a1.356 1.356 0 0 1-.8.981 19.847 19.847 0 0 1-2.625.54Z" data-name="パス 1156"/><path fill="#fff" d="M167.476 199.448a115.223 115.223 0 0 1-14.493-2.427c1.477-1.388 2.722-2.174 4.822-1.277 2.954 1.266 6.115 2.058 9.191 3.055.2.063.38.158.575.243Z" data-name="パス 1157"/><path fill="#fff" d="M84.866 535.365a14.333 14.333 0 0 1-2.285-.032c-.375-.063-.691-.528-1.029-.786.332-.274.644-.749 1-.786 2.543-.264 5.086-.475 7.634-.607.364 0 .76.48 1.14.739-.359.322-.681.855-1.055.929-1.773.322-3.567.528-5.355.744Z" data-name="パス 1158"/><path fill="#fff" d="M166.508 178.258h-7.434l-.391-1.377c4.148-.195 7.477.338 7.825 1.377Z" data-name="パス 1159"/><path fill="#fff" d="m162.44 187.36 5.37-.828c-.474 1.2-.474 1.2-5.37.828Z" data-name="パス 1160"/><path fill="#fff" d="m157.186 180.601-3.028.185c1.561-1.203 2.109-1.271 3.028-.185Z" data-name="パス 1161"/><path fill="#fff" d="M123.06 65.89c-.364.106-.8.38-1.055.269a1.957 1.957 0 0 1-.865-.929c-.047-.095.459-.675.681-.66.306 0 .58.406.87.633Z" data-name="パス 1162"/><path fill="#fff" d="m81.724 76.684 1.314 1.957c-.406.248-.9.786-1.2.691-1.345-.422-.649-1.493-.681-2.332Z" data-name="パス 1163"/><path fill="#fff" d="M82.281 71.778c-1.161.443-1.81.074-2-.955 0-.153.528-.528.886-.607 1.488-.343.976.77 1.114 1.562Z" data-name="パス 1164"/><path fill="#fff" d="M81.247 63.731c0 .67.042 1.335.058 2-.332 0-.849.095-.965-.069-.482-.712-.375-1.403.907-1.931Z" data-name="パス 1165"/></svg>