<svg xmlns="http://www.w3.org/2000/svg" width="199.001" height="532.426"><path fill="#fff" d="M83.934 457.674s16.158-1.992 16.955-1.494 8.809 8.291 8.809 8.291l19.649-21.85-11.238-38.227-43.91 37.844Z" data-name="パス 977"/><path fill="#fff" d="M188.711 428.226c.119-3.042.179-31.55.179-31.55l-11.079 3.565s-7.678 25.769-6.533 25.644 17.433 2.341 17.433 2.341Z" data-name="パス 978"/><path fill="#fff" d="m93.036 224.019-2.211 59.868 44.745 23.393 32.3-74.816-65.815-16.89Z" data-name="パス 979"/><path fill="#fff" d="m113.342 6.482 9.152-3.69 10.268-1.165 11.423 2.42 8.465 6.314 12.449 13.858 5.95 26.834v24.962l-1.519 29.936-1.643 4.481 6.777 3.69 8.111 10.492 1.275 24.285-1.15 24.22 6.867 23.578 4.945 34.194 2.549 22.353-14.361.966-98.145-18.847-1.618 17.881-21.75 6.473-17.2-6.7-4.885-7.265 6.025-13.883 14.376-43.909-1-6.583 2.659-4.481 4.272-5.477 1.429-20.729 2.251-14.376 3.4-15.934 3.685-7.967 8.5-8.435 13.793-6 1.992-5.189-1.165-19.918-3.884-23.8V33.142l4.223-12.449a16.86 16.86 0 0 1 5.4-7.713Z" data-name="パス 980"/><path d="M17.981 411.155a23.713 23.713 0 0 1 2.385-3.869 25.2 25.2 0 0 0 4.979-9.142c.936-2.7 1.683-5.477 2.564-8.2 1.185-3.635 2.53-7.22 3.59-10.89.642-2.236.737-4.626 1.334-6.877.837-3.162 1.9-6.259 2.888-9.376.687-2.171 1.369-4.347 2.121-6.5.966-2.778 2.037-5.517 2.988-8.3 1.036-3.022 1.992-6.075 2.988-9.1a834.63 834.63 0 0 1 2.749-8.032c1.529-4.407 3.137-8.784 4.6-13.21 2.086-6.309 4.018-12.668 6.13-18.972 1.036-3.092 2.305-6.11 3.486-9.152 1.524-3.924 3.018-7.862 4.616-11.756 1.11-2.709 2.325-5.373 3.57-8.022 1.723-3.67 3.52-7.31 5.278-10.955a3.68 3.68 0 0 0 .11-.727 58.026 58.026 0 0 1-5.587 1.847c-1.6.363-1.583 1.16-1.379 2.49a42.959 42.959 0 0 1 .349 5.378c.04 1.638-.6 2.231-2.2 2.221-2.49 0-3.545-1-3.894-3.486-.239-1.713-.5-3.431-.782-5.477a5.147 5.147 0 0 0-.752.931 34.53 34.53 0 0 0-2.45 9.2c-.214 2.131-.593 4.213-2.6 5.637-1 .687-1.872 1.135-2.948.657a3.655 3.655 0 0 1-2.226-3.132 6.185 6.185 0 0 0-.259-1.842c-.319 1.12-.627 2.251-.966 3.371-.254.837-.6 1.494-1.723 1.28a7.119 7.119 0 0 0-2.156 0 3.091 3.091 0 0 1-3.72-3.356c0-.274-.11-.707-.309-.812-1.967-1.036-1.718-2.943-1.733-4.636s.274-3.486.443-5.348c-.408.169-.762.284-1.086.453-2.047 1.086-3.461.7-4.422-1.359a2.241 2.241 0 0 1 .065-1.663c1.2-2.694 2.639-5.288 3.695-8.032.817-2.131 2.286-4.257 1.573-6.667-.747-2.544.448-4.571 1.25-6.732 2.1-5.672 4.317-11.3 6.289-17.01s3.615-11.453 5.517-17.129c.871-2.619 2.047-5.134 3.037-7.713.787-2.066 1.444-4.183 2.291-6.219.209-.5.926-.787 1.414-1.17.339.5.891.921 1 1.444a4.979 4.979 0 0 1-.2 2.246c-.861 2.779-1.708 5.567-2.759 8.281-1.155 2.988-2.544 5.886-3.789 8.843-.378.906-.583 1.882-.906 2.818-2.325 6.757-4.691 13.534-7.016 20.3-.672 1.992-1.28 3.984-1.907 5.945-.558 1.778-.707 3.859-3.172 3.984a9.7 9.7 0 0 1 1 1.768 13.016 13.016 0 0 0 6.8 8.6 26.158 26.158 0 0 0 12.165 3.033 36.037 36.037 0 0 0 13.619-2.345c1.723-.627 3.406-1.364 5.1-2.071 2.291-.956 2.689-2.933 2.928-5.139.5-4.8 1.19-9.57 1.813-14.356.523-4.023 1.041-8.052 1.6-12.07.5-3.6 1.046-7.2 1.564-10.79.194-1.329.314-2.669.583-3.984.085-.413.692-1.11.827-1.056.5.194 1.27.588 1.334 1a13.276 13.276 0 0 1 0 3.486c-.5 4.118-1 8.231-1.569 12.339-.4 2.988-.886 5.975-1.205 9a2.181 2.181 0 0 0 .822 1.722c2.49 1.6 5.134 2.988 7.6 4.6a27.83 27.83 0 0 0 9.78 3.774 78.532 78.532 0 0 0 11.373 1.086c2.544.164 5.109.194 7.663.134 4.377-.11 8.754-.334 12.872-.5a18.262 18.262 0 0 0 1.9 2.629 1.483 1.483 0 0 1 .224 2.151 7.846 7.846 0 0 1-2.6 2.221c-1.4.612-2.032 1.354-1.135 3.3a12.373 12.373 0 0 1 .856 2.365c.543 2.4-.563 4.223-3.212 5.159v-1.882c-.06-1.549-1.245-2.325-2.554-1.549-1.534.911-2.963 1.992-4.452 2.988a13.115 13.115 0 0 1-1.922 1.17c-1.3.563-2.256-.154-2.111-1.6.085-.891.453-1.773.453-2.659a2.63 2.63 0 0 0-.632-1.932c-.807-.538-1.583 0-2.161.787a7.539 7.539 0 0 1-1.494 1.554c-1.041.757-1.927.428-2.216-.846a12.06 12.06 0 0 1 .563-7.554 5.144 5.144 0 0 1 .438-.632c.264-.418.737-.861.7-1.26a1.349 1.349 0 0 0-.966-.931c-.553 0-1.4.249-1.6.652a12.8 12.8 0 0 0-1.449 3.984 24.759 24.759 0 0 0-.09 6.334c.359 2.629 1.743 3.844 4.621 3.122a1 1 0 0 1 .339 0 16.368 16.368 0 0 0 1 2.49 4.32 4.32 0 0 0 5.831 1.24 48.228 48.228 0 0 0 4.307-3.052 5.736 5.736 0 0 0 .538 1.21c.692.936.154 1.105-.612 1.638a14.031 14.031 0 0 0-3.984 3.695 43.819 43.819 0 0 0-4.043 8.017 8.321 8.321 0 0 0 .095 5.94c.822 2.186 1.364 4.482 2.913 6.319.144.174.025.752-.164 1-.682.827-.951 1.8.1 2.251a2.577 2.577 0 0 0 2.4-.5c2.1-2.544 4.093-5.194 5.95-7.927 2.36-3.486 2.629-7.4 2.151-11.453a65.71 65.71 0 0 0-.866-5.438 8.827 8.827 0 0 0-.936-1.952 7.59 7.59 0 0 0 5.642-10.651c-.3-.782-.08-1.026.463-1.529a14.177 14.177 0 0 0 2.863-3.277 4.041 4.041 0 0 0-.941-5.129 4.481 4.481 0 0 1-.5-.846 8.454 8.454 0 0 1 1.389-.453c4.979-.692 9.959-1.379 14.963-2.032 3.864-.5 7.748-.871 11.592-1.494 2.549-.413 5.034-1.215 7.569-1.758 1.22-.264 2.49-.294 3.725-.5a17.005 17.005 0 0 0 3.107-.632 1.549 1.549 0 0 0 .827-1.185c-.269-2.744-.543-5.477-1.071-8.2a7.458 7.458 0 0 0-1.638-2.853c-1.374-1.758-2.31-3.685-1.753-5.9a41.071 41.071 0 0 1 2.38-7.145c1.464-3.212.667-6.229-.209-9.307a44.64 44.64 0 0 0-1.165-3.436 5.987 5.987 0 0 0-5.706-3.59v3.122l1.2-.832c.219.448.707.971.6 1.32a15.523 15.523 0 0 1-1.544 3.924c-2.669 4.223-6.428 7.469-10.1 10.776-2.4 2.166-4.825 4.322-7.409 6.254-4.043 3.023-8.141 5.975-12.389 8.709a44.106 44.106 0 0 1-6.926 3.112c-.732.3-1.583.119-1.618-.787a2.022 2.022 0 0 1 .911-1.623c4.83-1.827 8.933-4.84 13.006-7.887 4.427-3.311 8.9-6.568 13.141-10.113 3.486-2.913 6.643-6.209 9.605-9.018a36.028 36.028 0 0 1-1.1-4.91c-.244-3.54-.354-7.1-.393-10.641-.045-4.546-.05-9.1.08-13.639.159-5.537.5-11.064.717-16.6.09-2.345.055-4.7.045-7.046a1.648 1.648 0 0 0-.3-1c-1.748-1.912-1.544-4.646-2.838-6.752-.144-.234.194-.926.5-1.2.159-.144.871.035 1.071.284a11.1 11.1 0 0 1 1.25 2.061c2.689 5.477 2.44 11.254 2.231 17.129-.249 6.857-.025 13.733 0 20.6 0 3.984.065 7.967.1 11.926a3.318 3.318 0 0 0 .095.5c1 .234 1.942.383 2.858.687 2.36.787 4.307 1.947 5.258 4.541 1.081 2.958 2.335 5.826 2.654 9.018a14.351 14.351 0 0 1-1.822 8.087 6.944 6.944 0 0 0 .563 7.788c1.857 2.266 2.365 4.979 2.49 7.783.07 1.7-.06 3.416-.1 5.124 0 .085-.095.2-.065.254 1.628 2.415.458 5.149.856 7.713.5 3.222.677 6.473 1 9.959a34.854 34.854 0 0 1 3.52-1 34.142 34.142 0 0 1 3.635-.284c-.319-3.57-.588-7.205-1-10.825s-.9-7.255-1.394-10.875q-.623-4.511-1.33-9c-.563-3.511-1.175-7.011-1.778-10.512l-1.494-8.54c-.637-3.685-1.105-7.4-1.947-11.039-1.135-4.915-2.554-9.77-3.879-14.759l-1.245.956-.4-.11c.139-3.894.294-7.788.413-11.682.189-6.065.393-12.13.523-18.2.075-3.56-.025-7.131.03-10.7.09-5.657-1.09-10.925-4.481-15.591-.916-1.27-1.618-2.7-2.574-3.939-.6-.777-1.564-1.265-2.241-1.992a11.015 11.015 0 0 1-1.444-2.186c-.08-.149.189-.692.378-.747.428-.115 1.071-.229 1.335 0a27.611 27.611 0 0 1 4.138 3.924 61.506 61.506 0 0 1 5.642 8.634 20.416 20.416 0 0 1 2.042 7.135c.433 4.208.428 8.465.528 12.693s.169 8.405.134 12.608c0 1.957-.329 3.909-.5 5.866-.249 2.788-.334 5.6-.782 8.35-.383 2.335.388 4.312 1.135 6.389 1.14 3.177 2.305 6.364 3.187 9.615 1.369 5.034 2.649 10.093 3.7 15.2 1.11 5.378 1.937 10.81 2.833 16.228.617 3.74 1.23 7.469 1.7 11.244.588 4.716 1.041 9.461 1.534 14.171.174 1.668.309 3.346.448 5.019a3.776 3.776 0 0 1 .05 1.449c-.7 2.027.438 3.984.2 5.9-.254 2.081.309 4.158-.324 6.254-.344 1.125.095 2.49.159 3.74.085 1.549.2 3.1.174 4.651a1.753 1.753 0 0 1-.762 1.23 1.494 1.494 0 0 1-1.3-.134c-1.832-1.17-2.759-2.425-4.611-6.1a8 8 0 0 0-.9 1.444 28.715 28.715 0 0 0-1.185 3.984c-.229 1.175-.8 1.7-2.315 1.564.309 2.843.612 5.507.881 8.176.234 2.276.5 4.556.617 6.842.289 4.72.558 9.461.757 14.167.159 3.68.239 7.365.279 11.049.06 6.165.06 12.334.09 18.5.035 7.678.119 15.357.08 23.035 0 2.988-.3 6-.453 9-.334 6.443-.722 12.887-.971 19.33-.214 5.477-.254 10.955-.373 16.432 0 .3-.045.612-.075 1-2.918-.154-4.238 1.832-5.194 4.018a24.9 24.9 0 0 0-1.7 5.612c-.334 1.912.717 3.147 2.948 4.028-.2.881-.418 1.778-.6 2.679a6.67 6.67 0 0 0 3.266 7.569c.8.5 1.379.866 1.325 2.136-.314 6.926-.329 13.868-.657 20.794-.224 4.805-.777 9.6-1.21 14.386a3.73 3.73 0 0 1-3.042 2.9 4.181 4.181 0 0 0-.822.184c-1.275.413-2.544.852-3.819 1.255-1.957.622-3.944 1.155-5.871 1.852a16.9 16.9 0 0 1-8.515.378 90.979 90.979 0 0 1-9.959-2.779c.08 1.155.179 2.639.294 4.118.3 3.934.563 7.873.931 11.806a10.374 10.374 0 0 0 .792 3.351c1.389 2.988 2.8 5.975 4.481 8.853a65.64 65.64 0 0 0 4.457 6.249 47.448 47.448 0 0 1 5.945 10.995 55.892 55.892 0 0 1 2.833 8.221 36.653 36.653 0 0 1 .548 7.37 2.589 2.589 0 0 1-1.031 1.748c-2.6 1.992-5.213 3.984-8.38 5.044a8.554 8.554 0 0 1-5.637-.428 12.289 12.289 0 0 0-3.212-1.145 5.662 5.662 0 0 1-2.49-1.449c-2.455-1.808-4.979-3.486-7.265-5.532a63.616 63.616 0 0 1-6.01-6.463 69.086 69.086 0 0 1-4.755-6.443 6.667 6.667 0 0 1-.891-2.938c-.373-3.665-.627-7.345-.936-11.015 0-.129-.06-.259-.324-.438q-.6 2.49-1.2 4.955c-.368 1.529-1.175 1.877-2.609 1.285-1.315-.543-2.724-.866-4.023-1.439a3.082 3.082 0 0 1-1.588-3.456l2.988-14.191c.9-4.252 1.783-8.51 2.709-12.947-1.265 0-2.315.07-3.361 0-3.984-.3-7.967-.025-11.836-1.329-3.042-1.026-5.607-2.569-7.131-5.477a4.257 4.257 0 0 1-.324-2.435c.264-1.857.757-3.68 1.076-5.537.139-.8.334-.911 1.2-.8a12.107 12.107 0 0 0 7.6-1.18c1.867-1.066 2.246-3.187 2.181-5.238-.04-1.205-.4-2.4-.453-3.605a2.714 2.714 0 0 1 .5-1.8c2.141-2.355 2.116-5.423-.329-7.34-.931-.732-.593-1.19-.294-1.992a11.318 11.318 0 0 0 .866-3.819c0-1.459-.916-2.111-2.43-2.076-1.419.035-2.838.209-4.482.344.249-1.668.463-3.3.732-4.92.189-1.15.523-2.286.632-3.441.045-.5-.319-1-.5-1.529-.359.378-.926.7-1.036 1.14-.528 2.176-.9 4.392-1.389 6.578-.354 1.578-.876 3.122-1.18 4.706-.179.946 0 1.962-.119 2.923-.647 4.671-1.29 9.346-2.052 14-.593 3.63-1.354 7.235-2.052 10.85-.075.388-.234.767-.453 1.454l-4.2-3.152a13.5 13.5 0 0 1 1.11-2.773 4.375 4.375 0 0 0-2.455-6.872c-1.892-.558-3.819-.792-5.507.722a1.782 1.782 0 0 1-1.26.244c-3.376-.418-4.541 1.34-5.184 3.864a10.043 10.043 0 0 0 .075 3.869c.075.5.777 1.28 1.19 1.28.946 0 .7-.8.667-1.519-.06-1.494-.5-3.018.463-4.482a2.342 2.342 0 0 1 2.325-1c.926 0 .742.792.931 1.359a6.188 6.188 0 0 0 .787 1.3 1.853 1.853 0 0 0 1.673-2.33c-.1-1.056.563-1.494 1.593-1.534 1.912-.06 3.227 1.021 3.082 2.624a2.709 2.709 0 0 1-.393.941 11.089 11.089 0 0 0-1.135 2.086c-.334 1.175-.687 2.146-2.281 1.753v8.375c0 3.516 0 7.036.025 10.551.045 3.625.239 7.25.214 10.87-.03 4.178-.184 8.356-.383 12.528-.085 1.8-.687 3.62-.543 5.393.085 1.031.378 1.992-.194 2.908-.777 1.21-1.673 2.345-2.544 3.486-2.515 3.286-5.014 6.588-7.569 9.839-2.634 3.351-5.323 6.653-8 9.959-1.429 1.778-3.486 2.241-5.562 2.305-2.151.065-4.531.159-6.418-.662-2.46-1.076-5.253-1.882-7.011-4.257a4.606 4.606 0 0 1-.717-4.551c.667-1.992 1.11-4.023 1.683-6.035 1.165-4.058 2.36-8.107 3.52-12.17.294-1.036.433-2.126.792-3.137.448-1.27 1.2-2.445 1.559-3.735.886-3.187 1.748-6.4 2.37-9.645.334-1.718.025-3.55.214-5.308.418-3.834.956-7.658 1.464-11.483.269-2.032.573-4.063.9-6.374-4.706 1.494-9.461 1.494-13.664 3.64-2.554 1.3-5.313 1.051-8.017.8a27.475 27.475 0 0 1-8.146-2.176 11.16 11.16 0 0 1-6.867-7.469c-.06-.209-.139-.408-.264-.772-3.341.612-6.638 1.185-9.919 1.827-1.041.2-2.042.593-3.067.881a11.458 11.458 0 0 1-9.008-1.255c-4.138-2.266-6.533-5.975-8.814-9.844a19.576 19.576 0 0 1-2.938-7.185 60.541 60.541 0 0 1-.458-6.443c0-.5.463-1.026.777-1.494 3.1-4.616 6.174-9.252 9.322-13.833 2.121-3.1 4.347-6.125 6.538-9.172.254-.354.578-.662.866-1-.583 1.6-1.1 3.222-.5 4.93 1.076 2.913 3.834 4.143 6.174 2.7a27.527 27.527 0 0 0 2.694-2.176 5.787 5.787 0 0 0 5.627-1.628c1.175-1.11 2.066-1.753 3.884-1.554 1.992.224 3.257-1.847 2.744-4.482-.085-.458-.239-1.115 0-1.379a4.657 4.657 0 0 0 .448-5.741 8.087 8.087 0 0 1-.5-7.15 5.034 5.034 0 0 0 .2-2.764 2.225 2.225 0 0 0-1.454-1.464 12.613 12.613 0 0 0-7.21 1.613 5.712 5.712 0 0 0-1.708 1.947c-.129.2.1.846.359 1.026a1.06 1.06 0 0 0 1.031-.179c1.832-2.156 4.367-2.1 7.056-2.535a13.35 13.35 0 0 1-.393 1.827c-1.115 2.9-1.434 5.721.154 8.609a2.118 2.118 0 0 1-.264 2.848 2.515 2.515 0 0 0-.692 2.958c.154.573.209 1.17.383 2.166-.7-.5-1.051-.762-1.374-1.041a1.491 1.491 0 0 0-2.49.354c-.378.558-.682 1.16-1.031 1.733-.812 1.32-2.066 1.7-3.685 1.8.07-.7.1-1.22.179-1.733.2-1.26-.5-2.555-1.444-2.689s-1.723.657-1.867 2.106a6.7 6.7 0 0 1-1.842 4.387c-.7.672-1.663.423-1.643-.5a11.9 11.9 0 0 1 .752-3.271c.174-.533.742-.946.881-1.494a1.7 1.7 0 0 0-.339-1.344 1.24 1.24 0 0 0-1.18-.085 30.449 30.449 0 0 0-2.48 1.818Zm86-79.6c-.777.737-1.494 1.115-1.708 1.683a43.85 43.85 0 0 0-1.808 5.477c-.812 3.267-1.454 6.578-2.221 9.854-.787 3.361-1.7 6.692-2.44 10.064q-1.414 6.448-2.624 12.947c-.543 2.913-.886 5.866-1.379 8.794s-1.086 5.975-1.643 9.048a6.248 6.248 0 0 0-5.507-.12c-3.486 1.783-5.642 6.473-5.049 10.9a6.911 6.911 0 0 0-3.924 6.677c0 .827-.393 1.086-1.081 1.245-1.713.4-3.431.772-5.109 1.27a8.958 8.958 0 0 0-1.857 1.071c.06.229.115.458.169.687a6.544 6.544 0 0 0 2.057.189c1.992-.448 3.9-1.071 5.856-1.594.319-.085.827-.179 1 0a10.328 10.328 0 0 0 4.237 2.923c.224.07.279.6.5.757a11.772 11.772 0 0 0 2.276 1.215 7.745 7.745 0 0 0 1.952.134 7.969 7.969 0 0 1-.144 1.11c-1.2 4.332-2.545 8.629-3.555 13.006-.866 3.75-1.4 7.584-1.952 11.393-.2 1.389-.035 2.525-1.658 3.51a19.72 19.72 0 0 0-4.686 4.78 5.208 5.208 0 0 1-4.163 2.08 13.972 13.972 0 0 0-7.768 2.729c-.548.393-1.13.737-1.439.941-.458-1.389-.583-2.908-1.379-3.859s-2.315-1.4-3.68-2.166c.04-.154.184-.617.3-1.09.931-3.849-.234-5.477-3.984-5.223-.961.075-1.922.224-2.988.353-.115-1-.159-1.907-.329-2.774-.5-2.49-1.992-3.486-4.257-2.729a15.219 15.219 0 0 0-2.535 1.414c.174-.931.294-1.763.5-2.579.752-3.127 1.549-6.249 2.286-9.381.179-.767.463-1.783-.617-2.061-.946-.249-1.28.647-1.494 1.389-.553 1.793-1.1 3.59-1.588 5.4-.911 3.381-1.693 6.8-2.694 10.148-.876 2.928-1.942 5.8-2.988 8.674-.871 2.4-1.832 4.765-2.764 7.141-.294.762-.035 1.374.722 1.374a1.9 1.9 0 0 0 1.449-.851c1.26-2.823 2.415-5.692 3.565-8.56.847-2.111 1.633-4.247 2.385-6.209.593.149 1.09.428 1.449.309.244-.085.418-.732.413-1.125a3.512 3.512 0 0 1 1.952-3.027c1.051-.692 1.688-.373 1.907.837a8.938 8.938 0 0 1-.264 5.179 2.1 2.1 0 0 0 .4 1.9 1.192 1.192 0 0 0 1.837-.438c.951-1.618 2.564-1.613 4.108-1.718.677-.05 1.2.309.861 1.1a34.209 34.209 0 0 1-2.161 4.541c-.533.851-1.13 1.578-.558 2.529.5.787 1.758.642 2.808 0a7.714 7.714 0 0 1 2.49-.891c1-.194 1.539.473 1.235 1.369-.533 1.569-1.16 3.2-2.784 3.984-1.21.583-1.882 1.245-1.623 2.709.184 1-.737 1.932-1.529 1.648a1.326 1.326 0 0 0-1.992 1.086 2.1 2.1 0 0 0 1.658 2.325 3.944 3.944 0 0 0 4.307-2.256c.443-.861.782-1.768 1.175-2.674 1.25 1 1.778.941 2.3 0a10.455 10.455 0 0 1 1.713-2.49 14.538 14.538 0 0 1 7.589-4.138c2.39-.4 4.95.239 6.882-1.225.5.682.961 1.683 1.3 1.648a3.78 3.78 0 0 0 1.8-1.165 4.452 4.452 0 0 0 .677-1.21 3.053 3.053 0 0 1 .2 1.573 42.605 42.605 0 0 0-.4 4.407 1.992 1.992 0 0 0 1 1.578c.886.264 1.13-.647 1.27-1.349.2-1 .329-2.037.5-3.052.583-3.63 1.2-7.255 1.738-10.89.762-5.1 1.275-10.253 2.246-15.312.956-4.979 2.41-9.844 3.535-14.784.588-2.574.956-5.194 1.359-7.808.045-.3-.324-.672-.5-1a3.483 3.483 0 0 0-1 .6c-.209.249-.2.677-.289 1.026a39.827 39.827 0 0 1-1 3.894c-.378 1.081-2.276 1.125-3.072.324a5.687 5.687 0 0 0-2.2-1.31 3.823 3.823 0 0 1-2.455-3.057c-.035-2.231.851-3.142 3.391-3.774a2.339 2.339 0 0 0 1.539-1.185 2.209 2.209 0 0 0-.737-1.758c-.956-.931-1.429-2.022-.812-3.147a19.84 19.84 0 0 1 3.134-4.475 3.126 3.126 0 0 1 2.808-.324 1.955 1.955 0 0 1 .886 2.594 21.174 21.174 0 0 0-.642 3.984l.523.229c.4-.363.956-.647 1.17-1.1a14.438 14.438 0 0 0 1-2.923c.672-2.933 1.32-5.876 1.882-8.828.7-3.625 1.28-7.265 1.942-10.9s1.28-7.429 2.121-11.1c1.135-4.979 2.564-9.889 3.69-14.869 1.16-5.159 2.111-10.357 3.132-15.546a7.968 7.968 0 0 0-.146-1.706Zm51.539 96.381c.249-5.288.5-10.317.722-15.342.09-2.1.05-4.213.179-6.309.229-3.68.543-7.355.827-11.034q.617-8.211 1.245-16.432c.428-5.711.832-11.423 1.265-17.134.154-2.051.408-4.093.523-6.15a4.911 4.911 0 0 0-.5-1.524c-.418.383-1.115.707-1.215 1.16a34.336 34.336 0 0 0-.6 4.511c-.373 4.482-.637 8.963-1.056 13.445s-1 8.933-1.464 13.4q-.5 4.979-.851 9.959c-.269 3.745-.443 7.5-.707 11.249-.149 2.1-.368 4.2-.6 6.294a1.633 1.633 0 0 1-1.628 1.643 5.717 5.717 0 0 0-4.013 1.947c-.259.3-.817.344-1.235.5a13.606 13.606 0 0 1-.184-1.469c0-.2.189-.4.279-.613a1.788 1.788 0 0 0-1.554-2.619c-1.429-.134-2.863-.249-4.292-.393-1.608-.169-1.872-.627-1.09-2.042a43.568 43.568 0 0 1 6.259-9.2c.916-.966.886-2.176-.144-2.594a2.74 2.74 0 0 0-1.837.289c-1.031.448-1.992.528-2.236-.737a13.528 13.528 0 0 1-.418-4.482 8 8 0 0 1 1.643-3.416c.667-.911 2.166-.7 2.281.214.139 1.105.767 1.235 1.593 1.125a1.842 1.842 0 0 1 2.1 1.339 13.364 13.364 0 0 1 .378 2.52 5.985 5.985 0 0 0 .448 2.32 6.364 6.364 0 0 1 1 3.814c0 .946.568 1.832 1.464 1.713.632-.085 1.653-1 1.628-1.534a18.594 18.594 0 0 0-.956-4.252 16.52 16.52 0 0 1-1.051-2.674c-.334-3.271-1.384-4.616-4.606-5.537-.264-.08-.443-.428-.707-.558a6.615 6.615 0 0 0-2.345-1c-2.261-.149-3.426 1.494-4.457 3.177-1.125 1.822-.931 3.889-1 5.92a4.773 4.773 0 0 0 2.739 4.88 6.937 6.937 0 0 1-.458 1c-1.539 2.345-3.381 4.546-4.581 7.056-1.419 2.958-.961 5.477 3.013 6.025 1.1.149 2.2.324 3.336.5-.03.428-.03.692-.07.951a3.031 3.031 0 0 0 1.678 3.486c1.758 1.026 3.764.642 5.477-1.185 1-1.056 1.952-1.793 3.61-1.091-.324 6.284-.647 12.623-1 18.962l-.558-.339c-.782.5-1.887.787-2.286 1.494a23.848 23.848 0 0 0-1.882 4.805 2.9 2.9 0 0 0 1.021 3.037 1.852 1.852 0 0 1 .543 1.265c-.07 1.494-.314 2.928-.4 4.4-.07 1.135.523 2.076 1.653 2.066 1.613 0 1.434.871 1.424 1.947a37.569 37.569 0 0 0 .259 4.551c.035.324.553.6.846.9.279-.349.727-.657.807-1.046a16.931 16.931 0 0 0 .3-2.8c.3-7.26.433-14.535 1-21.78.174-2.315-.647-4.84 1.708-7.051a7.568 7.568 0 0 1 5.383-2.37c2.106-.045 2.46.463 2.216 2.52a3.838 3.838 0 0 1-.393 1.255q-1 1.992-2.066 3.914c-.692 1.26-.289 2.45 1.056 2.53 1.494.085 1.912.757 1.708 2.076a13.938 13.938 0 0 1-.438 2.33 4.256 4.256 0 0 0 2.988 5.662 7.328 7.328 0 0 1 1.165.5c-.787 1.056-1.454 1.952-2.131 2.843a4.473 4.473 0 0 1-.538.607c-1.295 1.21-2.37 1.414-3.64.568-1.155-.772-2.206-1.708-3.381-2.435-.5-.319-1.544-.612-1.8-.363a2.768 2.768 0 0 0-.652 1.992 2.49 2.49 0 0 0 1 1.494c1.135.881 2.35 1.653 3.555 2.445 1.847 1.215 3.625.866 5.438-.184s2.7-2.794 3.984-4.282c2.241-2.649.6-5.388-1.927-6.08-.956-.259-1.255-.787-1.061-1.808a35.054 35.054 0 0 0 .5-4.4 3.456 3.456 0 0 0-1.673-3.152 1.026 1.026 0 0 1-.453-1.444 24.008 24.008 0 0 0 1.325-4.372 3.764 3.764 0 0 0-3.68-4.481c-2.959-.019-5.772.227-7.752 3.108ZM68.704 356.67l.2-.269c-.886-.837-1.633-2.091-2.679-2.425-3.1-1-7.424 1.992-7.559 5.214a2.575 2.575 0 0 1-1.678 2.624c-.5.224-.961.5-1.434.762a8.352 8.352 0 0 0-4.481 9.511c.433 2.335 1.4 3.2 3.764 3.147.881 0 1.125.309 1.315 1.105a4.193 4.193 0 0 0 4.6 3.51 9.192 9.192 0 0 0 3.376-1.135c.687-.344 1.046-.5 1.539.219 1.18 1.7 4.377 1.837 5.921.817 2.166-1.429 3.7-3.2 3.984-5.851.12-1.155 1-1.315 1.822-1.539a19.53 19.53 0 0 1 2.325-.334 3.518 3.518 0 0 0 4.078-.224 16.745 16.745 0 0 0 6.971-12.832c.329-4.218-.5-8.53-.827-12.8a1.4 1.4 0 0 0-.115-.523c-.428-.856-.946-1.842-2.042-1.569-1.2.3-.687 1.379-.558 2.181.154.961.662 1.937-.2 2.808a43.587 43.587 0 0 1-4.387 4.3c-2.246 1.7-4.093 3.59-4.885 6.349-.4 1.419-.782 2.848-1.2 4.357-.7-.871-1.16-1.559-.707-2.788a3.279 3.279 0 0 0-2.061-4.153 21.97 21.97 0 0 0-2.49-.722 23.691 23.691 0 0 0 .782-2.286c.692-2.913 1.917-5.751 1.464-8.839a4.87 4.87 0 0 0-.712-1.369c-.319.5-.8.906-.921 1.424-.269 1.17-.309 2.39-.523 3.575-.448 2.49-.946 4.935-1.454 7.574Zm76.977-20.361c-.827 2.42-1.6 4.526-2.256 6.667-1.16 3.8-1.658 7.619-.2 11.5a42.466 42.466 0 0 1 1.867 6.135c.179.862.339 1.763 1.071 1.957a2.544 2.544 0 0 0 2.071-.652 18.408 18.408 0 0 0 4.93-7.439 32.368 32.368 0 0 0 1.046-6.757 8.091 8.091 0 0 0-.588-3.954c-1.394-2.858-3.092-5.567-4.73-8.465a3.158 3.158 0 0 1 .194-.269c1.564-1.867 3.759-2.042 5.906-1.947 2.734.124 3.64-1.28 3.55-3.884a8.183 8.183 0 0 0-.244-1.877 13.674 13.674 0 0 1 .055-7.683 7.529 7.529 0 0 0 .309-2.131c0-1.26-.06-2.634-1.494-3.132a12.718 12.718 0 0 0-3.715-.762 18.887 18.887 0 0 0-3.545.543c-.244-.856-.423-1.648-.687-2.41a4.561 4.561 0 0 0-7.036-2.271 7.364 7.364 0 0 0-2.8 8.36c.134.5.642.852 1 1.27.239-.528.5-1.046.692-1.593.06-.179-.129-.428-.144-.647a5.519 5.519 0 0 1 2.893-5.781 2.171 2.171 0 0 1 3.182 1.165 7.076 7.076 0 0 1 .383 2.236c.065 2.644 1.12 3.3 3.635 2.345a10.357 10.357 0 0 1 3.127-.667c1.887-.09 2.425.767 1.783 2.594a12.345 12.345 0 0 0-.528 8.022 20.309 20.309 0 0 1 .423 3.794 14.663 14.663 0 0 1-2.022 0 6.717 6.717 0 0 0-5.273 1.6 6.1 6.1 0 0 1-4.347 1.374c-.837-.05-1.688.3-2.535.314s-1.992.129-2.554-.339c-1.773-1.454-2.111-2.6-.921-4.979a23.694 23.694 0 0 0 1.3-2.32 6.316 6.316 0 0 0 .045-1.992c-.667.09-1.554-.06-1.957.314a17.945 17.945 0 0 0-1.992 2.684c-1.957 2.6-1.449 5.054.637 7.653a4.719 4.719 0 0 0 4.83 1.912c1.454-.239 2.968-.319 4.641-.493Zm21.83-55.665a2.374 2.374 0 0 0 2.833.951 15.327 15.327 0 0 0 3.745-1.28c3.635-2.136 6.6-5.054 7.5-9.257.637-2.988.418-6.14.632-9.217.1-1.414.354-2.813.5-4.218.045-.5.129-1.21-.124-1.4a1.688 1.688 0 0 0-1.544-.214 64.068 64.068 0 0 0-6.3 4.825 37.912 37.912 0 0 0-3.675 4.521 4.3 4.3 0 0 0-3.784-1.763c-1.414.149-2.779.373-3.725 1.608-.588.777-.5 2.251.294 2.659 1.036.533 1.11-.463 1.459-1.036a2.2 2.2 0 0 1 3.58.144 13.622 13.622 0 0 1-1.105 1.105 2.988 2.988 0 0 0-1.14 3.232 9.037 9.037 0 0 0 .827 1.658 3.946 3.946 0 0 1-2.684 5.378 1.15 1.15 0 0 1-.617-.09c-1.678-.732-2.126-.7-2.913.9s-2.126 2.126-3.55 2.679a2 2 0 0 1-2.609-1.081 6.681 6.681 0 0 1-.732-1.593c-.5-1.758-1.15-3.54-.418-5.363.692-1.728.687-1.917-.891-2.709a2.888 2.888 0 0 1-1.668-2.535 2.838 2.838 0 0 1 2.121-3.067c1.494-.6 3.042-1.962 4.745-.214a1.464 1.464 0 0 0 1.434-.164 2.918 2.918 0 0 0 .523-1.957 1.8 1.8 0 0 0-1.235-1.155 11.7 11.7 0 0 0-8.062 1.847c-3.042 2.027-2.923 6.473-.886 8.823a2.758 2.758 0 0 1 .687 1.723 13.511 13.511 0 0 0 2.564 9.227 3.436 3.436 0 0 0 3.242 1.494 8.57 8.57 0 0 0 5.821-3.052 2.525 2.525 0 0 1 1.389-.881c1.129-.269 2.314-.338 3.763-.528Zm-97.642 13.474.344.279c-.129.543-.224 1.1-.4 1.618a27.389 27.389 0 0 0-1.235 3.386c-.329 1.494.647 2.266 2.151 1.808.378-.115.722-.363 1.1-.5a8.382 8.382 0 0 1 5.786-.214 37.369 37.369 0 0 1-2.694 2.669c-.652.528-1.748.817-1.379 1.852.229.647 1.051 1.081 1.6 1.618a19.921 19.921 0 0 1 2.315 2.31 1.494 1.494 0 0 1-.448 2.246 2.071 2.071 0 0 1-2.714-.314c-.368-.388-.747-.772-1.1-1.18a1.537 1.537 0 0 0-2.39-.075 1.728 1.728 0 0 0-.2 2.45c.334.453.687.891 1 1.325-.468.583-.822 1.046-1.205 1.494-.951 1.11-1.728 1.046-2.52-.194-1.4-2.176-1.992-2.34-4.242-1.1a12.15 12.15 0 0 1-1.145.717c-.339.149-.842.324-1.086.174a1.15 1.15 0 0 1-.289-1.036 29.38 29.38 0 0 1 1.09-3.421 1.937 1.937 0 0 0-1.554-2.779c-.393-.055-.807 0-1.205-.035-1.852-.2-2.291.408-1.788 2.216a9.765 9.765 0 0 1 .214 2.674c0 .573-.249 1.135-.3 1.713-.3 3.426 1.922 5.318 5.084 4.312a3.944 3.944 0 0 0 1.329-.652c.737-.617 1.081-.294 1.618.319a4.7 4.7 0 0 0 1.952 1.285c2.31.782 3.924-.418 5.358-2.066.852-1 1.494-2.226 3.1-2.256 3.028-.06 5.149-2.385 4.481-5.278-.393-1.688-1.534-3.2-2.34-4.79-.129-.2.144-.5.334-.856a10.866 10.866 0 0 0 1.434-2.863c.468-2.594-1.25-3.635-3.984-3.7-1.3-.03-2.6.149-3.984.239.2-.573.568-1.1.5-1.583a7.959 7.959 0 0 0-.792-3.277 2.3 2.3 0 0 0-3.032-.612 15.332 15.332 0 0 0-5.856 4.979 3.486 3.486 0 0 0-.607 3.406c.124.354.632.578.966.856a6.319 6.319 0 0 0 .8-1.076 10.38 10.38 0 0 1 1.12-2.6 27.434 27.434 0 0 1 3.59-3.047 4.119 4.119 0 0 1 1.225-.438Zm29.986 16.572a39.763 39.763 0 0 0-.03-4.586c-.244-1.992-.324-4.143-1.17-5.886-2.166-4.432-5.791-7.584-9.984-10.113-.782-.5-1.494-.7-2.206 0s-.423 1.394.124 2.027a4.2 4.2 0 0 1 .7 4.2 10.427 10.427 0 0 0-.314 1.459 24.967 24.967 0 0 0 1.325 11.732c1.046 2.988 2.868 5.477 6.12 6.443a11.689 11.689 0 0 0 2.385.184c-.289 1.788-.5 3.486 1.255 4.86-.5.388-.9.687-1.28 1-2.281 1.867-3.9 4.083-3.984 7.185-.075 2.49-.129 4.91 2.231 6.528a2.241 2.241 0 0 0 2.988-.144c.757-.787.5-1.932-.538-2.061-1.459-.189-1.837-1.205-1.932-2.35-.229-2.873.438-5.433 2.863-7.3a13.105 13.105 0 0 0 1.628-1.613 1.99 1.99 0 0 0 0-2.988 2.239 2.239 0 0 1-.807-2.8 11.318 11.318 0 0 1 3.486-5.642 4.581 4.581 0 0 0 .772-1.32 4.386 4.386 0 0 0-1.778-.169 6.736 6.736 0 0 0-1.856 1.354Zm80.665 47.36a6.633 6.633 0 0 0 .558-1.031 27.716 27.716 0 0 0 1.588-4.93c.279-1.867-.966-3.291-2.833-3.869-1.713-.523-3.416-.627-4.73.832-1.6 1.783-2.594 3.849-1.753 6.289a2.713 2.713 0 0 0 1.578 1.18c.971.279 1.29-.408.876-1.175-1-1.822-.045-3.2.946-4.556a1.584 1.584 0 0 1 1.021-.5c1.992-.224 3.142 1.439 2.216 3.341-.712 1.449-1.554 2.843-2.365 4.242-.921 1.583-.627 2.43 1.115 2.614 1.2.129 1.389.667 1 1.613a19.15 19.15 0 0 0-.9 1.773 11.263 11.263 0 0 0-.5 2.943 7.6 7.6 0 0 0 .593 2.051 2.716 2.716 0 0 1-1.992 3.187c-1.255.164-1.19-1.11-1.583-1.842a2.586 2.586 0 0 1-.1-.533c-.453-1.952-1.608-2.4-3.371-1.354a7.2 7.2 0 0 1-5.562.951 3.549 3.549 0 0 1 .229-.762c.5-.807 1-1.613 1.519-2.385 1.27-1.807 1.24-2.629-.189-4.292a6.048 6.048 0 0 1-.468-1c1.285.354 2.256.637 3.232.881a1.451 1.451 0 0 0 1.837-1.852 15.712 15.712 0 0 0-1.658-3.341c-.329-.5-1.145-.617-1.743-.906-.1.563-.224 1.13-.3 1.7a2.205 2.205 0 0 0 .095.627c-1.534.4-3.376-.11-4.153 1.763a3.868 3.868 0 0 0 .956 4.357c-.727 1.1-1.414 2.1-2.047 3.122a3.745 3.745 0 0 0-.115 3.745 3.153 3.153 0 0 0 3.545 1.758c1.892-.284 3.774-.607 5.736-.931.184.393.383.842.6 1.275.817 1.633 1.494 2.106 3.022 1.877 3.316-.5 6.359-3.605 4.755-7.559a2.769 2.769 0 0 1 .159-2.749c1.608-2.8 1.29-4.895-.837-6.558Zm-29.877 135.082v-.177c1.618-.319 3.257-.568 4.845-1 .5-.124 1.16-.752 1.16-1.145 0-.866-.727-1.105-1.574-1-1.494.219-3.037.354-4.551.588-.956.144-1.409 0-1.384-1.15a13.124 13.124 0 0 0-.408-3.486c-1.673-6.543-2.4-13.24-3.406-19.918a4.907 4.907 0 0 0-.822-1.464 12.233 12.233 0 0 0-.891 1.454 2.2 2.2 0 0 0 0 .936c.124 1.658.244 3.311.378 4.979.209 2.639.309 5.3.672 7.922.5 3.56 1.205 7.091 1.773 10.641a1.245 1.245 0 0 1-.5.911c-1.544 1.22-3.117 2.4-4.7 3.575-.642.5-.946 1.12-.349 1.693.254.239 1 .095 1.494-.07.578-.2 1.081-.871 1.623-.876 1.618 0 3.237.209 4.979.349.229.5.543 1.14.837 1.8 1.255 2.774 2.4 5.607 3.784 8.316 1.524 2.988 3.222 5.876 4.93 8.754a92.292 92.292 0 0 0 4.043 6.189c.259.358 1.056.334 1.6.5.025-.617.259-1.325.035-1.827-.393-.886-1.13-1.613-1.613-2.49-2.774-4.979-5.557-9.959-8.256-14.968-1.115-2.081-2.022-4.277-3.092-6.568.807-.05 1.389-.08 1.967-.129 1.384-.12 2.778-.189 4.148-.413.339-.05.906-.7.837-.9a2.107 2.107 0 0 0-1-1.021 2.774 2.774 0 0 0-1.2-.075Zm-34.508-98.7c-1.29-1.808-2.052-1.778-3.341 0-.891 1.235-1.778 2.49-2.734 3.665-.553.692-1.24 1.275-1.992 2.057a11.325 11.325 0 0 1-.433-1.17c-.692-3.326-2.146-4.018-5.074-2.425-.558.3-1.041.269-1.145-.553-.5-3.774.568-6.892 3.779-9.152 1.992-1.414 1.927-2.156-.224-3.281a8.071 8.071 0 0 1-3.515-3.779 7 7 0 0 0-.936-1.2c-.234.5-.727 1.041-.662 1.494a8.185 8.185 0 0 0 3.137 4.93c-.657.817-1.31 1.628-1.967 2.43a11.094 11.094 0 0 0-2.186 9.78 3.63 3.63 0 0 0 1.578 1.867c1.3.861 2.639.319 3.984-.383a7.758 7.758 0 0 1 .622 1.693 3.108 3.108 0 0 0 2.734 2.883c1.4.279 2.345-.667 3.157-1.628s1.524-2.121 2.375-3.1a1.643 1.643 0 0 1 1.29-.408c2.206.314 3.271-.194 4.481-2.151a10.925 10.925 0 0 0 1.623-8.042 6.406 6.406 0 0 0-3.117-4.775 1.611 1.611 0 0 0-2.241.289c-.911 1-.065 1.653.583 2.047 2.779 1.694 2.161 7.013.224 8.915Zm-91.427 55.1-.558.189c-.124-.189-.239-.388-.373-.568a22.278 22.278 0 0 0-6.937-5.598c-4.272-2.455-7.967-5.413-8.684-10.8-.06-.453-.647-.842-1-1.26-.234.5-.707 1.056-.652 1.544a13.659 13.659 0 0 0 3.306 7.634c2.435 2.828 5.776 4.372 8.639 6.578 2.415 1.857 4.8 3.829 5.194 7.23.11.921.732 1.9 1.748 1.643a2.738 2.738 0 0 0 1.494-1.773 17.956 17.956 0 0 0 .373-4.013c.05-3.57.179-7.146-1.3-10.552a23.8 23.8 0 0 0-6.428-9.277 9.137 9.137 0 0 0-6.448-2.281c-.5 0-1.105.667-1.334 1.175-.11.259.433.971.837 1.245a6.468 6.468 0 0 0 1.549.4 9.961 9.961 0 0 1 2.729 1c4.252 2.988 6.473 7.27 7.469 12.219.301 1.71.232 3.507.376 5.27Zm58.369 42.495.04-.373c1.793-.568 3.585-1.125 5.373-1.7.707-.229 1.354-.657.871-1.434a1.772 1.772 0 0 0-1.494-.538c-1.494.269-2.928.717-4.481 1.12a7.774 7.774 0 0 1-.055-1.056c.214-2.181.458-4.362.682-6.548.5-4.715 1-9.431 1.439-14.152.2-2.146.319-4.307.428-6.473.035-.707-.124-1.364-1.061-1.419-1.046-.065-1 .767-1.105 1.379-.11.5-.025 1.076-.1 1.6-.847 5.741-1.763 11.453-2.549 17.229-.453 3.281-.687 6.593-1.066 9.884a1.494 1.494 0 0 1-.573 1.081c-1.912.777-3.874 1.424-5.786 2.191a5.658 5.658 0 0 0-1.275 1.021 8.583 8.583 0 0 0 1.494.831 1.9 1.9 0 0 0 1.051-.149c1.374-.428 2.729-.926 4.118-1.3a2.434 2.434 0 0 1 1.494.065 27.207 27.207 0 0 0 8.535 2.34c.642.04 1.827-.269 1.882-.573.179-1.026-.717-1.4-1.613-1.578h-.269Zm.5-227.9c2.883 1.22 5.154.5 7.116-2.281a4.55 4.55 0 0 1 1.444-1.559 7.773 7.773 0 0 0 4.028-4.6c.687-1.962 1.32-3.63-1.215-5.283a15.4 15.4 0 0 1-1.9-1.713c-1.076-1-2.106-2.062-3.232-2.988a2.108 2.108 0 0 0-2.818.2 1.9 1.9 0 0 0 .428 2.559q2.206 2.047 4.511 3.984c1.3 1.1 1.494 2.236.294 3.446-1.559 1.6-3.222 3.092-4.77 4.7a2.532 2.532 0 0 1-3.267.438c-1.539-.722-2.256-.194-3.018 1.4a31.939 31.939 0 0 1-3.306 5.3c-.812 1.081-2.037.767-2.46-.533a32.859 32.859 0 0 1-.712-3.266c-.124-.568.1-1.434-.886-1.359s-1.15.772-1.056 1.573a21.172 21.172 0 0 0 .5 3.326 4.346 4.346 0 0 0 2.863 3.3 3.342 3.342 0 0 0 3.864-1.494c1.2-1.663 2.345-3.366 3.6-5.159Zm-30.833 10.915.677.194a7.088 7.088 0 0 0 1.255-2.131c.737-4.437 1.648-8.809 4.053-12.782a52.06 52.06 0 0 1-6.578-1 47.457 47.457 0 0 1-5.891-2.445c-.239 2.236-.438 4.656-.777 7.056-.259 1.822-.737 3.62-1.046 5.438-.284 1.7-.5 3.411-.722 5.223 1.419 0 2.53-.09 2.988-1.175a25.32 25.32 0 0 0 1.245-3.984c.752-2.943 1.439-5.9 2.151-8.844 1.27.11 1.559.5 1.638 2.345.139 3.177.2 6.359.378 9.531a13.806 13.806 0 0 0 .627 2.569Zm76.325 186.848c.075 5.029.134 4.979 2.251 8.052.667 1 1.225 1 2.071.5 2.061-1.29 4.108-2.594 6.17-3.879a2.873 2.873 0 0 0 1.275-2.619 35.3 35.3 0 0 0-2.276-13.479 93.304 93.304 0 0 0-2.659-6.9c-.2-.458-1-.647-1.534-.961-.184.588-.588 1.2-.5 1.753a9.033 9.033 0 0 1-.966 5.945c-2.091 3.747-4.546 7.426-3.834 11.594Zm-15.725-165.9.164.363a2.152 2.152 0 0 1 .538 0c.627.159 1.549.169 1.778.573s-.1 1.265-.368 1.832a18.393 18.393 0 0 1-1.588 2.659c-1.728 2.425-1.753 3.023-.04 5.338a4.2 4.2 0 0 1-.169 5.716 4.706 4.706 0 0 0-.832 1.215c-.707 1.743-1.494 3.341-3.615 3.759-.244.045-.543.846-.458 1.215s.617.916.951.911a4.414 4.414 0 0 0 4.078-1.877 50.169 50.169 0 0 0 2.928-5.049 6.394 6.394 0 0 0 .727-3.441 14.367 14.367 0 0 0-1.653-4.053c-.388-.747-.772-1.235-.124-2.131a19.145 19.145 0 0 0 2.305-4.228c.787-2.066-.393-4.332-2.38-4.427a18.7 18.7 0 0 0-5.283.672 5.212 5.212 0 0 0-2.236 1.6c-.259.269-.075.966-.09 1.494a10.7 10.7 0 0 0 1.26-.349c1.366-.581 2.726-1.188 4.105-1.781Zm64.623 2.455a20.977 20.977 0 0 0 .025 3.237 10.733 10.733 0 0 0 3.819 6.165c1.549 1.384 3.983 1.215 4.915-.229A2.245 2.245 0 0 0 187 305.8c-.194-.349-1.17-.473-1.728-.358a1.962 1.962 0 0 1-2.271-.956 16.788 16.788 0 0 0-1.2-1.952c-1.21-1.409-.717-2.793.065-4.093.468-.777.772-1.6.189-2.211-.388-.408-1.295-.284-1.932-.5-.5-.164-1.185-.408-1.3-.777-.667-2.027 1.359-5.761 3.376-6.553.329-.129.777-.692.717-.931-.1-.383-.672-1-.9-.931a5.131 5.131 0 0 0-2.589 1.115 20.745 20.745 0 0 0-2.684 4.307c-.941 1.912-1.2 5.129 1.215 6.483ZM69.672 525.603c.354.4.692 1.1 1.19 1.235.368.1 1-.5 1.394-.861.2-.184.2-.588.284-.891 1.061-4.173 1.992-8.385 3.207-12.5 1.494-4.949 3.192-9.824 4.845-14.719.269-.8.309-1.539-.5-1.788-.3-.095-1.056.578-1.265 1.051-.752 1.673-1.4 3.4-1.992 5.134-1.519 4.357-3.082 8.7-4.447 13.106-1.053 3.272-1.785 6.638-2.716 10.233Zm42.674-150.772a14.135 14.135 0 0 1-.832-1.887c-.4-1.464-.7-2.953-1.086-4.427-.413-1.6-1.225-2.226-2.8-1.942a12.374 12.374 0 0 0-3.406 1.031c-2.843 1.434-4.775 5.662-3.954 8.62.159.573.891 1 1.359 1.464.174-.578.578-1.19.5-1.728a6.784 6.784 0 0 1 4.367-7.121c1.529-.6 1.937-.3 2.022 1.33a12.164 12.164 0 0 0 1.524 5.667 2.629 2.629 0 0 0 3.779 1.125c.264-.134.5-.319 1.036-.662a20.337 20.337 0 0 0 0 2.445 1.808 1.808 0 0 0 .568 1.245 1.409 1.409 0 0 0 1.3-.264c.4-.423.861-1.13.762-1.608a16.613 16.613 0 0 0-1.33-4.312c-.573-1.13-1.469-1.1-2.435-.254-.418.346-.8.72-1.374 1.278ZM176.42 241.84h.125a12.169 12.169 0 0 0 0 1.758 3.2 3.2 0 0 0 3.331 2.749c1.723-.05 3.192.274 4.028 1.992a3.052 3.052 0 0 0 .737.787 1.534 1.534 0 0 0 2.291-.134c.279-.314.134-1.29-.144-1.778a6.5 6.5 0 0 0-6.433-3.6c-.941.065-1.335-.413-1.349-1.275 0-1.424-.358-2.878.5-4.223.159-.249-.03-1.066-.219-1.125a1.912 1.912 0 0 0-1.494.075 2.689 2.689 0 0 0-.876 1.494c-.237 1.079-.336 2.189-.497 3.28Zm11.642 25.037.334.1c.159-.443.339-.876.463-1.325.612-2.2 1.18-4.4 1.823-6.578.189-.657.772-1.255.8-1.892a34.86 34.86 0 0 0-.289-3.939 18 18 0 0 0-2.226.463 1.18 1.18 0 0 0-.667.8 28.806 28.806 0 0 0-.224 3.341c-.042 3.008-.013 6.017-.013 9.029Zm8.291-.095v-11.159a2.684 2.684 0 0 0-3.272-2.549c1.13 1.12.573 2.544.6 3.829a18.956 18.956 0 0 0 2.674 9.879ZM41.14 270.71l.234.04c.309-1.1.652-2.191.921-3.3a18.187 18.187 0 0 0 .921-4.566c-.06-2.41-.149-4.76.866-7.021a1.13 1.13 0 0 0 0-.916c-.722-1-1.494-1.992-2.211-2.858q-.351 9.29-.731 18.621Zm122.245 48.435.174-.438a33.238 33.238 0 0 0 3.675-.329c.5-.1.936-.662 1.4-1a5.39 5.39 0 0 0-1.628-.772c-1.728-.164-3.486-.144-5.208-.269-1-.07-1.344.309-1.18 1.379a5.446 5.446 0 0 0 3.222 4.113c.319.164.8 0 1.205 0-.045-.453.07-1-.159-1.34a9 9 0 0 0-1.5-1.349ZM59.285 441.42a4.108 4.108 0 0 0 .647-.717 14.428 14.428 0 0 1 5.557-5.726c.294-.149.339-.787.5-1.2-.433-.124-1-.5-1.275-.334a15.343 15.343 0 0 0-3.65 2.385 20.648 20.648 0 0 0-2.9 4.148c-.353.598-.398 1.494 1.121 1.445Zm46.672-174.365c.2.359.329.871.563.931a1.644 1.644 0 0 0 1.18-.254c2.027-1.4 4.023-2.843 6.02-4.282.5-.368 1.449-.682.717-1.494a1.768 1.768 0 0 0-1.673-.154c-2.1 1.26-4.138 2.634-6.16 4.023-.308.23-.403.748-.647 1.23Zm15.048 96.188c-.144-.3-.259-.837-.438-.857a1.827 1.827 0 0 0-1.33.249 19.324 19.324 0 0 0-4.561 6.9 1.085 1.085 0 0 0 .329 1 1.189 1.189 0 0 0 1.056 0 2.986 2.986 0 0 0 .767-.946q1.827-2.654 3.65-5.313a10.747 10.747 0 0 0 .528-1.031Zm-43.953-80.318h.528a4.617 4.617 0 0 0 .777-1.1c.782-2.3 1.549-4.6 2.211-6.936.12-.413-.279-.971-.438-1.464-.468.244-1.21.378-1.354.747-.871 2.256-1.678 4.546-2.33 6.877-.149.518.388 1.245.607 1.877Zm-13.549 45.283c-.234 1-.5 1.992-.707 3.023a40.4 40.4 0 0 0-.772 4.606c-.035.443.612.946.951 1.424.393-.408 1.046-.762 1.135-1.225.413-2.141.672-4.312 1-6.473.116-.942-.357-1.355-1.607-1.355Zm19.634-55.117c.139 1.041.2 1.758.339 2.46a36.2 36.2 0 0 0 1 4.591c.154.463 1.081.672 1.648 1a4 4 0 0 0 .3-1.494q-.6-3.242-1.394-6.443c-.1-.423-.622-.742-.951-1.11Zm-5.891 140.554c-.9.553-1.763 1-2.54 1.583-1.15.841-2.226 1.773-3.351 2.649-.438.344-1.449.284-1 1.225.383.832 1.115 1.235 1.967.6q2.853-2.116 5.662-4.357a1.105 1.105 0 0 0 .144-1c-.115-.247-.508-.406-.882-.7Zm22.1 2.789c.319.373.573.931.961 1.046.279.085.906-.324 1.086-.667q1.569-2.988 2.988-6.045c.184-.4 0-.961 0-1.444-.5.134-1.24.1-1.494.433a25.48 25.48 0 0 0-2.106 3.416c-.52.982-.884 2.036-1.431 3.261Zm35.747-34.986-.473.463c-1 .125-1 .7-.672 1.454.886 1.992 1.743 3.949 2.674 5.9a2.535 2.535 0 0 0 1 1 1.15 1.15 0 0 0 1.041.03 1.215 1.215 0 0 0 .174-1.086c-.931-2.091-1.932-4.158-2.923-6.224-.229-.501-.538-.999-.817-1.537Zm-7.922-40.468c.368.5.667 1.23.921 1.215a2.146 2.146 0 0 0 1.339-.787q1.683-2.076 3.187-4.287a5.477 5.477 0 0 0 .5-1.6c-.568 0-1.349-.2-1.668.085a31.587 31.587 0 0 0-3.067 3.351 14.734 14.734 0 0 0-1.21 2.027Zm-87.07-88.749-.284-.1c-.169.5-.319.971-.5 1.439-1 2.42-2.042 4.83-2.988 7.265-.115.294.1.717.164 1.085 1.041-.583 2.833-1 2.988-1.773a65.035 65.035 0 0 0 .623-7.915Zm128.469 134.53a4.662 4.662 0 0 0 1.255.961c.777.254 1.1-.284 1.235-1 .2-1.051.438-2.1.732-3.122.254-.9.7-1.758.881-2.669.09-.433-.219-.951-.349-1.434-.413.239-1.026.378-1.21.737a39.789 39.789 0 0 0-1.653 3.809 26.622 26.622 0 0 0-.916 2.714Zm-63.8 28.766 1.26 1.494a6.058 6.058 0 0 0 1-1.494c.473-1.992.842-4.048 1.18-6.085.065-.374-.2-.8-.314-1.2-.378.229-1 .383-1.1.707-.714 2.067-1.302 4.173-2.019 6.578Zm19.808-80.508c.423-.134.677-.209.926-.294 1.653-.563 3.316-1.1 4.955-1.7.5-.189 1.349-.5 1.379-.842.09-.9-.812-1.071-1.434-.936-2.086.448-4.158 1-6.2 1.623-.284.09-.5.911-.458 1.369.053.298.551.547.84.781Zm-75.593 53.624c.274-.174.468-.279.637-.408 1.663-1.285 3.346-2.539 4.979-3.879.309-.254.354-.826.5-1.255-.5-.08-1.145-.408-1.449-.2a80.13 80.13 0 0 0-5.308 3.844c-.229.179-.224.827-.124 1.205.086.265.494.45.773.694Zm23.647-55.416a13.112 13.112 0 0 1-1.312-1.872c-.588-1.25-1-2.584-1.593-3.834-.159-.344-.677-.5-1.036-.762a4.04 4.04 0 0 0-.5 1.315 5.976 5.976 0 0 0 .5 2.211 23.217 23.217 0 0 0 1.967 3.436c.194.279.9.279 1.349.249.205-.021.379-.429.633-.743Zm-44.204 86.055c-.159-.254-.324-.792-.662-.951a1.175 1.175 0 0 0-1.031.5q-.732 2.988-1.24 6.04c-.05.289.423.657.652 1 .354-.274.926-.5 1-.832.484-1.808.832-3.666 1.281-5.757Zm93.922-52.827c-1.384 0-4.307 2.833-4.242 4.213a1.33 1.33 0 0 0 .593.931 1 1 0 0 0 .961-.124c1.185-1.2 2.355-2.415 3.426-3.71.517-.633.083-1.3-.738-1.31ZM62.925 260.528c.3 2.066.528 4.053.946 5.975.1.5.847.817 1.564 1.459v-7.469Zm77.868 123.585h.085a16.164 16.164 0 0 0-.443-2.888c-.124-.388-.837-.588-1.28-.871a3.888 3.888 0 0 0-.5 1.215 34.011 34.011 0 0 0 .08 3.486 3.744 3.744 0 0 0 .329 1.554 1.548 1.548 0 0 0 1.066.528c.149 0 .5-.443.533-.722.091-.769.091-1.541.131-2.303Zm37.017 1.1c-.543-1.633-1-3.177-1.608-4.661-.129-.309-.832-.378-1.265-.558-.164.418-.5.851-.448 1.24a17.425 17.425 0 0 0 .662 2.988 3.949 3.949 0 0 0 .881 1.594 1.553 1.553 0 0 0 1.245.174c.23-.02.364-.518.534-.777Zm-8.7 143.084c-.523-1.335-1-2.49-1.424-3.615-.239-.622-.568-1.32-1.3-.857a1.862 1.862 0 0 0-.583 1.539c.149 1.046.662 2.037.807 3.082.11.8.3 1.623 1.1 1.494.51-.065.904-1.001 1.402-1.643ZM112.276 269.65l.956 1.414c.433-.314 1.061-.533 1.265-.956a26.966 26.966 0 0 0 1.439-3.74c.119-.373-.115-.856-.189-1.295-.5.12-1.215.085-1.384.378-.777 1.336-1.394 2.76-2.087 4.199Zm-55.272 121.5.652 1a6.279 6.279 0 0 0 1.19-1.1 27.126 27.126 0 0 0 1.728-3.142 4.855 4.855 0 0 0 .189-1.494c-.453.03-1.041-.1-1.344.124a5.336 5.336 0 0 0-2.43 4.606Zm36.753 45.173a6.343 6.343 0 0 0-.5 1.793c.284 1.628.672 3.242 1.076 4.845a2.1 2.1 0 0 0 .637 1 .876.876 0 0 0 .817.144 1.031 1.031 0 0 0 .418-.832c-.468-1.9-1-3.779-1.549-5.652-.095-.358-.418-.617-.916-1.3Zm64.648-131.836c.722-1.3 1.534-2.589 2.146-3.984.214-.5-.07-1.185-.129-1.788-.528.289-1.22.458-1.559.9a16.926 16.926 0 0 0-1.494 2.654c-.661 1.276-.527 1.58 1.037 2.217ZM64.748 446.141c1.434-.787 2.813-1.494 4.133-2.32.219-.134.294-.737.2-1.061a.956.956 0 0 0-.837-.393c-1.439.588-2.863 1.215-4.233 1.937-.209.109-.229.8-.134 1.17.059.249.482.388.871.667Zm123.844-158.58c-.5-.7-.687-1.22-1.041-1.389a31.519 31.519 0 0 0-3.391-1.334c-.3-.1-.921-.065-1 .09a3.485 3.485 0 0 0-.244 1.4c1.494.428 2.535 2.126 4.337 1.778a8.568 8.568 0 0 0 1.334-.543ZM75.06 355.834a10.012 10.012 0 0 0 1.056-1.414 32.388 32.388 0 0 0 1.374-3.336 5.134 5.134 0 0 0 0-1.563c-.5.2-1.25.274-1.429.632a30.372 30.372 0 0 0-1.663 4.213c-.09.289.322.756.662 1.468Zm-43.59 62.5c0 1.713-.04 3.4.03 5.069 0 .329.4.707.712.931a.911.911 0 0 0 .842 0 .956.956 0 0 0 .349-.757c-.065-1.329-.229-2.654-.289-3.984-.041-.819-.299-1.352-1.644-1.257Zm128.938-111.04c.832-.2 1.842-.388 2.8-.717.274-.095.4-.6.6-.926-.309-.174-.622-.5-.931-.5a22.7 22.7 0 0 0-3.341.219 4.949 4.949 0 0 0-1.409.747 15.883 15.883 0 0 0 1.325 1.066 3.992 3.992 0 0 0 .956.111Zm-59.515 129.961-.851-1.135a4.482 4.482 0 0 0-.946 1.1 5.253 5.253 0 0 0-.4 1.947 4.067 4.067 0 0 0 .5 1.359c.393-.309.956-.538 1.15-.941a11.635 11.635 0 0 0 .547-2.33Zm-12.4-168.9 1.494 2.061c.219-.368.652-.767.608-1.1-.095-.692.284-1.808-1-1.813-.275.006-.563.452-1.105.852Z" data-name="パス 981"/><path d="M114.626 53.548c.687 4.835 1.369 9.675 2.071 14.645 1.643-.6 2.948-1.494 4.252-.115s2.166 2.988.847 5.034a3.774 3.774 0 0 1 2.635 2.892c.055.224.329.428.543.578a34.886 34.886 0 0 0 11.522 5.736c2.38.612 4.805 1.026 7.19 1.618 3.122.772 5.477-.642 7.469-2.724a50.53 50.53 0 0 0 6.473-7.628 27.277 27.277 0 0 0 4.213-16.089 7.808 7.808 0 0 1 .717-3.187c2.042 2.066 1.374 4.661 1.788 7.16 1.29.174 2.729.568 3.227 2.136.259.812.528 1.992.134 2.564-1.2 1.713-.448 3.376-.364 5.084a31.093 31.093 0 0 1-.164 4.566c-.189 1.862-1.808 2.251-4.148 2.171-1.524-.055-2.271-.936-2.43-2.674a8.8 8.8 0 0 0-.219-.946c-4.078 4.86-7.469 10.193-13.26 12.917.5 1.494 1.275 2.858 1.369 4.267a14.317 14.317 0 0 1-.8 4.083l5.129 1.872c.5-2.151.926-4.247 1.459-6.314.209-.822-.025-2.251 1.325-2.076s.891 1.414.722 2.281c-.851 4.208-1.618 8.44-2.669 12.6a50.159 50.159 0 0 1-2.843 8.351c-1.544 3.421-3.456 6.677-5.233 9.989-.378.707-.9 1.335-1.3 2.027-.5.812-1.285 1.105-1.9.528a2.157 2.157 0 0 1-.06-1.922c1.265-2.669 2.664-5.273 4.013-7.9a4.018 4.018 0 0 0 .124-.568c-3.177 2.291-5.95 4.865-9.919 5.223-3.819.344-7.469.08-10.92-2.146a5.907 5.907 0 0 0-.2 1.086 36.175 36.175 0 0 1-4.482 17.179 16.844 16.844 0 0 1-2.873 3.73c-.358.368-1.255.219-1.9.309-.025-.617-.279-1.339-.04-1.827 1.22-2.549 2.873-4.93 3.8-7.569a31.267 31.267 0 0 0 1.748-11.293c-.1-3.486 0-7.011-.184-10.512a106.777 106.777 0 0 0-.961-11.149c-.543-3.486-1.608-6.916-2.4-10.377-.672-2.933-1.265-5.881-1.927-8.814-.812-3.6-1.907-7.16-2.435-10.8a220.018 220.018 0 0 1-1.808-17.055 92.442 92.442 0 0 1 .3-9.959 2.111 2.111 0 0 1 .289-1.031 3.725 3.725 0 0 1 .817-.692c.174.289.5.568.5.861.144 3.227.2 6.473.359 9.68.07 1.424.324 2.843.5 4.262Zm31.3 44.287c-1.24 1.588-2.131 2.883-3.2 4.018a2.015 2.015 0 0 1-1.7.254c-.224-.06-.354-1-.259-1.494a4.511 4.511 0 0 1 .807-1.494c1.165-1.708 2.261-3.486 3.56-5.069 1.857-2.281-.523-7.21-3.341-7.205-1 0-2.027-.4-3.052-.5a1.105 1.105 0 0 0-.921.4c-.373.827-.617 1.708-.936 2.649a18.1 18.1 0 0 1 2.943-1c.5-.08 1.056.378 1.583.593-.249.528-.359 1.31-.772 1.549a25.181 25.181 0 0 1-12.13 3.232 41.83 41.83 0 0 1-5.452-.578c1.887 7.614 2.181 15.362 2.38 22.94 1 .115 1.673.229 2.33.249a71.5 71.5 0 0 0 7.519.144c3.486-.259 6.14-2.385 8.659-4.611 1.539-1.364 2.306-1.359 3.486.115a3.982 3.982 0 0 0 1.6-3.416c-.309-1.225-.583-2.46-.941-3.67-.658-2.301-1.383-4.581-2.162-7.106ZM125.157 79.76c-.035.418-.065.682-.08.946-.134 2.8-.408 3.1-3.072 3.854a1.389 1.389 0 0 0-.662 1.155 37.049 37.049 0 0 0 .931 4.218 1.25 1.25 0 0 0 .812.672 21.312 21.312 0 0 0 10.92-.244c-.2-1.907 1.3-3.232 1.613-4.661Zm-4.481 2.544c1.832.144 1.862.11 1.768-1.524v-.533c-.085-1.066-.129-2.131-.279-3.187a1.9 1.9 0 0 0-2.425-1.31c-1.155.264-.568 1-.408 1.6.443 1.638.9 3.271 1.354 4.95Zm42.48-12.319c-.129 1.494-.219 2.9-.388 4.317-.134 1.081.543 1.349 1.339 1.374s.906-.637.9-1.31c0-.936.025-1.872.055-2.8.07-1.673.07-1.673-1.892-1.578Zm-12.523 33.919.264.04c.319-1.086.662-2.161.941-3.257a.737.737 0 0 0-.249-.652c-.812-.473-1.658-.891-2.584-1.369.6 1.882 1.12 3.56 1.638 5.238Zm13.853-37.246c1.165-1.559 1.031-2.281-.538-2.928.184 1 .344 1.822.548 2.928Z" data-name="パス 982"/><path d="M172.219 56.54c.144 9.775.324 19.554.4 29.329 0 2.729-.269 5.477-.428 8.186a78.273 78.273 0 0 1-.5 8 67.275 67.275 0 0 1-4.073 15.222 16.018 16.018 0 0 1-4.979 6.279c-1.066.827-2.136 1.648-3.247 2.42a5.331 5.331 0 0 1-1.469.677c-.847.274-1.788.448-2.256-.543s.388-1.574 1.11-1.992a20.942 20.942 0 0 0 8.56-10.128 42.559 42.559 0 0 0 3.1-13.086c.393-4.482.807-8.963.861-13.445.095-8.321-.085-16.646-.115-24.967 0-2.779.254-5.572.075-8.336-.244-3.9-.632-7.8-1.24-11.657a65.249 65.249 0 0 0-2.445-11.264 44.251 44.251 0 0 0-4.835-9.3c-2.121-3.276-4.641-6.3-7.061-9.371a16.231 16.231 0 0 0-2.784-2.7 71.168 71.168 0 0 0-5.049-3.565 26.282 26.282 0 0 0-8.674-3.162 30.791 30.791 0 0 0-14.291.5 26.525 26.525 0 0 0-5.313 2.266c-.682.339-1.379.662-1.723-.09a1.9 1.9 0 0 1 .563-1.673c2.291-1.882 5.124-2.554 7.912-3.242a32.655 32.655 0 0 1 17.07.5 27.332 27.332 0 0 1 9.725 5.662 69.992 69.992 0 0 1 6.473 5.891 70.7 70.7 0 0 1 4.213 5.7 45.245 45.245 0 0 1 8.595 21c.856 5.592 1.494 11.224 2.2 16.84Z" data-name="パス 983"/><path d="M98.712 97.943c0-4.287.159-8.465-.035-12.653-.254-5.438-.617-10.88-1.265-16.278-.413-3.486-1.529-6.827-2.161-10.263-1.135-6.214-2.236-12.449-1.449-18.812.129-1.066-.045-2.166.08-3.232a40.4 40.4 0 0 1 .752-4.073 48.763 48.763 0 0 1 6.344-15.84 38.313 38.313 0 0 1 3.177-4.845 31.584 31.584 0 0 1 4.706-4.023 4.261 4.261 0 0 1 2.047-.5 1 1 0 0 1 .727.617 1.031 1.031 0 0 1-.383.9c-4.068 1.992-5.926 5.8-8.161 9.4a54.851 54.851 0 0 0-4.693 10.713 30.683 30.683 0 0 0-1.524 8.037 62.21 62.21 0 0 0 .294 14.938c.5 2.828 1.19 5.612 1.688 8.435.717 4.083 1.4 8.171 1.962 12.274.413 3.027.747 6.08.866 9.127.125 3.281-.05 6.568-.085 9.849 0 1.8 0 3.605-.055 5.408-.04.876-.368 1.743-.428 2.624a73.826 73.826 0 0 1-2.6 14.709c-1.125 4.113-1.992 8.291-3.062 12.419a1.832 1.832 0 0 1-1.315 1.041c-.378.035-1.175-.617-1.185-1a20.725 20.725 0 0 1 .294-4.651c.876-4.188 1.932-8.336 2.863-12.508.712-3.157 1.344-6.334 2.057-9.71-1.668.5-3.272.812-4.775 1.4-2.465 1-5.084 1.783-7.225 3.262-2.221 1.534-3.984 3.735-5.876 5.741-1.1 1.17-1.992 2.554-3.013 3.779a1.569 1.569 0 0 1-1.21.5c-.349-.065-.916-.652-.861-.9a9.9 9.9 0 0 1 1.046-3.356c1.842-2.873 4.506-4.979 7.2-7a34.837 34.837 0 0 1 12.374-5.582 22.416 22.416 0 0 1 2.884.053Z" data-name="パス 984"/><path d="M114.661 53.588c.792-3.023 1.593-6.045 2.37-9.068.8-3.127 1.648-6.244 2.34-9.4a36.7 36.7 0 0 0 .543-4.681c.09-1 .194-1.862 1.564-1.494.189-1.578-1-3.157.5-4.74.378.4.886.712 1.061 1.155.727 1.867 1.086 3.934 2.091 5.622a65.018 65.018 0 0 0 4.979 6.687c.543.7 3.52.349 3.75-.473.134-.5-.249-1.15-.473-1.7-1.076-2.644-2.211-5.263-3.222-7.927-.164-.423.179-1.041.289-1.569.637.174 1.554.139 1.872.558 3.984 5.243 8.575 9.7 15.078 11.707q4.75 1.494 9.461 2.988a2.389 2.389 0 0 0 .528.09c2.1.2 2.39-.11 1.643-2.091-.712-1.887-1.6-3.71-2.38-5.572-.234-.563-.916-1.26 0-1.738s1.379.279 1.8.946a28.383 28.383 0 0 1 3.759 9.292c.354 1.623.8 3.232 1.125 4.865.149.732.289 1.753-.7 1.852-.408.035-1.12-.886-1.339-1.494-.523-1.494-.837-3.018-1.24-4.571-2.7 1.061-5.3.234-7.768-.3a37.191 37.191 0 0 1-12.737-4.915c-1.409-.916-2.569-2.216-4.1-3.142l5.577 7.28c-.657 1.165-1.409.956-2.181.393a7.539 7.539 0 0 1-1.334-1.105c-1.618-1.857-1.6-1.872-4.412-1 1.071.563 1.857 1 2.654 1.389.881.443 2.191.876 1.733 1.992-.5 1.255-1.723.5-2.589.12-1.494-.672-2.953-1.494-4.452-2.166a1.419 1.419 0 0 0-1.031 0 13.022 13.022 0 0 0-5.044 4.153c-.433.563-.971 1.061-1.494.413a1.658 1.658 0 0 1 0-1.618c1.559-1.708 3.247-3.3 4.775-4.815l-5.781-9.461a9.789 9.789 0 0 1 0 1.424 99.221 99.221 0 0 1-1.394 9.959c-.861 3.695-2.221 7.275-3.376 10.9-.5 1.613-1 1.832-2.425 1.1Z" data-name="パス 985"/><path fill="#fff" d="M17.981 411.159a30.446 30.446 0 0 1 2.49-1.793 1.24 1.24 0 0 1 1.18.085 1.7 1.7 0 0 1 .339 1.345c-.139.533-.707.946-.881 1.494a11.9 11.9 0 0 0-.752 3.271c0 .931.941 1.18 1.643.5a6.7 6.7 0 0 0 1.842-4.387c.144-1.449.847-2.256 1.867-2.106s1.648 1.429 1.444 2.689c-.08.5-.11 1.036-.179 1.733 1.618-.1 2.873-.5 3.685-1.8.349-.573.652-1.175 1.031-1.733a1.492 1.492 0 0 1 2.49-.354c.324.279.677.5 1.374 1.041-.174-1-.229-1.594-.383-2.166a2.589 2.589 0 0 1 .692-2.958 2.178 2.178 0 0 0 .264-2.848c-1.588-2.888-1.27-5.711-.154-8.609a13.345 13.345 0 0 0 .393-1.828c-2.689.433-5.223.378-7.056 2.535a1.06 1.06 0 0 1-1.031.179c-.254-.179-.5-.827-.359-1.026a5.984 5.984 0 0 1 1.708-1.947 12.613 12.613 0 0 1 7.245-1.584 2.225 2.225 0 0 1 1.454 1.464 5.034 5.034 0 0 1-.2 2.764 8.086 8.086 0 0 0 .5 7.15 4.657 4.657 0 0 1-.448 5.741c-.229.264-.075.921 0 1.379.5 2.654-.737 4.725-2.744 4.481-1.817-.2-2.709.443-3.884 1.554a5.79 5.79 0 0 1-5.627 1.628 27.515 27.515 0 0 1-2.694 2.176c-2.34 1.444-5.1.214-6.174-2.7-.622-1.708-.11-3.326.5-4.93Z" data-name="パス 986"/><path d="M63.891 168.797c.5-5.975.851-11.981 1.494-17.951.563-5.258 1.409-10.487 2.176-15.725.319-2.171.642-4.347 1.17-6.473a45.65 45.65 0 0 1 1.743-4.979c.822-2.186 1.623-4.382 2.564-6.518.169-.393.971-.5 1.494-.752.08.5.373 1.1.214 1.494a63.632 63.632 0 0 0-3.386 13.141c-.727 4.616-1.618 9.207-2.335 13.823-.5 3.062-.871 6.14-1.15 9.227-.383 4.292-.637 8.6-.916 12.9-.05.792.06 1.593.055 2.39 0 .951-.2 1.887-1.344 1.992-1.32.13-1.414-1-1.623-1.892a2.559 2.559 0 0 1 .025-.672Z" data-name="パス 987"/><path d="M118.252 430.207c-.563 1.031-1.056 2.106-1.7 3.082-.9 1.364-.911 1.877.189 3.072.423.463.842.931 1.27 1.384 1.051 1.105 1.235 2.231.025 3.142-1.822 1.369-1.439 3.047-1.215 4.79.075.583.229 1.155.259 1.733.174 3.182-.239 3.655-3.376 4.028-.4.05-.792.2-1.19.254-.309.04-.866.075-.9 0-.334-1.061-1.653-1.494-1.389-3.037.921-5.4 1.608-10.845 2.335-16.278.259-1.917.657-2.34 3.062-2.634a19.962 19.962 0 0 1 2.251 0Z" data-name="パス 988"/><path d="M132.109 268.366c.5 3.132 1.255 6.369-.174 9.371a93.268 93.268 0 0 1-4.94 8.2c-4.875-4.775-3.585-15.436 1.962-19.559 1.912 2.042-.339 4.646.946 7.036 2.425-1.065 1.45-3.405 2.206-5.048Z" data-name="パス 989"/><path d="M89.207 191.027c.279-2.176.622-4.2 2.276-5.781a21.193 21.193 0 0 0 2.4-2.918 2.649 2.649 0 0 0 .179-2.664 43.08 43.08 0 0 1-1.524-5.532 3.321 3.321 0 0 1 .314-1.952c.189-.418.757-.667 1.155-1 .279.408.717.787.812 1.235.423 2.052.722 4.133 1.13 6.189a7.435 7.435 0 0 0 .657 1.439c.817 1.842-.468 3.142-1.24 4.546a15.346 15.346 0 0 1-1.573 2.161 9.523 9.523 0 0 0-1.623 4.447c-.159.837-.269 1.723-1.439 1.7-1.29-.01-1.265-1.085-1.524-1.87Z" data-name="パス 990"/><path d="M188.87 420.826c-2.146-1.992-2.654-3.984-1.862-6.279.154-.468.314-.936.448-1.409a1.787 1.787 0 0 0-1.459-2.515 1.634 1.634 0 0 1-1.549-1.942 10.128 10.128 0 0 1 2.49-6.668 5.683 5.683 0 0 1 1.683-.846 10.582 10.582 0 0 1 .224 1.494c.1 4.4.194 8.789.239 13.186.02 1.523-.128 3.067-.214 4.979Z" data-name="パス 991"/><path d="M85.482 127.726a35.44 35.44 0 0 1 5.921 12.613c.637 2.988 1.325 5.921 1.992 8.888a3.032 3.032 0 0 1 .129 1.32 6.155 6.155 0 0 1-.727 1.369c-.4-.339-1.051-.613-1.165-1.036-.752-2.788-1.494-5.592-2.047-8.42-.817-3.984-1.788-7.907-3.909-11.453a5.448 5.448 0 0 1-.737-1.992c-.065-.403.343-.861.543-1.289Z" data-name="パス 992"/><path d="M65.241 174.195c-1.175 1.235-2.415 2.445-3.545 3.75-1.265 1.464-1.7 2.958-.528 4.855s.687 4.078.189 6.13a1.21 1.21 0 0 1-1 .692c-.453-.085-1.105-.468-1.2-.842-.309-1.24-.408-2.539-.593-3.814a2.638 2.638 0 0 0-.169-.926c-1.962-3.321-.324-5.836 1.862-8.176a16.084 16.084 0 0 1 2.759-2.335c.865-.574 1.797-.679 2.225.666Z" data-name="パス 993"/><path d="M147.525 69.581c2.32.045 2.828.762 2.241 2.305a15.509 15.509 0 0 1-.777 1.549c-2.281 4.282-4.93 2.49-7.5.11a1.1 1.1 0 0 1 .219-1.852c2.083-.882 4.259-1.559 5.817-2.112Z" data-name="パス 994"/><path d="M154.213 60.887a7.23 7.23 0 0 1-2.8 4.143 4.979 4.979 0 0 1-1.419.742 5.915 5.915 0 0 1-1.593-.035c.045-.5-.11-1.205.169-1.529 1.165-1.359 2.43-2.639 3.72-3.884a1.494 1.494 0 0 1 1.205-.254c.3.08.5.548.718.817Z" data-name="パス 995"/><path d="M132.264 50.172a2.1 2.1 0 0 1 1.917 2.211 2.213 2.213 0 0 1-1.748 2.1 2.188 2.188 0 0 1-.169-4.307Z" data-name="パス 996"/><path d="M154.397 48.748c-.324 1.24-1.414 2.435-2.261 2.306a1.394 1.394 0 0 1-1.26-1.613c.065-1.534.9-2.744 1.882-2.4.663.228 1.101 1.118 1.639 1.707Z" data-name="パス 997"/><path fill="#fff" d="M103.986 331.56a7.966 7.966 0 0 1 .139 1.7c-1.021 5.189-1.992 10.387-3.132 15.546-1.125 4.979-2.554 9.894-3.69 14.869-.842 3.675-1.444 7.4-2.121 11.1s-1.245 7.27-1.942 10.9c-.563 2.953-1.21 5.9-1.882 8.829a14.444 14.444 0 0 1-1 2.923c-.214.448-.772.732-1.17 1.1l-.523-.229a21.731 21.731 0 0 1 .642-3.984 1.934 1.934 0 0 0-.886-2.594 3.045 3.045 0 0 0-2.808.324 19.836 19.836 0 0 0-3.137 4.481c-.617 1.125-.144 2.216.812 3.147a2.274 2.274 0 0 1 .737 1.758 2.39 2.39 0 0 1-1.539 1.185c-2.54.632-3.426 1.544-3.391 3.774a3.788 3.788 0 0 0 2.455 3.057 5.687 5.687 0 0 1 2.2 1.31c.8.8 2.694.757 3.072-.324.438-1.26.667-2.594 1-3.894.09-.349.08-.777.289-1.026a3.486 3.486 0 0 1 1-.6c.174.344.543.712.5 1-.4 2.614-.772 5.233-1.359 7.808-1.125 4.94-2.579 9.814-3.535 14.784-1 5.059-1.494 10.208-2.246 15.312-.538 3.635-1.155 7.26-1.738 10.89-.159 1-.284 2.042-.5 3.052-.139.7-.383 1.613-1.27 1.349a1.992 1.992 0 0 1-1-1.579 42.609 42.609 0 0 1 .4-4.407 3.052 3.052 0 0 0-.2-1.573 4.452 4.452 0 0 1-.677 1.21 3.708 3.708 0 0 1-1.8 1.165c-.339.035-.787-.966-1.3-1.648-1.932 1.464-4.482.827-6.882 1.225a14.538 14.538 0 0 0-7.589 4.138 10.458 10.458 0 0 0-1.713 2.49c-.5.926-1.046 1-2.3 0-.393.906-.732 1.813-1.175 2.674a3.944 3.944 0 0 1-4.307 2.256 2.1 2.1 0 0 1-1.658-2.325c.259-1.046.871-1.494 1.992-1.086.792.284 1.713-.637 1.529-1.648-.259-1.464.413-2.126 1.623-2.709 1.623-.777 2.251-2.41 2.783-3.984.3-.9-.234-1.563-1.235-1.369a7.713 7.713 0 0 0-2.49.891c-1.051.622-2.335.767-2.808 0-.573-.951.025-1.678.558-2.529a34.206 34.206 0 0 0 2.161-4.541c.339-.792-.184-1.15-.861-1.1-1.544.1-3.157.1-4.108 1.718a1.189 1.189 0 0 1-1.837.438 2.1 2.1 0 0 1-.4-1.9 8.938 8.938 0 0 0 .264-5.179c-.219-1.21-.861-1.529-1.907-.837a3.493 3.493 0 0 0-1.952 3.027c0 .393-.169 1.041-.413 1.125-.359.119-.856-.159-1.449-.309-.752 1.962-1.539 4.1-2.385 6.209-1.15 2.868-2.305 5.736-3.565 8.56a1.9 1.9 0 0 1-1.449.852c-.757 0-1-.612-.722-1.374.931-2.375 1.892-4.745 2.764-7.141 1.046-2.878 2.111-5.746 2.988-8.674 1-3.351 1.783-6.767 2.694-10.148.5-1.812 1.036-3.61 1.588-5.4.229-.742.563-1.638 1.494-1.389 1.081.279.8 1.295.617 2.062-.737 3.132-1.534 6.254-2.286 9.381-.194.817-.314 1.648-.5 2.579a15.219 15.219 0 0 1 2.543-1.428c2.271-.737 3.784.264 4.257 2.729.169.866.214 1.763.329 2.773 1.071-.129 2.032-.279 2.988-.354 3.74-.279 4.9 1.374 3.984 5.223-.115.5-.259.936-.3 1.091 1.364.762 2.848 1.185 3.68 2.166s.921 2.49 1.379 3.859c.309-.2.891-.548 1.439-.941a13.972 13.972 0 0 1 7.768-2.729 5.209 5.209 0 0 0 4.158-2.081 19.717 19.717 0 0 1 4.686-4.78c1.623-1 1.459-2.121 1.658-3.51.553-3.809 1.086-7.643 1.952-11.393 1-4.377 2.36-8.674 3.555-13.006a7.966 7.966 0 0 0 .144-1.11 7.745 7.745 0 0 1-1.952-.135 11.775 11.775 0 0 1-2.276-1.215c-.239-.154-.294-.687-.5-.757a10.191 10.191 0 0 1-4.238-2.923c-.169-.169-.677-.075-1 0-1.957.5-3.884 1.145-5.856 1.593a6.538 6.538 0 0 1-2.057-.189c-.055-.229-.11-.458-.169-.687a8.965 8.965 0 0 1 1.857-1.071c1.678-.5 3.4-.871 5.109-1.27.687-.159 1.105-.418 1.081-1.245a6.881 6.881 0 0 1 3.924-6.677c-.593-4.442 1.554-9.112 5.049-10.895a6.248 6.248 0 0 1 5.507.119c.558-3.062 1.135-6.05 1.643-9.048s.837-5.881 1.379-8.794q1.21-6.473 2.624-12.946c.742-3.371 1.653-6.7 2.44-10.064.767-3.276 1.409-6.588 2.221-9.854a43.852 43.852 0 0 1 1.812-5.479c.234-.54.941-.933 1.718-1.67Z" data-name="パス 998"/><path fill="#fff" d="M155.518 427.937c1.992-2.883 4.8-3.137 7.738-3.107a3.765 3.765 0 0 1 3.68 4.482 24.008 24.008 0 0 1-1.325 4.372 1.026 1.026 0 0 0 .453 1.444 3.456 3.456 0 0 1 1.673 3.152 35.044 35.044 0 0 1-.5 4.4c-.194 1 .1 1.549 1.061 1.808 2.53.692 4.168 3.431 1.927 6.08-1.265 1.494-2.186 3.247-3.984 4.282s-3.59 1.4-5.438.184c-1.205-.792-2.42-1.564-3.555-2.445a2.489 2.489 0 0 1-1-1.494 2.768 2.768 0 0 1 .652-1.992c.254-.249 1.28.045 1.8.363 1.175.727 2.226 1.663 3.381 2.435 1.27.847 2.345.642 3.64-.568a4.478 4.478 0 0 0 .538-.607c.677-.891 1.344-1.788 2.131-2.843a7.308 7.308 0 0 0-1.165-.5 4.256 4.256 0 0 1-2.988-5.662 13.942 13.942 0 0 0 .438-2.33c.2-1.32-.224-1.992-1.708-2.076-1.344-.08-1.748-1.27-1.056-2.53s1.4-2.6 2.066-3.914a3.837 3.837 0 0 0 .393-1.255c.244-2.057-.179-2.564-2.216-2.52a7.689 7.689 0 0 0-5.383 2.37c-2.355 2.211-1.534 4.735-1.708 7.051-.543 7.245-.672 14.52-1 21.78a16.921 16.921 0 0 1-.3 2.8c-.08.388-.528.7-.807 1.046-.294-.3-.812-.573-.846-.9a37.573 37.573 0 0 1-.259-4.551c0-1.076.189-1.957-1.424-1.947-1.13 0-1.723-.931-1.653-2.067.085-1.494.329-2.928.4-4.4a1.852 1.852 0 0 0-.543-1.265 2.9 2.9 0 0 1-1.021-3.037 23.85 23.85 0 0 1 1.882-4.805c.4-.7 1.494-1 2.286-1.494l.558.339c.329-6.339.652-12.678 1-18.962-1.658-.7-2.634.035-3.61 1.09-1.7 1.827-3.71 2.211-5.477 1.185a3.02 3.02 0 0 1-1.678-3.486c.04-.259.04-.523.07-.951-1.14-.169-2.236-.344-3.336-.5-3.984-.558-4.432-3.067-3.013-6.025a65.125 65.125 0 0 1 4.581-7.056 6.929 6.929 0 0 0 .458-1 4.773 4.773 0 0 1-2.739-4.88c.065-2.032-.129-4.1 1-5.921 1.031-1.668 2.2-3.326 4.457-3.177a7.433 7.433 0 0 1 2.345 1c.264.129.443.5.707.558 3.222.921 4.272 2.266 4.606 5.537a16.517 16.517 0 0 0 1.051 2.674 18.591 18.591 0 0 1 .956 4.252c.025.5-1 1.449-1.628 1.534-.9.119-1.494-.767-1.464-1.713a6.364 6.364 0 0 0-1-3.814 5.986 5.986 0 0 1-.448-2.32 13.366 13.366 0 0 0-.378-2.52 1.842 1.842 0 0 0-2.091-1.335c-.827.11-1.454 0-1.593-1.125-.115-.911-1.613-1.125-2.281-.214a7.81 7.81 0 0 0-1.643 3.416 13.528 13.528 0 0 0 .418 4.482c.269 1.265 1.205 1.185 2.236.737a2.711 2.711 0 0 1 1.837-.289c1.031.418 1.061 1.628.144 2.594a43.44 43.44 0 0 0-6.259 9.2c-.782 1.414-.5 1.872 1.091 2.042 1.429.144 2.863.259 4.292.393a1.788 1.788 0 0 1 1.554 2.619c-.09.209-.284.408-.279.612a13.61 13.61 0 0 0 .184 1.469c.418-.164 1-.209 1.235-.5a5.716 5.716 0 0 1 4.013-1.947 1.633 1.633 0 0 0 1.628-1.643c.234-2.1.453-4.193.6-6.294.264-3.75.438-7.5.707-11.248q.359-4.979.851-9.959c.453-4.482 1.041-8.928 1.464-13.4s.682-8.963 1.056-13.445a34.327 34.327 0 0 1 .6-4.511c.1-.453.8-.777 1.215-1.16a4.242 4.242 0 0 1 .5 1.524c-.115 2.057-.368 4.1-.523 6.15-.433 5.711-.837 11.423-1.265 17.134q-.612 8.211-1.245 16.432c-.284 3.68-.6 7.355-.827 11.034-.129 2.1-.09 4.208-.179 6.309-.215 5.021-.469 10.051-.718 15.339Zm-3.675 20.045c.11-2.251.244-4.7.324-7.14a1 1 0 0 0-.5-.782.9.9 0 0 0-.822.354c-.423 1.265-.772 2.549-1.1 3.839a1.125 1.125 0 0 0 .2.752c.647 1.041 1.3 2.062 1.887 2.978Z" data-name="パス 999"/><path fill="#fff" d="m68.701 356.671 1.22-.174c.5-2.639 1-5.1 1.454-7.574.214-1.185.254-2.405.523-3.575a5.33 5.33 0 0 1 .921-1.424 4.867 4.867 0 0 1 .712 1.369c.453 3.087-.772 5.925-1.464 8.838a23.687 23.687 0 0 1-.782 2.286 22 22 0 0 1 2.49.722 3.279 3.279 0 0 1 2.061 4.153 2.5 2.5 0 0 0 .707 2.788c.418-1.494.8-2.938 1.2-4.357.792-2.759 2.639-4.651 4.885-6.349a43.567 43.567 0 0 0 4.387-4.3c.861-.871.354-1.847.2-2.808-.129-.8-.637-1.877.558-2.181 1.1-.274 1.613.712 2.042 1.569a1.4 1.4 0 0 1 .115.523c.324 4.267 1.155 8.58.827 12.8a16.657 16.657 0 0 1-6.971 12.832 3.493 3.493 0 0 1-4.078.224 19.543 19.543 0 0 0-2.325.334c-.817.224-1.7.383-1.822 1.539-.274 2.649-1.813 4.422-3.984 5.851-1.544 1-4.74.886-5.921-.817-.5-.717-.852-.563-1.539-.219a9.193 9.193 0 0 1-3.376 1.135 4.193 4.193 0 0 1-4.6-3.51c-.189-.8-.433-1.125-1.315-1.105-2.36.055-3.331-.812-3.764-3.147a8.34 8.34 0 0 1 4.481-9.511c.5-.264.941-.538 1.434-.762a2.559 2.559 0 0 0 1.678-2.624c.134-3.242 4.482-6.209 7.559-5.214 1.046.334 1.793 1.589 2.679 2.425ZM54.609 371.5c.6 0 1.175.03 1.748 0 2.057-.124 2.709.553 2.938 2.654a3.128 3.128 0 0 0 1.076 2.106 1.9 1.9 0 0 0 2.49-.687 10.536 10.536 0 0 0 .871-1.992c.3-.737.5-1.643 1.554-1.554a1.717 1.717 0 0 1 1.638 1.808 3.906 3.906 0 0 0 .065.941c.573 1.653 1.27 2.674 2.375 2.445a3.929 3.929 0 0 0 2.948-5.353 1.778 1.778 0 0 1 .164-1.549c.254-.284 1-.164 1.494-.209.423-.035 1 .115 1.23-.1a1.335 1.335 0 0 0 .224-1.2 34.089 34.089 0 0 0-2.042-4.636c-.593-1.031-1.041-1.828-.154-2.9.5-.618.712-1.364-.214-1.942a4.352 4.352 0 0 0-4.86.5 1.748 1.748 0 0 1-1.4.4c-.319-.1-.543-.777-.617-1.225-.065-.364.219-.772.229-1.165 0-.7.194-1.594-.792-1.758a3.486 3.486 0 0 0-3.042.692c-1.583 1.354-2.435 2.863-1.743 4.979a2.624 2.624 0 0 1 .164 1.2c-.06.334-.438.9-.573.876-1.618-.334-2.515.9-3.516 1.678a5.8 5.8 0 0 0-2.251 6Zm33.89-20.052c-1.578 1.324-2.943 2.634-4.481 3.71a11.643 11.643 0 0 0-4.626 6.07c-.737 2.281-.383 4.526-.4 7.165.617-.677.886-1.15 1.29-1.374a7.391 7.391 0 0 1 1.648-.463 5.443 5.443 0 0 1-.224 1.653 20.754 20.754 0 0 1-1.723 2.325 4.881 4.881 0 0 0 4.138-1.823 20.645 20.645 0 0 0 4.392-8.609c.818-2.783.25-5.738-.014-8.654Z" data-name="パス 1000"/><path fill="#fff" d="M145.678 336.31c-1.673.174-3.187.254-4.676.5a4.719 4.719 0 0 1-4.83-1.912c-2.086-2.6-2.594-5.049-.637-7.653a19.433 19.433 0 0 1 1.992-2.684c.4-.373 1.29-.224 1.957-.314a6.309 6.309 0 0 1-.045 1.992 20.957 20.957 0 0 1-1.3 2.32c-1.19 2.355-.851 3.486.921 4.979.568.468 1.688.349 2.554.339s1.7-.363 2.535-.314a6.1 6.1 0 0 0 4.347-1.374 6.694 6.694 0 0 1 5.273-1.6 14.683 14.683 0 0 0 2.022 0 20.312 20.312 0 0 0-.423-3.794 12.345 12.345 0 0 1 .528-8.022c.642-1.827.1-2.684-1.783-2.594a10.358 10.358 0 0 0-3.127.667c-2.515.956-3.57.3-3.635-2.345a7.075 7.075 0 0 0-.383-2.236 2.171 2.171 0 0 0-3.182-1.165 5.519 5.519 0 0 0-2.893 5.781c0 .219.2.468.144.647-.189.548-.453 1.066-.692 1.593-.334-.418-.842-.792-1-1.27a7.359 7.359 0 0 1 2.8-8.36 4.561 4.561 0 0 1 7.046 2.291c.264.762.443 1.554.687 2.41a18.885 18.885 0 0 1 3.545-.543 12.72 12.72 0 0 1 3.715.762c1.439.5 1.494 1.872 1.494 3.132a7.527 7.527 0 0 1-.309 2.131 13.674 13.674 0 0 0-.055 7.683 8.185 8.185 0 0 1 .244 1.877c.09 2.6-.817 4.008-3.55 3.884-2.146-.095-4.342.08-5.906 1.947a3.166 3.166 0 0 0-.194.269c1.638 2.883 3.336 5.592 4.73 8.465a8.092 8.092 0 0 1 .588 3.954 32.368 32.368 0 0 1-1.046 6.757 18.409 18.409 0 0 1-4.93 7.439 2.544 2.544 0 0 1-2.071.652c-.732-.194-.891-1.1-1.071-1.957a42.458 42.458 0 0 0-1.847-6.16c-1.459-3.884-.961-7.7.2-11.5.66-2.148 1.437-4.254 2.263-6.674Zm1.673 1.793c-3.4 5.7-3.247 13.305.254 20.63 2.206-2.634 2.843-3.486 3.326-5.9a27.334 27.334 0 0 0 .642-6.563c-.06-1.265-1.041-2.49-1.608-3.725a12.2 12.2 0 0 0-.334 2.43c-.045.344-.423.876-.682.891a1.19 1.19 0 0 1-.931-.662 10.092 10.092 0 0 1-.354-2.261c-.123-1.524-.203-3.058-.313-4.841Z" data-name="パス 1001"/><path fill="#fff" d="M167.508 280.645c-1.449.189-2.634.274-3.774.528a2.525 2.525 0 0 0-1.389.881 8.622 8.622 0 0 1-5.821 3.052 3.436 3.436 0 0 1-3.242-1.494 13.5 13.5 0 0 1-2.564-9.227 2.759 2.759 0 0 0-.687-1.723c-2.037-2.355-2.156-6.8.886-8.824a11.7 11.7 0 0 1 8.062-1.857 1.8 1.8 0 0 1 1.235 1.155 2.917 2.917 0 0 1-.523 1.957 1.464 1.464 0 0 1-1.434.164c-1.7-1.748-3.242-.383-4.745.214a2.828 2.828 0 0 0-2.121 3.067 2.888 2.888 0 0 0 1.668 2.535c1.578.792 1.583 1 .891 2.709-.732 1.822-.08 3.605.418 5.363a6.684 6.684 0 0 0 .732 1.593 2 2 0 0 0 2.609 1.081c1.424-.553 2.788-1.125 3.55-2.679s1.235-1.633 2.913-.9a1.149 1.149 0 0 0 .617.09 3.952 3.952 0 0 0 2.684-5.378 9.041 9.041 0 0 1-.827-1.658 2.988 2.988 0 0 1 1.14-3.232 13.6 13.6 0 0 0 1.105-1.105 2.2 2.2 0 0 0-3.58-.144c-.349.573-.423 1.568-1.459 1.036-.782-.408-.881-1.882-.294-2.659.946-1.235 2.31-1.459 3.725-1.608a4.3 4.3 0 0 1 3.784 1.763 37.915 37.915 0 0 1 3.675-4.521 64.071 64.071 0 0 1 6.319-4.815 1.688 1.688 0 0 1 1.544.214c.254.194.169.921.124 1.4-.134 1.4-.388 2.8-.5 4.218-.214 3.077 0 6.234-.632 9.217-.9 4.2-3.869 7.121-7.5 9.257a15.541 15.541 0 0 1-3.745 1.28 2.381 2.381 0 0 1-2.844-.95Zm2.49-2.091.2.368a12.674 12.674 0 0 0 1.992-.717c4.442-2.49 7.469-5.906 7.559-11.283.04-2.4 0-4.79 0-7.225-2.076 1.071-4.168 3.122-6.414 6.3-1 1.384-2.221 2.649-1.8 4.626.124.593-.866 1.076-1.364.707a3.485 3.485 0 0 1-.558-.712l-.12.11c.413 1.11.822 2.221 1.295 3.486.956-1.19 1.817-2.33 2.779-3.381.289-.319.861-.373 1.3-.548a4.307 4.307 0 0 1 .1 1.494 4.482 4.482 0 0 1-.866 1.354c-1.339 1.793-2.724 3.605-4.1 5.418Z" data-name="パス 1002"/><path fill="#fff" d="M69.867 294.119a4.119 4.119 0 0 0-1.205.433 27.436 27.436 0 0 0-3.59 3.047 10.381 10.381 0 0 0-1.12 2.6 6.324 6.324 0 0 1-.8 1.076c-.334-.279-.842-.5-.966-.856a3.486 3.486 0 0 1 .608-3.406 15.332 15.332 0 0 1 5.856-4.979 2.3 2.3 0 0 1 3.033.612 7.959 7.959 0 0 1 .792 3.276c.06.5-.309 1-.5 1.583 1.389-.09 2.694-.269 3.984-.239 2.734.065 4.452 1.105 3.984 3.7a10.645 10.645 0 0 1-1.434 2.863c-.189.349-.463.652-.334.856.807 1.589 1.947 3.1 2.34 4.79.667 2.893-1.454 5.218-4.481 5.278-1.6.03-2.251 1.275-3.1 2.256-1.434 1.648-3.047 2.848-5.358 2.066a4.7 4.7 0 0 1-1.952-1.285c-.538-.612-.881-.936-1.618-.319a3.943 3.943 0 0 1-1.33.652c-3.162 1-5.388-.886-5.084-4.312.05-.578.294-1.14.3-1.713a9.765 9.765 0 0 0-.214-2.674c-.5-1.808-.065-2.415 1.788-2.216.4.04.812 0 1.205.035a1.937 1.937 0 0 1 1.554 2.779 29.373 29.373 0 0 0-1.09 3.421 1.15 1.15 0 0 0 .289 1.036c.244.149.747-.025 1.086-.174a12.165 12.165 0 0 0 1.145-.717c2.226-1.24 2.843-1.076 4.242 1.1.792 1.24 1.569 1.3 2.52.194.383-.448.737-.911 1.205-1.494-.329-.433-.682-.871-1-1.325a1.728 1.728 0 0 1 .2-2.45 1.537 1.537 0 0 1 2.39.075c.349.408.727.792 1.1 1.18a2.071 2.071 0 0 0 2.714.314 1.494 1.494 0 0 0 .448-2.246 19.921 19.921 0 0 0-2.315-2.31c-.553-.538-1.374-1-1.6-1.618-.368-1.036.727-1.324 1.379-1.852a37.376 37.376 0 0 0 2.694-2.669 8.414 8.414 0 0 0-5.786.214c-.378.12-.722.369-1.1.5-1.494.458-2.49-.3-2.151-1.808a30.046 30.046 0 0 1 1.235-3.386c.179-.523.274-1.076.4-1.618Z" data-name="パス 1003"/><path fill="#fff" d="M99.853 310.691a7.564 7.564 0 0 1 1.8-1.369 4.4 4.4 0 0 1 1.778.169 4.582 4.582 0 0 1-.772 1.32 11.318 11.318 0 0 0-3.486 5.642 2.238 2.238 0 0 0 .807 2.8 1.989 1.989 0 0 1 0 2.988 13.117 13.117 0 0 1-1.628 1.613c-2.425 1.867-3.092 4.427-2.863 7.3.095 1.145.473 2.161 1.932 2.35 1.046.129 1.295 1.275.538 2.061a2.241 2.241 0 0 1-2.988.144c-2.36-1.618-2.306-4.053-2.231-6.528.095-3.1 1.713-5.318 3.984-7.185.383-.309.782-.608 1.28-1-1.743-1.384-1.544-3.072-1.255-4.86a11.689 11.689 0 0 1-2.385-.184c-3.252-.966-5.074-3.486-6.12-6.443a24.967 24.967 0 0 1-1.295-11.747 10.425 10.425 0 0 1 .314-1.459 4.206 4.206 0 0 0-.7-4.2c-.548-.632-.842-1.339-.125-2.027s1.424-.453 2.206 0c4.193 2.53 7.818 5.682 9.984 10.113.847 1.743.926 3.9 1.17 5.886a39.763 39.763 0 0 1 .055 4.616Zm-2.564-2.988c1.175-4.482-3.441-12.857-7.469-13.718a6.126 6.126 0 0 1 0 1.21 24.858 24.858 0 0 0 .11 10.835c.543 2.42 1.2 4.815 3.092 6.613 1 .931 1.952 1.862 3.625 1.389-.393-2.022-.717-4.018-1.205-5.975-.219-.871.08-1.225.817-1.6Z" data-name="パス 1004"/><path fill="#fff" d="M180.5 358.05c2.126 1.663 2.445 3.755.8 6.548a2.769 2.769 0 0 0-.159 2.749c1.6 3.954-1.439 7.056-4.755 7.559-1.494.229-2.206-.244-3.023-1.877-.219-.433-.418-.881-.6-1.275-1.962.324-3.844.647-5.736.931a3.141 3.141 0 0 1-3.545-1.758 3.745 3.745 0 0 1 .115-3.745c.632-1.026 1.32-2.022 2.047-3.122a3.869 3.869 0 0 1-.956-4.357c.777-1.872 2.619-1.359 4.153-1.763a2.208 2.208 0 0 1-.095-.627c.075-.568.194-1.135.3-1.7.6.289 1.414.428 1.743.906a15.719 15.719 0 0 1 1.658 3.341 1.451 1.451 0 0 1-1.837 1.852c-1-.244-1.947-.528-3.232-.881a6.046 6.046 0 0 0 .468 1c1.429 1.663 1.459 2.49.189 4.292-.543.772-1.031 1.578-1.519 2.385a3.551 3.551 0 0 0-.229.762 7.2 7.2 0 0 0 5.562-.951c1.763-1.041 2.918-.6 3.371 1.354a2.58 2.58 0 0 0 .1.533c.393.732.329 1.992 1.583 1.842a2.682 2.682 0 0 0 1.992-3.187 7.255 7.255 0 0 1-.593-2.052 11.261 11.261 0 0 1 .5-2.943 19.112 19.112 0 0 1 .9-1.773c.383-.946.189-1.494-1-1.613-1.743-.184-2.037-1.031-1.115-2.614.812-1.4 1.653-2.793 2.365-4.242.926-1.9-.2-3.565-2.216-3.341a1.584 1.584 0 0 0-1.021.5c-1 1.359-1.922 2.734-.946 4.556.413.767.095 1.454-.876 1.175a2.508 2.508 0 0 1-1.578-1.18c-.842-2.44.149-4.482 1.753-6.289 1.315-1.459 3.018-1.354 4.73-.831 1.867.578 3.112 1.992 2.833 3.869a26.187 26.187 0 0 1-1.588 4.93 6.63 6.63 0 0 1-.543 1.037Z" data-name="パス 1005"/><path fill="#fff" d="M150.638 493.133h5.393a2.773 2.773 0 0 1 1.2.075 2.106 2.106 0 0 1 1 1.021c.07.194-.5.847-.837.9-1.369.224-2.764.294-4.148.413-.578.05-1.16.08-1.967.129 1.071 2.291 1.992 4.482 3.092 6.568 2.7 5.019 5.477 9.994 8.256 14.968a25.577 25.577 0 0 1 1.613 2.49 4.377 4.377 0 0 1-.035 1.827c-.548-.154-1.344-.13-1.6-.5a88.274 88.274 0 0 1-4.043-6.19c-1.708-2.878-3.406-5.771-4.93-8.754-1.384-2.709-2.53-5.542-3.784-8.316-.294-.657-.608-1.3-.837-1.8-1.753-.14-3.371-.354-4.979-.349-.543 0-1.046.672-1.623.876-.463.164-1.23.309-1.494.07-.6-.573-.294-1.215.349-1.693 1.578-1.18 3.152-2.355 4.7-3.575a1.245 1.245 0 0 0 .5-.911c-.568-3.55-1.28-7.081-1.773-10.641-.363-2.624-.463-5.283-.672-7.922-.134-1.658-.254-3.311-.378-4.979a2.2 2.2 0 0 1 0-.936 12.239 12.239 0 0 1 .891-1.454 5.029 5.029 0 0 1 .822 1.464c1 6.653 1.733 13.35 3.406 19.918a13.124 13.124 0 0 1 .408 3.486c-.025 1.14.428 1.294 1.384 1.15 1.494-.234 3.037-.368 4.551-.588.846-.124 1.569.115 1.573 1 0 .393-.682 1-1.16 1.145-1.588.428-3.227.677-4.845 1Z" data-name="パス 1006"/><path fill="#fff" d="M116.136 394.435c1.937-1.892 2.555-7.21-.224-8.908-.647-.393-1.494-1.041-.583-2.046a1.611 1.611 0 0 1 2.241-.289 6.406 6.406 0 0 1 3.117 4.775 10.925 10.925 0 0 1-1.623 8.042c-1.215 1.957-2.281 2.49-4.482 2.151a1.643 1.643 0 0 0-1.29.408c-.852 1-1.539 2.106-2.375 3.1s-1.753 1.907-3.157 1.628a3.107 3.107 0 0 1-2.734-2.883 7.764 7.764 0 0 0-.622-1.693c-1.359.7-2.7 1.245-3.984.383a3.63 3.63 0 0 1-1.578-1.867 11.094 11.094 0 0 1 2.186-9.78c.657-.8 1.31-1.613 1.967-2.43a8.184 8.184 0 0 1-3.137-4.93c-.065-.463.428-1 .662-1.494a7 7 0 0 1 .936 1.2 8.071 8.071 0 0 0 3.515 3.779c2.151 1.125 2.231 1.867.224 3.281-3.212 2.261-4.262 5.378-3.779 9.152.1.822.588.856 1.145.553 2.928-1.593 4.382-.9 5.074 2.425a11.324 11.324 0 0 0 .433 1.17 24.919 24.919 0 0 0 1.992-2.057c.956-1.185 1.842-2.43 2.734-3.665 1.29-1.793 2.042-1.823 3.342-.005Z" data-name="パス 1007"/><path fill="#fff" d="M24.708 449.537a41.215 41.215 0 0 0-.393-5.278c-1-4.95-3.192-9.247-7.469-12.219a10.292 10.292 0 0 0-2.729-1 6.549 6.549 0 0 1-1.549-.4c-.418-.279-.946-1-.837-1.245.229-.5.856-1.16 1.335-1.175a9.137 9.137 0 0 1 6.448 2.281 23.8 23.8 0 0 1 6.428 9.277c1.494 3.406 1.349 6.971 1.3 10.551a17.956 17.956 0 0 1-.373 4.013 2.711 2.711 0 0 1-1.494 1.773c-1 .254-1.638-.722-1.748-1.643-.393-3.4-2.779-5.373-5.194-7.23-2.863-2.206-6.2-3.75-8.639-6.578a13.659 13.659 0 0 1-3.306-7.633c-.055-.5.418-1.026.652-1.544.339.418.926.807 1 1.26.7 5.388 4.412 8.346 8.684 10.8a22.07 22.07 0 0 1 6.936 5.607c.134.179.249.378.373.568Z" data-name="パス 1008"/><path fill="#fff" d="m83.077 492.032 5.94 1.439h.269c.9.179 1.793.553 1.613 1.579-.055.3-1.24.612-1.882.573a27.282 27.282 0 0 1-8.535-2.34 2.434 2.434 0 0 0-1.494-.065c-1.389.378-2.744.876-4.118 1.3a1.9 1.9 0 0 1-1.051.149 8.6 8.6 0 0 1-1.494-.831 5.657 5.657 0 0 1 1.275-1.021c1.912-.767 3.874-1.414 5.786-2.191a1.494 1.494 0 0 0 .593-1.086c.378-3.291.612-6.6 1.066-9.884.787-5.751 1.7-11.488 2.549-17.229.08-.528 0-1.086.1-1.6.129-.612.06-1.444 1.105-1.379.936.055 1.1.712 1.061 1.419-.11 2.156-.224 4.317-.428 6.473-.448 4.72-.951 9.461-1.439 14.151-.224 2.186-.468 4.367-.682 6.548a7.774 7.774 0 0 0 .055 1.056c1.554-.4 2.988-.852 4.481-1.12a1.773 1.773 0 0 1 1.494.538c.5.777-.164 1.205-.871 1.434-1.788.573-3.58 1.13-5.373 1.7Z" data-name="パス 1009"/><path fill="#fff" d="M83.575 264.128c-1.25 1.793-2.4 3.486-3.605 5.154a3.431 3.431 0 0 1-3.864 1.494 4.3 4.3 0 0 1-2.863-3.3 21.176 21.176 0 0 1-.5-3.326c-.095-.8.129-1.494 1.056-1.573s.762.792.886 1.359a32.871 32.871 0 0 0 .712 3.267c.423 1.3 1.648 1.613 2.46.533a31.935 31.935 0 0 0 3.306-5.3c.762-1.593 1.494-2.121 3.017-1.4a2.532 2.532 0 0 0 3.267-.438c1.549-1.608 3.212-3.1 4.77-4.7 1.18-1.21 1-2.35-.294-3.446q-2.305-1.927-4.511-3.984a1.9 1.9 0 0 1-.428-2.559 2.105 2.105 0 0 1 2.818-.2c1.125.941 2.156 1.992 3.232 2.988a15.4 15.4 0 0 0 1.9 1.713c2.535 1.653 1.9 3.321 1.215 5.283a7.773 7.773 0 0 1-4.028 4.6 4.689 4.689 0 0 0-1.444 1.559c-1.948 2.774-4.224 3.496-7.102 2.276Z" data-name="パス 1010"/><path fill="#fff" d="M52.742 275.048a13.806 13.806 0 0 1-.612-2.554c-.179-3.172-.239-6.354-.378-9.531-.08-1.852-.368-2.236-1.638-2.345-.712 2.943-1.4 5.9-2.151 8.843a25.32 25.32 0 0 1-1.245 3.984c-.473 1.085-1.583 1.19-2.988 1.175.244-1.813.438-3.525.722-5.223.309-1.818.787-3.615 1.046-5.438.339-2.4.538-4.82.777-7.056a48.578 48.578 0 0 0 5.891 2.445 51.053 51.053 0 0 0 6.578 1c-2.405 3.984-3.316 8.346-4.053 12.782a7.088 7.088 0 0 1-1.255 2.131Z" data-name="パス 1011"/><path fill="#fff" d="M129.067 461.896c-.712-4.168 1.743-7.848 3.819-11.6a9.032 9.032 0 0 0 .966-5.945c-.075-.553.329-1.165.5-1.753.5.314 1.334.5 1.534.961 1 2.261 1.867 4.566 2.659 6.9a35.3 35.3 0 0 1 2.276 13.479 2.894 2.894 0 0 1-1.275 2.619c-2.061 1.285-4.108 2.589-6.169 3.879-.847.528-1.4.5-2.071-.5-2.104-3.05-2.164-3.01-2.239-8.04Zm6.971-12.4-.339.03c-.363.717-.7 1.454-1.1 2.141-2.33 3.984-4.073 8.131-3.356 12.912.164 1.091.294 2.191.533 3.267.179.792.682.941 1.4.5 1.409-.881 2.853-1.7 4.252-2.594a1.439 1.439 0 0 0 .667-.926 30.363 30.363 0 0 0 0-5.507c-.513-3.306-1.349-6.553-2.037-9.819Z" data-name="パス 1012"/><path fill="#fff" d="M113.342 296.002c-1.369.593-2.729 1.2-4.108 1.778a10.692 10.692 0 0 1-1.26.349c0-.5-.169-1.2.09-1.494a5.213 5.213 0 0 1 2.236-1.6 18.7 18.7 0 0 1 5.283-.672c1.992.095 3.167 2.36 2.38 4.427a19.144 19.144 0 0 1-2.306 4.228c-.647.9-.264 1.384.124 2.131a13.938 13.938 0 0 1 1.653 4.053 6.394 6.394 0 0 1-.727 3.441 50.173 50.173 0 0 1-2.928 5.049 4.455 4.455 0 0 1-4.078 1.877c-.334 0-.866-.538-.951-.911s.214-1.17.458-1.215c2.116-.418 2.908-1.992 3.615-3.759a4.706 4.706 0 0 1 .832-1.215 4.2 4.2 0 0 0 .169-5.716c-1.713-2.315-1.688-2.913.04-5.338a18.384 18.384 0 0 0 1.588-2.659c.269-.568.607-1.419.368-1.832s-1.15-.413-1.778-.573a2.143 2.143 0 0 0-.538 0Z" data-name="パス 1013"/><path fill="#fff" d="M177.955 298.457c-2.415-1.354-2.156-4.571-1.225-6.473a20.742 20.742 0 0 1 2.684-4.307 5.132 5.132 0 0 1 2.589-1.115c.224-.06.792.548.9.931.06.239-.388.8-.717.931-2.017.792-4.043 4.526-3.376 6.553.12.369.822.613 1.3.777.637.224 1.544.1 1.932.5.583.612.279 1.434-.189 2.211-.782 1.3-1.275 2.684-.065 4.093a16.783 16.783 0 0 1 1.2 1.952 1.962 1.962 0 0 0 2.271.956c.558-.114 1.534 0 1.728.359a2.187 2.187 0 0 1-.274 1.818c-.931 1.444-3.366 1.613-4.915.229a10.733 10.733 0 0 1-3.819-6.165 20.98 20.98 0 0 1-.024-3.25Z" data-name="パス 1014"/><path fill="#fff" d="M69.672 525.604c.931-3.6 1.663-6.971 2.684-10.238 1.364-4.407 2.928-8.749 4.447-13.106.607-1.733 1.26-3.486 1.992-5.134.209-.5.966-1.145 1.265-1.051.822.249.782 1 .5 1.788-1.653 4.895-3.371 9.77-4.845 14.719-1.225 4.118-2.146 8.331-3.207 12.5-.08.3-.085.707-.284.891-.413.373-1.026.961-1.394.861-.466-.13-.809-.832-1.158-1.23Z" data-name="パス 1015"/><path fill="#fff" d="M112.346 374.831c.6-.558 1-.931 1.389-1.28.966-.841 1.862-.876 2.435.254a16.616 16.616 0 0 1 1.329 4.312 2.273 2.273 0 0 1-.762 1.608 1.409 1.409 0 0 1-1.3.264 1.808 1.808 0 0 1-.568-1.245 20.32 20.32 0 0 1 0-2.445c-.538.344-.772.528-1.036.662a2.636 2.636 0 0 1-3.779-1.125 12.165 12.165 0 0 1-1.524-5.667c-.085-1.628-.5-1.927-2.022-1.33-2.49 1-4.9 3.75-4.367 7.121.085.538-.319 1.15-.5 1.728-.468-.5-1.2-.891-1.359-1.464-.822-2.958 1.11-7.185 3.954-8.62a12.372 12.372 0 0 1 3.406-1.031c1.578-.284 2.39.339 2.8 1.942.383 1.494.682 2.963 1.086 4.427a14.134 14.134 0 0 0 .818 1.889Z" data-name="パス 1016"/><path fill="#fff" d="M176.421 241.84c.164-1.091.259-2.2.5-3.272a2.69 2.69 0 0 1 .876-1.494 1.912 1.912 0 0 1 1.494-.075c.189.06.378.876.219 1.125-.866 1.344-.528 2.8-.5 4.222 0 .861.408 1.34 1.349 1.275a6.522 6.522 0 0 1 6.433 3.6c.279.5.423 1.464.144 1.778a1.534 1.534 0 0 1-2.291.134 3.052 3.052 0 0 1-.737-.787c-.837-1.723-2.305-2.046-4.028-1.992a3.2 3.2 0 0 1-3.331-2.749 12.17 12.17 0 0 1 0-1.758Z" data-name="パス 1017"/><path fill="#fff" d="M188.063 266.877v-9.033a28.819 28.819 0 0 1 .224-3.341 1.18 1.18 0 0 1 .667-.8 17.986 17.986 0 0 1 2.226-.463 34.858 34.858 0 0 1 .289 3.939c-.025.637-.607 1.235-.8 1.892-.642 2.181-1.21 4.382-1.822 6.578-.125.448-.3.881-.463 1.325Z" data-name="パス 1018"/><path fill="#fff" d="M196.354 266.783a19.009 19.009 0 0 1-2.679-9.879c-.025-1.285.533-2.709-.6-3.829a2.684 2.684 0 0 1 3.271 2.549c.013 3.625.008 7.25.008 11.159Z" data-name="パス 1019"/><path fill="#fff" d="M41.14 270.711q.368-9.322.737-18.618c.7.886 1.494 1.847 2.211 2.858a1.13 1.13 0 0 1 0 .916c-1 2.261-.926 4.611-.866 7.021a18.547 18.547 0 0 1-.921 4.566c-.269 1.105-.612 2.2-.921 3.3Z" data-name="パス 1020"/><path fill="#fff" d="M163.385 319.146a8.994 8.994 0 0 1 1.494 1.335c.229.319.115.886.159 1.339-.408 0-.886.159-1.205 0a5.471 5.471 0 0 1-3.222-4.113c-.164-1.071.194-1.449 1.18-1.379 1.738.124 3.486.1 5.208.269a5.275 5.275 0 0 1 1.628.772c-.463.354-.886.916-1.4 1a33.259 33.259 0 0 1-3.675.329Z" data-name="パス 1021"/><path fill="#fff" d="M59.285 441.421c-1.519.05-1.494-.846-1.125-1.439a20.652 20.652 0 0 1 2.9-4.148 15.972 15.972 0 0 1 3.65-2.385c.279-.154.842.209 1.275.334-.159.408-.2 1.046-.5 1.2a14.561 14.561 0 0 0-5.557 5.726 4.112 4.112 0 0 1-.643.712Z" data-name="パス 1022"/><path fill="#fff" d="M105.957 267.056c.244-.5.339-1 .647-1.215 2.022-1.389 4.058-2.764 6.16-4.023a1.768 1.768 0 0 1 1.673.154c.732.8-.209 1.11-.717 1.494-1.992 1.439-3.984 2.883-6.02 4.282a1.644 1.644 0 0 1-1.18.254c-.233-.074-.359-.587-.563-.946Z" data-name="パス 1023"/><path fill="#fff" d="M121.005 363.244a10.739 10.739 0 0 1-.533 1.031q-1.818 2.669-3.65 5.313a2.988 2.988 0 0 1-.762.931 1.19 1.19 0 0 1-1.056 0 1.085 1.085 0 0 1-.329-1 19.326 19.326 0 0 1 4.561-6.892 1.828 1.828 0 0 1 1.33-.249c.18.029.295.567.439.866Z" data-name="パス 1024"/><path fill="#fff" d="M77.051 282.926c-.219-.632-.757-1.359-.607-1.887.652-2.33 1.459-4.621 2.33-6.877.144-.368.886-.5 1.354-.747.159.5.558 1.051.438 1.464-.662 2.335-1.429 4.641-2.211 6.936a4.615 4.615 0 0 1-.777 1.1Z" data-name="パス 1025"/><path fill="#fff" d="M63.501 328.209c1.25.045 1.723.438 1.588 1.354-.309 2.161-.568 4.332-1 6.473-.09.463-.742.817-1.135 1.225-.339-.5-1-1-.951-1.424a40.406 40.406 0 0 1 .772-4.606c.226-1.03.494-2.056.726-3.022Z" data-name="パス 1026"/><path fill="#fff" d="m83.137 273.066.946-1c.329.368.847.687.951 1.11q.8 3.2 1.394 6.443a4.167 4.167 0 0 1-.3 1.494c-.568-.324-1.494-.533-1.648-1a36.209 36.209 0 0 1-1-4.591c-.139-.698-.204-1.412-.343-2.456Z" data-name="パス 1027"/><path fill="#fff" d="M77.246 413.646c.373.294.767.453.861.722a1.105 1.105 0 0 1-.144 1q-2.779 2.236-5.652 4.347c-.851.632-1.583.229-1.967-.6-.438-.941.573-.881 1-1.225 1.125-.876 2.2-1.807 3.351-2.649.803-.584 1.649-1.042 2.551-1.595Z" data-name="パス 1028"/><path fill="#fff" d="M99.35 416.435c.528-1.225.911-2.281 1.429-3.262a25.474 25.474 0 0 1 2.106-3.416c.249-.334 1-.3 1.494-.433a4.01 4.01 0 0 1 0 1.444q-1.4 3.062-2.988 6.045c-.179.344-.807.752-1.086.667-.382-.114-.636-.672-.955-1.045Z" data-name="パス 1029"/><path fill="#fff" d="M135.097 381.449c.279.5.588 1 .837 1.539 1 2.066 1.992 4.133 2.923 6.224a1.215 1.215 0 0 1-.174 1.086 1.15 1.15 0 0 1-1.041-.03 2.534 2.534 0 0 1-1-1c-.931-1.947-1.788-3.929-2.674-5.9-.339-.757-.314-1.33.672-1.454Z" data-name="パス 1030"/><path fill="#fff" d="M127.175 340.98a14.727 14.727 0 0 1 1.19-2.027 31.592 31.592 0 0 1 3.067-3.351c.319-.289 1.1-.07 1.668-.085a5.477 5.477 0 0 1-.5 1.6q-1.494 2.211-3.187 4.287a2.146 2.146 0 0 1-1.339.787c-.232.019-.531-.703-.899-1.211Z" data-name="パス 1031"/><path fill="#fff" d="M40.104 252.233a57.948 57.948 0 0 1-.657 7.917c-.154.762-1.947 1.19-2.988 1.773-.06-.368-.279-.792-.164-1.085.971-2.435 1.992-4.845 2.988-7.265.194-.468.344-.956.5-1.439Z" data-name="パス 1032"/><path fill="#fff" d="M168.549 386.762c.363-1.12.578-1.942.891-2.729a39.826 39.826 0 0 1 1.653-3.809c.184-.358.8-.5 1.21-.737.129.5.438 1 .349 1.434-.184.911-.627 1.768-.881 2.669a36.743 36.743 0 0 0-.732 3.122c-.134.727-.458 1.265-1.235 1a4.662 4.662 0 0 1-1.255-.946Z" data-name="パス 1033"/><path fill="#fff" d="M104.777 415.528c.717-2.405 1.3-4.512 1.992-6.578.11-.324.722-.5 1.1-.707.115.4.378.827.314 1.2-.339 2.037-.707 4.073-1.18 6.085a5.054 5.054 0 0 1-1 1.494Z" data-name="パス 1034"/><path fill="#fff" d="M124.586 335.02c-.269-.234-.807-.5-.832-.777-.035-.458.174-1.28.458-1.369a72.324 72.324 0 0 1 6.2-1.623c.622-.134 1.524.035 1.434.936-.03.324-.861.652-1.379.841-1.638.6-3.3 1.135-4.955 1.7-.249.083-.503.154-.926.292Z" data-name="パス 1035"/><path fill="#fff" d="M48.993 388.644c-.279-.244-.687-.428-.757-.7-.1-.378-.1-1.026.124-1.205a83.931 83.931 0 0 1 5.308-3.844c.3-.2.961.124 1.449.2-.164.428-.209 1-.5 1.255-1.623 1.339-3.306 2.594-4.979 3.879-.177.136-.371.231-.645.415Z" data-name="パス 1036"/><path fill="#fff" d="M72.64 333.228c-.254.314-.428.722-.627.737-.453.03-1.155.03-1.349-.249a23.22 23.22 0 0 1-1.967-3.436 5.975 5.975 0 0 1-.5-2.211 4.04 4.04 0 0 1 .5-1.315c.359.249.876.418 1.036.762.593 1.25 1 2.584 1.593 3.834a13.124 13.124 0 0 0 1.314 1.878Z" data-name="パス 1037"/><path fill="#fff" d="M28.427 419.282c-.448 2.091-.8 3.949-1.27 5.771-.085.344-.657.558-1 .832-.229-.334-.7-.7-.652-1q.5-3.037 1.24-6.04a1.175 1.175 0 0 1 1.031-.5c.327.145.492.683.651.937Z" data-name="パス 1038"/><path fill="#fff" d="M122.349 366.456c.822 0 1.255.677.737 1.31-1.071 1.295-2.241 2.49-3.426 3.71a1 1 0 0 1-.961.125 1.33 1.33 0 0 1-.593-.931c-.068-1.381 2.859-4.229 4.243-4.214Z" data-name="パス 1039"/><path fill="#fff" d="M62.925 260.528h2.49v7.469c-.717-.642-1.464-1-1.564-1.459-.398-1.957-.622-3.944-.926-6.01Z" data-name="パス 1040"/><path fill="#fff" d="M140.793 384.112c-.04.762-.04 1.534-.149 2.281-.045.279-.383.742-.533.722a1.55 1.55 0 0 1-1.066-.528 3.746 3.746 0 0 1-.329-1.554c-.065-1.16-.12-2.325-.08-3.486a3.889 3.889 0 0 1 .5-1.215c.443.284 1.155.5 1.28.871a16.16 16.16 0 0 1 .443 2.888Z" data-name="パス 1041"/><path fill="#fff" d="M177.811 385.213c-.169.279-.3.747-.533.8a1.553 1.553 0 0 1-1.245-.174 3.949 3.949 0 0 1-.881-1.593 17.428 17.428 0 0 1-.662-2.988c-.05-.388.284-.822.448-1.24.433.179 1.135.249 1.265.558.607 1.461 1.065 3.004 1.608 4.637Z" data-name="パス 1042"/><path fill="#fff" d="M169.112 528.297c-.5.642-.9 1.558-1.4 1.638-.8.135-1-.692-1.1-1.494-.144-1.046-.657-2.037-.807-3.082a1.862 1.862 0 0 1 .583-1.539c.737-.463 1.066.234 1.3.856.428 1.146.926 2.286 1.424 3.621Z" data-name="パス 1043"/><path fill="#fff" d="M112.276 269.65c.692-1.439 1.31-2.863 2.086-4.2.169-.294.906-.259 1.384-.378.075.438.309.921.189 1.295a26.97 26.97 0 0 1-1.439 3.74c-.2.423-.832.642-1.265.956Z" data-name="パス 1044"/><path fill="#fff" d="M56.99 391.144a5.3 5.3 0 0 1 2.415-4.591c.3-.229.891-.095 1.344-.125a4.854 4.854 0 0 1-.189 1.494 27.131 27.131 0 0 1-1.728 3.142 6.283 6.283 0 0 1-1.19 1.1Z" data-name="パス 1045"/><path fill="#fff" d="M93.742 436.317c.5.682.822.956.921 1.295a122.58 122.58 0 0 1 1.549 5.652 1.031 1.031 0 0 1-.418.832.877.877 0 0 1-.817-.144 2.1 2.1 0 0 1-.637-1c-.4-1.6-.792-3.217-1.076-4.845-.074-.426.232-.923.478-1.79Z" data-name="パス 1046"/><path fill="#fff" d="M158.406 304.486c-1.564-.637-1.7-.941-1.051-2.2a16.928 16.928 0 0 1 1.494-2.654c.339-.443 1.031-.612 1.559-.9.06.6.344 1.3.129 1.788a40.488 40.488 0 0 1-2.131 3.966Z" data-name="パス 1047"/><path fill="#fff" d="M64.748 446.141c-.388-.279-.812-.428-.866-.667-.095-.374-.075-1.061.134-1.17 1.369-.722 2.793-1.349 4.233-1.937a.956.956 0 0 1 .837.393 1.251 1.251 0 0 1-.2 1.061c-1.32.817-2.704 1.534-4.138 2.32Z" data-name="パス 1048"/><path fill="#fff" d="M188.592 287.561a8.571 8.571 0 0 1-1.335.543c-1.8.349-2.818-1.349-4.337-1.778a3.485 3.485 0 0 1 .244-1.4c.075-.154.692-.194 1-.09a31.481 31.481 0 0 1 3.391 1.334c.35.171.537.709 1.037 1.391Z" data-name="パス 1049"/><path fill="#fff" d="M75.06 355.835c-.339-.712-.752-1.175-.657-1.494a30.37 30.37 0 0 1 1.663-4.213c.179-.359.936-.428 1.429-.632a5.134 5.134 0 0 1 0 1.564 32.4 32.4 0 0 1-1.374 3.336 10 10 0 0 1-1.061 1.439Z" data-name="パス 1050"/><path fill="#fff" d="M31.47 418.336c1.344-.1 1.6.428 1.643 1.275.06 1.33.224 2.654.289 3.984a.956.956 0 0 1-.349.757.911.911 0 0 1-.842 0c-.309-.224-.7-.6-.712-.931-.069-1.679-.029-3.362-.029-5.085Z" data-name="パス 1051"/><path fill="#fff" d="M160.408 307.295a2.945 2.945 0 0 1-.961-.119 15.892 15.892 0 0 1-1.324-1.066 4.949 4.949 0 0 1 1.409-.747 22.686 22.686 0 0 1 3.341-.219c.309 0 .622.334.931.5-.194.324-.324.832-.6.926-.954.322-1.965.511-2.796.725Z" data-name="パス 1052"/><path fill="#fff" d="M100.893 437.258a11.632 11.632 0 0 1-.548 2.325c-.194.4-.757.632-1.15.941a4.068 4.068 0 0 1-.5-1.359 5.254 5.254 0 0 1 .4-1.947 4.483 4.483 0 0 1 .946-1.1Z" data-name="パス 1053"/><path fill="#fff" d="M88.49 268.356c.543-.423.832-.847 1.12-.847 1.285 0 .906 1.12 1 1.813.045.329-.388.727-.607 1.1Z" data-name="パス 1054"/><path fill="#fff" d="M145.927 97.834c.782 2.525 1.494 4.78 2.181 7.056.359 1.21.632 2.445.941 3.67a3.982 3.982 0 0 1-1.6 3.416c-1.2-1.494-1.967-1.494-3.486-.115-2.52 2.226-5.164 4.352-8.659 4.611a71.6 71.6 0 0 1-7.519-.144c-.657 0-1.315-.134-2.33-.249-.2-7.579-.5-15.327-2.38-22.94a41.831 41.831 0 0 0 5.452.578 25.181 25.181 0 0 0 12.13-3.232c.413-.239.523-1.021.772-1.549-.528-.214-1.1-.672-1.583-.593a18.1 18.1 0 0 0-2.943 1c.319-.941.563-1.822.936-2.649a1.105 1.105 0 0 1 .921-.4 26.313 26.313 0 0 0 3.052.5c2.818 0 5.2 4.925 3.341 7.205-1.3 1.6-2.4 3.361-3.56 5.069a4.512 4.512 0 0 0-.807 1.494c-.095.5.035 1.439.259 1.494a2.028 2.028 0 0 0 1.7-.254 44.3 44.3 0 0 0 3.182-3.968Z" data-name="パス 1055"/><path fill="#fff" d="m125.158 79.759 10.457 5.94c-.314 1.429-1.818 2.754-1.613 4.661a21.312 21.312 0 0 1-10.92.244 1.25 1.25 0 0 1-.812-.672 37.049 37.049 0 0 1-.931-4.218 1.389 1.389 0 0 1 .662-1.155c2.664-.752 2.938-1.051 3.072-3.854.02-.264.05-.528.085-.946Z" data-name="パス 1056"/><path fill="#fff" d="M120.687 82.309c-.458-1.678-.911-3.311-1.344-4.95-.159-.6-.712-1.354.408-1.6a1.922 1.922 0 0 1 2.425 1.31c.149 1.056.194 2.121.279 3.187v.533c.094 1.62.064 1.66-1.768 1.52Z" data-name="パス 1057"/><path fill="#fff" d="M163.166 69.985c1.967-.095 1.962-.095 1.9 1.578-.03.931-.06 1.867-.055 2.8 0 .672-.035 1.339-.9 1.31s-1.494-.294-1.339-1.374c.175-1.411.264-2.83.394-4.314Z" data-name="パス 1058"/><path fill="#fff" d="M150.643 103.899c-.5-1.678-1.041-3.356-1.628-5.238.926.5 1.773.9 2.584 1.369a.737.737 0 0 1 .249.652c-.279 1.1-.622 2.171-.941 3.257Z" data-name="パス 1059"/><path fill="#fff" d="M164.496 66.654c-.2-1.105-.354-1.932-.538-2.928 1.569.65 1.703 1.369.538 2.928Z" data-name="パス 1060"/><path d="M151.848 447.984c-.583-.916-1.24-1.937-1.867-2.988a1.125 1.125 0 0 1-.2-.752c.324-1.29.672-2.574 1.1-3.839a.9.9 0 0 1 .822-.354 1 1 0 0 1 .5.782c-.111 2.456-.245 4.891-.355 7.151Z" data-name="パス 1061"/><path d="M54.608 371.5a5.8 5.8 0 0 1 2.276-6.015c1-.782 1.9-1.992 3.515-1.678.134 0 .5-.543.573-.876a2.624 2.624 0 0 0-.164-1.2c-.692-2.116.159-3.625 1.743-4.979a3.486 3.486 0 0 1 3.042-.692c1 .164.812 1.061.792 1.758 0 .393-.294.8-.229 1.165.075.448.3 1.12.617 1.225a1.748 1.748 0 0 0 1.4-.4 4.352 4.352 0 0 1 4.86-.5c.926.578.722 1.325.214 1.942-.886 1.076-.438 1.872.154 2.9a34.1 34.1 0 0 1 2.042 4.636 1.334 1.334 0 0 1-.224 1.2c-.244.214-.807.065-1.23.1-.5.045-1.24-.075-1.494.209a1.777 1.777 0 0 0-.164 1.548 3.929 3.929 0 0 1-2.948 5.353c-1.105.229-1.8-.792-2.375-2.445a3.905 3.905 0 0 1-.065-.941 1.708 1.708 0 0 0-1.638-1.808c-1.071-.09-1.25.817-1.554 1.554a10.53 10.53 0 0 1-.871 1.992 1.9 1.9 0 0 1-2.49.687 3.088 3.088 0 0 1-1.076-2.106c-.229-2.1-.881-2.779-2.938-2.654-.592.05-1.168.025-1.768.025Z" data-name="パス 1062"/><path d="M88.5 351.447c.264 2.918.837 5.871 0 8.664a20.762 20.762 0 0 1-4.392 8.609 4.881 4.881 0 0 1-4.138 1.822 20.756 20.756 0 0 0 1.733-2.335 4.887 4.887 0 0 0 .224-1.653 7.4 7.4 0 0 0-1.648.463c-.4.224-.672.7-1.29 1.374 0-2.639-.334-4.885.4-7.165a11.643 11.643 0 0 1 4.626-6.07c1.54-1.055 2.906-2.384 4.485-3.709Z" data-name="パス 1063"/><path d="M147.351 338.103c.11 1.783.189 3.316.314 4.845a10.093 10.093 0 0 0 .354 2.261 1.19 1.19 0 0 0 .931.662c.259 0 .637-.548.682-.891a12.2 12.2 0 0 1 .334-2.43c.568 1.24 1.549 2.46 1.608 3.725a27.337 27.337 0 0 1-.642 6.563c-.5 2.415-1.12 3.262-3.326 5.9-3.501-7.33-3.656-14.934-.255-20.635Z" data-name="パス 1064"/><path d="M170.005 278.553c1.374-1.813 2.759-3.62 4.123-5.438a4.48 4.48 0 0 0 .866-1.354 4.307 4.307 0 0 0-.1-1.494c-.443.174-1 .229-1.3.548-.961 1.051-1.822 2.191-2.779 3.381-.5-1.265-.881-2.375-1.295-3.486l.119-.11a3.484 3.484 0 0 0 .558.712c.5.369 1.494-.114 1.364-.707-.418-1.992.827-3.242 1.8-4.626 2.246-3.182 4.337-5.233 6.414-6.3 0 2.435.03 4.83 0 7.225-.09 5.378-3.117 8.819-7.559 11.283a12.666 12.666 0 0 1-1.992.717Z" data-name="パス 1065"/><path d="m97.289 307.688-1.046-1.245c-.737.378-1.036.732-.817 1.6.5 1.952.812 3.949 1.205 5.975-1.673.5-2.649-.458-3.625-1.389-1.9-1.8-2.549-4.193-3.092-6.613a24.857 24.857 0 0 1-.11-10.835 6.125 6.125 0 0 0 0-1.21c4.044.875 8.66 9.254 7.485 13.717Z" data-name="パス 1066"/><path d="M136.058 449.498c.7 3.267 1.524 6.513 2.047 9.81a28.655 28.655 0 0 1 0 5.507 1.439 1.439 0 0 1-.667.926c-1.4.9-2.843 1.713-4.252 2.594-.717.453-1.22.3-1.4-.5-.239-1.076-.368-2.176-.533-3.266-.717-4.78 1.026-8.918 3.356-12.912.4-.687.737-1.424 1.1-2.141Z" data-name="パス 1067"/></svg>