<svg xmlns="http://www.w3.org/2000/svg" width="1427.035" height="600.001" viewBox="0 0 1427.035 600.001"><path d="M-20931.912-16347.419c0-14.34,12.422-26.445,27.129-26.445,7.758,0,13.77,2.4,18.9,7.536l.848.854-10.219,10.22-.855-.771a12.757,12.757,0,0,0-8.676-3.392c-6.809,0-11.764,5.05-11.764,12a11.621,11.621,0,0,0,11.764,11.985,12.386,12.386,0,0,0,8.4-3.588l.848-.836,10.258,9.986-.816.866a25.925,25.925,0,0,1-18.693,8.006C-20920.756-16321-20931.912-16331.871-20931.912-16347.419Zm77.127,15.566a10.846,10.846,0,0,1,10.848-10.84,10.841,10.841,0,0,1,10.84,10.84,10.844,10.844,0,0,1-10.84,10.854A10.849,10.849,0,0,1-20854.785-16331.853Zm-288.51,9.7v-50.549h15.371v50.549Zm-385.842,0v-86.651h16.061v86.651Zm516.176,0v-25.28c0-7.05-4.854-11.985-11.777-11.985-6.809,0-11.752,5.05-11.752,11.985v25.28h-15.363v-25.28c0-16.32,14.193-26.433,27.361-26.433,15.828,0,26.895,10.871,26.895,26.433v25.28Zm-339.414,0-.367-.38-58.553-61.9v62.282h-16.068v-86.663h13.295l.367.379,58.549,61.915v-62.294h16.072v86.663Zm-269.381,0-26.287-31.716-26.5,31.716h-19.111l36.186-43.328-35.943-43.335h19.553l.373.449,25.7,31.273,26.5-31.723h19.109l-35.955,43.106,35.938,43.557Zm477.063-78.735a9.224,9.224,0,0,1,9.3-9.086,8.986,8.986,0,0,1,9.08,9.086,9.193,9.193,0,0,1-9.08,9.3A9.427,9.427,0,0,1-21144.693-16400.887Zm-182.914-172.408v-347.256h174.264v347.256Zm525.84-72.906-72.311,72.316V-16921l274.8,67.5,72.316-67.5v347.115Zm-978.672,24.109-173.561,48.207V-16921l173.561,48.207,173.568-48.207v347.115Z" transform="translate(21954 16921)" fill="#222"/></svg>