<svg width="223" height="565" viewBox="0 0 223 565" fill="none" xmlns="http://www.w3.org/2000/svg">
<path d="M197.955 266.304L197.198 272.013L184.198 264.987L169.275 239.589L177.322 235.185L197.955 266.304Z" fill="white"/>
<path d="M141.661 91.1179L144.327 85.4616L149.734 81.79L153.141 75.6524L156.06 80.4017C156.06 80.4017 160.116 85.8863 160.186 85.0032C160.257 84.12 162.647 73.9189 162.647 73.9189L169.968 61.0186L166.544 54.7669L168.138 50.3362L166.349 45.1761L169.284 33.7524L159.598 14.0051L148.507 8.19203H142.181L146.506 4.73675L139.244 3.9141L131.906 6.8375L125.244 3.9141L117.782 0.837891L105.298 2.19242L97.6664 8.97696L95.0248 18.9856L96.2967 27.1296L88.6655 32.6142L87.0023 34.3359L87.5433 39.2717L88.4894 47.4088L83.5976 53.7379L84.6846 61.0583L91.7141 70.93L104.151 72.5474L105.23 91.1625L121.275 111.302L142.212 113.386C142.212 113.386 146.402 96.9319 146.537 96.6154C146.672 96.2988 141.661 91.1179 141.661 91.1179Z" fill="white"/>
<path d="M197.81 268.643C198.041 268.333 198.223 267.989 198.351 267.623C199.01 263.236 200.947 259.265 202.569 255.206C203.372 253.219 204.274 251.275 205.272 249.381C205.69 248.719 206.228 248.142 206.856 247.681C209.497 245.432 211.771 242.849 212.642 239.411C213.062 237.241 213.308 235.04 213.377 232.83C213.464 231.782 213.329 230.702 213.475 229.665C214.016 225.826 212.605 222.629 210.518 219.643C210.064 218.99 209.891 218.688 210.372 217.91C211.937 215.354 211.345 213.346 208.75 211.659C208.431 211.439 208.178 211.133 208.02 210.775C206.063 206.454 203.867 202.22 202.277 197.761C201.087 194.416 199.033 191.328 198.838 187.659C198.788 186.403 198.943 185.146 199.298 183.941C200.012 181.434 199.465 179.066 198.849 176.674C198.671 175.973 198.6 175.243 198.384 174.557C198.091 173.636 197.752 172.729 197.368 171.842C196.287 169.303 194.973 166.829 194.048 164.224C193.658 162.655 193.413 161.052 193.318 159.436C193.216 158.805 192.983 158.202 192.829 157.577C192.483 156.14 192.144 154.699 191.813 153.255C191.78 153.112 191.845 152.893 191.764 152.822C190.066 151.385 191.169 149.674 191.255 148.044C191.347 146.18 191.33 144.304 191.336 142.44C191.336 139.243 191.563 136.023 191.304 132.848C191.073 128.85 189.553 125.041 186.979 122.005C184.032 118.61 181.206 115.083 178.03 111.919C175.513 109.614 172.861 107.466 170.087 105.488C169.898 105.328 169.68 105.208 169.445 105.135C169.209 105.062 168.962 105.036 168.718 105.06C167.187 105.498 166.014 104.593 164.781 104.094C160.401 102.356 157.021 99.1197 153.35 96.2896C150.115 93.8952 146.764 91.6675 143.309 89.6152C141.881 88.7321 140.471 89.7145 140.302 91.4858C140.304 91.9314 140.333 92.3764 140.388 92.8185C140.611 95.2357 140.673 97.6655 140.572 100.091C140.448 101.381 139.372 102.572 138.728 103.815C138.541 104.099 138.388 104.404 138.274 104.725C138.143 105.308 137.821 105.828 137.36 106.201C136.899 106.574 136.327 106.776 135.738 106.777C130.374 107.556 125.465 106.305 120.647 103.87C116.018 101.55 113.239 97.8863 111.33 93.2908C110.173 90.8817 109.204 88.3839 108.432 85.8206C108 83.5817 107.889 81.2912 108.103 79.0202C108.211 76.4639 107.194 74.2927 106.254 72.0877C105.686 70.766 103.842 70.508 102.468 71.539C98.2887 74.6053 94.4057 78.0268 91.8326 82.6233C90.6918 84.6576 88.9885 84.8937 87.1766 84.9434C83.9324 85.0426 80.6881 84.7846 77.4439 84.9434C75.2253 85.0913 73.0235 85.4346 70.8635 85.9694C68.8901 86.414 66.9814 87.1265 65.0452 87.7298C64.6725 87.8449 64.2831 88.1575 63.9641 88.097C61.5525 87.6693 59.6388 89.0952 57.643 89.9566C55.722 90.7247 53.9543 91.8395 52.4254 93.2471C51.3169 94.3437 50.8033 96.11 50.2085 97.6342C49.5324 99.4115 49.0834 101.27 48.5267 103.092C47.7694 105.566 47.0122 108.028 46.2236 110.507C45.4351 112.986 44.4557 115.443 43.7523 117.988C42.3742 122.793 40.6852 127.5 38.6962 132.079C37.2042 135.578 35.5928 139.033 34.3161 142.614C32.737 147.035 31.5581 151.609 29.9908 156.041C28.9527 158.991 27.4764 161.783 26.319 164.695C25.1244 167.705 24.0854 170.777 22.9554 173.81C21.8743 176.667 20.8793 179.542 19.7112 182.344C18.3896 185.44 18.3194 188.938 19.5155 192.085C19.8817 193.038 20.0202 194.065 19.9197 195.083C19.8192 196.1 19.4826 197.079 18.9373 197.94C17.723 200.036 17.3477 202.525 17.8885 204.894C18.7377 209.079 19.9753 213.192 21.1924 217.289C21.9007 219.664 22.9535 221.934 23.7498 224.287C24.7482 226.803 25.5384 229.398 26.1126 232.047C26.2809 233.562 26.9176 234.985 27.9316 236.111C28.9456 237.237 30.2849 238.009 31.7577 238.316C34.0451 238.911 35.5918 240.466 37.3343 241.732C39.6647 243.427 41.6596 245.571 43.9255 247.388C46.1913 249.205 46.4829 251.732 46.0231 254.184C45.2981 258.078 43.9519 261.862 43.1408 265.735C42.3082 269.716 41.9296 273.791 41.1235 277.772C40.3506 281.568 39.1335 285.265 38.3713 289.054C37.4791 293.441 35.6241 297.506 34.1703 301.706C33.0503 304.908 32.5278 308.293 32.6294 311.688C32.7595 315.834 32.418 319.992 32.5051 324.138C32.582 330.071 31.917 335.99 30.5259 341.754C29.4779 346.744 28.1252 351.664 26.4755 356.485C24.0473 363.099 22.5827 369.949 20.668 376.69C19.6637 380.335 18.3297 383.878 16.6832 387.275C13.7948 393.014 11.4868 399.036 9.79457 405.247C8.7135 409.377 7.32327 413.43 6.20403 417.552C5.21492 421.172 4.39799 424.84 3.50084 428.488C2.41975 432.954 1.48347 437.472 0.207703 441.885C-0.565201 444.564 0.899384 445.724 3.26309 445.51C7.93472 445.131 12.6122 444.692 17.322 444.55C19.0703 444.663 20.7931 445.032 22.4369 445.646C22.7725 445.734 23.1022 446.299 23.2049 446.705C24.194 450.814 25.1303 454.932 26.0871 459.045C27.2709 464.139 28.2503 469.266 30.0563 474.221C31.6784 478.724 32.6979 483.449 33.9697 488.09C34.5108 490.037 34.9921 491.995 35.5106 493.945C36.17 496.441 38.2138 497.319 40.2909 498.201C42.4991 499.079 44.8705 499.453 47.2372 499.298C49.4003 499.232 51.6281 499.846 54.2667 500.22C52.6446 501.893 51.406 503.603 49.46 504.47C47.2489 505.457 45.0154 506.389 42.7495 507.211C40.3545 508.105 40.0893 508.731 40.6783 511.264C41.0188 512.723 41.641 514.166 40.4513 515.811C39.4456 517.187 40.0081 519.102 40.7272 520.616C41.4463 522.13 41.1655 523.073 40.5051 524.542C38.8507 528.214 35.4764 529.306 32.3946 530.746C28.0693 532.775 23.5649 534.516 19.763 537.563C17.73 539.208 15.4964 540.673 13.8851 542.663C12.8018 544.125 12.2617 545.927 12.3598 547.753C12.5823 550.385 13.799 552.827 15.7557 554.57C18.1038 556.847 20.849 557.312 23.5366 557.647C28.5164 558.315 33.5774 558.398 38.612 558.601C39.8864 558.523 41.1524 558.34 42.3973 558.052C46.0739 557.471 49.7995 557.109 53.4116 556.266C56.872 555.454 60.219 554.144 63.6207 553.063C64.5834 552.765 65.551 552.514 66.6654 552.153C66.8252 552.388 66.9628 552.638 67.0763 552.899C67.1382 553.19 67.2603 553.463 67.4346 553.702C67.6089 553.941 67.8313 554.139 68.087 554.284C68.3428 554.429 68.6259 554.516 68.9178 554.542C69.2096 554.567 69.5034 554.528 69.7795 554.429C71.202 554.095 72.6079 553.683 74.0246 553.333C76.4959 552.746 78.9721 552.17 81.4542 551.627C83.6173 551.15 84.3579 550.415 84.7473 548.243C85.5607 543.428 85.6974 538.52 85.1533 533.666C85.0017 532.168 85.3862 530.621 85.2991 529.114C85.0723 524.416 84.1518 519.78 82.5685 515.359C81.2975 511.597 80.6898 507.637 80.7733 503.661C80.7245 502.98 80.6158 502.304 80.4484 501.643C81.1734 500.935 81.916 500.244 82.6116 499.52C84.7747 497.326 86.9369 495.072 89.1274 492.85C91.4901 490.443 93.9341 488.106 96.1951 485.601C97.6047 484.197 98.7531 482.547 99.5851 480.73C100.207 479.124 99.9529 477.158 100.013 475.345C100.083 473.151 100.083 470.957 100.105 468.764C100.137 465.627 100.218 462.489 100.18 459.353C100.109 453.621 99.8864 447.89 99.8864 442.153C99.8864 438.581 100.082 435.024 100.4 431.436C100.669 429.282 101.07 427.146 101.6 425.042C102.682 420.062 103.763 415.083 104.845 410.107C105.231 408.114 105.751 406.149 106.402 404.228C106.743 405.56 106.989 406.937 107.451 408.226C108.592 411.368 108.489 414.594 108.289 417.84C107.996 422.552 107.873 427.284 107.392 431.974C106.814 437.656 105.856 443.294 105.229 448.976C104.915 451.795 104.986 454.658 104.823 457.499C104.693 459.693 104.455 461.886 104.282 464.08C103.882 469.213 103.444 474.347 103.131 479.486C103.051 481.579 103.08 483.675 103.217 485.765C103.248 486.294 103.436 486.801 103.758 487.219C105.164 489.023 106.726 490.713 108.083 492.572C109.746 494.864 111.284 497.255 112.755 499.674C113.017 500.351 113.11 501.084 113.025 501.807C113.025 503.935 113.36 504.226 115.772 503.919C115.674 505.987 115.653 508.021 115.453 510.04C115.282 512.37 114.955 514.686 114.475 516.972C113.976 518.422 113.348 519.823 112.598 521.157C112.232 521.845 111.969 522.584 111.815 523.351C111.357 525.701 111.315 528.115 111.691 530.481C112.18 532.729 111.469 535.214 111.545 537.61C111.622 540.007 111.599 542.426 112.426 544.521C112.935 545.821 114.821 546.715 116.265 547.455C119.672 549.161 123.154 550.746 126.669 552.189C127.613 552.487 128.612 552.559 129.588 552.397C131.249 552.349 132.879 552.861 134.223 553.851C137.467 555.836 140.473 558.238 143.82 559.987C146.583 561.441 149.703 562.181 152.645 563.278C157.815 565.22 163.184 564.71 168.489 564.446C170.25 564.364 171.981 563.465 173.695 562.844C174.885 562.417 176.015 561.807 177.183 561.32C180.325 560.004 181.082 558.117 181.639 554.843C182.195 551.569 180.595 548.811 180.06 545.821C179.854 544.68 178.592 543.485 177.507 542.81C175.468 541.663 173.371 540.625 171.224 539.7C168.521 538.395 166.547 536.217 164.498 534.122C161.693 531.033 158.389 528.453 154.727 526.493C156.809 524.806 156.798 524.815 155.808 522.205C155.527 521.458 155.354 520.674 155.014 519.511C156.208 520.449 157.111 521.08 157.922 521.82C158.112 522.014 158.339 522.166 158.589 522.266C158.84 522.367 159.108 522.414 159.377 522.404C159.645 522.395 159.91 522.33 160.152 522.212C160.395 522.095 160.612 521.927 160.788 521.721C161.329 521.277 161.734 520.712 162.248 520.252C164.951 517.801 164.73 515.376 161.707 513.369C158.343 511.131 154.801 509.167 151.336 507.073C150.379 506.524 149.433 505.888 148.092 505.06C149.657 504.663 150.893 504.357 152.115 504.04C153.337 503.722 154.623 503.706 155.121 502.132C155.246 501.743 156.202 501.709 156.581 501.309C157.889 499.938 159.106 498.479 160.366 497.048C160.837 496.499 161.286 495.952 161.745 495.403C164.103 492.579 166.325 489.627 168.85 486.968C171.204 484.429 173.297 481.652 175.095 478.681C176.296 476.751 177.639 474.896 178.813 472.944C179.19 472.314 179.356 471.578 179.289 470.844C178.115 462.869 178.148 454.823 177.737 446.8C177.65 446.236 177.742 445.659 178 445.153C178.257 444.646 178.667 444.235 179.17 443.98C182.235 441.708 185.131 439.21 187.833 436.505C189.93 434.482 191.558 431.958 193.672 429.962C195.77 428.053 198.364 426.795 201.145 426.337C203.113 425.805 205.134 425.498 207.169 425.421C211.348 425.607 215.517 426.161 219.687 426.622C221.252 426.797 223.19 426.594 222.985 424.351C222.841 421.575 222.508 418.811 221.99 416.081C220.481 409.676 218.616 403.351 217.064 396.951C216.242 393.567 215.983 390.046 215.117 386.673C213.857 381.638 212.175 376.719 210.921 371.689C209.569 366.243 208.439 360.72 207.341 355.235C206.682 351.89 206.26 348.496 205.757 345.114C205.043 340.228 204.387 335.324 203.686 330.437C202.837 324.558 201.925 318.69 201.112 312.811C200.468 308.159 199.83 303.483 199.37 298.842C198.987 294.971 198.932 291.076 198.619 287.204C198.228 282.317 197.699 277.447 197.262 272.566C197.298 271.985 197.177 271.405 196.913 270.888C196.65 270.371 196.252 269.937 195.764 269.631C194.012 268.288 192.491 266.659 191.264 264.811C187.581 259.825 184.04 254.736 180.449 249.696C178.551 247.041 176.633 244.403 174.733 241.757C174.585 241.56 174.457 241.348 174.35 241.126C174.221 240.917 174.14 240.681 174.113 240.436C174.086 240.192 174.112 239.944 174.192 239.711C174.271 239.478 174.401 239.266 174.571 239.09C174.742 238.915 174.949 238.78 175.178 238.697C175.532 238.681 175.885 238.752 176.207 238.904C176.529 239.055 176.81 239.284 177.027 239.569C179.222 242.706 181.277 245.942 183.412 249.128C185.251 251.87 187.073 254.645 189.009 257.322C191.583 260.87 194.254 264.347 196.898 267.84C197.181 268.137 197.489 268.409 197.818 268.652L197.81 268.643ZM94.1973 144.146C93.5867 143.687 92.9242 143.304 92.2239 143.004C89.3798 142.264 86.5191 141.562 83.6428 140.953C82.048 140.619 80.3712 140.619 78.7764 140.213C78.4565 140.061 78.1782 139.831 77.966 139.544C77.7538 139.257 77.6142 138.922 77.5594 138.568C77.5728 137.43 77.7681 136.302 78.1376 135.228C79.3595 131.108 80.6353 127.001 81.9228 122.91C82.7231 120.33 83.5938 117.771 84.3687 115.183C85.8607 110.208 87.337 105.223 88.7537 100.221C89.1646 98.7625 89.2947 97.2264 89.6616 95.7409C89.8428 95.2341 90.0804 94.7501 90.3699 94.298C90.8298 94.7803 91.6418 95.2417 91.679 95.7518C91.7633 97.1335 91.6539 98.5204 91.3541 99.8709C90.7759 102.393 89.9913 104.867 89.3211 107.368C88.0454 112.107 86.7836 116.845 85.5359 121.584C84.7845 124.408 84.0683 127.249 83.2485 130.058C82.6429 132.126 81.8964 134.155 81.1988 136.2C80.9503 136.94 80.9875 137.391 81.9346 137.533C83.4217 137.758 84.8765 138.202 86.3636 138.432C89.5472 138.824 92.6302 139.817 95.4535 141.36C96.0225 141.592 96.4802 142.039 96.7296 142.607C96.9789 143.175 97.0002 143.82 96.7889 144.404C96.2876 146.054 95.5922 147.638 94.7177 149.12C93.2091 151.601 91.4735 153.93 89.8514 156.354C89.2781 157.226 89.1216 158.175 90.1919 158.861C92.524 160.409 94.2462 162.738 95.0582 165.442C96.6803 170.421 98.3455 175.435 99.5841 180.535C101.747 189.393 103.65 198.316 105.532 207.239C106.555 212.092 107.294 217.006 108.166 221.898C109.248 227.993 110.329 234.09 111.41 240.189C111.471 240.39 111.488 240.602 111.46 240.811C111.432 241.019 111.359 241.219 111.248 241.396C111.136 241.573 110.988 241.724 110.813 241.837C110.639 241.951 110.442 242.025 110.236 242.054C109.155 242.344 108.769 241.598 108.565 240.847C108.084 239.037 107.701 237.2 107.348 235.362C106.456 230.674 105.602 225.973 104.742 221.278C103.937 216.89 103.177 212.536 102.341 208.18C101.141 201.928 100.011 195.669 98.6233 189.461C97.4493 184.191 96.0062 178.975 94.568 173.771C93.8311 171.114 92.9595 168.497 91.9568 165.931C90.9892 163.435 89.0697 161.631 87.0905 159.898C86.6506 159.535 86.3422 159.034 86.2139 158.474C86.0856 157.914 86.1448 157.327 86.3821 156.805C86.8687 155.676 87.4583 154.597 88.1432 153.58C90.1302 150.524 92.1202 147.448 94.1973 144.146ZM158.176 147.985C159.576 151.149 160.945 153.969 162.075 156.886C163.697 161.021 165.081 165.239 166.606 169.401C166.807 170.041 166.863 170.719 166.77 171.384C166.676 172.049 166.435 172.684 166.065 173.241C165.346 174.645 164.584 176.038 164.005 177.502C162.49 181.341 160.939 185.207 159.641 189.14C157.279 196.313 155.043 203.528 152.845 210.754C151.422 215.431 150.249 220.193 148.794 224.86C147.713 228.419 146.355 231.905 145.009 235.39C144.336 237.13 143.531 238.815 142.603 240.43C142.366 240.842 141.522 240.88 140.917 241.088C140.729 240.56 140.634 240.004 140.636 239.443C140.855 238.545 141.15 237.668 141.516 236.821C142.397 234.485 143.436 232.192 144.158 229.806C145.677 224.805 147.029 219.753 148.483 214.73C149.424 211.439 150.342 208.116 151.355 204.858C152.822 200.114 154.274 195.371 155.891 190.681C157.163 187.009 158.735 183.447 160.077 179.794C161.082 177.052 161.759 174.189 163.413 171.705C163.697 170.992 163.709 170.198 163.445 169.478C160.995 161.619 157.978 153.953 154.421 146.542C154.305 146.269 154.248 145.974 154.255 145.677C154.261 145.38 154.331 145.088 154.459 144.82C154.661 144.634 154.906 144.5 155.17 144.431C155.435 144.362 155.712 144.359 155.978 144.423C158.763 145.301 161.564 146.168 164.251 147.301C165.666 148.046 167.009 148.924 168.263 149.923C166.976 143.934 165.748 137.857 164.349 131.775C163.392 127.662 162.235 123.593 161.105 119.523C159.84 115.037 158.456 110.583 157.185 106.097C157.157 105.57 157.23 105.043 157.401 104.545L157.89 104.512C158.309 105.019 158.671 105.57 158.971 106.157C160.243 109.492 161.582 112.806 162.659 116.216C164.135 120.88 165.449 125.61 166.725 130.338C167.514 133.273 168.071 136.268 168.796 139.212C169.877 143.599 171.072 147.987 172.04 152.374C172.114 152.793 172.087 153.224 171.962 153.631C171.836 154.038 171.617 154.408 171.321 154.71C170.48 154.902 169.598 154.785 168.834 154.38C168.168 154.069 167.582 153.608 167.12 153.031C164.838 150.352 161.777 149.062 158.182 147.963L158.176 147.985ZM114.41 111.239H114.453C114.39 110.547 114.403 109.85 114.491 109.16C114.706 108.676 115.004 108.234 115.372 107.855C115.642 108.266 116.086 108.656 116.154 109.101C116.3 110.197 116.225 111.295 116.322 112.363C116.662 116.082 117.231 119.795 117.355 123.519C117.551 129.108 117.419 134.708 117.468 140.296C117.522 147.009 117.625 153.723 117.685 160.43C117.734 166.086 117.847 171.755 117.755 177.431C117.631 185.318 117.364 193.199 117.106 201.08C116.987 204.716 116.723 208.342 116.565 211.978C116.322 217.775 116.174 223.577 115.874 229.375C115.761 230.653 115.445 231.905 114.938 233.082C114.782 233.479 113.954 233.751 113.424 233.768C113.197 233.768 112.726 232.962 112.748 232.544C112.953 228.381 113.289 224.219 113.494 220.056C113.764 214.022 113.911 208.034 114.149 202.028C114.414 195.172 114.841 188.317 114.977 181.467C115.096 175.467 114.863 169.46 114.868 163.456C114.868 157.752 114.992 152.045 115.035 146.351C115.063 142.138 115.035 137.932 115.035 133.736C115.035 129.293 115.138 124.851 115.035 120.414C114.986 117.288 114.644 114.244 114.419 111.194L114.41 111.239ZM46.7872 258.223C47.7133 256.747 48.7186 255.325 49.7985 253.962C51.4207 252.147 53.2101 250.495 54.9466 248.795C57.7907 246.004 60.5321 243.098 63.5229 240.476C67.135 237.306 70.7255 234.147 73.4287 230.105C73.8563 229.469 74.1909 228.603 75.0509 229.287C75.2102 229.545 75.3028 229.84 75.3199 230.144C75.337 230.448 75.2781 230.751 75.1487 231.026C73.7361 233.317 72.1583 235.498 70.4281 237.552C68.4274 239.801 66.0255 241.672 63.9397 243.832C61.2903 246.547 58.7221 249.349 56.2107 252.195C54.2481 254.422 52.4792 256.818 50.501 259.023C49.9087 259.563 49.1337 259.85 48.3379 259.824C47.8565 259.829 47.4417 258.974 46.7862 258.223H46.7872ZM149.086 509.266C149.205 509.15 149.319 509.035 149.432 508.914C153.261 511.693 157.781 513.422 161.172 516.872C159.728 518.836 158.966 518.929 157.312 517.382C155.073 515.298 152.835 513.208 150.629 511.091C150.08 510.512 149.564 509.903 149.082 509.266H149.086ZM153.034 523.371C152.931 523.508 152.822 523.64 152.715 523.768C152.201 523.57 151.487 523.521 151.223 523.143C150.7 522.353 150.301 521.485 150.039 520.571C149.79 519.673 149.609 518.756 149.498 517.829C149.357 516.963 149.254 516.091 149.141 515.225L149.605 515.098L153.034 523.371ZM137.748 523.854C136.942 522.899 136.483 521.82 137.305 520.711C137.532 520.398 138.624 520.266 138.797 520.486C139.345 521.094 139.691 521.861 139.786 522.68C139.769 523.952 138.731 524.013 137.747 523.843L137.748 523.854ZM55.5258 516.587C55.7694 515.852 55.7215 514.733 56.9934 514.738C57.2178 514.729 57.4416 514.768 57.6496 514.854C57.8575 514.94 58.0448 515.071 58.1987 515.237C58.3526 515.403 58.4695 515.6 58.5414 515.816C58.6133 516.032 58.6385 516.261 58.6155 516.488C58.5881 517.234 58.5509 518.373 57.2458 518.352C56.1412 518.355 55.6325 517.741 55.5238 516.583L55.5258 516.587ZM135.92 513.121C136.256 512.83 136.817 511.953 137.388 511.953C137.62 511.945 137.85 511.993 138.06 512.093C138.27 512.193 138.454 512.342 138.597 512.527C138.74 512.712 138.838 512.929 138.883 513.16C138.928 513.391 138.918 513.63 138.855 513.856C138.699 514.481 138.109 515.386 137.623 515.452C136.514 515.616 135.983 514.729 135.919 513.118L135.92 513.121ZM139.57 527.583C139.935 527.167 140.376 526.826 140.868 526.58C141.576 526.339 142.706 527.676 142.49 528.631C142.381 529.18 141.679 530.057 141.268 530.04C140.244 529.993 139.564 529.236 139.568 527.58L139.57 527.583ZM47.4642 533.868C47.1883 535.207 46.6042 535.919 45.7031 535.754C45.1621 535.655 44.2914 534.755 44.3403 534.289C44.4174 533.925 44.5831 533.586 44.8224 533.304C45.0616 533.021 45.3668 532.804 45.71 532.672C46.2187 532.585 46.8733 533.426 47.4622 533.865L47.4642 533.868ZM37.5583 539.298C37.9203 538.008 38.2285 537.044 39.3106 537.219C39.8242 537.302 40.6568 538.316 40.5599 538.662C40.4293 539.024 40.2292 539.355 39.9713 539.638C39.7133 539.92 39.4026 540.148 39.0572 540.308C38.7637 540.417 38.0504 539.655 37.5583 539.298ZM149.626 538.043C150.42 537.281 150.908 536.426 151.394 536.426C151.609 536.437 151.82 536.491 152.014 536.586C152.208 536.68 152.382 536.813 152.525 536.977C152.668 537.14 152.777 537.331 152.847 537.537C152.916 537.744 152.945 537.963 152.93 538.181C152.898 538.663 152.076 539.52 151.725 539.459C151.059 539.36 150.519 538.702 149.627 538.044L149.626 538.043ZM47.4671 512.952L47.8585 513.21L44.2307 519.122C43.0625 515.689 46.4046 515.02 47.4642 512.952H47.4671ZM144.181 532.486C144.468 532.239 144.89 531.603 145.403 531.516C146.437 531.34 146.842 532.21 146.944 533.084C147.047 533.959 146.49 534.33 145.701 534.352C144.722 534.379 144.301 533.803 144.181 532.487V532.486ZM58.3738 507.182H59.088C59.4021 507.763 59.9587 508.356 59.9421 508.931C59.9421 509.398 59.2279 509.841 58.8336 510.297C58.3445 509.852 57.5089 509.452 57.4493 508.953C57.3896 508.454 58.0549 507.779 58.3738 507.182ZM49.0305 529.06C49.4456 528.298 49.9097 527.565 50.4198 526.865C50.8927 526.926 51.3265 527.162 51.6369 527.529C51.7315 527.781 51.7713 528.051 51.7535 528.32C51.7358 528.589 51.661 528.85 51.5341 529.087C50.9638 530.037 50.139 529.906 49.0305 529.061V529.06ZM56.1461 523.433L54.524 524.922C54.1561 524.494 53.6102 524.121 53.4429 523.632C53.1562 522.661 53.9839 522.277 54.6864 522.266C55.1081 522.26 55.5082 522.885 56.1461 523.433ZM43.6496 510.018L46.2129 508.987L46.3371 509.185L44.0712 511.308C43.9098 510.814 43.7905 510.456 43.6506 510.019L43.6496 510.018Z" fill="black"/>
<path d="M86.4546 35.0015C87.3675 34.8707 88.2633 34.6378 89.1256 34.3069C91.5646 33.0675 93.9488 31.707 96.3331 30.3525C96.9802 30.0213 97.4992 29.4796 97.8069 28.814C98.1146 28.1483 98.1934 27.3972 98.0305 26.6808C97.5532 23.6236 97.2339 20.5432 97.0737 17.4522C96.8898 11.3315 100.08 7.15283 105.244 4.55194C111.289 1.50251 117.502 1.81014 123.671 4.31576C124.32 4.57873 124.807 5.23168 125.45 5.55518C125.946 5.72181 126.463 5.81408 126.986 5.82906C126.986 5.28031 127.148 4.49042 126.877 4.27111C125.847 3.32296 124.671 2.552 123.395 1.98875C119.216 0.500263 114.982 -0.583356 110.418 0.343478C105.13 1.44 100.382 3.32046 97.0844 7.92288C94.6422 11.2669 93.5638 15.4365 94.0731 19.5659C94.3108 21.7599 94.4948 23.9529 94.7325 26.147C94.8101 26.5826 94.7274 27.032 94.5002 27.41C94.2731 27.788 93.9171 28.0684 93.4998 28.1981C91.4129 29.2242 89.3907 30.3922 87.3899 31.5929C86.211 32.3193 86.0486 32.9831 86.4546 35.0015Z" fill="black"/>
<path d="M169.309 34.2399C169.015 30.6102 168.081 27.0635 166.551 23.7689C165.059 20.3414 163.527 16.9298 161.013 14.0947C157.26 9.86041 152.805 7.03624 147.041 6.8606C145.507 6.81437 143.972 6.91404 142.456 7.1583C141.967 7.23471 141.575 7.95911 141.148 8.3868C141.644 8.69403 142.195 8.90061 142.77 8.9951C145.965 8.72632 149.175 9.281 152.102 10.6076C156.131 12.5515 159.447 15.7408 161.576 19.7172C163.209 22.7922 164.679 25.954 165.978 29.189C166.545 30.7092 166.932 32.2925 167.13 33.9055C167.26 34.7113 167.13 35.7651 168.119 35.6659C168.643 35.6212 169.082 34.5356 169.309 34.2399Z" fill="black"/>
<path d="M164.901 70.9568C165.156 68.5057 163.658 66.7503 162.26 65.242C159.156 61.8859 159.48 58.4683 161.135 54.6459C161.721 53.3011 161.884 51.8051 161.599 50.363C160.431 45.7725 158.815 41.3328 155.706 37.6503C155.188 36.9924 154.582 36.411 153.906 35.9227C153.565 35.7034 152.949 35.9227 152.457 35.9227C152.549 36.3613 152.495 36.9428 152.75 37.2127C155.05 39.779 156.757 42.833 157.747 46.1526C158.13 47.3096 158.529 48.4667 158.93 49.6188C159.471 51.1708 158.973 52.5799 158.53 54.0773C157.871 56.32 157.049 58.6738 157.152 60.9382C157.227 62.6937 158.552 64.4213 159.455 66.0884C159.996 67.1145 161.077 67.8984 161.46 68.9572C161.781 70.2179 162.007 71.5013 162.136 72.7966C162.334 73.3756 162.601 73.9281 162.931 74.4418C163.472 74.0449 164.203 73.7621 164.478 73.2302C164.741 72.5012 164.884 71.7331 164.901 70.9568Z" fill="black"/>
<path d="M128.108 28.0488C126.021 28.1239 123.995 28.7844 122.256 29.9568C120.517 31.1293 119.132 32.7679 118.256 34.6905C117.034 37.7339 115.925 40.828 114.636 43.8387C113.932 45.4642 113.091 47.0247 112.121 48.5027C110.159 51.5084 107.23 51.4916 104.167 50.9101C103.838 50.8446 103.47 50.6124 103.194 50.6957C102.68 50.8605 101.885 51.1453 101.831 51.4896C101.816 51.7813 101.872 52.0722 101.994 52.337C102.116 52.6017 102.299 52.8324 102.529 53.0088C104.465 54.0948 106.732 54.4072 108.884 53.8846C111.036 53.3621 112.917 52.0424 114.159 50.1847C116.473 46.6123 117.765 42.6271 119.182 38.6677C119.988 36.4082 120.685 34.0167 122.594 32.3883C123.696 31.4511 124.992 30.7772 126.385 30.4164C127.779 30.0557 129.234 30.0174 130.644 30.3044C131.207 30.2698 131.758 30.1245 132.267 29.8767C131.866 29.4708 131.537 28.8734 131.055 28.7028C130.089 28.4154 129.104 28.1969 128.108 28.0488Z" fill="black"/>
<path d="M85.162 55.6952C85.0593 54.8546 85.2408 54.0036 85.677 53.2813C86.1131 52.559 86.7779 52.0081 87.5628 51.7189C90.8452 50.1232 92.0182 48.2458 90.1261 43.9311C89.9598 43.5742 89.8135 43.2082 89.6878 42.8346C89.3943 41.8691 88.6067 40.6406 88.9628 39.9936C89.7812 38.8548 90.7745 37.8568 91.9048 37.0374C92.4005 36.6855 92.8755 36.3045 93.3273 35.8962C93.4352 35.7376 93.5017 35.5539 93.5207 35.3622C93.5397 35.1704 93.5106 34.9769 93.4359 34.7997C93.3125 34.6401 93.1523 34.5136 92.9694 34.4315C92.7866 34.3493 92.5866 34.3139 92.3871 34.3284C89.7795 35.1026 87.5805 36.893 86.2714 39.3079C85.4173 40.9531 86.2714 42.5548 86.8124 44.1345C87.1778 44.9797 87.4292 45.8708 87.5599 46.7841C87.5599 47.2227 86.9602 47.7823 86.516 48.1445C85.5748 48.9066 84.4614 49.4604 83.6073 50.2999C81.315 52.5376 81.093 55.1623 82.1799 57.9785C82.5859 59.0314 83.1152 60.0406 83.5966 61.0607C84.0349 61.9984 84.8939 62.5581 85.7108 62.0748C85.9763 61.7967 86.1741 61.4595 86.2886 61.0902C86.4031 60.7208 86.431 60.3295 86.3702 59.9473C86.0514 58.5051 85.6469 57.0838 85.159 55.6912L85.162 55.6952Z" fill="black"/>
<path d="M106.833 63.878C107.768 69.6206 109.169 74.8085 112.703 79.2343C114.751 81.8513 117.269 84.051 120.124 85.7172C120.59 86.0532 121.143 86.244 121.714 86.2659C122.131 86.2163 122.795 85.6299 122.795 85.2954C122.774 84.992 122.693 84.696 122.557 84.4247C122.422 84.1534 122.234 83.9123 122.005 83.7156C120.734 82.7174 119.161 82.0704 118.058 80.9183C116.222 79.1788 114.638 77.1847 113.354 74.9951C111.873 71.8205 110.557 68.5691 109.412 65.2544C109.199 64.6597 108.893 64.1041 108.504 63.6091C108.356 63.4547 108.174 63.3373 107.973 63.266C107.772 63.1947 107.558 63.1715 107.347 63.1983C107.049 63.2251 106.887 63.7897 106.833 63.878Z" fill="black"/>
<path d="M93.3163 52.3916C93.9542 56.2309 94.9384 59.461 98.1826 61.3226C98.6346 61.5872 99.1398 61.7444 99.6603 61.7824C100.181 61.8203 100.703 61.738 101.188 61.5416C101.672 61.3451 102.107 61.0398 102.458 60.6484C102.809 60.2571 103.069 59.79 103.216 59.2823C103.368 58.7336 102.968 58.0042 102.816 57.3632C102.211 57.5279 101.459 57.5219 101.027 57.9119C99.9456 58.8497 99.0964 58.9043 98.1122 57.8187C97.0847 56.7194 96.3962 55.3397 96.1312 53.849C95.8661 52.3583 96.0361 50.8216 96.6202 49.4275C97.1935 47.7823 98.8861 47.5788 100.044 48.8242C100.369 49.1695 101.001 49.2211 101.489 49.4107C101.575 48.8619 101.846 48.2804 101.705 47.8229C101.555 47.2065 101.209 46.6573 100.72 46.2607C100.231 45.864 99.6274 45.6419 99.0015 45.6289C97.3794 45.6289 95.6653 46.0844 94.8866 47.6969C94.2455 49.2188 93.7206 50.7883 93.3163 52.3916Z" fill="black"/>
<path d="M157.646 67.1415L156.791 65.7324C156.4 66.1442 155.85 66.4896 155.656 66.9778C154.303 70.3398 153.233 73.8338 151.66 77.0747C150.219 79.8305 148.07 82.1403 145.442 83.76C145.403 83.76 145.333 83.76 145.311 83.8206C144.92 84.4785 144.529 85.1423 144.137 85.8052C144.88 85.9835 145.649 86.0172 146.403 85.9044C150.443 84.3465 152.735 80.9686 154.385 77.2007C155.558 74.1917 156.574 71.1221 157.429 68.0048C157.465 67.7594 157.465 67.51 157.429 67.2646L157.646 67.1415Z" fill="black"/>
<path d="M143.084 23.2041C141.83 23.61 140.541 23.9335 139.342 24.4544C138.846 24.7504 138.475 25.2208 138.298 25.7762C137.996 26.6425 138.617 27.2131 139.499 26.9829C145.247 25.4855 148.388 26.7417 151.67 31.8314C151.904 32.2669 152.234 32.6421 152.633 32.9279C153.166 33.1514 153.725 33.3061 154.296 33.3884C154.334 32.7414 154.643 31.9296 154.367 31.4851C153.401 29.7961 152.265 28.2135 150.977 26.7626C149.977 25.6458 148.759 24.7526 147.4 24.1399C146.041 23.5272 144.572 23.2085 143.084 23.2041Z" fill="black"/>
<path d="M170.686 61.0306C170.885 60.7899 171.03 60.5083 171.112 60.2052C171.193 59.9022 171.208 59.5848 171.157 59.2751C171.105 58.9654 170.988 58.6707 170.814 58.4113C170.639 58.152 170.411 57.9341 170.145 57.7728C168.399 56.3468 168.491 54.5477 169.328 52.8866C170.698 50.1716 169.096 46.1626 167.29 44.3416C167.019 44.1439 166.705 44.0178 166.374 43.9746C166.044 43.9315 165.708 43.9727 165.397 44.0946C164.629 44.5907 165.397 45.1256 165.744 45.6416C167.252 47.786 167.907 50.0287 166.755 52.6345C164.814 57.0216 166.404 58.525 169.313 60.7518C169.67 61.0256 170.286 60.9542 170.686 61.0306Z" fill="black"/>
<path d="M140.191 2.20419C137.756 2.19515 135.373 2.91637 133.342 4.27716C132.038 5.0907 130.845 6.07532 129.795 7.20551C129.305 7.75427 128.881 9.15841 129.157 9.43726C129.968 10.2659 130.892 9.58512 131.7 8.97087C133.009 7.96762 134.366 7.02392 135.691 6.04251C138.563 3.91992 141.639 4.75943 144.77 5.22483C145.377 5.18325 145.972 5.02709 146.522 4.76439C146.09 4.30395 145.733 3.5855 145.214 3.42574C143.402 2.85714 141.537 2.51081 140.191 2.20419Z" fill="black"/>
<path d="M134.838 23.5732C133.865 19.0263 132.459 14.6889 128.088 12.1822C127.591 11.8974 126.795 12.1822 126.131 12.1822C126.283 12.8461 126.212 13.7779 126.62 14.1242C129.066 16.1813 130.2 19.0601 131.589 21.8029C131.837 22.4382 131.962 23.1161 131.957 23.7994C132.038 24.8195 132.238 25.9935 133.363 25.9935C134.589 25.9309 134.93 24.8126 134.838 23.5732Z" fill="black"/>
<path d="M130.826 74.5508C129.052 74.1062 127.284 73.618 125.495 73.2607C124.971 73.2627 124.452 73.3637 123.965 73.5584C124.246 74.2719 124.365 75.4181 124.845 75.6046C126.437 76.2063 128.089 76.6312 129.771 76.8718C132.621 77.3214 135.492 77.629 138.358 77.9683C139.161 78.0997 139.976 78.133 140.787 78.0676C141.127 78.018 141.522 77.5188 141.657 77.0971C141.717 76.9274 141.208 76.3677 140.884 76.2913C138.764 75.7951 136.618 75.4081 134.488 74.9477" fill="black"/>
<path d="M97.9368 66.521H93.9402C93.2778 66.5455 92.6387 66.7752 92.1089 67.1791C91.5791 67.5831 91.184 68.142 90.9767 68.7805C90.8127 69.3869 90.8396 70.0301 91.0538 70.6201C91.268 71.2101 91.6587 71.7175 92.1713 72.0711C92.4304 72.2625 92.7246 72.3994 93.0366 72.4739C93.3486 72.5484 93.6721 72.5589 93.9881 72.5048C94.2532 72.4551 94.5291 71.4737 94.4695 70.9527C94.3667 70.0041 94.6534 69.6915 95.5506 69.7243C96.5704 69.8423 97.6018 69.8052 98.6108 69.6141C99.3515 69.4057 100.395 68.6982 100.481 68.0899C100.48 67.0768 100.209 66.0829 99.6988 65.2121C99.5382 65.0509 99.3398 64.9336 99.1223 64.8713C98.9048 64.809 98.6753 64.8037 98.4553 64.8559C98.1588 65.1109 98.154 65.742 97.9368 66.521Z" fill="black"/>
<path d="M121.049 40.4375C120.735 40.6519 120.152 40.9148 120.179 41.0627C120.271 41.6114 120.438 42.3081 120.822 42.5432C122.681 43.6785 124.608 44.6877 126.532 45.7356C127.192 46.1547 127.889 46.5105 128.614 46.7983C129.177 46.8835 129.749 46.8835 130.312 46.7983C130.16 46.2496 130.192 45.3892 129.822 45.1531C128.066 43.924 126.247 42.7908 124.372 41.7583C123.295 41.2383 122.184 40.7966 121.046 40.4365L121.049 40.4375Z" fill="black"/>
<path d="M144.785 48.2535C146.023 47.8913 146.991 47.5847 147.964 47.3157C149.364 46.9317 150.801 46.641 152.165 46.1696C152.57 46.0267 152.814 45.4125 153.128 45.0175C152.679 44.7268 152.176 44.1244 151.797 44.1998C149.449 44.6444 147.115 45.1872 144.817 45.8451C144.57 45.9704 144.356 46.1538 144.194 46.38C144.031 46.6061 143.924 46.8684 143.881 47.1451C143.856 47.4904 144.484 47.9022 144.785 48.2535Z" fill="black"/>
<path d="M134.811 71.0301C136.714 70.4486 138.402 70.01 140.029 69.3849C140.233 69.2212 140.392 69.0081 140.493 68.7653C140.595 68.5225 140.634 68.2578 140.607 67.9956C140.483 67.7705 140.304 67.5816 140.087 67.4471C139.87 67.3126 139.623 67.237 139.369 67.2275C137.782 67.4043 136.216 67.7329 134.691 68.2089C134.384 68.3793 134.117 68.6143 133.907 68.898C133.697 69.1818 133.55 69.5078 133.474 69.8542C133.416 70.1251 134.336 70.6352 134.811 71.0301Z" fill="black"/>
<path d="M157.191 78.5381C156.823 78.9876 156.277 79.3885 156.11 79.9035C155.569 81.7076 157.516 85.4923 159.273 86.1175C159.817 86.2048 160.374 86.0876 160.838 85.788C160.906 85.5901 160.928 85.3792 160.903 85.1713C160.879 84.9634 160.809 84.7638 160.698 84.5873C158.948 83.1087 157.838 80.9946 157.605 78.6969L157.191 78.5381Z" fill="black"/>
<path d="M132.453 89.1446L133.302 90.2411C133.784 89.8293 134.616 89.4681 134.681 89.0017C134.905 87.1275 135.008 85.2403 134.989 83.3524C134.989 83.0071 134.448 82.6578 134.124 82.3154C133.756 82.6558 133.124 82.9515 133.043 83.3415C132.788 85.086 132.674 86.8633 132.453 89.1446Z" fill="black"/>
<path d="M136.056 89.2607C136.121 89.3262 136.311 89.7052 136.597 89.8094C136.884 89.9136 137.505 89.7816 137.544 89.6338C137.873 88.4162 138.123 87.1776 138.29 85.9264C138.29 85.7617 137.674 85.331 137.349 85.34C137.024 85.3489 136.776 85.7895 136.554 86.0912C136.428 86.3018 136.354 86.54 136.338 86.7858C136.237 87.5003 136.168 88.2237 136.056 89.2607Z" fill="black"/>
<path d="M128.192 87.9648C128.895 88.6068 129.273 89.2429 129.739 89.3143C130.653 89.4512 131.524 87.8665 131.361 86.2927C131.312 85.8372 130.723 85.4422 130.383 85.0205L128.192 87.9648Z" fill="black"/>
<path d="M121.162 53.2048C121.036 53.2935 120.93 53.4104 120.855 53.5466C120.779 53.6828 120.735 53.8347 120.726 53.9907C120.717 54.1468 120.744 54.3028 120.804 54.4469C120.863 54.591 120.954 54.7194 121.07 54.8223C121.444 55.2194 121.9 55.5266 122.406 55.7214C122.725 55.8087 123.678 54.8878 123.72 54.3777C123.78 53.5382 123.379 52.4923 122.205 52.6779C121.824 52.7744 121.468 52.9543 121.161 53.2048H121.162Z" fill="black"/>
<path d="M128.716 85.1344C128.391 84.6848 128.175 84.0378 127.753 83.9059C127.483 83.8066 126.807 84.3286 126.606 84.7285C126.294 85.3866 126.11 86.1001 126.065 86.8292C126.083 87.0233 126.148 87.2099 126.255 87.3719C126.361 87.5338 126.507 87.6659 126.677 87.7561C126.868 87.7834 127.062 87.7626 127.243 87.6957C127.424 87.6287 127.586 87.5175 127.715 87.372C128.102 86.6518 128.436 85.9039 128.716 85.1344Z" fill="black"/>
<path d="M139.796 87.5153C140.158 87.9321 140.521 88.7061 140.878 88.7061C142.143 88.7061 142.143 87.5153 142.17 86.6659C142.17 86.1171 141.661 85.1248 141.353 85.1188C139.936 85.0851 140.18 86.3087 139.796 87.5153Z" fill="black"/>
<path d="M144.67 56.235C146.2 56.235 146.431 55.4342 146.519 54.5898C146.54 54.4037 146.515 54.2152 146.447 54.0412C146.379 53.8673 146.269 53.7131 146.128 53.5926C145.986 53.472 145.818 53.3888 145.637 53.3504C145.456 53.3119 145.269 53.3194 145.092 53.3722C144.764 53.5116 144.472 53.7248 144.238 53.9956C144.004 54.2663 143.833 54.5876 143.74 54.9351C143.658 55.3151 144.426 55.9105 144.67 56.235Z" fill="black"/>
<path d="M94.1959 144.147C92.1032 147.437 90.1299 150.525 88.1937 153.629C87.5088 154.646 86.9193 155.726 86.4327 156.854C86.1954 157.377 86.1362 157.964 86.2644 158.524C86.3927 159.084 86.7011 159.585 87.141 159.947C89.1095 161.664 91.029 163.468 92.0073 165.981C93.01 168.547 93.8816 171.163 94.6186 173.82C96.0567 179.025 97.4949 184.24 98.6739 189.511C100.058 195.719 101.188 201.982 102.392 208.229C103.224 212.589 103.986 216.962 104.792 221.328C105.652 226.023 106.507 230.722 107.399 235.412C107.75 237.255 108.135 239.092 108.616 240.897C108.812 241.648 109.227 242.394 110.287 242.103C110.492 242.074 110.689 242.001 110.864 241.887C111.038 241.774 111.186 241.623 111.298 241.446C111.41 241.268 111.482 241.069 111.51 240.86C111.538 240.652 111.522 240.44 111.461 240.239C110.38 234.14 109.298 228.043 108.217 221.948C107.346 217.056 106.595 212.142 105.583 207.288C103.702 198.365 101.798 189.442 99.6346 180.585C98.396 175.484 96.7582 170.472 95.1087 165.492C94.2968 162.787 92.5745 160.458 90.2424 158.91C89.1613 158.225 89.3286 157.265 89.9019 156.404C91.524 153.98 93.2489 151.655 94.7683 149.17C95.6427 147.688 96.3381 146.104 96.8394 144.453C97.0507 143.869 97.0294 143.225 96.7801 142.657C96.5308 142.089 96.073 141.641 95.504 141.41C92.6787 139.872 89.5966 138.879 86.4141 138.481C84.927 138.251 83.4722 137.807 81.9851 137.582C81.039 137.439 81.0009 136.987 81.2494 136.25C81.9469 134.203 82.6934 132.175 83.299 130.107C84.1208 127.299 84.835 124.458 85.5864 121.634C86.8517 116.895 88.1135 112.156 89.3717 107.418C90.0418 104.917 90.8265 102.443 91.4047 99.9206C91.7045 98.57 91.8138 97.1831 91.7295 95.8014C91.6972 95.2914 90.8803 94.8309 90.4214 94.3477C90.1319 94.7997 89.8943 95.2838 89.7131 95.7905C89.3668 97.279 89.2161 98.8121 88.8052 100.271C87.3885 105.272 85.9122 110.258 84.4202 115.232C83.6473 117.821 82.7981 120.382 81.9743 122.959C80.7025 127.062 79.4218 131.159 78.189 135.277C77.8196 136.352 77.6243 137.48 77.6108 138.617C77.6657 138.972 77.8053 139.307 78.0175 139.594C78.2297 139.88 78.5079 140.11 78.8279 140.263C80.4011 140.669 82.0721 140.669 83.6943 141.003C86.5706 141.612 89.4313 142.314 92.2754 143.054C92.9618 143.328 93.608 143.695 94.1959 144.147Z" fill="white"/>
<path d="M158.175 147.964C161.77 149.061 164.828 150.328 167.145 152.999C167.607 153.576 168.194 154.038 168.859 154.349C169.649 154.656 170.752 155.018 171.346 154.678C171.654 154.384 171.881 154.015 172.007 153.606C172.133 153.197 172.153 152.762 172.065 152.342C171.071 147.955 169.902 143.567 168.821 139.18C168.096 136.235 167.54 133.24 166.75 130.307C165.478 125.579 164.16 120.852 162.684 116.184C161.603 112.778 160.268 109.46 158.997 106.126C158.697 105.539 158.334 104.987 157.916 104.48L157.426 104.513C157.345 105.062 157.08 105.61 157.21 106.065C158.482 110.552 159.865 115.005 161.13 119.491C162.277 123.56 163.433 127.628 164.375 131.744C165.775 137.804 167.002 143.903 168.288 149.891C167.034 148.893 165.692 148.015 164.277 147.27C161.574 146.134 158.788 145.268 156.004 144.392C155.738 144.328 155.46 144.33 155.196 144.4C154.931 144.469 154.687 144.602 154.484 144.789C154.356 145.056 154.287 145.348 154.28 145.645C154.274 145.943 154.33 146.238 154.446 146.511C158.004 153.921 161.02 161.587 163.471 169.446C163.735 170.166 163.724 170.961 163.438 171.673C161.784 174.154 161.108 177.021 160.102 179.762C158.761 183.415 157.194 186.98 155.917 190.649C154.295 195.338 152.846 200.082 151.38 204.827C150.369 208.117 149.45 211.408 148.509 214.698C147.075 219.722 145.724 224.773 144.183 229.775C143.458 232.156 142.422 234.453 141.542 236.789C141.175 237.636 140.881 238.513 140.661 239.411C140.661 239.972 140.756 240.529 140.942 241.056C141.52 240.848 142.391 240.809 142.629 240.399C143.557 238.784 144.361 237.099 145.035 235.359C146.37 231.875 147.701 228.387 148.82 224.828C150.275 220.164 151.448 215.401 152.87 210.722C155.07 203.494 157.304 196.282 159.667 189.108C160.964 185.176 162.517 181.331 164.03 177.47C164.608 176.005 165.372 174.613 166.091 173.209C166.452 172.648 166.688 172.014 166.781 171.35C166.875 170.687 166.824 170.011 166.632 169.37C165.106 165.207 163.697 160.99 162.1 156.855C160.944 153.948 159.576 151.129 158.175 147.964Z" fill="white"/>
<path d="M114.409 111.197C114.631 114.246 114.977 117.29 115.047 120.339C115.15 124.776 115.047 129.219 115.047 133.661V146.276C115.004 151.974 114.88 157.678 114.88 163.381C114.88 169.414 115.107 175.389 114.988 181.392C114.853 188.248 114.447 195.103 114.161 201.953C113.923 207.959 113.777 213.975 113.506 219.981C113.317 224.144 112.965 228.306 112.76 232.469C112.76 232.886 113.209 233.698 113.436 233.692C113.977 233.692 114.793 233.401 114.95 233.006C115.457 231.829 115.773 230.578 115.886 229.299C116.179 223.502 116.335 217.699 116.577 211.902C116.723 208.266 116.988 204.64 117.118 201.005C117.373 193.123 117.659 185.242 117.767 177.355C117.859 171.699 117.767 166.036 117.697 160.354C117.637 153.647 117.534 146.934 117.48 140.22C117.431 134.632 117.562 129.032 117.367 123.443C117.243 119.719 116.675 116.007 116.334 112.287C116.236 111.191 116.334 110.093 116.166 109.025C116.102 108.58 115.658 108.191 115.384 107.779C115.016 108.158 114.718 108.6 114.503 109.084C114.414 109.774 114.402 110.471 114.465 111.163L114.409 111.197Z" fill="white"/>
<path d="M46.7868 258.22C47.4462 258.971 47.8679 259.826 48.2954 259.865C49.0913 259.891 49.8663 259.604 50.4586 259.064C52.4378 256.87 54.2057 254.463 56.1682 252.236C58.6767 249.39 61.2459 246.587 63.8972 243.872C66.0007 241.711 68.4065 239.842 70.3857 237.593C72.1083 235.531 73.678 233.341 75.0818 231.044C75.2112 230.769 75.2701 230.466 75.253 230.162C75.2359 229.858 75.1433 229.563 74.984 229.305C74.1455 228.619 73.8099 229.486 73.3618 230.122C70.6586 234.164 67.0681 237.323 63.456 240.493C60.4661 243.114 57.7248 246.021 54.8797 248.812C53.1441 250.512 51.343 252.163 49.7316 253.978C48.6907 255.2 47.8532 256.692 46.7868 258.22Z" fill="white"/>
<path d="M149.086 509.264C149.568 509.901 150.085 510.511 150.633 511.09C152.839 513.207 155.078 515.297 157.316 517.381C158.971 518.928 159.734 518.834 161.177 516.871C157.781 513.421 153.261 511.694 149.437 508.913C149.319 509.032 149.206 509.149 149.086 509.264Z" fill="white"/>
<path d="M153.031 523.369L149.614 515.143L149.149 515.269C149.263 516.135 149.365 517.007 149.506 517.873C149.617 518.8 149.798 519.717 150.047 520.616C150.309 521.53 150.709 522.398 151.231 523.188C151.496 523.566 152.209 523.616 152.723 523.814C152.815 523.658 152.918 523.509 153.031 523.369Z" fill="white"/>
<path d="M137.747 523.841C138.731 524 139.77 523.941 139.786 522.689C139.691 521.871 139.345 521.103 138.797 520.495C138.624 520.276 137.532 520.408 137.305 520.721C136.461 521.817 136.942 522.898 137.747 523.841Z" fill="white"/>
<path d="M55.5232 516.585C55.6318 517.742 56.1396 518.335 57.2265 518.352C58.5297 518.352 58.5678 517.255 58.5962 516.487C58.6193 516.261 58.594 516.032 58.5221 515.816C58.4502 515.6 58.3333 515.402 58.1794 515.236C58.0256 515.07 57.8383 514.94 57.6303 514.854C57.4223 514.768 57.1985 514.728 56.9741 514.738C55.7179 514.732 55.7668 515.85 55.5232 516.585Z" fill="white"/>
<path d="M135.919 513.122C135.983 514.734 136.513 515.603 137.622 515.453C138.111 515.387 138.703 514.482 138.855 513.857C138.918 513.631 138.927 513.392 138.882 513.161C138.838 512.93 138.74 512.713 138.597 512.528C138.454 512.343 138.27 512.194 138.06 512.094C137.849 511.995 137.619 511.946 137.387 511.954C136.816 511.95 136.253 512.824 135.919 513.122Z" fill="white"/>
<path d="M139.568 527.581C139.568 529.226 140.244 529.994 141.288 530.038C141.699 530.038 142.402 529.183 142.51 528.629C142.705 527.652 141.575 526.337 140.888 526.578C140.387 526.822 139.939 527.163 139.568 527.581Z" fill="white"/>
<path d="M47.4629 533.87C46.8759 533.432 46.2194 532.587 45.7106 532.67C45.3674 532.802 45.0623 533.019 44.8231 533.302C44.5838 533.584 44.4181 533.923 44.341 534.287C44.292 534.754 45.1413 535.648 45.7038 535.752C46.6029 535.907 47.187 535.204 47.4629 533.87Z" fill="white"/>
<path d="M37.555 539.298C38.096 539.654 38.7554 540.394 39.0528 540.285C39.3982 540.125 39.7089 539.898 39.9669 539.615C40.2249 539.333 40.425 539.001 40.5556 538.64C40.6534 538.273 39.8198 537.279 39.3062 537.197C38.2251 537.043 37.917 538.009 37.555 539.298Z" fill="white"/>
<path d="M149.625 538.046C150.533 538.704 151.085 539.362 151.723 539.461C152.074 539.522 152.897 538.667 152.928 538.183C152.943 537.965 152.914 537.746 152.845 537.54C152.775 537.333 152.666 537.142 152.523 536.979C152.38 536.815 152.206 536.682 152.012 536.588C151.818 536.493 151.607 536.439 151.392 536.428C150.91 536.456 150.421 537.283 149.625 538.046Z" fill="white"/>
<path d="M47.468 512.955C46.387 515.023 43.0654 515.697 44.2238 519.125L47.8516 513.213L47.468 512.955Z" fill="white"/>
<path d="M144.181 532.484C144.3 533.8 144.722 534.376 145.7 534.349C146.49 534.349 147.052 533.938 146.944 533.082C146.835 532.225 146.435 531.337 145.403 531.513C144.888 531.601 144.467 532.236 144.181 532.484Z" fill="white"/>
<path d="M58.3741 507.185C58.0336 507.78 57.385 508.413 57.4495 508.956C57.5141 509.499 58.3418 509.855 58.8339 510.299C59.2253 509.844 59.915 509.4 59.9424 508.934C59.9424 508.358 59.4014 507.766 59.0883 507.185H58.3741Z" fill="white"/>
<path d="M49.0317 529.062C50.1402 529.906 50.9678 530.038 51.5353 529.111C51.6621 528.875 51.7369 528.613 51.7547 528.344C51.7724 528.075 51.7326 527.805 51.638 527.554C51.3277 527.187 50.8938 526.95 50.4209 526.89C49.9117 527.582 49.4476 528.308 49.0317 529.062Z" fill="white"/>
<path d="M56.1475 523.436C55.5096 522.887 55.1094 522.262 54.72 522.268C54.0176 522.268 53.1899 522.665 53.4765 523.633C53.6223 524.129 54.1682 524.499 54.5576 524.923L56.1475 523.436Z" fill="white"/>
<path d="M43.6494 510.02C43.7903 510.459 43.9087 510.814 44.0711 511.31L46.3369 509.188L46.2127 508.989L43.6494 510.02Z" fill="white"/>
</svg>
