<svg width="810" height="560" viewBox="0 0 810 560" fill="none" xmlns="http://www.w3.org/2000/svg">
<path d="M389.039 0C268.803 21.6162 22.664 65.8182 0 69.697V516.667L180.355 560L760.123 492.424L810 136.97L389.039 0Z" fill="white"/>
<circle cx="199" cy="307" r="32" stroke="black" stroke-width="4"/>
<circle cx="547.5" cy="280.5" r="20.5" stroke="black" stroke-width="4"/>
<path d="M265.851 146.068L272.549 167.399L272.905 168.532L274.07 168.762L296.005 173.092L277.787 186.053L276.82 186.742L276.961 187.921L279.621 210.12L261.665 196.799L260.711 196.092L259.633 196.591L239.343 205.981L246.462 184.787L246.84 183.661L246.033 182.79L230.832 166.394L253.189 166.616L254.377 166.628L254.955 165.591L265.851 146.068Z" stroke="black" stroke-width="4"/>
<path d="M585.814 350.709L596.693 361.363L597.542 362.194L598.678 361.847L613.24 357.395L606.469 371.034L605.941 372.098L606.622 373.07L615.356 385.544L600.292 383.319L599.117 383.146L598.402 384.094L589.238 396.255L586.699 381.241L586.501 380.07L585.378 379.683L570.98 374.726L584.475 367.671L585.528 367.121L585.548 365.934L585.814 350.709Z" stroke="black" stroke-width="4"/>
<rect x="232.388" y="409.944" width="53" height="53" transform="rotate(-12.5934 232.388 409.944)" stroke="black" stroke-width="4"/>
<rect x="121.388" y="200.946" width="34.6637" height="34.6637" transform="rotate(-12.5934 121.388 200.946)" stroke="black" stroke-width="4"/>
<rect x="416.282" y="202.615" width="79" height="48" rx="24" transform="rotate(-10.5195 416.282 202.615)" stroke="black" stroke-width="4"/>
<path d="M461.352 403.104L493.394 360.019L514.686 409.31L461.352 403.104Z" stroke="black" stroke-width="4"/>
<path d="M103.92 413.948L113.034 377.048L140.433 403.391L103.92 413.948Z" stroke="black" stroke-width="4"/>
</svg>
