<svg width="546" height="565" viewBox="0 0 546 565" fill="none" xmlns="http://www.w3.org/2000/svg">
<circle cx="112" cy="213" r="32" stroke="black" stroke-width="4"/>
<circle cx="460.5" cy="186.5" r="20.5" stroke="black" stroke-width="4"/>
<path d="M178.851 52.0678L185.549 73.3989L185.905 74.5319L187.07 74.7619L209.005 79.0915L190.787 92.0531L189.82 92.7416L189.961 93.9207L192.621 116.12L174.665 102.799L173.711 102.092L172.633 102.591L152.343 111.981L159.462 90.7867L159.84 89.6609L159.033 88.7901L143.832 72.3944L166.189 72.6162L167.377 72.628L167.955 71.591L178.851 52.0678Z" stroke="black" stroke-width="4"/>
<path d="M498.814 256.709L509.693 267.363L510.542 268.194L511.678 267.847L526.24 263.395L519.469 277.034L518.941 278.098L519.622 279.07L528.356 291.544L513.292 289.319L512.117 289.146L511.402 290.094L502.238 302.255L499.699 287.241L499.501 286.07L498.378 285.683L483.98 280.726L497.475 273.671L498.528 273.121L498.548 271.934L498.814 256.709Z" stroke="black" stroke-width="4"/>
<rect x="145.388" y="315.944" width="53" height="53" transform="rotate(-12.5934 145.388 315.944)" stroke="black" stroke-width="4"/>
<rect x="34.3879" y="106.946" width="34.6637" height="34.6637" transform="rotate(-12.5934 34.3879 106.946)" stroke="black" stroke-width="4"/>
<rect x="329.282" y="108.615" width="79" height="48" rx="24" transform="rotate(-10.5195 329.282 108.615)" stroke="black" stroke-width="4"/>
<path d="M374.352 309.104L406.394 266.019L427.686 315.31L374.352 309.104Z" stroke="black" stroke-width="4"/>
<path d="M16.92 319.948L26.0345 283.048L53.4332 309.391L16.92 319.948Z" stroke="black" stroke-width="4"/>
<path d="M363.955 266.304L363.198 272.013L350.198 264.987L335.275 239.589L343.322 235.185L363.955 266.304Z" fill="white"/>
<path d="M307.661 91.1179L310.327 85.4616L315.734 81.79L319.141 75.6524L322.06 80.4017C322.06 80.4017 326.116 85.8863 326.186 85.0032C326.257 84.12 328.647 73.9189 328.647 73.9189L335.968 61.0186L332.544 54.7669L334.138 50.3362L332.349 45.1761L335.284 33.7524L325.598 14.0051L314.507 8.19203H308.181L312.506 4.73675L305.244 3.9141L297.906 6.8375L291.244 3.9141L283.782 0.837891L271.298 2.19242L263.666 8.97696L261.025 18.9856L262.297 27.1296L254.666 32.6142L253.002 34.3359L253.543 39.2717L254.489 47.4088L249.598 53.7379L250.685 61.0583L257.714 70.93L270.151 72.5474L271.23 91.1625L287.275 111.302L308.212 113.386C308.212 113.386 312.402 96.9319 312.537 96.6154C312.672 96.2988 307.661 91.1179 307.661 91.1179Z" fill="white"/>
<path d="M363.81 268.643C364.041 268.333 364.223 267.989 364.351 267.623C365.01 263.236 366.947 259.265 368.569 255.206C369.372 253.219 370.274 251.275 371.272 249.381C371.69 248.719 372.228 248.142 372.856 247.681C375.497 245.432 377.771 242.849 378.642 239.411C379.062 237.241 379.308 235.04 379.377 232.83C379.464 231.782 379.329 230.702 379.475 229.665C380.016 225.826 378.605 222.629 376.518 219.643C376.064 218.99 375.891 218.688 376.372 217.91C377.937 215.354 377.345 213.346 374.75 211.659C374.431 211.439 374.178 211.133 374.02 210.775C372.063 206.454 369.867 202.22 368.277 197.761C367.087 194.416 365.033 191.328 364.838 187.659C364.788 186.403 364.943 185.146 365.298 183.941C366.012 181.434 365.465 179.066 364.849 176.674C364.671 175.973 364.6 175.243 364.384 174.557C364.091 173.636 363.752 172.729 363.368 171.842C362.287 169.303 360.973 166.829 360.048 164.224C359.658 162.655 359.413 161.052 359.318 159.436C359.216 158.805 358.983 158.202 358.829 157.577C358.483 156.14 358.144 154.699 357.813 153.255C357.78 153.112 357.845 152.893 357.764 152.822C356.066 151.385 357.169 149.674 357.255 148.044C357.347 146.18 357.33 144.304 357.336 142.44C357.336 139.243 357.563 136.023 357.304 132.848C357.073 128.85 355.553 125.041 352.979 122.005C350.032 118.61 347.206 115.083 344.03 111.919C341.513 109.614 338.861 107.466 336.087 105.488C335.898 105.328 335.68 105.208 335.445 105.135C335.209 105.062 334.962 105.036 334.718 105.06C333.187 105.498 332.014 104.593 330.781 104.094C326.401 102.356 323.021 99.1197 319.35 96.2896C316.115 93.8952 312.764 91.6675 309.309 89.6152C307.881 88.7321 306.471 89.7145 306.302 91.4858C306.304 91.9314 306.333 92.3764 306.388 92.8185C306.611 95.2357 306.673 97.6655 306.572 100.091C306.448 101.381 305.372 102.572 304.728 103.815C304.541 104.099 304.388 104.404 304.274 104.725C304.143 105.308 303.821 105.828 303.36 106.201C302.899 106.574 302.327 106.776 301.738 106.777C296.374 107.556 291.465 106.305 286.647 103.87C282.018 101.55 279.239 97.8863 277.33 93.2908C276.173 90.8817 275.204 88.3839 274.432 85.8206C274 83.5817 273.889 81.2912 274.103 79.0202C274.211 76.4639 273.194 74.2927 272.254 72.0877C271.686 70.766 269.842 70.508 268.468 71.539C264.289 74.6053 260.406 78.0268 257.833 82.6233C256.692 84.6576 254.988 84.8937 253.177 84.9434C249.932 85.0426 246.688 84.7846 243.444 84.9434C241.225 85.0913 239.023 85.4346 236.863 85.9694C234.89 86.414 232.981 87.1265 231.045 87.7298C230.672 87.8449 230.283 88.1575 229.964 88.097C227.552 87.6693 225.639 89.0952 223.643 89.9566C221.722 90.7247 219.954 91.8395 218.425 93.2471C217.317 94.3437 216.803 96.11 216.208 97.6342C215.532 99.4115 215.083 101.27 214.527 103.092C213.769 105.566 213.012 108.028 212.224 110.507C211.435 112.986 210.456 115.443 209.752 117.988C208.374 122.793 206.685 127.5 204.696 132.079C203.204 135.578 201.593 139.033 200.316 142.614C198.737 147.035 197.558 151.609 195.991 156.041C194.953 158.991 193.476 161.783 192.319 164.695C191.124 167.705 190.085 170.777 188.955 173.81C187.874 176.667 186.879 179.542 185.711 182.344C184.39 185.44 184.319 188.938 185.516 192.085C185.882 193.038 186.02 194.065 185.92 195.083C185.819 196.1 185.483 197.079 184.937 197.94C183.723 200.036 183.348 202.525 183.889 204.894C184.738 209.079 185.975 213.192 187.192 217.289C187.901 219.664 188.953 221.934 189.75 224.287C190.748 226.803 191.538 229.398 192.113 232.047C192.281 233.562 192.918 234.985 193.932 236.111C194.946 237.237 196.285 238.009 197.758 238.316C200.045 238.911 201.592 240.466 203.334 241.732C205.665 243.427 207.66 245.571 209.925 247.388C212.191 249.205 212.483 251.732 212.023 254.184C211.298 258.078 209.952 261.862 209.141 265.735C208.308 269.716 207.93 273.791 207.123 277.772C206.351 281.568 205.133 285.265 204.371 289.054C203.479 293.441 201.624 297.506 200.17 301.706C199.05 304.908 198.528 308.293 198.629 311.688C198.76 315.834 198.418 319.992 198.505 324.138C198.582 330.071 197.917 335.99 196.526 341.754C195.478 346.744 194.125 351.664 192.476 356.485C190.047 363.099 188.583 369.949 186.668 376.69C185.664 380.335 184.33 383.878 182.683 387.275C179.795 393.014 177.487 399.036 175.795 405.247C174.714 409.377 173.323 413.43 172.204 417.552C171.215 421.172 170.398 424.84 169.501 428.488C168.42 432.954 167.483 437.472 166.208 441.885C165.435 444.564 166.899 445.724 169.263 445.51C173.935 445.131 178.612 444.692 183.322 444.55C185.07 444.663 186.793 445.032 188.437 445.646C188.772 445.734 189.102 446.299 189.205 446.705C190.194 450.814 191.13 454.932 192.087 459.045C193.271 464.139 194.25 469.266 196.056 474.221C197.678 478.724 198.698 483.449 199.97 488.09C200.511 490.037 200.992 491.995 201.511 493.945C202.17 496.441 204.214 497.319 206.291 498.201C208.499 499.079 210.871 499.453 213.237 499.298C215.4 499.232 217.628 499.846 220.267 500.22C218.645 501.893 217.406 503.603 215.46 504.47C213.249 505.457 211.015 506.389 208.749 507.211C206.354 508.105 206.089 508.731 206.678 511.264C207.019 512.723 207.641 514.166 206.451 515.811C205.446 517.187 206.008 519.102 206.727 520.616C207.446 522.13 207.166 523.073 206.505 524.542C204.851 528.214 201.476 529.306 198.395 530.746C194.069 532.775 189.565 534.516 185.763 537.563C183.73 539.208 181.496 540.673 179.885 542.663C178.802 544.125 178.262 545.927 178.36 547.753C178.582 550.385 179.799 552.827 181.756 554.57C184.104 556.847 186.849 557.312 189.537 557.647C194.516 558.315 199.577 558.398 204.612 558.601C205.886 558.523 207.152 558.34 208.397 558.052C212.074 557.471 215.799 557.109 219.412 556.266C222.872 555.454 226.219 554.144 229.621 553.063C230.583 552.765 231.551 552.514 232.665 552.153C232.825 552.388 232.963 552.638 233.076 552.899C233.138 553.19 233.26 553.463 233.435 553.702C233.609 553.941 233.831 554.139 234.087 554.284C234.343 554.429 234.626 554.516 234.918 554.542C235.21 554.567 235.503 554.528 235.779 554.429C237.202 554.095 238.608 553.683 240.025 553.333C242.496 552.746 244.972 552.17 247.454 551.627C249.617 551.15 250.358 550.415 250.747 548.243C251.561 543.428 251.697 538.52 251.153 533.666C251.002 532.168 251.386 530.621 251.299 529.114C251.072 524.416 250.152 519.78 248.569 515.359C247.298 511.597 246.69 507.637 246.773 503.661C246.724 502.98 246.616 502.304 246.448 501.643C247.173 500.935 247.916 500.244 248.612 499.52C250.775 497.326 252.937 495.072 255.127 492.85C257.49 490.443 259.934 488.106 262.195 485.601C263.605 484.197 264.753 482.547 265.585 480.73C266.207 479.124 265.953 477.158 266.013 475.345C266.083 473.151 266.083 470.957 266.105 468.764C266.137 465.627 266.218 462.489 266.18 459.353C266.109 453.621 265.886 447.89 265.886 442.153C265.886 438.581 266.082 435.024 266.4 431.436C266.669 429.282 267.07 427.146 267.6 425.042C268.682 420.062 269.763 415.083 270.845 410.107C271.231 408.114 271.751 406.149 272.402 404.228C272.743 405.56 272.989 406.937 273.451 408.226C274.592 411.368 274.489 414.594 274.289 417.84C273.996 422.552 273.873 427.284 273.392 431.974C272.814 437.656 271.856 443.294 271.229 448.976C270.915 451.795 270.986 454.658 270.823 457.499C270.693 459.693 270.455 461.886 270.282 464.08C269.882 469.213 269.444 474.347 269.131 479.486C269.051 481.579 269.08 483.675 269.217 485.765C269.248 486.294 269.436 486.801 269.758 487.219C271.164 489.023 272.726 490.713 274.083 492.572C275.746 494.864 277.284 497.255 278.755 499.674C279.017 500.351 279.11 501.084 279.025 501.807C279.025 503.935 279.36 504.226 281.772 503.919C281.674 505.987 281.653 508.021 281.453 510.04C281.282 512.37 280.955 514.686 280.475 516.972C279.976 518.422 279.348 519.823 278.598 521.157C278.232 521.845 277.969 522.584 277.815 523.351C277.357 525.701 277.315 528.115 277.691 530.481C278.18 532.729 277.469 535.214 277.545 537.61C277.622 540.007 277.599 542.426 278.426 544.521C278.935 545.821 280.821 546.715 282.265 547.455C285.672 549.161 289.154 550.746 292.669 552.189C293.613 552.487 294.612 552.559 295.588 552.397C297.249 552.349 298.879 552.861 300.223 553.851C303.467 555.836 306.473 558.238 309.82 559.987C312.583 561.441 315.703 562.181 318.645 563.278C323.815 565.22 329.184 564.71 334.489 564.446C336.25 564.364 337.981 563.465 339.695 562.844C340.885 562.417 342.015 561.807 343.183 561.32C346.325 560.004 347.082 558.117 347.639 554.843C348.195 551.569 346.595 548.811 346.06 545.821C345.854 544.68 344.592 543.485 343.507 542.81C341.468 541.663 339.371 540.625 337.224 539.7C334.521 538.395 332.547 536.217 330.498 534.122C327.693 531.033 324.389 528.453 320.727 526.493C322.809 524.806 322.798 524.815 321.808 522.205C321.527 521.458 321.354 520.674 321.014 519.511C322.208 520.449 323.111 521.08 323.922 521.82C324.112 522.014 324.339 522.166 324.589 522.266C324.84 522.367 325.108 522.414 325.377 522.404C325.645 522.395 325.91 522.33 326.152 522.212C326.395 522.095 326.612 521.927 326.788 521.721C327.329 521.277 327.734 520.712 328.248 520.252C330.951 517.801 330.73 515.376 327.707 513.369C324.343 511.131 320.801 509.167 317.336 507.073C316.379 506.524 315.433 505.888 314.092 505.06C315.657 504.663 316.893 504.357 318.115 504.04C319.337 503.722 320.623 503.706 321.121 502.132C321.246 501.743 322.202 501.709 322.581 501.309C323.889 499.938 325.106 498.479 326.366 497.048C326.837 496.499 327.286 495.952 327.745 495.403C330.103 492.579 332.325 489.627 334.85 486.968C337.204 484.429 339.297 481.652 341.095 478.681C342.296 476.751 343.639 474.896 344.813 472.944C345.19 472.314 345.356 471.578 345.289 470.844C344.115 462.869 344.148 454.823 343.737 446.8C343.65 446.236 343.742 445.659 344 445.153C344.257 444.646 344.667 444.235 345.17 443.98C348.235 441.708 351.131 439.21 353.833 436.505C355.93 434.482 357.558 431.958 359.672 429.962C361.77 428.053 364.364 426.795 367.145 426.337C369.113 425.805 371.134 425.498 373.169 425.421C377.348 425.607 381.517 426.161 385.687 426.622C387.252 426.797 389.19 426.594 388.985 424.351C388.841 421.575 388.508 418.811 387.99 416.081C386.481 409.676 384.616 403.351 383.064 396.951C382.242 393.567 381.983 390.046 381.117 386.673C379.857 381.638 378.175 376.719 376.921 371.689C375.569 366.243 374.439 360.72 373.341 355.235C372.682 351.89 372.26 348.496 371.757 345.114C371.043 340.228 370.387 335.324 369.686 330.437C368.837 324.558 367.925 318.69 367.112 312.811C366.468 308.159 365.83 303.483 365.37 298.842C364.987 294.971 364.932 291.076 364.619 287.204C364.228 282.317 363.699 277.447 363.262 272.566C363.298 271.985 363.177 271.405 362.913 270.888C362.65 270.371 362.252 269.937 361.764 269.631C360.012 268.288 358.491 266.659 357.264 264.811C353.581 259.825 350.04 254.736 346.449 249.696C344.551 247.041 342.633 244.403 340.733 241.757C340.585 241.56 340.457 241.348 340.35 241.126C340.221 240.917 340.14 240.681 340.113 240.436C340.086 240.192 340.112 239.944 340.192 239.711C340.271 239.478 340.401 239.266 340.571 239.09C340.742 238.915 340.949 238.78 341.178 238.697C341.532 238.681 341.885 238.752 342.207 238.904C342.529 239.055 342.81 239.284 343.027 239.569C345.222 242.706 347.277 245.942 349.412 249.128C351.251 251.87 353.073 254.645 355.009 257.322C357.583 260.87 360.254 264.347 362.898 267.84C363.181 268.137 363.489 268.409 363.818 268.652L363.81 268.643ZM260.197 144.146C259.587 143.687 258.924 143.304 258.224 143.004C255.38 142.264 252.519 141.562 249.643 140.953C248.048 140.619 246.371 140.619 244.776 140.213C244.456 140.061 244.178 139.831 243.966 139.544C243.754 139.257 243.614 138.922 243.559 138.568C243.573 137.43 243.768 136.302 244.138 135.228C245.36 131.108 246.635 127.001 247.923 122.91C248.723 120.33 249.594 117.771 250.369 115.183C251.861 110.208 253.337 105.223 254.754 100.221C255.165 98.7625 255.295 97.2264 255.662 95.7409C255.843 95.2341 256.08 94.7501 256.37 94.298C256.83 94.7803 257.642 95.2417 257.679 95.7518C257.763 97.1335 257.654 98.5204 257.354 99.8709C256.776 102.393 255.991 104.867 255.321 107.368C254.045 112.107 252.784 116.845 251.536 121.584C250.785 124.408 250.068 127.249 249.248 130.058C248.643 132.126 247.896 134.155 247.199 136.2C246.95 136.94 246.988 137.391 247.935 137.533C249.422 137.758 250.876 138.202 252.364 138.432C255.547 138.824 258.63 139.817 261.453 141.36C262.023 141.592 262.48 142.039 262.73 142.607C262.979 143.175 263 143.82 262.789 144.404C262.288 146.054 261.592 147.638 260.718 149.12C259.209 151.601 257.474 153.93 255.851 156.354C255.278 157.226 255.122 158.175 256.192 158.861C258.524 160.409 260.246 162.738 261.058 165.442C262.68 170.421 264.345 175.435 265.584 180.535C267.747 189.393 269.65 198.316 271.532 207.239C272.555 212.092 273.294 217.006 274.166 221.898C275.248 227.993 276.329 234.09 277.41 240.189C277.471 240.39 277.488 240.602 277.46 240.811C277.432 241.019 277.359 241.219 277.248 241.396C277.136 241.573 276.988 241.724 276.813 241.837C276.639 241.951 276.442 242.025 276.236 242.054C275.155 242.344 274.769 241.598 274.565 240.847C274.084 239.037 273.701 237.2 273.348 235.362C272.456 230.674 271.602 225.973 270.742 221.278C269.937 216.89 269.177 212.536 268.341 208.18C267.141 201.928 266.011 195.669 264.623 189.461C263.449 184.191 262.006 178.975 260.568 173.771C259.831 171.114 258.96 168.497 257.957 165.931C256.989 163.435 255.07 161.631 253.09 159.898C252.651 159.535 252.342 159.034 252.214 158.474C252.086 157.914 252.145 157.327 252.382 156.805C252.869 155.676 253.458 154.597 254.143 153.58C256.13 150.524 258.12 147.448 260.197 144.146ZM324.176 147.985C325.576 151.149 326.945 153.969 328.075 156.886C329.697 161.021 331.081 165.239 332.606 169.401C332.807 170.041 332.863 170.719 332.77 171.384C332.676 172.049 332.435 172.684 332.065 173.241C331.346 174.645 330.584 176.038 330.005 177.502C328.49 181.341 326.939 185.207 325.641 189.14C323.279 196.313 321.043 203.528 318.845 210.754C317.422 215.431 316.249 220.193 314.794 224.86C313.713 228.419 312.355 231.905 311.009 235.39C310.336 237.13 309.531 238.815 308.603 240.43C308.366 240.842 307.522 240.88 306.917 241.088C306.729 240.56 306.634 240.004 306.636 239.443C306.855 238.545 307.15 237.668 307.516 236.821C308.397 234.485 309.436 232.192 310.158 229.806C311.677 224.805 313.029 219.753 314.483 214.73C315.424 211.439 316.342 208.116 317.355 204.858C318.822 200.114 320.274 195.371 321.891 190.681C323.163 187.009 324.735 183.447 326.077 179.794C327.082 177.052 327.759 174.189 329.413 171.705C329.697 170.992 329.709 170.198 329.445 169.478C326.995 161.619 323.978 153.953 320.421 146.542C320.305 146.269 320.248 145.974 320.255 145.677C320.261 145.38 320.331 145.088 320.459 144.82C320.661 144.634 320.906 144.5 321.17 144.431C321.435 144.362 321.712 144.359 321.978 144.423C324.763 145.301 327.564 146.168 330.251 147.301C331.666 148.046 333.009 148.924 334.263 149.923C332.976 143.934 331.748 137.857 330.349 131.775C329.392 127.662 328.235 123.593 327.105 119.523C325.84 115.037 324.456 110.583 323.185 106.097C323.157 105.57 323.23 105.043 323.401 104.545L323.89 104.512C324.309 105.019 324.671 105.57 324.971 106.157C326.243 109.492 327.582 112.806 328.659 116.216C330.135 120.88 331.449 125.61 332.725 130.338C333.514 133.273 334.071 136.268 334.796 139.212C335.877 143.599 337.072 147.987 338.04 152.374C338.114 152.793 338.087 153.224 337.962 153.631C337.836 154.038 337.617 154.408 337.321 154.71C336.48 154.902 335.598 154.785 334.834 154.38C334.168 154.069 333.582 153.608 333.12 153.031C330.838 150.352 327.777 149.062 324.182 147.963L324.176 147.985ZM280.41 111.239H280.453C280.39 110.547 280.403 109.85 280.491 109.16C280.706 108.676 281.004 108.234 281.372 107.855C281.642 108.266 282.086 108.656 282.154 109.101C282.3 110.197 282.225 111.295 282.322 112.363C282.662 116.082 283.231 119.795 283.355 123.519C283.551 129.108 283.419 134.708 283.468 140.296C283.522 147.009 283.625 153.723 283.685 160.43C283.734 166.086 283.847 171.755 283.755 177.431C283.631 185.318 283.364 193.199 283.106 201.08C282.987 204.716 282.723 208.342 282.565 211.978C282.322 217.775 282.174 223.577 281.874 229.375C281.761 230.653 281.445 231.905 280.938 233.082C280.782 233.479 279.954 233.751 279.424 233.768C279.197 233.768 278.726 232.962 278.748 232.544C278.953 228.381 279.289 224.219 279.494 220.056C279.764 214.022 279.911 208.034 280.149 202.028C280.414 195.172 280.841 188.317 280.977 181.467C281.096 175.467 280.863 169.46 280.868 163.456C280.868 157.752 280.992 152.045 281.035 146.351C281.063 142.138 281.035 137.932 281.035 133.736C281.035 129.293 281.138 124.851 281.035 120.414C280.986 117.288 280.644 114.244 280.419 111.194L280.41 111.239ZM212.787 258.223C213.713 256.747 214.719 255.325 215.799 253.962C217.421 252.147 219.21 250.495 220.947 248.795C223.791 246.004 226.532 243.098 229.523 240.476C233.135 237.306 236.726 234.147 239.429 230.105C239.856 229.469 240.191 228.603 241.051 229.287C241.21 229.545 241.303 229.84 241.32 230.144C241.337 230.448 241.278 230.751 241.149 231.026C239.736 233.317 238.158 235.498 236.428 237.552C234.427 239.801 232.026 241.672 229.94 243.832C227.29 246.547 224.722 249.349 222.211 252.195C220.248 254.422 218.479 256.818 216.501 259.023C215.909 259.563 215.134 259.85 214.338 259.824C213.857 259.829 213.442 258.974 212.786 258.223H212.787ZM315.086 509.266C315.205 509.15 315.319 509.035 315.432 508.914C319.261 511.693 323.781 513.422 327.172 516.872C325.728 518.836 324.966 518.929 323.312 517.382C321.073 515.298 318.835 513.208 316.629 511.091C316.08 510.512 315.564 509.903 315.082 509.266H315.086ZM319.034 523.371C318.931 523.508 318.822 523.64 318.715 523.768C318.201 523.57 317.487 523.521 317.223 523.143C316.7 522.353 316.301 521.485 316.039 520.571C315.79 519.673 315.609 518.756 315.498 517.829C315.357 516.963 315.254 516.091 315.141 515.225L315.605 515.098L319.034 523.371ZM303.748 523.854C302.942 522.899 302.483 521.82 303.305 520.711C303.532 520.398 304.624 520.266 304.797 520.486C305.345 521.094 305.691 521.861 305.786 522.68C305.769 523.952 304.731 524.013 303.747 523.843L303.748 523.854ZM221.526 516.587C221.769 515.852 221.721 514.733 222.993 514.738C223.218 514.729 223.442 514.768 223.65 514.854C223.858 514.94 224.045 515.071 224.199 515.237C224.353 515.403 224.469 515.6 224.541 515.816C224.613 516.032 224.639 516.261 224.615 516.488C224.588 517.234 224.551 518.373 223.246 518.352C222.141 518.355 221.632 517.741 221.524 516.583L221.526 516.587ZM301.92 513.121C302.256 512.83 302.817 511.953 303.388 511.953C303.62 511.945 303.85 511.993 304.06 512.093C304.27 512.193 304.454 512.342 304.597 512.527C304.74 512.712 304.838 512.929 304.883 513.16C304.928 513.391 304.918 513.63 304.855 513.856C304.699 514.481 304.109 515.386 303.623 515.452C302.514 515.616 301.983 514.729 301.919 513.118L301.92 513.121ZM305.57 527.583C305.935 527.167 306.376 526.826 306.868 526.58C307.576 526.339 308.706 527.676 308.49 528.631C308.381 529.18 307.679 530.057 307.268 530.04C306.244 529.993 305.564 529.236 305.568 527.58L305.57 527.583ZM213.464 533.868C213.188 535.207 212.604 535.919 211.703 535.754C211.162 535.655 210.291 534.755 210.34 534.289C210.417 533.925 210.583 533.586 210.822 533.304C211.062 533.021 211.367 532.804 211.71 532.672C212.219 532.585 212.873 533.426 213.462 533.865L213.464 533.868ZM203.558 539.298C203.92 538.008 204.229 537.044 205.311 537.219C205.824 537.302 206.657 538.316 206.56 538.662C206.429 539.024 206.229 539.355 205.971 539.638C205.713 539.92 205.403 540.148 205.057 540.308C204.764 540.417 204.05 539.655 203.558 539.298ZM315.626 538.043C316.42 537.281 316.908 536.426 317.394 536.426C317.609 536.437 317.82 536.491 318.014 536.586C318.208 536.68 318.382 536.813 318.525 536.977C318.668 537.14 318.777 537.331 318.847 537.537C318.916 537.744 318.945 537.963 318.93 538.181C318.898 538.663 318.076 539.52 317.725 539.459C317.059 539.36 316.519 538.702 315.627 538.044L315.626 538.043ZM213.467 512.952L213.858 513.21L210.231 519.122C209.063 515.689 212.405 515.02 213.464 512.952H213.467ZM310.181 532.486C310.468 532.239 310.89 531.603 311.403 531.516C312.437 531.34 312.842 532.21 312.944 533.084C313.047 533.959 312.49 534.33 311.701 534.352C310.722 534.379 310.301 533.803 310.181 532.487V532.486ZM224.374 507.182H225.088C225.402 507.763 225.959 508.356 225.942 508.931C225.942 509.398 225.228 509.841 224.834 510.297C224.344 509.852 223.509 509.452 223.449 508.953C223.39 508.454 224.055 507.779 224.374 507.182ZM215.031 529.06C215.446 528.298 215.91 527.565 216.42 526.865C216.893 526.926 217.326 527.162 217.637 527.529C217.731 527.781 217.771 528.051 217.754 528.32C217.736 528.589 217.661 528.85 217.534 529.087C216.964 530.037 216.139 529.906 215.031 529.061V529.06ZM222.146 523.433L220.524 524.922C220.156 524.494 219.61 524.121 219.443 523.632C219.156 522.661 219.984 522.277 220.686 522.266C221.108 522.26 221.508 522.885 222.146 523.433ZM209.65 510.018L212.213 508.987L212.337 509.185L210.071 511.308C209.91 510.814 209.79 510.456 209.651 510.019L209.65 510.018Z" fill="black"/>
<path d="M252.455 35.0015C253.368 34.8707 254.263 34.6378 255.126 34.3069C257.565 33.0675 259.949 31.707 262.333 30.3525C262.98 30.0213 263.499 29.4796 263.807 28.814C264.115 28.1483 264.193 27.3972 264.031 26.6808C263.553 23.6236 263.234 20.5432 263.074 17.4522C262.89 11.3315 266.08 7.15283 271.244 4.55194C277.289 1.50251 283.502 1.81014 289.671 4.31576C290.32 4.57873 290.807 5.23168 291.45 5.55518C291.946 5.72181 292.463 5.81408 292.986 5.82906C292.986 5.28031 293.148 4.49042 292.877 4.27111C291.847 3.32296 290.671 2.552 289.395 1.98875C285.216 0.500263 280.982 -0.583356 276.418 0.343478C271.13 1.44 266.382 3.32046 263.084 7.92288C260.642 11.2669 259.564 15.4365 260.073 19.5659C260.311 21.7599 260.495 23.9529 260.732 26.147C260.81 26.5826 260.727 27.032 260.5 27.41C260.273 27.788 259.917 28.0684 259.5 28.1981C257.413 29.2242 255.391 30.3922 253.39 31.5929C252.211 32.3193 252.049 32.9831 252.455 35.0015Z" fill="black"/>
<path d="M335.309 34.2399C335.015 30.6102 334.081 27.0635 332.551 23.7689C331.059 20.3414 329.527 16.9298 327.013 14.0947C323.26 9.86041 318.805 7.03624 313.041 6.8606C311.507 6.81437 309.972 6.91404 308.456 7.1583C307.967 7.23471 307.575 7.95911 307.148 8.3868C307.644 8.69403 308.195 8.90061 308.77 8.9951C311.965 8.72632 315.175 9.281 318.102 10.6076C322.131 12.5515 325.447 15.7408 327.576 19.7172C329.209 22.7922 330.679 25.954 331.978 29.189C332.545 30.7092 332.932 32.2925 333.13 33.9055C333.26 34.7113 333.13 35.7651 334.119 35.6659C334.643 35.6212 335.082 34.5356 335.309 34.2399Z" fill="black"/>
<path d="M330.901 70.9568C331.156 68.5057 329.658 66.7503 328.26 65.242C325.156 61.8859 325.48 58.4683 327.135 54.6459C327.721 53.3011 327.884 51.8051 327.599 50.363C326.431 45.7725 324.815 41.3328 321.706 37.6503C321.188 36.9924 320.582 36.411 319.906 35.9227C319.565 35.7034 318.949 35.9227 318.457 35.9227C318.549 36.3613 318.495 36.9428 318.75 37.2127C321.05 39.779 322.757 42.833 323.747 46.1526C324.13 47.3096 324.529 48.4667 324.93 49.6188C325.471 51.1708 324.973 52.5799 324.53 54.0773C323.871 56.32 323.049 58.6738 323.152 60.9382C323.227 62.6937 324.552 64.4213 325.455 66.0884C325.996 67.1145 327.077 67.8984 327.46 68.9572C327.781 70.2179 328.007 71.5013 328.136 72.7966C328.334 73.3756 328.601 73.9281 328.931 74.4418C329.472 74.0449 330.203 73.7621 330.478 73.2302C330.741 72.5012 330.884 71.7331 330.901 70.9568Z" fill="black"/>
<path d="M294.108 28.0488C292.021 28.1239 289.995 28.7844 288.256 29.9568C286.517 31.1293 285.132 32.7679 284.256 34.6905C283.034 37.7339 281.925 40.828 280.636 43.8387C279.932 45.4642 279.091 47.0247 278.121 48.5027C276.159 51.5084 273.23 51.4916 270.167 50.9101C269.838 50.8446 269.47 50.6124 269.194 50.6957C268.68 50.8605 267.885 51.1453 267.831 51.4896C267.816 51.7813 267.872 52.0722 267.994 52.337C268.116 52.6017 268.299 52.8324 268.529 53.0088C270.465 54.0948 272.732 54.4072 274.884 53.8846C277.036 53.3621 278.917 52.0424 280.159 50.1847C282.473 46.6123 283.765 42.6271 285.182 38.6677C285.988 36.4082 286.685 34.0167 288.594 32.3883C289.696 31.4511 290.992 30.7772 292.385 30.4164C293.779 30.0557 295.234 30.0174 296.644 30.3044C297.207 30.2698 297.758 30.1245 298.267 29.8767C297.866 29.4708 297.537 28.8734 297.055 28.7028C296.089 28.4154 295.104 28.1969 294.108 28.0488Z" fill="black"/>
<path d="M251.162 55.6952C251.059 54.8546 251.241 54.0036 251.677 53.2813C252.113 52.559 252.778 52.0081 253.563 51.7189C256.845 50.1232 258.018 48.2458 256.126 43.9311C255.96 43.5742 255.814 43.2082 255.688 42.8346C255.394 41.8691 254.607 40.6406 254.963 39.9936C255.781 38.8548 256.774 37.8568 257.905 37.0374C258.401 36.6855 258.875 36.3045 259.327 35.8962C259.435 35.7376 259.502 35.5539 259.521 35.3622C259.54 35.1704 259.511 34.9769 259.436 34.7997C259.312 34.6401 259.152 34.5136 258.969 34.4315C258.787 34.3493 258.587 34.3139 258.387 34.3284C255.78 35.1026 253.581 36.893 252.271 39.3079C251.417 40.9531 252.271 42.5548 252.812 44.1345C253.178 44.9797 253.429 45.8708 253.56 46.7841C253.56 47.2227 252.96 47.7823 252.516 48.1445C251.575 48.9066 250.461 49.4604 249.607 50.2999C247.315 52.5376 247.093 55.1623 248.18 57.9785C248.586 59.0314 249.115 60.0406 249.597 61.0607C250.035 61.9984 250.894 62.5581 251.711 62.0748C251.976 61.7967 252.174 61.4595 252.289 61.0902C252.403 60.7208 252.431 60.3295 252.37 59.9473C252.051 58.5051 251.647 57.0838 251.159 55.6912L251.162 55.6952Z" fill="black"/>
<path d="M272.833 63.878C273.768 69.6206 275.169 74.8085 278.703 79.2343C280.751 81.8513 283.269 84.051 286.124 85.7172C286.59 86.0532 287.143 86.244 287.714 86.2659C288.131 86.2163 288.795 85.6299 288.795 85.2954C288.774 84.992 288.693 84.696 288.557 84.4247C288.422 84.1534 288.234 83.9123 288.005 83.7156C286.734 82.7174 285.161 82.0704 284.058 80.9183C282.222 79.1788 280.638 77.1847 279.354 74.9951C277.873 71.8205 276.557 68.5691 275.412 65.2544C275.199 64.6597 274.893 64.1041 274.504 63.6091C274.356 63.4547 274.174 63.3373 273.973 63.266C273.772 63.1947 273.558 63.1715 273.347 63.1983C273.049 63.2251 272.887 63.7897 272.833 63.878Z" fill="black"/>
<path d="M259.316 52.3916C259.954 56.2309 260.938 59.461 264.183 61.3226C264.635 61.5872 265.14 61.7444 265.66 61.7824C266.181 61.8203 266.703 61.738 267.188 61.5416C267.672 61.3451 268.107 61.0398 268.458 60.6484C268.809 60.2571 269.069 59.79 269.216 59.2823C269.368 58.7336 268.968 58.0042 268.816 57.3632C268.211 57.5279 267.459 57.5219 267.027 57.9119C265.946 58.8497 265.096 58.9043 264.112 57.8187C263.085 56.7194 262.396 55.3397 262.131 53.849C261.866 52.3583 262.036 50.8216 262.62 49.4275C263.194 47.7823 264.886 47.5788 266.044 48.8242C266.369 49.1695 267.001 49.2211 267.489 49.4107C267.575 48.8619 267.846 48.2804 267.705 47.8229C267.555 47.2065 267.209 46.6573 266.72 46.2607C266.231 45.864 265.627 45.6419 265.002 45.6289C263.379 45.6289 261.665 46.0844 260.887 47.6969C260.246 49.2188 259.721 50.7883 259.316 52.3916Z" fill="black"/>
<path d="M323.646 67.1415L322.791 65.7324C322.4 66.1442 321.85 66.4896 321.656 66.9778C320.303 70.3398 319.233 73.8338 317.66 77.0747C316.219 79.8305 314.07 82.1403 311.442 83.76C311.403 83.76 311.333 83.76 311.311 83.8206C310.92 84.4785 310.529 85.1423 310.137 85.8052C310.88 85.9835 311.649 86.0172 312.403 85.9044C316.443 84.3465 318.735 80.9686 320.385 77.2007C321.558 74.1917 322.574 71.1221 323.429 68.0048C323.465 67.7594 323.465 67.51 323.429 67.2646L323.646 67.1415Z" fill="black"/>
<path d="M309.084 23.2041C307.83 23.61 306.541 23.9335 305.342 24.4544C304.846 24.7504 304.475 25.2208 304.298 25.7762C303.996 26.6425 304.617 27.2131 305.499 26.9829C311.247 25.4855 314.388 26.7417 317.67 31.8314C317.904 32.2669 318.234 32.6421 318.633 32.9279C319.166 33.1514 319.725 33.3061 320.296 33.3884C320.334 32.7414 320.643 31.9296 320.367 31.4851C319.401 29.7961 318.265 28.2135 316.977 26.7626C315.977 25.6458 314.759 24.7526 313.4 24.1399C312.041 23.5272 310.572 23.2085 309.084 23.2041Z" fill="black"/>
<path d="M336.686 61.0306C336.885 60.7899 337.03 60.5083 337.112 60.2052C337.193 59.9022 337.208 59.5848 337.157 59.2751C337.105 58.9654 336.988 58.6707 336.814 58.4113C336.639 58.152 336.411 57.9341 336.145 57.7728C334.399 56.3468 334.491 54.5477 335.328 52.8866C336.698 50.1716 335.096 46.1626 333.29 44.3416C333.019 44.1439 332.705 44.0178 332.374 43.9746C332.044 43.9315 331.708 43.9727 331.397 44.0946C330.629 44.5907 331.397 45.1256 331.744 45.6416C333.252 47.786 333.907 50.0287 332.755 52.6345C330.814 57.0216 332.404 58.525 335.313 60.7518C335.67 61.0256 336.286 60.9542 336.686 61.0306Z" fill="black"/>
<path d="M306.191 2.20419C303.756 2.19515 301.373 2.91637 299.342 4.27716C298.038 5.0907 296.845 6.07532 295.795 7.20551C295.305 7.75427 294.881 9.15841 295.157 9.43726C295.968 10.2659 296.892 9.58512 297.7 8.97087C299.009 7.96762 300.366 7.02392 301.691 6.04251C304.563 3.91992 307.639 4.75943 310.77 5.22483C311.377 5.18325 311.972 5.02709 312.522 4.76439C312.09 4.30395 311.733 3.5855 311.214 3.42574C309.402 2.85714 307.537 2.51081 306.191 2.20419Z" fill="black"/>
<path d="M300.838 23.5732C299.865 19.0263 298.459 14.6889 294.088 12.1822C293.591 11.8974 292.795 12.1822 292.131 12.1822C292.283 12.8461 292.212 13.7779 292.62 14.1242C295.066 16.1813 296.2 19.0601 297.589 21.8029C297.837 22.4382 297.962 23.1161 297.957 23.7994C298.038 24.8195 298.238 25.9935 299.363 25.9935C300.589 25.9309 300.93 24.8126 300.838 23.5732Z" fill="black"/>
<path d="M296.826 74.5508C295.052 74.1062 293.284 73.618 291.495 73.2607C290.971 73.2627 290.452 73.3637 289.965 73.5584C290.246 74.2719 290.365 75.4181 290.845 75.6046C292.437 76.2063 294.089 76.6312 295.771 76.8718C298.621 77.3214 301.492 77.629 304.358 77.9683C305.161 78.0997 305.976 78.133 306.787 78.0676C307.127 78.018 307.522 77.5188 307.657 77.0971C307.717 76.9274 307.208 76.3677 306.884 76.2913C304.764 75.7951 302.618 75.4081 300.488 74.9477" fill="black"/>
<path d="M263.937 66.521H259.94C259.278 66.5455 258.639 66.7752 258.109 67.1791C257.579 67.5831 257.184 68.142 256.977 68.7805C256.813 69.3869 256.84 70.0301 257.054 70.6201C257.268 71.2101 257.659 71.7175 258.171 72.0711C258.43 72.2625 258.725 72.3994 259.037 72.4739C259.349 72.5484 259.672 72.5589 259.988 72.5048C260.253 72.4551 260.529 71.4737 260.469 70.9527C260.367 70.0041 260.653 69.6915 261.551 69.7243C262.57 69.8423 263.602 69.8052 264.611 69.6141C265.351 69.4057 266.395 68.6982 266.481 68.0899C266.48 67.0768 266.209 66.0829 265.699 65.2121C265.538 65.0509 265.34 64.9336 265.122 64.8713C264.905 64.809 264.675 64.8037 264.455 64.8559C264.159 65.1109 264.154 65.742 263.937 66.521Z" fill="black"/>
<path d="M287.049 40.4375C286.735 40.6519 286.152 40.9148 286.179 41.0627C286.271 41.6114 286.438 42.3081 286.822 42.5432C288.681 43.6785 290.608 44.6877 292.532 45.7356C293.192 46.1547 293.889 46.5105 294.614 46.7983C295.177 46.8835 295.749 46.8835 296.312 46.7983C296.16 46.2496 296.192 45.3892 295.822 45.1531C294.066 43.924 292.247 42.7908 290.372 41.7583C289.295 41.2383 288.184 40.7966 287.046 40.4365L287.049 40.4375Z" fill="black"/>
<path d="M310.785 48.2535C312.023 47.8913 312.991 47.5847 313.964 47.3157C315.364 46.9317 316.801 46.641 318.165 46.1696C318.57 46.0267 318.814 45.4125 319.128 45.0175C318.679 44.7268 318.176 44.1244 317.797 44.1998C315.449 44.6444 313.115 45.1872 310.817 45.8451C310.57 45.9704 310.356 46.1538 310.194 46.38C310.031 46.6061 309.924 46.8684 309.881 47.1451C309.856 47.4904 310.484 47.9022 310.785 48.2535Z" fill="black"/>
<path d="M300.811 71.0301C302.714 70.4486 304.402 70.01 306.029 69.3849C306.233 69.2212 306.392 69.0081 306.493 68.7653C306.595 68.5225 306.634 68.2578 306.607 67.9956C306.483 67.7705 306.304 67.5816 306.087 67.4471C305.87 67.3126 305.623 67.237 305.369 67.2275C303.782 67.4043 302.216 67.7329 300.691 68.2089C300.384 68.3793 300.117 68.6143 299.907 68.898C299.697 69.1818 299.55 69.5078 299.474 69.8542C299.416 70.1251 300.336 70.6352 300.811 71.0301Z" fill="black"/>
<path d="M323.191 78.5381C322.823 78.9876 322.277 79.3885 322.11 79.9035C321.569 81.7076 323.516 85.4923 325.273 86.1175C325.817 86.2048 326.374 86.0876 326.838 85.788C326.906 85.5901 326.928 85.3792 326.903 85.1713C326.879 84.9634 326.809 84.7638 326.698 84.5873C324.948 83.1087 323.838 80.9946 323.605 78.6969L323.191 78.5381Z" fill="black"/>
<path d="M298.453 89.1446L299.302 90.2411C299.784 89.8293 300.616 89.4681 300.681 89.0017C300.905 87.1275 301.008 85.2403 300.989 83.3524C300.989 83.0071 300.448 82.6578 300.124 82.3154C299.756 82.6558 299.124 82.9515 299.043 83.3415C298.788 85.086 298.674 86.8633 298.453 89.1446Z" fill="black"/>
<path d="M302.056 89.2607C302.121 89.3262 302.311 89.7052 302.597 89.8094C302.884 89.9136 303.505 89.7816 303.544 89.6338C303.873 88.4162 304.123 87.1776 304.29 85.9264C304.29 85.7617 303.674 85.331 303.349 85.34C303.024 85.3489 302.776 85.7895 302.554 86.0912C302.428 86.3018 302.354 86.54 302.338 86.7858C302.237 87.5003 302.168 88.2237 302.056 89.2607Z" fill="black"/>
<path d="M294.192 87.9648C294.895 88.6068 295.273 89.2429 295.739 89.3143C296.653 89.4512 297.524 87.8665 297.361 86.2927C297.312 85.8372 296.723 85.4422 296.383 85.0205L294.192 87.9648Z" fill="black"/>
<path d="M287.162 53.2048C287.036 53.2935 286.93 53.4104 286.855 53.5466C286.779 53.6828 286.735 53.8347 286.726 53.9907C286.717 54.1468 286.744 54.3028 286.804 54.4469C286.863 54.591 286.954 54.7194 287.07 54.8223C287.444 55.2194 287.9 55.5266 288.406 55.7214C288.725 55.8087 289.678 54.8878 289.72 54.3777C289.78 53.5382 289.379 52.4923 288.205 52.6779C287.824 52.7744 287.468 52.9543 287.161 53.2048H287.162Z" fill="black"/>
<path d="M294.716 85.1344C294.391 84.6848 294.175 84.0378 293.753 83.9059C293.483 83.8066 292.807 84.3286 292.606 84.7285C292.294 85.3866 292.11 86.1001 292.065 86.8292C292.083 87.0233 292.148 87.2099 292.255 87.3719C292.361 87.5338 292.507 87.6659 292.677 87.7561C292.868 87.7834 293.062 87.7626 293.243 87.6957C293.424 87.6287 293.586 87.5175 293.715 87.372C294.102 86.6518 294.436 85.9039 294.716 85.1344Z" fill="black"/>
<path d="M305.796 87.5153C306.158 87.9321 306.521 88.7061 306.878 88.7061C308.143 88.7061 308.143 87.5153 308.17 86.6659C308.17 86.1171 307.661 85.1248 307.353 85.1188C305.936 85.0851 306.18 86.3087 305.796 87.5153Z" fill="black"/>
<path d="M310.67 56.235C312.2 56.235 312.431 55.4342 312.519 54.5898C312.54 54.4037 312.515 54.2152 312.447 54.0412C312.379 53.8673 312.269 53.7131 312.128 53.5926C311.986 53.472 311.818 53.3888 311.637 53.3504C311.456 53.3119 311.269 53.3194 311.092 53.3722C310.764 53.5116 310.472 53.7248 310.238 53.9956C310.004 54.2663 309.833 54.5876 309.74 54.9351C309.658 55.3151 310.426 55.9105 310.67 56.235Z" fill="black"/>
<path d="M260.196 144.147C258.103 147.437 256.13 150.525 254.194 153.629C253.509 154.646 252.919 155.726 252.433 156.854C252.195 157.377 252.136 157.964 252.264 158.524C252.393 159.084 252.701 159.585 253.141 159.947C255.109 161.664 257.029 163.468 258.007 165.981C259.01 168.547 259.882 171.163 260.619 173.82C262.057 179.025 263.495 184.24 264.674 189.511C266.058 195.719 267.188 201.982 268.392 208.229C269.224 212.589 269.986 216.962 270.792 221.328C271.652 226.023 272.507 230.722 273.399 235.412C273.75 237.255 274.135 239.092 274.616 240.897C274.812 241.648 275.227 242.394 276.287 242.103C276.492 242.074 276.689 242.001 276.864 241.887C277.038 241.774 277.186 241.623 277.298 241.446C277.41 241.268 277.482 241.069 277.51 240.86C277.538 240.652 277.522 240.44 277.461 240.239C276.38 234.14 275.298 228.043 274.217 221.948C273.346 217.056 272.595 212.142 271.583 207.288C269.702 198.365 267.798 189.442 265.635 180.585C264.396 175.484 262.758 170.472 261.109 165.492C260.297 162.787 258.574 160.458 256.242 158.91C255.161 158.225 255.329 157.265 255.902 156.404C257.524 153.98 259.249 151.655 260.768 149.17C261.643 147.688 262.338 146.104 262.839 144.453C263.051 143.869 263.029 143.225 262.78 142.657C262.531 142.089 262.073 141.641 261.504 141.41C258.679 139.872 255.597 138.879 252.414 138.481C250.927 138.251 249.472 137.807 247.985 137.582C247.039 137.439 247.001 136.987 247.249 136.25C247.947 134.203 248.693 132.175 249.299 130.107C250.121 127.299 250.835 124.458 251.586 121.634C252.852 116.895 254.113 112.156 255.372 107.418C256.042 104.917 256.826 102.443 257.405 99.9206C257.704 98.57 257.814 97.1831 257.729 95.8014C257.697 95.2914 256.88 94.8309 256.421 94.3477C256.132 94.7997 255.894 95.2838 255.713 95.7905C255.367 97.279 255.216 98.8121 254.805 100.271C253.389 105.272 251.912 110.258 250.42 115.232C249.647 117.821 248.798 120.382 247.974 122.959C246.702 127.062 245.422 131.159 244.189 135.277C243.82 136.352 243.624 137.48 243.611 138.617C243.666 138.972 243.805 139.307 244.018 139.594C244.23 139.88 244.508 140.11 244.828 140.263C246.401 140.669 248.072 140.669 249.694 141.003C252.571 141.612 255.431 142.314 258.275 143.054C258.962 143.328 259.608 143.695 260.196 144.147Z" fill="white"/>
<path d="M324.175 147.964C327.77 149.061 330.828 150.328 333.145 152.999C333.607 153.576 334.194 154.038 334.859 154.349C335.649 154.656 336.752 155.018 337.346 154.678C337.654 154.384 337.881 154.015 338.007 153.606C338.133 153.197 338.153 152.762 338.065 152.342C337.071 147.955 335.902 143.567 334.821 139.18C334.096 136.235 333.54 133.24 332.75 130.307C331.478 125.579 330.16 120.852 328.684 116.184C327.603 112.778 326.268 109.46 324.997 106.126C324.697 105.539 324.334 104.987 323.916 104.48L323.426 104.513C323.345 105.062 323.08 105.61 323.21 106.065C324.482 110.552 325.865 115.005 327.13 119.491C328.277 123.56 329.433 127.628 330.375 131.744C331.775 137.804 333.002 143.903 334.288 149.891C333.034 148.893 331.692 148.015 330.277 147.27C327.574 146.134 324.788 145.268 322.004 144.392C321.738 144.328 321.46 144.33 321.196 144.4C320.931 144.469 320.687 144.602 320.484 144.789C320.356 145.056 320.287 145.348 320.28 145.645C320.274 145.943 320.33 146.238 320.446 146.511C324.004 153.921 327.02 161.587 329.471 169.446C329.735 170.166 329.724 170.961 329.438 171.673C327.784 174.154 327.108 177.021 326.102 179.762C324.761 183.415 323.194 186.98 321.917 190.649C320.295 195.338 318.846 200.082 317.38 204.827C316.369 208.117 315.45 211.408 314.509 214.698C313.075 219.722 311.724 224.773 310.183 229.775C309.458 232.156 308.422 234.453 307.542 236.789C307.175 237.636 306.881 238.513 306.661 239.411C306.661 239.972 306.756 240.529 306.942 241.056C307.52 240.848 308.391 240.809 308.629 240.399C309.557 238.784 310.361 237.099 311.035 235.359C312.37 231.875 313.701 228.387 314.82 224.828C316.275 220.164 317.448 215.401 318.87 210.722C321.07 203.494 323.304 196.282 325.667 189.108C326.964 185.176 328.517 181.331 330.03 177.47C330.608 176.005 331.372 174.613 332.091 173.209C332.452 172.648 332.688 172.014 332.781 171.35C332.875 170.687 332.824 170.011 332.632 169.37C331.106 165.207 329.697 160.99 328.1 156.855C326.944 153.948 325.576 151.129 324.175 147.964Z" fill="white"/>
<path d="M280.409 111.197C280.631 114.246 280.977 117.29 281.047 120.339C281.15 124.776 281.047 129.219 281.047 133.661V146.276C281.004 151.974 280.88 157.678 280.88 163.381C280.88 169.414 281.107 175.389 280.988 181.392C280.853 188.248 280.447 195.103 280.161 201.953C279.923 207.959 279.777 213.975 279.506 219.981C279.317 224.144 278.965 228.306 278.76 232.469C278.76 232.886 279.209 233.698 279.436 233.692C279.977 233.692 280.793 233.401 280.95 233.006C281.457 231.829 281.773 230.578 281.886 229.299C282.179 223.502 282.335 217.699 282.577 211.902C282.723 208.266 282.988 204.64 283.118 201.005C283.373 193.123 283.659 185.242 283.767 177.355C283.859 171.699 283.767 166.036 283.697 160.354C283.637 153.647 283.534 146.934 283.48 140.22C283.431 134.632 283.562 129.032 283.367 123.443C283.243 119.719 282.675 116.007 282.334 112.287C282.236 111.191 282.334 110.093 282.166 109.025C282.102 108.58 281.658 108.191 281.384 107.779C281.016 108.158 280.718 108.6 280.503 109.084C280.414 109.774 280.402 110.471 280.465 111.163L280.409 111.197Z" fill="white"/>
<path d="M212.787 258.22C213.446 258.971 213.868 259.826 214.295 259.865C215.091 259.891 215.866 259.604 216.459 259.064C218.438 256.87 220.206 254.463 222.168 252.236C224.677 249.39 227.246 246.587 229.897 243.872C232.001 241.711 234.406 239.842 236.386 237.593C238.108 235.531 239.678 233.341 241.082 231.044C241.211 230.769 241.27 230.466 241.253 230.162C241.236 229.858 241.143 229.563 240.984 229.305C240.146 228.619 239.81 229.486 239.362 230.122C236.659 234.164 233.068 237.323 229.456 240.493C226.466 243.114 223.725 246.021 220.88 248.812C219.144 250.512 217.343 252.163 215.732 253.978C214.691 255.2 213.853 256.692 212.787 258.22Z" fill="white"/>
<path d="M315.086 509.264C315.568 509.901 316.085 510.511 316.633 511.09C318.839 513.207 321.078 515.297 323.316 517.381C324.971 518.928 325.734 518.834 327.177 516.871C323.781 513.421 319.261 511.694 315.437 508.913C315.319 509.032 315.206 509.149 315.086 509.264Z" fill="white"/>
<path d="M319.031 523.369L315.614 515.143L315.149 515.269C315.263 516.135 315.365 517.007 315.506 517.873C315.617 518.8 315.798 519.717 316.047 520.616C316.309 521.53 316.709 522.398 317.231 523.188C317.496 523.566 318.209 523.616 318.723 523.814C318.815 523.658 318.918 523.509 319.031 523.369Z" fill="white"/>
<path d="M303.747 523.841C304.731 524 305.77 523.941 305.786 522.689C305.691 521.871 305.345 521.103 304.797 520.495C304.624 520.276 303.532 520.408 303.305 520.721C302.461 521.817 302.942 522.898 303.747 523.841Z" fill="white"/>
<path d="M221.523 516.585C221.632 517.742 222.14 518.335 223.227 518.352C224.53 518.352 224.568 517.255 224.596 516.487C224.619 516.261 224.594 516.032 224.522 515.816C224.45 515.6 224.333 515.402 224.179 515.236C224.026 515.07 223.838 514.94 223.63 514.854C223.422 514.768 223.199 514.728 222.974 514.738C221.718 514.732 221.767 515.85 221.523 516.585Z" fill="white"/>
<path d="M301.919 513.122C301.983 514.734 302.513 515.603 303.622 515.453C304.111 515.387 304.703 514.482 304.855 513.857C304.918 513.631 304.927 513.392 304.882 513.161C304.838 512.93 304.74 512.713 304.597 512.528C304.454 512.343 304.27 512.194 304.06 512.094C303.849 511.995 303.619 511.946 303.387 511.954C302.816 511.95 302.253 512.824 301.919 513.122Z" fill="white"/>
<path d="M305.568 527.581C305.568 529.226 306.244 529.994 307.288 530.038C307.699 530.038 308.402 529.183 308.51 528.629C308.705 527.652 307.575 526.337 306.888 526.578C306.387 526.822 305.939 527.163 305.568 527.581Z" fill="white"/>
<path d="M213.463 533.87C212.876 533.432 212.219 532.587 211.711 532.67C211.367 532.802 211.062 533.019 210.823 533.302C210.584 533.584 210.418 533.923 210.341 534.287C210.292 534.754 211.141 535.648 211.704 535.752C212.603 535.907 213.187 535.204 213.463 533.87Z" fill="white"/>
<path d="M203.555 539.298C204.096 539.654 204.755 540.394 205.053 540.285C205.398 540.125 205.709 539.898 205.967 539.615C206.225 539.333 206.425 539.001 206.556 538.64C206.653 538.273 205.82 537.279 205.306 537.197C204.225 537.043 203.917 538.009 203.555 539.298Z" fill="white"/>
<path d="M315.625 538.046C316.533 538.704 317.085 539.362 317.723 539.461C318.074 539.522 318.897 538.667 318.928 538.183C318.943 537.965 318.914 537.746 318.845 537.54C318.775 537.333 318.666 537.142 318.523 536.979C318.38 536.815 318.206 536.682 318.012 536.588C317.818 536.493 317.607 536.439 317.392 536.428C316.91 536.456 316.421 537.283 315.625 538.046Z" fill="white"/>
<path d="M213.468 512.955C212.387 515.023 209.065 515.697 210.224 519.125L213.852 513.213L213.468 512.955Z" fill="white"/>
<path d="M310.181 532.484C310.3 533.8 310.722 534.376 311.7 534.349C312.49 534.349 313.052 533.938 312.944 533.082C312.835 532.225 312.435 531.337 311.403 531.513C310.888 531.601 310.467 532.236 310.181 532.484Z" fill="white"/>
<path d="M224.374 507.185C224.034 507.78 223.385 508.413 223.45 508.956C223.514 509.499 224.342 509.855 224.834 510.299C225.225 509.844 225.915 509.4 225.942 508.934C225.942 508.358 225.401 507.766 225.088 507.185H224.374Z" fill="white"/>
<path d="M215.032 529.062C216.14 529.906 216.968 530.038 217.535 529.111C217.662 528.875 217.737 528.613 217.755 528.344C217.772 528.075 217.733 527.805 217.638 527.554C217.328 527.187 216.894 526.95 216.421 526.89C215.912 527.582 215.448 528.308 215.032 529.062Z" fill="white"/>
<path d="M222.147 523.436C221.51 522.887 221.109 522.262 220.72 522.268C220.018 522.268 219.19 522.665 219.477 523.633C219.622 524.129 220.168 524.499 220.558 524.923L222.147 523.436Z" fill="white"/>
<path d="M209.649 510.02C209.79 510.459 209.909 510.814 210.071 511.31L212.337 509.188L212.213 508.989L209.649 510.02Z" fill="white"/>
</svg>
