<svg xmlns="http://www.w3.org/2000/svg" width="1884.164" height="256.664"><path d="M203.356 169.86q-2.905 40.161-29.651 63.232t-70.5 23.071q-47.852 0-75.281-32.214T.495 135.509v-15.21q0-35.889 12.646-63.232t36.145-41.956Q72.786.499 103.886.499q43.066 0 69.385 23.071t30.42 64.771h-51.27q-1.88-24.1-13.416-34.949t-35.12-10.852q-25.635 0-38.367 18.372t-13.074 56.995v18.8q0 40.332 12.219 58.96t38.538 18.628q23.755 0 35.461-10.852t13.416-33.582Zm290.562-35.889q0 36.743-12.988 64.429t-37.17 42.725q-24.184 15.039-55.458 15.039-30.933 0-55.2-14.868t-37.6-42.468q-13.33-27.6-13.5-63.489v-12.3q0-36.743 13.245-64.685t37.427-42.9Q356.856.5 387.96.5t55.286 14.954q24.182 14.954 37.427 42.9t13.245 64.514Zm-51.953-11.279q0-39.136-14.014-59.473t-39.99-20.337q-25.806 0-39.819 20.081t-14.185 58.875v12.134q0 38.11 14.014 59.131t40.332 21.021q25.806 0 39.648-20.251t14.014-59.045Zm344.052 130.054h-51.27l-99.8-163.721v163.721h-51.27V3.918h51.27l99.976 164.063V3.918h51.1Zm284.58-207.3h-76.221v207.3h-51.269v-207.3h-75.2V3.918h202.69Zm201.694 156.03h-89.892l-17.09 51.27h-54.517l92.627-248.828h47.51l93.14 248.828h-54.517Zm-76.05-41.53h62.207l-31.274-93.14Zm418.906 9.912q-2.905 40.161-29.651 63.232t-70.5 23.071q-47.852 0-75.281-32.214t-27.429-88.44v-15.21q0-35.889 12.646-63.232t36.145-41.956q23.5-14.612 54.6-14.612 43.066 0 69.385 23.071t30.42 64.771h-51.27q-1.88-24.1-13.416-34.949t-35.12-10.852q-25.635 0-38.367 18.372t-13.074 56.995v18.8q0 40.332 12.219 58.96t38.538 18.628q23.755 0 35.461-10.852t13.416-33.582Zm268.516-124.412h-76.22v207.3h-51.27v-207.3h-75.2V3.918h202.69Z" fill="none" stroke="#ccc"/></svg>