<svg width="301" height="38" viewBox="0 0 301 38" fill="none" xmlns="http://www.w3.org/2000/svg">
<g opacity="0.3" clip-path="url(#clip0_2282_60)">
<path d="M6.59764 1.61292C6.33031 1.68006 6.14543 1.81932 5.84312 2.23211C5.5408 2.64491 5.3759 2.9483 5.08858 3.68188C4.80126 4.41298 4.70382 4.93519 4.40401 5.89507C4.1042 6.85246 3.92681 7.41695 3.58452 8.4763C3.24224 9.53316 3.03736 10.1051 2.69008 11.1868C2.34529 12.2661 2.14543 12.8405 1.85311 13.88C1.56329 14.9194 1.42837 15.4441 1.23849 16.3866C1.04861 17.3315 0.943677 17.7891 0.901204 18.5948C0.856232 19.398 0.876215 19.7785 1.02112 20.4076C1.16353 21.0393 1.29595 21.3203 1.61575 21.743C1.93555 22.1658 2.16042 22.3423 2.62512 22.5238C3.08983 22.7054 3.38465 22.7402 3.93681 22.6507C4.48896 22.5611 4.81376 22.4492 5.3884 22.0737C5.96054 21.6982 6.23037 21.3924 6.80751 20.7707C7.38465 20.1515 7.66697 19.7387 8.27659 18.9753C8.88621 18.2143 9.23599 17.7618 9.8606 16.9585C10.4852 16.1578 10.8125 15.7052 11.4021 14.9642C11.9943 14.2231 12.3465 13.8675 12.8113 13.2583C13.2785 12.6515 13.5383 12.3282 13.7332 11.9254C13.9256 11.5225 13.8756 11.3062 13.7807 11.2465C13.6882 11.1868 13.4783 11.2689 13.261 11.627C13.0461 11.9826 12.8737 12.3208 12.7013 13.032C12.5289 13.7432 12.5189 14.2977 12.3965 15.1805C12.2741 16.0633 12.1817 16.583 12.0892 17.4435C11.9968 18.3039 11.8968 18.7316 11.9293 19.4801C11.9643 20.2311 12.0367 20.5917 12.2616 21.1934C12.489 21.7977 12.6414 22.0837 13.0586 22.4965C13.4733 22.9093 13.7607 23.0933 14.3453 23.2574C14.9274 23.424 15.2947 23.4589 15.9718 23.3246C16.6514 23.1903 17.0286 23.0336 17.7382 22.591C18.4477 22.1483 18.785 21.8126 19.5196 21.1114C20.2541 20.4076 20.6414 19.9874 21.4109 19.0772C22.1804 18.1646 22.5926 17.6275 23.3672 16.5557C24.1417 15.4839 24.5464 14.8697 25.2785 13.7183C26.008 12.567 26.3778 11.9378 27.0224 10.8014C27.667 9.66744 27.9768 9.0756 28.5039 8.04609C29.0311 7.01659 29.266 6.51676 29.6582 5.66132C30.048 4.8034 30.2778 4.4279 30.4627 3.76145C30.6476 3.09501 30.6051 2.76925 30.5852 2.3291C30.5627 1.88895 30.4877 1.71985 30.3578 1.55821C30.2254 1.39658 30.083 1.40155 29.9256 1.52091C29.7707 1.63779 29.7407 1.78202 29.5758 2.15006C29.4084 2.51561 29.296 2.73692 29.0961 3.35363C28.8962 3.96786 28.8737 4.37568 28.5739 5.22614C28.2766 6.07909 28.0742 6.58638 27.602 7.61092C27.1298 8.63545 26.8325 9.22977 26.2104 10.3513C25.5908 11.4728 25.226 12.0995 24.499 13.2235C23.7719 14.3475 23.3597 14.9493 22.5777 15.9738C21.7931 16.9983 21.3659 17.5131 20.5789 18.3412C19.7944 19.1692 19.3822 19.5472 18.6476 20.1167C17.9156 20.6886 17.5283 20.8677 16.9162 21.1934C16.3041 21.5217 16.0442 21.6137 15.592 21.753C15.1373 21.8922 14.9699 21.9245 14.6501 21.8897C14.3328 21.8549 14.2029 21.8027 13.993 21.5814C13.7832 21.3576 13.6982 21.2059 13.6008 20.7806C13.5058 20.3529 13.5108 20.0744 13.5133 19.4453C13.5158 18.8136 13.5058 18.4207 13.6158 17.63C13.7257 16.8392 13.8631 16.3418 14.068 15.4939C14.2728 14.6484 14.5377 14.1535 14.6451 13.4C14.75 12.6465 14.75 12.2387 14.5976 11.7265C14.4477 11.2142 14.2554 10.973 13.8931 10.8387C13.5308 10.7069 13.241 10.7616 12.7863 11.0625C12.3316 11.3634 12.1042 11.724 11.6195 12.3481C11.1373 12.9723 10.9224 13.4199 10.3678 14.1833C9.81313 14.9468 9.48333 15.3894 8.85123 16.1653C8.22162 16.9411 7.85685 17.3813 7.21476 18.0676C6.57266 18.754 6.21538 19.0897 5.64324 19.5994C5.07109 20.1092 4.78127 20.2908 4.35404 20.6215C3.92681 20.9522 3.7769 21.0915 3.50707 21.2506C3.23724 21.4123 3.17478 21.4595 3.00488 21.4222C2.83499 21.3874 2.77503 21.3277 2.6551 21.0716C2.53268 20.8179 2.47022 20.6339 2.40027 20.1465C2.33031 19.6616 2.29783 19.3508 2.30282 18.6396C2.31032 17.9284 2.30782 17.4857 2.43274 16.5905C2.55766 15.6953 2.67009 15.1805 2.93243 14.1659C3.19227 13.1538 3.38465 12.5869 3.73943 11.5275C4.0942 10.4682 4.30658 9.89622 4.70383 8.8692C5.10108 7.84218 5.32344 7.2951 5.72569 6.38744C6.12544 5.4773 6.42025 5.03964 6.71257 4.32346C7.00239 3.60976 7.08733 3.30141 7.17977 2.81401C7.27222 2.3291 7.2947 2.13514 7.17977 1.89392C7.06235 1.6552 6.86497 1.54578 6.59764 1.61292Z" fill="white" stroke="white"/>
<path d="M32.1538 14.912C32.3761 15.0537 32.581 15.0313 32.9907 14.9915C33.403 14.9518 33.6553 14.907 34.2075 14.713C34.7596 14.5191 35.1269 14.35 35.7515 14.0217C36.3786 13.696 36.7234 13.4697 37.3355 13.0743C37.9476 12.6789 38.2799 12.465 38.8146 12.0423C39.3493 11.6195 39.6316 11.4082 40.0089 10.963C40.3836 10.5154 40.5585 10.2792 40.6934 9.81168C40.8283 9.34169 40.8483 9.05572 40.6859 8.62054C40.521 8.18785 40.3462 7.9143 39.8764 7.63828C39.4042 7.36225 39.047 7.20808 38.3299 7.23792C37.6154 7.27024 37.1706 7.43188 36.2987 7.78997C35.4267 8.14806 34.922 8.43404 33.9651 9.02837C33.0107 9.62269 32.4561 10.0131 31.5142 10.7666C30.5748 11.5201 30.0576 11.9702 29.2656 12.7933C28.4711 13.6189 28.0838 14.064 27.5467 14.8871C27.0095 15.7077 26.7521 16.123 26.5798 16.9088C26.4074 17.6946 26.4573 18.1198 26.6822 18.8136C26.907 19.5099 27.1344 19.878 27.7065 20.3828C28.2812 20.8901 28.7084 21.0741 29.5479 21.3427C30.3849 21.6112 30.8971 21.6485 31.8964 21.7206C32.8933 21.7928 33.4605 21.7679 34.5398 21.6983C35.6191 21.6286 36.2012 21.5515 37.2906 21.375C38.3774 21.1984 39.0195 21.0492 39.9814 20.818C40.9433 20.5867 41.438 20.5046 42.1025 20.2187C42.7646 19.9327 43.0969 19.6591 43.2993 19.3906C43.4992 19.122 43.4292 18.9529 43.1094 18.8733C42.7896 18.7913 42.3924 18.841 41.7053 18.9852C41.0157 19.1295 40.591 19.3508 39.6691 19.597C38.7471 19.8432 38.1325 20.0371 37.0957 20.2162C36.0588 20.3952 35.4942 20.4549 34.4798 20.4872C33.468 20.522 32.9208 20.4972 32.0289 20.3803C31.1369 20.2659 30.6972 20.1391 30.0176 19.9128C29.338 19.6865 29.0557 19.5522 28.631 19.2513C28.2087 18.9504 28.0413 18.8211 27.8989 18.4133C27.7565 18.003 27.7815 17.7841 27.9164 17.2072C28.0488 16.6278 28.1388 16.2498 28.571 15.5212C29.0032 14.7901 29.348 14.3351 30.0776 13.5592C30.8046 12.7858 31.3093 12.3407 32.2137 11.6519C33.1182 10.963 33.6753 10.6 34.5972 10.12C35.5192 9.64258 36.0438 9.47597 36.8184 9.25465C37.5929 9.03582 37.9576 9.08307 38.4698 9.01842C38.982 8.95376 39.1319 8.93636 39.3768 8.93387C39.6216 8.93138 39.6591 8.93387 39.6916 9.0035C39.724 9.07561 39.6991 9.11789 39.5416 9.28947C39.3842 9.46105 39.2543 9.59285 38.9071 9.8639C38.5598 10.1374 38.3074 10.3264 37.8052 10.6522C37.3006 10.9755 36.9808 11.1694 36.3886 11.4852C35.794 11.8036 35.4342 11.9453 34.8371 12.2387C34.24 12.5322 33.8877 12.6739 33.4005 12.9499C32.9133 13.2285 32.7034 13.3578 32.3986 13.6263C32.0963 13.8924 31.9314 14.0267 31.8839 14.2828C31.834 14.539 31.9314 14.7702 32.1538 14.912Z" fill="white" stroke="white"/>
<path d="M55.9045 0.912385C55.6496 0.989473 55.5422 1.15111 55.2824 1.48185C55.0225 1.81507 54.8626 2.06871 54.6103 2.57352C54.3555 3.07833 54.218 3.42647 54.0107 4.00339C53.8033 4.57782 53.6734 4.89862 53.5659 5.45067C53.461 6.00521 53.3686 6.44536 53.481 6.76615C53.5959 7.08694 53.8208 7.18641 54.1356 7.05461C54.4504 6.92282 54.7102 6.56224 55.0525 6.11214C55.3973 5.65956 55.5672 5.35866 55.8545 4.80164C56.1418 4.2471 56.3042 3.89398 56.4841 3.33198C56.6665 2.76998 56.744 2.44173 56.7589 1.99411C56.7714 1.5465 56.724 1.31026 56.5541 1.09392C56.3817 0.877573 56.1593 0.835296 55.9045 0.912385Z" fill="white" stroke="white"/>
<path d="M61.015 12.5276C60.7752 12.5748 60.6703 12.6942 60.4329 12.9752C60.193 13.2562 60.0656 13.4501 59.8208 13.9351C59.5759 14.42 59.451 14.7656 59.2062 15.3973C58.9638 16.0264 58.8589 16.4243 58.6015 17.0882C58.3442 17.7497 58.1643 18.1152 57.922 18.7121C57.6796 19.3064 57.4922 19.6023 57.3898 20.0648C57.2874 20.5249 57.2824 20.7586 57.4048 21.0173C57.5297 21.2734 57.7271 21.3754 58.0119 21.348C58.2992 21.3206 58.5216 21.2187 58.8364 20.8805C59.1487 20.5398 59.3061 20.2439 59.5759 19.6521C59.8458 19.0577 59.8683 18.5977 60.1831 17.9113C60.4954 17.225 60.7102 16.852 61.1474 16.2179C61.5847 15.5838 61.862 15.263 62.3692 14.7408C62.8739 14.2161 63.1787 13.9873 63.6759 13.5993C64.1731 13.2139 64.4079 13.0398 64.8526 12.8061C65.2974 12.5723 65.5047 12.5002 65.8995 12.4306C66.2967 12.3634 66.4691 12.3958 66.8364 12.4654C67.2062 12.5375 67.3885 12.6668 67.7383 12.7862C68.0906 12.9055 68.2705 13.0125 68.5953 13.0672C68.9226 13.1194 69.1524 13.1667 69.3698 13.0597C69.5872 12.9528 69.7046 12.7812 69.6821 12.5325C69.6596 12.2839 69.5322 12.08 69.2574 11.8189C68.9851 11.5577 68.7627 11.3986 68.3155 11.227C67.8707 11.0554 67.5609 11.0007 67.0288 10.9584C66.4941 10.9162 66.2193 10.9187 65.6521 11.0181C65.0875 11.1151 64.7927 11.1897 64.2005 11.4508C63.6084 11.7119 63.2811 11.876 62.689 12.3237C62.0993 12.7688 61.807 13.0871 61.2474 13.6839C60.6877 14.2782 60.4079 14.6313 59.8882 15.3003C59.3661 15.9717 59.1162 16.3546 58.644 17.036C58.1718 17.7174 57.832 18.0755 57.5322 18.7096C57.2299 19.3437 57.1574 19.7167 57.1375 20.2041C57.12 20.6915 57.2374 20.9203 57.4348 21.1491C57.6321 21.3778 57.8395 21.4325 58.1243 21.3505C58.4092 21.2684 58.5691 21.1167 58.8564 20.7363C59.1412 20.3533 59.2636 20.0275 59.5559 19.4432C59.8458 18.8613 60.0032 18.4758 60.313 17.8193C60.6253 17.1603 60.8401 16.7998 61.11 16.1607C61.3798 15.5216 61.5247 15.1635 61.6646 14.6214C61.807 14.0818 61.8195 13.8356 61.812 13.4576C61.807 13.0821 61.792 12.923 61.6346 12.7364C61.4747 12.5524 61.2549 12.4778 61.015 12.5276Z" fill="white" stroke="white"/>
<path d="M73.9352 18.0533C74.1201 18.2 74.2525 18.2025 74.6123 18.2025C74.9745 18.2049 75.2044 18.1975 75.7391 18.0533C76.2737 17.9115 76.6235 17.7797 77.2831 17.4888C77.9452 17.1978 78.3224 16.9591 79.037 16.601C79.754 16.2429 80.1688 16.0639 80.8609 15.6958C81.5529 15.3303 81.9327 15.1537 82.4973 14.7658C83.062 14.3779 83.3343 14.1789 83.6841 13.7562C84.0314 13.331 84.1813 13.0947 84.2387 12.6471C84.2962 12.1995 84.2537 11.8961 83.9714 11.5156C83.6916 11.1377 83.4243 10.9064 82.8321 10.7497C82.2375 10.5955 81.8153 10.5781 81.0083 10.7398C80.1988 10.8989 79.7291 11.1401 78.7897 11.5505C77.8527 11.9608 77.2956 12.2318 76.3162 12.7888C75.3368 13.3484 74.7822 13.6915 73.8927 14.3406C73.0008 14.9896 72.5411 15.3477 71.8615 16.0315C71.1819 16.7154 70.8271 17.0586 70.4973 17.7598C70.1675 18.4636 70.1226 18.8739 70.215 19.5453C70.3075 20.2167 70.4649 20.5947 70.9546 21.1169C71.4467 21.6366 71.8415 21.8654 72.666 22.1539C73.488 22.4399 74.0226 22.4573 75.072 22.5517C76.1213 22.6462 76.7334 22.6363 77.9127 22.6288C79.092 22.6214 79.7516 22.5766 80.9608 22.512C82.1725 22.4473 82.8871 22.3926 83.9614 22.3081C85.0358 22.226 85.5704 22.2359 86.3324 22.0942C87.097 21.95 87.4967 21.8008 87.7715 21.5919C88.0464 21.3855 88.0164 21.194 87.7041 21.0597C87.3918 20.9254 86.9745 20.903 86.2075 20.9229C85.438 20.9453 84.9208 21.0622 83.859 21.1642C82.7997 21.2661 82.0901 21.3681 80.9033 21.4352C79.7166 21.4999 79.0595 21.5297 77.9277 21.4924C76.7934 21.4576 76.1888 21.4079 75.2369 21.2537C74.2825 21.097 73.8352 20.9403 73.1657 20.7116C72.4986 20.4853 72.2462 20.3784 71.8915 20.1172C71.5392 19.8561 71.4293 19.7542 71.3993 19.406C71.3693 19.0604 71.4692 18.8813 71.7441 18.3815C72.0214 17.8817 72.2088 17.5236 72.7809 16.9044C73.3506 16.2877 73.7728 15.9047 74.5973 15.2955C75.4218 14.6887 75.9689 14.3505 76.9058 13.8681C77.8453 13.3857 78.4074 13.1519 79.2918 12.8833C80.1763 12.6123 80.6535 12.6247 81.3256 12.5203C81.9977 12.4183 82.265 12.4208 82.6522 12.3711C83.0395 12.3238 83.1369 12.2865 83.2594 12.2791C83.3793 12.2741 83.3693 12.2567 83.2594 12.3437C83.1494 12.4308 83.042 12.5078 82.7097 12.7142C82.3774 12.9182 82.1226 13.0649 81.6004 13.3707C81.0757 13.6741 80.7459 13.8979 80.0913 14.2336C79.4393 14.5669 79.0445 14.7583 78.3325 15.0393C77.6204 15.3179 77.1882 15.3925 76.5286 15.6312C75.8715 15.8724 75.5292 15.9918 75.042 16.2379C74.5523 16.4841 74.3599 16.6184 74.0876 16.8646C73.8178 17.1083 73.7178 17.2277 73.6878 17.4639C73.6579 17.7026 73.7503 17.904 73.9352 18.0533Z" fill="white" stroke="white"/>
<path d="M131.114 12.9726C131.174 12.7239 131.124 12.5126 130.917 12.2166C130.712 11.9207 130.524 11.7292 130.087 11.4955C129.65 11.2617 129.338 11.1449 128.728 11.0479C128.121 10.9509 127.784 10.9161 127.049 11.0131C126.315 11.1101 125.905 11.2269 125.058 11.5303C124.211 11.8312 123.739 12.0426 122.817 12.5275C121.895 13.0124 121.373 13.3307 120.448 13.9524C119.521 14.5741 119.009 14.9496 118.187 15.6384C117.365 16.3272 116.94 16.7027 116.338 17.3965C115.736 18.0928 115.446 18.4459 115.179 19.1124C114.912 19.7788 114.897 20.1493 114.999 20.7262C115.102 21.3056 115.269 21.6041 115.696 22.0044C116.123 22.4048 116.456 22.5987 117.138 22.7305C117.822 22.8623 118.262 22.8275 119.112 22.6609C119.961 22.4968 120.446 22.2904 121.39 21.9025C122.332 21.517 122.847 21.2634 123.826 20.7262C124.805 20.1891 125.338 19.8633 126.287 19.2168C127.236 18.5702 127.731 18.1798 128.576 17.4935C129.42 16.8072 129.83 16.4167 130.504 15.7826C131.181 15.1485 131.581 14.875 131.959 14.3204C132.336 13.7659 132.428 13.3954 132.393 13.0099C132.361 12.627 132.146 12.438 131.789 12.4007C131.429 12.3659 131.072 12.4529 130.604 12.8259C130.137 13.1989 129.88 13.5794 129.448 14.2632C129.015 14.9496 128.825 15.4668 128.438 16.2501C128.048 17.0334 127.781 17.4438 127.509 18.1773C127.236 18.9109 127.137 19.2815 127.077 19.9205C127.019 20.5596 127.049 20.8705 127.216 21.3728C127.381 21.8776 127.579 22.1238 127.906 22.4346C128.236 22.7455 128.516 22.8723 128.863 22.927C129.21 22.9817 129.473 22.8847 129.65 22.7107C129.827 22.5391 129.82 22.2705 129.75 22.0591C129.68 21.8478 129.493 21.7831 129.303 21.6538C129.113 21.5245 128.975 21.5394 128.798 21.4126C128.618 21.2858 128.473 21.2708 128.416 21.0222C128.358 20.771 128.383 20.6044 128.511 20.1618C128.636 19.7166 128.763 19.4207 129.045 18.8015C129.328 18.1798 129.5 17.7471 129.922 17.0608C130.345 16.3745 130.729 15.994 131.152 15.3648C131.576 14.7382 131.839 14.4174 132.041 13.9176C132.241 13.4202 132.233 13.1318 132.158 12.8756C132.083 12.6195 131.941 12.5399 131.661 12.6419C131.379 12.7438 131.172 12.9328 130.757 13.3829C130.342 13.833 130.172 14.2433 129.59 14.8899C129.005 15.5389 128.626 15.9443 127.841 16.6256C127.054 17.307 126.572 17.685 125.66 18.2967C124.748 18.906 124.223 19.2118 123.276 19.6793C122.33 20.1443 121.812 20.3532 120.925 20.6268C120.036 20.9028 119.556 20.9476 118.837 21.0495C118.115 21.149 117.802 21.1341 117.323 21.1316C116.843 21.1291 116.676 21.149 116.438 21.0421C116.198 20.9351 116.128 20.8655 116.131 20.5944C116.131 20.3209 116.203 20.1468 116.446 19.6768C116.691 19.2044 116.843 18.8612 117.348 18.2345C117.852 17.6104 118.22 17.2025 118.972 16.546C119.724 15.8895 120.226 15.519 121.11 14.9496C121.995 14.3801 122.514 14.0916 123.394 13.6987C124.273 13.3058 124.736 13.1691 125.503 12.9826C126.27 12.7985 126.639 12.8085 127.224 12.7737C127.809 12.7389 128.013 12.7389 128.428 12.8135C128.843 12.8906 128.988 13.0348 129.3 13.1541C129.615 13.2735 129.73 13.3481 129.995 13.4128C130.257 13.4749 130.394 13.5545 130.619 13.4675C130.842 13.3804 131.054 13.2238 131.114 12.9726Z" fill="white" stroke="white"/>
<path d="M148.728 14.2881C148.843 14.0668 148.843 13.8504 148.698 13.557C148.554 13.2661 148.391 13.0646 148.004 12.8284C147.617 12.5897 147.329 12.4629 146.765 12.3733C146.198 12.2838 145.863 12.2763 145.173 12.3808C144.486 12.4852 144.084 12.5947 143.327 12.8906C142.567 13.1865 142.145 13.4178 141.383 13.8579C140.619 14.3005 140.196 14.5791 139.507 15.0963C138.815 15.616 138.412 15.8821 137.928 16.4491C137.443 17.0136 137.251 17.3592 137.081 17.9312C136.911 18.5006 136.908 18.8239 137.078 19.3063C137.248 19.7863 137.451 20.0449 137.935 20.3309C138.417 20.6193 138.787 20.7412 139.492 20.7412C140.194 20.7412 140.634 20.5969 141.451 20.3284C142.265 20.0623 142.715 19.8186 143.567 19.4058C144.419 18.993 144.891 18.7344 145.71 18.2644C146.53 17.7944 146.972 17.5308 147.662 17.0583C148.351 16.5834 148.706 16.3446 149.158 15.8945C149.61 15.4469 149.793 15.1908 149.928 14.8153C150.065 14.4398 150.015 14.2135 149.838 14.0146C149.66 13.8181 149.391 13.7261 149.043 13.8231C148.696 13.9201 148.439 14.0767 148.099 14.4995C147.759 14.9247 147.592 15.2629 147.344 15.9443C147.097 16.6281 147.07 17.0931 146.862 17.9163C146.655 18.7369 146.537 19.182 146.31 20.0499C146.083 20.9177 145.97 21.3828 145.73 22.2606C145.488 23.1359 145.376 23.5959 145.106 24.434C144.836 25.2745 144.708 25.6947 144.384 26.4532C144.059 27.2117 143.879 27.5772 143.482 28.2262C143.082 28.8778 142.86 29.1811 142.392 29.7083C141.928 30.2355 141.673 30.4643 141.153 30.8622C140.634 31.2576 140.351 31.4167 139.794 31.6878C139.237 31.9588 138.932 32.0658 138.372 32.21C137.815 32.3542 137.525 32.3915 137.001 32.4089C136.476 32.4263 136.201 32.389 135.749 32.297C135.294 32.2025 135.067 32.1254 134.732 31.9414C134.395 31.7574 134.263 31.638 134.063 31.3769C133.865 31.1133 133.843 30.9243 133.743 30.6259C133.645 30.3275 133.67 30.1634 133.573 29.8849C133.476 29.6039 133.446 29.3726 133.258 29.2284C133.068 29.0842 132.846 29.0295 132.629 29.1662C132.411 29.3005 132.259 29.5193 132.171 29.9048C132.081 30.2877 132.054 30.6011 132.189 31.086C132.324 31.5709 132.494 31.8892 132.848 32.3269C133.203 32.762 133.453 32.966 133.963 33.2669C134.472 33.5702 134.78 33.6896 135.397 33.8388C136.011 33.9855 136.366 34.0228 137.041 34.0079C137.718 33.9955 138.08 33.9507 138.777 33.7741C139.472 33.5976 139.847 33.4683 140.516 33.1276C141.188 32.7869 141.525 32.5681 142.125 32.0732C142.727 31.5784 143.01 31.2824 143.522 30.6558C144.034 30.0266 144.269 29.6685 144.688 28.9325C145.108 28.1939 145.288 27.7861 145.623 26.9655C145.958 26.1473 146.083 25.7022 146.36 24.8319C146.637 23.964 146.75 23.5015 147.012 22.6236C147.274 21.7483 147.392 21.2883 147.672 20.4502C147.951 19.6122 148.086 19.177 148.409 18.436C148.733 17.6949 149.003 17.3468 149.288 16.745C149.575 16.1457 149.71 15.8746 149.84 15.4295C149.97 14.9844 149.985 14.8029 149.938 14.5169C149.888 14.2309 149.78 14.0892 149.598 13.9997C149.413 13.9126 149.313 13.925 149.016 14.0743C148.721 14.2235 148.564 14.3926 148.121 14.7482C147.677 15.1063 147.417 15.3947 146.795 15.8572C146.175 16.3173 145.778 16.6182 145.011 17.0583C144.244 17.501 143.774 17.7397 142.965 18.0655C142.158 18.3887 141.688 18.5056 140.968 18.6847C140.246 18.8637 139.876 18.8687 139.362 18.9557C138.847 19.0427 138.652 19.1099 138.392 19.1198C138.133 19.1298 138.08 19.1348 138.063 19.0054C138.048 18.8761 138.093 18.7667 138.31 18.4758C138.525 18.1873 138.717 17.9859 139.147 17.5557C139.577 17.128 139.854 16.7972 140.454 16.3322C141.056 15.8697 141.456 15.5986 142.148 15.2405C142.84 14.8849 143.257 14.7531 143.916 14.5467C144.579 14.3378 144.933 14.2856 145.453 14.206C145.973 14.1265 146.173 14.114 146.517 14.1489C146.862 14.1837 146.95 14.2981 147.172 14.3851C147.394 14.4696 147.437 14.5219 147.629 14.5791C147.819 14.6363 147.909 14.7283 148.129 14.6711C148.349 14.6114 148.614 14.5094 148.728 14.2881Z" fill="white" stroke="white"/>
<path d="M156.126 17.212C156.251 17.4035 156.374 17.4707 156.704 17.5478C157.036 17.6248 157.258 17.6671 157.78 17.6C158.303 17.5328 158.662 17.4483 159.317 17.217C159.971 16.9858 160.351 16.7669 161.056 16.4412C161.76 16.1154 162.15 15.9289 162.84 15.5907C163.529 15.2525 163.919 15.1058 164.501 14.7502C165.083 14.3946 165.368 14.2106 165.75 13.8127C166.133 13.4148 166.305 13.1985 166.412 12.7608C166.52 12.3231 166.512 12.0272 166.285 11.6219C166.058 11.2165 165.825 10.9679 165.278 10.7366C164.728 10.5028 164.334 10.4133 163.542 10.4606C162.75 10.5078 162.273 10.6943 161.318 10.9704C160.364 11.2464 159.802 11.4279 158.775 11.8432C157.748 12.2585 157.168 12.5295 156.189 13.0493C155.207 13.569 154.692 13.8724 153.873 14.4418C153.053 15.0113 152.631 15.2823 152.089 15.899C151.549 16.5182 151.347 16.8788 151.167 17.5328C150.99 18.1844 151 18.5549 151.197 19.1691C151.394 19.7858 151.594 20.1364 152.151 20.6114C152.708 21.0864 153.131 21.2704 153.988 21.5439C154.842 21.8175 155.379 21.8622 156.431 21.9766C157.483 22.0885 158.075 22.1084 159.249 22.1109C160.424 22.1109 161.178 22.0587 162.303 21.9816C163.427 21.9045 164.026 21.8871 164.868 21.7255C165.708 21.5613 166.198 21.3898 166.505 21.1635C166.815 20.9372 166.77 20.7109 166.412 20.594C166.055 20.4746 165.563 20.5293 164.723 20.5716C163.887 20.6139 163.314 20.7333 162.22 20.8079C161.128 20.8825 160.381 20.967 159.259 20.9471C158.138 20.9247 157.568 20.87 156.614 20.7009C155.657 20.5318 155.192 20.3578 154.487 20.0967C153.78 19.8355 153.51 19.664 153.086 19.3929C152.661 19.1219 152.506 19.0348 152.366 18.7414C152.224 18.4455 152.221 18.3012 152.376 17.9158C152.531 17.5328 152.694 17.3165 153.141 16.8216C153.585 16.3268 153.88 15.9836 154.602 15.439C155.324 14.8919 155.822 14.5786 156.743 14.0912C157.668 13.6063 158.238 13.3501 159.217 13.0095C160.196 12.6713 160.758 12.532 161.64 12.3977C162.525 12.261 162.977 12.3505 163.629 12.3331C164.281 12.3132 164.526 12.3132 164.898 12.3032C165.271 12.2908 165.378 12.2684 165.493 12.2734C165.605 12.2784 165.593 12.2485 165.463 12.3281C165.331 12.4077 165.193 12.4798 164.833 12.6713C164.476 12.8603 164.216 13.007 163.669 13.283C163.124 13.559 162.767 13.7555 162.108 14.0539C161.448 14.3523 161.061 14.5338 160.371 14.775C159.682 15.0163 159.279 15.0735 158.662 15.2624C158.045 15.4514 157.728 15.5385 157.288 15.72C156.851 15.904 156.714 16.001 156.471 16.1751C156.229 16.3491 156.144 16.384 156.074 16.5904C156.006 16.7992 156.001 17.0206 156.126 17.212Z" fill="white" stroke="white"/>
<path d="M180.903 13.1964C180.711 13.082 180.601 13.087 180.306 13.1442C180.011 13.2039 179.836 13.2462 179.432 13.4849C179.029 13.7211 178.775 13.9027 178.285 14.3354C177.798 14.7705 177.56 15.0988 176.991 15.6558C176.421 16.2104 176.079 16.5336 175.439 17.1155C174.8 17.6974 174.43 18.0182 173.79 18.5653C173.151 19.1124 172.788 19.3685 172.241 19.8509C171.697 20.3309 171.442 20.582 171.059 20.9749C170.68 21.3653 170.527 21.5245 170.337 21.808C170.145 22.0915 170.147 22.2183 170.105 22.3924C170.065 22.5664 170.095 22.5814 170.13 22.6759C170.165 22.7703 170.19 22.8151 170.28 22.8648C170.372 22.9171 170.405 22.9569 170.59 22.9295C170.772 22.9021 170.902 22.8997 171.199 22.7306C171.497 22.5639 171.654 22.4222 172.079 22.084C172.501 21.7483 172.773 21.5245 173.313 21.0446C173.85 20.5621 174.145 20.2339 174.77 19.6769C175.394 19.1223 175.764 18.8065 176.434 18.2619C177.106 17.7173 177.493 17.4338 178.122 16.9539C178.755 16.4739 179.094 16.2626 179.592 15.8622C180.086 15.4643 180.299 15.2778 180.603 14.957C180.908 14.6387 180.988 14.5119 181.118 14.2632C181.251 14.0146 181.301 13.93 181.258 13.7162C181.213 13.5023 181.093 13.3108 180.903 13.1964Z" fill="white" stroke="white"/>
<path d="M171.497 14.8869C171.454 15.1058 171.509 15.1953 171.639 15.4514C171.769 15.7076 171.851 15.8568 172.146 16.1676C172.443 16.4809 172.681 16.655 173.126 17.0156C173.573 17.3787 173.838 17.5776 174.375 17.973C174.914 18.3684 175.222 18.5971 175.814 18.9925C176.406 19.3854 176.713 19.5894 177.338 19.945C177.963 20.303 178.29 20.4746 178.937 20.773C179.584 21.069 179.924 21.2231 180.568 21.432C181.213 21.6409 181.583 21.718 182.16 21.815C182.737 21.9144 183.027 21.9418 183.454 21.9269C183.881 21.9095 184.046 21.8349 184.299 21.7354C184.553 21.6359 184.648 21.5688 184.726 21.4246C184.806 21.2778 184.778 21.1411 184.696 21.0068C184.613 20.8725 184.528 20.8626 184.316 20.7556C184.106 20.6462 183.999 20.5766 183.634 20.4622C183.272 20.3503 183.009 20.3155 182.5 20.1911C181.992 20.0643 181.665 20.0196 181.093 19.8331C180.523 19.6465 180.224 19.5297 179.646 19.2586C179.069 18.9876 178.772 18.8234 178.21 18.4803C177.65 18.1371 177.375 17.9382 176.843 17.5403C176.311 17.1449 176.039 16.9111 175.554 16.4983C175.067 16.0831 174.849 15.8418 174.412 15.4738C173.975 15.1058 173.755 14.8944 173.37 14.6607C172.986 14.4269 172.796 14.3647 172.491 14.3026C172.189 14.2429 172.054 14.2354 171.856 14.3523C171.656 14.4692 171.542 14.6656 171.497 14.8869Z" fill="white" stroke="white"/>
<path d="M221.822 14.4325C221.944 14.1938 221.937 13.9476 221.804 13.6044C221.67 13.2637 221.522 13.0374 221.155 12.7191C220.788 12.4008 220.51 12.2168 219.968 12.0129C219.426 11.809 219.111 11.7443 218.442 11.6996C217.77 11.6548 217.382 11.6374 216.613 11.7841C215.841 11.9308 215.416 12.0925 214.586 12.4381C213.755 12.7813 213.285 13.02 212.458 13.5049C211.628 13.9898 211.176 14.2932 210.444 14.8627C209.712 15.4321 209.33 15.7405 208.798 16.3497C208.265 16.9615 208.031 17.3071 207.783 17.9214C207.536 18.5356 207.483 18.8688 207.566 19.4209C207.646 19.9729 207.791 20.2788 208.188 20.6816C208.588 21.0845 208.91 21.2735 209.555 21.4351C210.197 21.5943 210.624 21.6017 211.408 21.4774C212.195 21.3555 212.633 21.1516 213.482 20.8184C214.332 20.4827 214.801 20.2564 215.656 19.8063C216.508 19.3562 216.963 19.0777 217.755 18.5654C218.544 18.0532 218.951 17.7672 219.606 17.2475C220.263 16.7252 220.62 16.4617 221.032 15.9593C221.442 15.457 221.602 15.1238 221.66 14.7359C221.715 14.3479 221.57 14.1167 221.312 14.0222C221.055 13.9302 220.748 13.965 220.373 14.2708C219.998 14.5792 219.768 14.8726 219.441 15.5565C219.116 16.2403 219.056 16.77 218.746 17.6926C218.437 18.6152 218.249 19.1548 217.892 20.1694C217.532 21.184 217.35 21.7286 216.955 22.768C216.56 23.8075 216.358 24.3496 215.913 25.3691C215.471 26.3862 215.236 26.9134 214.736 27.8608C214.237 28.8083 213.974 29.2783 213.412 30.1039C212.85 30.927 212.54 31.3174 211.923 31.9838C211.306 32.6503 210.966 32.9537 210.327 33.4361C209.69 33.9185 209.347 34.1025 208.725 34.3984C208.103 34.6944 207.783 34.7889 207.219 34.9132C206.654 35.04 206.384 35.0674 205.902 35.0326C205.422 34.9953 205.2 34.8908 204.818 34.7366C204.433 34.5849 204.273 34.4109 203.986 34.2642C203.701 34.1175 203.591 34.0851 203.386 34.003C203.181 33.921 203.129 33.8364 202.961 33.8539C202.796 33.8713 202.629 33.921 202.554 34.0926C202.477 34.2642 202.469 34.4308 202.579 34.7093C202.691 34.9853 202.779 35.1818 203.109 35.4752C203.441 35.7711 203.696 35.9701 204.233 36.1839C204.77 36.3978 205.132 36.5047 205.799 36.547C206.467 36.5917 206.851 36.5718 207.571 36.3978C208.288 36.2212 208.673 36.067 209.387 35.6766C210.102 35.2862 210.459 35.0226 211.144 34.4432C211.828 33.8613 212.173 33.5157 212.813 32.7696C213.452 32.0261 213.767 31.6009 214.342 30.7156C214.916 29.8328 215.179 29.3379 215.688 28.3532C216.198 27.3685 216.43 26.8288 216.89 25.7919C217.347 24.7549 217.552 24.2053 217.979 23.1709C218.407 22.1339 218.599 21.5918 219.026 20.612C219.456 19.6322 219.678 19.115 220.121 18.272C220.56 17.429 220.918 17.0535 221.23 16.3995C221.542 15.7455 221.635 15.4446 221.682 14.997C221.73 14.5518 221.65 14.3405 221.47 14.1639C221.287 13.9874 221.102 13.9699 220.78 14.1142C220.455 14.2559 220.273 14.4772 219.851 14.8826C219.426 15.2854 219.229 15.6236 218.659 16.1334C218.089 16.6457 217.73 16.9491 217.002 17.4365C216.275 17.9239 215.831 18.185 215.026 18.5704C214.222 18.9583 213.757 19.1423 212.98 19.3662C212.2 19.59 211.776 19.5999 211.139 19.6919C210.499 19.7839 210.214 19.8163 209.784 19.8237C209.355 19.8287 209.197 19.8237 208.988 19.7242C208.778 19.6248 208.72 19.5626 208.735 19.3264C208.753 19.0876 208.825 18.9335 209.07 18.5381C209.312 18.1427 209.5 17.8642 209.949 17.3469C210.402 16.8322 210.684 16.484 211.326 15.9593C211.968 15.4371 212.4 15.1487 213.16 14.7309C213.919 14.3131 214.377 14.1142 215.124 13.8705C215.873 13.6293 216.26 13.6019 216.903 13.5149C217.545 13.4278 217.847 13.408 218.329 13.4353C218.814 13.4627 218.984 13.5124 219.319 13.6541C219.656 13.7934 219.756 13.955 220.011 14.1341C220.263 14.3131 220.345 14.4151 220.583 14.5469C220.82 14.6787 220.945 14.8204 221.192 14.7955C221.44 14.7732 221.7 14.6712 221.822 14.4325Z" fill="white" stroke="white"/>
<path d="M229.028 12.4185C228.783 12.4956 228.708 12.6622 228.475 12.9681C228.241 13.2764 228.118 13.4679 227.861 13.9528C227.601 14.4377 227.461 14.7908 227.179 15.3926C226.899 15.9944 226.739 16.3674 226.454 16.9618C226.169 17.5561 225.98 17.8719 225.755 18.3593C225.532 18.8492 225.382 19.0755 225.335 19.4087C225.287 19.7419 225.355 19.9085 225.52 20.0229C225.685 20.1373 225.887 20.1522 226.162 19.9856C226.439 19.819 226.612 19.6325 226.899 19.1874C227.186 18.7422 227.279 18.3842 227.598 17.7625C227.921 17.1408 228.066 16.728 228.508 16.074C228.953 15.42 229.247 15.0718 229.82 14.4875C230.392 13.9056 230.739 13.6146 231.371 13.1595C232.003 12.7045 232.358 12.5155 232.978 12.2096C233.6 11.9037 233.91 11.7918 234.477 11.6302C235.044 11.4686 235.304 11.4462 235.813 11.4014C236.323 11.3591 236.565 11.4337 237.023 11.4139C237.48 11.3964 237.852 11.4611 238.099 11.3094C238.349 11.1552 238.442 10.9041 238.264 10.6455C238.089 10.3868 237.732 10.1705 237.222 10.0163C236.713 9.85965 236.353 9.83975 235.718 9.86711C235.081 9.89446 234.732 9.95165 234.047 10.1506C233.36 10.3495 232.993 10.4938 232.286 10.8618C231.579 11.2323 231.211 11.481 230.512 12.0007C229.815 12.5204 229.45 12.8388 228.798 13.4579C228.146 14.0796 227.831 14.4452 227.251 15.1042C226.672 15.7607 226.349 16.1038 225.905 16.7479C225.46 17.3895 225.222 17.7476 225.033 18.3195C224.843 18.8915 224.855 19.2172 224.955 19.6101C225.055 20.003 225.252 20.1746 225.537 20.2815C225.822 20.3885 226.039 20.3536 226.377 20.1448C226.714 19.9384 226.879 19.7021 227.229 19.2471C227.579 18.7895 227.768 18.4588 228.131 17.8644C228.49 17.2676 228.725 16.9046 229.035 16.2704C229.342 15.6338 229.5 15.2559 229.672 14.6864C229.842 14.1169 229.887 13.8459 229.892 13.4231C229.895 13.0029 229.86 12.7816 229.687 12.5801C229.515 12.3787 229.27 12.3389 229.028 12.4185Z" fill="white" stroke="white"/>
<path d="M251.027 12.1971C251.007 11.9434 250.9 11.7644 250.605 11.5356C250.313 11.3068 250.08 11.1626 249.556 11.0507C249.028 10.9388 248.654 10.889 247.974 10.981C247.294 11.0731 246.91 11.2049 246.153 11.5107C245.396 11.8141 244.976 12.0429 244.186 12.5054C243.394 12.9655 242.947 13.2539 242.195 13.8184C241.446 14.3804 241.036 14.6987 240.429 15.3229C239.819 15.9471 239.489 16.2828 239.152 16.9417C238.815 17.6032 238.725 17.9862 238.74 18.6253C238.755 19.2619 238.862 19.615 239.222 20.1322C239.582 20.6495 239.887 20.9205 240.541 21.2115C241.196 21.5024 241.646 21.5696 242.495 21.5894C243.344 21.6069 243.844 21.5074 244.791 21.301C245.738 21.0946 246.265 20.928 247.23 20.5525C248.194 20.1795 248.716 19.9358 249.613 19.4335C250.512 18.9286 250.97 18.6302 251.722 18.0384C252.471 17.4441 252.844 17.1183 253.366 16.4693C253.89 15.8202 254.105 15.4522 254.335 14.7932C254.565 14.1317 254.577 13.7587 254.517 13.1669C254.455 12.5726 254.33 12.2841 254.035 11.8265C253.743 11.369 253.483 11.1327 253.051 10.8791C252.619 10.6254 252.281 10.5558 251.877 10.5608C251.474 10.5658 251.212 10.71 251.032 10.9089C250.855 11.1079 250.877 11.3342 250.985 11.553C251.092 11.7743 251.304 11.8589 251.564 12.0056C251.824 12.1548 252.014 12.1747 252.286 12.2965C252.561 12.4209 252.751 12.4283 252.931 12.6223C253.111 12.8163 253.178 12.9306 253.188 13.2664C253.196 13.5996 253.171 13.8259 252.978 14.2909C252.789 14.7559 252.651 15.0419 252.234 15.5915C251.819 16.141 251.544 16.4892 250.897 17.0412C250.25 17.5933 249.823 17.8867 249.001 18.3492C248.176 18.8093 247.674 19.0356 246.782 19.3464C245.888 19.6548 245.378 19.7791 244.534 19.896C243.687 20.0153 243.242 19.9731 242.555 19.9358C241.868 19.901 241.563 19.8363 241.098 19.7145C240.636 19.5951 240.454 19.5404 240.239 19.3315C240.022 19.1226 239.967 18.9983 240.012 18.6675C240.059 18.3368 240.174 18.1453 240.471 17.6803C240.766 17.2128 240.978 16.8845 241.496 16.3424C242.01 15.7978 242.373 15.4646 243.055 14.9648C243.739 14.4625 244.171 14.1964 244.908 13.8333C245.646 13.4703 246.078 13.3459 246.74 13.147C247.399 12.9481 247.697 12.8958 248.211 12.8386C248.724 12.779 248.928 12.8411 249.303 12.8536C249.676 12.8685 249.8 12.9157 250.08 12.9058C250.358 12.8958 250.51 12.9456 250.7 12.8013C250.89 12.6596 251.045 12.4482 251.027 12.1971Z" fill="white" stroke="white"/>
<path d="M260.781 12.8259C260.534 12.7985 260.384 12.8632 260.049 13.082C259.714 13.3009 259.49 13.465 259.112 13.9201C258.733 14.3726 258.488 14.7307 258.158 15.3524C257.826 15.9716 257.666 16.3645 257.458 17.016C257.251 17.67 257.148 18.0132 257.121 18.6125C257.096 19.2093 257.114 19.5202 257.328 20.0076C257.543 20.4975 257.733 20.7511 258.195 21.057C258.658 21.3628 258.985 21.4847 259.639 21.5369C260.294 21.5891 260.696 21.5419 261.466 21.3131C262.238 21.0868 262.648 20.8381 263.495 20.403C264.344 19.9653 264.816 19.6868 265.703 19.1273C266.593 18.5702 267.082 18.2321 267.939 17.6153C268.796 16.9986 269.243 16.6306 269.993 16.0437C270.74 15.4569 271.175 15.1982 271.679 14.6785C272.184 14.1588 272.369 13.8604 272.521 13.4426C272.671 13.0248 272.624 12.7961 272.431 12.5872C272.239 12.3758 271.959 12.2913 271.559 12.3932C271.16 12.4952 270.852 12.6692 270.435 13.0969C270.015 13.5247 269.811 13.8952 269.461 14.5368C269.113 15.1808 268.966 15.6061 268.689 16.3073C268.414 17.0086 268.249 17.3841 268.077 18.0431C267.904 18.7045 267.847 19.0303 267.827 19.6097C267.809 20.1891 267.829 20.4751 267.979 20.9401C268.132 21.4051 268.297 21.6389 268.581 21.9348C268.866 22.2307 269.099 22.3575 269.403 22.4222C269.708 22.4868 269.941 22.4147 270.108 22.2581C270.275 22.1039 270.275 21.8453 270.24 21.6463C270.203 21.4474 270.06 21.3977 269.928 21.2659C269.796 21.1341 269.711 21.1266 269.576 20.9873C269.443 20.8481 269.316 20.8183 269.261 20.5746C269.208 20.3309 269.223 20.1717 269.311 19.7688C269.396 19.3685 269.483 19.0999 269.698 18.5628C269.913 18.0281 270.06 17.68 270.385 17.0881C270.71 16.4963 270.97 16.1656 271.32 15.6085C271.669 15.0515 271.904 14.7705 272.132 14.298C272.356 13.8256 272.426 13.5744 272.446 13.2437C272.466 12.9104 272.396 12.7389 272.232 12.6344C272.067 12.5325 271.949 12.5424 271.617 12.7289C271.285 12.9154 271.065 13.0994 270.573 13.5645C270.078 14.032 269.821 14.4448 269.148 15.0565C268.479 15.6682 268.039 16.0313 267.22 16.6256C266.398 17.2224 265.911 17.5432 265.046 18.0356C264.179 18.5255 263.697 18.7642 262.89 19.0825C262.08 19.3983 261.653 19.4555 261.001 19.6172C260.349 19.7763 260.069 19.8236 259.629 19.8808C259.192 19.9379 259.035 19.9603 258.807 19.9031C258.583 19.8459 258.533 19.8037 258.495 19.5923C258.46 19.3834 258.495 19.2292 258.628 18.8562C258.76 18.4807 258.887 18.2171 259.16 17.7223C259.432 17.2299 259.657 16.924 259.989 16.3894C260.319 15.8547 260.564 15.5339 260.814 15.0465C261.064 14.5567 261.146 14.313 261.241 13.9499C261.336 13.5843 261.378 13.4451 261.286 13.2188C261.196 12.995 261.029 12.8532 260.781 12.8259Z" fill="white" stroke="white"/>
<path d="M280.516 14.4745C280.291 14.4969 280.227 14.5591 279.947 14.8177C279.667 15.0788 279.439 15.2131 279.117 15.7726C278.797 16.3346 278.722 16.7947 278.34 17.6227C277.958 18.4533 277.713 18.9556 277.203 19.9205C276.696 20.8828 276.371 21.4225 275.794 22.442C275.217 23.4616 274.892 24.0211 274.32 25.0208C273.751 26.0204 273.458 26.5327 272.946 27.4379C272.431 28.343 272.167 28.7931 271.757 29.5441C271.347 30.2951 271.117 30.6383 270.892 31.1953C270.67 31.7523 270.613 31.9985 270.635 32.3318C270.66 32.665 270.775 32.8067 271.012 32.8639C271.252 32.9186 271.502 32.9062 271.827 32.6128C272.149 32.3218 272.344 32.0632 272.631 31.4067C272.919 30.7502 272.929 30.2305 273.263 29.3328C273.596 28.4326 273.826 27.9128 274.305 26.9132C274.785 25.9135 275.062 25.3639 275.662 24.3319C276.259 23.3024 276.601 22.7628 277.298 21.7582C277.993 20.751 278.375 20.2338 279.14 19.3038C279.904 18.3737 280.319 17.9087 281.126 17.1105C281.93 16.3147 282.363 15.9318 283.165 15.3175C283.964 14.7033 284.391 14.4248 285.133 14.0369C285.875 13.6489 286.268 13.5569 286.875 13.3754C287.482 13.1914 287.739 13.1342 288.172 13.1242C288.606 13.1118 288.781 13.174 289.046 13.3157C289.311 13.46 289.393 13.5743 289.498 13.8404C289.603 14.1065 289.626 14.2657 289.571 14.6461C289.518 15.0266 289.448 15.2479 289.226 15.7428C289.006 16.2376 288.879 16.5485 288.469 17.1179C288.062 17.6849 287.789 18.0206 287.185 18.5776C286.58 19.1347 286.178 19.4306 285.446 19.9006C284.716 20.3731 284.284 20.6018 283.529 20.9376C282.775 21.2733 282.343 21.3678 281.673 21.5816C281.004 21.793 280.676 21.8775 280.182 21.9994C279.687 22.1237 279.497 22.1138 279.205 22.1983C278.91 22.2829 278.842 22.35 278.707 22.4221C278.573 22.4967 278.59 22.4893 278.528 22.5639C278.468 22.6385 278.39 22.6857 278.4 22.8001C278.41 22.912 278.41 23.004 278.578 23.1309C278.745 23.2602 278.862 23.3746 279.24 23.4417C279.614 23.5064 279.872 23.5387 280.459 23.4616C281.043 23.382 281.431 23.2999 282.165 23.0488C282.897 22.7976 283.322 22.5987 284.129 22.2008C284.934 21.8029 285.388 21.5667 286.193 21.0644C286.997 20.5596 287.432 20.2686 288.149 19.6818C288.866 19.0924 289.236 18.7741 289.776 18.1226C290.315 17.4686 290.568 17.1055 290.845 16.4192C291.125 15.7353 291.185 15.3399 291.165 14.6959C291.142 14.0518 291.035 13.7037 290.74 13.1988C290.443 12.6965 290.19 12.4653 289.683 12.1793C289.178 11.8933 288.856 11.8063 288.207 11.769C287.554 11.7317 287.175 11.7516 286.435 11.9928C285.698 12.2315 285.306 12.4777 284.514 12.9726C283.724 13.4699 283.302 13.7857 282.48 14.4721C281.658 15.1584 281.226 15.5637 280.406 16.4067C279.587 17.2522 279.167 17.7322 278.385 18.692C277.603 19.6494 277.216 20.1791 276.494 21.1987C275.769 22.2207 275.417 22.7678 274.77 23.7998C274.125 24.8343 273.831 25.3863 273.261 26.3661C272.691 27.3434 272.419 27.8507 271.919 28.6986C271.422 29.5466 271.057 29.937 270.77 30.606C270.48 31.2774 270.458 31.6106 270.475 32.0508C270.49 32.4909 270.643 32.6699 270.852 32.8067C271.06 32.946 271.247 32.9435 271.522 32.7445C271.797 32.5456 271.942 32.3367 272.224 31.812C272.504 31.2848 272.584 30.887 272.929 30.1186C273.271 29.3502 273.476 28.8827 273.94 27.9675C274.405 27.0524 274.69 26.5377 275.252 25.543C275.812 24.5483 276.139 23.9938 276.744 22.9916C277.351 21.9919 277.686 21.4647 278.278 20.5397C278.87 19.6171 279.192 19.1496 279.704 18.3787C280.214 17.6053 280.539 17.2746 280.834 16.6828C281.128 16.0934 281.133 15.8224 281.181 15.4294C281.226 15.0341 281.201 14.9023 281.066 14.7108C280.934 14.5193 280.741 14.4546 280.516 14.4745Z" fill="white" stroke="white"/>
<path d="M299.212 22.1462C299.344 21.9348 299.414 21.7757 299.364 21.7284C299.317 21.6812 299.17 21.7558 298.97 21.91C298.77 22.0666 298.51 22.2954 298.365 22.5068C298.22 22.7181 298.18 22.9121 298.248 22.9668C298.315 23.024 298.505 22.9519 298.7 22.7878C298.892 22.6212 299.077 22.3576 299.212 22.1462Z" fill="white" stroke="white"/>
</g>
<defs>
<clipPath id="clip0_2282_60">
<rect width="300" height="37.1831" fill="white" transform="translate(0.129883 0.130371)"/>
</clipPath>
</defs>
</svg>
