<svg xmlns="http://www.w3.org/2000/svg" width="1792.441" height="254.4"><path data-name="交差 1" d="m1588.241 225.55 19.25-42.7c20.65 15.051 51.449 25.55 80.85 25.55 33.6 0 47.25-11.2 47.25-26.249 0-45.851-142.45-14.351-142.45-105.35 0-41.65 33.6-76.3 103.25-76.3 30.8 0 62.3 7.35 85.05 21.7l-17.5 43.051c-22.75-12.95-46.2-19.25-67.9-19.25-33.6 0-46.55 12.6-46.55 28 0 45.15 142.45 14 142.45 103.95 0 40.95-33.95 75.95-103.95 75.95-38.85-.002-78.05-11.552-99.75-28.352Zm-311.15-83.65V4.7h56.7v135.1c0 46.55 20.3 65.8 54.6 65.8 34.65 0 54.6-19.25 54.6-65.8V4.7h56v137.2c0 72.1-41.3 112-110.95 112s-110.95-39.9-110.95-112Zm-1015.35-14.7c0-72.8 56.7-126.7 134.05-126.7 77 0 134.051 53.55 134.051 126.7s-57.051 126.7-134.051 126.7c-77.35 0-134.05-53.9-134.05-126.7Zm57.4 0c0 46.55 32.9 78.4 76.65 78.4s76.65-31.85 76.65-78.4-32.9-78.4-76.65-78.4-76.65 31.85-76.65 78.4Zm-318.5 91 31.5-37.8c13.3 17.851 28 26.951 45.5 26.951 22.75 0 34.65-13.65 34.65-40.6V50.2h-86.1V4.7h142.45v158.9c0 60.549-30.45 90.3-88.2 90.3-32.9 0-61.95-12.6-79.8-35.7Zm969.85 31.5L848.34 100.95V249.7h-56V4.7h46.9l121.8 148.75V4.7h56v245Zm-345.45 0V4.7h56.7v245Z" fill="none" stroke="#ccc"/></svg>