<svg xmlns="http://www.w3.org/2000/svg" width="300" height="126.135"><path d="M214.869 120.58a5.707 5.707 0 0 1 5.7-5.559 5.279 5.279 0 0 1 3.975 1.584l.178.18-2.148 2.148-.18-.162a2.68 2.68 0 0 0-1.824-.713 2.416 2.416 0 0 0-2.473 2.521 2.443 2.443 0 0 0 2.473 2.52 2.605 2.605 0 0 0 1.768-.754l.178-.176 2.156 2.1-.172.182a5.446 5.446 0 0 1-3.93 1.684 5.388 5.388 0 0 1-5.701-5.555Zm16.215 3.273a2.279 2.279 0 0 1 2.279-2.279 2.279 2.279 0 0 1 2.279 2.279 2.28 2.28 0 0 1-2.279 2.281 2.28 2.28 0 0 1-2.279-2.281Zm-60.652 2.039v-10.627h3.23v10.627Zm-81.115 0v-18.217h3.377v18.217Zm108.514 0v-5.314a2.391 2.391 0 0 0-2.475-2.52 2.414 2.414 0 0 0-2.471 2.52v5.314h-3.23v-5.314a5.674 5.674 0 0 1 5.752-5.557 5.364 5.364 0 0 1 5.654 5.557v5.314Zm-71.354 0-.076-.08-12.311-13.014v13.094h-3.377v-18.219h2.795l.076.08 12.309 13.016v-13.1h3.379v18.219Zm-56.631 0-5.525-6.668-5.572 6.668h-4.018l7.607-9.109-7.557-9.109h4.111l.078.094 5.4 6.574 5.57-6.668h4.018l-7.559 9.063 7.555 9.156Zm100.291-16.553a1.939 1.939 0 0 1 1.955-1.91 1.889 1.889 0 0 1 1.908 1.91 1.933 1.933 0 0 1-1.908 1.955 1.983 1.983 0 0 1-1.955-1.954Zm-38.453-36.244v-73h36.635v73Zm110.545-15.326-15.2 15.2V-.002l57.77 14.189 15.2-14.189v72.973ZM36.487 62.837.001 72.972V-.002l36.486 10.135L72.975-.002v72.973Z" fill="#222"/></svg>