<svg version="1.1" id="レイヤー_1" xmlns="http://www.w3.org/2000/svg" x="0" y="0" viewBox="0 0 473.8 70.2" style="enable-background:new 0 0 473.8 70.2" xml:space="preserve"><style>.st0{fill:#fff}</style><path class="st0" d="M116.2 11.9c-12.9 0-18.7 7.3-18.7 23.7s5.8 23.7 18.7 23.7 18.7-7.3 18.7-23.7-5.8-23.7-18.7-23.7zm0 41.6c-10.4 0-12.4-6.3-12.4-17.9 0-11.6 2-17.9 12.4-17.9s12.4 6.3 12.4 17.9-2 17.9-12.4 17.9zM173.9 47.3 153 12.2l-6.4 1.3v45.1h5.8V23.4l20.9 35.2h6.4V12.7h-5.8zM192.3 58.6h27.1v-5.8h-20.8V37.1h16.5l.6-5.8h-17.1V18.5h20.8v-5.8h-27.1zM256.4 17.7c3.9 0 7.2.8 10 2.5l.6.4 2.5-5.3-.5-.3c-3.9-2.6-9-3-12.9-3-12.4 0-18.1 7.5-18.1 23.7s5.8 23.7 18.1 23.7c4 0 9-.3 12.9-3l.5-.3-2.5-5.3-.6.4c-2.8 1.7-6.1 2.5-10 2.5-7.6 0-12.1-2.9-12.1-17.9.1-15.2 4.5-18.1 12.1-18.1zM291.5 13l-15.1 45.6h6.7l3.2-10.4h16.3L306 59l6.7-.8-15.3-45.9-5.9.7zM288 42.5l6.4-20.9 6.5 20.9H288zM352.7 27.7c0-10.5-6-15.8-18-15.8-3.8 0-8.2.5-12.3 1.5l-.5.1v45.1h6.2V42.3h10l9.5 17 6.6-1.5-10.2-17c4.2-1.5 8.7-4.9 8.7-13.1zm-6.3-.2c0 5.7-3.2 8.9-8.8 8.9h-9.4V18.5c2.4-.5 4.8-.8 6.8-.8 7.9 0 11.4 3.1 11.4 9.8zM364 58.6h27v-5.8h-20.8V37.1h16.6l.5-5.8h-17.1V18.5H391v-5.8h-27zM402.7 58.6h27.1v-5.8H409V37.1h16.5l.6-5.8H409V18.5h20.8v-5.8h-27.1zM463.6 40.7c4.1-1.4 8.6-4.7 8.6-12.9 0-10.5-6-15.8-18-15.8-3.8 0-8.2.5-12.3 1.5l-.5.1v45.1h6.2V42.3h10l9.5 17 6.6-1.5-10.1-17.1zm2.3-13.2c0 5.7-3.2 8.9-8.8 8.9h-9.4V18.5c2.4-.5 4.8-.8 6.8-.8 7.9 0 11.4 3.1 11.4 9.8zM65.2 53.6c-1.5-5.5-4.8-12.4-10.3-21.3-2-3.3-6.8-9.5-11.6-12.3-2.5-1.4-5.2-2.2-8.1-2.2-2 0-3.9.4-5.8 1.1 1.1-3.3 3.2-7.4 5.6-11 1.6-2.3 5-6.2 7.5-6.3h.5c2.9 0 6.9 1.6 9.7 3.2C69 14.1 75.2 36.2 66.1 52c-.1 0-.4.7-.9 1.6z"/><path class="st0" d="M15.1 49c-1.2 0-2.4 0-3.5-.1-2.8-.2-7.8-1.2-9.2-3.3C.7 43.2 0 38.6 0 35.2 0 16.5 16 0 34.3 0h1.8C32 4.1 27.8 10.3 22.8 19.6 21 23 18 30.2 18 35.8c0 2.8.8 5.6 2.1 8.1 1 1.7 2.3 3.2 3.8 4.5-2.4.4-5.6.6-8.8.6z"/><path class="st0" d="M35.2 70.2c-12.8 0-24.4-6.4-30.3-16.6-.1-.1-.5-.8-.9-1.6 4.5 1.2 10.3 1.8 17.9 1.8 1.8 0 3.7 0 5.7-.1 3.9-.1 11.6-1.1 16.5-3.9 2.5-1.4 4.5-3.5 5.9-5.9 1-1.7 1.7-3.6 2-5.5 2.3 2.6 4.8 6.5 6.7 10.4 1.2 2.5 2.8 7.4 1.7 9.7-1.2 2.5-4.9 5.5-7.8 7.2-5.2 3-11.2 4.5-17.4 4.5z"/></svg>