<svg xmlns="http://www.w3.org/2000/svg" viewBox="0 0 184.1 60.3" style="enable-background:new 0 0 184.1 60.3" xml:space="preserve"><path d="M26.4 27.8v12.1H5.8v3.9c0 .1.1.3.2.3h20.3V50H3.8C1.7 50 0 48.3 0 46.2V27.8C0 25.7 1.7 24 3.8 24h18.8c2.1 0 3.8 1.7 3.8 3.8zm-5.9 6.3v-3.9c0-.1-.1-.3-.2-.3H6.1c-.1 0-.3.1-.3.2v4h14.7zm37.7-6.3V50h-5.9V30.2c0-.1-.1-.3-.2-.3H38c-.1 0-.3.1-.3.2V50h-5.9V24h22.6c2.1.1 3.7 1.7 3.8 3.8zm27.4 32.5H58.8v-5.9h24.4c.2 0 .3-.1.3-.3V50H66.8c-2.1 0-3.8-1.7-3.8-3.8V27.8c0-2.1 1.7-3.8 3.8-3.8h18.8c2.1 0 3.8 1.7 3.8 3.8v28.7c0 2.1-1.7 3.8-3.8 3.8zm-2.3-16.2c.2 0 .3-.1.3-.3V30.2c0-.1-.1-.3-.2-.3H69.2c-.1 0-.3.1-.3.2v13.7c0 .1.1.3.2.3h14.2zm37.9-16.3V50H98.6c-2.1 0-3.8-1.7-3.8-3.8V34h20.5v-3.9c0-.1-.1-.3-.2-.3H94.8v-5.9h22.6c2.1.1 3.7 1.8 3.8 3.9zM115.3 40h-14.7v3.9c0 .1.1.3.2.3h14.4l.1-4.2zm33.3 20.3h-26.8v-5.9h24.4c.2 0 .3-.1.3-.3V50h-16.7c-2.1 0-3.8-1.7-3.8-3.8V27.8c0-2.1 1.7-3.8 3.8-3.8h18.8c2.1 0 3.8 1.7 3.8 3.8v28.7c0 2.1-1.7 3.8-3.8 3.8zm-2.3-16.2c.2 0 .3-.1.3-.3V30.2c0-.1-.1-.3-.2-.3h-14.2c-.1 0-.3.1-.3.2v13.7c0 .1.1.3.2.3h14.2zm37.8-16.3v12.1h-20.5v3.9c0 .1.1.3.2.3h20.3V50h-22.6c-2.1 0-3.8-1.7-3.8-3.8V27.8c0-2.1 1.7-3.8 3.8-3.8h18.8c2.1 0 3.8 1.7 3.8 3.8zm-5.9 6.3v-3.9c0-.1-.1-.3-.2-.3h-14.1c-.1 0-.3.1-.3.2v4h14.6zM54.9 2.6h9.6v2h-3.7v5.2h4.7v2H54v-2h4.6V4.6H55l-.1-2zM70.9 1.6c1.4.4 2.8 1 4.1 1.8l-1.1 1.9c-1.3-.8-2.6-1.4-4-1.9l1-1.8zm-.6 9.3c4.6-1.4 7.8-4.1 9.4-8 .6.5 1.3.9 2 1.3-2 4-5.5 7-9.7 8.5 0 .2-.1.3-.3.4l-1.4-2.2zM96.8 3.7v2h-2.7c0 .1-.2.2-.3.2-.5 2.9-1.7 5.6-4.5 7.3-.6-.5-1.2-.9-1.9-1.3 2.3-1.3 3.8-3.6 4.1-6.2h-2.7c-.6.9-1.2 1.8-2 2.6-.6-.4-1.2-.7-1.9-1 1.8-1.8 3.1-4 3.6-6.5l2.6.5c0 .1-.2.2-.4.3-.2.5-.5 1.4-.8 2.2l6.9-.1zm-2.6-3c.5.5 1.2 1.4 1.6 1.9l-1 .7c-.4-.7-.9-1.3-1.5-1.9l.9-.7zm2.2-.6C97 .7 97.5 1.3 98 2l-1 .7c-.3-.5-1.1-1.4-1.5-1.9l.9-.7zM101.3 5.7H113v2.1h-11.1c-.2.1-.3.2-.5.3l-.1-2.4zM118.4 4.6c1.2.3 2.4.7 3.5 1.3l-.9 1.8c-1.1-.6-2.3-1.1-3.5-1.4l.9-1.7zm.2 6.4c4.2-1.2 7.3-3.4 9.2-7.6.6.5 1.2 1 1.9 1.4-1.9 3.8-5.3 6.6-9.3 7.9 0 .2-.1.3-.2.4l-1.6-2.1zm1.5-9.8c1.2.4 2.4.8 3.5 1.4l-1.1 1.8c-1.1-.6-2.3-1.1-3.5-1.5l1.1-1.7zm6.3-.5c.6.6 1.1 1.2 1.6 1.9l-1 .7c-.4-.7-.9-1.3-1.5-1.9l.9-.7zm2.2-.7c.6.6 1.1 1.2 1.6 1.9l-1 .7c-.3-.5-1.1-1.4-1.5-1.9l.9-.7z"/></svg>