<svg version="1.1" id="レイヤー_1" xmlns="http://www.w3.org/2000/svg" x="0" y="0" viewBox="0 0 593.5 187.8" style="enable-background:new 0 0 593.5 187.8" xml:space="preserve"><style>.st0{fill:#444}</style><path class="st0" d="M301.5 14.2c-1.2-1.4-3.9-4.8-7.7-7.6l3.2-3.9c3.1 2.4 6.2 5.3 8 7.2l-3.5 4.3zm25.1 1.6c-9.4 10.8-15.2 13.4-25.9 18.3-2.2 1-2.4 1.2-2.7 1.7-.1.4-.3.8-.8.8-.3 0-.4-.1-1-1.4l-2.3-4.5c17.8-4.8 24.9-13.1 29.9-19.1l2.8 4.2zM106.4 10.1V5.8h29.2c.5 0 1 0 2.4-1l3.5 4.3c-1.4 1-1.7 1.2-3.2 3.6-4.3 6.4-6.7 8.6-8.9 10.6l-3.6-3c4.4-3.8 6.6-7.2 8.4-9.9h-27.5l-.3-.3zm2.9 24.3c9.9-7.1 10.8-13.3 11-23l4.4.3c1.2 0 1.4.1 1.4.5 0 .3-.1.4-.5.8-.4.3-.5.4-.5 1.3 0 2.6-1 8.2-2.2 11-2.6 6.2-5.8 9-9.2 12.1l-4.4-3z"/><linearGradient id="SVGID_1_" gradientUnits="userSpaceOnUse" x1="194.8" y1="632.63" x2="285.914" y2="632.63" gradientTransform="translate(0 -501.28)"><stop offset="0" style="stop-color:#979dc3"/><stop offset=".995" style="stop-color:#919ec2"/></linearGradient><path style="fill:url(#SVGID_1_)" d="M194.8 75.3v112.1h14.5v-72l30.8 34.8 31.1-34.8v72h14.5V75.3l-45.6 51.2z"/><linearGradient id="SVGID_00000093886602731584038600000018309670485433076102_" gradientUnits="userSpaceOnUse" x1="406.5" y1="633.23" x2="465.439" y2="633.23" gradientTransform="translate(0 -501.28)"><stop offset="0" style="stop-color:#89a0c1"/><stop offset=".995" style="stop-color:#85a1c0"/></linearGradient><path style="fill:url(#SVGID_00000093886602731584038600000018309670485433076102_)" d="M447.6 129.9c6.5-5.5 10.7-13.9 10.7-23.1 0-16.6-13.6-30.3-30.3-30.3h-21.5v110.9H435c16.6 0 30.3-13.6 30.3-30.3-.3-11.9-7.6-22.5-17.7-27.2zm-27.1-40.2h5.9c9.2 0 16.9 7.7 16.9 16.9s-7.7 16.9-16.9 16.9h-5.9V89.7zm11.2 84.8h-11.1v-36.6h11.1c10.1 0 18.3 8.2 18.3 18.3-.2 10.1-8.3 18.3-18.3 18.3z"/><linearGradient id="SVGID_00000000216526605940708830000004942558575736283787_" gradientUnits="userSpaceOnUse" x1="578.55" y1="632.93" x2="593.485" y2="632.93" gradientTransform="translate(0 -501.28)"><stop offset="0" style="stop-color:#7da4bf"/><stop offset=".995" style="stop-color:#80a7c3"/></linearGradient><path style="fill:url(#SVGID_00000000216526605940708830000004942558575736283787_)" d="M578.5 75.5v112.1l15 .2V75.7z"/><linearGradient id="SVGID_00000002344039046485646090000017844515416334498480_" gradientUnits="userSpaceOnUse" x1="0" y1="632.63" x2="88.909" y2="632.63" gradientTransform="translate(0 -501.28)"><stop offset="0" style="stop-color:#a39fc9"/><stop offset=".995" style="stop-color:#a09ac4"/></linearGradient><path style="fill:url(#SVGID_00000002344039046485646090000017844515416334498480_)" d="M0 187.4h16.2l10.2-27.2h35.2l10.9 27.2h16.2L44.4 75.3 0 187.4zM30.8 146l13-33.7 14 33.7h-27z"/><path class="st0" d="M505.2 12.6c.9 1.1.9 1.2.9 1.4 0 .3-.4.3-.6.3-.9 0-1.3 0-1.8.3-5.6 2.4-11.5 3.9-18 5.1v6.6c0 1.1 0 2.5 1.1 3 1.2.7 6.4.9 8.1.9 4.3 0 7.5-.5 11.7-1.2v5c-2.2.3-6.6.8-11.8.8-13 0-13.6-2.2-13.6-7.6V2.7l4.1.5c.9.1 1.6.3 1.6.8 0 .3-.3.5-.7.8-.3.3-.3.5-.3.8v9.7c3.4-.5 10-2.1 16.9-5.5l2.4 2.8zm.9-3.6c-1.1-1.3-2.2-2.6-4.1-4.1l1.8-1.8c1.4 1.1 2.9 2.2 4.3 3.9l-2 2zm3.8-3.2c-1.2-1.4-2.5-2.9-4.1-4.1l1.8-1.7c1.6 1.1 3 2.2 4.3 3.9l-2 1.9z"/></svg>