<svg version="1.1" id="レイヤー_1" xmlns="http://www.w3.org/2000/svg" x="0" y="0" viewBox="0 0 473.82 70.22" style="enable-background:new 0 0 473.82 70.22" xml:space="preserve"><style>.st0{fill:#333}.st1{fill:#0071bc}</style><path class="st0" d="M116.23 11.92c-12.92 0-18.69 7.31-18.69 23.71s5.76 23.71 18.69 23.71 18.69-7.31 18.69-23.71-5.77-23.71-18.69-23.71zm0 41.62c-10.4 0-12.37-6.29-12.37-17.91 0-11.61 1.97-17.9 12.37-17.9s12.37 6.29 12.37 17.9-1.97 17.91-12.37 17.91zM173.85 47.29l-20.81-35.07-6.43 1.28v45.08h5.81V23.4l20.89 35.18h6.35v-45.9h-5.81zM192.31 58.58h27.06v-5.81h-20.81v-15.7h16.55l.58-5.81h-17.13V18.49h20.81v-5.81h-27.06zM256.44 17.72c3.9 0 7.16.8 9.97 2.45l.64.37 2.54-5.33-.48-.33c-3.92-2.64-8.96-2.98-12.91-2.98-12.36 0-18.11 7.54-18.11 23.71 0 16.18 5.76 23.71 18.11 23.71 3.95 0 8.99-.34 12.91-2.98l.48-.33-2.54-5.33-.64.37c-2.81 1.65-6.07 2.45-9.97 2.45-7.63 0-12.05-2.93-12.05-17.91 0-14.94 4.42-17.87 12.05-17.87zM291.51 12.99l-15.13 45.59h6.72l3.18-10.44h16.31l3.39 10.82 6.73-.8-15.26-45.86-5.94.69zm-3.48 29.54 6.4-20.89 6.46 20.89h-12.86zM352.71 27.74c0-10.5-6.05-15.82-17.99-15.82-3.84 0-8.22.53-12.31 1.48l-.52.12v45.06h6.25V42.29h10l9.54 16.96 6.62-1.53-10.21-17.04c4.11-1.37 8.62-4.74 8.62-12.94zm-6.32-.19c0 5.68-3.21 8.93-8.8 8.93h-9.44V18.54c2.4-.53 4.76-.82 6.83-.82 7.89 0 11.41 3.03 11.41 9.83zM363.96 58.58h27.06v-5.81h-20.81v-15.7h16.55l.58-5.81h-17.13V18.49h20.81v-5.81h-27.06zM402.72 58.58h27.06v-5.81h-20.81v-15.7h16.54l.59-5.81h-17.13V18.49h20.81v-5.81h-27.06zM463.61 40.67c4.12-1.36 8.62-4.73 8.62-12.93 0-10.5-6.05-15.82-17.99-15.82-3.84 0-8.22.53-12.31 1.48l-.52.12v45.06h6.25V42.29h10l9.54 16.96 6.62-1.53-10.21-17.05zm2.3-13.12c0 5.68-3.21 8.93-8.8 8.93h-9.44V18.54c2.4-.53 4.76-.82 6.83-.82 7.89 0 11.41 3.03 11.41 9.83z"/><path class="st1" d="M65.18 53.6c-1.47-5.55-4.78-12.38-10.32-21.27-2.04-3.27-6.77-9.54-11.58-12.32a16.157 16.157 0 0 0-8.06-2.17c-1.96 0-3.93.37-5.78 1.07 1.13-3.26 3.25-7.42 5.65-11.02 1.56-2.35 4.99-6.15 7.51-6.33.15-.01.31-.02.47-.02 2.86 0 6.91 1.6 9.67 3.19C68.97 14.1 75.19 36.19 66.07 52c-.03.05-.41.74-.89 1.6z"/><path class="st1" d="M15.1 49.03c-1.21 0-2.4-.04-3.54-.11-2.82-.18-7.82-1.24-9.24-3.34C.73 43.23 0 38.56 0 35.21 0 16.47 16.02.03 34.28.03c.06 0 .85-.02 1.82-.03-4.08 4.05-8.33 10.33-13.26 19.57-1.81 3.4-4.88 10.63-4.88 16.19 0 2.84.75 5.63 2.15 8.07.98 1.7 2.28 3.22 3.81 4.47-2.43.46-5.61.73-8.82.73z"/><path class="st1" d="M35.21 70.22c-12.77 0-24.38-6.37-30.3-16.63-.09-.14-.47-.78-.94-1.57 4.47 1.21 10.34 1.8 17.87 1.8 1.79 0 3.72-.03 5.71-.1 3.85-.13 11.65-1.09 16.46-3.87 2.46-1.42 4.5-3.46 5.91-5.9.98-1.7 1.65-3.59 1.96-5.54 2.26 2.61 4.8 6.53 6.72 10.41 1.25 2.53 2.83 7.39 1.73 9.67-1.24 2.55-4.92 5.52-7.82 7.19-5.14 2.97-11.12 4.54-17.3 4.54z"/></svg>