<svg version="1.1" id="Logo" xmlns="http://www.w3.org/2000/svg" x="0" y="0" viewBox="0 0 878.5 150.6" style="enable-background:new 0 0 878.5 150.6" xml:space="preserve"><style>.st0,.st1{fill:#fff}.st1{fill-rule:evenodd;clip-rule:evenodd}</style><circle class="st0" cx="187.9" cy="25.3" r="25.3"/><path class="st1" d="M85.4 98c-1.5-1-5.9-6.8-17.8-35.4-.8-1.8-1.4-3.3-2.1-4.7L63 52 42 1.4H0L21 52l21 50.6 19.4 46.8c.4.9 1.4 1.3 2.3.9.4-.2.8-.5.9-.9L85.7 99c.1-.4 0-.8-.3-1zM164 98c-1.5-1-5.9-6.8-17.8-35.4-.8-1.8-1.4-3.3-2.1-4.7l-2.4-5.9-21-50.6h-42l21 50.6 21 50.6 19.3 46.8c.4.9 1.4 1.3 2.3.9.4-.2.8-.5.9-.9L164.3 99c.1-.4 0-.8-.3-1z"/><path class="st0" d="M541.3 78.7v45.6h-13.9V78.7c0-13.8-8.8-20-19.7-20-10.3 0-19.7 5.9-19.7 20v45.6h-13.9v-77H488v6.2c5.5-5.7 13.1-8.9 21-8.8 18.7.1 32.3 14.1 32.3 34zM763.5 21v103.3h-13.9V115c-6.9 7.7-16.8 12.1-27.2 11.9-22.7 0-41-18.4-41-41.1s18.4-41 41-41c10.4-.2 20.3 4.2 27.2 11.9V21h13.9zm-13.8 64.8c0-15-12.1-27.2-27.1-27.2-15 0-27.2 12.1-27.2 27.1 0 15 12.1 27.2 27.1 27.2 7.2 0 14.1-2.8 19.2-7.9 5.1-5 8-12 8-19.2zM459.8 47.3v77h-13.9V115c-6.9 7.7-16.8 12.1-27.2 11.9-22.7 0-41-18.4-41-41.1s18.4-41 41-41c10.4-.2 20.3 4.2 27.2 11.9v-9.3h13.9zm-13.9 38.5c0-15-12.1-27.2-27.1-27.2-15 0-27.2 12.1-27.2 27.1 0 15 12.1 27.2 27.1 27.2 7.2 0 14.1-2.8 19.2-7.9 5.1-5 8-12 8-19.2zm209.4 14.7h15.5c-8.1 21.5-32.1 32.4-53.6 24.3-21.5-8.1-32.4-32.1-24.3-53.6s32.1-32.4 53.6-24.3c18.8 7.1 29.9 26.5 26.3 46.3h-66.5c4.1 14.5 19.1 22.9 33.5 18.8 4.5-1.3 8.6-3.7 11.9-7 1.4-1.3 2.6-2.9 3.6-4.5zM605.9 80H659c-3.2-14.7-17.7-24-32.3-20.8-10.4 2.3-18.5 10.4-20.8 20.8zM390.1 21H375l-30.5 73.7L319.1 21h-7.3l-25.4 73.7L255.9 21h-15.1l42.8 103.3h7.7l24.1-70 24.1 70h7.8L390.1 21zm401.8 0H778v103.3h13.9V21zM587.8 47.3h-13.5V21h-13.9v26.3h-13.5v13.9h13.5v63.1h13.9V61.2h13.5V47.3zm258.8 77 31.9-77h-15.1L839.1 106l-24.3-58.7h-15.1l31.9 77-10.9 26.2h15.1l10.8-26.2z"/></svg>