<svg data-name="レイヤー 2" xmlns="http://www.w3.org/2000/svg" width="447.77" height="80.92"><g data-name="レイヤー 1" fill="#fff"><path data-name="パス 1" d="M288.87 35.47a16.34 16.34 0 0 0-5.83-4 19.79 19.79 0 0 0-7.37-1.36 20.85 20.85 0 0 0-7.85 1.47 18.64 18.64 0 0 0-6.23 4.15 19.09 19.09 0 0 0-4.11 6.4 22.091 22.091 0 0 0-1.47 8.1 22.69 22.69 0 0 0 1.35 7.81 19.051 19.051 0 0 0 3.85 6.39 18.36 18.36 0 0 0 6.12 4.31 19.69 19.69 0 0 0 8.1 1.61 23.61 23.61 0 0 0 9.41-1.76 19.65 19.65 0 0 0 7.55-6.16l.6-.78-5.9-4.58a.224.224 0 0 0-.34.04l-.43.54a14.58 14.58 0 0 1-4.59 3.87 13.82 13.82 0 0 1-6.26 1.29 10.24 10.24 0 0 1-4.2-.85 10.71 10.71 0 0 1-3.36-2.33 12.15 12.15 0 0 1-2.35-3.46 12.4 12.4 0 0 1-.85-2.67l-.08-.43h29.06a.27.27 0 0 0 .26-.28v-2.61a25 25 0 0 0-1.3-8.37 17.91 17.91 0 0 0-3.74-6.34M285.38 46h-20.72l.11-.46a10.46 10.46 0 0 1 3.13-5.34 10.9 10.9 0 0 1 7.53-2.55 9.48 9.48 0 0 1 7 2.56 9.35 9.35 0 0 1 2.86 5.37ZM169.06 10.68a29.85 29.85 0 1 0 29.85 29.85 29.85 29.85 0 0 0-29.85-29.85m20.73 29.85a20.73 20.73 0 1 1-20.73-20.73 20.73 20.73 0 0 1 20.73 20.73"/><path data-name="パス 2" d="M387.66 30.25a20.12 20.12 0 1 0 20.12 20.12 20.12 20.12 0 0 0-20.12-20.12m12.18 20.12a12.18 12.18 0 1 1-12.18-12.19 12.18 12.18 0 0 1 12.18 12.19"/><path data-name="パス 3" d="M223.23 17a12.35 12.35 0 0 1 4.57.42v-7.08a1 1 0 0 0-.94-1c-5.93-.48-9.6.15-13 3.8a14.09 14.09 0 0 0-3.59 7.21 28.84 28.84 0 0 0-.64 6.32v6.84h-8v6.07a1 1 0 0 0 1 1h6.94v29.8h8v-29.8h8.88v-6.07a1 1 0 0 0-1-1h-7.88V28c0-1.58.12-3 .12-4.29 0-2.14 1.25-6.28 5.43-6.69m27.55-.02a12.37 12.37 0 0 1 4.57.42v-7.08a1 1 0 0 0-.94-1c-5.93-.48-9.6.15-13 3.8a14.09 14.09 0 0 0-3.59 7.21 28.841 28.841 0 0 0-.64 6.32v6.84h-8v6.07a1 1 0 0 0 1 1h7v29.8h8v-29.8H254v-6.07a1 1 0 0 0-1-1h-7.88V28c0-1.58.12-3 .12-4.29 0-2.14 1.25-6.28 5.43-6.69"/><path data-name="パス 4" d="M360.29 44.19a14.79 14.79 0 0 0-4.29-3.13 15.108 15.108 0 0 0-1.4-.6l-.74-.27.68-.39a14.24 14.24 0 0 0 3.88-3.26 13 13 0 0 0 2.86-8.54 12.93 12.93 0 0 0-1.74-6.89 13.7 13.7 0 0 0-4.48-4.48 19.09 19.09 0 0 0-6.14-2.42 32.63 32.63 0 0 0-6.9-.72h-15.16a.27.27 0 0 0-.27.27v56.47a.27.27 0 0 0 .27.26h14.77a43.42 43.42 0 0 0 7.85-.72 22.9 22.9 0 0 0 7.23-2.56 15.33 15.33 0 0 0 5.32-5 14.82 14.82 0 0 0 2.06-8.08 14.8 14.8 0 0 0-1-5.46 14.07 14.07 0 0 0-2.79-4.46m-8.9-11.28a6.72 6.72 0 0 1-2.52 2.39 11 11 0 0 1-3.68 1.18 32.169 32.169 0 0 1-4.42.3h-5.71V21.45h6.41a26.13 26.13 0 0 1 4.16.33 11 11 0 0 1 3.51 1.22 6.5 6.5 0 0 1 2.33 2.21 6.77 6.77 0 0 1 .86 3.65 7.76 7.76 0 0 1-.94 4.12M335.07 44.8H343a24.189 24.189 0 0 1 4.68.45 10.93 10.93 0 0 1 3.88 1.51 7.92 7.92 0 0 1 2.64 2.78 8.55 8.55 0 0 1 1 4.34 7.16 7.16 0 0 1-1 3.95 8.11 8.11 0 0 1-2.75 2.65 13.35 13.35 0 0 1-4 1.53 22.08 22.08 0 0 1-4.59.48h-7.73Zm-14.41-12.29c-4.7-.3-9.7.4-13.29 3.71l-.61.57v-2.71a1 1 0 0 0-1-1h-6.54v37.3h8.1a.27.27 0 0 0 .26-.27V52.69c0-4.65 1.14-7.47 3.8-9.81 2.27-2 4.49-2.42 10.21-2.29v-7.07a1 1 0 0 0-.93-1M416 70.38l10.59-14.93 10.75 14.93 10.43-.02-15.46-20.55 12.71-17.36h-9.78l-8.13 11.87-8.61-11.87h-10.37l13.27 17.37-15.38 20.56Z"/><path data-name="パス 5" d="m111.27 40.47 8.677-8.677 8.676 8.676-8.676 8.676Z"/><path data-name="パス 6" d="M60.94 34a4.77 4.77 0 1 0 6.74-6.75L40.46 0 0 40.46l32.88 32.88a10.72 10.72 0 0 0 15.16 0l8.14-8.14a4.77 4.77 0 1 0-6.74-6.75l-8.15 8.15a1.18 1.18 0 0 1-1.66 0L13.49 40.46l27-27Z"/><path data-name="パス 7" d="m103.93 40.46 12.34-12.35L95.74 7.58a10.72 10.72 0 0 0-15.16 0l-8.14 8.14a4.77 4.77 0 1 0 6.74 6.75l8.15-8.15a1.18 1.18 0 0 1 1.66 0l13.79 13.79-12.34 12.35 12.34 12.35-14.62 14.62-27-27L67.68 34a4.77 4.77 0 1 0-6.74-6.75L47.7 40.46l40.46 40.46 28.12-28.11Z"/></g></svg>