<svg id="_レイヤー_2" xmlns="http://www.w3.org/2000/svg" viewBox="0 0 555.84 103.18"><defs><style>.cls-1{fill:#00abeb}.cls-2{fill:#231815}</style></defs><g id="_レイヤー_1-2"><path class="cls-1" d="M180.19 91.2c0 6.18-4.99 11.19-11.17 11.2-6.18 0-11.19-4.99-11.2-11.17-.01-6.18 4.99-11.19 11.17-11.2 6.18 0 11.2 4.99 11.2 11.17M186.88 11.72c1.92-4.54-.23-9.5-4.88-11.2-4.63-1.69-9.17.89-11.55 5.12-3.85 6.86-23.82 44.68-27.16 50.95-3.35 6.28-7.56 15.24-11.07 13.87-3.22-1.25-7.02-15-8.64-18.93-2.87-6.98-8.71-15.26-18.45-13.16-7.44 1.6-11.68 7.46-18.41 20.38-3.7 7.1-6.02 11.78-9.38 16.37-6.91 9.44-10.81-6.07-13.1-14.08-3.06-10.76-8.66-25.98-20.86-25.96-6.82.01-14.09 4-23.13 18.64C14.97 62.28 2.62 86.2.8 90.45c-1.94 4.53-.27 9.45 4.27 11.39 4.53 1.94 8.98-.08 11.65-4.22 8.67-13.48 11.06-18.74 15.49-24.94 4.75-6.59 11.21-12.5 16.15 3.34 3.11 9.97 8.54 26.32 23.18 26.42 8.81.06 17.93-7.54 22.19-14.79 4.82-8.2 6.03-12.58 9.71-16.53 1.88-2.02 4.67-2.75 7.31 3.11 2.55 5.66 7.82 23.56 17.22 27.46 13.26 5.5 25.73-21.31 30.05-29.86 3.47-6.89 27.34-56.49 28.87-60.11"/><path class="cls-2" d="M554.96 26.75c-.86-2.57-2.2-6.69-2.69-8.22l-.15-.46c-.5-1.44-1.62-2.11-3-2.11h-9.23c-1.21 0-1.59.65-1.65.73-.33.48-.44 1.03-.22 1.7.22.71 2.1 6.31 3.12 9.15.34.95 1.2 2.07 3.39 2.07h8.24c1.31-.01 1.82-.41 2.09-.79.33-.45.45-1.14.11-2.08M533.94 18c-.41-1.27-1.52-2.01-2.97-2.01h-9.24c-1.04.01-1.44.43-1.64.7-.34.46-.44 1.08-.23 1.73.24.75 2.11 6.34 3.12 9.15.35.98 1.21 2.07 3.39 2.07h8.3c1.2-.01 1.79-.39 2.06-.77.38-.51.46-1.16.15-2.09-1.02-3.04-2.75-8.23-2.93-8.78M294.67 19.34c-.67-.67-1.66-.99-2.91-.99h.06c-3.93 0-80.63.1-80.63.1-.71 0-1.48.25-2.11.95-.41.41-.69 1.22-.69 1.93v10.21c0 1.45 1.25 2.73 2.8 2.73h.45s56.23-.08 58.77-.08h2.38c1.71 0 2.19.31 2.59.84.89 1.17-.04 3.02-.16 3.46-3.88 14.04-12.39 24.89-24.6 31.39l-.69.37-.46-.63c-3-4.12-5.26-6.96-7.86-10.25l-.37-.49c-1.15-1.52-2.61-2.2-3.63-2.2L224 56.7c-.76 0-1.5.29-1.88 1.18-.23.57-.27 1.39.21 2.13 11.7 15.21 19.67 27.68 26.81 40.63.58 1.05 1.6 1.81 3.05 1.81h14.76c.75 0 1.28-.38 1.66-1.07.21-.41.47-1.17 0-1.99-2.18-4.15-3.69-6.94-8.33-13.81l-.5-.73.72-.51c17.25-12.12 33.38-27.58 34.91-62.54.04-.9-.11-1.74-.75-2.46M377.57 18.17c-.7-.8-1.45-.91-2.18-.94-1.55.02-8.9.05-13.37.07-1.44 0-2.78 1.17-3.19 2.12-7.65 17.52-29.85 30.75-60.38 35.85-1.97.39-2.92 1.55-2.96 2.87l.02 10.55c-.02.91.4 1.58.89 2.03.89.74 1.76.84 2.46.76 14.76-1.8 26.12-4.73 35.09-8.85l1.27-.59.05 37.46c0 1.5 1.17 2.8 2.89 2.8h.6l10.93-.02c1.5 0 2.66-1.4 2.66-2.61l-.07-45.68.39-.27c11.53-7.87 21.57-20.74 25.38-33.32.23-.95-.12-1.78-.48-2.23M439.26 54.68l.05-.85 25.76-.07c.62 0 1.38-.24 1.98-.85.45-.43.8-1.26.8-1.89l-.02-10.16c0-.85-.31-1.46-.71-1.92-.63-.68-1.39-.91-2.1-.91h-25.58l-.02-18.1c0-1.25-.91-2.82-2.93-2.82h-.4l-10.98.02c-.8 0-1.51.32-2.03.88-.41.41-.75 1.14-.75 1.9l.02 18.14-38.66.04c-.61 0-1.42.14-2.12.86-.43.43-.78 1.16-.78 2.04l.02 10.2c0 1.25 1.02 2.71 2.87 2.71h.37l38.18-.07-.06.96c-1.36 22.11-11.96 28.42-31.89 32.5-1.74.42-2.72 1.27-2.72 2.78l.02 10.5c0 .79.32 1.45.89 1.89.54.45 1.39.76 2.1.67 33.38-4.62 46.99-18.59 48.7-48.48"/><path class="cls-2" d="M553.62 38.71c-.45-.43-1.15-.75-1.82-.75h-.48l-55.91.08-.03-18.11c0-.93-.37-1.6-.8-2.03-.6-.62-1.39-.86-2.16-.86h-.09l-10.68.02a2.79 2.79 0 0 0-2.77 2.81l.09 60.69c0 15.1 5.96 21.46 22.54 21.46h1.33l50.4-.09c1.44 0 2.6-1.42 2.6-2.72l-.02-10.32c0-1.4-1.09-2.82-2.78-2.82l-46.04.05h-.06c-4.18 0-7.26-.27-9.05-1.74-2.24-1.87-2.46-4.58-2.41-8.8l-.03-21.82 56.23-.08c1.68 0 2.82-1.33 2.82-2.83l-.02-10.12c0-1.02-.46-1.62-.85-2.01"/></g></svg>