<svg xmlns="http://www.w3.org/2000/svg" viewBox="0 0 447.77 80.92"><defs><style>.e8493f4d-2dcb-4845-b2c1-c97fe0d8a9d4{fill:#101010}.e90dabfd-7304-42bb-ae54-7794011a5bc9{fill:#111}</style></defs><g id="a1740b40-1205-4ff6-b79f-cd8ea1fd812a" data-name="レイヤー 2"><g id="a9c77307-0d5d-4672-80d8-e5e11216c621" data-name="レイヤー 1"><path class="e8493f4d-2dcb-4845-b2c1-c97fe0d8a9d4" d="M288.87 35.47a16.34 16.34 0 00-5.83-4 19.79 19.79 0 00-7.37-1.36 20.85 20.85 0 00-7.85 1.47 18.64 18.64 0 00-6.23 4.15 19.09 19.09 0 00-4.11 6.4 22.09 22.09 0 00-1.47 8.1 22.69 22.69 0 001.35 7.81 19.05 19.05 0 003.85 6.39 18.36 18.36 0 006.12 4.31 19.69 19.69 0 008.1 1.61 23.61 23.61 0 009.41-1.76 19.65 19.65 0 007.55-6.16l.6-.78-5.9-4.58a.27.27 0 00-.17-.06.27.27 0 00-.17.1l-.43.54a14.58 14.58 0 01-4.59 3.87 13.82 13.82 0 01-6.26 1.29 10.24 10.24 0 01-4.2-.85 10.71 10.71 0 01-3.36-2.33 12.15 12.15 0 01-2.35-3.46 12.4 12.4 0 01-.85-2.67l-.08-.43h29.06a.27.27 0 00.26-.28v-2.61a25 25 0 00-1.3-8.37 17.91 17.91 0 00-3.74-6.34M285.38 46h-20.72l.11-.46a10.46 10.46 0 013.13-5.34 10.9 10.9 0 017.53-2.55 9.48 9.48 0 017 2.56 9.35 9.35 0 012.86 5.37zM169.06 10.68a29.85 29.85 0 1029.85 29.85 29.88 29.88 0 00-29.85-29.85m20.73 29.85a20.73 20.73 0 11-20.73-20.73 20.75 20.75 0 0120.73 20.73"/><path class="e90dabfd-7304-42bb-ae54-7794011a5bc9" d="M387.66 30.25a20.12 20.12 0 1020.12 20.12 20.14 20.14 0 00-20.12-20.12m12.18 20.12a12.18 12.18 0 11-12.18-12.19 12.2 12.2 0 0112.18 12.19"/><path class="e8493f4d-2dcb-4845-b2c1-c97fe0d8a9d4" d="M223.23 17a12.35 12.35 0 014.57.42v-7.08a1 1 0 00-.94-1c-5.93-.48-9.6.15-13 3.8a14.09 14.09 0 00-3.59 7.21 28.84 28.84 0 00-.64 6.32v6.84h-8v6.07a1 1 0 001 1h6.94v29.8h8v-29.8h8.88v-6.07a1 1 0 00-1-1h-7.88V28c0-1.58.12-3 .12-4.29 0-2.14 1.25-6.28 5.43-6.69m27.55-.02a12.37 12.37 0 014.57.42v-7.08a1 1 0 00-.94-1c-5.93-.48-9.6.15-13 3.8a14.09 14.09 0 00-3.59 7.21 28.84 28.84 0 00-.64 6.32v6.84h-8v6.07a1 1 0 001 1h7v29.8h8v-29.8H254v-6.07a1 1 0 00-1-1h-7.88V28c0-1.58.12-3 .12-4.29 0-2.14 1.25-6.28 5.43-6.69"/><path class="e90dabfd-7304-42bb-ae54-7794011a5bc9" d="M360.29 44.19a14.79 14.79 0 00-4.29-3.13 15.11 15.11 0 00-1.4-.6l-.74-.27.68-.39a14.24 14.24 0 003.88-3.26 13 13 0 002.86-8.54 12.93 12.93 0 00-1.74-6.89 13.7 13.7 0 00-4.48-4.48 19.09 19.09 0 00-6.14-2.42 32.63 32.63 0 00-6.9-.72h-15.16a.27.27 0 00-.27.27v56.47a.27.27 0 00.27.26h14.77a43.42 43.42 0 007.85-.72 22.9 22.9 0 007.23-2.56 15.33 15.33 0 005.32-5 14.82 14.82 0 002.06-8.08 14.8 14.8 0 00-1-5.46 14.07 14.07 0 00-2.79-4.46m-8.9-11.28a6.72 6.72 0 01-2.52 2.39 11 11 0 01-3.68 1.18 32.17 32.17 0 01-4.42.3h-5.71V21.45h6.41a26.13 26.13 0 014.16.33 11 11 0 013.51 1.22 6.5 6.5 0 012.33 2.21 6.77 6.77 0 01.86 3.65 7.76 7.76 0 01-.94 4.12M335.07 44.8H343a24.19 24.19 0 014.68.45 10.93 10.93 0 013.88 1.51 7.92 7.92 0 012.64 2.78 8.55 8.55 0 011 4.34 7.16 7.16 0 01-1 3.95 8.11 8.11 0 01-2.75 2.65 13.35 13.35 0 01-4 1.53 22.08 22.08 0 01-4.59.48h-7.73zm-14.41-12.29c-4.7-.3-9.7.4-13.29 3.71l-.61.57v-2.71a1 1 0 00-1-1h-6.54v37.3h8.1a.27.27 0 00.26-.27V52.69c0-4.65 1.14-7.47 3.8-9.81 2.27-2 4.49-2.42 10.21-2.29v-7.07a1 1 0 00-.93-1M416 70.38l10.59-14.93 10.75 14.93 10.43-.02-15.46-20.55 12.71-17.36h-9.78l-8.13 11.87-8.61-11.87h-10.37l13.27 17.37-15.38 20.56H416z"/><path transform="rotate(-45 119.951 40.465)" fill="#ce0e38" d="M113.81 34.33h12.27V46.6h-12.27z"/><path d="M60.94 34a4.77 4.77 0 006.74-6.75L40.46 0 0 40.46l32.88 32.88a10.72 10.72 0 0015.16 0l8.14-8.14a4.77 4.77 0 10-6.74-6.75l-8.15 8.15a1.18 1.18 0 01-1.66 0L13.49 40.46l27-27z" fill="#012554"/><path d="M103.93 40.46l12.34-12.35L95.74 7.58a10.72 10.72 0 00-15.16 0l-8.14 8.14a4.77 4.77 0 006.74 6.75l8.15-8.15a1.18 1.18 0 011.66 0l13.79 13.79-12.34 12.35 12.34 12.35-14.62 14.62-27-27L67.68 34a4.77 4.77 0 00-6.74-6.75L47.7 40.46l40.46 40.46 28.12-28.11z" fill="#0066a9"/></g></g></svg>