<svg version="1.1" id="Logo" xmlns="http://www.w3.org/2000/svg" x="0" y="0" viewBox="0 0 878.4 150.5" style="enable-background:new 0 0 878.4 150.5" xml:space="preserve"><style>.st1{fill-rule:evenodd;clip-rule:evenodd;fill:#282828}</style><circle cx="187.8" cy="25.3" r="25.3" style="fill:#21bddb"/><path class="st1" d="M85.3 97.9c-1.5-1-5.9-6.8-17.8-35.4-.8-1.8-1.4-3.3-2.1-4.7L63 51.9 42 1.3H0l21 50.6 21 50.6 19.4 46.8c.4.9 1.4 1.3 2.3.9.4-.2.8-.5.9-.9l21.1-50.5c0-.2-.1-.7-.4-.9zM163.9 97.9c-1.5-1-5.9-6.8-17.8-35.4-.8-1.8-1.4-3.3-2.1-4.7l-2.4-5.9-21-50.6H78.7l21 50.6 21 50.6 19.3 46.8c.4.9 1.4 1.3 2.3.9.4-.2.8-.5.9-.9l21.1-50.5c0-.2-.1-.7-.4-.9z"/><path d="M541.2 78.6v45.6h-13.9V78.6c0-13.8-8.8-20-19.7-20-10.3 0-19.7 5.9-19.7 20v45.6h-13.7v-77h13.9v6.2c5.5-5.7 13.1-8.9 21-8.8 18.5.1 32.1 14.1 32.1 34zm222.2-57.7v103.3h-13.9v-9.3c-6.9 7.7-16.8 12.1-27.2 11.9-22.7 0-41-18.4-41-41.1s18.4-41 41-41c10.4-.2 20.3 4.2 27.2 11.9V20.9h13.9zm-13.8 64.9c0-15-12.1-27.2-27.1-27.2s-27.2 12.1-27.2 27.1 12.1 27.2 27.1 27.2c7.2 0 14.1-2.8 19.2-7.9 5.1-5.1 8-12 8-19.2zM459.7 47.3v77h-13.9v-9.4c-6.9 7.7-16.8 12.1-27.2 11.9-22.7 0-41-18.4-41-41.1s18.4-41 41-41c10.4-.2 20.3 4.2 27.2 11.9v-9.3h13.9zm-13.9 38.5c0-15-12.1-27.2-27.1-27.2s-27.2 12.1-27.2 27.1 12.1 27.2 27.1 27.2c7.2 0 14.1-2.8 19.2-7.9 5.1-5.1 8-12 8-19.2zm209.4 14.6h15.5c-8.1 21.5-32.1 32.4-53.6 24.3-21.5-8.1-32.4-32.1-24.3-53.6s32.1-32.4 53.6-24.3c18.8 7.1 29.9 26.5 26.3 46.3h-66.5c4.1 14.5 19.1 22.9 33.5 18.8 4.5-1.3 8.6-3.7 11.9-7 1.4-1.3 2.6-2.8 3.6-4.5zM605.8 80h53.1c-3.2-14.7-17.7-24-32.3-20.8-10.4 2.3-18.5 10.4-20.8 20.8zM390 21h-15.1l-30.5 73.7L319 20.9h-7.3l-25.4 73.7-30.5-73.7h-15.1l42.8 103.3h7.7l24.1-70 24.1 70h7.8L390 21zm401.8 0h-13.9v103.3h13.9V21zM587.7 47.3h-13.5V20.9h-14v26.3h-13.5v13.9h13.5v63.1h13.9V61.1h13.5l.1-13.8zm258.8 77 31.9-77h-15.1L839 106l-24.3-58.7h-15.1l31.9 77-10.9 26.2h15.1l10.8-26.2z" style="fill:#282828"/></svg>