<svg xmlns="http://www.w3.org/2000/svg" width="2163.649" height="254.4"><path data-name="交差 1" d="M2059.2 254.4a207.337 207.337 0 0 1-56.444-7.894 163.052 163.052 0 0 1-24.241-8.986 103.79 103.79 0 0 1-19.371-11.574l-.312-.241.162-.359 19.5-43.262.5.363a132.7 132.7 0 0 0 37 18.347 143.8 143.8 0 0 0 43.552 7.107c15.871 0 27.97-2.492 35.963-7.407a23.132 23.132 0 0 0 8.195-8.139 20.326 20.326 0 0 0 2.592-10.2c0-8.5-4.951-14.82-15.58-19.89-9.678-4.616-23.1-7.733-37.3-11.033-10.208-2.371-20.764-4.824-31.039-8.044-11.691-3.664-21.135-7.77-28.874-12.554a71.526 71.526 0 0 1-11.953-9.163 55.275 55.275 0 0 1-15.515-26.468 72.394 72.394 0 0 1-2.189-18.2 69.836 69.836 0 0 1 6.385-29.7 68.706 68.706 0 0 1 19.307-24.453c8.853-7.177 19.753-12.748 32.4-16.557 13.407-4.038 28.769-6.086 45.66-6.086a195.727 195.727 0 0 1 23.143 1.376 183.558 183.558 0 0 1 22.522 4.107 155.107 155.107 0 0 1 21.019 6.809 120 120 0 0 1 18.634 9.484l.354.223-.158.388-17.712 43.573-.5-.282c-22.049-12.551-45.442-19.184-67.652-19.184a92.71 92.71 0 0 0-21.332 2.2 43.025 43.025 0 0 0-14.261 5.942 24.022 24.022 0 0 0-7.965 8.721A22.833 22.833 0 0 0 2021.2 74c0 8.357 4.94 14.569 15.545 19.551 9.66 4.538 23.056 7.6 37.239 10.845 10.214 2.336 20.776 4.752 31.061 7.928 11.7 3.614 21.157 7.668 28.9 12.394a71.445 71.445 0 0 1 11.969 9.055 56.1 56.1 0 0 1 9.4 11.592 55.3 55.3 0 0 1 6.138 14.582 70.781 70.781 0 0 1 2.193 18 68.09 68.09 0 0 1-6.445 29.36 69.164 69.164 0 0 1-19.465 24.364c-8.935 7.188-19.91 12.773-32.621 16.6-13.514 4.067-28.958 6.129-45.914 6.129Zm-99.132-29a103.42 103.42 0 0 0 18.872 11.22 162.041 162.041 0 0 0 24.092 8.93 206.315 206.315 0 0 0 56.168 7.85c16.858 0 32.21-2.048 45.629-6.087 12.587-3.789 23.448-9.314 32.282-16.421a68.17 68.17 0 0 0 19.188-24.013 67.1 67.1 0 0 0 6.35-28.929 69.778 69.778 0 0 0-2.16-17.748 54.3 54.3 0 0 0-6.026-14.318 55.091 55.091 0 0 0-9.235-11.385 70.456 70.456 0 0 0-11.8-8.927c-7.676-4.682-17.057-8.7-28.679-12.292-10.249-3.165-20.792-5.577-30.989-7.908-14.237-3.256-27.684-6.331-37.441-10.915-5.246-2.464-9.082-5.19-11.727-8.332a18.638 18.638 0 0 1-3.253-5.517A18.943 18.943 0 0 1 2020.2 74a23.823 23.823 0 0 1 2.6-11.1 25.012 25.012 0 0 1 8.289-9.086 44.007 44.007 0 0 1 14.592-6.089 93.69 93.69 0 0 1 21.565-2.223c22.216 0 45.6 6.58 67.651 19.034l17.128-42.134c-21.766-13.6-52.509-21.4-84.43-21.4-16.793 0-32.059 2.033-45.372 6.044-12.52 3.771-23.306 9.281-32.057 16.376a67.71 67.71 0 0 0-19.03 24.1 68.843 68.843 0 0 0-6.292 29.282A71.408 71.408 0 0 0 1967 94.75a54.274 54.274 0 0 0 15.24 26 70.513 70.513 0 0 0 11.786 9.034c7.666 4.74 17.037 8.812 28.647 12.451 10.239 3.209 20.776 5.657 30.966 8.024 14.26 3.313 27.729 6.442 37.505 11.1 5.256 2.507 9.1 5.279 11.75 8.473a19.012 19.012 0 0 1 3.259 5.606 19.5 19.5 0 0 1 1.141 6.713 21.315 21.315 0 0 1-2.723 10.7 24.116 24.116 0 0 1-8.54 8.5c-8.153 5.013-20.428 7.555-36.487 7.555a136.144 136.144 0 0 1-22.214-1.882 151.409 151.409 0 0 1-21.646-5.273 134.189 134.189 0 0 1-36.786-18.13Zm-73.16 24.8h-62.12l-.149-.215-47.1-68.034h-51.389V250.2h-57.7V4.2H1775c16.205 0 31.138 2.081 44.385 6.186a96.941 96.941 0 0 1 33.68 17.774 77.456 77.456 0 0 1 21.372 28.164A91 91 0 0 1 1881.9 93.6a94.874 94.874 0 0 1-3.415 25.806 77.9 77.9 0 0 1-9.924 21.807 77.075 77.075 0 0 1-15.935 17.449 91.011 91.011 0 0 1-20.865 12.5Zm-61.6-1h59.679l-54.753-78.468.565-.242c32.305-13.845 50.1-41.152 50.1-76.89 0-54.527-40.579-88.4-105.9-88.4H1669.45v244h55.7v-68.25h52.913l.149.215Zm-253.513 1H1381.1V4.2h186.15v46.5h-128.8v52.2h113.75V148h-113.75v55.7h133.35Zm-189.7-1h188.7v-44.5H1437.45V147h113.75v-43.1h-113.75V49.7h128.8V5.2H1382.1Zm-194.05 1h-127.2V4.2h120.2c15.033 0 28.645 1.549 40.458 4.6 11.441 2.959 21.258 7.344 29.178 13.034a55.994 55.994 0 0 1 17.682 20.29A57.819 57.819 0 0 1 1274.3 68.4a65.154 65.154 0 0 1-2.3 17.415 57.89 57.89 0 0 1-6.57 15.049 58.5 58.5 0 0 1-10.342 12.4 65.132 65.132 0 0 1-12.575 8.926 73.23 73.23 0 0 1 17.532 8.517 59.755 59.755 0 0 1 14.239 13.3 57.772 57.772 0 0 1 9.08 17.47 69.853 69.853 0 0 1 3.185 21.377 62.862 62.862 0 0 1-6.31 28.537 56.91 56.91 0 0 1-18.755 21.18c-8.306 5.766-18.681 10.183-30.836 13.129-12.329 2.985-26.661 4.5-42.598 4.5Zm-126.2-1h126.2c15.857 0 30.11-1.506 42.363-4.476 12.035-2.917 22.3-7.284 30.5-12.979a55.924 55.924 0 0 0 18.432-20.809 61.871 61.871 0 0 0 6.2-28.087 68.858 68.858 0 0 0-3.137-21.071 56.774 56.774 0 0 0-8.923-17.169 58.752 58.752 0 0 0-14-13.073 72.749 72.749 0 0 0-18.391-8.76l-1.134-.364 1.054-.555a64.47 64.47 0 0 0 13.4-9.334 57.5 57.5 0 0 0 10.166-12.188 56.889 56.889 0 0 0 6.456-14.789A64.145 64.145 0 0 0 1273.3 68.4a56.827 56.827 0 0 0-5.826-25.823A55.008 55.008 0 0 0 1250.1 22.65c-7.82-5.617-17.525-9.95-28.845-12.878-11.731-3.034-25.259-4.572-40.207-4.572h-119.2Zm-110.6 1h-54.2v-.5l-.345-145.19-71.316 119.79h-26.115l-.146-.24L728.3 107.634V250.2h-54.2V4.2h47.683l.146.242L813.2 155.976 903.215 4.2h47.333v.5Zm-53.2-1h52.2l-.7-244h-45.76L813.2 157.925l-.432-.717L721.218 5.2H675.1v244h52.2V104.066l.927 1.524 71.6 117.709h24.985L897.7 100.89v1.809Zm-320.6 1H386.75V4.2H572.9v46.5H444.1v52.2h113.75V148H444.1v55.7h133.35Zm-189.7-1h188.7v-44.5H443.1V147h113.75v-43.1H443.1V49.7h128.8V5.2H387.75Zm-110.6 1h-54.2v-.5l-.345-145.19-71.316 119.79h-26.115l-.146-.24L54.2 107.634V250.2H0V4.2h47.682l.146.242L139.1 155.976 229.115 4.2h47.333v.5Zm-53.2-1h52.2l-.7-244h-45.76L139.1 157.925l-.432-.717L47.117 5.2H1v244h52.2V104.066l.927 1.524 71.6 117.709h24.985L223.6 100.89v1.809Zm959.9-41.7H1117.2v-61.55h66.65a91.7 91.7 0 0 1 19.566 1.866 42.582 42.582 0 0 1 14.31 5.7 25.275 25.275 0 0 1 8.8 9.69 33.232 33.232 0 0 1 0 27.485 24.594 24.594 0 0 1-8.8 9.557 42.652 42.652 0 0 1-14.31 5.494 96.322 96.322 0 0 1-19.566 1.758Zm-65.65-1h65.65a95.351 95.351 0 0 0 19.355-1.739 41.675 41.675 0 0 0 13.975-5.356 23.6 23.6 0 0 0 8.454-9.169 32.244 32.244 0 0 0 0-26.58 24.289 24.289 0 0 0-8.459-9.308 41.6 41.6 0 0 0-13.97-5.556 90.718 90.718 0 0 0-19.35-1.842h-65.65Zm653.65-69.7h-46.7V50.4h46.7a82.44 82.44 0 0 1 22.906 2.9 44.945 44.945 0 0 1 16.484 8.459 35.129 35.129 0 0 1 9.946 13.607A47.5 47.5 0 0 1 1824.5 93.6a46.962 46.962 0 0 1-3.314 18.085 35.453 35.453 0 0 1-9.945 13.622 45.121 45.121 0 0 1-16.483 8.541 81.322 81.322 0 0 1-22.908 2.952Zm-45.7-1h45.7c33.307 0 51.651-14.987 51.651-42.2a46.51 46.51 0 0 0-3.238-17.85 34.135 34.135 0 0 0-9.665-13.223 43.957 43.957 0 0 0-16.121-8.265 81.454 81.454 0 0 0-22.627-2.862h-45.7Zm-552.1-30.15H1117.2V46.9h56.85c13.984 0 24.749 2.427 31.995 7.214 7.436 4.912 11.206 12.309 11.206 21.986-.001 19.331-14.939 29.55-43.201 29.55Zm-55.85-1h55.85c13.74 0 24.318-2.429 31.44-7.221a23.589 23.589 0 0 0 8.031-8.9 27.2 27.2 0 0 0 2.729-12.434 26.886 26.886 0 0 0-2.728-12.377 23.2 23.2 0 0 0-8.028-8.774c-7.08-4.677-17.659-7.048-31.444-7.048H1118.2Z" fill="#ccc"/></svg>