<svg xmlns="http://www.w3.org/2000/svg" width="500" height="360"><defs><clipPath id="a"><circle cx="100" cy="100" r="100" transform="translate(492.5 2796)" fill="#222" stroke="#000" stroke-width="8"/></clipPath><clipPath id="b"><circle cx="100" cy="100" r="100" transform="translate(492.501 2796)" fill="#222"/></clipPath></defs><g transform="rotate(-90 -931.75 1684.25)"><g transform="translate(402.5 2776)" fill="none" stroke="#222" stroke-width="5"><circle cx="60" cy="60" r="60" stroke="none"/><circle cx="60" cy="60" r="57.5"/></g><g transform="translate(672.5 2737.765)" fill="none" stroke="#222" stroke-width="5"><circle cx="40" cy="40" r="40" stroke="none"/><circle cx="40" cy="40" r="37.5"/></g><path fill="none" stroke="#222" stroke-width="5" d="M592.5 2616v280M462.5 2676v160M712.5 2656v120M702.5 2786v80M722.5 2786v60M592.5 2916v200M612.5 2916v160M572.5 2916v130M462.5 2846v120M447.5 2846v80M477.5 2846v100"/><circle cx="20" cy="20" r="20" transform="translate(392.5 2786)" fill="#222"/><g transform="translate(492.5 2616)" fill="none" stroke="#222" stroke-width="5"><circle cx="25" cy="25" r="25" stroke="none"/><circle cx="25" cy="25" r="22.5"/></g><g transform="translate(652.5 2916)" fill="none" stroke="#222" stroke-width="5"><circle cx="30" cy="30" r="30" stroke="none"/><circle cx="30" cy="30" r="27.5"/></g><circle cx="100" cy="100" r="100" transform="translate(492.5 2796)" fill="#222"/><g clip-path="url(#a)"><g transform="translate(652.5 2916)" fill="none" stroke="#fff" stroke-width="5"><circle cx="30" cy="30" r="30" stroke="none"/><circle cx="30" cy="30" r="27.5"/></g></g><g clip-path="url(#b)" fill="none" stroke="#fff" stroke-width="5"><path d="M592.501 2616v280M592.501 2916v200M612.501 2916v160M572.501 2916v130"/></g></g></svg>