<svg version="1.1" id="レイヤー_1" xmlns="http://www.w3.org/2000/svg" x="0" y="0" viewBox="0 0 1007.9 115.8" style="enable-background:new 0 0 1007.9 115.8" xml:space="preserve"><style>.st0{fill:#fff}.st1{fill:#222}.st2{enable-background:new}</style><g id="modal_work_summary_pc003" transform="translate(-457.734 -557)"><g id="modal_work_01" transform="translate(457.734 557.001)"><g id="グループ_54859" transform="translate(10.002 15.002)"><path id="合体_32" class="st0" d="M198.7 100.8H0V0h198.7l14.2 50.4-14.2 50.4z"/><path id="合体_32_-_アウトライン" class="st1" d="m194.9 95.8 12.8-45.4L194.9 5H5v90.8h189.9m3.8 5H0V0h198.7l14.2 50.4-14.2 50.4z"/></g><g class="st2" id="グループ_54860"><path d="M13.1 18.4H10.3V16.6h4.4v-1.5H11.3V7.5H20.1v7.7H16.7v1.5h3.8c.1 0 .2.1.2.2v1.4c0 .1-.1.2-.2.2h-3.8v3.2h-1.9v-3.2h-1.7zm-.7-14.8c.4.7.9 1.6 1.3 2.5v.2c0 .1-.1.1-.3.2l-1.1.5c-.1 0-.2.1-.2.1-.1 0-.1-.1-.2-.2-.3-.8-.7-1.7-1.2-2.5v-.2c0-.1.1-.1.2-.2l1.1-.5h.2c.1 0 .1 0 .2.1zm.6 6.9h1.7V9H13v1.5zm0 3.1h1.7V12H13v1.6zm2.7-10.3c.4.8.8 1.7 1 2.6V6c0 .1-.1.1-.2.2l-1.2.4c-.1 0-.2.1-.3.1-.1 0-.1-.1-.2-.2-.2-.9-.5-1.8-1-2.7v-.1c0-.1.1-.1.2-.1l1.1-.4h.2c.3-.1.4 0 .4.1zM18.3 9h-1.7v1.5h1.7V9zm0 4.6V12h-1.7v1.6h1.7zM17 6.9c.5-.8.9-1.6 1.2-2.4.1-.4.2-.7.3-1.1.7.2 1.3.4 1.8.6.2.1.2.1.2.3 0 .1-.1.3-.2.3-.1.1-.2.2-.4.5-.3.9-.6 1.6-.9 2.1-.1.2-.2.2-.3.2 0 0-.2 0-.4-.1-.4-.2-.8-.3-1.3-.4zm1.5 12.9c1.7-.8 3.3-2 4.7-3.5-.4-1.4-.7-3.1-.8-5.1l-1.4.2h-.1c-.1 0-.1-.1-.2-.2l-.2-1.6v-.1c0-.1.1-.1.2-.1l1.5-.1c-.1-1.1-.1-2.1-.1-3C22 5 22 4 21.9 3.4c.8 0 1.5.1 2.1.2.2 0 .3.1.3.2s0 .3-.1.4c-.1.2-.1.8-.1 2 0 1 0 1.9.1 2.8l1.8-.2c1-.1 1.7-.3 2.3-.4h.1c.1 0 .1.1.1.2l.2 1.6v.1c0 .1-.1.1-.2.2 0 0-.3 0-.8.1s-1 .1-1.6.2l-1.9.3c.1 1.2.2 2.3.4 3.4.2-.2.4-.6.6-1.1.3-.6.5-1.1.7-1.7.5.2 1 .4 1.6.7.2.1.3.2.3.4 0 .1-.1.2-.3.4-.1.1-.3.4-.5.9-.5 1-1.1 2-1.7 2.8.5 1.6 1 2.4 1.4 2.4.2 0 .3-.2.4-.6.1-.4.2-1 .3-1.8.3.2.6.4 1 .6.3.2.5.3.5.5 0 .1 0 .2-.1.5-.3 2-1 3-1.9 3-1.2 0-2.2-1-3.1-3-1 1.1-2.2 2-3.6 2.8-.3.1-.4.2-.5.2-.1 0-.2-.2-.4-.5-.2-.6-.5-.9-.8-1.2zm7.9-15.7c.7.7 1.2 1.5 1.7 2.4 0 .1.1.1.1.2s-.1.1-.2.2l-1.1.7c-.1.1-.2.1-.2.1l-.2-.2c-.5-.9-1-1.7-1.6-2.4-.1-.1-.1-.1-.1-.2s.1-.1.2-.2l1-.6c.1-.1.2-.1.2-.1.1 0 .1 0 .2.1zM49.2 12.8c-.3.4-.5.8-.6 1.2-.1.4-.2.6-.4.6-.1 0-.2 0-.4-.1-.1 0-.2-.1-.4-.2v7.2h-2v-1h-4.1v1h-2v-7.1c-.2.1-.3.1-.4.1s-.2-.2-.4-.5c-.1-.3-.4-.7-.6-1V17.6H36.3v-1.1h-3.5v1.7h-1.4c-.1 0-.2-.1-.2-.2V4.9c0-.1.1-.2.2-.2H38V8.6c1-1.1 2-2.5 2.9-4.3.1-.3.2-.7.3-1.2.7.1 1.4.2 1.9.3.2.1.3.1.3.3 0 .1-.1.2-.2.3-.1.1-.3.3-.4.7l-.2.5h3.3c.2 0 .4 0 .5-.1.1 0 .2-.1.2-.1.2 0 .4.2.7.5.4.4.6.7.6.8 0 .1-.1.3-.2.3s-.3.3-.6.8c-.8 1.2-1.5 2.3-2.3 3.2 1.2 1 2.7 1.7 4.4 2.2zM32.7 6.3v3.5h1V6.3h-1zm0 8.6h1v-3.6h-1v3.6zm3.5-8.6h-1v3.5h1V6.3zm-1 8.6h1v-3.6h-1v3.6zm2.6-2c1.5-.5 2.9-1.3 4.2-2.3-.6-.7-1.1-1.4-1.5-2.1-.3.4-.7.8-1.1 1.2-.2.2-.4.3-.4.3-.1 0-.2-.1-.4-.4-.2-.3-.5-.6-.8-.8v4.1zm2.3 1.2H46.8c-1.3-.6-2.5-1.2-3.5-2.1-.9.8-2 1.5-3.2 2.1zm1.1 1.8v3h4.1v-3h-4.1zm4-9.1h-3.6l-.1.2c.5.9 1.1 1.7 1.8 2.5.8-.8 1.4-1.7 1.9-2.7zM50.3 7.8c1.2-1 2.1-2.2 2.7-3.5.1-.3.3-.7.4-1.1.1 0 .8.1 1.9.3.2.1.3.2.3.3 0 .1-.1.2-.2.3-.1.1-.2.2-.3.5l-.2.4h4.7v1.7H57c.2.4.5.9.7 1.4v.2c0 .1-.1.1-.2.1l-1.5.4h-.2c-.1 0-.1-.1-.2-.2-.2-.6-.4-1.3-.7-1.9h-1c-.4.7-.9 1.3-1.5 1.9-.3.3-.5.4-.5.4-.1 0-.2-.1-.5-.3-.4-.4-.8-.7-1.1-.9zm13.2 4.5h2.8c.1 0 .2.1.2.2V15.4c0 .6-.2 1-.5 1.2-.3.3-1 .4-2.1.4-.3 0-.6 0-.6-.1-.1-.1-.1-.2-.2-.5-.1-.4-.2-.7-.4-1 .6 0 1.1.1 1.3.1.2 0 .4 0 .4-.1.1-.1.1-.2.1-.4v-1h-4.1v1c1.1 1.1 2.4 2.1 3.9 2.8 1.2.6 2.7 1.1 4.5 1.6-.3.3-.6.8-.8 1.3-.2.3-.3.5-.4.5s-.3 0-.5-.1c-2.8-.9-5-2.3-6.7-4 0 1 0 2 .1 3.1v1.5h-1.8c-.1 0-.2-.1-.2-.2v-.8c0-1.3.1-2.5.1-3.5-1.6 1.6-3.8 2.9-6.4 3.9-.2.1-.4.1-.5.1-.1 0-.3-.2-.4-.5-.2-.5-.5-.8-.8-1.2 3.6-1 6.3-2.5 8.1-4.5v-1h-3.7v2.9c0 .1-.1.2-.2.2h-1.8v-4.8h5.7v-1H51.1V9.5h7.5c0-.6 0-1.1-.1-1.5.4 0 1 .1 1.8.1L60 8c-.4-.3-.8-.5-1.1-.6.9-1 1.6-2 2-3.1.1-.3.2-.7.2-1.1.6.1 1.1.2 1.8.3.2.1.3.2.3.3 0 .1-.1.2-.2.3-.1.1-.2.2-.3.6 0 .1-.1.2-.1.4h5.9v1.7H65c.3.4.5.9.8 1.5v.1c0 .1-.1.1-.2.1l-1.3.3h-.2c-.1 0-.2-.1-.2-.2-.2-.7-.5-1.3-.9-1.9h-1.2l-.9 1.2c-.1.2-.2.3-.3.4.1 0 .1.1.1.1 0 .1 0 .2-.1.3-.1.2-.1.4-.1.8h7.7V11.3H60.5v1h3zM76.8 11H73.9V9.2H85.3v1.9H80.7v2.7H85.6v1.9c0 .1-.1 0-.2 0H80.7v3.4c1 .1 2.3.2 3.9.2 1 0 2.3-.1 3.9-.2-.2.5-.3.9-.4 1.4 0 .3-.1.5-.2.6-.1 0-.2.1-.5.1-.8 0-1.5.1-2.4.1-3.5 0-6-.3-7.4-1-1-.4-1.9-1.3-2.7-2.5-.6 1.2-1.4 2.4-2.4 3.4-.2.2-.4.3-.4.3-.1 0-.2-.1-.4-.4-.3-.4-.7-.8-1.2-1 2-1.6 3.2-3.7 3.6-6.3.1-.6.1-1 .1-1.3.6.1 1.2.2 1.9.4.3.1.4.1.4.3 0 .1-.1.2-.2.4-.1.1-.2.3-.3.6-.1.5-.2 1.1-.4 1.6.4.8.8 1.4 1.3 1.8.5.4 1 .8 1.7 1V11h-1.8zm8.4-5.7h2.6c.2 0 .2 0 .2.2v4.3h-2V7.2H73.3v2.6h-2V5.5c0-.1.1-.2.2-.2h7v-.2c0-.9 0-1.5-.1-1.9.7 0 1.4 0 2.1.1.2 0 .3.1.3.2s0 .2-.1.4c-.1.1-.1.5-.1 1.2v.2h4.6z" transform="translate(66.433 50.5)"/></g><path id="長方形_1718" class="st0" d="M10 9h33v28H10z"/><g class="st2"><path class="st1" d="M1.4 21.4c0-7.6 4.4-13.8 10.9-13.8 4.6 0 7.6 2.9 7.6 8 0 7.6-4.4 13.8-10.9 13.8-4.6 0-7.6-3-7.6-8zm13.7-5.7c0-2.7-1.2-4-3.1-4-3.7 0-5.6 5.6-5.6 9.5 0 2.7 1.2 4 3.1 4 3.6 0 5.6-5.6 5.6-9.5zM32 8l-4.2 21H23l3.4-17.1h-4.2L23 8h9z"/></g></g><g id="modal_work_02" transform="translate(682.735 557)"><path id="前面オブジェクトで型抜き_50" class="st0" d="M246.8 115.5H8L22.2 65 8 14.5h238.8L261 65l-14.2 50.5z"/><path id="前面オブジェクトで型抜き_50_-_アウトライン" class="st1" d="M243 110.5 255.8 65 243 19.5H14.6L27.4 65l-12.8 45.5H243m3.8 5H8L22.2 65 8 14.5h238.8L261 65l-14.2 50.5z"/><g id="グループ_54863" transform="translate(54.499 37.496)"><g class="st2" id="グループ_54862"><path d="M63.4 21.8h4.9V23.6h-7.2V21.8H63.4zm15.9 12.8c-.3.4-.6.9-.8 1.4-.2.4-.3.5-.4.5-.1 0-.2 0-.5-.1-1.6-.6-3-1.4-4.1-2.3-1.2 1-2.5 1.8-4.1 2.4-.2.1-.4.1-.5.1-.1 0-.3-.2-.4-.5-.3-.5-.6-.9-.9-1.2v1.4H65.8V35.4h-2.2v1.2H61.8V30h5.8v4.8c1.7-.5 3.2-1.2 4.5-2.2-1-1.2-1.8-2.6-2.4-4.2h-1.1V26.8c0-.1.1-.2.2-.2H76c.2 0 .3 0 .4-.1.1-.1.2-.1.3-.1.1 0 .4.2.8.6.4.4.6.7.6.8 0 .1-.1.3-.2.4-.2.1-.3.3-.5.6-.6 1.3-1.4 2.6-2.4 3.7 1.2 1 2.6 1.6 4.3 2.1zM63.9 19.1H67.7v1.7h-5.8v-1.7h2zm.1 5.6h3.5v1.7h-5.4v-1.5c0-.1.1-.2.2-.2H64zm0 2.7h3.5v1.7h-5.4v-1.7H64zm1.8 4.3h-2.2v2h2.2v-2zm2.3-6.7c.8-.5 1.3-1.1 1.6-1.8.3-.7.5-1.5.5-2.5V19h6V22.9c0 .4 0 .6.1.7.1.1.3.1.6.1.2 0 .4-.1.5-.3.1-.2.2-.8.2-1.8.4.2.8.4 1.2.5.2.1.3.1.4.2 0 .1.1.1.1.3v.3c-.1 1.1-.3 1.8-.7 2.1-.3.3-1 .5-2 .5-.8 0-1.4-.1-1.7-.3-.4-.2-.5-.7-.5-1.4v-2.9h-2.1c0 1.3-.2 2.4-.6 3.2-.3.7-.8 1.3-1.3 1.9-.2.2-.4.3-.5.3s-.3-.1-.5-.4c-.6-.4-.9-.7-1.3-.9zm7.3 3.5h-3.7c.5 1.1 1.1 2.1 1.8 2.9.8-.9 1.5-1.8 1.9-2.9zM83.3 21.8H89.1c.1 0 .2.1.2.2V23.6H81V21.8H83.3zm5.3 14.3v.2h-2v-.8H84v1.2h-2V30.1h6.5V33.2l.1 2.9zm-4.5-17h4.5v1.7h-6.5v-1.7h2zm.1 5.5H88.3v1.7h-6v-1.7h1.9zm0 2.7H88.3V29h-6v-1.7h1.9zm2.3 4.4H84v2h2.5v-2zm6.4-13.4c.9 0 1.6.1 2.2.1.2 0 .3.1.3.2v.2c0 .1-.1.2-.1.2-.1.2-.1 1-.1 2.2v3.6h4v2h-4v9.7H93v-9.8H89.2v-1.9H93.1v-3.5c0-1.2-.1-2.3-.2-3z"/></g></g><path id="長方形_1720" class="st0" d="M5 9h41v28H5z"/><g class="st2"><path class="st1" d="M1.4 21.4c0-7.6 4.4-13.8 10.9-13.8 4.6 0 7.6 2.9 7.6 8 0 7.6-4.4 13.8-10.9 13.8-4.6 0-7.6-3-7.6-8zm13.7-5.7c0-2.7-1.2-4-3.1-4-3.7 0-5.6 5.6-5.6 9.5 0 2.7 1.2 4 3.1 4 3.7 0 5.6-5.6 5.6-9.5zM27.5 25h8.8l-.8 4H19.6l.6-3.1 9.6-7.5c2.4-1.9 3.1-3 3.1-4.4s-1.1-2.3-3.1-2.3c-1.7 0-3.3.8-4.5 2.2L22 11.5c1.7-2.3 4.8-3.8 8.5-3.8 4.4 0 7.3 2.4 7.3 5.6 0 2.5-1.1 4.6-4.8 7.4L27.5 25z"/></g></g><g id="modal_work_04" transform="translate(1209.734 557)"><path id="前面オブジェクトで型抜き_51" class="st0" d="M255.9 115.5H6.1L20.4 65 6.1 14.5h249.8v101z"/><path id="前面オブジェクトで型抜き_51_-_アウトライン" class="st1" d="M250.9 110.5v-91H12.7L25.6 65l-12.8 45.5h238.1m5 5H6.1L20.4 65 6.1 14.5h249.8v101z"/><g class="st2" id="グループ_54865"><path d="M14.3 9.7h.7c1.1 0 2.1 0 3-.1.1 0 .2.1.2.3v1.6c0 .2-.1.3-.3.3h-3.8c-.1 1.5-.2 2.8-.5 3.7-.2.8-.6 1.7-1 2.4-1 1.6-2.5 2.8-4.7 3.7-.3.1-.5.2-.6.2-.1 0-.2-.1-.4-.2-.5-.5-1.1-.9-1.7-1.2 1.5-.5 2.7-1 3.5-1.6.8-.5 1.4-1.2 1.9-1.9.4-.7.7-1.4.9-2.3.2-.7.2-1.7.3-2.8H7.7v.7c0 1.5 0 2.6.1 3.3 0 .2-.1.3-.3.3H5.8c-.2 0-.4-.1-.4-.2.1-1.1.1-2.2.1-3.3v-.8h-.7c-1.2 0-2.3 0-3.3.1-.1 0-.2-.1-.2-.4 0-.2-.1-.9-.1-1.9.9.1 2.2.1 3.7.1h.6V8.3c0-1-.1-2-.2-2.9 1.3.1 2.1.2 2.4.3.2 0 .3.1.3.3 0 .1 0 .2-.1.4-.2.2-.2.9-.2 1.9v1.5H12V7.4c0-.9-.1-1.7-.2-2.3 1.2.1 2 .2 2.3.3.2.1.4.2.4.3 0 .1 0 .2-.1.4-.1.3-.2.9-.2 1.8v1.8zM20.8 12.3c1 .2 2.5.2 4.3.2h11.1c.2 0 .3.1.3.3v1.8c0 .2-.1.3-.3.3H24.4l-2.9.2c-.3 0-.4-.1-.5-.4 0-.5-.1-1.3-.2-2.4zM43 11.9c1.9-.6 3.5-1.3 4.9-1.9 1-.5 1.7-1 2.1-1.4.5.5 1.1 1.1 1.7 1.8.1.1.2.3.2.4 0 .2-.1.3-.3.4-.3.1-.8.3-1.7.7-1.9.9-4.2 1.7-6.9 2.5v2.7c0 .5.1.8.2 1 .1.2.3.3.5.4.5.1 1.4.2 2.5.2 1.8 0 3.6-.2 5.6-.5h.1c.1 0 .2.1.2.3.1.7.1 1.3.1 1.7 0 .2-.1.3-.4.4-1.8.1-3.8.2-5.8.2-1.7 0-3-.2-3.8-.5-.9-.4-1.4-1.4-1.4-3V9.9c0-1.6-.1-2.8-.2-3.7 1.2.1 2 .3 2.5.4.2.1.3.2.3.3 0 .1 0 .3-.1.4-.2.3-.3.9-.3 1.9v2.7zm7.3-5 1.1-.7h.1c.1 0 .1 0 .2.1.7.5 1.3 1.2 1.9 2.1 0 .1.1.1.1.1 0 .1 0 .1-.1.2l-.8.6c-.1 0-.1.1-.2.1s-.1 0-.2-.1c-.7-1-1.3-1.8-2.1-2.4zm1.9-1.3 1-.7h.1s.1 0 .2.1c.8.6 1.4 1.3 1.9 2.1 0 .1.1.1.1.2s0 .1-.1.2l-.8.6c-.1-.1-.2-.1-.2-.1-.1 0-.1 0-.2-.1-.6-.9-1.2-1.7-2-2.3zM67.6 13.7c1.9 1.4 3.7 3 5.5 4.8.1.1.2.2.2.3s0 .2-.1.3c-.4.5-.9 1-1.3 1.4-.1.1-.2.1-.2.1s-.2-.1-.3-.2c-1.5-1.8-3.2-3.4-5.2-5-2.1 2.2-4.3 3.9-6.7 5.3-.2.1-.4.2-.5.2-.1 0-.2-.1-.3-.2-.4-.5-.9-.9-1.7-1.3 1.6-.8 3-1.7 4.1-2.5.9-.7 1.9-1.6 2.9-2.6 1.4-1.5 2.7-3.2 3.8-5h-5.2c-1 0-2.1 0-3.2.1-.1 0-.2-.1-.3-.3-.1-.5-.2-1.2-.2-2.1.7.1 1.8.1 3.4.1h5.5c.7 0 1.2-.1 1.4-.2.1-.1.1-.1.2-.1s.2.1.3.2c.4.3.9.8 1.3 1.4.1.1.1.2.1.3 0 .1-.1.3-.3.4-.3.2-.5.5-.7.9-.7 1.3-1.6 2.5-2.5 3.7zM77.6 5.6c1.3.2 2.1.3 2.5.4.2.1.3.2.3.3 0 .1 0 .2-.1.3-.1.3-.2.9-.2 1.9V15c0 .3-.1.4-.4.4h-1.6c-.2 0-.4-.1-.4-.3l.1-2.7V8.5c0-1.2-.1-2.2-.2-2.9zm1 15c2.2-.7 3.9-1.7 4.9-2.9.9-1.1 1.3-2.9 1.3-5.3V8.5c0-1.4-.1-2.5-.2-3.3 1.1.1 2 .2 2.6.4.2.1.3.2.3.3 0 .1 0 .2-.1.3-.1.3-.2 1-.2 2.2v3.7c0 1.6-.1 2.9-.4 4-.3 1-.7 1.8-1.2 2.5s-1.2 1.3-2.1 1.9c-.7.5-1.5.9-2.3 1.2-.2.3-.3.3-.4.3-.2 0-.3-.1-.5-.2-.5-.5-1-.9-1.7-1.2zM93.2 5.6c1.3.2 2.1.3 2.5.4.2.1.3.2.3.3 0 .1 0 .2-.1.3-.1.3-.2.9-.2 1.9V15c0 .3-.1.4-.4.4h-1.6c-.2 0-.4-.1-.4-.3l.1-2.7V8.5c.1-1.2 0-2.2-.2-2.9zm1 15c2.2-.7 3.9-1.7 4.9-2.9.9-1.1 1.3-2.9 1.3-5.3V8.5c0-1.4-.1-2.5-.2-3.3 1.1.1 2 .2 2.6.4.2.1.3.2.3.3 0 .1 0 .2-.1.3-.1.3-.2 1-.2 2.2v3.7c0 1.6-.1 2.9-.4 4-.3 1-.7 1.8-1.2 2.5s-1.2 1.3-2.1 1.9c-.7.5-1.5.9-2.3 1.2-.1.3-.3.3-.4.3-.2 0-.3-.1-.5-.2-.4-.5-1-.9-1.7-1.2zM107.4 12.3c1 .2 2.5.2 4.3.2h11.1c.2 0 .3.1.3.3v1.8c0 .2-.1.3-.3.3H111l-2.9.2c-.3 0-.4-.1-.5-.4 0-.5-.1-1.3-.2-2.4zM135.9 13.7c1.9 1.4 3.7 3 5.5 4.8.1.1.2.2.2.3s0 .2-.1.3c-.4.5-.9 1-1.3 1.4-.1.1-.2.1-.2.1s-.2-.1-.3-.2c-1.5-1.8-3.2-3.4-5.2-5-2.1 2.2-4.3 3.9-6.7 5.3-.2.1-.4.2-.5.2-.1 0-.2-.1-.3-.2-.4-.5-.9-.9-1.7-1.3 1.6-.8 3-1.7 4.1-2.5.9-.7 1.9-1.6 2.9-2.6 1.4-1.5 2.7-3.2 3.8-5h-5.2c-1 0-2.1 0-3.2.1-.1 0-.2-.1-.3-.3-.1-.5-.2-1.2-.2-2.1.7.1 1.8.1 3.4.1h5.5c.7 0 1.2-.1 1.4-.2.1-.1.1-.1.2-.1s.2.1.3.2c.4.3.9.8 1.3 1.4.1.1.1.2.1.3 0 .1-.1.3-.3.4-.3.2-.5.5-.7.9-.7 1.3-1.5 2.5-2.5 3.7z" transform="translate(58.025 50.5)"/></g><path id="長方形_1721" class="st0" d="M7 9h41v28H7z"/><g class="st2"><path class="st1" d="M1.9 21.4c0-7.6 4.4-13.8 10.9-13.8 4.7 0 7.6 2.9 7.6 8 0 7.6-4.4 13.8-10.9 13.8-4.7 0-7.6-3-7.6-8zm13.6-5.7c0-2.7-1.2-4-3.2-4-3.7 0-5.6 5.6-5.6 9.5 0 2.7 1.2 4 3.1 4 3.8 0 5.7-5.6 5.7-9.5zM40.5 24.6h-3.4l-.9 4.4h-4.7l.9-4.4H21l.6-3.3L34 8h5.3L27.8 20.6h5.5l.8-3.9h4.5l-.8 3.9h3.5l-.8 4z"/></g></g><g id="modal_work_03" transform="translate(946.734 557)"><path id="前面オブジェクトで型抜き_52" class="st0" d="M246.8 115.5H8L22.2 65 8 14.5h238.8L261 65l-14.2 50.5z"/><path id="前面オブジェクトで型抜き_52_-_アウトライン" class="st1" d="M243 110.5 255.8 65 243 19.5H14.6L27.4 65l-12.8 45.5H243m3.8 5H8L22.2 65 8 14.5h238.8L261 65l-14.2 50.5z"/><g id="グループ_54868" transform="translate(54.499 37.496)"><g id="グループ_54867"><g class="st2"><path d="M29.9 11.4c1.9-2.1 3.2-4.4 4-6.8.2-.5.3-.9.3-1.4.8.2 1.5.4 2 .6.2.1.3.2.3.3 0 .1-.1.2-.2.4-.1.1-.2.4-.4.8-.4 1-.8 2-1.3 2.9V21.5h-2.1v-9.9c-.4.6-.9 1.2-1.4 1.7-.1.2-.3.2-.4.2-.1 0-.2-.1-.2-.3-.1-.7-.3-1.3-.6-1.8zm9 9.2H36v-1.8c0-.1.1-.2.2-.2h4.4v-7h-4.9V9.7h4.9V6.6c0-1.4 0-2.4-.1-3 .9 0 1.7.1 2.3.1.2 0 .3.1.3.2s0 .2-.1.4-.1 1-.1 2.2v3.2H48.4v2h-5.5v7H47.9v2h-9zM59.5 13.2H56.6V13c-.2.4-.4.7-.5 1l-.2.4-.3-.3c-.4-.7-.7-1.5-1-2.5 0 2.2 0 4.6.1 7.1V21.6h-2V20c.1-2.6.1-5.1.1-7.3-.4 1.5-1 2.9-1.7 4-.1.2-.2.3-.3.3-.1 0-.1-.1-.2-.3-.2-.6-.4-1.1-.7-1.5 1.3-1.9 2.2-3.9 2.8-6.3h-2.2V7.2h2.3V6c0-1.2-.1-2.1-.2-2.7.7 0 1.4.1 1.9.1.2 0 .3.1.3.2s0 .3-.1.4c-.1.2-.1.8-.1 1.9v1.2h1.9V8.9h-1.8c.5 1.4 1.1 2.6 1.9 3.7v-1.1H61v-1.2h-3.7V8.7h3.6V7.5h-3.8c-.1 0-.2-.1-.2-.2V5.9H59.2c-.3-.6-.6-1.2-.9-1.7 0-.1-.1-.1-.1-.2s.1-.1.2-.2l1.2-.5h.2s.1 0 .2.1c.4.5.7 1 1 1.6v.3c0 .1-.1.1-.2.2l-1.1.4h3c.4-.7.6-1.3.8-1.7.1-.2.2-.5.2-.9.6.1 1.2.3 1.7.4.2.1.3.2.3.3 0 .1-.1.2-.2.3-.1.1-.2.2-.3.4-.2.5-.5.9-.7 1.2H67.4v1.7h-4.7v1.2h4.1V10.4h-4.1v1.2H68V13.2h-5c.4.8.8 1.5 1.3 2.2.4-.3.8-.7 1.3-1.2.2-.2.4-.5.5-.7.5.3.9.7 1.3 1 .2.1.2.2.2.3 0 .1-.1.2-.3.3-.2.1-.4.2-.6.4-.5.5-1 .9-1.4 1.2.8.9 1.9 1.7 3.2 2.4-.4.4-.7.8-1 1.2-.1.3-.3.4-.3.4-.1 0-.2-.1-.4-.3-1.9-1.3-3.3-3-4.2-5 0 .6 0 1.4.1 2.4v1.5c0 .8-.2 1.4-.6 1.7-.3.2-1.1.4-2.2.4-.3 0-.5 0-.6-.1-.1-.1-.1-.2-.2-.5-.1-.4-.3-.9-.5-1.3.5.1 1 .1 1.4.1.3 0 .5-.1.6-.2.1-.1.1-.3.1-.5v-1.4c-1.2.8-2.4 1.4-3.6 2-.3.2-.5.3-.6.4-.1.1-.2.2-.3.2-.1 0-.1-.1-.2-.2-.2-.5-.5-1.1-.7-1.7.5-.1.9-.3 1.2-.4 1.4-.6 2.8-1.3 4.3-2.2v-2.4h-1.3zm-2.7 1.5-.1-.1s0-.1.1-.2l.8-.8c.1-.1.2-.1.2-.1s.1 0 .2.1c.6.4 1.2.9 1.7 1.5.1.1.1.1.1.2s0 .1-.1.2l-.8.9c-.1.1-.2.2-.3.2 0 0-.1 0-.1-.1-.5-.7-1.1-1.3-1.7-1.8zM72.4 8.9h-2V7.3c0-.1.1-.2.2-.2h2.1V6c0-1.2-.1-2.1-.2-2.7.7 0 1.4.1 1.9.1.2 0 .3.1.3.2s0 .3-.1.4c-.1.2-.1.9-.1 1.9v1.2h1.7v1.2c1.8-1.1 3.2-2.4 4.3-4.1.3-.4.5-.8.6-1.2.9.2 1.5.3 1.9.4.2 0 .3.1.3.3 0 .1-.1.2-.2.3l-.1.1c1.4 1.8 3.4 3.2 5.8 4.1-.3.4-.5.8-.7 1.2-.1.3-.2.5-.3.5-.1 0-.2-.1-.5-.2-.7-.4-1.4-.8-1.9-1.1v1.1H83v1.4h4.1v5.2h-3.7c1.1 1.6 2.9 2.8 5.3 3.4-.3.4-.6.8-.8 1.3-.1.3-.3.5-.4.5-.1 0-.2-.1-.5-.2-2.3-1-4-2.4-5-4.1-.9 1.9-2.5 3.3-4.9 4.1-.2.1-.4.1-.5.1-.1 0-.2-.2-.4-.5-.2-.4-.5-.8-.8-1.2 2.6-.7 4.3-1.9 5-3.6h-3.1v-5.2H81.1V9.7H79V8.8c-.5.4-1 .8-1.6 1.1-.3.1-.4.2-.5.2-.1 0-.2-.2-.4-.5s-.3-.5-.4-.6h-1.5c.5 1.4 1.2 2.6 2.2 3.7-.3.4-.5.8-.7 1.3-.1.3-.2.4-.2.4-.1 0-.2-.1-.3-.3-.5-.8-.9-1.7-1.1-2.4 0 2.3 0 4.6.1 7.1v3h-2V20.2c.1-2.6.1-5.1.1-7.3-.4 1.5-1 2.8-1.7 4 0 0-.1.1-.2.1s-.2-.1-.2-.3c-.2-.6-.4-1.1-.7-1.5 1.3-1.9 2.2-4 2.7-6.3h-.2zm8.7 3.8H79v2.1h2c0-.6 0-1.3.1-2.1zm-1.4-4.5h5.1c-1.1-.8-2-1.7-2.7-2.6-.7.9-1.5 1.7-2.4 2.6zm5.6 6.6v-2.1h-2.4c0 .9-.1 1.6-.2 2.1h2.6zM92.7 6.8H98.3V8.6H90.4V7c0-.1.1-.2.2-.2h2.1zm4.9 14.3v.2h-1.9v-.8h-2.3v1.2h-1.9V15.1h6.2V18.2l-.1 2.9zm-4.2-17h4.3v1.7h-6.3V4.1h2zm.1 5.5H97.3v1.7h-5.5c-.1 0-.2-.1-.2-.2V9.8c0-.1.1-.2.2-.2h1.7zm0 2.7H97.3V14h-5.5c-.1 0-.2-.1-.2-.2v-1.3c0-.1.1-.2.2-.2h1.7zm2.1 4.4h-2.3v2h2.3v-2zm6.1-7.3H99v-2h5.2V6.1c0-1.2 0-2.1-.1-2.8.8 0 1.5.1 2.2.1.2 0 .3.1.3.2s0 .3-.1.4c-.1.2-.1.8-.1 2v1.4h2.2c.1 0 .2.1.2.2v1.8H106.4v9.7c0 .6 0 1-.1 1.2-.1.3-.3.5-.5.7-.4.3-1.4.5-3.1.5-.3 0-.5 0-.6-.1-.1-.1-.1-.2-.2-.5-.1-.7-.3-1.2-.6-1.5.9.1 1.6.1 2.2.1.3 0 .5-.1.6-.2.1-.1.1-.3.1-.5V9.4h-2.5zm-.9 1.7c.8 1.1 1.5 2.4 2 3.8v.2c0 .1-.1.2-.2.2l-1.3.7c-.1.1-.2.1-.2.1-.1 0-.1-.1-.1-.2-.5-1.3-1.1-2.6-1.9-3.9-.1-.1-.1-.2-.1-.2 0-.1.1-.1.2-.2l1.3-.6c.1-.1.2-.1.2-.1 0 .1 0 .1.1.2zM124.7 2.9l-8.1 19h-1.3l8.1-19h1.3z"/></g><g class="st2"><path d="M21.3 43.3c0-.1.3-.4.7-1.1.2-.3.3-.5.4-.6.1-.1.2-.2.3-.2h.1c1.4.5 2.7 1.1 3.8 2 .1.1.2.2.2.3 0 0 0 .1-.1.2-.2.4-.5.9-.9 1.5-.1.1-.2.2-.3.2-.1 0-.1 0-.2-.1-1.1-.8-2.4-1.5-4-2.2zm1.6 6.7c.8-.2 1.8-.5 2.7-1 2.2-1.1 4-2.3 5.5-3.5 2.1-1.6 4-3.4 5.8-5.6.1.6.3 1.4.6 2.2.1.2.1.3.1.4 0 .2-.1.3-.2.5-1.5 1.6-3.2 3.2-5.1 4.6-1.5 1.2-3.5 2.4-6 3.8-.7.4-1.1.6-1.2.7-.1.1-.2.2-.3.2-.1 0-.3-.1-.4-.2-.4-.4-.9-1.1-1.5-2.1zm.8-11.4 1.1-1.6c.1-.1.2-.2.3-.2.1 0 .1 0 .2.1 1.5.6 2.8 1.4 3.8 2.2.1.1.2.2.2.3 0 .1 0 .2-.1.3-.4.7-.7 1.2-1 1.5 0 .1-.1.1-.2.1s-.2 0-.3-.1c-1.3-1.1-2.6-2-4-2.6zM50.1 44.7c1.9 1.4 3.7 3 5.5 4.8.1.1.2.2.2.3s0 .2-.1.3c-.4.5-.9 1-1.3 1.4-.1.1-.2.1-.2.1s-.2-.1-.3-.2c-1.5-1.8-3.2-3.4-5.2-5-2.1 2.2-4.3 3.9-6.7 5.3-.2.1-.4.2-.5.2-.1 0-.2-.1-.3-.2-.4-.5-.9-.9-1.7-1.3 1.6-.8 3-1.7 4.1-2.5.9-.7 1.9-1.6 2.9-2.6 1.4-1.5 2.7-3.2 3.8-5h-5.2c-1 0-2.1 0-3.2.1-.1 0-.2-.1-.3-.3-.1-.5-.2-1.2-.2-2.1.7.1 1.8.1 3.4.1h5.5c.7 0 1.2-.1 1.4-.2.1-.1.1-.1.2-.1s.2.1.3.2c.4.3.9.8 1.3 1.4.1.1.1.2.1.3 0 .1-.1.3-.3.4-.3.2-.5.5-.7.9-.6 1.3-1.5 2.5-2.5 3.7zM68.3 43.9c-.1 1.2-.2 2.2-.4 3-.2.7-.4 1.4-.8 2.1-.4.8-1 1.6-1.7 2.3-.6.6-1.2 1.1-1.8 1.5-.3.1-.5.2-.6.2-.1 0-.3-.1-.4-.2-.4-.4-1-.8-1.8-1.1 1.1-.6 1.9-1.2 2.5-1.7.6-.5 1.1-1.1 1.4-1.8.4-.7.6-1.4.8-2.1.1-.6.2-1.3.2-2.2H62c-.6 0-1.6 0-3 .1-.1 0-.2-.1-.3-.4-.1-.6-.2-1.2-.2-1.9.7.1 1.9.1 3.4.1h9c1.4 0 2.7 0 3.9-.1.1 0 .2.1.2.4v1.6c0 .2-.1.3-.3.3-1.4-.1-2.7-.1-3.8-.1h-2.6zM61 37c1.2.1 2.3.1 3.3.1h4.5c1.4 0 2.5 0 3.4-.1.2 0 .2.1.2.4v1.4c0 .3-.1.4-.3.4-1.1 0-2.2-.1-3.3-.1h-4.5c-.4 0-1.3 0-2.8.1-.2 0-.3-.1-.3-.3 0-.2 0-.5-.1-.9s-.1-.8-.1-1zM83.9 36.3c1.3.4 2.2.7 2.7 1 .2.1.2.2.2.3 0 .1-.1.2-.2.4-.2.3-.5.9-.8 1.7-1.5 4.2-2.7 7.2-3.4 9 3-.3 5.3-.5 7-.8-.7-1.2-1.4-2.3-2.2-3.2l1.7-1c.1 0 .1-.1.2-.1s.2.1.3.2c1.6 1.9 2.9 4 4 6.5.1.1.1.2.1.3 0 .1-.1.2-.3.3-.4.3-.9.6-1.5.8-.1 0-.2.1-.2.1-.1 0-.2-.1-.3-.3-.4-.8-.6-1.4-.7-1.6-2.5.4-5.6.8-9.5 1.2-1.2.1-2 .3-2.3.5-.1 0-.2.1-.3.1-.2 0-.3-.1-.3-.3-.1-.3-.4-1.2-.7-2.6h2.4c1.3-3.3 2.5-6.6 3.5-9.9.4-1 .6-1.9.6-2.6zM97.7 41.1h-2V39.3h2.4V38c0-1.2-.1-2.1-.2-2.7.7 0 1.4.1 1.9.1.2 0 .3.1.3.2s0 .3-.1.4c-.1.2-.1.8-.1 1.9v1.3H101.5V41h-1.6c.5 1.4 1.2 2.7 2.1 3.8-.3.4-.5.8-.7 1.3-.1.2-.2.3-.2.3-.1 0-.1-.1-.2-.3-.4-.7-.7-1.6-1-2.5 0 2.2 0 4.6.1 7V53.4h-2V51.8c.1-2.6.1-5 .1-7.3-.4 1.5-1 2.8-1.7 4.1-.1.2-.2.3-.3.3-.1 0-.1-.1-.2-.3-.2-.6-.4-1.1-.7-1.5 1.3-1.9 2.2-4 2.7-6.3h-.2zm12.2 10.7c.3 0 .4 0 .5-.1.1-.1.1-.2.1-.4v-1.1h-6.3V53.6h-1.9V50.2H101v-1.5H102.4V44.1H106.5v-1h-4.9v-1.5H104.5v-1H102.5v-1.4h2v-1H102v-1.4h2.5c0-.8 0-1.3-.1-1.6.9.1 1.5.1 1.9.1.2 0 .3.1.3.2s0 .2-.1.4c-.1.1-.1.5-.1 1h2.3c0-.8 0-1.3-.1-1.6.9.1 1.5.1 1.8.1.2 0 .3.1.3.2s0 .2-.1.4c-.1.1-.1.5-.1 1h3.2v1.4h-3.2v1h2.6v1.4h-2.6v1H114.1v1.5h-5.7v1h4.3V49h1.4v1.2h-1.4v1.2c0 .8-.1 1.3-.4 1.6-.2.2-.5.3-.8.4-.3.1-.9.1-1.6.1-.3 0-.5 0-.6-.1-.1-.1-.1-.2-.2-.5-.1-.4-.3-.8-.4-1.1h1.2zm-5.8-5.4h2.2v-1h-2.2v1zm0 2.3h2.2v-1.1h-2.2v1.1zm2-9.4h2.3v-1h-2.3v1zm0 2.4h2.3v-1h-2.3v1zm4.4 3.7h-2.4v1h2.4v-1zm-2.4 3.3h2.4v-1.1h-2.4v1.1zM115.5 39.4c1.1-1 2-2.1 2.6-3.2.1-.3.3-.6.3-.9.7.1 1.3.2 1.8.3.2 0 .3.1.3.2s-.1.2-.2.3c-.1.1-.2.2-.3.5 0 .1-.1.1-.1.2-.1.1-.1.1-.1.2h4.7v1.5c.5-.7 1-1.4 1.3-2.1.1-.3.3-.7.3-1 .7.1 1.2.2 1.6.3.2 0 .3.1.3.2s0 .2-.1.3c-.1.1-.2.2-.3.5l-.2.4h6.2V38.7h-3.5c.2.3.4.6.6 1v.1c0 .1-.1.1-.2.2l-1.2.3h-.2c-.1 0-.1-.1-.2-.2-.2-.5-.4-1-.7-1.4h-1.6c-.3.4-.6.9-1.1 1.5-.2.2-.3.3-.4.3-.1 0-.2-.1-.5-.4-.3-.3-.6-.5-.9-.6l.7-.7h-2.2c.1.2.3.6.6 1.1v.1c0 .1-.1.1-.2.1l-1.2.2h-.2c-.1 0-.2-.1-.2-.2-.1-.5-.3-1-.6-1.5H119c-.5.7-1 1.3-1.5 1.8-.2.2-.3.3-.4.3H123.1v1.5h-2.2V44c.7-.2 1.5-.4 2.3-.6-.1.4-.1.7-.2 1 0 .3 0 .5-.1.6-.1.1-.2.1-.5.2-1.4.4-2.9.8-4.6 1.2-.3.1-.5.2-.7.2-.1.1-.2.1-.3.1-.1 0-.2-.1-.3-.3-.2-.5-.3-1-.5-1.6.7-.1 1.3-.1 1.9-.2l1.2-.2v-2.2H116.8v-1.4c0-.1.1-.2.2-.2-.1 0-.2-.2-.4-.4-.5-.3-.8-.6-1.1-.8zm11.9 3.5c.6.5 1.2 1.1 1.7 1.7.1.1.1.1.1.2s-.1.1-.2.2l-.8.6c-.1.1-.2.1-.2.1s-.1 0-.2-.1c-.5-.7-1.1-1.3-1.6-1.8-.1 0-.1-.1-.1-.2-.2 1-.7 1.8-1.5 2.4.2 0 .6 0 1.1.1.2 0 .3.1.3.2s0 .2-.1.4-.1.4-.1.6h7.6c.1 0 .2.1.2.2V49h-6.1c1.5 1.1 3.8 1.9 6.7 2.5-.3.4-.6.8-.8 1.3-.2.3-.3.5-.4.5-.1 0-.2 0-.4-.1-2.8-.8-5-1.9-6.7-3.4l.1 3.7v.2h-1.9c-.1 0-.2-.1-.2-.2V49.9c-1.6 1.5-3.8 2.7-6.5 3.4-.2.1-.4.1-.5.1-.1 0-.3-.2-.5-.5-.3-.5-.5-.9-.8-1.1 2.8-.6 5-1.5 6.5-2.6h-5.9v-1.5c0-.1.1-.2.2-.2h7.4v-.8c-.1 0-.2-.1-.4-.3-.3-.3-.7-.6-1-.8 1-.5 1.6-1 1.9-1.6.2-.5.4-1.3.4-2.4v-1h6.7v3.5c0 .4 0 .7.1.7.1.1.3.1.5.1.3 0 .5-.1.6-.3.1-.2.2-.7.2-1.7.3.2.6.3 1 .5.2.1.3.1.4.2.1 0 .1.1.1.2v.3c-.1 1-.3 1.7-.6 2-.4.3-1 .5-1.9.5-.8 0-1.3-.1-1.6-.3-.4-.2-.5-.6-.5-1.3v-2.9h-3c0 .7-.1 1.2-.2 1.7 0 0 .1-.1.2-.1l.8-.6c.1-.1.2-.1.2-.1-.5-.3-.4-.2-.3-.1z"/></g></g></g><path id="長方形_1723" class="st0" d="M5 9h41v28H5z"/><g class="st2"><path class="st1" d="M1.5 21.4c0-7.6 4.4-13.8 10.9-13.8 4.6 0 7.6 2.9 7.6 8 0 7.6-4.4 13.8-10.9 13.8-4.7 0-7.6-3-7.6-8zm13.6-5.7c0-2.7-1.2-4-3.1-4-3.7 0-5.6 5.6-5.6 9.5 0 2.7 1.2 4 3.1 4 3.7 0 5.6-5.6 5.6-9.5zM37.8 11.2 32 16.6c2.9.7 4.6 2.6 4.6 5.3 0 4.3-4 7.4-9.7 7.4-3.1 0-5.9-.9-7.7-2.4l2.3-3.6c1.4 1.2 3.5 1.9 5.7 1.9 2.9 0 4.5-1.1 4.5-3 0-1.5-1.1-2.2-3.5-2.2H26l.6-3.2 5.2-4.9h-8.9l.8-3.9h14.7l-.6 3.2z"/></g></g></g></svg>