<svg xmlns="http://www.w3.org/2000/svg" width="1007.911" height="116" viewBox="0 0 1007.911 116"><g transform="translate(-457.734 -557)"><g transform="translate(457.734 557.001)"><g transform="translate(10 15.002)"><g fill="#fff"><path d="M 196.7747344970703 98.31620788574219 L 2.498193740844727 98.31620788574219 L 2.498193740844727 2.499091148376465 L 196.7747344970703 2.499091148376465 L 210.2707061767578 50.40808486938477 L 196.7747344970703 98.31620788574219 Z" stroke="none"/><path d="M 194.8817138671875 95.81621551513672 L 207.6734008789062 50.40807723999023 L 194.8816833496094 4.999087333679199 L 4.998198986053467 4.999087333679199 L 4.998198986053467 95.81621551513672 L 194.8817138671875 95.81621551513672 M 198.668701171875 100.8162155151367 L -0.001800781232304871 100.8162155151367 L -0.001800781232304871 -0.0009125060751102865 L 198.668701171875 -0.0009125060751102865 L 198.668701171875 0.002306243870407343 L 212.8680114746094 50.40808868408203 L 198.668701171875 100.8162155151367 Z" stroke="none" fill="#222"/></g></g><g transform="translate(66.433 50.5)"><text transform="translate(0 20)" font-size="20" font-family="YuGothic-Bold, Yu Gothic" font-weight="700"><tspan x="0" y="0">ヒアリング</tspan></text></g><rect width="33" height="28" transform="translate(10 9)" fill="#fff"/><text transform="translate(16 29)" fill="#222" font-size="30" font-family="Montserrat-BoldItalic, Montserrat" font-weight="700" font-style="italic"><tspan x="-15.96" y="0">01</tspan></text></g><g transform="translate(682.735 557)"><g transform="translate(8 15)" fill="#fff"><path d="M 236.8960266113281 98.49981689453125 L 3.300400972366333 98.49981689453125 L 16.61401176452637 51.17698287963867 L 16.80451202392578 50.49991607666016 L 16.61401176452637 49.82284927368164 L 3.300400972366333 2.5000159740448 L 236.8969573974609 2.5000159740448 L 250.4001617431641 50.49991989135742 L 236.8960266113281 98.49981689453125 Z" stroke="none"/><path d="M 235.0023345947266 95.99980926513672 L 247.8031158447266 50.49989700317383 L 235.0032196044922 5.000023365020752 L 6.600785255432129 5.000023365020752 L 19.40154075622559 50.49991607666016 L 6.600785255432129 95.99980926513672 L 235.0023345947266 95.99980926513672 M 238.7907257080078 100.9998092651367 L 4.307338258513482e-06 100.9998092651367 L 14.20743274688721 50.49991607666016 L 4.307338258513482e-06 2.321951797057409e-05 L 238.7907257080078 2.321951797057409e-05 L 252.9972229003906 50.49991607666016 L 238.7907562255859 100.9962387084961 L 238.7911529541016 100.99755859375 L 238.7907257080078 100.9998092651367 Z" stroke="none" fill="#222"/></g><g transform="translate(54.499 37.496)"><text transform="translate(80 20)" font-size="20" font-family="YuGothic-Bold, Yu Gothic" font-weight="700"><tspan x="-80" y="0">プロトタイピング</tspan><tspan x="-40" y="32">仮説検証</tspan></text></g><rect width="41" height="28" transform="translate(5 9)" fill="#fff"/><text transform="translate(19 29)" fill="#222" font-size="30" font-family="Montserrat-BoldItalic, Montserrat" font-weight="700" font-style="italic"><tspan x="-18.93" y="0">02</tspan></text></g><g transform="translate(1209.734 557)"><g transform="translate(6.141 15.003)" fill="#fff"><path d="M 247.2698059082031 98.49440002441406 L 3.301562547683716 98.49440002441406 L 16.63173675537109 51.17506790161133 L 16.82270240783691 50.49720001220703 L 16.63173675537109 49.81933212280273 L 3.301563262939453 2.500033140182495 L 247.2698059082031 2.500033140182495 L 247.2698059082031 98.49440002441406 Z" stroke="none"/><path d="M 244.7697906494141 95.99441528320312 L 244.7697906494141 5.000020980834961 L 6.603146076202393 5.000020980834961 L 19.42000961303711 50.49720001220703 L 6.603144645690918 95.99441528320312 L 244.7697906494141 95.99441528320312 M 249.7697906494141 100.9953765869141 L 249.7697906494141 100.9944152832031 L 1.009695915854536e-05 100.9944152832031 L 14.22540283203125 50.49720001220703 L 1.009695915854536e-05 2.116612085956149e-05 L 249.7697906494141 2.116612085956149e-05 L 249.7697906494141 100.9953765869141 Z" stroke="none" fill="#222"/></g><g transform="translate(58.025 50.5)"><text transform="translate(80 20)" font-size="20" font-family="YuGothic-Bold, Yu Gothic" font-weight="700"><tspan x="-80" y="0">サービスリリース</tspan></text></g><rect width="41" height="28" transform="translate(7 9)" fill="#fff"/><text transform="translate(21 29)" fill="#222" font-size="30" font-family="Montserrat-BoldItalic, Montserrat" font-weight="700" font-style="italic"><tspan x="-20.505" y="0">04</tspan></text></g><g transform="translate(946.734 557)"><g transform="translate(8 15)" fill="#fff"><path d="M 236.8960266113281 98.49981689453125 L 3.300400972366333 98.49981689453125 L 16.61401176452637 51.17698287963867 L 16.80451202392578 50.49991607666016 L 16.61401176452637 49.82284927368164 L 3.300400972366333 2.5000159740448 L 236.8969573974609 2.5000159740448 L 250.4001617431641 50.49991989135742 L 236.8960266113281 98.49981689453125 Z" stroke="none"/><path d="M 235.0023345947266 95.99980926513672 L 247.8031158447266 50.49989700317383 L 235.0032196044922 5.000023365020752 L 6.600785255432129 5.000023365020752 L 19.40154075622559 50.49991607666016 L 6.600785255432129 95.99980926513672 L 235.0023345947266 95.99980926513672 M 238.7907257080078 100.9998092651367 L 4.307338258513482e-06 100.9998092651367 L 14.20743274688721 50.49991607666016 L 4.307338258513482e-06 2.321951797057409e-05 L 238.7907257080078 2.321951797057409e-05 L 252.9972229003906 50.49991607666016 L 238.7907562255859 100.9962387084961 L 238.7911529541016 100.99755859375 L 238.7907257080078 100.9998092651367 Z" stroke="none" fill="#222"/></g><g transform="translate(54.499 37.496)"><text transform="translate(80 20)" font-size="20" font-family="YuGothic-Bold, Yu Gothic" font-weight="700"><tspan x="-40" y="0">仕様検討</tspan><tspan x="-60" y="32">システム構築</tspan></text></g><rect width="41" height="28" transform="translate(5 9)" fill="#fff"/><text transform="translate(19 29)" fill="#222" font-size="30" font-family="Montserrat-BoldItalic, Montserrat" font-weight="700" font-style="italic"><tspan x="-18.9" y="0">03</tspan></text></g></g></svg>