<svg version="1.1" id="レイヤー_1" xmlns="http://www.w3.org/2000/svg" x="0" y="0" viewBox="0 0 290.4 468.3" style="enable-background:new 0 0 290.4 468.3" xml:space="preserve"><style>.st0{fill:#fff}.st1{fill:#222}.st2{enable-background:new}</style><g id="modal_work_summary_sp001" transform="translate(17103.141 13879.152)"><g id="グループ_54934" transform="translate(-17102.084 -13879.152)"><g id="グループ_54859" transform="translate(9.084 17.059)"><path id="合体_31" class="st0" d="M0 80.3V0h280.2v80.3l-140.1 24.3L0 80.3z"/><path id="合体_31_-_アウトライン" class="st1" d="m140.1 101.5 137.1-23.8V3H3v74.7l137.1 23.8m0 3.1L0 80.3V0h280.2v80.3l-140.1 24.3z"/></g><g class="st2" id="グループ_54860"><path d="M5.9 8.7c1.3-.4 2.7-.9 4-1.6.8-.4 1.3-.8 1.7-1.1.4.4.9.8 1.3 1.4.1.1.1.2.1.3.1.2 0 .3-.2.3-.2.1-.7.2-1.3.5-1.5.7-3.4 1.4-5.6 2v2.1c0 .4 0 .7.1.8.1.1.2.2.4.3.4.1 1.1.2 2 .2 1.4 0 2.9-.1 4.5-.4h.1c.1 0 .2.1.2.2.1.6.1 1.1.1 1.4 0 .2-.1.3-.3.3-1.5.2-3.1.3-4.8.3-1.4 0-2.4-.1-3-.4-.8-.3-1.1-1.1-1.1-2.4V7.1c0-1.3-.1-2.3-.2-2.9.9.1 1.6.2 2 .3.2 0 .3.1.3.3 0 .1 0 .2-.1.3-.1.2-.2.6-.2 1.4v2.2zM15.6 4.4c1 .1 2.1.1 3.2.1h6.9c.6 0 .9 0 1.1-.1.2-.1.3-.1.3-.1.1 0 .2.1.4.2.3.2.6.6 1 1 .1.1.1.2.1.3 0 .1-.1.2-.2.3-.1.1-.3.2-.4.5-.8 1.2-1.7 2.2-2.8 3.1-.1.1-.2.1-.3.1-.1 0-.3-.1-.4-.2-.3-.3-.8-.5-1.3-.7.7-.5 1.3-1 1.7-1.4.4-.4.8-.9 1.2-1.4H19c-.6 0-1.6 0-2.8.1-.2 0-.3-.1-.3-.2-.1-.2-.2-.8-.3-1.6zm1 11.1c.9-.5 1.6-1 2.2-1.5.5-.4.8-1 1.2-1.6.5-1 .8-2.2.8-3.8 0-.5-.1-1-.2-1.5 1 .1 1.6.2 2.1.3.2 0 .3.1.3.3 0 .1 0 .2-.1.3-.1.2-.1.4-.1.7-.1 1.8-.4 3.3-.9 4.4-.7 1.3-1.7 2.4-2.9 3.2-.2.1-.3.2-.5.2-.1 0-.2 0-.3-.1-.5-.4-1-.7-1.6-.9zM31.8 3.6c1 .1 1.7.2 2 .3.2 0 .3.1.3.3 0 .1 0 .1-.1.2-.1.2-.2.8-.2 1.5v5.2c0 .2-.1.3-.3.3h-1.3c-.2 0-.3-.1-.3-.2V6c.1-1 0-1.8-.1-2.4zm.8 12c1.8-.6 3.1-1.3 3.9-2.3.7-.9 1.1-2.3 1.1-4.3V6c0-1.2-.1-2-.2-2.6.9.1 1.6.2 2.1.4.1 0 .2.1.2.3 0 .1 0 .2-.1.3-.1.2-.1.8-.1 1.7v3c0 1.3-.1 2.4-.3 3.2-.2.8-.5 1.4-1 2-.4.6-1 1.1-1.7 1.5-.6.4-1.2.7-1.8 1-.1.1-.3.1-.3.1-.1 0-.3-.1-.4-.2-.4-.5-.9-.8-1.4-1.1zM43.1 6c.3-.3.6-.7 1.1-1.2.1-.1.1-.1.2-.1 0 0 .1 0 .2.1 1 .5 2 1.3 3.1 2.3.1.1.1.2.1.2s0 .1-.1.2c-.3.5-.7.9-1 1.2-.1.1-.2.1-.2.1-.1 0-.1 0-.2-.1-.9-1.1-2-1.9-3.2-2.7zm.4 8c.9-.2 1.6-.5 2.2-.8 1-.5 1.9-1 2.6-1.5.6-.4 1.3-.9 2-1.5 1.1-.9 1.9-1.6 2.6-2.3.6-.6 1.2-1.3 1.8-2.1.1.7.2 1.3.4 1.9.1.1.1.2.1.3 0 .1-.1.3-.3.5-.9 1.1-2.2 2.2-3.7 3.4-1.3 1-2.9 2.1-4.8 3.1-.6.3-.9.6-1.1.7-.1.1-.2.2-.3.2-.1 0-.2-.1-.3-.2-.4-.5-.8-1.1-1.2-1.7zM63 5.8l2.9-.1c.4 0 .6-.1.8-.2.1 0 .1-.1.2-.1s.2 0 .3.1c.4.2.7.5 1.1.9.1.1.2.2.2.4 0 .1-.1.2-.2.3-.2.2-.4.4-.5.7-1 2-2.1 3.7-3.2 4.9-.7.8-1.6 1.6-2.5 2.4-.8.7-1.6 1.2-2.3 1.6-.1.1-.2.1-.3.1-.1 0-.2-.1-.4-.2-.4-.3-.9-.6-1.5-.7 1.3-.7 2.4-1.4 3.2-2 .7-.5 1.4-1.2 2.1-2 .7-.8 1.2-1.5 1.7-2.2.4-.7.8-1.5 1.2-2.4l-3.8.1c-1.3 1.6-2.3 2.7-3 3.3-.1.1-.2.2-.3.2-.1 0-.2 0-.2-.1-.5-.3-1-.6-1.5-.7 1.8-1.5 3.2-3 4.3-4.8.5-.8.8-1.6.9-2.2.8.4 1.4.6 1.7.9.1.1.2.2.2.3 0 .1-.1.2-.2.3-.1 0-.2.2-.4.4-.1.2-.3.4-.5.8zm4-1.7.8-.6h.1s.1 0 .1.1c.5.4 1.1 1 1.5 1.7v.1c0 .1 0 .1-.1.1l-.5.5h-.1c-.1 0-.1 0-.1-.1-.6-.7-1.1-1.3-1.7-1.8zm1.5-1 .8-.6h.1s.1 0 .1.1c.6.5 1.1 1 1.5 1.6v.1c0 .1 0 .1-.1.2l-.5.5-.1.1c-.1 0-.1 0-.1-.1-.6-.8-1.1-1.4-1.7-1.9z" transform="translate(106.281 55.69)"/></g><path id="長方形_1718" class="st0" d="M8.5 11h34.9v28.1H8.5z"/><g class="st2"><path class="st1" d="M1.4 22.9c0-8.1 4.7-14.7 11.7-14.7 5 0 8.1 3.1 8.1 8.5 0 8.1-4.7 14.7-11.7 14.7-4.9 0-8.1-3.2-8.1-8.5zM16 16.8c0-2.9-1.3-4.2-3.4-4.2-3.9 0-6 6-6 10.2 0 2.9 1.3 4.2 3.4 4.2 4 0 6-6 6-10.2zM34.1 8.6 29.6 31h-5.2L28 12.8h-4.5l.8-4.2h9.8z"/></g></g><g id="グループ_54935" transform="translate(-17101.025 -13777.092)"><path id="前面オブジェクトで型抜き_50" class="st0" d="M147.1 141.7 7 117.4V17.1l140.1 24.3 140.1-24.3v100.3l-140.1 24.3z"/><path id="前面オブジェクトで型抜き_50_-_アウトライン" class="st1" d="m147.1 138.6 137.1-23.8V20.6L147.1 44.4 10 20.6v94.3l137.1 23.7m0 3.1L7 117.4V17.1l140.1 24.3 140.1-24.3v100.3l-140.1 24.3z"/><g id="グループ_54863" transform="translate(80.901 65.72)"><g class="st2" id="グループ_54862"><path d="M65.8 21.2c-.3.4-.6.8-.7 1.2-.1.3-.2.4-.3.4-.1 0-.2 0-.4-.1-2.8-1.3-4.9-3-6.4-5.1-1.6 2.1-3.6 3.8-6.1 5.1-.2.1-.3.2-.4.2-.1 0-.2-.1-.3-.4-.2-.4-.4-.8-.8-1.1 2.7-1.2 4.8-2.8 6.2-4.9l.6-1.2c.4.1 1 .2 1.7.4.2.1.3.1.3.3 0 .1-.1.2-.2.2v.1c1.7 2.2 4 3.8 6.8 4.9zm-12.6 8.5h-2c-.1 0-.2-.1-.2-.2v-1.3c0-.1.1-.2.2-.2h2.4v-3.5c0-.8 0-1.4-.1-1.7.7 0 1.3.1 1.8.1.2 0 .3.1.3.2 0 0 0 .2-.1.3-.1.2-.1.5-.1 1.2V28h2.2v-6c0-.8 0-1.4-.1-1.7.7 0 1.3.1 1.8.1.2 0 .3.1.3.2s0 .2-.1.4c-.1.1-.1.5-.1 1.1v1.5H63.3V25.1H59.5v3h6c.1 0 0 .1 0 .1v1.3c0 .1-.1.2-.2.2H53.2zM69.3 17.8h-2c-.1 0-.2-.1-.2-.2v-1.4H81v1.4c0 .1-.1.2-.2.2h-6.1v1.6h3.2v7.4H70.2V19.5h3v-1.6h-3.9zm9.8 1.6c.7 0 1.2.1 1.6.1.2 0 .3.1.3.2s0 .2-.1.3c-.1.1-.1.7-.1 1.7v8.5H79.3v-.7H69v.7H67.5v-8.5c0-1.1 0-1.8-.1-2.2.7 0 1.2.1 1.6.1.2 0 .3.1.3.2s0 .2-.1.3c-.1.1-.1.7-.1 1.7v6.1h10.2v-6.2c-.1-1-.1-1.8-.2-2.3zm-7.4 2.9h1.6v-1.7h-1.6v1.7zm0 3.1h1.6v-1.8h-1.6v1.8zm4.8-4.8h-1.7v1.7h1.7v-1.7zm0 4.8v-1.8h-1.7v1.8h1.7z"/></g></g><path id="長方形_1720" class="st0" d="M4.2 11h43.4v28.1H4.2z"/><g class="st2"><path class="st1" d="M1.3 22.9C1.3 14.8 6 8.2 13 8.2c5 0 8.1 3.1 8.1 8.5 0 8.1-4.7 14.7-11.7 14.7-5 0-8.1-3.2-8.1-8.5zm14.5-6.1c0-2.9-1.3-4.2-3.4-4.2-3.9 0-6 6-6 10.2 0 2.9 1.3 4.2 3.4 4.2 4 0 6-6 6-10.2zM29 26.8h9.4l-.8 4.2h-17l.7-3.4 10.2-8c2.5-2 3.3-3.2 3.3-4.7s-1.1-2.5-3.3-2.5c-1.8 0-3.5.8-4.8 2.3l-3.5-2.5c1.8-2.5 5.2-4.1 9-4.1 4.7 0 7.8 2.5 7.8 6 0 2.7-1.2 4.9-5.2 7.9L29 26.8z"/></g></g><g id="グループ_54936" transform="translate(-17101.025 -13654.676)"><path id="前面オブジェクトで型抜き_50-2" class="st0" d="M147.1 141.7 7 117.4V17.1l140.1 24.3 140.1-24.3v100.3l-140.1 24.3z"/><path id="前面オブジェクトで型抜き_50_-_アウトライン-2" class="st1" d="m147.1 138.6 137.1-23.8V20.6L147.1 44.4 10 20.6v94.3l137.1 23.7m0 3.1L7 117.4V17.1l140.1 24.3 140.1-24.3v100.3l-140.1 24.3z"/><g id="グループ_54863-2" transform="translate(97.822 65.72)"><g class="st2" id="グループ_54862-2"><path d="M-13.6 18c.7.1 1.7.1 3.1.1h5.7c.4 0 .7-.1.9-.2.1-.1.2-.1.3-.1.1 0 .2 0 .3.1.5.4.8.8 1.1 1.1.1.1.1.2.1.3 0 .1-.1.2-.2.3-.1.1-.2.3-.4.6-.9 2.1-1.9 3.8-3.1 5.2-1.4 1.6-3 2.9-4.5 3.8-.1.1-.3.1-.4.1-.1 0-.3-.1-.4-.2-.3-.3-.8-.6-1.5-.9 1.2-.6 2.3-1.3 3.1-1.9.7-.6 1.4-1.3 2.1-2.1 1.2-1.4 2.1-2.9 2.7-4.6h-5.8c-.6 0-1.5 0-2.6.1-.2 0-.3-.1-.3-.3-.1 0-.2-.6-.2-1.4zm12.4-2.9c.5 0 .9.2 1.3.6.3.3.4.7.4 1.1 0 .5-.2.9-.6 1.3-.3.3-.7.4-1.2.4s-.9-.2-1.3-.6c-.3-.3-.4-.7-.4-1.2s.2-1 .6-1.3c.4-.1.7-.3 1.2-.3zm0 .8c-.3 0-.5.1-.7.3-.2.2-.2.4-.2.6 0 .3.1.5.3.7.2.2.4.2.6.2.3 0 .5-.1.7-.3.2-.2.2-.4.2-.6 0-.3-.1-.5-.3-.7-.1-.1-.3-.2-.6-.2zM11.4 27.1H5.2v.9c0 .1 0 .2-.1.3 0 0-.1 0-.3.1H3.6c-.2 0-.3-.1-.3-.2V18.4c0-.2.1-.2.2-.2h9.7c.1 0 .2.1.2.2v6.5c0 .6 0 1.6.1 3 0 .2-.1.3-.3.3H11.6v-1.1zm0-1.7v-5.5H5.2v5.5h6.2zM20.7 20.8c2 .6 3.7 1.4 5.1 2.2.1.1.2.2.2.3v.1c-.2.5-.4 1-.7 1.4-.1.1-.1.2-.2.2s-.1 0-.2-.1c-1.5-1-2.9-1.6-4.2-2.1v3.5c0 .6 0 1.6.1 3.1 0 .1-.1.2-.3.2h-1.4c-.2 0-.3-.1-.3-.2 0-1 .1-2.1.1-3.1v-7.9c0-1-.1-1.8-.2-2.4.9.1 1.6.1 2 .3.2 0 .3.1.3.3 0 .1 0 .2-.1.4-.1.1-.1.6-.1 1.5v2.3zM36.6 24.2c.7.6 1.3 1.1 1.7 1.6.1.1.1.1.1.2s0 .1-.1.2c-.3.4-.7.7-1 1-.1.1-.1.1-.2.1s-.1 0-.2-.1c-.4-.5-1-1-1.6-1.6-1.5 1.6-3.2 3-5.1 4-.2.1-.3.1-.4.1s-.2 0-.3-.1c-.4-.3-.9-.6-1.5-.8 1.3-.7 2.5-1.4 3.4-2.1.8-.6 1.7-1.4 2.5-2.3-.7-.6-1.4-1.1-2.3-1.5.6-.7 1-1.1 1.1-1.1.1-.1.1-.1.2-.1 0 0 .1 0 .2.1.5.2 1.1.6 2.1 1.3.7-.9 1.3-2 1.9-3.2l-4 .1c-1.3 1.6-2.4 2.8-3.4 3.6-.1.1-.2.1-.3.1-.1 0-.2 0-.3-.1-.4-.3-.8-.5-1.3-.7 1.1-.9 2.1-1.8 2.8-2.7.6-.7 1.2-1.5 1.7-2.3.5-.8.7-1.4.9-2 1 .3 1.6.6 1.9.8.1.1.2.1.2.3 0 .1-.1.2-.2.3l-.3.3c-.1.2-.3.5-.5.8l2.8-.1c.3 0 .6-.1.9-.2 0-.1.1-.1.1-.1.1 0 .2 0 .3.1.3.2.7.5 1.1 1 .1.1.1.2.1.3 0 .1-.1.2-.2.3-.2.2-.4.4-.5.6-.7 1.6-1.5 2.9-2.3 3.9zM50 20.7v8.6c0 .2-.1.2-.2.2h-1.6c-.2 0-.2-.1-.2-.2V22.2c-1.6 1.4-3.1 2.4-4.4 3.1-.1 0-.2.1-.2.1-.1 0-.2-.1-.3-.2-.3-.3-.8-.6-1.4-.9 1.9-1 3.6-2.1 5-3.3 1.3-1.1 2.4-2.2 3.4-3.3.5-.5.8-1.1 1-1.6.8.5 1.4.8 1.8 1.1.1.1.1.1.1.2s-.1.3-.2.4c-.2.2-.6.5-1 .9-.5.7-1.1 1.3-1.8 2zM58.7 21.7c1.5-.5 2.8-1 3.9-1.5.8-.4 1.3-.8 1.7-1.2.4.4.9.8 1.3 1.4.1.1.1.2.1.3 0 .1-.1.2-.3.3-.2.1-.7.2-1.3.5-1.5.7-3.4 1.3-5.5 2v2.1c0 .4 0 .7.1.8.1.1.2.2.4.3.4.1 1.1.2 2 .2 1.4 0 2.9-.1 4.5-.4h.1c.1 0 .2.1.2.2.1.6.1 1.1.1 1.4 0 .2-.1.3-.3.3-1.6.2-3.1.3-4.8.3-1.4 0-2.4-.1-3-.4-.8-.3-1.1-1.1-1.1-2.4V20c0-1.3-.1-2.3-.2-2.9.9.1 1.6.2 2 .3.2 0 .3.1.3.3 0 .1 0 .2-.1.3-.1.2-.2.7-.2 1.4v2.3zm8.5-5.3c.5 0 .9.2 1.3.6.3.3.4.7.4 1.1 0 .5-.2.9-.6 1.3-.3.3-.7.4-1.2.4s-1-.2-1.3-.6c-.3-.3-.4-.7-.4-1.1 0-.5.2-1 .6-1.3.4-.2.8-.4 1.2-.4zm0 .8c-.3 0-.5.1-.7.3-.2.2-.2.4-.2.6 0 .3.1.5.3.7.2.2.4.2.6.2.3 0 .5-.1.7-.3.2-.2.2-.4.2-.6 0-.3-.1-.5-.3-.7-.1-.1-.3-.2-.6-.2zM70.5 19c.3-.3.6-.7 1.1-1.2.1-.1.1-.1.2-.1 0 0 .1 0 .2.1 1 .5 2 1.3 3.1 2.3.1.1.1.2.1.2s0 .1-.1.2c-.3.5-.7.9-1 1.2-.1.1-.2.1-.2.1-.1 0-.1 0-.2-.1-.9-1.1-1.9-1.9-3.2-2.7zm.4 8c.9-.2 1.6-.5 2.2-.8 1-.5 1.9-1 2.6-1.5.6-.4 1.3-.9 2-1.5 1.1-.9 1.9-1.6 2.6-2.2.6-.6 1.2-1.3 1.8-2.1.1.7.2 1.3.4 1.9.1.1.1.2.1.3 0 .1-.1.3-.3.5-.9 1.1-2.2 2.2-3.7 3.4-1.3 1-2.9 2.1-4.8 3.1-.6.3-.9.6-1.1.7-.1.1-.2.2-.3.2-.1 0-.2-.1-.3-.2L70.9 27zM90.4 18.8l2.9-.1c.4 0 .6-.1.8-.2.1 0 .1-.1.2-.1s.2 0 .3.1c.4.2.7.5 1.1.9.1.1.2.2.2.4 0 .1-.1.2-.2.3-.2.2-.4.4-.5.7-1 2-2.1 3.7-3.2 4.9-.7.8-1.6 1.6-2.5 2.4-.8.7-1.6 1.2-2.3 1.6-.1.1-.2.1-.3.1-.1 0-.2-.1-.4-.2-.4-.3-.9-.6-1.5-.7 1.3-.7 2.4-1.4 3.2-2 .7-.5 1.4-1.2 2.1-2 .7-.8 1.2-1.5 1.7-2.2.4-.6.8-1.4 1.3-2.4l-3.9.1c-1.3 1.6-2.3 2.7-3 3.3-.1.1-.2.2-.3.2-.1 0-.2 0-.2-.1-.5-.3-1-.6-1.5-.7 1.8-1.5 3.2-3 4.3-4.8.5-.8.8-1.6.9-2.2.9.3 1.5.6 1.9.9.1.1.2.2.2.3 0 .1-.1.2-.2.3-.1 0-.2.2-.4.4-.3.2-.5.4-.7.8zm4-1.7.8-.6h.1s.1 0 .1.1c.5.4 1.1 1 1.5 1.7v.1c0 .1 0 .1-.1.1l-.5.5h-.1c-.1 0-.1 0-.1-.1-.6-.7-1.1-1.3-1.7-1.8zm1.5-1 .8-.6h.1s.1 0 .1.1c.6.5 1.1 1 1.5 1.6v.1c0 .1 0 .1-.1.2l-.5.5-.1.1c-.1 0-.1 0-.1-.1-.6-.8-1.1-1.4-1.7-1.9z"/></g></g><path id="長方形_1720-2" class="st0" d="M4.2 11h43.4v28.1H4.2z"/><g class="st2"><path class="st1" d="M1.3 22.9C1.3 14.8 6 8.2 13 8.2c5 0 8.1 3.1 8.1 8.5 0 8.1-4.7 14.7-11.7 14.7-5 0-8.1-3.2-8.1-8.5zm14.6-6.1c0-2.9-1.3-4.2-3.4-4.2-3.9 0-6 6-6 10.2 0 2.9 1.3 4.2 3.4 4.2 3.9 0 6-6 6-10.2zM40.1 12l-6.3 5.9c3.1.7 4.9 2.8 4.9 5.7 0 4.6-4.3 7.9-10.4 7.9-3.3 0-6.3-.9-8.2-2.6l2.5-3.8c1.5 1.3 3.7 2 6 2 3.1 0 4.8-1.2 4.8-3.2 0-1.6-1.2-2.4-3.7-2.4h-2.4l.7-3.4 5.6-5.2h-9.5l.9-4.2h15.7l-.6 3.3z"/></g></g><g id="グループ_54937" transform="translate(-17103.141 -13531.256)"><path id="前面オブジェクトで型抜き_50-3" class="st0" d="M289.4 120.4H9.1V17.1l140.1 24.3 140.1-24.3.1 103.3z"/><path id="前面オブジェクトで型抜き_50_-_アウトライン-3" class="st1" d="M286.4 117.4V20.6L149.3 44.4 12.1 20.6v96.8h274.3m3 3H9.1V17.1l140.1 24.3 140.1-24.3.1 103.3z"/><g id="グループ_54863-3" transform="translate(83.017 72.744)"><g id="グループ_54862-3"><g class="st2"><path d="M32.3-9.6c1.1.3 1.8.6 2.2.8.1.1.2.2.2.3 0 .1-.1.2-.2.3-.2.2-.4.7-.6 1.3-1.2 3.4-2.2 5.8-2.8 7.2 2.4-.2 4.3-.4 5.6-.6-.5-1-1.1-1.8-1.8-2.6l1.4-.8h.1c.1 0 .2 0 .2.1C37.9-2 39-.3 39.9 1.8c0 0 .1.1.1.2s-.1.2-.2.3c-.3.2-.7.4-1.2.7h-.2c-.1 0-.2-.1-.2-.2-.3-.7-.5-1.1-.6-1.3-2 .2-4.6.5-7.6.9-.9.1-1.6.2-1.9.4h-.2c-.1 0-.2-.1-.3-.2-.1-.3-.3-.9-.6-2.1h2c1.1-2.7 2-5.3 2.8-7.9.3-.9.4-1.6.5-2.2zM42-4c.8.1 2 .2 3.5.2h9c.1 0 .2.1.2.2V-2c0 .2-.1.2-.2.2H45l-2.4.2c-.2 0-.3-.1-.4-.3-.1-.6-.1-1.2-.2-2.1zM59.8-4.3c1.5-.5 2.8-1 3.9-1.5.8-.4 1.3-.8 1.7-1.2.4.4.9.8 1.3 1.4.1.1.1.2.1.3 0 .1-.1.2-.3.3-.2.1-.7.2-1.3.5-1.5.7-3.4 1.3-5.5 2v2.1c0 .4 0 .7.1.8.1.1.2.2.4.3.4.1 1.1.2 2 .2 1.4 0 2.9-.1 4.5-.4h.1c.1 0 .2.1.2.2.1.6.1 1.1.1 1.4 0 .2-.1.3-.3.3-1.6.2-3.1.3-4.7.3-1.4 0-2.4-.1-3-.4C58.3 2 58 1.2 58-.1V-6c0-1.3-.1-2.3-.2-2.9.9.1 1.6.2 2 .3.2 0 .3.1.3.3 0 .1 0 .2-.1.3-.1.2-.2.7-.2 1.4v2.3zm5.8-4 .8-.6h.1s.1 0 .1.1c.5.4 1.1 1 1.5 1.7v.1c0 .1 0 .1-.1.1l-.7.5h-.1c-.1 0-.1 0-.1-.1-.4-.7-.9-1.3-1.5-1.8zm1.5-1.1.8-.6h.1s.1 0 .1.1c.6.5 1.1 1 1.5 1.6v.1c0 .1 0 .1-.1.2l-.5.5h-.1c-.1 0-.1 0-.1-.1-.6-.6-1.1-1.3-1.7-1.8zM71.4-4c.8.1 2 .2 3.5.2H83.8c.1 0 .2.1.2.2V-2c0 .2-.1.2-.2.2h-9.5l-2.3.1c-.2 0-.3-.1-.4-.3-.1-.5-.2-1.1-.2-2zM89-4.7c.5 0 .9.2 1.2.5.3.3.4.7.4 1.1 0 .5-.2.9-.5 1.2-.3.3-.7.4-1.1.4-.5 0-.9-.2-1.2-.5-.3-.3-.4-.7-.4-1.1 0-.5.2-.9.5-1.2.3-.2.7-.4 1.1-.4z"/></g><g class="st2"><path d="M-4.8 21.1c1.5 1.1 3 2.4 4.4 3.9.1.1.1.2.1.2s0 .1-.1.2c-.3.4-.7.8-1.1 1.1-.1.1-.1.1-.2.1s-.1 0-.2-.1c-1.2-1.4-2.6-2.7-4.2-4-1.7 1.7-3.5 3.2-5.4 4.2-.2.1-.3.1-.4.1-.1 0-.2 0-.3-.1-.3-.4-.7-.7-1.3-1 1.3-.7 2.4-1.3 3.3-2 .8-.6 1.5-1.2 2.3-2.1 1.1-1.2 2.1-2.5 3-4H-9c-.8 0-1.7 0-2.5.1-.1 0-.2-.1-.2-.3-.1-.4-.1-1-.1-1.7.6 0 1.5.1 2.7.1h4.4c.6 0 .9 0 1.1-.1.1 0 .1-.1.2-.1s.1 0 .3.1c.3.3.7.6 1 1.1.1.1.1.2.1.2 0 .1-.1.2-.2.3-.2.2-.4.4-.6.7-.5 1.2-1.2 2.2-2 3.1zM6.2 18.8c2 .6 3.7 1.4 5.1 2.2.1.1.2.2.2.3v.1c-.2.5-.4 1-.7 1.4-.1.1-.1.2-.2.2s-.1 0-.2-.1c-1.5-1-2.9-1.6-4.2-2.1v3.5c0 .6 0 1.6.1 3.1 0 .1-.1.2-.3.2H4.6c-.2 0-.3-.1-.3-.2 0-1 .1-2.1.1-3.1v-7.9c0-1-.1-1.8-.2-2.4.9.1 1.6.1 2 .3.2 0 .3.1.3.3 0 .1 0 .2-.1.4-.1.1-.1.6-.1 1.5v2.3zM13.7 20c.8.1 2 .2 3.5.2h9c.1 0 .2.1.2.2V22c0 .2-.1.2-.2.2h-9.6l-2.4.2c-.2 0-.3-.1-.4-.3 0-.6-.1-1.2-.1-2.1zM29.5 14.6c1 .1 1.7.2 2 .3.2 0 .3.1.3.3 0 .1 0 .1-.1.2-.1.2-.2.8-.2 1.5v5.2c0 .2-.1.3-.3.3H30c-.2 0-.3-.1-.3-.2V17c0-1 0-1.8-.2-2.4zm.9 12c1.8-.6 3.1-1.3 3.9-2.3.7-.9 1.1-2.3 1.1-4.3v-3c0-1.2-.1-2-.2-2.6.9.1 1.6.2 2.1.4.1 0 .2.1.2.3 0 .1 0 .2-.1.3-.1.2-.1.8-.1 1.7v3c0 1.3-.1 2.4-.3 3.2-.2.8-.5 1.4-1 2-.4.6-1 1.1-1.7 1.5-.6.4-1.2.7-1.8 1-.1.1-.3.1-.3.1-.1 0-.3-.1-.4-.2-.5-.5-.9-.8-1.4-1.1zM40.9 20c.8.1 2 .2 3.5.2h9c.1 0 .2.1.2.2V22c0 .2-.1.2-.2.2h-9.5l-2.4.2c-.2 0-.3-.1-.4-.3-.1-.6-.1-1.2-.2-2.1zM57.6 20.6c.7.2 1.2.5 1.7.7.2.1.2.2.2.3 0 .1-.1.2-.2.3-.1.1-.3.3-.4.5-.5 1.1-1.1 2-1.8 2.7-.1.1-.2.2-.3.2-.1 0-.1 0-.2-.1-.5-.4-1-.6-1.4-.7.8-.9 1.5-1.7 1.9-2.6.3-.3.4-.8.5-1.3zm3.8-2.9V17c0-1.1-.1-1.9-.2-2.5.9.1 1.6.2 2 .2.2 0 .3.1.3.2s0 .2-.1.3c-.1.2-.2.7-.2 1.6v.8h2c.6 0 1.7 0 3.3-.1.1 0 .2.1.2.3V19c0 .2-.1.3-.2.3-1.7-.1-2.8-.1-3.3-.1h-1.9v6c0 .8-.3 1.3-.9 1.6-.6.3-1.3.5-2 .5-.2 0-.3-.1-.4-.3-.2-.6-.6-1-1.1-1.4 1.1 0 1.8-.1 2.2-.2.2-.1.4-.3.4-.7v-5.5H59c-1 0-1.9 0-2.8.1-.1 0-.2-.1-.2-.3 0-.8-.1-1.3-.1-1.5.9.1 2 .1 3 .1h2.5zm3.5 4c.2-.1.4-.3.7-.5.2-.2.4-.3.5-.4.1-.1.1-.1.2-.1s.2 0 .2.1c.7.6 1.5 1.6 2.3 2.9.1.1.1.2.1.2 0 .1-.1.2-.2.3-.2.2-.6.5-1.1.8-.1.1-.2.1-.2.1-.1 0-.1-.1-.2-.2-.6-1.2-1.4-2.3-2.3-3.2zm.5-6.6.8-.6h.1s.1 0 .1.1c.5.4 1 1 1.5 1.7v.1s0 .1-.1.1l-.5.5-.1.1s-.1 0-.1-.1c-.5-.8-1.1-1.4-1.7-1.9zm1.5-1.1.8-.6h.1s.1 0 .1.1c.6.5 1.1 1 1.5 1.6v.1c0 .1 0 .1-.1.2l-.6.5h-.1c-.1 0-.1 0-.1-.1-.4-.6-1-1.3-1.6-1.8zM71.2 20c.8.1 2 .2 3.5.2h9c.1 0 .2.1.2.2V22c0 .2-.1.2-.2.2h-9.5l-2.4.2c-.2 0-.3-.1-.4-.3-.1-.6-.2-1.2-.2-2.1zM90 18.8c2 .6 3.7 1.4 5.1 2.2.1.1.2.2.2.3v.1c-.2.5-.4 1-.7 1.4-.1.1-.1.2-.2.2s-.1 0-.2-.1c-1.5-1-2.9-1.6-4.2-2.1v3.5c0 .6 0 1.6.1 3.1 0 .1-.1.2-.3.2h-1.4c-.2 0-.3-.1-.3-.2 0-1 .1-2.1.1-3.1v-7.9c0-1-.1-1.8-.2-2.4.9.1 1.6.1 2 .3.2 0 .3.1.3.3 0 .1 0 .2-.1.4-.2.1-.2.6-.2 1.5v2.3zm2.9-3.4.8-.6h.1s.1 0 .1.1c.5.4 1.1 1 1.5 1.7v.1s0 .1-.1.1l-.7.5-.1.1s-.1 0-.1-.1c-.4-.8-1-1.4-1.5-1.9zm1.4-1 .8-.6h.1s.1 0 .1.1c.6.5 1.1 1 1.5 1.6v.1c0 .1 0 .1-.1.2l-.6.5H96c-.1 0-.1 0-.1-.1-.4-.7-.9-1.3-1.6-1.8zM101.7 13.8c.6 0 1.2.1 1.7.1.2 0 .2.1.2.2 0 0 0 .2-.1.4-.1.1-.1.4-.1.9v.5H106.2V17.2h-2.7v1.5H106.9v1.5H103.6v1.4h3c.1 0 0 .1 0 .1v4c0 .5-.1.8-.4 1-.2.2-.7.3-1.3.3-.3 0-.4 0-.5-.1 0 0-.1-.2-.1-.4-.1-.4-.2-.7-.4-1 .3 0 .5.1.7.1.2 0 .4-.1.4-.4V23h-1.4v5.1c0 .1-.1.2-.2.2h-1.3c-.1 0-.2-.1-.2-.2v-5.2h-1.3V27c0 .1-.1 0-.1 0h-1.6v-5.4H101.8v-1.4H98.3v-1.5c0-.1.1 0 .1 0H101.8v-1.5h-1.5c-.1.3-.3.6-.4.9-.1.2-.2.4-.3.4-.1 0-.2-.1-.4-.2-.3-.2-.7-.4-1-.5.6-.9 1-1.8 1.2-2.8 0-.1.1-.4.1-.8.5.1.9.2 1.4.3.2 0 .2.1.2.2s0 .2-.1.3c-.1.1-.1.2-.2.5l-.1.3h1v-.5c.1-.6.1-1.1 0-1.5zm5.6 1.2c.6 0 1.1.1 1.6.1.2 0 .2.1.2.2v.2c0 .1-.1.1-.1.2V24h-1.6V17.4c0-1 0-1.8-.1-2.4zm.9 11.3c.6.1 1.1.1 1.5.1.3 0 .5 0 .6-.1.1-.1.1-.2.1-.5v-9.7c0-1 0-1.7-.1-2.2.6 0 1.2 0 1.7.1.2 0 .3.1.3.2s0 .2-.1.3c-.1.2-.1.7-.1 1.6v10c0 .8-.2 1.4-.6 1.6-.2.2-.5.3-.9.3-.3.1-.8.1-1.4.1-.2 0-.4 0-.4-.1 0 0-.1-.2-.1-.4-.1-.5-.3-.9-.5-1.3zM114.1 19.9c1.3-1.3 2.4-3.1 3.2-5.3.1-.3.2-.7.3-1.1.8.2 1.4.4 1.5.5.2.1.3.2.3.2 0 .1-.1.2-.2.3-.1.1-.2.3-.4.7l-.9 2.1v10.9h-1.6V20c-.3.4-.7.9-1.2 1.5-.1.1-.2.2-.3.2-.1 0-.2-.1-.2-.3 0-.7-.2-1.1-.5-1.5zm4.3-.1c.7-.7 1.3-1.6 1.9-2.6.5-.8.8-1.6 1.1-2.4l.3-1.2c.7.1 1.2.3 1.6.4.2 0 .3.1.3.2s0 .2-.1.3c-.1.1-.3.4-.4.8-.2.5-.3.8-.5 1.2h6.4V18.1h-5V20h4V21.4h-4v2h3.8c.1 0 .2.1.2.2V25c0 .1-.1 0-.2 0H124v3.6h-1.6V18.3h-.6c-.6 1.1-1.3 2.1-1.9 2.9-.1.2-.2.3-.3.3-.1 0-.2-.1-.3-.3-.3-.8-.6-1.2-.9-1.4z"/></g></g></g><path id="長方形_1720-3" class="st0" d="M6.3 11h43.4v28.1H6.3z"/><g class="st2"><path class="st1" d="M1.6 22.9c0-8.1 4.7-14.7 11.7-14.7 5 0 8.1 3.1 8.1 8.5 0 8.1-4.7 14.7-11.7 14.7-5 0-8.1-3.2-8.1-8.5zm14.6-6.1c0-2.9-1.3-4.2-3.4-4.2-3.9 0-6 6-6 10.2 0 2.9 1.3 4.2 3.4 4.2 3.9 0 6-6 6-10.2zM42.8 26.3h-3.7l-.9 4.7h-5.1l1-4.7H22l.7-3.5L35.9 8.6h5.7L29.3 22.1h5.9l.8-4.2h4.8l-.8 4.2h3.7l-.9 4.2z"/></g></g></g></svg>