<svg version="1.1" id="レイヤー_1" xmlns="http://www.w3.org/2000/svg" x="0" y="0" viewBox="0 0 290.4 468.3" style="enable-background:new 0 0 290.4 468.3" xml:space="preserve"><style>.st0{fill:#fff}.st1{fill:#222}.st2{enable-background:new}</style><g id="modal_work_summary_sp003" transform="translate(17103.141 13879.152)"><g id="グループ_54934" transform="translate(-17102.084 -13879.152)"><g id="グループ_54859" transform="translate(9.084 17.059)"><path id="合体_31" class="st0" d="M0 80.3V0h280.2v80.3l-140.1 24.3L0 80.3z"/><path id="合体_31_-_アウトライン" class="st1" d="m140.1 101.5 137.1-23.8V3H3v74.7l137.1 23.8m0 3.1L0 80.3V0h280.2v80.3l-140.1 24.3z"/></g><g class="st2" id="グループ_54860"><path d="M12.6 14.7h-2.2V13.4h3.5v-1.2h-2.8V6H18.2c.1 0 0 .1 0 .1V12h-2.7v1.2h3.1c.1 0 .2.1.2.2v1.1c0 .1-.1.2-.2.2h-3.1v2.6c0 .1-.1 0-.1 0H14c-.1 0 0-.1 0-.1v-2.4h-1.4zm-.5-11.8c.3.6.7 1.2 1 2V5l-.2.2-1 .4c-.1 0-.2.1-.2.1s-.1-.1-.1-.2c-.2-.7-.5-1.4-.9-2v-.1c0-.1.1-.1.2-.1l.9-.4h.2c0-.1 0-.1.1 0zm.5 5.5H14V7.2h-1.4v1.2zm0 2.5H14V9.6h-1.4v1.3zm2.1-8.2c.3.6.6 1.3.8 2.1v.1s-.1.1-.2.1l-1 .3h-.2c-.1 0-.1-.1-.1-.2-.2-.7-.4-1.5-.8-2.2v-.1s.1-.1.2-.1l.9-.3h.1c.2.1.3.2.3.3zm2.1 4.5h-1.4v1.2h1.4V7.2zm0 3.7V9.6h-1.4v1.3h1.4zm-1-5.3c.4-.6.7-1.3 1-2 .1-.3.1-.6.2-.9.5.1 1 .3 1.5.5.1 0 .2.1.2.2s0 .2-.1.3c-.1.1-.2.2-.3.4-.4.7-.6 1.3-.9 1.6l-.2.2s-.1 0-.3-.1c-.4-.1-.7-.2-1.1-.2zm1.1 10.2c1.4-.7 2.6-1.6 3.7-2.8-.3-1.1-.5-2.5-.7-4.1l-1.1.2h-.1c-.1 0-.1 0-.1-.1l-.1-1.3v-.1c0-.1 0-.1.1-.1l1.2-.1c-.1-.9-.1-1.7-.1-2.4 0-1-.1-1.8-.2-2.3.6 0 1.2.1 1.7.1.2 0 .3.1.3.2s0 .2-.1.3c-.1.2-.1.7-.1 1.6v2.3l1.6-.2c.8-.1 1.4-.2 1.9-.3h.1c.1 0 .1.1.1.2l.1 1.2v.1c0 .1 0 .1-.1.1 0 0-.2 0-.6.1-.4 0-.8.1-1.3.2l-1.5.2.3 2.7c.1-.2.3-.5.5-.9.2-.5.4-.9.5-1.3l1.2.6c.2.1.2.2.2.3 0 .1-.1.2-.2.3-.1.1-.2.3-.4.7-.4.8-.9 1.6-1.4 2.3.4 1.3.8 1.9 1.1 1.9.1 0 .3-.2.3-.5.1-.3.1-.8.2-1.5.2.2.5.3.8.5.3.1.4.3.4.4 0 .1 0 .2-.1.4-.3 1.6-.8 2.4-1.5 2.4-1 0-1.8-.8-2.5-2.4-.8.9-1.8 1.6-2.8 2.3-.2.1-.3.2-.4.2-.1 0-.2-.1-.3-.4-.1-.5-.3-.8-.6-1zm6.3-12.5c.5.6 1 1.2 1.4 1.9 0 .1.1.1.1.1s-.1.1-.2.1l-.9.6c-.1.1-.1.1-.2.1 0 0-.1-.1-.1-.2-.4-.7-.8-1.3-1.3-1.9 0-.1-.1-.1-.1-.1 0-.1.1-.1.2-.2l.9-.5c.1 0 .1-.1.2-.1v.2zM41.5 10.2c-.2.3-.4.6-.5 1-.1.3-.2.4-.3.4-.1 0-.2 0-.4-.1-.1 0-.2-.1-.3-.1v5.8H38.4v-.7h-3.3v.7h-1.5c-.1 0 0-.1 0-.1v-5.5c-.2.1-.3.1-.4.1-.1 0-.2-.1-.3-.4-.1-.3-.3-.5-.5-.8v3.6h-1.2V13.3h-2.8v1.3h-1.1c-.1 0-.2-.1-.2-.2V3.8c0-.1.1-.2.2-.2h5.3c.1 0 0 .1 0 .1v3c1-.8 1.8-2 2.5-3.4-.1-.1-.1-.4 0-.8.6.1 1.1.2 1.5.3.1 0 .2.1.2.2s-.1.2-.2.3c-.1.1-.2.3-.3.5l-.2.4h2.6c.2 0 .3 0 .4-.1h.2c.1 0 .3.1.6.4.3.3.5.5.5.7 0 .1-.1.2-.2.3-.1 0-.2.3-.5.7-.6 1-1.2 1.8-1.9 2.5 1.2.6 2.3 1.1 3.7 1.5zM28.3 5v2.8h.8V5h-.8zm0 7h.8V9h-.8v3zm2.8-7h-.8v2.8h.8V5zm-.8 7h.8V9h-.8v3zm2.1-1.7c1.2-.4 2.4-1 3.3-1.8-.5-.5-.9-1.1-1.2-1.7-.3.3-.5.6-.8.9-.2.3-.3.3-.4.3-.1 0-.2-.1-.3-.3-.2-.2-.4-.4-.6-.7v3.3zm1.8.9h5.4c-1-.4-2-1-2.8-1.6-.7.6-1.6 1.2-2.6 1.6zm.9 1.5v2.4h3.3v-2.4h-3.3zm3.2-7.2h-2.9l-.1.1c.4.7.8 1.4 1.4 2 .7-.7 1.2-1.4 1.6-2.1zM42.3 6.3c.9-.8 1.6-1.7 2.1-2.8l.3-.9c.1 0 .6.1 1.5.2.2 0 .3.1.3.2s-.1.2-.2.3c-.1 0-.2.2-.3.4l-.1.3H49.6V5.2h-2c.2.3.4.7.6 1.2v.1s-.1.1-.2.1l-1.1.4h-.2c-.1 0-.1-.1-.1-.2-.1-.5-.3-1-.6-1.5h-.8c-.3.5-.7 1-1.2 1.6-.2.2-.3.3-.4.3-.1 0-.2-.1-.4-.3-.3-.3-.6-.5-.9-.6zM53 9.9h2.2c.1 0 .2.1.2.2v2.2c0 .5-.1.8-.4 1-.3.2-.8.3-1.7.3-.3 0-.4 0-.5-.1-.1 0-.1-.2-.1-.4-.1-.3-.2-.6-.3-.8h1c.2 0 .3 0 .4-.1 0-.1.1-.2.1-.3v-.8h-3.3v.8c.9.9 1.9 1.7 3.1 2.2 1 .5 2.2.9 3.6 1.2-.2.3-.5.6-.7 1.1-.1.3-.3.4-.3.4s-.2 0-.4-.1c-2.2-.7-4-1.8-5.3-3.2 0 .8 0 1.6.1 2.5V17.2H49c-.1 0-.2-.1-.2-.2v-.6c0-1 .1-2 .1-2.8-1.3 1.3-3 2.3-5.2 3.1-.2.1-.3.1-.4.1-.1 0-.2-.1-.4-.4-.2-.4-.4-.7-.7-.9 2.9-.8 5-2 6.5-3.6v-.8h-3v2.3c0 .1-.1.2-.2.2H44.1V9.8h4.5V9H42.6V7.7h6c0-.4 0-.8-.1-1.2.3 0 .8 0 1.5.1l-.2-.1c-.3-.2-.6-.4-.9-.5.7-.8 1.3-1.6 1.6-2.5.1-.2.2-.5.2-.9.4.1.9.1 1.4.2.2.1.2.1.2.2s-.1.2-.2.3c-.1 0-.1.2-.2.4 0 .1-.1.2-.1.3h4.7V5.2h-2.6c.2.3.4.7.6 1.2v.1c0 .1-.1.1-.2.1l-.7.4h-.2c-.1 0-.1-.1-.2-.2-.2-.6-.4-1.1-.7-1.5h-1c-.2.3-.5.7-.7 1-.1.2-.2.3-.2.3l.1.1c0 .1 0 .2-.1.3-.1.1-.1.3-.1.6h6.2V8.9h-6.2v.8H53zM63.6 8.8H61.2V7.4h9.3v1.5h-3.7V11h4V12.4h-4v2.7c.8.1 1.8.1 3.1.1.8 0 1.8 0 3.1-.1-.2.4-.3.7-.3 1.1 0 .3-.1.4-.1.5 0 0-.2.1-.4.1h-1.9c-2.8 0-4.8-.3-6-.8-.8-.3-1.5-1-2.2-2-.5 1-1.1 1.9-2 2.7-.2.2-.3.3-.4.3-.1 0-.2-.1-.3-.3-.3-.3-.6-.6-.9-.8 1.6-1.3 2.6-3 2.9-5.1.1-.5.1-.8.1-1l1.5.3c.2 0 .3.1.3.2s0 .2-.1.3c-.1.1-.1.3-.2.5-.1.4-.2.8-.3 1.3.3.7.7 1.1 1 1.5.4.3.8.6 1.4.8V8.8h-1.5zm6.7-4.5h2.1c.1 0 .2.1.2.2v3.4H71.1V5.7H60.8v2h-1.6V4.4c0-.1.1-.2.2-.2h5.5v-.1c0-.7 0-1.2-.1-1.5.5 0 1.1 0 1.7.1.2 0 .2.1.2.2s0 .2-.1.3c0 .1-.1.4-.1 1v.2h3.8z" transform="translate(106.281 55.69)"/></g><path id="長方形_1718" class="st0" d="M8.5 11h34.9v28.1H8.5z"/><g class="st2"><path class="st1" d="M1.4 22.9c0-8.1 4.7-14.7 11.7-14.7 5 0 8.1 3.1 8.1 8.5 0 8.1-4.7 14.7-11.7 14.7-4.9 0-8.1-3.2-8.1-8.5zM16 16.8c0-2.9-1.3-4.2-3.4-4.2-3.9 0-6 6-6 10.2 0 2.9 1.3 4.2 3.4 4.2 4 0 6-6 6-10.2zM34.1 8.6 29.6 31h-5.2L28 12.8h-4.5l.8-4.2h9.8z"/></g></g><g id="グループ_54935" transform="translate(-17101.025 -13777.092)"><path id="前面オブジェクトで型抜き_50" class="st0" d="M147.1 141.7 7 117.4V17.1l140.1 24.3 140.1-24.3v100.3l-140.1 24.3z"/><path id="前面オブジェクトで型抜き_50_-_アウトライン" class="st1" d="m147.1 138.6 137.1-23.8V20.6L147.1 44.4 10 20.6v94.3l137.1 23.7m0 3.1L7 117.4V17.1l140.1 24.3 140.1-24.3v100.3l-140.1 24.3z"/><g id="グループ_54863" transform="translate(80.901 65.72)"><g class="st2" id="グループ_54862"><path d="M52.8 18.4h4V19.8H51V18.5h.1l1.7-.1zm12.8 10.2c-.3.4-.5.7-.7 1.1-.1.3-.2.4-.3.4 0 0-.2 0-.4-.1-1.3-.5-2.4-1.1-3.3-1.9-.9.8-2 1.4-3.3 1.9-.2.1-.3.1-.4.1-.1 0-.2-.1-.3-.4-.2-.4-.5-.7-.8-.9V29.8h-1.3c-.1 0 0-.1 0-.1v-.5h-1.7v1H51.7V25H56.4v3.8c1.3-.4 2.5-1 3.6-1.8-.8-1-1.5-2.1-1.9-3.3H57.2V22.5c0-.1.1-.2.2-.2h5.7c.1 0 .2 0 .4-.1.1-.1.2-.1.2-.1.1 0 .3.1.6.4.3.3.5.6.5.7 0 .1-.1.2-.2.3-.1.1-.3.3-.4.5-.5 1.1-1.1 2.1-1.9 3 .8.8 1.9 1.3 3.3 1.6zM53.2 16.2h3.1V17.6h-4.8c-.1 0 0-.1 0-.1V16.3h.1l1.6-.1zm.1 4.5H56.1V21.9H51.7v-1.1c0-.1.1-.2.2-.2l1.4.1zm0 2.2H56.1v1.3H51.7v-1.3h1.6zm1.5 3.5h-1.7V28h1.7v-1.6zm1.8-5.4c.6-.4 1-.9 1.3-1.5.2-.5.4-1.2.4-2v-1.3h4.8c.1 0 0 .1 0 .1v3c0 .3 0 .5.1.5.1.1.2.1.5.1.2 0 .3-.1.4-.2.1-.1.1-.6.2-1.4.3.2.6.3.9.4.2.1.3.1.3.1s.1.1.1.2v.2c0 .9-.2 1.4-.6 1.7-.3.2-.8.4-1.6.4-.7 0-1.1-.1-1.4-.2-.3-.2-.4-.6-.4-1.1v-2.4h-1.7c0 1-.2 1.9-.5 2.6-.2.5-.6 1-1.1 1.5-.2.2-.3.3-.4.3-.1 0-.2-.1-.4-.3-.3-.3-.6-.6-.9-.7zm5.9 2.7h-3c.4.9.8 1.7 1.5 2.3.6-.6 1.1-1.4 1.5-2.3zM68.8 18.4h4.6c.1 0 .2.1.2.2v1.3H67V18.5h.1l1.7-.1zM73 29.8v.1H71.5v-.6h-2v1H68V25h5.4c.1 0 0 .1 0 .1v2.3l-.4 2.4zm-3.6-13.6H73c.1 0 0 .1 0 .1V17.5H67.8V16.2h1.6zm.1 4.5H72.8V21.9H67.9c-.1 0 0-.1 0-.1v-1.1h1.6zm0 2.1H72.8V24H67.9c-.1 0 0-.1 0-.1v-1.1h1.6zm1.8 3.6h-2V28h2v-1.6zm5.2-10.8c.7 0 1.3.1 1.8.1.2 0 .3.1.3.2v.4c-.1.2-.1.8-.1 1.8V21h3.2v1.6h-3.2v7.8h-1.6v-7.9h-3.1c-.1 0 0-.1 0-.1V20.8h3.1V18c-.3-1-.3-1.8-.4-2.4z"/></g></g><path id="長方形_1720" class="st0" d="M4.2 11h43.4v28.1H4.2z"/><g class="st2"><path class="st1" d="M1.3 22.9C1.3 14.8 6 8.2 13 8.2c5 0 8.1 3.1 8.1 8.5 0 8.1-4.7 14.7-11.7 14.7-5 0-8.1-3.2-8.1-8.5zm14.5-6.1c0-2.9-1.3-4.2-3.4-4.2-3.9 0-6 6-6 10.2 0 2.9 1.3 4.2 3.4 4.2 4 0 6-6 6-10.2zM29 26.8h9.4l-.8 4.2h-17l.7-3.4 10.2-8c2.5-2 3.3-3.2 3.3-4.7s-1.1-2.5-3.3-2.5c-1.8 0-3.5.8-4.8 2.3l-3.5-2.5c1.8-2.5 5.2-4.1 9-4.1 4.7 0 7.8 2.5 7.8 6 0 2.7-1.2 4.9-5.2 7.9L29 26.8z"/></g></g><g id="グループ_54936" transform="translate(-17101.025 -13654.676)"><path id="前面オブジェクトで型抜き_50-2" class="st0" d="M147.1 141.7 7 117.4V17.1l140.1 24.3 140.1-24.3v100.3l-140.1 24.3z"/><path id="前面オブジェクトで型抜き_50_-_アウトライン-2" class="st1" d="m147.1 138.6 137.1-23.8V20.6L147.1 44.4 10 20.6v94.3l137.1 23.7m0 3.1L7 117.4V17.1l140.1 24.3 140.1-24.3v100.3l-140.1 24.3z"/><g id="グループ_54863-2" transform="translate(97.822 65.72)"><g id="グループ_54862-2"><g class="st2"><path d="M9.1 9.1c1.5-1.7 2.6-3.5 3.2-5.4.1-.4.2-.7.2-1.1.7.2 1.2.3 1.6.5.2.1.3.1.3.2s-.1.2-.2.3c-.1.1-.2.3-.3.6-.3.8-.7 1.6-1.1 2.4v10.7h-1.7v-8c-.3.5-.7.9-1.1 1.4-.1.1-.2.2-.3.2-.1 0-.1-.1-.2-.3 0-.6-.2-1.1-.4-1.5zm7.2 7.4H14V15c0-.1.1-.2.2-.2h3.6V9.3H13.9V7.8H17.8V5.2c0-1.1 0-2-.1-2.4.7 0 1.3.1 1.8.1.2 0 .3.1.3.2s0 .2-.1.3c-.1.2-.1.8-.1 1.8v2.5H24v1.6h-4.4v5.6H23.7v1.6h-7.4zM32.8 10.5H30.4c-.1 0 0-.1 0-.1v-.1c-.2.3-.3.6-.4.8-.1.2-.1.3-.2.3s-.1-.1-.2-.3c-.3-.6-.6-1.2-.8-2 0 1.8 0 3.7.1 5.7V17.2H27.4V16c0-2.1.1-4.1.1-5.9-.3 1.2-.8 2.3-1.3 3.2-.1.2-.2.3-.2.3-.1 0-.1-.1-.2-.3-.2-.5-.3-.9-.6-1.2 1.1-1.5 1.8-3.2 2.2-5h-1.9V5.7h1.8v-1c0-.9 0-1.7-.1-2.1.6 0 1.1.1 1.6.1.2.1.2.1.2.2s0 .2-.1.3c-.1.2-.1.7-.1 1.5v1H30.2v1.5H28.8c.4 1.1.9 2.1 1.5 3v-1H34v-1H31.2V6.9H34V6h-3.1c-.1 0-.2-.1-.2-.2V4.7h1.8c-.2-.5-.5-.9-.7-1.3v-.1s.1-.1.2-.1l1-.4h.2s.1 0 .1.1c.3.4.5.8.8 1.3v.1s-.1.1-.2.1l-.9.3h2.4l.7-1.4c.1-.2.1-.4.2-.7.5.1 1 .2 1.4.3.2.1.3.1.3.2s-.1.2-.2.2c-.1.1-.2.2-.2.3-.2.4-.4.7-.5 1H37 39.3V5.8h-.2L37 6h-1.5v1h3.2v1.3h-3.2v1h4.4V10.6H35.8c.3.6.6 1.2 1 1.8.3-.3.7-.6 1-1 .2-.2.3-.4.4-.6.4.3.7.5 1 .8.1.1.2.2.2.3 0 .1-.1.2-.2.2s-.3.1-.5.3c-.4.4-.8.7-1.1 1 .7.7 1.5 1.3 2.5 1.9-.3.3-.6.6-.8.9-.1.2-.2.3-.3.3l-.4-.2c-1.5-1-2.6-2.4-3.3-4V15.4c0 .7-.2 1.1-.5 1.4-.3.2-.9.3-1.7.3-.3 0-.4 0-.5-.1 0 0-.1-.2-.1-.4-.1-.4-.2-.7-.4-1 .4 0 .8.1 1.1.1.2 0 .4 0 .5-.1.1-.1.1-.2.1-.4V14c-1 .6-1.9 1.1-2.9 1.6-.3.1-.4.2-.5.3-.1.1-.1.1-.2.1s-.1-.1-.2-.2c-.2-.4-.4-.9-.6-1.4.4-.1.7-.2.9-.3 1.1-.5 2.3-1.1 3.4-1.8v-2h-.9zm-2.2 1.2c-.1 0-.1-.1-.1-.1s0-.1.1-.2l.6-.6c.1-.1.1-.1.2-.1 0 0 .1 0 .1.1.5.3 1 .7 1.4 1.2 0 .1.1.1.1.1s0 .1-.1.2l-.6.7c-.1.1-.2.1-.2.1s-.1 0-.1-.1c-.4-.4-.9-.9-1.4-1.3zM43.1 7.1h-1.6V5.8c0-.1.1-.2.2-.2h1.8v-.8c0-.9 0-1.7-.1-2.1.6 0 1.1.1 1.5.1.2 0 .3.1.3.2s0 .2-.1.3c-.1.2-.1.7-.1 1.5v1h1.3v.9c1.4-.9 2.6-1.9 3.4-3.2.2-.4.4-.7.5-1 .6.1 1.1.2 1.5.3.1 0 .2.1.2.2s0 .2-.1.2l-.1.1c1.2 1.4 2.7 2.5 4.7 3.3-.2.3-.4.6-.6 1-.1.3-.2.4-.3.4-.1 0-.2 0-.4-.1-.6-.3-1.1-.6-1.5-.9V7.8h-1.9v1.1H55V13c0 .1-.1 0-.2 0H52c.9 1.3 2.3 2.2 4.2 2.8-.3.3-.5.7-.6 1.1-.1.3-.2.4-.3.4-.1 0-.2 0-.4-.1-1.9-.8-3.2-1.9-4-3.3-.7 1.5-2 2.6-3.9 3.3-.2.1-.3.1-.4.1-.1 0-.2-.1-.3-.4-.2-.3-.4-.6-.7-.9 2.1-.6 3.4-1.5 4-2.9h-2.5v-2.8L47 9v-.2c0-.1.1 0 .1 0H50V7.7h-1.7V7c-.4.3-.8.6-1.3.9-.1.1-.2.1-.3.1-.1 0-.2-.1-.3-.4-.1-.2-.2-.4-.3-.5H44.9c.4 1.1 1 2.1 1.7 2.9-.2.3-.4.7-.5 1-.1.2-.1.3-.2.3s-.1-.1-.2-.2c-.4-.7-.7-1.3-.9-2 0 1.8 0 3.7.1 5.7V17.1h-1.5V15.9c0-2.1.1-4.1.1-5.9-.3 1.2-.8 2.3-1.3 3.2-.1.2-.2.3-.2.3-.1 0-.1-.1-.2-.3-.2-.5-.3-.9-.5-1.2 1.1-1.5 1.8-3.2 2.2-5h-.4zm7 3h-1.7v1.7H50c0-.5 0-1.1.1-1.7zm-1.2-3.6h4c-.9-.6-1.6-1.3-2.2-2.1-.4.7-1 1.4-1.8 2.1zm4.5 5.3v-1.7h-1.9c0 .8-.1 1.3-.1 1.7h2zM59.3 5.4h4.5V6.8h-6.3V5.5c0-.1.1-.2.2-.2l1.6.1zm4 11.4v.1h-1.5c-.1 0 0-.1 0-.1v-.5H60v1c0 .1-.1 0-.1 0h-1.4V12h5c.1 0 0 .1 0 .1v2.3l-.2 2.4zM59.9 3.2h3.5V4.5H58.3V3.3h.1l1.5-.1zm.1 4.5H63.1V8.9h-4.4c-.1 0-.2-.1-.2-.2v-1c0-.1.1-.2.2-.2l1.3.2zm0 2.1H63.1V11h-4.4c-.1 0-.2-.1-.2-.2v-1c0-.1.1-.2.2-.2l1.3.2zm1.7 3.6h-1.8V15h1.8v-1.6zm4.8-5.9h-2.1V5.9h4.1v-1c0-1 0-1.7-.1-2.3.7 0 1.2.1 1.7.1.2 0 .2.1.2.2s0 .2-.1.3c-.1.1-.1.7-.1 1.6v1.1h1.8c.1 0 .2.1.2.2v1.5H70.2v7.7c0 .5 0 .8-.1 1-.1.2-.2.4-.4.5-.3.2-1.1.4-2.5.4-.3 0-.4 0-.5-.1 0 0-.1-.2-.1-.4-.1-.5-.3-.9-.5-1.2.7.1 1.3.1 1.8.1.2 0 .4 0 .5-.1.1-.1.1-.2.1-.4V7.5h-2zm-.7 1.4c.6.9 1.2 1.9 1.6 3v.1c0 .1-.1.1-.2.2l-1 .5c-.1.1-.2.1-.2.1s-.1 0-.1-.1c-.4-1.1-.9-2.1-1.5-3.1 0-.1-.1-.1-.1-.1s.1-.1.2-.1l1-.5c.1 0 .1-.1.2-.1 0-.1.1 0 .1.1zM85 2.3l-6.5 15.2h-1L84 2.3h1z"/></g><g class="st2"><path d="M2.3 33s.2-.3.5-.9c.1-.2.2-.4.3-.5l.2-.2h.1c1.1.4 2.1.9 3.1 1.6l.2.2s0 .1-.1.2c-.1.3-.4.7-.7 1.2l-.2.2s-.1 0-.2-.1c-.9-.6-2-1.2-3.2-1.7zm1.2 5.4c.7-.1 1.4-.4 2.2-.8 1.7-.9 3.2-1.8 4.4-2.8 1.7-1.3 3.2-2.8 4.6-4.5.1.5.2 1.1.5 1.8.1.1.1.2.1.3 0 .1-.1.2-.2.4-1.2 1.3-2.6 2.5-4.1 3.7-1.2.9-2.8 1.9-4.8 3-.6.3-.9.5-.9.5-.1.1-.2.1-.3.1-.1 0-.2-.1-.3-.2-.3-.2-.7-.7-1.2-1.5zm.7-9.1L5 28c.1-.1.1-.2.2-.2 0 0 .1 0 .2.1 1.2.5 2.2 1.1 3 1.8.1.1.1.1.1.2s0 .1-.1.2c-.3.6-.6 1-.8 1.2 0 .1-.1.1-.2.1s-.1 0-.2-.1c-.9-.9-1.9-1.5-3-2zM25.3 34.1c1.5 1.1 3 2.4 4.4 3.9.1.1.1.2.1.2s0 .1-.1.2c-.3.4-.7.8-1.1 1.1-.1.1-.1.1-.2.1s-.1 0-.2-.1c-1.2-1.4-2.6-2.7-4.2-4-1.7 1.7-3.5 3.2-5.4 4.2-.2.1-.3.1-.4.1-.1 0-.2 0-.3-.1-.3-.4-.7-.7-1.3-1 1.3-.7 2.4-1.3 3.3-2 .8-.6 1.5-1.2 2.3-2.1 1.1-1.2 2.1-2.5 3-4h-4.1c-.8 0-1.7 0-2.5.1-.1 0-.2-.1-.2-.3-.1-.4-.1-1-.1-1.7.6 0 1.5.1 2.7.1h4.4c.6 0 .9 0 1.1-.1.1 0 .1-.1.2-.1s.1 0 .3.1c.3.3.7.6 1 1.1.1.1.1.2.1.2 0 .1-.1.2-.2.3-.2.2-.4.4-.6.7-.5 1.2-1.2 2.2-2 3.1zM39.8 33.5c-.1 1-.2 1.8-.3 2.4-.1.6-.3 1.1-.6 1.7-.3.7-.8 1.3-1.4 1.9-.5.5-1 .9-1.5 1.2-.2.1-.4.2-.5.2-.1 0-.2-.1-.3-.2-.3-.3-.8-.6-1.4-.9.9-.5 1.5-.9 2-1.4.5-.4.8-.9 1.2-1.5.3-.5.5-1.1.6-1.6.1-.5.2-1 .2-1.8h-3c-.5 0-1.3 0-2.4.1-.1 0-.2-.1-.2-.3-.1-.5-.1-1-.1-1.5.6.1 1.5.1 2.7.1H42c1.1 0 2.2 0 3.1-.1.1 0 .2.1.2.3v1.2c0 .2-.1.3-.2.3-1.1 0-2.1-.1-3-.1h-2.3zM34 28c.9.1 1.8.1 2.7.1h3.6c1.1 0 2 0 2.7-.1.1 0 .2.1.2.3v1.2c0 .2-.1.3-.2.3H36.7c-.3 0-1.1 0-2.3.1-.2 0-.3-.1-.3-.3 0-.1 0-.4-.1-.8V28zM52.3 27.4c1.1.3 1.8.6 2.2.8.1.1.2.2.2.3 0 .1-.1.2-.2.3-.2.2-.4.7-.6 1.3-1.2 3.4-2.2 5.8-2.8 7.2 2.4-.2 4.3-.4 5.6-.6-.5-1-1.1-1.8-1.8-2.6l1.4-.8h.1c.1 0 .2 0 .2.1 1.3 1.5 2.3 3.2 3.2 5.2 0 .1.1.1.1.2s-.1.2-.2.3c-.3.2-.7.4-1.2.7h-.2c-.1 0-.2-.1-.2-.2-.3-.7-.5-1.1-.6-1.3-2 .3-4.5.6-7.6.9-.9.1-1.6.2-1.9.4h-.2c-.1 0-.2-.1-.3-.2-.1-.3-.3-.9-.6-2.1h2c1.1-2.7 2-5.3 2.8-7.9.5-.7.6-1.4.6-2zM63.4 31.2H61.8c-.1 0 0-.1 0-.1V29.9h1.8v-1c0-.9 0-1.7-.1-2.1.6 0 1.1.1 1.5.1.2 0 .3.1.3.2s0 .2-.1.3c-.1.2-.1.7-.1 1.5V30h1.3V31.4c0 .1-.1 0-.1 0H65.1c.4 1.1 1 2.1 1.7 3.1-.2.3-.4.6-.6 1.1-.1.2-.1.3-.2.3s-.1-.1-.2-.3c-.3-.6-.6-1.3-.8-2 0 1.8 0 3.6.1 5.6V41.5h-1.5V40.3c0-2.1.1-4 .1-5.8-.3 1.2-.8 2.3-1.4 3.3-.1.2-.2.3-.2.3-.1 0-.1-.1-.2-.3-.2-.5-.3-.9-.5-1.2 1.1-1.5 1.8-3.2 2.2-5h-.2zm9.7 8.6c.2 0 .4 0 .4-.1.1-.1.1-.2.1-.3v-.9h-5.1V41.3H67.1v-2.6h-1v-1.1h1V33.8h3.2V33H66.4v-1.1H68.7v-.8H67.2V29.9h1.6V29h-1.9v-1.1h2c0-.6 0-1-.1-1.3.7 0 1.2.1 1.5.1.2 0 .2.1.2.1 0 .1 0 .2-.1.3-.1.1-.1.4-.1.8H72c0-.6 0-1-.1-1.3.7 0 1.2.1 1.5.1.2 0 .3.1.3.1 0 .1 0 .2-.1.3-.1.1-.1.4-.1.8h2.6V29h-2.6v.8h2.1v1h-2.1v.8H76.4v1.1h-4.5v.8h3.5c.1 0 0 .1 0 .1v3.5h1.2v1.1h-1.2v1c0 .6-.1 1.1-.4 1.3-.2.1-.4.2-.7.3-.3 0-.7.1-1.3.1-.3 0-.4 0-.5-.1 0 0-.1-.2-.1-.4-.1-.4-.2-.6-.4-.9.3.3.7.3 1.1.3zm-4.6-4.3h1.7v-.8h-1.7v.8zm0 1.9h1.7v-.9h-1.7v.9zm1.6-7.6H72V29h-1.9v.8zm0 1.9H72v-.8h-1.9v.8zm3.5 3h-1.9v.8h1.9v-.8zm-1.9 2.7h1.9v-.9h-1.9v.9zM77.6 29.9c.9-.8 1.6-1.6 2.1-2.6.1-.2.2-.5.3-.8.6.1 1.1.2 1.4.2.2 0 .2.1.2.2s0 .1-.1.2-.2.2-.2.4c0 0 0 .1-.1.2 0 .1-.1.1-.1.1H84.9V29c.4-.6.8-1.1 1-1.7.1-.3.2-.5.3-.8.5.1 1 .1 1.3.2.2 0 .2.1.2.2s0 .1-.1.2-.1.2-.2.4l-.1.3H92.2v1.4H89.5c.1.2.3.5.5.8v.1c0 .1-.1.1-.2.1l-1 .2h-.2c-.1 0-.1-.1-.2-.2-.1-.4-.3-.8-.5-1.1h-1.3c-.2.3-.5.7-.9 1.2l-.3.3c-.1 0-.2-.1-.4-.3-.2-.2-.5-.4-.7-.5.2-.2.4-.4.5-.6H83c.1.1.2.5.5.9v.1c0 .1-.1.1-.2.1l-1 .2h-.2c-.1 0-.1-.1-.1-.2-.1-.4-.3-.8-.5-1.2h-1.1c-.4.6-.8 1-1.2 1.5l-.3.3h4.9v1.3H82.1v1.4c.6-.1 1.2-.3 1.8-.5-.1.3-.1.5-.1.8 0 .3 0 .4-.1.5 0 0-.2.1-.4.1-1.1.3-2.3.6-3.7.9-.3.1-.4.1-.5.2-.1.1-.2.1-.3.1-.1 0-.2-.1-.2-.2-.1-.4-.3-.8-.4-1.3.6-.1 1.1-.1 1.5-.2l.9-.1v-1.7h-1.9V31c0-.1.1-.2.2-.2-.1 0-.2-.1-.3-.3-.5-.3-.8-.5-1-.6zm9.5 2.8c.5.4.9.9 1.3 1.4 0 .1.1.1.1.1l-.2.2-.6.5c-.1.1-.1.1-.2.1 0 0-.1 0-.1-.1-.4-.6-.8-1-1.3-1.4-.1 0-.1-.1-.1-.1-.2.8-.6 1.4-1.2 1.9.2 0 .5 0 .9.1.2 0 .2.1.2.2 0 0 0 .1-.1.3 0 .2-.1.3-.1.5h6c.1 0 .2.1.2.2v1.2H87.1c1.2.9 3 1.5 5.4 2-.2.3-.4.6-.6 1-.1.3-.3.4-.4.4 0 0-.2 0-.4-.1-2.2-.6-4-1.5-5.4-2.8l.1 3v.1h-1.5c-.1 0-.2-.1-.2-.2v-3c-1.3 1.2-3 2.1-5.2 2.7-.2 0-.3.1-.4.1-.1 0-.2-.1-.4-.4-.2-.4-.4-.7-.6-.9 2.2-.5 4-1.2 5.2-2.1h-4.6v-1.1c0-.1.1-.2.2-.2h5.8v-.7l-.3-.3c-.3-.3-.5-.5-.8-.6.8-.4 1.3-.8 1.5-1.3.2-.4.3-1.1.3-1.9V30.6H90v2.7c0 .3 0 .5.1.6.1.1.2.1.4.1s.4-.1.5-.2c.1-.1.1-.6.2-1.4.2.1.5.3.8.4.2.1.3.1.3.1s.1.1.1.2v.2c-.1.8-.2 1.4-.5 1.6-.3.3-.8.4-1.6.4-.6 0-1.1-.1-1.3-.2-.3-.2-.4-.5-.4-1v-2.3h-2.4c0 .5-.1 1-.1 1.4l.1-.1.6-.5c.1-.1.1-.1.2-.1 0 .1 0 .1.1.2z"/></g></g></g><path id="長方形_1720-2" class="st0" d="M4.2 11h43.4v28.1H4.2z"/><g class="st2"><path class="st1" d="M1.3 22.9C1.3 14.8 6 8.2 13 8.2c5 0 8.1 3.1 8.1 8.5 0 8.1-4.7 14.7-11.7 14.7-5 0-8.1-3.2-8.1-8.5zm14.6-6.1c0-2.9-1.3-4.2-3.4-4.2-3.9 0-6 6-6 10.2 0 2.9 1.3 4.2 3.4 4.2 3.9 0 6-6 6-10.2zM40.1 12l-6.3 5.9c3.1.7 4.9 2.8 4.9 5.7 0 4.6-4.3 7.9-10.4 7.9-3.3 0-6.3-.9-8.2-2.6l2.5-3.8c1.5 1.3 3.7 2 6 2 3.1 0 4.8-1.2 4.8-3.2 0-1.6-1.2-2.4-3.7-2.4h-2.4l.7-3.4 5.6-5.2h-9.5l.9-4.2h15.7l-.6 3.3z"/></g></g><g id="グループ_54937" transform="translate(-17103.141 -13531.256)"><path id="前面オブジェクトで型抜き_50-3" class="st0" d="M289.4 120.4H9.1V17.1l140.1 24.3 140.1-24.3.1 103.3z"/><path id="前面オブジェクトで型抜き_50_-_アウトライン-3" class="st1" d="M286.4 117.4V20.6L149.3 44.4 12.1 20.6v96.8h274.3m3 3H9.1V17.1l140.1 24.3 140.1-24.3.1 103.3z"/><g id="グループ_54863-3" transform="translate(83.017 72.744)"><g class="st2" id="グループ_54862-3"><path d="M13.5 7h3c.1 0 .2.1.2.3v1.2c0 .2-.1.3-.2.3H13.4c-.1 1.2-.2 2.2-.4 3-.2.7-.5 1.3-.8 1.9-.8 1.3-2 2.3-3.8 3-.2.1-.4.1-.5.1-.1 0-.2-.1-.3-.2-.4-.4-.9-.8-1.3-1 1.2-.4 2.1-.8 2.8-1.3.6-.4 1.1-.9 1.5-1.6.3-.5.6-1.1.7-1.8.1-.6.2-1.3.2-2.3H8.3v3.2c0 .1-.1.2-.3.2H6.6c-.2 0-.3-.1-.3-.2.1-.9.1-1.8.1-2.6v-.5H6c-.9 0-1.8 0-2.6.1-.1 0-.2-.1-.2-.3 0-.2-.1-.7-.1-1.5h3.4V5.8c0-.8-.1-1.6-.2-2.4 1.1.1 1.7.2 2 .2.2 0 .2.1.2.2s0 .2-.1.3c-.1.4-.1.9-.1 1.7V7h3.4V5.1c0-.8 0-1.4-.1-1.9 1 .1 1.6.2 1.9.3.2 0 .3.1.3.2s0 .2-.1.3c-.1.2-.1.7-.1 1.4V7zM18.8 9c.8.1 2 .2 3.5.2h9c.1 0 .2.1.2.2V11c0 .2-.1.2-.2.2h-9.5l-2.4.2c-.2 0-.3-.1-.4-.3-.1-.6-.2-1.2-.2-2.1zM36.6 8.7c1.5-.5 2.8-1 3.9-1.5.8-.4 1.3-.8 1.7-1.2.4.4.9.8 1.3 1.4.1.1.1.2.1.3 0 .1-.1.2-.3.3-.2.1-.7.2-1.3.5-1.5.7-3.4 1.3-5.5 2v2.1c0 .4 0 .7.1.8.1.1.2.2.4.3.4.1 1.1.2 2 .2 1.4 0 2.9-.1 4.5-.4h.1c.1 0 .2.1.2.2.1.6.1 1.1.1 1.4 0 .2-.1.3-.3.3-1.6.2-3.1.3-4.8.3-1.4 0-2.4-.1-3-.4-.8-.3-1.1-1.1-1.1-2.4V7.1c0-1.3-.1-2.3-.2-2.9.9.1 1.6.2 2 .3.2 0 .3.1.3.3 0 .1 0 .2-.1.3-.1.2-.2.7-.2 1.4v2.2zm5.8-4 .8-.6h.1s.1 0 .1.1c.5.4 1.1 1 1.5 1.7V6c.1 0 .1.1.1.1l-.7.5h-.1c-.1 0-.1 0-.1-.1-.6-.7-1.1-1.3-1.7-1.8zm1.5-1.1.8-.6h.1s.1 0 .1.1c.6.5 1.1 1 1.5 1.6v.1c0 .1 0 .1-.1.2l-.6.5h-.1c-.1 0-.1 0-.1-.1-.5-.6-1-1.3-1.6-1.8zM56.2 10.1c1.5 1.1 3 2.4 4.4 3.9.1.1.1.2.1.2s0 .1-.1.2c-.3.4-.7.8-1.1 1.1-.1.1-.1.1-.2.1s-.1 0-.2-.1c-1.2-1.4-2.6-2.7-4.2-4-1.7 1.7-3.5 3.2-5.4 4.2-.2.1-.3.1-.4.1-.1 0-.2 0-.3-.1-.3-.4-.7-.7-1.3-1 1.3-.7 2.4-1.3 3.3-2 .8-.6 1.5-1.2 2.3-2.1 1.1-1.2 2.1-2.5 3-4H52c-.8 0-1.7 0-2.5.1-.1 0-.2-.1-.2-.3-.1-.4-.1-1-.1-1.7.6 0 1.5.1 2.7.1h4.4c.6 0 .9 0 1.1-.1.1 0 .1-.1.2-.1s.1 0 .3.1c.3.3.7.6 1 1.1.1.2.1.3.1.3 0 .1-.1.2-.2.3-.2.2-.4.4-.6.7-.6 1.1-1.3 2.1-2 3zM64.2 3.6c1 .1 1.7.2 2 .3.2 0 .3.1.3.3 0 .1 0 .1-.1.2-.1.2-.2.8-.2 1.5v5.2c0 .2-.1.3-.3.3h-1.3c-.2 0-.3-.1-.3-.2V6c.1-1 0-1.8-.1-2.4zm.8 12c1.8-.6 3.1-1.3 3.9-2.3.7-.9 1.1-2.3 1.1-4.3V6c0-1.2-.1-2-.2-2.6.9.1 1.6.2 2.1.4.1 0 .2.1.2.3 0 .1 0 .2-.1.3 0 .1-.1.7-.1 1.6v3c0 1.3-.1 2.4-.3 3.2-.2.8-.5 1.4-1 2-.4.6-1 1.1-1.7 1.5-.6.4-1.2.7-1.8 1-.1.1-.3.1-.3.1-.1 0-.3-.1-.4-.2-.4-.4-.9-.7-1.4-1zM76.7 3.6c1 .1 1.7.2 2 .3.2.1.3.2.3.3 0 .1 0 .1-.1.2-.1.2-.2.8-.2 1.5v5.2c0 .2-.1.3-.3.3h-1.3c-.2 0-.3-.1-.3-.2V6c.1-1 0-1.8-.1-2.4zm.8 12c1.8-.6 3.1-1.3 3.9-2.3.7-.9 1.1-2.3 1.1-4.3V6c0-1.2-.1-2-.2-2.6.9.1 1.6.2 2.1.4.1 0 .2.1.2.3 0 .1 0 .2-.1.3-.1.2-.1.8-.1 1.7v3c0 1.3-.1 2.4-.3 3.2-.2.8-.5 1.4-1 2-.4.6-1 1.1-1.7 1.5-.6.4-1.2.7-1.8 1-.1.1-.3.1-.3.1-.1 0-.3-.1-.4-.2-.4-.5-.9-.8-1.4-1.1zM88.1 9c.8.1 2 .2 3.5.2h9c.1 0 .2.1.2.2V11c0 .2-.1.2-.2.2H91l-2.4.2c-.2 0-.3-.1-.4-.3 0-.6-.1-1.2-.1-2.1zM110.8 10.1c1.5 1.1 3 2.4 4.4 3.9.1.1.1.2.1.2s0 .1-.1.2c-.3.4-.7.8-1.1 1.1-.1.1-.1.1-.2.1s-.1 0-.2-.1c-1.2-1.4-2.6-2.7-4.2-4-1.7 1.7-3.5 3.2-5.4 4.2-.2.1-.3.1-.4.1-.1 0-.2 0-.3-.1-.3-.4-.7-.7-1.3-1 1.3-.7 2.4-1.3 3.3-2 .8-.6 1.5-1.2 2.3-2.1 1.1-1.2 2.1-2.5 3-4h-4.1c-.8 0-1.7 0-2.5.1-.1 0-.2-.1-.2-.3-.1-.4-.1-1-.1-1.7.6 0 1.5.1 2.7.1h4.4c.6 0 .9 0 1.1-.1.1 0 .1-.1.2-.1s.1 0 .3.1c.3.3.7.6 1 1.1.1.1.1.2.1.2 0 .1-.1.2-.2.3-.2.2-.4.4-.6.7-.5 1.2-1.2 2.2-2 3.1z"/></g></g><path id="長方形_1720-3" class="st0" d="M6.3 11h43.4v28.1H6.3z"/><g class="st2"><path class="st1" d="M1.6 22.9c0-8.1 4.7-14.7 11.7-14.7 5 0 8.1 3.1 8.1 8.5 0 8.1-4.7 14.7-11.7 14.7-5 0-8.1-3.2-8.1-8.5zm14.6-6.1c0-2.9-1.3-4.2-3.4-4.2-3.9 0-6 6-6 10.2 0 2.9 1.3 4.2 3.4 4.2 3.9 0 6-6 6-10.2zM42.8 26.3h-3.7l-.9 4.7h-5.1l1-4.7H22l.7-3.5L35.9 8.6h5.7L29.3 22.1h5.9l.8-4.2h4.8l-.8 4.2h3.7l-.9 4.2z"/></g></g></g></svg>