<svg version="1.1" id="レイヤー_1" xmlns="http://www.w3.org/2000/svg" x="0" y="0" viewBox="0 0 1007.9 115.8" style="enable-background:new 0 0 1007.9 115.8" xml:space="preserve"><style>.st0{fill:#fff}.st1{fill:#222}.st2{enable-background:new}</style><g id="modal_work_summary_pc001" transform="translate(-457.734 -557)"><g id="modal_work_01" transform="translate(457.734 557.001)"><g id="グループ_54859" transform="translate(10 15.002)"><path id="合体_32" class="st0" d="M198.7 100.8H0V0h198.7l14.2 50.4-14.2 50.4z"/><path id="合体_32_-_アウトライン" class="st1" d="m194.9 95.8 12.8-45.4L194.9 5H5v90.8h189.9m3.8 5H0V0h198.7l14.2 50.4-14.2 50.4z"/></g><g class="st2" id="グループ_54860"><path d="M5.2 10.9c1.7-.5 3.3-1.2 5-1.9 1-.5 1.7-.9 2.1-1.4.5.4 1.1 1 1.7 1.8.1.1.2.2.2.4s-.1.3-.3.4c-.3.1-.8.3-1.7.7-1.9.9-4.2 1.7-7 2.5v2.7c0 .5.1.9.2 1.1.1.2.3.3.5.4.5.1 1.4.2 2.5.2 1.8 0 3.7-.2 5.6-.5h.1c.1 0 .2.1.2.3.1.7.1 1.3.1 1.7 0 .2-.1.3-.4.4-1.9.2-3.9.4-5.9.4-1.7 0-3-.2-3.8-.5-.9-.4-1.4-1.4-1.4-3V8.8c0-1.6-.1-2.8-.2-3.7 1.2.1 2 .3 2.5.4.2 0 .3.2.3.3 0 .1 0 .2-.1.4-.2.4-.2 1-.2 1.9v2.8zM17.3 5.4c1.3.1 2.6.1 4.1.1H30c.7 0 1.2 0 1.4-.1.2-.1.4-.1.4-.1.1 0 .3.1.5.3.4.3.8.7 1.2 1.3.1.1.2.2.2.4 0 .1-.1.3-.3.4-.2.1-.3.3-.5.6-1 1.5-2.2 2.8-3.5 3.9-.1.1-.3.2-.4.2-.2 0-.3-.1-.5-.2-.4-.3-1-.6-1.7-.8.9-.7 1.6-1.3 2.1-1.8s1-1.1 1.5-1.7h-8.6c-.8 0-2 .1-3.5.2-.2 0-.3-.1-.4-.3-.4-.5-.5-1.2-.6-2.4zm1.2 14c1.1-.6 2.1-1.2 2.7-1.9.6-.5 1.1-1.2 1.5-2 .7-1.2 1-2.8 1-4.7 0-.7-.1-1.3-.2-1.9 1.2.1 2.1.2 2.6.4.2.1.3.2.3.4 0 .1 0 .2-.1.4s-.2.5-.2.8c-.1 2.3-.5 4.1-1.2 5.5-.9 1.7-2.1 3-3.6 4-.2.1-.4.2-.6.2-.1 0-.3-.1-.4-.2-.5-.4-1.1-.8-1.8-1zM37.5 4.6c1.3.1 2.1.3 2.5.4.2.1.3.2.3.3 0 .1 0 .2-.1.3-.1.3-.2.9-.2 1.9V14c0 .3-.1.4-.4.4H38c-.2 0-.4-.1-.4-.3l.1-2.7V7.5c0-1.3-.1-2.2-.2-2.9zm1 14.9c2.2-.7 3.9-1.7 4.9-2.9.9-1.1 1.3-2.9 1.3-5.3V7.5c0-1.4-.1-2.5-.2-3.3 1.1.1 2 .2 2.6.4.2.1.3.2.3.3 0 .1 0 .2-.1.3-.1.3-.2 1-.2 2.2v3.7c0 1.6-.1 2.9-.4 4-.3 1-.7 1.8-1.2 2.5s-1.2 1.3-2.1 1.9c-.7.5-1.5.9-2.3 1.2-.2.3-.3.3-.4.3-.2 0-.3-.1-.5-.2-.5-.5-1-.9-1.7-1.3zM51.7 7.5c.3-.4.8-.9 1.4-1.5.1-.1.2-.2.3-.2.1 0 .1 0 .3.1 1.2.7 2.5 1.6 3.8 2.8.1.2.1.3.1.3s0 .2-.1.3c-.4.6-.8 1.1-1.2 1.5-.2.1-.2.2-.3.2-.1 0-.1-.1-.3-.2-1.2-1.3-2.5-2.3-4-3.3zm.4 10c1.1-.3 2-.6 2.7-1 1.3-.7 2.4-1.3 3.2-1.8.7-.5 1.6-1.1 2.5-1.9 1.3-1.1 2.4-2 3.2-2.8.7-.8 1.5-1.6 2.3-2.6.1.9.3 1.7.6 2.3.1.2.1.3.1.4 0 .1-.1.4-.3.6-1.2 1.4-2.7 2.8-4.6 4.2-1.7 1.3-3.7 2.6-6 3.9-.7.4-1.1.7-1.3.9-.1.1-.3.2-.4.2s-.2-.1-.3-.2c-.7-.7-1.2-1.4-1.7-2.2zM76.5 7.2l3.6-.1c.4 0 .8-.1 1-.2.1-.1.1-.1.3-.1.1 0 .2 0 .3.1.4.3.9.7 1.3 1.1.2.1.3.3.3.5 0 .1-.1.3-.2.4-.2.2-.5.5-.7.9-1.3 2.6-2.6 4.6-4 6.2-.9 1-2 2-3.2 3-1 .8-2 1.5-2.9 2H72c-.1 0-.3-.1-.5-.2-.5-.4-1.1-.7-1.9-.9 1.6-.9 2.9-1.7 4-2.6.9-.7 1.7-1.5 2.7-2.5.9-1 1.6-1.9 2.1-2.7.5-.8 1-1.8 1.6-3l-4.8.1c-1.6 2-2.9 3.3-3.8 4.1-.1.1-.3.2-.4.2-.1 0-.2 0-.3-.1-.6-.4-1.2-.7-1.9-.9 2.2-1.8 4-3.8 5.4-5.9.6-1 1-1.9 1.2-2.7 1.1.4 1.9.8 2.3 1.1.1.1.2.2.2.3 0 .1-.1.3-.2.3-.1.1-.3.2-.5.5s-.4.7-.7 1.1zm5-2 1.1-.7h.1c.1 0 .1 0 .2.1.7.5 1.3 1.2 1.9 2.1 0 .1.1.1.1.1 0 .1 0 .1-.1.2l-.8.6c-.1 0-.1.1-.2.1s-.1 0-.2-.1c-.7-1.1-1.4-1.8-2.1-2.4zm1.9-1.3 1-.7h.1s.1 0 .2.1c.8.6 1.4 1.3 1.9 2.1 0 .1.1.1.1.2s0 .1-.1.2l-.8.6c-.1 0-.1.1-.2.1s-.1 0-.2-.1c-.6-1.1-1.3-1.9-2-2.5z" transform="translate(66.433 50.5)"/></g><path id="長方形_1718" class="st0" d="M10 9h33v28H10z"/><g class="st2"><path class="st1" d="M1.4 21.4c0-7.6 4.4-13.8 10.9-13.8 4.6 0 7.6 2.9 7.6 8 0 7.6-4.4 13.8-10.9 13.8-4.6 0-7.6-3-7.6-8zm13.7-5.7c0-2.7-1.2-4-3.1-4-3.7 0-5.6 5.6-5.6 9.5 0 2.7 1.2 4 3.1 4 3.6 0 5.6-5.6 5.6-9.5zM32 8l-4.2 21H23l3.4-17.1h-4.2L23 8h9z"/></g></g><g id="modal_work_02" transform="translate(682.735 557)"><path id="前面オブジェクトで型抜き_50" class="st0" d="M246.8 115.5H8L22.2 65 8 14.5h238.8L261 65l-14.2 50.5z"/><path id="前面オブジェクトで型抜き_50_-_アウトライン" class="st1" d="M243 110.5 255.8 65 243 19.5H14.6L27.4 65l-12.8 45.5H243m3.8 5H8L22.2 65 8 14.5h238.8L261 65l-14.2 50.5z"/><g id="グループ_54863" transform="translate(54.499 37.496)"><g class="st2" id="グループ_54862"><path d="M79.7 25.3c-.4.5-.7 1-.9 1.5-.1.3-.2.5-.3.5-.1 0-.2-.1-.5-.2-3.5-1.6-6.1-3.7-8-6.3-2 2.6-4.5 4.8-7.7 6.4-.3.1-.4.2-.5.2-.1 0-.2-.2-.4-.5-.2-.5-.5-1-.9-1.4 3.4-1.5 6-3.5 7.7-6.1.3-.5.6-1 .7-1.5.5.1 1.2.2 2.2.4.2.1.4.2.4.3 0 .1-.1.2-.2.3l-.2.1c2.1 2.9 5 5 8.6 6.3zM63.8 35.9h-2.5c-.1 0-.2-.1-.2-.2v-1.6c0-.1.1-.2.2-.2h3v-4.4c0-1-.1-1.7-.2-2.2.9 0 1.6.1 2.3.1.2 0 .3.1.3.2s0 .2-.1.4-.1.7-.1 1.5v4.3h2.8v-7.6c0-1 0-1.7-.1-2.2.9 0 1.7.1 2.2.1.2 0 .3.1.3.2s0 .3-.1.4c-.1.2-.1.6-.1 1.4V28h4.8v2.2H71.5V34H79v1.8c0 .1-.1.2-.2.2h-15zM84 21h-2.5c-.1 0-.2-.1-.2-.2v-1.7h17.4v1.7c0 .1-.1.2-.2.2h-7.6v2H94.8v9.2h-9.6V23H89v-2h-5zm12.3 2c.9 0 1.5.1 2 .2.2 0 .4.1.4.3 0 .1 0 .3-.1.4-.1.2-.2.9-.2 2.1v10.6h-2v-1H83.6v1h-2V26c0-1.3 0-2.3-.1-2.8.8 0 1.5.1 2 .2.3 0 .4.1.4.3 0 .1 0 .2-.1.4-.1.1-.1.8-.1 2.1v7.7h12.8V26c-.1-1.4-.1-2.3-.2-3zM87 26.7h2v-2.1h-2v2.1zm0 3.8h2v-2.3h-2v2.3zm6-5.9h-2.2v2.1H93v-2.1zm0 5.9v-2.3h-2.2v2.3H93z"/></g></g><path id="長方形_1720" class="st0" d="M5 9h41v28H5z"/><g class="st2"><path class="st1" d="M1.4 21.4c0-7.6 4.4-13.8 10.9-13.8 4.6 0 7.6 2.9 7.6 8 0 7.6-4.4 13.8-10.9 13.8-4.6 0-7.6-3-7.6-8zm13.7-5.7c0-2.7-1.2-4-3.1-4-3.7 0-5.6 5.6-5.6 9.5 0 2.7 1.2 4 3.1 4 3.7 0 5.6-5.6 5.6-9.5zM27.5 25h8.8l-.8 4H19.6l.6-3.1 9.6-7.5c2.4-1.9 3.1-3 3.1-4.4s-1.1-2.3-3.1-2.3c-1.7 0-3.3.8-4.5 2.2L22 11.5c1.7-2.3 4.8-3.8 8.5-3.8 4.4 0 7.3 2.4 7.3 5.6 0 2.5-1.1 4.6-4.8 7.4L27.5 25z"/></g></g><g id="modal_work_04" transform="translate(1209.734 557)"><path id="前面オブジェクトで型抜き_51" class="st0" d="M255.9 115.5H6.1L20.4 65 6.1 14.5h249.8v101z"/><path id="前面オブジェクトで型抜き_51_-_アウトライン" class="st1" d="M250.9 110.5v-91H12.7L25.6 65l-12.8 45.5h238.1m5 5H6.1L20.4 65 6.1 14.5h249.8v101z"/><g id="グループ_54865"><g class="st2"><path d="M37.7-9.7c1.3.4 2.2.7 2.7 1 .2.1.2.2.2.3 0 .1-.1.2-.2.4-.2.3-.5.9-.8 1.7-1.5 4.2-2.7 7.2-3.4 9 3-.3 5.3-.5 7-.8C42.5.7 41.8-.4 41-1.3l1.7-1c.1 0 .1-.1.2-.1s.2.1.3.2c1.6 1.9 2.9 4 4 6.5.1.1.1.2.1.3 0 .1-.1.2-.3.3-.4.3-.9.6-1.5.8-.1 0-.2.1-.2.1-.2.2-.3.1-.3-.1-.4-.8-.6-1.4-.7-1.6-2.5.4-5.6.8-9.5 1.2-1.2.1-2 .3-2.3.5-.1 0-.2.1-.3.1-.2 0-.3-.1-.3-.3-.2-.3-.4-1.2-.7-2.6h2.4c1.3-3.3 2.5-6.6 3.5-9.9.3-1.2.5-2.1.6-2.8zM49.8-2.7c1 .2 2.5.2 4.3.2h11.1c.2 0 .3.1.3.3v1.8c0 .2-.1.3-.3.3H53.4l-2.9.2c-.3 0-.4-.1-.5-.4 0-.5-.1-1.3-.2-2.4zM72.1-3.1c1.8-.6 3.5-1.2 4.9-1.9 1-.5 1.7-1 2.1-1.4.5.5 1.1 1.1 1.7 1.8.1.1.2.3.2.4 0 .2-.1.3-.3.4-.3.1-.8.3-1.7.7-2 .7-4.3 1.5-7 2.3v2.7c0 .5.1.8.2 1 .1.2.3.3.5.4.5.1 1.4.2 2.5.2 1.8 0 3.6-.2 5.6-.5h.1c.1 0 .2.1.2.3.1.7.1 1.3.1 1.7 0 .2-.1.3-.4.4-1.8.3-3.8.4-5.8.4-1.7 0-3-.2-3.8-.5-.9-.4-1.4-1.4-1.4-3v-7.4c0-1.6-.1-2.8-.2-3.7 1.2.1 2 .3 2.5.4.2.1.3.2.3.3 0 .1 0 .3-.1.4-.1.3-.2.9-.2 1.8v2.8zm7.3-5 1.1-.7h.1c.1 0 .1 0 .2.1.7.5 1.3 1.2 1.9 2.1 0 .1.1.1.1.1 0 .1 0 .1-.1.2l-.8.6c-.1 0-.1.1-.2.1s-.1 0-.2-.1c-.7-1-1.4-1.8-2.1-2.4zm1.8-1.3 1-.7h.1s.1 0 .2.1c.8.6 1.4 1.3 1.9 2.1 0 .1.1.1.1.2s0 .1-.1.2l-.8.6c-.1-.1-.2-.1-.2-.1-.1 0-.1 0-.2-.1-.5-.9-1.2-1.7-2-2.3zM86.5-2.7c1 .2 2.5.2 4.3.2h11.1c.2 0 .3.1.3.3v1.8c0 .2-.1.3-.3.3H90.1l-2.9.2c-.3 0-.4-.1-.5-.4 0-.5-.1-1.3-.2-2.4zM108.6-3.6c.6 0 1.1.2 1.5.7.3.4.5.8.5 1.3 0 .6-.2 1.1-.7 1.5-.4.3-.8.5-1.3.5-.6 0-1.1-.2-1.5-.7-.3-.4-.5-.8-.5-1.3 0-.6.2-1.1.7-1.5.3-.3.8-.5 1.3-.5z" transform="translate(58.025 50.5)"/></g><g class="st2"><path d="M-8.6 30.7c1.9 1.4 3.7 3 5.5 4.8.1.1.2.2.2.3s0 .2-.1.3c-.4.5-.9 1-1.3 1.4-.1.1-.2.1-.2.1s-.2-.1-.3-.2c-1.5-1.8-3.2-3.4-5.2-5-2.1 2.2-4.3 3.9-6.7 5.3-.2.1-.4.2-.5.2-.1 0-.2-.1-.3-.2-.4-.5-.9-.9-1.7-1.3 1.6-.8 3-1.7 4.1-2.5.9-.7 1.9-1.6 2.9-2.6 1.4-1.5 2.7-3.2 3.8-5h-5.2c-1 0-2.1 0-3.2.1-.1 0-.2-.1-.3-.3-.1-.5-.2-1.2-.2-2.1.7.1 1.8.1 3.4.1h5.5c.7 0 1.2-.1 1.4-.2.1-.1.1-.1.2-.1s.2.1.3.2c.4.3.9.8 1.3 1.4.1.1.1.2.1.3 0 .1-.1.3-.3.4-.3.2-.5.5-.7.9-.7 1.3-1.6 2.5-2.5 3.7zM5.1 27.8c2.5.8 4.6 1.7 6.4 2.7.2.1.3.2.3.3v.2c-.2.6-.5 1.2-.9 1.7-.1.1-.2.2-.3.2-.1 0-.2 0-.2-.1-1.9-1.2-3.6-2.1-5.3-2.6v4.4c0 .7 0 2 .1 3.9v.1c0 .2-.1.2-.4.2H3c-.3 0-.4-.1-.4-.3.1-1.3.1-2.6.1-3.9v-9.8c0-1.2-.1-2.2-.2-3 1.2.1 2 .2 2.5.3.3.1.4.2.4.3 0 .1-.1.3-.2.5s-.1.8-.1 1.9v3zM14.4 29.3c1 .2 2.5.2 4.3.2h11.1c.2 0 .3.1.3.3v1.8c0 .2-.1.3-.3.3H18l-2.9.2c-.3 0-.4-.1-.5-.4 0-.5-.1-1.3-.2-2.4zM34.3 22.6c1.3.2 2.1.3 2.5.4.2.1.3.2.3.3 0 .1 0 .2-.1.3-.1.3-.2.9-.2 1.9V32c0 .3-.1.4-.4.4h-1.6c-.2 0-.4-.1-.4-.3l.1-2.7v-3.9c0-1.2-.1-2.2-.2-2.9zm1 15c2.2-.7 3.9-1.7 4.9-2.9.9-1.1 1.3-2.9 1.3-5.3v-3.8c0-1.4-.1-2.5-.2-3.3 1.1.1 2 .2 2.6.4.2.1.3.2.3.3 0 .1 0 .2-.1.3-.1.3-.2 1-.2 2.2v3.7c0 1.6-.1 2.9-.4 4-.3 1-.7 1.8-1.2 2.5s-1.2 1.3-2.1 1.9c-.7.5-1.5.9-2.3 1.2-.2.2-.3.2-.4.2-.2 0-.3-.1-.5-.2-.5-.5-1.1-.9-1.7-1.2zM48.5 29.3c1 .2 2.5.2 4.3.2h11.1c.2 0 .3.1.3.3v1.8c0 .2-.1.3-.3.3H52.1l-2.9.2c-.3 0-.4-.1-.5-.4 0-.5-.1-1.3-.2-2.4zM69.3 30.1c.9.3 1.5.6 2.1.9.2.1.3.3.3.4 0 .1-.1.2-.2.3-.2.1-.3.4-.5.7-.7 1.4-1.4 2.5-2.2 3.3-.1.2-.3.2-.4.2-.1 0-.2 0-.3-.1-.7-.4-1.2-.7-1.7-.8 1-1.1 1.8-2.2 2.4-3.3.3-.5.5-1 .5-1.6zm4.8-3.6v-.9c0-1.3-.1-2.3-.2-3.1 1.1.1 2 .2 2.5.3.2 0 .4.1.4.3 0 .1 0 .2-.1.4-.1.3-.2.9-.2 2v1.1H79c.8 0 2.1 0 4.1-.1.1 0 .2.1.2.3v1.5c0 .3-.1.4-.3.4-2.1-.1-3.5-.1-4.1-.1h-2.4v7.5c0 1-.4 1.7-1.2 2.1-.7.4-1.6.6-2.6.7-.2 0-.4-.1-.5-.4-.3-.7-.8-1.3-1.3-1.8 1.3 0 2.2-.1 2.7-.2.3-.1.5-.4.5-.9v-6.9H71c-1.2 0-2.4 0-3.5.1-.2 0-.3-.1-.3-.4-.1-1-.1-1.6-.1-1.9 1.2.1 2.4.1 3.8.1h3.2zm4.3 4.9c.2-.1.5-.3.8-.6.3-.2.5-.4.7-.5.1-.1.2-.1.3-.1.1 0 .2.1.3.2.9.8 1.8 2 2.9 3.7.1.1.1.2.1.3 0 .1-.1.2-.2.3-.3.3-.7.6-1.3 1-.1.1-.2.1-.2.1-.1 0-.1-.1-.2-.2-1-1.6-2-3.1-3.2-4.2zm.8-8.2 1.1-.7h.1c.1 0 .1 0 .2.1.7.5 1.3 1.2 1.9 2.1 0 .1.1.1.1.1 0 .1 0 .1-.1.2l-.8.6c-.1 0-.1.1-.2.1s-.1 0-.2-.1c-.8-1.1-1.4-1.8-2.1-2.4zm1.8-1.4 1-.7h.1s.1 0 .2.1c.8.6 1.4 1.3 1.9 2.1 0 .1.1.1.1.2s0 .1-.1.2l-.8.6c-.1 0-.1.1-.2.1s-.1 0-.2-.1c-.6-1.1-1.2-1.8-2-2.5zM86.3 29.3c1 .2 2.5.2 4.3.2h11.1c.2 0 .3.1.3.3v1.8c0 .2-.1.3-.3.3H90l-2.9.2c-.3 0-.4-.1-.5-.4-.1-.5-.2-1.3-.3-2.4zM109.8 27.8c2.5.8 4.6 1.7 6.4 2.7.2.1.3.2.3.3v.2c-.2.6-.5 1.2-.9 1.7-.1.1-.2.2-.3.2-.1 0-.2 0-.2-.1-1.9-1.2-3.6-2.1-5.3-2.6v4.4c0 .7 0 2 .1 3.9v.1c0 .2-.1.2-.4.2h-1.8c-.3 0-.4-.1-.4-.3.1-1.3.1-2.6.1-3.9v-9.8c0-1.2-.1-2.2-.2-3 1.2.1 2 .2 2.5.3.3.1.4.2.4.3 0 .1-.1.3-.2.5s-.1.8-.1 1.9v3zm3.6-4.2 1.1-.7h.1s.1 0 .2.1c.7.5 1.3 1.2 1.9 2.1 0 .1.1.1.1.1 0 .1 0 .1-.1.2l-.8.6c-.1 0-.1.1-.2.1s-.1 0-.2-.1c-.7-1.1-1.3-1.8-2.1-2.4zm1.9-1.3 1-.7h.1s.1 0 .2.1c.8.6 1.4 1.3 1.9 2.1 0 .1.1.1.1.2s0 .1-.1.2l-.8.6c-.1 0-.1.1-.2.1s-.1 0-.2-.1c-.6-1.1-1.3-1.9-2-2.5zM124.5 21.5c.8 0 1.5.1 2.1.1.2 0 .3.1.3.2 0 0 0 .2-.1.4s-.1.5-.1 1.1v.7H130.1V25.8H126.7v1.8H130.8V29.4H126.7v1.7h3.7v5.2c0 .6-.2 1-.5 1.3-.3.3-.9.4-1.7.4-.3 0-.5 0-.6-.1-.1-.1-.1-.2-.1-.5-.1-.5-.2-.9-.4-1.3.4 0 .7.1.9.1.3 0 .5-.2.5-.5v-2.8h-1.8v6.4c0 .1-.1.2-.2.2h-1.6c-.1 0-.2-.1-.2-.2v-6.5H123V37.9h-2V31.1h3.7v-1.7h-4.5V27.6h4.5v-1.8h-1.9c-.2.4-.4.8-.5 1.1-.1.3-.3.4-.4.4-.1 0-.2-.1-.5-.2-.4-.3-.8-.5-1.2-.6.7-1.1 1.2-2.3 1.5-3.5 0-.2.1-.5.1-.9.6.1 1.2.2 1.7.4.2.1.3.1.3.2s0 .2-.1.3c-.1.1-.1.3-.2.6l-.1.4h1.3v-.7c-.1-.6-.2-1.2-.2-1.8zm7 1.6c.7 0 1.4.1 2 .1.2 0 .3.1.3.2s0 .1-.1.2c0 .1-.1.2-.1.2 0 .2-.1.9-.1 2.1V34.2h-2v-8.3c.1-1.1.1-2.1 0-2.8zm1.1 14.1c.7.1 1.4.1 1.9.1.4 0 .6-.1.7-.2.1-.1.2-.3.2-.6v-12c0-1.2-.1-2.1-.2-2.8.7 0 1.5 0 2.1.1.2 0 .3.1.3.2s0 .2-.1.4-.1.9-.1 2v8.4l.1 4c0 1-.2 1.7-.7 2-.3.2-.7.3-1.1.4-.4.1-1 .1-1.8.1-.3 0-.5 0-.6-.1-.1-.1-.1-.2-.2-.5 0-.5-.2-1-.5-1.5zM140 29.2c1.7-1.7 3-3.9 4.1-6.6.1-.4.3-.8.4-1.4 1.1.3 1.7.5 1.9.6.2.1.3.2.3.3 0 .1-.1.2-.2.4-.1.1-.3.4-.4.8-.4.9-.7 1.8-1.2 2.6v13.6h-2.1V29.2c-.4.5-.9 1.1-1.5 1.8-.1.2-.3.2-.3.2-.1 0-.2-.1-.3-.3-.2-.7-.4-1.3-.7-1.7zm5.4-.2c.8-.9 1.6-2 2.3-3.3.6-1 1-2 1.3-3 .2-.5.3-1 .3-1.5.9.2 1.5.3 2 .4.3.1.4.2.4.3 0 .1-.1.3-.2.4-.2.1-.3.5-.5 1-.2.6-.4 1.1-.6 1.5h7.9v1.9h-6v2.4H157.3V31h-5v2.5h4.9c.1 0 .2.1.2.2v1.5h-5.1v4.4h-2.1V26.7h-.8c-.8 1.4-1.6 2.6-2.4 3.6-.2.2-.3.3-.4.3-.1 0-.2-.1-.4-.4-.1-.5-.5-.9-.8-1.2z" transform="translate(58.025 50.5)"/></g></g><path id="長方形_1721" class="st0" d="M7 9h41v28H7z"/><g class="st2"><path class="st1" d="M1.9 21.4c0-7.6 4.4-13.8 10.9-13.8 4.7 0 7.6 2.9 7.6 8 0 7.6-4.4 13.8-10.9 13.8-4.7 0-7.6-3-7.6-8zm13.6-5.7c0-2.7-1.2-4-3.2-4-3.7 0-5.6 5.6-5.6 9.5 0 2.7 1.2 4 3.1 4 3.8 0 5.7-5.6 5.7-9.5zM40.5 24.6h-3.4l-.9 4.4h-4.7l.9-4.4H21l.6-3.3L34 8h5.3L27.8 20.6h5.5l.8-3.9h4.5l-.8 3.9h3.5l-.8 4z"/></g></g><g id="modal_work_03" transform="translate(946.734 557)"><path id="前面オブジェクトで型抜き_52" class="st0" d="M246.8 115.5H8L22.2 65 8 14.5h238.8L261 65l-14.2 50.5z"/><path id="前面オブジェクトで型抜き_52_-_アウトライン" class="st1" d="M243 110.5 255.8 65 243 19.5H14.6L27.4 65l-12.8 45.5H243m3.8 5H8L22.2 65 8 14.5h238.8L261 65l-14.2 50.5z"/><g id="グループ_54868" transform="translate(54.499 37.496)"><g class="st2" id="グループ_54867"><path d="M1.5 21.3c.8.1 2.1.1 3.8.1h7.1c.5 0 .9-.1 1.1-.2.1-.1.2-.1.3-.1.1 0 .2 0 .3.1.6.5 1.1.9 1.4 1.4.1.1.2.3.2.4 0 .1-.1.3-.2.4-.1.1-.3.4-.5.8-1.1 2.6-2.4 4.8-3.9 6.5-1.8 2.1-3.7 3.6-5.7 4.8-.2.1-.4.2-.5.2s-.3-.1-.5-.2c-.4-.4-1-.8-1.9-1.1 1.5-.8 2.8-1.6 3.9-2.4.9-.7 1.8-1.6 2.7-2.6 1.5-1.7 2.6-3.6 3.4-5.7H5.3c-.8 0-1.9 0-3.3.1-.2 0-.3-.1-.4-.4 0-.4-.1-1.1-.1-2.1zM17 17.7c.6 0 1.2.2 1.6.7.4.4.6.9.6 1.4 0 .6-.2 1.2-.7 1.6-.5.4-.9.6-1.5.6s-1.2-.2-1.6-.7c-.4-.4-.6-.9-.6-1.4 0-.7.2-1.2.7-1.6.5-.4.9-.6 1.5-.6zm0 .9c-.4 0-.7.1-.9.4-.2.2-.3.5-.3.8 0 .4.1.7.4.9.2.2.5.3.8.3.4 0 .7-.1.9-.4.2-.2.3-.5.3-.8 0-.4-.1-.7-.4-.9-.2-.2-.5-.3-.8-.3zM32.7 32.7H25v1.2c0 .2 0 .3-.1.3s-.2.1-.3.1H23c-.3 0-.4-.1-.4-.2 0-2.1.1-3.4.1-4v-8.2c0-.2.1-.3.2-.3.7 0 1.9.1 3.6.1h8.6c.2 0 .3.1.3.3v8.1c0 .7 0 2 .1 3.8 0 .2-.1.3-.4.3h-1.8c-.1 0-.2 0-.2-.1V32.7zm0-2.1v-6.9H25v6.9h7.7zM44.4 24.8c2.5.8 4.6 1.7 6.4 2.7.2.1.3.2.3.3v.2c-.2.6-.5 1.2-.9 1.7-.2.2-.3.3-.4.3-.1 0-.2 0-.2-.1-1.9-1.2-3.6-2.1-5.3-2.6v4.4c0 .7 0 2 .1 3.9v.1c0 .2-.1.2-.4.2h-1.8c-.3 0-.4-.1-.4-.3.1-1.3.1-2.6.1-3.9v-9.8c0-1.2-.1-2.2-.2-3 1.2.1 2 .2 2.5.3.3.1.4.2.4.3 0 .1-.1.3-.2.5s-.1.8-.1 1.9v2.9zM64.3 29c.9.7 1.6 1.4 2.2 2 .1.1.1.2.1.3 0 .1 0 .2-.1.3-.4.5-.8.9-1.2 1.3-.1.1-.2.1-.2.1-.1 0-.1 0-.2-.1-.5-.6-1.2-1.3-1.9-1.9-1.9 2.1-4 3.7-6.4 5-.2.1-.4.2-.5.2s-.2-.1-.4-.2c-.5-.4-1.2-.8-1.9-1 1.7-.9 3.1-1.7 4.2-2.6 1-.8 2.1-1.7 3.1-2.8-.8-.7-1.8-1.3-2.9-1.9.8-.9 1.2-1.3 1.3-1.4.1-.1.2-.1.3-.1 0 0 .1 0 .2.1.6.3 1.4.8 2.6 1.6.9-1.1 1.7-2.5 2.3-4l-5 .1c-1.6 2-3 3.5-4.3 4.5-.2.1-.3.2-.4.2-.1 0-.2 0-.3-.1-.5-.3-1-.6-1.7-.9 1.4-1.1 2.6-2.2 3.5-3.3.7-.8 1.4-1.8 2.1-2.9.6-1 .9-1.8 1.1-2.5 1.2.4 2 .7 2.3 1 .1.1.2.2.2.3 0 .1-.1.3-.2.4-.1.1-.3.2-.4.4-.2.3-.4.6-.6 1l3.5-.1c.4 0 .8-.1 1.1-.3.1-.1.3-.1.3-.1l.4.2c.4.3.9.7 1.4 1.2.1.1.2.2.2.4 0 .1-.1.3-.2.4-.3.2-.5.5-.6.8-1 1.5-2 3.1-3 4.4zM81 24.7v6.6c0 1.2 0 2.6.1 4.2v.1c0 .2-.1.3-.3.3h-2c-.2 0-.3-.1-.3-.3v-8.9c-2 1.7-3.8 3-5.5 3.8-.1.1-.2.1-.3.1-.1 0-.3-.1-.4-.2-.4-.4-1-.8-1.7-1.2 2.4-1.2 4.5-2.6 6.3-4.1 1.6-1.3 3-2.7 4.3-4.2.6-.7 1-1.4 1.3-2.1 1.1.6 1.8 1.1 2.2 1.4.1.1.2.2.2.3 0 .2-.1.3-.3.4-.3.2-.7.6-1.2 1.1-.7 1-1.5 1.8-2.4 2.7zM91.9 25.9c1.9-.6 3.5-1.2 4.9-1.9 1-.5 1.7-1 2.1-1.4.5.5 1.1 1.1 1.7 1.8.1.1.2.2.2.4s-.1.3-.3.4c-.3.1-.8.3-1.7.7-1.9.9-4.2 1.7-6.9 2.5v2.7c0 .5.1.9.2 1.1.1.2.3.3.5.4.5.1 1.4.2 2.5.2 1.8 0 3.7-.2 5.6-.5h.1c.1 0 .2.1.2.3.1.7.1 1.3.1 1.7 0 .2-.1.3-.4.4-1.9.2-3.9.4-5.9.4-1.7 0-3-.2-3.8-.5-.9-.4-1.4-1.4-1.4-3v-7.4c0-1.6-.1-2.8-.2-3.7 1.2.1 2 .3 2.5.4.2 0 .3.2.3.3 0 .1 0 .3-.1.4-.1.3-.2.9-.2 1.8v2.5zm10.6-6.6c.6 0 1.2.2 1.6.7.4.4.6.9.6 1.4 0 .6-.2 1.2-.7 1.6-.4.4-.9.5-1.4.5-.7 0-1.2-.2-1.6-.7-.4-.4-.6-.9-.6-1.4 0-.7.2-1.2.7-1.6.3-.3.8-.5 1.4-.5zm0 1c-.4 0-.7.1-.9.4-.2.2-.3.5-.3.8 0 .4.1.7.4.9.2.2.5.3.8.3.4 0 .7-.1.9-.4.2-.2.3-.5.3-.8 0-.4-.1-.7-.4-.9-.2-.2-.5-.3-.8-.3zM106.7 22.6c.3-.4.8-.9 1.4-1.6.1-.1.2-.2.3-.2.1 0 .1 0 .3.1 1.2.7 2.5 1.6 3.8 2.8.1.1.2.2.2.3s0 .2-.1.3c-.4.6-.8 1.1-1.2 1.5l-.2.2c-.1 0-.1-.1-.3-.2-1.4-1.2-2.7-2.3-4.2-3.2zm.4 10c1.1-.3 2-.6 2.7-1 1.3-.7 2.4-1.3 3.2-1.8.7-.5 1.6-1.1 2.5-1.9 1.3-1.1 2.4-2 3.2-2.8.7-.8 1.5-1.6 2.3-2.6.1.9.3 1.7.6 2.3.1.2.1.3.1.4 0 .1-.1.4-.3.6-1.2 1.4-2.7 2.8-4.6 4.2-1.7 1.3-3.7 2.6-6 3.9-.7.4-1.1.7-1.3.9-.1.1-.3.2-.4.2s-.2-.1-.3-.2c-.7-.7-1.2-1.5-1.7-2.2zM131.5 22.3l3.6-.1c.4 0 .8-.1 1-.2.1-.1.1-.1.3-.1.1 0 .2 0 .3.1.5.3.9.7 1.4 1.1.2.1.3.3.3.5 0 .1-.1.3-.2.4-.2.2-.5.5-.7.9-1.3 2.6-2.6 4.6-4 6.2-.9 1-2 2-3.2 3-1 .8-2 1.5-2.9 2-.1.1-.2.1-.3.1-.1 0-.3-.1-.5-.2-.5-.4-1.1-.7-1.9-.9 1.6-.9 2.9-1.7 4-2.6.9-.7 1.7-1.5 2.7-2.5.9-1 1.6-1.9 2.1-2.7.5-.8 1-1.8 1.6-3l-4.8.1c-1.6 2-2.9 3.3-3.8 4.1-.1.1-.3.2-.4.2-.1 0-.2 0-.3-.1-.6-.4-1.2-.7-1.9-.9 2.2-1.8 4-3.8 5.4-5.9.6-1 1-1.9 1.2-2.7 1.1.4 1.9.8 2.3 1.1.1.1.2.2.2.3 0 .1-.1.3-.2.3-.1.1-.3.2-.5.5-.3.2-.5.5-.8 1zm5-2.1 1.1-.7h.1c.1 0 .1 0 .2.1.7.5 1.3 1.2 1.9 2.1 0 .1.1.1.1.1 0 .1 0 .1-.1.2l-.8.6c-.1 0-.1.1-.2.1s-.1 0-.2-.1c-.7-1-1.4-1.8-2.1-2.4zm1.9-1.3 1-.7h.1s.1 0 .2.1c.8.6 1.4 1.3 1.9 2.1 0 .1.1.1.1.2s0 .1-.1.2l-.8.6c-.1 0-.1.1-.2.1s-.1 0-.2-.1c-.6-1.1-1.3-1.9-2-2.5z"/></g></g><path id="長方形_1723" class="st0" d="M5 9h41v28H5z"/><g class="st2"><path class="st1" d="M1.5 21.4c0-7.6 4.4-13.8 10.9-13.8 4.6 0 7.6 2.9 7.6 8 0 7.6-4.4 13.8-10.9 13.8-4.7 0-7.6-3-7.6-8zm13.6-5.7c0-2.7-1.2-4-3.1-4-3.7 0-5.6 5.6-5.6 9.5 0 2.7 1.2 4 3.1 4 3.7 0 5.6-5.6 5.6-9.5zM37.8 11.2 32 16.6c2.9.7 4.6 2.6 4.6 5.3 0 4.3-4 7.4-9.7 7.4-3.1 0-5.9-.9-7.7-2.4l2.3-3.6c1.4 1.2 3.5 1.9 5.7 1.9 2.9 0 4.5-1.1 4.5-3 0-1.5-1.1-2.2-3.5-2.2H26l.6-3.2 5.2-4.9h-8.9l.8-3.9h14.7l-.6 3.2z"/></g></g></g></svg>