<svg xmlns="http://www.w3.org/2000/svg" width="290.818" height="468.307" viewBox="0 0 290.818 468.307"><g transform="translate(4702.141 19452.605)"><g transform="translate(-4701.083 -19452.605)"><g transform="translate(9.516 17.059)"><g transform="translate(0 0)" fill="#fff"><path d="M 140.1232604980469 103.0328521728516 L 1.500017046928406 79.00987243652344 L 1.500017046928406 1.499988436698914 L 278.7456359863281 1.499988436698914 L 278.7456359863281 79.01002502441406 L 140.1232604980469 103.0328521728516 Z" stroke="none"/><path d="M 140.1232604980469 101.5105133056641 L 277.24560546875 77.74761199951172 L 277.24560546875 3.00001859664917 L 2.999994993209839 3.00001859664917 L 2.999994993209839 77.74744415283203 L 140.1232604980469 101.5105133056641 M 140.1232604980469 104.5552139282227 L -4.957932560500922e-06 80.27332305908203 L -4.957932560500922e-06 1.859694202721585e-05 L 280.24560546875 1.859694202721585e-05 L 280.24560546875 80.27332305908203 L 280.2403869628906 80.27332305908203 L 140.1232604980469 104.5552139282227 Z" stroke="none" fill="#222"/></g></g><g transform="translate(106.281 55.69)"><text transform="translate(40 16)" font-size="16" font-family="YuGothic-Bold, Yu Gothic" font-weight="700"><tspan x="-40" y="0">ヒアリング</tspan></text></g><rect width="34.898" height="28.096" transform="translate(8.46 11.038)" fill="#fff"/><text transform="translate(17 31)" fill="#222" font-size="32" font-family="Montserrat-BoldItalic, Montserrat" font-weight="700" font-style="italic"><tspan x="-17.024" y="0">01</tspan></text></g><g transform="translate(-4700.026 -19350.545)"><g transform="translate(7.403 17.057)" fill="#fff"><path d="M 140.1232299804688 123.1022186279297 L 1.504707217216492 99.08029174804688 L 1.500101327896118 1.78249192237854 L 139.8680572509766 25.76106834411621 L 140.1241912841797 25.80546188354492 L 140.3803405761719 25.76106834411621 L 278.741455078125 1.783532023429871 L 278.7455749511719 99.07931518554688 L 140.1232299804688 123.1022186279297 Z" stroke="none"/><path d="M 140.1233673095703 121.579833984375 L 277.2455139160156 97.81692504882812 L 277.2415161132812 3.565805673599243 L 140.1241912841797 27.32782173156738 L 3.00016450881958 3.564827919006348 L 3.004644155502319 97.81783294677734 L 140.1233673095703 121.579833984375 M 140.1232604980469 124.6245498657227 L 0.004764272831380367 100.3427047729492 L -4.957932560500922e-06 1.33314870254253e-05 L 0.006379657424986362 0.001282562268897891 L 140.1241912841797 24.28309059143066 L 280.2413940429688 0.001244100742042065 L 280.24560546875 100.3428573608398 L 280.2398681640625 100.3427047729492 L 140.1232604980469 124.6245498657227 Z" stroke="none" fill="#222"/></g><g transform="translate(80.901 65.72)"><g transform="translate(0 0)"><text transform="translate(64 16)" font-size="16" font-family="YuGothic-Bold, Yu Gothic" font-weight="700"><tspan x="-64" y="0">プロトタイピング</tspan><tspan x="-32" y="24">仮説検証</tspan></text></g></g><rect width="43.359" height="28.096" transform="translate(4.23 11.038)" fill="#fff"/><text transform="translate(20 31)" fill="#222" font-size="32" font-family="Montserrat-BoldItalic, Montserrat" font-weight="700" font-style="italic"><tspan x="-20.192" y="0">02</tspan></text></g><g transform="translate(-4700.026 -19228.129)"><g transform="translate(7.403 17.057)" fill="#fff"><path d="M 140.1232299804688 123.1022186279297 L 1.504707217216492 99.08029174804688 L 1.500101327896118 1.78249192237854 L 139.8680572509766 25.76106834411621 L 140.1241912841797 25.80546188354492 L 140.3803405761719 25.76106834411621 L 278.741455078125 1.783532023429871 L 278.7455749511719 99.07931518554688 L 140.1232299804688 123.1022186279297 Z" stroke="none"/><path d="M 140.1233673095703 121.579833984375 L 277.2455139160156 97.81692504882812 L 277.2415161132812 3.565805673599243 L 140.1241912841797 27.32782173156738 L 3.00016450881958 3.564827919006348 L 3.004644155502319 97.81783294677734 L 140.1233673095703 121.579833984375 M 140.1232604980469 124.6245498657227 L 0.004764272831380367 100.3427047729492 L -4.957932560500922e-06 1.33314870254253e-05 L 0.006379657424986362 0.001282562268897891 L 140.1241912841797 24.28309059143066 L 280.2413940429688 0.001244100742042065 L 280.24560546875 100.3428573608398 L 280.2398681640625 100.3427047729492 L 140.1232604980469 124.6245498657227 Z" stroke="none" fill="#222"/></g><g transform="translate(97.822 65.72)"><g transform="translate(0 0)"><text transform="translate(48 16)" font-size="16" font-family="YuGothic-Bold, Yu Gothic" font-weight="700"><tspan x="-32" y="0">仕様検討</tspan><tspan x="-48" y="24">システム構築</tspan></text></g></g><rect width="43.359" height="28.096" transform="translate(4.23 11.038)" fill="#fff"/><text transform="translate(20 31)" fill="#222" font-size="32" font-family="Montserrat-BoldItalic, Montserrat" font-weight="700" font-style="italic"><tspan x="-20.16" y="0">03</tspan></text></g><g transform="translate(-4702.141 -19104.709)"><g transform="translate(9.518 17.057)" fill="#fff"><path d="M 278.7455749511719 101.852653503418 L 1.500017046928406 101.852653503418 L 1.500017046928406 1.782453775405884 L 139.8680572509766 25.76104545593262 L 140.1241912841797 25.8054370880127 L 140.3803405761719 25.76104545593262 L 278.741455078125 1.783508896827698 L 278.7455749511719 101.852653503418 Z" stroke="none"/><path d="M 277.2454833984375 100.3526763916016 L 277.2415161132812 3.565816164016724 L 140.1241912841797 27.32783126831055 L 2.999994993209839 3.564770698547363 L 2.999994993209839 100.3526763916016 L 277.2454833984375 100.3526763916016 M 280.24560546875 103.3526763916016 L -4.957932560500922e-06 103.3526763916016 L -4.957932560500922e-06 -1.558744042995386e-05 L 0.006379657424986362 0.001253643305972219 L 140.1241912841797 24.28310012817383 L 280.2413940429688 0.001253643305972219 L 280.24560546875 103.3526763916016 Z" stroke="none" fill="#222"/></g><g transform="translate(83.017 72.744)"><g transform="translate(0 0)"><text transform="translate(64 16)" font-size="16" font-family="YuGothic-Bold, Yu Gothic" font-weight="700"><tspan x="-64" y="0">サービスリリース</tspan></text></g></g><rect width="43.359" height="28.096" transform="translate(6.345 11.038)" fill="#fff"/><text transform="translate(22 31)" fill="#222" font-size="32" font-family="Montserrat-BoldItalic, Montserrat" font-weight="700" font-style="italic"><tspan x="-21.872" y="0">04</tspan></text></g></g></svg>