<svg xmlns="http://www.w3.org/2000/svg" width="646.722" height="667.145"><g data-name="グループ 54918" fill="#222"><path data-name="パス 1344" d="m362.862 525.714-22.27 126.108 120.392-43.819-98.122-82.289m-6.837-18.785 124.66 104.545-152.954 55.671Z"/><path data-name="多角形 91" d="m583.364 360.944-49.215 49.215 49.215 49.215 49.215-49.215-49.215-49.215m0-14.142 63.357 63.357-63.357 63.358-63.357-63.358Z"/><path data-name="長方形 1692" d="M48.914 385.1a40.708 40.708 0 0 0 40.708 70.507l35.316-20.39a40.708 40.708 0 0 0-40.707-70.508L48.914 385.1m-5-8.66 35.317-20.39a50.708 50.708 0 0 1 50.707 87.828l-35.316 20.39a50.708 50.708 0 0 1-50.708-87.828Z"/><path data-name="楕円形 204" d="M330.175 10a99.47 99.47 0 1 0 99.47 99.47A99.583 99.583 0 0 0 330.175 10m0-10a109.47 109.47 0 1 1-109.47 109.47A109.47 109.47 0 0 1 330.175 0Z"/></g></svg>