<svg xmlns="http://www.w3.org/2000/svg" width="490.53" height="614.293"><g data-name="グループ 54919" fill="#222"><path data-name="合体 31" d="m227.387 592.93 37.906-27.54-25.472-35.06 31.943-23.208-23.013-31.675-31.944 23.209-25.472-35.06-37.905 27.54 25.47 35.06-31.942 23.209 23.013 31.676 31.943-23.21 25.473 35.058m-2.212 13.968-25.473-35.058-31.944 23.208-34.767-47.855 31.943-23.208-25.472-35.06 54.086-39.297 25.472 35.06 31.944-23.209 34.77 47.856-31.945 23.21 25.469 35.058Z"/><path data-name="多角形 90" d="m391.223 38.453-29.507 43.621-52.574-1.655 32.242 41.69-17.86 49.63 49.428-17.924 41.47 32.325-1.65-52.72 43.548-29.686-50.512-14.676-14.585-50.605m3.692-23.31 18.975 65.85 65.591 19.05-56.538 38.546 2.14 68.538-53.918-42.028-64.267 23.31 23.218-64.521-41.863-54.133 68.268 2.152Z"/><path data-name="長方形 1691" d="M64.413 183.913a53.953 53.953 0 0 0-39.253 65.329l12.967 52.008 104.582-26.076-12.967-52.007a53.953 53.953 0 0 0-65.329-39.254m-2.419-9.703a63.892 63.892 0 0 1 77.451 46.537l15.386 61.711-123.988 30.914-15.386-61.71a63.892 63.892 0 0 1 46.537-77.452Z"/></g></svg>