<svg xmlns="http://www.w3.org/2000/svg" width="1867.668" height="254.399"><path data-name="交差 1" d="M1485.668 254.399a156.026 156.026 0 0 1-27.595-2.423 141.645 141.645 0 0 1-25.352-7.022 131.04 131.04 0 0 1-22.667-11.248 123.835 123.835 0 0 1-19.537-15.1 119.675 119.675 0 0 1-27.914-40.259 134.7 134.7 0 0 1 .005-102.3 119.546 119.546 0 0 1 27.953-40.259 123.9 123.9 0 0 1 19.579-15.1 131.376 131.376 0 0 1 22.729-11.248 148.8 148.8 0 0 1 53.148-9.444 159.359 159.359 0 0 1 30.464 2.853 133.788 133.788 0 0 1 27.353 8.388 118.238 118.238 0 0 1 23.742 13.664 112.919 112.919 0 0 1 19.627 18.676l.3.365-.348.321-36.779 33.949-.338-.388c-16.475-18.93-37.074-28.528-61.222-28.528a85.351 85.351 0 0 0-31.41 5.718 71.271 71.271 0 0 0-40.723 40.625 89.219 89.219 0 0 0 0 63.113 71.27 71.27 0 0 0 40.723 40.625 85.351 85.351 0 0 0 31.41 5.718c24.25 0 44.847-9.715 61.219-28.875l.338-.4.382.352 36.748 33.927-.3.365a112.55 112.55 0 0 1-19.633 18.88 117.213 117.213 0 0 1-23.781 13.769c-17.278 7.486-36.833 11.286-58.121 11.286Zm.35-253.4c-76.776 0-132.5 53.075-132.5 126.2a129.287 129.287 0 0 0 10.006 50.757 118.666 118.666 0 0 0 27.681 39.924 122.829 122.829 0 0 0 19.38 14.978 130.028 130.028 0 0 0 22.493 11.162 140.63 140.63 0 0 0 25.173 6.972 155.014 155.014 0 0 0 27.417 2.407c21.15 0 40.572-3.769 57.726-11.2a112.649 112.649 0 0 0 42.739-32l-35.673-32.928a92.049 92.049 0 0 1-12.853 12.335 78.2 78.2 0 0 1-14.756 9.142 75.567 75.567 0 0 1-16.279 5.511 84.154 84.154 0 0 1-17.753 1.843 86.346 86.346 0 0 1-31.776-5.791 72.271 72.271 0 0 1-41.287-41.188 90.218 90.218 0 0 1 0-63.85 72.272 72.272 0 0 1 41.287-41.187 86.345 86.345 0 0 1 31.776-5.788c24.285 0 45.021 9.583 61.638 28.484l35.675-32.93a111.926 111.926 0 0 0-19.151-18.147 117.237 117.237 0 0 0-23.541-13.548 132.765 132.765 0 0 0-27.148-8.325 158.334 158.334 0 0 0-30.274-2.833Zm-1385.65 253.4a207.338 207.338 0 0 1-56.445-7.894 163.077 163.077 0 0 1-24.241-8.986A103.83 103.83 0 0 1 .311 225.945L0 225.699l.162-.36 19.5-43.261.5.363a132.735 132.735 0 0 0 37 18.347 143.8 143.8 0 0 0 43.553 7.107c15.87 0 27.97-2.492 35.963-7.407a23.133 23.133 0 0 0 8.195-8.14 20.327 20.327 0 0 0 2.592-10.2c0-8.5-4.951-14.82-15.58-19.889-9.678-4.616-23.1-7.733-37.3-11.033-10.208-2.372-20.763-4.824-31.039-8.044-11.691-3.664-21.135-7.77-28.874-12.555a71.511 71.511 0 0 1-11.953-9.163A55.27 55.27 0 0 1 7.207 94.999a72.4 72.4 0 0 1-2.189-18.2 69.834 69.834 0 0 1 6.385-29.7 68.7 68.7 0 0 1 19.306-24.453c8.853-7.177 19.753-12.748 32.4-16.557C76.516 2.051 91.878.003 108.77.003a195.712 195.712 0 0 1 23.143 1.376 183.55 183.55 0 0 1 22.522 4.107 155.122 155.122 0 0 1 21.019 6.809 119.971 119.971 0 0 1 18.633 9.485l.354.223-.158.388-17.714 43.578-.5-.282c-22.049-12.551-45.443-19.185-67.653-19.185a92.7 92.7 0 0 0-21.332 2.2 43.024 43.024 0 0 0-14.261 5.942 24.02 24.02 0 0 0-7.965 8.721 22.832 22.832 0 0 0-2.492 10.641c0 8.357 4.94 14.569 15.545 19.551 9.66 4.538 23.056 7.6 37.239 10.845 10.214 2.336 20.776 4.751 31.061 7.928 11.7 3.614 21.157 7.668 28.9 12.394a71.464 71.464 0 0 1 11.969 9.055 56.1 56.1 0 0 1 9.4 11.592 55.3 55.3 0 0 1 6.138 14.582 70.786 70.786 0 0 1 2.193 18 68.084 68.084 0 0 1-6.447 29.357 69.16 69.16 0 0 1-19.465 24.364c-8.935 7.188-19.91 12.773-32.621 16.6-13.505 4.062-28.954 6.125-45.91 6.125ZM1.236 225.394a103.414 103.414 0 0 0 18.872 11.22 162.079 162.079 0 0 0 24.092 8.93 206.323 206.323 0 0 0 56.168 7.855c16.858 0 32.21-2.048 45.629-6.087 12.587-3.789 23.449-9.314 32.282-16.421a68.172 68.172 0 0 0 19.188-24.012 67.094 67.094 0 0 0 6.35-28.929c0-23.251-9.558-40.384-29.221-52.378-7.676-4.682-17.057-8.7-28.679-12.292-10.249-3.165-20.793-5.577-30.989-7.908-14.237-3.256-27.684-6.331-37.441-10.915-5.246-2.465-9.082-5.19-11.727-8.332a18.637 18.637 0 0 1-3.253-5.517 18.944 18.944 0 0 1-1.14-6.607 23.821 23.821 0 0 1 2.6-11.1 25.007 25.007 0 0 1 8.288-9.085 44 44 0 0 1 14.592-6.089 93.688 93.688 0 0 1 21.565-2.223c22.217 0 45.6 6.58 67.652 19.034l17.133-42.139c-21.764-13.6-52.507-21.4-84.429-21.4-16.794 0-32.059 2.033-45.372 6.044-12.52 3.771-23.305 9.281-32.057 16.376a67.71 67.71 0 0 0-19.029 24.1 68.843 68.843 0 0 0-6.292 29.28c0 23.509 9.546 40.838 29.183 52.979 7.666 4.74 17.037 8.812 28.647 12.451 10.239 3.209 20.776 5.657 30.966 8.024 14.26 3.313 27.728 6.442 37.5 11.1 5.256 2.507 9.1 5.278 11.75 8.473a19.007 19.007 0 0 1 3.258 5.606 19.5 19.5 0 0 1 1.141 6.712 21.318 21.318 0 0 1-2.723 10.7 24.119 24.119 0 0 1-8.54 8.5c-8.153 5.013-20.429 7.555-36.487 7.555a136.132 136.132 0 0 1-22.214-1.883 151.418 151.418 0 0 1-21.646-5.273 134.236 134.236 0 0 1-36.787-18.13Zm1866.432 24.805h-190.7v-246h186.15v46.5h-128.8v52.2h113.75v45.1h-113.75v55.7h133.35Zm-189.7-1h188.7v-44.5h-133.35v-57.7h113.75v-43.1h-113.75v-54.2h128.8v-44.5h-184.15Zm-419.65 1h-57.7v-246h57.7Zm-56.7-1h55.7v-244h-55.7Zm-179.021 1h-56.654l-.13-.3-106-245.7h62.341l.13.3 74.093 173.928 75.266-174.228h57.44l-.3.7Zm-56-1h55.346l105.617-244h-55.26l-75.932 175.769-74.88-175.769h-60.16Zm-165.62 1h-62.121l-.149-.215-47.1-68.035h-51.389v68.25h-57.7v-246h106.55c16.2 0 31.138 2.081 44.385 6.186a96.939 96.939 0 0 1 33.679 17.774 77.462 77.462 0 0 1 21.372 28.164 91 91 0 0 1 7.464 37.276 94.87 94.87 0 0 1-3.415 25.807 77.892 77.892 0 0 1-9.924 21.807 77.075 77.075 0 0 1-15.935 17.449 91.027 91.027 0 0 1-20.865 12.5Zm-61.6-1h59.68l-54.754-78.467.565-.242c32.306-13.846 50.1-41.153 50.1-76.891 0-54.527-40.578-88.4-105.9-88.4H583.517v244h55.7v-68.25h52.912l.149.215Zm-253.512 1h-190.7v-246h186.15v46.5h-128.8v52.2h113.75v45.1H352.518v55.7h133.35Zm-189.7-1h188.7v-44.5H351.518v-57.7h113.75v-43.1h-113.75v-54.2h128.8v-44.5h-184.15Zm389.75-112.4h-46.7v-86.4h46.7a82.442 82.442 0 0 1 22.906 2.9 44.947 44.947 0 0 1 16.484 8.459 35.123 35.123 0 0 1 9.946 13.606 47.5 47.5 0 0 1 3.314 18.233 46.968 46.968 0 0 1-3.314 18.086 35.448 35.448 0 0 1-9.944 13.622 45.119 45.119 0 0 1-16.483 8.541 81.322 81.322 0 0 1-22.906 2.953Zm-45.7-1h45.7c33.307 0 51.65-14.987 51.65-42.2a46.509 46.509 0 0 0-3.238-17.85 34.133 34.133 0 0 0-9.665-13.223c-8.8-7.383-21.834-11.127-38.747-11.127h-45.7Z" fill="#ccc"/></svg>