<svg version="1.1" id="レイヤー_1" xmlns="http://www.w3.org/2000/svg" x="0" y="0" viewBox="0 0 1303 487.7" style="enable-background:new 0 0 1303 487.7" xml:space="preserve"><style>.st0{enable-background:new}.st1{fill:#222}.st2{fill:none}.st3,.st5,.st6{fill:none;stroke:#222;stroke-width:8}.st5,.st6{stroke-width:3}.st6{stroke-dasharray:10}.st7{fill:#fff}</style><g class="st0"><path class="st1" d="M345.4 5282.6c.5 1 .8 2 1.1 2.9v.1c0 .1-.1.1-.2.2l-.8.2h-.1c-.1 0-.1-.1-.1-.2l-.2-.7-1 .1v6.7H342.7v-6.5l-1.5.1c-.3 0-.5.1-.6.1-.1.1-.2.1-.2.1-.1 0-.1-.1-.2-.3-.1-.4-.2-.8-.2-1.3h1.4l.9-1.2c-.6-.8-1.3-1.5-2.1-2.3l-.1-.1s0-.1.1-.2l.6-.8c.1-.1.1-.1.2-.1 0 0 .1 0 .1.1l.4.4c.4-.6.6-1.1.9-1.6.2-.3.3-.7.4-1 .6.2 1 .4 1.4.6.1.1.2.2.2.3 0 .1 0 .1-.1.2s-.2.2-.3.4c-.4.8-.9 1.5-1.4 2.2.5.6.7.8.8.9.2-.4.6-1 1.1-1.8.2-.3.3-.7.5-1.1.6.3 1.1.5 1.3.7l.2.2c0 .1-.1.2-.2.2-.1.1-.3.3-.5.6-.8 1.2-1.6 2.3-2.4 3.5.4 0 1-.1 1.7-.1-.1-.4-.3-.7-.4-.9v-.1l.2-.2.6-.3h.2c-.4-.1-.4-.1-.3 0zm-5.6 7.7c.4-1.1.6-2.1.6-3.1v-.9c.4 0 .8.1 1.2.2.2 0 .3.1.3.2s0 .1-.1.2c0 0-.1.2-.1.5-.2 1.2-.3 2.2-.6 3-.1.2-.1.4-.2.4s-.1 0-.3-.1c-.1-.1-.4-.3-.8-.4zm5.7-3.9h.1c.1 0 .1.1.1.2.3 1 .5 1.9.6 2.7v.1c0 .1-.1.2-.2.2l-.8.2h-.2c-.1 0-.1 0-.1-.1-.1-1-.3-1.9-.5-2.8v-.1c0-.1.1-.1.2-.1l.8-.3zm6.2 1.5h-.9v2.1H354.6V5291.3h-9c-.1 0 0-.1 0-.1v-1.1c0-.1.1-.2.2-.2H349.2v-2.1h-2.6V5286.4h2.5v-.4c0-.8 0-1.4-.1-1.7.4 0 1 .1 1.6.1.2 0 .3.1.3.2s0 .2-.1.3c-.1.1-.1.5-.1 1v.4h3V5287.7h-.2l-1.8.2zm2.9-4.2c-.2.3-.4.7-.6 1.2-.1.3-.2.4-.3.4 0 0-.2 0-.4-.1-1.3-.4-2.3-.9-3.2-1.5-.7.5-1.7 1-2.8 1.4-.2.1-.4.1-.4.1-.1 0-.2-.1-.3-.3-.2-.3-.4-.7-.7-1 1.1-.3 2.1-.7 2.9-1.2-.8-.8-1.4-1.9-2-3.2H345.9V5278.2h6.1c.2 0 .3 0 .4-.1.1 0 .2-.1.2-.1.1 0 .4.1.7.4.3.3.5.5.5.6 0 .1-.1.2-.2.3-.1.1-.3.3-.4.7-.5 1-1.1 1.9-1.9 2.6 1 .4 2 .8 3.3 1.1zm-2.8-4.3h-3.2c.4.9.9 1.7 1.6 2.3.7-.6 1.3-1.4 1.6-2.3zM361.5 5277.8l1-.3h.2c.1 0 .1 0 .2.1.4.5.7 1 .9 1.5v.1s-.1.1-.2.1l-1.1.4h6.4c.4-.7.7-1.2.8-1.5.1-.3.2-.6.3-.8.6.1 1.1.3 1.5.5.1.1.2.1.2.2s0 .2-.1.3c-.1.1-.3.2-.3.4l-.3.6c-.1.2-.2.3-.3.5h2.6c.1 0 0 .1 0 .1V5283.6h-1.6c-.1 0 0-.1 0-.1v-2.1h-10.3V5283.7h-1.6v-3.7h2.6l-.1-.1c-.2-.5-.5-1-.8-1.5 0-.1-.1-.1-.1-.1-.1-.4 0-.5.1-.5zm6.7 4.2h2.2V5285.8c0 .1-.1.2-.2.2H367c-.1.3-.2.6-.4 1.1h5.3V5291.8H370.5c-.1 0-.2-.1-.2-.2v-.5h-7.7v.5c0 .1-.1.2-.2.2h-1.5V5286.9H364.8c.2-.4.3-.7.4-1.1h-2.8c-.1 0-.2-.1-.2-.2V5281.8h6zm-5.6 6.4v1.5h7.7v-1.5h-7.7zm1.4-5.2v1.4h4.8v-1.4H364zm2.3-5.9h.1c.1 0 .1 0 .2.1.3.5.6 1 .8 1.6v.1s-.1.1-.2.1l-1.1.3h-.2c-.1 0-.1-.1-.1-.2-.3-.7-.5-1.2-.8-1.6v-.1s.1-.1.2-.1l1.1-.2zM387 5279.4h-2.1V5278h7.9V5279.4h-3.3c-.1.3-.3.7-.5 1.2H392.1c.1 0 0 .1 0 .1v8.1h-6.5v-7.7c-.2.3-.4.6-.6 1.1-.1.2-.2.3-.3.3-.1 0-.2-.1-.4-.2s-.3-.3-.5-.5v1.3h-3.7c-.1 0-.2-.1-.2-.2v-1.1c-.3.3-.6.6-.8.7-.2.1-.3.2-.3.2-.1 0-.2-.1-.3-.4-.2-.4-.3-.7-.6-.9 1.2-.8 2.1-1.8 2.8-3.1.2-.4.3-.7.4-1.1.7.1 1.2.2 1.5.2.2 0 .3.1.3.2s-.1.2-.2.2l-.1.1c.7 1.2 1.7 2.2 3 3v-.5h1.8c.2-.3.3-.7.5-1.2h-.9zm-3.8 6.3h-1.4v6.2H380.3v-6.1h-1.8V5284.4h6.4v4.4c0 .5-.1.9-.4 1.1-.2.2-.7.4-1.4.4h-.2c-.2 0-.3 0-.3-.1 0 0-.1-.2-.1-.4-.1-.5-.2-.8-.4-1.1h.8c.1 0 .2 0 .3-.1 0-.1.1-.2.1-.3v-2.6zm.4-3.9c-.7-.7-1.3-1.5-1.7-2.4-.5.9-1.1 1.7-1.8 2.4h3.5zm3.3 7.1c.3.2.7.4 1.1.7.1.1.2.2.2.3 0 .1-.1.1-.2.2-.1 0-.2.1-.4.3-.8.7-1.6 1.2-2.6 1.6-.2.1-.3.1-.4.1-.1 0-.2-.1-.4-.4-.2-.4-.5-.6-.7-.8 1.2-.4 2.1-.9 2.8-1.4.3-.2.5-.4.6-.6zm3.6-7h-3.4v1h3.4v-1zm-3.4 3.3h3.4v-1h-3.4v1zm3.4 2.3v-1.1h-3.4v1.1h3.4zm2.7 3.2c-.2.2-.4.5-.7.9-.1.3-.2.4-.3.4-.1 0-.2-.1-.4-.2-.9-.5-1.7-1.1-2.5-1.9 0-.1-.1-.1-.1-.1s0-.1.1-.2l.7-.6c.1-.1.1-.1.2-.1 0 0 .1 0 .2.1.8.7 1.8 1.3 2.8 1.7zM406.9 5287.2c-.1.4-.1.7-.1 1 0 .3 0 .4-.1.5 0 .1-.2.1-.4.2-.9.3-2.1.7-3.6 1l-.6.2c-.2.1-.3.1-.3.1-.1 0-.2-.1-.2-.2-.1-.4-.2-.9-.3-1.4-.5.2-1.3.5-2.5.9-.2.1-.4.2-.5.2-.1.1-.2.1-.3.1-.1 0-.2-.1-.2-.2-.1-.4-.2-.9-.3-1.4.5-.1.9-.2 1.4-.3l.4-.1v-4.7h-1.4c-.1 0-.2-.1-.2-.2v-1.4h1.5v-1.5c0-1 0-1.8-.1-2.4.6 0 1.1.1 1.6.1.2 0 .2.1.2.2s0 .2-.1.3c-.1.2-.1.8-.1 1.8v1.5h1.3V5283.1h-1.3v4.1c.5-.2 1-.4 1.4-.6v1c0 .3 0 .4-.1.5 0 .1-.2.1-.4.2s-.3.1-.4.2c.5 0 1.1-.1 1.6-.2 1.7-.4 3-.7 4.1-1.1zm-3.1 3.7c1.8-.9 3.2-1.9 4.1-3.2-.4-1.6-.7-3.7-.8-6.3H402V5280h5.1v-.2c0-1-.1-1.7-.1-2.3.6 0 1.1.1 1.6.1.2 0 .3.1.3.2s0 .2-.1.3c-.1.2-.1.5-.1 1.1v.8H412v1.5h-3.2c.1 1.8.2 3.3.4 4.5.2-.5.5-1.1.7-1.8.2-.6.3-1.2.3-1.6.4.1.9.3 1.4.5.2.1.3.2.3.3 0 .1-.1.2-.2.3-.1.1-.2.3-.4.9-.4 1.4-.9 2.5-1.6 3.5.2.7.4 1.2.6 1.6.2.3.3.4.4.4.2 0 .4-.7.4-2 .2.2.4.4.8.6.2.1.3.2.3.2s.1.1.1.2v.3c-.1 1.1-.3 1.9-.6 2.2-.2.3-.6.5-1 .5-.8 0-1.5-.8-2.1-2.5-.8.9-1.8 1.7-3 2.4l-.4.2c-.1 0-.2-.1-.3-.3-.4-.6-.7-.8-1.1-1zm1.4-8.4h1.4V5286.6h-4c-.1 0 0-.1 0-.1v-4h2.6zm.1 3v-1.7h-1.5v1.7h1.5zm5.2-7.8c.4.4.7.8.9 1.3v.1c0 .1-.1.1-.2.2l-.7.3c-.1 0-.2.1-.2.1s-.1 0-.1-.1c-.2-.5-.5-1-.9-1.4l-.1-.1s.1-.1.2-.1l.7-.3h.2c.1-.1.2-.1.2 0z" transform="translate(-317.5 -5195)"/></g><g class="st0"><path class="st1" d="M1512.4 5278.3v8.1c0 1.6-.5 2.7-1.4 3.5-.8.7-1.9 1-3.2 1-1.6 0-2.8-.4-3.6-1.3-.8-.8-1.1-1.9-1.1-3.2v-8.1h2.2v8.1c0 1.9.9 2.9 2.6 2.9s2.6-1 2.6-2.9v-8.1h1.9zM1520.7 5278.3v12.4h-2.2v-12.4h2.2zM1533.2 5277l-6.5 15.2h-1l6.5-15.2h1zM1547.5 5278.3v8.1c0 1.6-.5 2.7-1.4 3.5-.8.7-1.9 1-3.2 1-1.6 0-2.8-.4-3.6-1.3-.8-.8-1.1-1.9-1.1-3.2v-8.1h2.2v8.1c0 1.9.9 2.9 2.6 2.9s2.6-1 2.6-2.9v-8.1h1.9zM1562.5 5278.3l-3.7 6 3.9 6.5h-2.5l-2.3-4c0-.1-.1-.2-.2-.4-.1-.1-.1-.3-.2-.4l-.4.8-2.3 4h-2.3l3.9-6.4-3.6-6h2.4l2 3.5c.1.1.1.3.3.5.1.2.2.3.2.4 0-.1.2-.4.5-.9l2-3.5h2.3zM1575.7 5279.4h-2.1V5278h7.9V5279.4h-3.3c-.1.3-.3.7-.5 1.2H1580.8c.1 0 0 .1 0 .1v8.1h-6.5v-7.7c-.2.3-.4.6-.6 1.1-.1.2-.2.3-.3.3-.1 0-.2-.1-.4-.2s-.3-.3-.5-.5v1.3h-3.7c-.1 0-.2-.1-.2-.2v-1.1c-.3.3-.6.6-.8.7-.2.1-.3.2-.3.2-.1 0-.2-.1-.3-.4-.2-.4-.3-.7-.6-.9 1.2-.8 2.1-1.8 2.8-3.1.2-.4.3-.7.4-1.1.7.1 1.2.2 1.5.2.2 0 .3.1.3.2s-.1.2-.2.2l-.1.1c.7 1.2 1.7 2.2 3 3v-.5h1.8c.2-.3.3-.7.5-1.2h-.9zm-3.8 6.3h-1.4v6.2H1569v-6.1h-1.8V5284.4h6.4v4.4c0 .5-.1.9-.4 1.1-.2.2-.7.4-1.4.4h-.2c-.2 0-.3 0-.3-.1 0 0-.1-.2-.1-.4-.1-.5-.2-.8-.4-1.1h.8c.1 0 .2 0 .3-.1 0-.1.1-.2.1-.3v-2.6zm.4-3.9c-.7-.7-1.3-1.5-1.7-2.4-.5.9-1.1 1.7-1.8 2.4h3.5zm3.3 7.1c.3.2.7.4 1.1.7.1.1.2.2.2.3 0 .1-.1.1-.2.2-.1 0-.2.1-.4.3-.8.7-1.6 1.2-2.6 1.6-.2.1-.3.1-.4.1-.1 0-.2-.1-.4-.4-.2-.4-.5-.6-.7-.8 1.2-.4 2.1-.9 2.8-1.4.3-.2.4-.4.6-.6zm3.6-7h-3.4v1h3.4v-1zm-3.4 3.3h3.4v-1h-3.4v1zm3.4 2.3v-1.1h-3.4v1.1h3.4zm2.7 3.2c-.2.2-.4.5-.7.9-.1.3-.2.4-.3.4-.1 0-.2-.1-.4-.2-.9-.5-1.7-1.1-2.5-1.9 0-.1-.1-.1-.1-.1s0-.1.1-.2l.7-.6c.1-.1.1-.1.2-.1s.1 0 .2.1c.8.7 1.7 1.3 2.8 1.7zM1595.6 5287.2c-.1.4-.1.7-.1 1 0 .3 0 .4-.1.5 0 .1-.2.1-.4.2-.9.3-2.1.7-3.6 1l-.6.2c-.2.1-.3.1-.3.1-.1 0-.2-.1-.2-.2-.1-.4-.2-.9-.3-1.4-.5.2-1.3.5-2.5.9-.2.1-.4.2-.5.2-.1.1-.2.1-.3.1-.1 0-.2-.1-.2-.2-.1-.4-.2-.9-.3-1.4.5-.1.9-.2 1.4-.3l.4-.1v-4.7h-1.4c-.1 0-.2-.1-.2-.2v-1.4h1.5v-1.5c0-1 0-1.8-.1-2.4.6 0 1.1.1 1.6.1.2 0 .2.1.2.2s0 .2-.1.3c-.1.2-.1.8-.1 1.8v1.5h1.3V5283.1c0 .1-.1 0-.1 0H1589.4v4.1c.5-.2 1-.4 1.4-.6v1c0 .3 0 .4-.1.5 0 .1-.2.1-.4.2s-.3.1-.4.2c.5 0 1.1-.1 1.6-.2 1.7-.4 3-.7 4.1-1.1zm-3.1 3.7c1.8-.9 3.2-1.9 4.1-3.2-.4-1.6-.7-3.7-.8-6.3h-5.1V5280h5.1v-.2c0-1-.1-1.7-.1-2.3.6 0 1.1.1 1.6.1.2 0 .3.1.3.2s0 .2-.1.3c-.1.2-.1.5-.1 1.1v.8H1600.7v1.5h-3.2c.1 1.8.2 3.3.4 4.5.2-.5.5-1.1.7-1.8.2-.6.3-1.2.3-1.6.4.1.9.3 1.4.5.2.1.3.2.3.3 0 .1-.1.2-.2.3-.1.1-.2.3-.4.9-.4 1.4-.9 2.5-1.6 3.5.2.7.4 1.2.6 1.6.2.3.3.4.4.4.2 0 .4-.7.4-2 .2.2.4.4.8.6.2.1.3.2.3.2s.1.1.1.2v.3c-.1 1.1-.3 1.9-.6 2.2-.2.3-.6.5-1 .5-.8 0-1.5-.8-2.1-2.5-.8.9-1.8 1.7-3 2.4l-.4.2c-.1 0-.2-.1-.3-.3-.4-.6-.8-.8-1.1-1zm1.3-8.4h1.4V5286.6h-4c-.1 0 0-.1 0-.1v-4c0-.1.1 0 .1 0h2.5zm.2 3v-1.7h-1.5v1.7h1.5zm5.2-7.8c.4.4.7.8.9 1.3v.1c0 .1-.1.1-.2.2l-.7.3c-.1 0-.2.1-.2.1s-.1 0-.1-.1c-.2-.5-.5-1-.9-1.4l-.1-.1s.1-.1.2-.1l.7-.3h.2c.1-.1.1-.1.2 0z" transform="translate(-317.5 -5195)"/></g><g transform="translate(213 160.324)"><circle class="st2" cx="120" cy="120" r="120"/><circle class="st3" cx="120" cy="120" r="116"/></g><g transform="translate(1 160.324)"><circle class="st2" cx="120" cy="120" r="120"/><circle class="st3" cx="120" cy="120" r="116"/></g><g transform="translate(425 160.324)"><circle class="st2" cx="120" cy="120" r="120"/><circle class="st3" cx="120" cy="120" r="116"/></g><g transform="translate(849 160.324)"><circle class="st2" cx="120" cy="120" r="120"/><circle class="st3" cx="120" cy="120" r="116"/></g><g transform="translate(637 160.324)"><circle class="st2" cx="120" cy="120" r="120"/><circle class="st3" cx="120" cy="120" r="116"/></g><g transform="translate(1061 160.324)"><circle class="st2" cx="120" cy="120" r="120"/><circle class="st3" cx="120" cy="120" r="116"/></g><g class="st0"><path class="st1" d="M394.7 5454.6c1.9-.6 3.5-1.3 4.9-1.9 1-.5 1.7-.9 2.1-1.4.5.5 1.1 1.1 1.7 1.8.1.1.2.3.2.4 0 .2-.1.3-.3.4-.3.1-.8.3-1.7.7-1.9.9-4.2 1.7-6.9 2.5v2.7c0 .5.1.8.2 1 .1.2.3.3.5.4.5.2 1.4.2 2.5.2 1.8 0 3.6-.2 5.6-.5h.1c.1 0 .2.1.2.3.1.7.1 1.3.1 1.7 0 .2-.1.3-.4.4-1.9.2-3.9.4-5.9.4-1.7 0-3-.2-3.8-.5-.9-.4-1.4-1.4-1.4-3v-7.4c0-1.6-.1-2.8-.2-3.7 1.2.1 2 .3 2.5.4.2.1.3.2.3.3 0 .1 0 .3-.1.4-.1.3-.2.9-.2 1.8v2.6zm7.3-5 1.1-.7h.1c.1 0 .1 0 .2.1.7.5 1.3 1.2 1.9 2.1 0 .1.1.1.1.1 0 .1 0 .1-.1.2l-.8.6c-.1 0-.1.1-.2.1s-.1 0-.2-.1c-.7-1-1.4-1.8-2.1-2.4zm1.8-1.3 1-.7h.1s.1 0 .2.1c.8.6 1.4 1.3 1.9 2.1 0 .1.1.1.1.2s0 .1-.1.2l-.8.6c-.1 0-.1.1-.2.1s-.1 0-.2-.1c-.6-1.1-1.2-1.9-2-2.5zM415.1 5455c.1-.1.3-.4.7-1.1.2-.3.3-.5.4-.6.1-.1.2-.2.3-.2h.1c1.4.5 2.7 1.1 3.8 2 .1.1.2.2.2.3 0 0 0 .1-.1.2-.2.4-.5.9-.9 1.5-.1.1-.2.2-.3.2-.1 0-.1 0-.2-.1-1.1-.8-2.4-1.6-4-2.2zm1.6 6.7c.8-.2 1.8-.5 2.7-1 2.2-1.1 4-2.3 5.5-3.5 2.1-1.6 4-3.4 5.8-5.6.1.6.3 1.4.6 2.2.1.2.1.3.1.4 0 .2-.1.3-.2.5-1.5 1.6-3.2 3.2-5.1 4.6-1.5 1.2-3.5 2.4-6 3.8-.7.4-1.1.6-1.2.7-.1.1-.2.2-.3.2-.1 0-.3-.1-.4-.2-.4-.4-.9-1.1-1.5-2.1zm.8-11.4 1.1-1.6c.1-.1.2-.2.3-.2.1 0 .1 0 .2.1 1.5.6 2.8 1.4 3.8 2.2.1.1.2.2.2.3 0 .1 0 .2-.1.3-.4.7-.7 1.2-1 1.5 0 .1-.1.1-.2.1s-.2 0-.3-.1c-1.3-1.1-2.6-2-4-2.6zm9.2-1.4 1.1-.7h.1c.1 0 .1 0 .2.1.7.5 1.3 1.2 1.9 2.1 0 .1.1.1.1.1 0 .1 0 .1-.1.2l-.8.6c-.1 0-.1.1-.2.1s-.1 0-.2-.1c-.7-1.1-1.4-1.8-2.1-2.4zm1.8-1.4 1-.7h.1s.1 0 .2.1c.8.6 1.4 1.3 1.9 2.1 0 .1.1.1.1.2s0 .1-.1.2l-.8.6c-.1 0-.1.1-.2.1s-.1 0-.2-.1c-.5-1.1-1.2-1.8-2-2.5zM448.5 5457.4v-2h-4.6c-.4 0-.9 0-1.5.1-.6 0-1 .1-1.3.1-.2 0-.3-.1-.3-.5 0-.3-.1-.9-.1-1.6.8.1 1.8.1 3.2.1h6.5c.2 0 .3.1.3.3v7.3c0 .6 0 1.5.1 2.8 0 .2 0 .3-.1.3s-.2.1-.3.1H449c-.2 0-.3 0-.3-.1v-.8H444c-.8 0-1.7 0-2.8.1-.2 0-.3-.1-.3-.4-.1-.4-.1-1-.1-1.7.7.1 1.8.1 3.2.1h4.7v-2.2h-4.2c-.7 0-1.6 0-2.7.1-.2 0-.3-.1-.3-.4-.1-.4-.1-.9-.1-1.6.9.1 1.9.1 3.1.1h4zM460.7 5451.3c.3-.4.8-.9 1.4-1.6.1-.1.2-.2.3-.2.1 0 .1 0 .3.1 1.2.7 2.5 1.6 3.8 2.8.1.1.2.2.2.3 0 .1 0 .2-.1.3-.4.6-.8 1.1-1.2 1.5l-.2.2c-.1 0-.1-.1-.3-.2-1.3-1.2-2.7-2.3-4.2-3.2zm.5 9.9c1.1-.3 2-.6 2.7-1 1.3-.7 2.4-1.3 3.2-1.8.7-.5 1.6-1.1 2.5-1.9 1.3-1.1 2.4-2 3.2-2.8.7-.8 1.5-1.6 2.3-2.6.1.9.3 1.7.6 2.3.1.2.1.3.1.4 0 .2-.1.4-.3.6-1.2 1.4-2.7 2.8-4.6 4.2-1.7 1.3-3.7 2.6-6 3.9-.7.4-1.1.7-1.3.9-.1.1-.3.2-.4.2s-.2-.1-.3-.2c-.8-.6-1.3-1.4-1.7-2.2z" transform="translate(-317.5 -5195)"/></g><g class="st0"><path class="st1" d="M433.5 5474.1c.6 0 1.1.2 1.5.7.3.4.5.8.5 1.3 0 .6-.2 1.1-.7 1.5-.4.3-.8.5-1.3.5-.6 0-1.1-.2-1.5-.7-.3-.4-.5-.8-.5-1.3 0-.6.2-1.1.7-1.5.3-.3.8-.5 1.3-.5z" transform="translate(-317.5 -5195)"/></g><g class="st0"><path class="st1" d="M390.5 5500.5c1.9-1.7 3.3-3.6 4.3-6 .5-1.2.8-2.2.9-3 1.1.4 1.9.7 2.5 1 .2.1.2.2.2.3 0 .1-.1.3-.2.4-.2.2-.4.6-.7 1.2-1.2 2.8-2.7 5-4.3 6.7-.2.2-.4.3-.6.3-.1 0-.3-.1-.5-.2-.3-.2-.9-.4-1.6-.7zm10.2-7.6c.2-.1.6-.4 1-.7.3-.2.5-.3.6-.4.1-.1.2-.1.3-.1.1 0 .2.1.3.2 2.1 2.1 3.7 4.5 5 7.3.1.1.1.2.1.3 0 .1-.1.2-.2.3-.5.4-1 .7-1.7 1.1-.1 0-.2.1-.2.1-.1 0-.2-.1-.3-.2-1.4-3.3-3-5.9-4.9-7.9zm6.2-4.6c.7 0 1.2.2 1.6.7.4.4.6.9.6 1.4 0 .6-.2 1.2-.7 1.6-.4.4-.9.5-1.5.5s-1.2-.2-1.6-.7c-.4-.4-.6-.9-.6-1.4 0-.7.2-1.2.7-1.6.5-.3.9-.5 1.5-.5zm0 1c-.4 0-.7.1-.9.4-.2.2-.3.5-.3.8 0 .4.1.7.4.9.2.2.5.3.8.3.4 0 .7-.1.9-.4.2-.2.3-.5.3-.8 0-.4-.1-.7-.4-.9-.2-.2-.5-.3-.8-.3zM417.1 5494.9c1 .2 2.5.2 4.3.2h11.1c.2 0 .3.1.3.3v1.8c0 .2-.1.3-.3.3h-11.8l-2.9.2c-.3 0-.4-.1-.5-.4-.1-.5-.2-1.3-.2-2.4zM441.1 5500.5c1.9-1.7 3.3-3.6 4.3-6 .5-1.2.8-2.2.9-3 1.1.4 1.9.7 2.5 1 .2.1.2.2.2.3 0 .1-.1.3-.2.4-.2.2-.4.6-.7 1.2-1.2 2.8-2.7 5-4.3 6.7-.2.2-.4.3-.6.3-.1 0-.3-.1-.5-.2-.2-.2-.8-.4-1.6-.7zm10.3-7.6c.2-.1.6-.4 1-.7.3-.2.5-.3.6-.4.1-.1.2-.1.3-.1.1 0 .2.1.3.2 2.1 2.1 3.7 4.5 5 7.3.1.1.1.2.1.3 0 .1-.1.2-.2.3-.5.4-1 .7-1.7 1.1-.1 0-.2.1-.2.1-.1 0-.2-.1-.3-.2-1.4-3.3-3.1-5.9-4.9-7.9zm6.1-4.6c.7 0 1.2.2 1.6.7.4.4.6.9.6 1.4 0 .6-.2 1.2-.7 1.6-.4.4-.9.5-1.5.5s-1.2-.2-1.6-.7c-.4-.4-.6-.9-.6-1.4 0-.7.2-1.2.7-1.6.5-.3 1-.5 1.5-.5zm0 1c-.4 0-.7.1-.9.4-.2.2-.3.5-.3.8 0 .4.1.7.4.9.2.2.5.3.8.3.4 0 .7-.1.9-.4.2-.2.3-.5.3-.8 0-.4-.1-.7-.4-.9-.2-.2-.4-.3-.8-.3zM477.8 5496.4c1.9 1.4 3.7 3 5.5 4.8.1.1.2.2.2.3 0 .1 0 .2-.1.3-.4.5-.9 1-1.3 1.4-.1.1-.2.1-.2.1s-.2-.1-.3-.2c-1.5-1.8-3.2-3.4-5.2-5-2.1 2.2-4.3 3.9-6.7 5.3-.2.1-.4.2-.5.2-.1 0-.2-.1-.3-.2-.4-.5-.9-.9-1.7-1.3 1.6-.8 3-1.7 4.1-2.5.9-.7 1.9-1.6 2.9-2.6 1.4-1.5 2.7-3.2 3.8-5h-5.2c-1 0-2.1 0-3.2.1-.1 0-.2-.1-.3-.3-.1-.5-.2-1.2-.2-2.1.7.1 1.8.1 3.4.1h5.5c.7 0 1.2-.1 1.4-.2.1-.1.1-.1.2-.1s.2.1.3.2c.4.3.9.8 1.3 1.4.1.1.1.2.1.3 0 .1-.1.3-.3.4-.3.2-.5.5-.7.9-.7 1.2-1.6 2.5-2.5 3.7z" transform="translate(-317.5 -5195)"/></g><g class="st0"><path class="st1" d="M601.9 5474.8c1.4-1.7 2.6-3.8 3.4-6.4.2-.6.3-1.1.3-1.4.8.2 1.4.5 1.8.7.2.1.3.2.3.4 0 .1-.1.2-.2.4-.1.1-.2.4-.4.8-.4 1.1-.8 2.1-1.1 2.9V5485.5h-2v-9.9c-.2.3-.5.8-1 1.3-.2.2-.3.3-.4.3-.1 0-.2-.1-.2-.3 0-1-.2-1.6-.5-2.1zm8.7-4.5H607.7v-1.9H620.6v1.9h-4.2v3.1h3.6v11.6h-2v-1h-8.4v1.1h-1.9v-11.7H611.1v-3.1h-.5zm-.9 11.8h1.5v-6.9h-1.5v6.9zm3.3-8.7h1.6v-3.1H613v3.1zm0 8.7h1.6v-6.9H613v6.9zm5.1-7h-1.6v6.9h1.6v-6.9zM627.9 5474.7c1.6-1.7 2.8-3.9 3.6-6.4.2-.5.3-1 .3-1.4.8.2 1.4.4 1.8.6.2.1.3.2.3.3 0 .1-.1.2-.2.4-.1.1-.3.4-.4.8-.4 1-.7 1.9-1.2 2.8V5485.2h-1.9c-.1 0-.2-.1-.2-.2v-9.9c-.4.5-.8 1-1.1 1.4-.2.2-.3.3-.4.3-.1 0-.2-.1-.2-.4 0-.8-.2-1.3-.4-1.7zm5.8-2.2c.7 0 1.4.1 2.1.1.2 0 .3.1.3.3 0 0 0 .2-.1.4s-.1.8-.1 1.7v7.4H646.7V5484.2h-10.8V5485.1h-2.1V5475c0-.9 0-1.8-.1-2.5zm3.5-1.8H634.3V5468.9H639.6l.1-.6c.1-.5.1-.9.1-1.2v-.2c.7 0 1.4.1 2 .2.2 0 .3.1.3.2s0 .2-.1.3c-.1.2-.2.4-.2.6-.1.3-.1.5-.1.7h4.7c.1 0 .2.1.2.2V5470.7h-5.2l-.3 1.5h4v9.2h-7.9v-9.2h1.8c0-.2.1-.5.2-.8.1-.3.1-.5.1-.7h-2.1zm2 3v1.1h4v-1.1h-4zm0 3.6h4v-1.2h-4v1.2zm4 2.6v-1.2h-4v1.2h4zM663.1 5478.6H660.2v-1.4c0 .1-.1.1-.3.2-.6.2-1 .4-1.3.5v.9l.1 4c0 1-.2 1.7-.6 2-.4.3-1.1.4-2.1.4h-.2c-.2 0-.3 0-.4-.1 0-.1-.1-.2-.1-.5-.1-.4-.2-.9-.5-1.5.4.1.9.1 1.5.1.3 0 .4-.2.4-.6v-4.1l-.7.2c-.3.1-.5.2-.7.3-.1.1-.2.1-.3.1-.1 0-.2-.1-.2-.2-.1-.5-.3-1.1-.4-1.9.6-.1 1.2-.2 1.9-.4l.5-.1v-3.9h-2.2v-1.9H656.8v-1c0-1.1-.1-2-.2-2.8.7 0 1.4.1 2.1.1.2 0 .3.1.3.2s0 .2-.1.4-.1.8-.1 2v1h1.3v1.9h-1.3v3.2c.7-.3 1.2-.5 1.8-.7-.1.4-.1.8-.1 1.4v.1H665.3v-.3c0-.9 0-1.5-.1-2 .6 0 1.2.1 1.9.1-.2-.2-.3-.6-.3-1v-1.3c0-.9 0-1.7-.1-2.1.5 0 1.1 0 1.8.1.2 0 .3.1.3.2s0 .2-.1.4c-.1.1-.1.5-.1 1.1v.8c0 .3 0 .5.1.6.1.1.4.1.8.1.5 0 .9-.1 1-.2.2-.2.3-.6.3-1.2.3.2.7.4 1.2.5.2.1.4.1.4.1.1 0 .1.1.1.2v.3c-.1.7-.3 1.2-.7 1.5-.4.3-1.2.5-2.4.5-1 0-1.7-.1-2-.2 0 .1-.1.2-.1.3-.1.1-.1.5-.1 1v.6h5.3V5478.4H668c1.2 1.5 2.9 2.8 5.1 3.7-.5.5-.8 1-1 1.4-.2.3-.3.5-.4.5-.1 0-.2-.1-.5-.2-1.8-1.1-3.2-2.4-4.1-3.9l.1 5.1c0 .1-.1.2-.2.2h-1.6c-.1 0-.2-.1-.2-.2v-5.2c-1 1.6-2.4 2.9-4.3 4l-.4.2c-.1 0-.2-.2-.4-.5-.3-.5-.6-.9-.9-1.2 2.1-1 3.8-2.3 5-3.9h-1.1zm.6-8.5c.9.2 1.5.3 1.8.4.2.1.3.1.3.2s0 .2-.1.3c-.1.2-.2.4-.3.7-.4 1.6-1.4 2.9-2.9 3.8-.2.1-.4.2-.5.2-.1 0-.2-.1-.4-.4-.2-.4-.6-.7-1-1.1 1.5-.6 2.5-1.6 2.9-2.9.1-.3.1-.7.2-1.2zm5.6-2.3H672.2V5471.4H670.4v-2h-8v2H660.6v-3.5c0-.1.1-.2.2-.2h8.5zM683.5 5472.6H680.7c-.1 0 0-.1 0-.2v-1.8H688.4v-1.2c0-1.1 0-1.9-.1-2.4.8 0 1.6.1 2.2.1.2 0 .3.1.3.2s0 .3-.1.5-.1.7-.1 1.5v1.3H698.2v2h-7.4c.4 1.3.9 2.5 1.7 3.6.8-.7 1.6-1.5 2.2-2.2.3-.3.5-.6.6-1 .7.4 1.2.8 1.6 1.1.2.2.2.3.2.4 0 .1-.1.2-.3.3-.3.1-.6.4-1 .8-.6.7-1.4 1.3-2.2 2 1.3 1.6 3.1 3 5.2 4.1-.4.4-.8.9-1.1 1.4-.2.3-.3.5-.4.5-.1 0-.2-.1-.5-.2-3.1-2-5.1-4.6-6.3-7.9.1 4 .1 6.4.1 7.3 0 .9-.3 1.5-.8 1.8-.4.3-1.4.4-2.8.4h-.2c-.2 0-.3 0-.4-.1 0 0-.1-.2-.2-.5-.2-.7-.5-1.2-.7-1.5.7.1 1.2.1 1.6.1.6 0 .9-.1 1.1-.2.1-.1.2-.3.2-.6v-9.8h-4.9zm3.8 4.8c0 .4.1.9.2 1.4.1.2.1.4.1.5 0 .1-.1.3-.4.5-1.4 1-2.9 2-4.4 2.8-.2.1-.4.2-.6.4-.1.1-.2.2-.3.2-.1 0-.2-.1-.3-.3l-.9-1.8c.4-.1 1-.4 1.6-.7 1.8-.8 3.4-1.8 5-3zm-3.6-4.1c1 .7 1.9 1.5 2.8 2.5.1.1.1.1.1.2 0 0 0 .1-.1.2l-1.1 1.1c-.1.1-.2.2-.3.2 0 0-.1 0-.1-.1-.8-1-1.6-1.9-2.7-2.6-.1-.1-.1-.1-.1-.2l.2-.2 1-1 .2-.2s.1 0 .1.1zm10.1-6.1c.6.4 1.4 1.1 2.2 1.9.1 0 .1.1.1.1 0 .1-.1.2-.2.3l-1 .8c-.1.1-.2.1-.2.1-.1 0-.1-.1-.2-.2-.5-.7-1.2-1.3-2.1-2l-.1-.1.2-.2.9-.8c.1-.1.2-.1.2-.1 0 .1.1.1.2.2z" transform="translate(-317.5 -5195)"/></g><g class="st0"><path class="st1" d="M1054.9 5470.5h4.9V5472.3h-7.2V5470.5H1054.9zm15.9 12.7c-.4.4-.6.9-.9 1.4-.2.4-.3.5-.4.5-.1 0-.2 0-.5-.1-1.6-.6-3-1.4-4.1-2.3-1.2 1-2.5 1.8-4.1 2.4-.2.1-.4.1-.5.1-.1 0-.2-.2-.4-.5-.3-.5-.6-.9-.9-1.2v1.4H1057.2V5484h-2.2v1.2H1053.2V5478.6h5.8v4.8c1.7-.5 3.2-1.2 4.5-2.2-1-1.2-1.8-2.6-2.4-4.2h-1.1V5475.4c0-.1.1-.2.2-.2h7.1c.2 0 .3 0 .4-.1.1-.1.2-.1.3-.1.1 0 .4.2.8.6.4.4.6.7.6.8 0 .2-.1.3-.2.4-.2.1-.3.3-.5.6-.6 1.3-1.4 2.6-2.4 3.7 1.4 1.1 2.9 1.7 4.5 2.1zm-15.4-15.4H1059.2v1.7h-5.8v-1.7h2zm.1 5.6h3.5v1.7h-5.4v-1.5c0-.1.1-.2.2-.2h1.7zm0 2.6h3.5v1.7h-5.4v-1.7h1.9zm1.8 4.4h-2.2v2h2.2v-2zm2.3-6.7c.8-.5 1.3-1.1 1.6-1.8.3-.7.5-1.5.5-2.5v-1.7h6V5471.6c0 .4 0 .6.1.7.1.1.3.1.6.1.2 0 .4-.1.5-.3.1-.2.2-.8.2-1.8.4.2.8.4 1.2.5.2.1.3.1.4.2 0 .1.1.1.1.3v.3c-.1 1.1-.3 1.8-.7 2.1-.3.3-1 .5-2 .5-.8 0-1.4-.1-1.7-.3-.4-.2-.5-.7-.5-1.4v-2.9h-2.1c0 1.3-.2 2.4-.6 3.2-.3.7-.8 1.3-1.3 1.9-.2.2-.4.3-.5.3s-.3-.1-.5-.4c-.6-.4-.9-.7-1.3-.9zm7.3 3.5h-3.7c.5 1.1 1.1 2.1 1.8 2.9.8-.9 1.5-1.9 1.9-2.9zM1080.8 5470.5H1086.6c.1 0 .2.1.2.2V5472.3H1078.5V5470.5H1080.8zm5.3 14.3v.2h-2v-.8h-2.5v1.2h-2V5478.8h6.5v6zm-4.5-17h4.5v1.7h-6.5v-1.7h2zm.1 5.5H1085.8v1.7h-6v-1.7h1.9zm0 2.7H1085.8v1.7h-6v-1.7h1.9zm2.3 4.4h-2.5v2h2.5v-2zm6.4-13.4c.9 0 1.6.1 2.2.1.2 0 .3.1.3.2v.2c0 .1-.1.2-.1.2-.1.2-.1 1-.1 2.2v3.6h4v2h-4v9.7h-2.2v-9.8H1086.6v-2H1090.5v-3.5c.1-1.2 0-2.2-.1-2.9z" transform="translate(-317.5 -5195)"/></g><g class="st0"><path class="st1" d="M843 5482.1H840.2V5480.3h4.4v-1.5H841.2v-7.7H850v7.7H846.6v1.5h3.8c.1 0 .2.1.2.2v1.4c0 .1-.1.2-.2.2h-3.8v3.2h-1.9v-3.2H843zm-.7-14.7c.4.7.9 1.6 1.3 2.5v.2c0 .1-.1.1-.3.2l-1.2.5c-.1 0-.2.1-.2.1-.1 0-.1-.1-.2-.2-.3-.8-.7-1.7-1.2-2.5v-.2c0-.1.1-.1.2-.2l1.2-.5h.2c.1-.1.2-.1.2.1zm.7 6.8h1.7v-1.5H843v1.5zm0 3.1h1.7v-1.6H843v1.6zm2.7-10.3c.4.8.8 1.7 1 2.6v.1c0 .1-.1.1-.2.2l-1.2.4c-.1 0-.2.1-.3.1-.1 0-.1-.1-.2-.2-.2-.9-.5-1.8-1-2.7v-.1c0-.1.1-.1.2-.1l1.1-.4h.2c.2 0 .3 0 .4.1zm2.5 5.7h-1.7v1.5h1.7v-1.5zm0 4.6v-1.6h-1.7v1.6h1.7zm-1.2-6.6c.5-.8.9-1.6 1.2-2.4.1-.4.2-.7.3-1.1.7.2 1.3.4 1.8.6.2.1.2.1.2.3 0 .2-.1.3-.2.3-.1.1-.2.2-.4.5-.4.9-.8 1.6-1.1 2.1-.1.2-.2.2-.3.2 0 0-.2 0-.4-.1-.2-.3-.6-.4-1.1-.4zm1.4 12.8c1.7-.8 3.3-2 4.7-3.5-.4-1.4-.7-3.1-.8-5.1l-1.4.2h-.1c-.1 0-.1-.1-.2-.2l-.2-1.6v-.1c0-.1.1-.1.2-.1l1.5-.1c-.1-1.1-.1-2.1-.1-3 0-1.3-.1-2.2-.2-2.8.8 0 1.5.1 2.1.2.2 0 .3.1.3.2s0 .3-.1.4c-.1.2-.1.8-.1 2 0 1 0 1.9.1 2.8l1.8-.2c1-.1 1.7-.3 2.3-.4h.1c.1 0 .1.1.1.2l.2 1.6v.1c0 .1-.1.1-.2.2 0 0-.3 0-.8.1s-1 .1-1.6.2l-1.9.3c.1 1.2.2 2.3.4 3.4.2-.2.4-.6.6-1.1.3-.6.5-1.1.7-1.7.5.2 1 .4 1.6.7.2.1.3.2.3.4 0 .1-.1.2-.3.4-.1.1-.3.4-.5.9-.5 1-1.1 2-1.7 2.8.5 1.6 1 2.4 1.4 2.4.2 0 .3-.2.4-.6.1-.4.2-1 .3-1.8.3.2.6.4 1 .6.3.2.5.3.5.5 0 .1 0 .2-.1.5-.3 2-1 3-1.9 3-1.2 0-2.2-1-3.1-3-1 1.1-2.2 2-3.6 2.8-.3.1-.4.2-.5.2-.1 0-.2-.2-.4-.5-.2-.6-.5-1-.8-1.3zm7.9-15.7c.7.7 1.2 1.5 1.7 2.4 0 .1.1.1.1.2s-.1.1-.2.2l-1.1.7c-.1.1-.2.1-.2.1l-.2-.2c-.5-.9-1-1.7-1.6-2.4-.1-.1-.1-.1-.1-.2s.1-.1.2-.2l1.1-.6c.1-.1.2-.1.2-.1l.1.1zM885.1 5476.5c-.3.4-.5.8-.6 1.2-.1.4-.2.6-.4.6-.1 0-.2 0-.4-.1-.1 0-.2-.1-.4-.2v7.3h-2v-1h-4.1v1h-2v-7.1c-.2.1-.3.1-.4.1s-.2-.2-.4-.5c-.1-.3-.4-.7-.6-1V5481.4H872.2v-1.1h-3.5V5481.9h-1.4c-.1 0-.2-.1-.2-.2v-13.2c0-.1.1-.2.2-.2H873.9V5472.2c1.2-1.1 2.3-2.5 3.1-4.3.1-.3.3-.7.4-1.2.7.1 1.4.2 1.9.3.2.1.3.1.3.3 0 .1-.1.2-.2.3-.1.1-.3.3-.4.7l-.2.5h3.3c.2 0 .4 0 .5-.1.1 0 .2-.1.2-.1.2 0 .4.2.7.5.4.4.6.7.6.8 0 .1-.1.3-.2.3s-.3.3-.6.8c-.8 1.2-1.5 2.3-2.3 3.2 1 1.1 2.4 1.8 4.1 2.3zm-16.5-6.5v3.5h1v-3.5h-1zm0 8.7h1v-3.6h-1v3.6zm3.5-8.7h-1v3.5h1v-3.5zm-1 8.7h1v-3.6h-1v3.6zm2.6-2.1c1.5-.5 2.9-1.3 4.2-2.3-.6-.7-1.1-1.4-1.5-2.1-.3.4-.7.8-1.1 1.2-.2.2-.3.3-.4.3-.1 0-.2-.1-.4-.4-.2-.3-.5-.6-.8-.8v4.1zm2.3 1.2H882.7c-1.3-.6-2.5-1.2-3.5-2.1-.9.8-2 1.5-3.2 2.1zm1.2 1.8v3h4.1v-3h-4.1zm3.9-9h-3.6l-.1.1c.5.9 1.1 1.7 1.8 2.5.8-.8 1.4-1.7 1.9-2.6z" transform="translate(-317.5 -5195)"/></g><g class="st0"><path class="st1" d="M1454.7 5485.2h-1.9v-15.6h4.3c.2-.5.5-1.1.7-1.9.1-.2.2-.5.2-.9.5.1 1.3.2 2.1.3.2 0 .3.1.3.3 0 .1-.1.2-.2.3-.2.2-.2.3-.3.5-.2.6-.5 1.1-.7 1.5H1466.1v15.5h-2.2v-1.1h-9v1.1h-.2zm.2-13.7v2.2h9v-2.2h-9zm0 6.3h9v-2.2h-9v2.2zm0 4.3h9v-2.4h-9v2.4zM1479.2 5475.6h-2.7v-1.9H1484.1v-2.2h-5.8c-.1 0-.2-.1-.2-.2v-1.5c0-.1.1-.2.2-.2h5.8v-.2c0-1 0-1.8-.1-2.4.9 0 1.6.1 2.2.1.2 0 .3.1.3.2s0 .2-.1.4-.1.7-.1 1.6v.3h6.2v1.9h-6.2v2.2h7.8v1.9h-7.8v2.4H1491.7v1.9h-5.4v3c.8.1 1.7.1 3 .1 1.6 0 3.3-.1 5.2-.3-.2.4-.3.9-.4 1.5-.1.3-.1.5-.2.6-.1 0-.2.1-.5.1-1 .1-2.3.1-3.9.1-1.9 0-3.3-.1-4.4-.4-1-.2-1.8-.6-2.5-1.1-.9-.6-1.5-1.2-2-1.9-.6 1.2-1.3 2.3-2.2 3.3-.2.2-.4.3-.4.3-.1 0-.2-.1-.4-.3-.4-.4-.8-.7-1.2-1 1.8-1.6 2.9-3.5 3.4-5.9.1-.4.2-.9.2-1.4.7.1 1.3.2 1.8.4.3.1.4.2.4.3 0 .1-.1.2-.2.3-.1.1-.2.4-.3.8-.1.4-.2.8-.3 1.4.5.8 1.1 1.4 1.9 2 .4.3.8.5 1.2.6v-6.7h-5.3zM1505.2 5471.9h-2.7v-2h7.5v-.3c0-1-.1-1.9-.2-2.6.9 0 1.7.1 2.3.1.2 0 .3.1.3.2s0 .2-.1.4c-.1.3-.1.8-.1 1.6v.5h7.8v2h-7.8v2.5h2.9c.3 0 .4 0 .6-.1.1-.1.2-.1.3-.1.1 0 .4.2.8.6.4.4.6.7.6.9 0 .1-.1.2-.3.4-.2.2-.4.3-.5.5-1.1 1.7-2.3 3.1-3.7 4.3 1.8 1 4.3 1.8 7.4 2.3-.3.4-.6 1-.9 1.6-.1.3-.3.5-.4.5-.1 0-.2 0-.4-.1-3.2-.7-5.7-1.7-7.6-3-1.9 1.2-4.3 2.2-7.2 2.9-.2.1-.3.1-.4.1-.1 0-.3-.2-.4-.5-.2-.5-.5-1-.8-1.4 3-.6 5.4-1.4 7.2-2.4-1.3-1.3-2.4-2.8-3.2-4.6h-2.2v-1.9h6v-2.5h-4.8zm9 4.4h-5.7c.7 1.3 1.7 2.5 2.8 3.4 1.1-1 2.1-2.1 2.9-3.4zM1528.3 5483.1c.3 0 .9.1 1.7.1.3 0 .4-.2.4-.6v-4l-.8.2c-.3.1-.5.2-.7.3-.1.1-.2.1-.3.1-.1 0-.2-.1-.3-.2-.1-.5-.2-1.1-.3-1.9.7-.1 1.3-.2 1.9-.4l.6-.2v-3.9H1528.2v-1.9h2.3v-1.1c0-1 0-2-.1-2.8.8 0 1.4.1 2 .1.2 0 .3.1.3.2s0 .2-.1.4-.1.8-.1 2v1.1h1.7v1.9h-1.7v3.2c.2-.1.7-.3 1.6-.6-.1.4-.1.9-.1 1.4 0 .3 0 .4-.1.5 0 .1-.2.1-.3.2-.3.1-.6.3-1 .4v.8l.1 4c0 1-.2 1.7-.6 2-.4.3-1.1.4-2.3.4h-.2c-.2 0-.3 0-.4-.1 0-.1-.1-.2-.1-.5-.4-.1-.5-.6-.8-1.1zm4.3.6c2.2-1.6 3.6-3.9 4.3-6.8H1534.5v-1.7h2.7c0-.2.1-.6.1-1.1h-2.6v-1.5h7.1c.4-.7.8-1.4 1.1-2.2.2-.4.3-.8.3-1.1.8.2 1.4.3 1.8.5.2.1.3.2.3.3 0 .1-.1.2-.2.3-.1.1-.2.2-.3.4-.5 1-.9 1.6-1 1.8h2.1v1.5h-6.7c-.1.5-.1.8-.1 1.1h7c.1 0 .2.1.2.2v1.5h-7.5c-.1.3-.2.6-.3 1.1h4.5c.1 0 .3 0 .4-.1.1 0 .2-.1.3-.1.2 0 .4.2.7.5.3.4.5.6.5.8 0 .1-.1.2-.2.3-.1.1-.3.3-.5.6-.7.9-1.3 1.7-1.9 2.3 1.1.5 2.5.9 4.3 1.3-.2.3-.4.7-.6 1.2-.1.4-.3.5-.4.5-.1 0-.2 0-.4-.1-1.7-.4-3.1-1-4.3-1.7-1.1.8-2.3 1.3-3.8 1.8-.2.1-.4.1-.5.1-.1 0-.2-.2-.4-.5-.2-.4-.4-.7-.7-1.1 1.5-.3 2.8-.8 3.9-1.5-.7-.6-1.2-1.2-1.7-1.9-.8 1.6-1.9 3-3.2 4.2-.2.2-.4.3-.4.3-.1 0-.2-.1-.4-.3-.4-.3-.7-.6-1.1-.9zm11.5-16.8c.5.3.9.7 1.3 1.1.2.2.2.3.2.3 0 .2-.1.2-.4.2-.1 0-.4 0-.9.1-2.4.5-5.2.8-8.5 1h-.4c-.2 0-.3 0-.4-.1-.1-.1-.1-.2-.2-.4-.1-.4-.3-.8-.6-1.1 3.3 0 6.2-.3 8.6-.8.6 0 1-.1 1.3-.3zm-7 3c.3.4.6 1 .9 1.7v.2c0 .1-.1.1-.2.2l-1.1.5c-.1 0-.2.1-.2.1-.1 0-.1-.1-.2-.2-.2-.6-.5-1.2-.8-1.7-.1-.1-.1-.1-.1-.2 0 0 .1-.1.2-.1l1.1-.4c.1 0 .2-.1.2-.1.1-.1.1 0 .2 0zm5.2 9.5h-3.7c.6.8 1.2 1.4 2 2 .7-.6 1.3-1.2 1.7-2zm-3.4-9.2c0-.2.1-.2.3-.3l.9-.3c.1 0 .2-.1.2-.1.1 0 .1 0 .2.1.4.6.7 1.2.9 1.8v.1c0 .1-.1.1-.2.2l-1.1.4c-.1.1-.2.1-.2.1-.1 0-.1-.1-.2-.2-.1-.4-.4-1-.8-1.8z" transform="translate(-317.5 -5195)"/></g><g class="st0"><path class="st1" d="M1270.5 5467.5h2c.1 0 .2.1.2.2V5473.9c0 .1-.1.2-.2.2h-5.3v11.2h-2.1v-17.7h5.4zm.2 1.5h-3.5v1.1h3.5v-1.1zm0 3.6v-1.2h-3.5v1.2h3.5zm-2.4 11.1c1.1-.7 1.8-1.7 2.1-2.9v-.4H1268V5478.8h2.5v-1.8H1268.6V5475.4h9.7V5477h-2v1.8h2.5V5480.4h-2.5v4.3h-1.9V5480.4h-2.1c0 .4-.1.7-.1.9-.3 1.3-.9 2.4-1.9 3.4-.2.2-.3.3-.4.3-.1 0-.2-.1-.5-.4-.2-.4-.6-.6-1.1-.9zm4.2-4.9h2v-1.8h-1.9c-.1.5-.1 1.1-.1 1.8zm5 4.2c.5.1.9.1 1.5.1.3 0 .6-.1.7-.2.1-.1.1-.3.1-.6v-8.2h-5.7v-6.6H1281.8v11.5l.1 3.7c0 .5 0 .9-.1 1.2-.1.3-.2.5-.4.7-.3.2-.6.4-1 .4-.4.1-.9.1-1.7.1-.3 0-.5 0-.6-.1-.1-.1-.1-.2-.2-.5 0-.6-.1-1.1-.4-1.5zm2.3-14h-3.7v1.1h3.7v-1.1zm0 3.6v-1.2h-3.7v1.2h3.7zM1306.3 5480.8c.4.2.8.4 1.4.6.2.1.4.1.4.2.1 0 .1.1.1.2v.3c-.1.8-.2 1.3-.4 1.7-.2.3-.4.6-.6.7-.5.3-1.5.5-2.9.5-1.6 0-2.7-.1-3.1-.4-.3-.2-.4-.4-.5-.6-.1-.2-.1-.6-.1-1v-3.3h-2.5c-.3 1.5-.9 2.6-1.8 3.5-.8.8-2 1.4-3.6 2-.3.1-.4.1-.4.1-.1 0-.3-.2-.4-.5-.3-.5-.6-1-1-1.3 1.7-.4 2.9-1 3.7-1.6.7-.6 1.2-1.3 1.5-2.3h-4.4V5477.8h4.7v-2.2h-1.5v-1c-.7.5-1.6 1-2.7 1.5-.2.1-.4.2-.5.2-.1 0-.2-.2-.4-.5-.2-.4-.5-.8-.8-1.1 1.4-.5 2.6-1.1 3.7-1.8-.7-.7-1.3-1.4-2-1.9l-.2-.2.2-.2 1-.8c.1-.1.2-.1.2-.1s.1 0 .2.1c.7.6 1.5 1.3 2.2 2 .9-.7 1.6-1.5 2.2-2.4H1293.5V5467.6H1300.4c.2 0 .3.1.3.2.2.6.5 1.2.9 1.7 0 0 .1.2.3.4.5-.4.9-.9 1.2-1.3.2-.2.4-.5.6-.8.4.2.9.5 1.5.9.1.1.2.2.2.3 0 .1-.1.2-.3.3-.2.1-.5.3-.7.5-.5.5-1 1-1.4 1.3.5.4.8.7 1.1.9.7-.6 1.2-1.1 1.7-1.7l.6-.9c.6.4 1.2.7 1.6.9.2.1.2.2.2.3 0 .1-.1.2-.3.3-.2.1-.4.3-.7.5-.4.4-1 .9-1.5 1.4 1 .5 2 1 3.3 1.4-.3.4-.5.8-.7 1.3-.1.3-.3.5-.4.5-.1 0-.2 0-.5-.1-1.2-.5-2.2-1.1-3.1-1.6v1.1h-1.6v2.1h4.9V5479.3h-4.9v2.7c0 .4.1.6.2.7.2.1.7.2 1.5.2s1.3-.1 1.6-.3c0 0 .2-.7.3-1.8zm-6.7-11c-.9 1.5-2.2 2.8-3.8 4h7.4c-1.5-1-2.7-2.4-3.6-4zm-1.4 8h2.2v-2.1h-2.2v.7c.1.3.1.8 0 1.4z" transform="translate(-317.5 -5195)"/></g><path style="fill:none;stroke:#000;stroke-width:3" d="M756 5618.5v29.5" transform="translate(-317.5 -5195)"/><path class="st1" d="M2.5 59.5h-2V.5h2v59z" transform="translate(120 393)"/><path class="st1" d="M1 1v58h1V1H1M0 0h3v60H0V0z" transform="translate(120 393)"/><path class="st5" d="M649 5588v30.5h210.8V5588M1171 5618.5v29.5M1066 5588v30.5h210.8V5588" transform="translate(-317.5 -5195)"/><g class="st0"><path class="st1" d="m1096.9 5676.4 1.3-2.5c1.3.9 3 1.5 4.6 1.5 1.8 0 2.9-.6 2.9-1.6 0-2.2-6.9-1-6.9-5.5 0-2.9 2.5-4.7 6.4-4.7 1.9 0 3.6.4 4.8 1.2l-1.2 2.5c-1.1-.7-2.4-1.1-3.8-1.1-1.9 0-3 .7-3 1.7 0 2.3 6.9 1.1 6.9 5.4 0 2.9-2.6 4.8-6.5 4.8-2.2-.1-4.4-.8-5.5-1.7zM1122.7 5673.2h-8.2c.1 1.5 1 2.2 2.8 2.2 1.1 0 2.1-.4 2.9-1l1.3 2.1c-1.2 1-2.9 1.4-4.5 1.4-3.4 0-5.5-1.9-5.5-4.8 0-3.6 2.6-6.3 6.3-6.3 3.1 0 5.1 1.9 5.1 4.7-.1.6-.1 1.2-.2 1.7zm-8.1-1.8h5.3c0-1.4-1-2.2-2.4-2.2-1.4-.1-2.4.8-2.9 2.2zM1133.6 5666.8l-.6 2.9h-.7c-1.8 0-3 .9-3.4 2.9l-1 5.2h-3.1l2.1-10.8h3l-.3 1.3c.9-1.1 2.2-1.5 4-1.5zM1147.5 5667l-6.7 10.8h-3.2l-2.4-10.8h3.1l1.6 7.3 4.5-7.3h3.1zM1149.7 5667h3.1l-2.1 10.8h-3.1l2.1-10.8zm.3-3.2c0-1 .8-1.9 2.1-1.9 1.1 0 1.8.7 1.8 1.6 0 1.1-.8 1.9-2.1 1.9-1.1.1-1.8-.7-1.8-1.6zM1154.8 5673.1c0-3.6 2.7-6.3 6.6-6.3 2.3 0 4 1 4.8 2.7l-2.6 1.3c-.5-1-1.3-1.5-2.4-1.5-1.8 0-3.2 1.4-3.2 3.5 0 1.5.9 2.4 2.5 2.4 1.1 0 2-.4 2.6-1.4l2.3 1.4c-1 1.6-2.9 2.6-5.1 2.6-3.4.1-5.5-1.8-5.5-4.7zM1178.8 5673.2h-8.2c.1 1.5 1 2.2 2.8 2.2 1.1 0 2.1-.4 2.9-1l1.3 2.1c-1.2 1-2.9 1.4-4.5 1.4-3.4 0-5.5-1.9-5.5-4.8 0-3.6 2.6-6.3 6.3-6.3 3.1 0 5.1 1.9 5.1 4.7 0 .6-.1 1.2-.2 1.7zm-8-1.8h5.3c0-1.4-1-2.2-2.4-2.2-1.5-.1-2.5.8-2.9 2.2zM1190.5 5663.7h5.9c4.3 0 6.9 2.3 6.9 5.8 0 4.9-3.5 8.2-8.7 8.2h-6.8l2.7-14zm4.1 11.4c3.4 0 5.3-2.3 5.3-5.3 0-2.1-1.3-3.4-4-3.4h-2.8l-1.7 8.7h3.2zM1216.5 5673.2h-8.2c.1 1.5 1 2.2 2.8 2.2 1.1 0 2.1-.4 2.9-1l1.3 2.1c-1.2 1-2.9 1.4-4.5 1.4-3.4 0-5.5-1.9-5.5-4.8 0-3.6 2.6-6.3 6.3-6.3 3.1 0 5.1 1.9 5.1 4.7 0 .6-.1 1.2-.2 1.7zm-8-1.8h5.3c0-1.4-1-2.2-2.4-2.2-1.5-.1-2.5.8-2.9 2.2zM1217.9 5676.8l1.2-2.3c.9.6 2.4 1 3.7 1 1.5 0 2.1-.4 2.1-1 0-1.5-5.7-.3-5.7-3.9 0-2.4 2.3-3.8 5.4-3.8 1.5 0 3 .3 4 .9l-1.1 2.3c-1-.6-2.2-.8-3.2-.8-1.4 0-2.1.5-2.1 1.1 0 1.6 5.7.3 5.7 3.9 0 2.5-2.3 3.8-5.4 3.8-1.9-.1-3.7-.6-4.6-1.2zM1232.3 5667h3.1l-2.1 10.8h-3.1l2.1-10.8zm.3-3.2c0-1 .8-1.9 2.1-1.9 1.1 0 1.8.7 1.8 1.6 0 1.1-.8 1.9-2.1 1.9-1.1.1-1.8-.7-1.8-1.6zM1250.4 5667l-1.8 9c-.8 4.1-3.2 5.8-6.9 5.8-2.1 0-3.9-.5-5.1-1.4l1.5-2.3c.8.7 2.3 1.2 3.8 1.2 2.2 0 3.1-1 3.5-2.8l.1-.5c-.8.8-2 1.2-3.3 1.2-2.7 0-4.8-1.7-4.8-4.5 0-3.3 2.6-5.9 6-5.9 1.6 0 3 .6 3.6 1.9l.3-1.8h3.1zm-4.2 4.5c0-1.3-.9-2.1-2.4-2.1-1.8 0-3.2 1.3-3.2 3.1 0 1.3.9 2.1 2.5 2.1 1.8 0 3.1-1.3 3.1-3.1zM1264.5 5670.5c0 .4 0 .8-.1 1.3l-1.2 6h-3.1l1.2-5.8c.1-.3.1-.5.1-.7 0-1.1-.6-1.7-1.8-1.7-1.6 0-2.7.9-3.1 2.8l-1.1 5.5h-3.1l2.1-10.8h3l-.2 1.2c1-.9 2.2-1.3 3.5-1.3 2.3-.2 3.8 1.1 3.8 3.5z" transform="translate(-317.5 -5195)"/></g><g class="st0"><path class="st1" d="M677.4 5673.3c0 3-2.7 4.4-6.3 4.4h-7.3l2.8-14h6.8c3 0 4.7 1.1 4.7 3.2 0 1.8-1 3-2.5 3.6 1.1.5 1.8 1.4 1.8 2.8zm-3.2 0c0-1-.8-1.4-2.1-1.4h-3.9l-.7 3.5h3.8c1.8-.1 2.9-.8 2.9-2.1zm-4.9-7.1-.7 3.3h3.3c1.7 0 2.7-.7 2.7-2 0-.9-.8-1.3-2.1-1.3h-3.2zM692.9 5667l-2.1 10.8h-3l.2-1.2c-1 .9-2.2 1.3-3.5 1.3-2.3 0-3.9-1.3-3.9-3.7 0-.4 0-.8.1-1.3l1.2-6h3.1l-1.1 5.8c-.1.3-.1.5-.1.8 0 1.1.6 1.7 1.8 1.7 1.5 0 2.6-.9 3-2.8l1.1-5.5h3.2zM693.9 5676.8l1.2-2.3c.9.6 2.4 1 3.7 1 1.5 0 2.1-.4 2.1-1 0-1.5-5.7-.3-5.7-3.9 0-2.4 2.3-3.8 5.4-3.8 1.5 0 3 .3 4 .9l-1.1 2.3c-1-.6-2.2-.8-3.2-.8-1.4 0-2.1.5-2.1 1.1 0 1.6 5.7.3 5.7 3.9 0 2.5-2.3 3.8-5.4 3.8-1.8-.1-3.6-.6-4.6-1.2zM708.4 5667h3.1l-2.1 10.8h-3.1l2.1-10.8zm.3-3.2c0-1 .8-1.9 2.1-1.9 1.1 0 1.8.7 1.8 1.6 0 1.1-.8 1.9-2.1 1.9-1.1.1-1.8-.7-1.8-1.6zM725.6 5670.5c0 .4 0 .8-.1 1.3l-1.2 6h-3.1l1.2-5.8c.1-.3.1-.5.1-.7 0-1.1-.6-1.7-1.8-1.7-1.6 0-2.7.9-3.1 2.8l-1.1 5.5h-3.1l2.1-10.8h3l-.2 1.2c1-.9 2.2-1.3 3.5-1.3 2.2-.2 3.8 1.1 3.8 3.5zM739.7 5673.2h-8.2c.1 1.5 1 2.2 2.8 2.2 1.1 0 2.1-.4 2.9-1l1.3 2.1c-1.2 1-2.9 1.4-4.5 1.4-3.4 0-5.5-1.9-5.5-4.8 0-3.6 2.6-6.3 6.3-6.3 3.1 0 5.1 1.9 5.1 4.7 0 .6-.1 1.2-.2 1.7zm-8-1.8h5.3c0-1.4-1-2.2-2.4-2.2-1.5-.1-2.5.8-2.9 2.2zM741.1 5676.8l1.2-2.3c.9.6 2.4 1 3.7 1 1.5 0 2.1-.4 2.1-1 0-1.5-5.7-.3-5.7-3.9 0-2.4 2.3-3.8 5.4-3.8 1.5 0 3 .3 4 .9l-1.1 2.3c-1-.6-2.2-.8-3.2-.8-1.4 0-2.1.5-2.1 1.1 0 1.6 5.7.3 5.7 3.9 0 2.5-2.3 3.8-5.4 3.8-1.9-.1-3.7-.6-4.6-1.2zM752.7 5676.8l1.2-2.3c.9.6 2.4 1 3.7 1 1.5 0 2.1-.4 2.1-1 0-1.5-5.7-.3-5.7-3.9 0-2.4 2.3-3.8 5.4-3.8 1.5 0 3 .3 4 .9l-1.1 2.3c-1-.6-2.2-.8-3.2-.8-1.4 0-2.1.5-2.1 1.1 0 1.6 5.7.3 5.7 3.9 0 2.5-2.3 3.8-5.4 3.8-1.9-.1-3.7-.6-4.6-1.2zM774.6 5663.7h5.9c4.3 0 6.9 2.3 6.9 5.8 0 4.9-3.5 8.2-8.7 8.2h-6.8l2.7-14zm4.2 11.4c3.4 0 5.3-2.3 5.3-5.3 0-2.1-1.3-3.4-4-3.4h-2.8l-1.7 8.7h3.2zM800.7 5673.2h-8.2c.1 1.5 1 2.2 2.8 2.2 1.1 0 2.1-.4 2.9-1l1.3 2.1c-1.2 1-2.9 1.4-4.5 1.4-3.4 0-5.5-1.9-5.5-4.8 0-3.6 2.6-6.3 6.3-6.3 3.1 0 5.1 1.9 5.1 4.7 0 .6-.1 1.2-.2 1.7zm-8.1-1.8h5.3c0-1.4-1-2.2-2.4-2.2-1.4-.1-2.4.8-2.9 2.2zM802 5676.8l1.2-2.3c.9.6 2.4 1 3.7 1 1.5 0 2.1-.4 2.1-1 0-1.5-5.7-.3-5.7-3.9 0-2.4 2.3-3.8 5.4-3.8 1.5 0 3 .3 4 .9l-1.1 2.3c-1-.6-2.2-.8-3.2-.8-1.4 0-2.1.5-2.1 1.1 0 1.6 5.7.3 5.7 3.9 0 2.5-2.3 3.8-5.4 3.8-1.9-.1-3.7-.6-4.6-1.2zM816.5 5667h3.1l-2.1 10.8h-3.1l2.1-10.8zm.2-3.2c0-1 .8-1.9 2.1-1.9 1.1 0 1.8.7 1.8 1.6 0 1.1-.8 1.9-2.1 1.9-1 .1-1.8-.7-1.8-1.6zM834.6 5667l-1.8 9c-.8 4.1-3.2 5.8-6.9 5.8-2.1 0-3.9-.5-5.1-1.4l1.5-2.3c.8.7 2.3 1.2 3.8 1.2 2.2 0 3.1-1 3.5-2.8l.1-.5c-.8.8-2 1.2-3.3 1.2-2.7 0-4.8-1.7-4.8-4.5 0-3.3 2.6-5.9 6-5.9 1.6 0 3 .6 3.6 1.9l.3-1.8h3.1zm-4.3 4.5c0-1.3-.9-2.1-2.4-2.1-1.8 0-3.2 1.3-3.2 3.1 0 1.3.9 2.1 2.5 2.1 1.8 0 3.1-1.3 3.1-3.1zM848.7 5670.5c0 .4 0 .8-.1 1.3l-1.2 6h-3.1l1.2-5.8c.1-.3.1-.5.1-.7 0-1.1-.6-1.7-1.8-1.7-1.6 0-2.7.9-3.1 2.8l-1.1 5.5h-3.1l2.1-10.8h3l-.2 1.2c1-.9 2.2-1.3 3.5-1.3 2.2-.2 3.8 1.1 3.8 3.5z" transform="translate(-317.5 -5195)"/></g><g class="st0"><path class="st1" d="m377.6 5663.7-8.9 14h-3.2l-3.3-14h3.3l2.3 10 6.3-10h3.5zM379.1 5667h3.1l-2.1 10.8H377l2.1-10.8zm.2-3.2c0-1 .8-1.9 2.1-1.9 1.1 0 1.8.7 1.8 1.6 0 1.1-.8 1.9-2.1 1.9-1 .1-1.8-.7-1.8-1.6zM383.3 5676.8l1.2-2.3c.9.6 2.4 1 3.7 1 1.5 0 2.1-.4 2.1-1 0-1.5-5.7-.3-5.7-3.9 0-2.4 2.3-3.8 5.4-3.8 1.5 0 3 .3 4 .9l-1.1 2.3c-1-.6-2.2-.8-3.2-.8-1.4 0-2.1.5-2.1 1.1 0 1.6 5.7.3 5.7 3.9 0 2.5-2.3 3.8-5.4 3.8-1.9-.1-3.7-.6-4.6-1.2zM397.7 5667h3.1l-2.1 10.8h-3.1l2.1-10.8zm.3-3.2c0-1 .8-1.9 2.1-1.9 1.1 0 1.8.7 1.8 1.6 0 1.1-.8 1.9-2.1 1.9-1.1.1-1.8-.7-1.8-1.6zM402.8 5673.1c0-3.6 2.7-6.3 6.5-6.3 3.3 0 5.4 1.9 5.4 4.8 0 3.6-2.7 6.3-6.5 6.3-3.3 0-5.4-1.9-5.4-4.8zm8.7-1.3c0-1.5-.9-2.4-2.4-2.4-1.8 0-3.2 1.4-3.2 3.5 0 1.5.9 2.4 2.5 2.4 1.8 0 3.1-1.4 3.1-3.5zM429 5670.5c0 .4 0 .8-.1 1.3l-1.2 6h-3.1l1.2-5.8c.1-.3.1-.5.1-.7 0-1.1-.6-1.7-1.8-1.7-1.6 0-2.7.9-3.1 2.8l-1.1 5.5h-3.1l2.1-10.8h3l-.2 1.2c1-.9 2.2-1.3 3.5-1.3 2.2-.2 3.8 1.1 3.8 3.5zM441.1 5663.7h5.9c4.3 0 6.9 2.3 6.9 5.8 0 4.9-3.5 8.2-8.7 8.2h-6.8l2.7-14zm4.2 11.4c3.4 0 5.3-2.3 5.3-5.3 0-2.1-1.3-3.4-4-3.4h-2.8l-1.7 8.7h3.2zM467.1 5673.2h-8.2c.1 1.5 1 2.2 2.8 2.2 1.1 0 2.1-.4 2.9-1l1.3 2.1c-1.2 1-2.9 1.4-4.5 1.4-3.4 0-5.5-1.9-5.5-4.8 0-3.6 2.6-6.3 6.3-6.3 3.1 0 5.1 1.9 5.1 4.7 0 .6-.1 1.2-.2 1.7zm-8-1.8h5.3c0-1.4-1-2.2-2.4-2.2-1.4-.1-2.5.8-2.9 2.2zM468.5 5676.8l1.2-2.3c.9.6 2.4 1 3.7 1 1.5 0 2.1-.4 2.1-1 0-1.5-5.7-.3-5.7-3.9 0-2.4 2.3-3.8 5.4-3.8 1.5 0 3 .3 4 .9l-1.1 2.3c-1-.6-2.2-.8-3.2-.8-1.4 0-2.1.5-2.1 1.1 0 1.6 5.7.3 5.7 3.9 0 2.5-2.3 3.8-5.4 3.8-1.9-.1-3.7-.6-4.6-1.2zM483 5667h3.1l-2.1 10.8h-3.1l2.1-10.8zm.2-3.2c0-1 .8-1.9 2.1-1.9 1.1 0 1.8.7 1.8 1.6 0 1.1-.8 1.9-2.1 1.9-1.1.1-1.8-.7-1.8-1.6zM501.1 5667l-1.8 9c-.8 4.1-3.2 5.8-6.9 5.8-2.1 0-3.9-.5-5.1-1.4l1.5-2.3c.8.7 2.3 1.2 3.8 1.2 2.2 0 3.1-1 3.5-2.8l.1-.5c-.8.8-2 1.2-3.3 1.2-2.7 0-4.8-1.7-4.8-4.5 0-3.3 2.6-5.9 6-5.9 1.6 0 3 .6 3.6 1.9l.3-1.8h3.1zm-4.3 4.5c0-1.3-.9-2.1-2.4-2.1-1.8 0-3.2 1.3-3.2 3.1 0 1.3.9 2.1 2.5 2.1 1.8 0 3.1-1.3 3.1-3.1zM515.1 5670.5c0 .4 0 .8-.1 1.3l-1.2 6h-3.1l1.2-5.8c.1-.3.1-.5.1-.7 0-1.1-.6-1.7-1.8-1.7-1.6 0-2.7.9-3.1 2.8l-1.1 5.5h-3.1l2.1-10.8h3l-.2 1.2c1-.9 2.2-1.3 3.5-1.3 2.3-.2 3.8 1.1 3.8 3.5z" transform="translate(-317.5 -5195)"/></g><g class="st0"><path class="st1" d="m1399.4 5663.7-2.8 14h-3l1.6-8.3-5.3 6.8h-1.4l-2.9-6.9-1.7 8.4h-3l2.8-14h2.6l3.5 8.7 6.8-8.7h2.8zM1413.8 5667l-2.1 10.8h-3l.2-1.1c-.9.8-2 1.2-3.3 1.2-2.5 0-4.6-1.8-4.6-4.8 0-3.6 2.6-6.3 5.9-6.3 1.6 0 2.8.5 3.5 1.6l.3-1.5h3.1zm-4.1 4.8c0-1.5-.9-2.4-2.5-2.4-1.8 0-3.2 1.4-3.2 3.5 0 1.5.9 2.4 2.5 2.4 1.9 0 3.2-1.4 3.2-3.5zM1427.8 5670.5c0 .4 0 .8-.1 1.3l-1.2 6h-3.1l1.2-5.8c.1-.3.1-.5.1-.7 0-1.1-.6-1.7-1.8-1.7-1.6 0-2.7.9-3.1 2.8l-1.1 5.5h-3.1l2.1-10.8h3l-.2 1.2c1-.9 2.2-1.3 3.5-1.3 2.3-.2 3.8 1.1 3.8 3.5zM1443.5 5667l-2.1 10.8h-3l.2-1.1c-.9.8-2 1.2-3.3 1.2-2.5 0-4.6-1.8-4.6-4.8 0-3.6 2.6-6.3 5.9-6.3 1.6 0 2.8.5 3.5 1.6l.3-1.5h3.1zm-4.1 4.8c0-1.5-.9-2.4-2.5-2.4-1.8 0-3.2 1.4-3.2 3.5 0 1.5.9 2.4 2.5 2.4 1.9 0 3.2-1.4 3.2-3.5zM1458.5 5667l-1.8 9c-.8 4.1-3.2 5.8-6.9 5.8-2.1 0-3.9-.5-5.1-1.4l1.5-2.3c.8.7 2.3 1.2 3.8 1.2 2.2 0 3.1-1 3.5-2.8l.1-.5c-.8.8-2 1.2-3.3 1.2-2.7 0-4.8-1.7-4.8-4.5 0-3.3 2.6-5.9 6-5.9 1.6 0 3 .6 3.6 1.9l.3-1.8h3.1zm-4.3 4.5c0-1.3-.9-2.1-2.4-2.1-1.8 0-3.2 1.3-3.2 3.1 0 1.3.9 2.1 2.5 2.1 1.8 0 3.1-1.3 3.1-3.1zM1471.7 5673.2h-8.2c.1 1.5 1 2.2 2.8 2.2 1.1 0 2.1-.4 2.9-1l1.3 2.1c-1.2 1-2.9 1.4-4.5 1.4-3.4 0-5.5-1.9-5.5-4.8 0-3.6 2.6-6.3 6.3-6.3 3.1 0 5.1 1.9 5.1 4.7 0 .6-.1 1.2-.2 1.7zm-8-1.8h5.3c0-1.4-1-2.2-2.4-2.2-1.4-.1-2.5.8-2.9 2.2zM1493.3 5670.4c0 .4 0 .8-.1 1.3l-1.2 6h-3.1l1.1-5.7c.1-.3.1-.6.1-.8 0-1.1-.6-1.7-1.7-1.7-1.4 0-2.4.8-2.8 2.7l-1.1 5.5h-3.1l1.1-5.7c.1-.3.1-.6.1-.8 0-1.1-.6-1.7-1.7-1.7-1.5 0-2.4.8-2.8 2.7l-1.1 5.5h-3.1l2.1-10.8h3l-.2 1.1c.9-.9 2.1-1.3 3.4-1.3 1.5 0 2.7.6 3.3 1.8 1-1.1 2.4-1.8 4.1-1.8 2.1.1 3.7 1.4 3.7 3.7zM1507.4 5673.2h-8.2c.1 1.5 1 2.2 2.8 2.2 1.1 0 2.1-.4 2.9-1l1.3 2.1c-1.2 1-2.9 1.4-4.5 1.4-3.4 0-5.5-1.9-5.5-4.8 0-3.6 2.6-6.3 6.3-6.3 3.1 0 5.1 1.9 5.1 4.7 0 .6-.1 1.2-.2 1.7zm-8-1.8h5.3c0-1.4-1-2.2-2.4-2.2-1.5-.1-2.5.8-2.9 2.2zM1521.8 5670.5c0 .4 0 .8-.1 1.3l-1.2 6h-3.1l1.2-5.8c.1-.3.1-.5.1-.7 0-1.1-.6-1.7-1.8-1.7-1.6 0-2.7.9-3.1 2.8l-1.1 5.5h-3.1l2.1-10.8h3l-.2 1.2c1-.9 2.2-1.3 3.5-1.3 2.2-.2 3.8 1.1 3.8 3.5zM1528.5 5673.9v.4c0 .7.4 1 1.1 1 .4 0 .9-.1 1.3-.4l.5 2.2c-.8.5-1.7.6-2.7.6-2 0-3.4-1.1-3.4-3 0-.3 0-.6.1-.9l.9-4.3h-1.7l.5-2.4h1.7l.5-2.6h3.1l-.5 2.6h2.7l-.5 2.4h-2.7l-.9 4.4zM1543.6 5663.7h5.9c4.3 0 6.9 2.3 6.9 5.8 0 4.9-3.5 8.2-8.7 8.2h-6.8l2.7-14zm4.2 11.4c3.4 0 5.3-2.3 5.3-5.3 0-2.1-1.3-3.4-4-3.4h-2.8l-1.7 8.7h3.2zM1569.7 5673.2h-8.2c.1 1.5 1 2.2 2.8 2.2 1.1 0 2.1-.4 2.9-1l1.3 2.1c-1.2 1-2.9 1.4-4.5 1.4-3.4 0-5.5-1.9-5.5-4.8 0-3.6 2.6-6.3 6.3-6.3 3.1 0 5.1 1.9 5.1 4.7-.1.6-.1 1.2-.2 1.7zm-8.1-1.8h5.3c0-1.4-1-2.2-2.4-2.2-1.4-.1-2.4.8-2.9 2.2zM1571 5676.8l1.2-2.3c.9.6 2.4 1 3.7 1 1.5 0 2.1-.4 2.1-1 0-1.5-5.7-.3-5.7-3.9 0-2.4 2.3-3.8 5.4-3.8 1.5 0 3 .3 4 .9l-1.1 2.3c-1-.6-2.2-.8-3.2-.8-1.4 0-2.1.5-2.1 1.1 0 1.6 5.7.3 5.7 3.9 0 2.5-2.3 3.8-5.4 3.8-1.9-.1-3.7-.6-4.6-1.2zM1585.5 5667h3.1l-2.1 10.8h-3.1l2.1-10.8zm.2-3.2c0-1 .8-1.9 2.1-1.9 1.1 0 1.8.7 1.8 1.6 0 1.1-.8 1.9-2.1 1.9-1 .1-1.8-.7-1.8-1.6zM1603.6 5667l-1.8 9c-.8 4.1-3.2 5.8-6.9 5.8-2.1 0-3.9-.5-5.1-1.4l1.5-2.3c.8.7 2.3 1.2 3.8 1.2 2.2 0 3.1-1 3.5-2.8l.1-.5c-.8.8-2 1.2-3.3 1.2-2.7 0-4.8-1.7-4.8-4.5 0-3.3 2.6-5.9 6-5.9 1.6 0 3 .6 3.6 1.9l.3-1.8h3.1zm-4.3 4.5c0-1.3-.9-2.1-2.4-2.1-1.8 0-3.2 1.3-3.2 3.1 0 1.3.9 2.1 2.5 2.1 1.8 0 3.1-1.3 3.1-3.1zM1617.7 5670.5c0 .4 0 .8-.1 1.3l-1.2 6h-3.1l1.2-5.8c.1-.3.1-.5.1-.7 0-1.1-.6-1.7-1.8-1.7-1.6 0-2.7.9-3.1 2.8l-1.1 5.5h-3.1l2.1-10.8h3l-.2 1.2c1-.9 2.2-1.3 3.5-1.3 2.2-.2 3.8 1.1 3.8 3.5z" transform="translate(-317.5 -5195)"/></g><path class="st1" d="M1497.5 5588h3v60h-3v-60z" transform="translate(-317.5 -5195)"/><g class="st0"><path class="st1" d="M522.8 5307.3c-.1 1.7-.3 3.1-.5 4.2-.2 1-.6 2-1.1 3-.6 1.1-1.4 2.2-2.4 3.3-.8.8-1.7 1.5-2.5 2-.4.2-.6.3-.8.3-.2 0-.4-.1-.6-.3-.6-.6-1.4-1.1-2.5-1.5 1.5-.8 2.7-1.6 3.6-2.4.8-.7 1.5-1.6 2-2.6.5-.9.9-1.9 1.1-2.9.2-.8.3-1.8.3-3.1H514c-.9 0-2.3.1-4.2.2-.2 0-.3-.2-.4-.5-.1-.8-.2-1.7-.2-2.7 1 .1 2.6.1 4.8.1h12.6c2 0 3.8-.1 5.5-.2.2 0 .3.2.3.6v2.2c0 .3-.1.5-.4.5-1.9-.1-3.7-.1-5.3-.1h-3.9zm-10.2-9.6c1.6.1 3.2.1 4.6.1h5.2c1.9 0 3.5 0 4.7-.1.2 0 .3.2.3.5v2c0 .4-.1.5-.4.5-1.5-.1-3-.1-4.7-.1h-5.2c-.6 0-1.9 0-4 .1-.3 0-.5-.2-.5-.5s-.1-.7-.1-1.3c.2-.5.2-.9.1-1.2zm15.1-.9 1.6-.9h.2c.1 0 .2 0 .2.1.9.8 1.6 1.9 2.4 3.2 0 .1.1.1.1.2s-.1.2-.2.3l-1.3.8c-.1 0-.1.1-.2.1s-.2-.1-.3-.2c-.7-1.6-1.6-2.7-2.5-3.6zm2.8-1.6 1.5-.9c.1 0 .1-.1.2-.1s.1 0 .2.2c1 .9 1.8 2 2.4 3.1 0 .1.1.1.1.2s-.1.2-.2.3l-1.2.8c-.1 0-.2.1-.2.1-.1 0-.2-.1-.3-.2-.7-1.4-1.5-2.5-2.5-3.5zM564.2 5302.9h1c1.5 0 2.9 0 4.2-.1h.1c.2 0 .3.2.3.5v2.2c0 .3-.2.5-.4.5H564.2c-.1 2.1-.3 3.9-.7 5.2-.3 1.2-.8 2.3-1.5 3.4-1.3 2.2-3.5 4-6.6 5.2-.4.2-.7.2-.8.2-.1 0-.3-.1-.5-.3-.7-.8-1.5-1.3-2.3-1.7 2.1-.7 3.8-1.4 5-2.2 1.1-.7 1.9-1.6 2.6-2.7.6-.9 1-2 1.2-3.2.2-1 .4-2.4.4-4h-6v1c0 2.1 0 3.7.1 4.6 0 .2-.1.4-.5.4h-2.4c-.3 0-.5-.1-.5-.3v-.1c.1-1.6.2-3.1.2-4.6v-1.1h-.9c-1.6 0-3.2 0-4.6.1-.2 0-.3-.2-.3-.5-.1-.3-.1-1.2-.2-2.7 1.3.1 3 .1 5.1.1h.8v-2.1c0-1.4-.1-2.8-.3-4.1 1.9.2 3 .3 3.4.5.3 0 .4.2.4.4 0 .1-.1.3-.2.6s-.2 1.2-.2 2.7v2.1h6V5299.6c0-1.3-.1-2.4-.3-3.3 1.7.2 2.8.3 3.3.5.3.1.5.2.5.5 0 .1 0 .3-.1.5-.1.4-.2 1.2-.2 2.5v2.6zm.9-6.1 1.5-.7h.1c.1 0 .2 0 .2.2.8.9 1.5 2 2.2 3.4v.2c0 .1-.1.2-.2.3l-1.1.6c-.1 0-.2.1-.2.1-.1 0-.2-.1-.3-.2-.6-1.7-1.3-2.9-2.2-3.9zm2.7-1.2 1.4-.6c.1 0 .1-.1.2-.1s.2.1.2.2c.9 1 1.6 2.1 2.1 3.3 0 .1.1.1.1.2s-.1.2-.2.3l-1.1.6c-.1 0-.1.1-.2.1s-.2-.1-.3-.2c-.5-1.6-1.3-2.8-2.2-3.8zM596.7 5304.2v9.3c0 1.6 0 3.6.1 5.8v.1c0 .3-.1.4-.4.4h-2.8c-.3 0-.4-.1-.4-.4v-.1c0-.4 0-1.5.1-3.1v-9.1c-2.8 2.4-5.4 4.2-7.7 5.4-.1.1-.3.1-.4.1-.2 0-.4-.1-.6-.3-.5-.5-1.3-1.1-2.4-1.7 3.3-1.7 6.2-3.6 8.8-5.7 2.3-1.9 4.3-3.8 6-5.9.8-1 1.4-1.9 1.8-2.9 1.5.8 2.5 1.5 3.1 2 .1.1.2.2.2.4s-.1.5-.4.6c-.4.3-1 .8-1.7 1.5-1 1.2-2.1 2.4-3.3 3.6zM615 5301.3c.5-.6 1.1-1.3 2-2.2.1-.1.3-.2.4-.2.1 0 .2 0 .4.1 1.7.9 3.5 2.3 5.3 4 .2.2.2.3.2.4s-.1.2-.2.4c-.6.8-1.2 1.5-1.7 2.1-.2.1-.3.2-.3.2-.1 0-.2-.1-.4-.2-1.7-1.8-3.6-3.3-5.7-4.6zm.6 14c1.5-.4 2.8-.9 3.8-1.4 1.8-.9 3.3-1.8 4.5-2.6 1-.7 2.2-1.6 3.6-2.6 1.9-1.5 3.4-2.8 4.5-3.9 1-1.1 2.1-2.3 3.2-3.7.1 1.2.4 2.3.8 3.3.1.2.1.4.1.5 0 .2-.2.5-.5.8-1.6 1.9-3.8 3.9-6.4 5.9-2.3 1.8-5.1 3.6-8.4 5.5-1 .6-1.6 1-1.9 1.3-.2.2-.4.3-.5.3-.1 0-.3-.1-.5-.3-.9-1-1.7-2-2.3-3.1zM657 5304.5c.8 1.8 1.5 3.4 1.9 5v.2c0 .1-.1.2-.4.3l-1.4.4c-.1 0-.2.1-.3.1-.1 0-.2-.1-.2-.3l-.3-1.2-1.7.2v7.7l.1 3.7c0 .1 0 .2-.1.3H652.3c-.1 0-.2 0-.3-.1s0-.1 0-.3l.1-3.7v-7.5l-2.5.2c-.5 0-.8.1-1 .2-.2.1-.3.1-.4.1-.1 0-.2-.2-.3-.5-.1-.6-.3-1.4-.4-2.4.7 0 1.2.1 1.7.1h.6c.5-.6 1-1.3 1.6-2.1-1.1-1.3-2.3-2.7-3.8-4.1-.1-.1-.2-.2-.2-.3l.2-.4 1-1.4c.1-.2.2-.2.3-.2.1 0 .1.1.2.2l.7.8c.6-1 1.1-2 1.5-2.9.3-.6.5-1.1.6-1.7 1 .4 1.8.7 2.4 1 .2.1.4.3.4.5 0 .1-.1.2-.3.4-.2.1-.4.4-.5.7-.8 1.4-1.6 2.6-2.5 3.9.9 1 1.3 1.5 1.3 1.5.4-.7 1.1-1.7 1.9-3.1.3-.5.6-1.2.8-1.9 1.1.5 1.9.9 2.4 1.2.2.1.3.3.3.4 0 .2-.1.3-.3.4-.2.1-.5.5-.9 1.1-1.3 2.1-2.7 4.1-4.2 6.1.7 0 1.7-.1 3-.2-.2-.6-.5-1.2-.7-1.6 0-.1-.1-.2-.1-.2 0-.1.1-.2.3-.3l1.1-.5c.1 0 .2-.1.3-.1.2.1.3.2.4.3zm-9.7 13.5c.6-1.9 1-3.7 1.1-5.3 0-.4.1-.7.1-.9v-.6c.7.1 1.4.2 2.1.4.3.1.5.2.5.3 0 .1 0 .2-.1.4 0 .1-.1.4-.2.9-.3 2.2-.6 3.9-1 5.2-.1.4-.3.6-.4.6-.1 0-.3-.1-.5-.2-.5-.3-1.1-.6-1.6-.8zm9.8-6.9h.2c.1 0 .2.1.2.3.5 1.8.9 3.3 1 4.7v.2c0 .2-.1.3-.4.4l-1.3.4c-.2 0-.3.1-.3.1-.1 0-.1-.1-.2-.3-.2-1.7-.5-3.3-.9-4.8v-.2c0-.1.1-.2.4-.3l1.3-.5zm11 2.8h-1.6v3.7h2.6l3.7-.1c.2 0 .3 0 .3.1v2.2c0 .1 0 .2-.1.3h-.3l-3.7-.1h-7.7l-3.7.1c-.2 0-.2 0-.3-.1s0-.1 0-.2v-2c0-.2.1-.3.3-.3l3.7.1h2.3v-3.7h-.9l-3.3.1c-.1 0-.2 0-.3-.1V5311.7c0-.1 0-.2.1-.3h.3l3.3.1h.9v-.6c0-1.4-.1-2.4-.2-2.9.8 0 1.7.1 2.8.2.3 0 .5.1.5.3 0 .1-.1.3-.2.5s-.2.8-.2 1.7v.8h1.6l3.4-.1c.2 0 .3 0 .3.1V5314h-.3l-3.3-.1zm5.1-7.5c-.4.6-.7 1.3-1 2.1-.1.4-.3.7-.5.7-.1 0-.3 0-.6-.1-2.2-.7-4.1-1.6-5.7-2.7-1.3.9-2.9 1.7-4.8 2.4-.4.1-.6.2-.7.2-.2 0-.4-.2-.5-.6-.3-.6-.7-1.2-1.2-1.8 1.9-.5 3.6-1.2 5.1-2.1-1.4-1.4-2.5-3.3-3.4-5.5h-1.5l-.3-.1v-2.1c0-.1 0-.2.1-.3h.2l3.5.1h7c.3 0 .5 0 .6-.1.1-.1.3-.1.4-.1.2 0 .6.3 1.2.8s.9.9.9 1.1c0 .1-.1.3-.3.5-.2.1-.5.5-.8 1.2-.9 1.8-2 3.3-3.3 4.6 1.5.7 3.3 1.3 5.6 1.8zm-4.9-7.5h-5.7c.7 1.6 1.6 2.9 2.8 4 1.3-1.1 2.2-2.4 2.9-4zM688 5296.1l1.7-.6c.1 0 .2-.1.3-.1.1 0 .2.1.3.2.7.9 1.2 1.8 1.6 2.6.1.1.1.2.1.2 0 .1-.1.1-.3.2l-2 .6h11.2c.7-1.2 1.2-2.1 1.4-2.7.2-.5.4-1 .5-1.4 1 .2 1.9.5 2.7.8.2.1.4.2.4.4s-.1.3-.2.5c-.2.2-.4.4-.6.7 0 .1-.2.4-.6 1-.2.3-.4.6-.5.8h.6l3.7-.1c.2 0 .2 0 .3.1s0 .1 0 .2l-.1 1.5v1.2l.1 3.1c0 .1 0 .2-.1.3H706c-.2 0-.2 0-.3-.1s0-.1 0-.3v-3.6h-18v3.6c0 .2 0 .3-.1.3H685c-.2 0-.2 0-.3-.1v-.3l.1-3.1v-1l-.1-1.7c0-.1 0-.2.1-.3h.3l3.7.1h.6c-.1-.1-.1-.1-.1-.2-.4-.9-.8-1.7-1.4-2.6-.1-.1-.1-.2-.1-.2-.1.1 0 .1.2 0zm11.7 7.3 3.6-.1c.1 0 .2 0 .2.1v.3l-.1 1.9v2.5l.1 1.9c0 .2-.1.3-.3.3l-3.6-.1h-2.1c-.2.4-.4 1.1-.8 1.9h9.2c.1 0 .2 0 .3.1v8.5h-2.6c-.2 0-.3-.1-.3-.3v-.8h-13.5v1c0 .2-.1.3-.3.3h-2.4c-.1 0-.2 0-.3-.1s0-.1 0-.2l.1-4.2v-1.5l-.1-2.5c0-.1 0-.2.1-.3h6.8c.3-.7.6-1.3.8-1.9h-1.1l-3.6.1c-.2 0-.3-.1-.3-.3l.1-1.9v-2.5l-.1-1.9c0-.2 0-.3.1-.3h.2l3.6.1h6.3zm-9.9 11.2v2.6h13.5v-2.6h-13.5zm2.6-9v2.4h8.3v-2.4h-8.3zm4-10.4c.1 0 .2-.1.3-.1.1 0 .2.1.3.2.5.8 1 1.7 1.4 2.8 0 .1.1.1.1.2s-.1.2-.4.2l-1.9.6c-.2 0-.3.1-.3.1-.1 0-.2-.1-.2-.3-.5-1.2-1-2.1-1.3-2.7-.1-.1-.1-.2-.1-.2 0-.1.1-.1.3-.2l1.8-.6zM724.5 5302.2l-3.6.1c-.1 0-.2 0-.3-.1s0-.1 0-.2v-2.2c0-.2 0-.3.1-.3h.2l3.6.1h6.7v-.5c0-1.4-.1-2.6-.2-3.6 1.3 0 2.4.1 3.2.2.3 0 .5.1.5.3 0 .1-.1.3-.2.6-.1.4-.2 1.1-.2 2.2v.7h7.1l3.6-.1c.1 0 .2 0 .3.1v2.5c0 .1 0 .2-.1.3h-.2l-3.6-.1h-7.1v3.5h4.1c.4 0 .6 0 .8-.1.2-.1.3-.1.4-.1.2 0 .5.3 1.1.9.6.5.9.9.9 1.2 0 .1-.1.3-.4.5-.3.2-.5.5-.7.8-1.5 2.4-3.2 4.4-5.1 6 2.6 1.4 6 2.5 10.4 3.2-.4.6-.8 1.3-1.2 2.3-.2.5-.4.7-.6.7-.1 0-.3 0-.6-.1-4.4-1-8-2.4-10.6-4.2-2.7 1.7-6.1 3.1-10.1 4.1-.2.1-.5.1-.6.1-.2 0-.4-.2-.6-.7-.3-.8-.7-1.4-1.1-2 4.3-.9 7.6-2 10.1-3.4-1.9-1.8-3.4-3.9-4.5-6.5h-2.7c-.1 0-.2 0-.3-.1v-2.4c0-.2 0-.2.1-.3h.2l3.8.1h4.3v-3.5h-6.9zm12.6 6.1h-8c1 1.9 2.3 3.5 3.9 4.8 1.5-1.3 2.9-2.9 4.1-4.8zM756.8 5317.8c.4.1 1.2.1 2.4.1.4 0 .6-.3.6-.8v-5.6l-1.1.3c-.4.1-.7.3-1 .5-.1.1-.3.2-.5.2s-.3-.1-.4-.3c-.2-.7-.3-1.6-.5-2.7 1-.1 1.8-.3 2.6-.5l.8-.2v-5.4h-.5l-2.4.1c-.1 0-.2 0-.3-.1v-2.3c0-.1 0-.2.1-.3h.2l2.4.1h.5v-1.5c0-1.4-.1-2.8-.2-4 1.1 0 2 .1 2.8.2.3 0 .5.1.5.3 0 .1-.1.3-.2.6-.1.2-.2 1.2-.2 2.8v1.5l2.1-.1c.2 0 .2 0 .3.1s0 .1 0 .3v2c0 .2 0 .2-.1.3h-.3l-2.1-.1v4.5c.3-.1 1-.4 2.2-.9-.1.5-.2 1.2-.2 2 0 .4 0 .6-.1.7-.1.1-.2.2-.5.3-.4.2-.9.4-1.4.6v1.1l.1 5.6c0 1.4-.3 2.3-.9 2.8-.5.4-1.6.6-3.2.6h-.3c-.3 0-.5-.1-.5-.2-.1-.1-.1-.3-.2-.7.1-.5-.2-1.2-.5-1.9zm6 .9c3-2.2 5.1-5.4 6-9.5h-3c-.1 0-.2 0-.3-.1v-2.1c0-.1 0-.2.1-.3h.2l3.4.1c0-.3.1-.8.1-1.5l-3.3.1c-.1 0-.2 0-.3-.1V5303.4c0-.1 0-.2.1-.3h.2l3.7.1h6c.6-1 1.1-2 1.5-3 .2-.6.4-1.1.4-1.5 1.1.2 1.9.4 2.5.7.2.1.4.2.4.4 0 .1-.1.3-.3.4-.2.1-.3.3-.4.5-.7 1.4-1.2 2.3-1.3 2.5l2.7-.1c.1 0 .2 0 .3.1V5305.1c0 .2 0 .3-.1.3h-.3l-3.7-.1H772c-.1.7-.1 1.2-.2 1.5h6.1l3.7-.1c.2 0 .3.1.3.3v2.1c0 .1-.1 0-.2 0l-3.7-.1h-6.5c-.1.4-.2.9-.4 1.5h6.4c.2 0 .4 0 .6-.1.1-.1.2-.1.4-.1s.5.3 1 .8.7.8.7 1.1c0 .1-.1.3-.3.4-.2.1-.4.4-.7.8-.9 1.3-1.8 2.3-2.7 3.2 1.6.7 3.6 1.3 6 1.8-.3.4-.6.9-.9 1.7-.2.5-.4.7-.5.7-.1 0-.3 0-.6-.1-2.3-.6-4.3-1.4-6-2.4-1.5 1-3.3 1.9-5.3 2.5-.3.1-.5.2-.6.2-.1 0-.3-.2-.5-.6-.3-.5-.6-1-1-1.5 2.1-.5 3.9-1.2 5.4-2.1-.9-.8-1.7-1.7-2.4-2.7-1.1 2.3-2.6 4.2-4.5 5.9-.3.3-.5.4-.6.4-.1 0-.3-.2-.5-.5-.7-.3-1.2-.8-1.7-1.2zm16.1-23.5c.6.4 1.3.9 1.9 1.5.2.2.3.4.3.5 0 .2-.2.3-.6.3-.2 0-.6.1-1.2.2-3.3.6-7.3 1.1-11.9 1.4h-.5c-.2 0-.4-.1-.5-.2-.1-.1-.2-.3-.3-.6-.2-.6-.5-1.1-.8-1.5 4.6 0 8.6-.4 12-1.1.6-.1 1.1-.3 1.6-.5zm-9.8 4.2c.4.6.9 1.4 1.3 2.4 0 .1.1.2.1.2 0 .1-.1.2-.3.3l-1.5.6c-.2.1-.3.1-.3.1-.1 0-.2-.1-.2-.3-.3-.8-.7-1.6-1.2-2.4-.1-.1-.1-.2-.1-.2 0-.1.1-.1.3-.2l1.5-.6c.2-.1.3-.1.3-.1-.1 0 0 .1.1.2zm7.3 13.3h-5.1c.8 1.1 1.7 2 2.8 2.8.9-.8 1.6-1.7 2.3-2.8zm-4.8-12.8v-.1c0-.1.1-.2.4-.3l1.3-.5c.1-.1.3-.1.3-.1.1 0 .2.1.3.2.5.8 1 1.7 1.3 2.6v.2c0 .1-.1.2-.3.3l-1.5.6c-.2.1-.3.1-.3.1-.1 0-.2-.1-.2-.3-.4-.8-.8-1.7-1.3-2.7z" transform="translate(-317.5 -5195)"/></g><g class="st0"><path class="st1" d="M1228.3 5295.1h7.3c3.5 0 6.2 1 7.9 3 1.6 1.8 2.4 4.4 2.4 7.7 0 3.8-1.1 6.7-3.4 8.6-1.9 1.6-4.4 2.4-7.5 2.4h-6.8v-21.7zm3.8 2.9v15.9h2.9c2.4 0 4.1-.7 5.3-2.2 1.1-1.4 1.6-3.3 1.6-5.9 0-5.2-2.2-7.8-6.7-7.8h-3.1zM1273.5 5295.1l-6.5 10.4 6.8 11.3h-4.3l-4-7c-.1-.1-.2-.4-.4-.7-.1-.3-.3-.5-.4-.6-.2.3-.4.8-.7 1.3l-4.1 7h-4l6.8-11.1-6.3-10.6h4.3l3.5 6.2c.1.2.3.5.5.8.2.3.3.6.4.7.1-.1.4-.6.9-1.6l3.6-6.1h3.9zM1288.4 5300.2l-3.6.1c-.1 0-.2 0-.3-.1s0-.1 0-.2v-2.2c0-.2 0-.3.1-.3h.2l3.6.1h6.7v-.5c0-1.4-.1-2.6-.2-3.6 1.3 0 2.4.1 3.2.2.3 0 .5.1.5.3 0 .1-.1.3-.2.6-.1.4-.2 1.1-.2 2.2v.7h7.1l3.6-.1c.1 0 .2 0 .3.1v2.5c0 .1 0 .2-.1.3h-.2l-3.6-.1h-7.1v3.5h4.1c.4 0 .6 0 .8-.1.2-.1.3-.1.4-.1.2 0 .5.3 1.1.9.6.5.9.9.9 1.2 0 .1-.1.3-.4.5-.3.2-.5.5-.7.8-1.5 2.4-3.2 4.4-5.1 6 2.6 1.4 6 2.5 10.4 3.2-.4.6-.8 1.3-1.2 2.3-.2.5-.4.7-.6.7-.1 0-.3 0-.6-.1-4.4-1-8-2.4-10.6-4.2-2.7 1.7-6.1 3.1-10.1 4.1-.2.1-.5.1-.6.1-.2 0-.4-.2-.6-.7-.3-.8-.7-1.4-1.1-2 4.3-.9 7.6-2 10.1-3.4-1.9-1.8-3.4-3.9-4.5-6.5h-2.7c-.1 0-.2 0-.3-.1v-2.4c0-.2 0-.2.1-.3h.2l3.8.1h4.3v-3.5h-6.9zm12.6 6.1h-8c1 1.9 2.3 3.5 3.9 4.8 1.6-1.3 2.9-2.9 4.1-4.8zM1320.7 5315.8c.4.1 1.2.1 2.4.1.4 0 .6-.3.6-.8v-5.6l-1.1.3c-.4.1-.7.3-1 .5-.1.1-.3.2-.5.2s-.3-.1-.4-.3c-.2-.7-.3-1.6-.5-2.7 1-.1 1.8-.3 2.6-.5l.8-.2v-5.4h-.5l-2.4.1c-.1 0-.2 0-.3-.1v-2.3c0-.1 0-.2.1-.3h.2l2.4.1h.5v-1.5c0-1.4-.1-2.8-.2-4 1.1 0 2 .1 2.8.2.3 0 .5.1.5.3 0 .1-.1.3-.2.6-.1.2-.2 1.2-.2 2.8v1.5l2.1-.1c.2 0 .2 0 .3.1s0 .1 0 .3v2c0 .2 0 .2-.1.3s-.1 0-.3 0l-2.1-.1v4.5c.3-.1 1-.4 2.2-.9-.1.5-.2 1.2-.2 2 0 .4 0 .6-.1.7-.1.1-.2.2-.5.3-.4.2-.9.4-1.4.6v1.1l.1 5.6c0 1.4-.3 2.3-.9 2.8-.5.4-1.6.6-3.2.6h-.3c-.3 0-.5-.1-.5-.2-.1-.1-.1-.3-.2-.7.1-.5-.2-1.2-.5-1.9zm6 .9c3-2.2 5.1-5.4 6-9.5h-3c-.1 0-.2 0-.3-.1v-2.1c0-.1 0-.2.1-.3h.2l3.4.1c0-.3.1-.8.1-1.5l-3.3.1c-.1 0-.2 0-.3-.1V5301.4c0-.1 0-.2.1-.3h.2l3.7.1h6c.6-1 1.1-2 1.5-3 .2-.6.4-1.1.4-1.5 1.1.2 1.9.4 2.5.7.2.1.4.2.4.4 0 .1-.1.3-.3.4-.2.1-.3.3-.4.5-.7 1.4-1.2 2.3-1.3 2.5l2.7-.1c.1 0 .2 0 .3.1V5303.1c0 .2 0 .3-.1.3h-.3l-3.7-.1h-5.4c-.1.7-.1 1.2-.2 1.5h6.1l3.7-.1c.2 0 .3.1.3.3v2.1c0 .1-.1 0-.2 0l-3.7-.1h-6.5c-.1.4-.2.9-.4 1.5h6.4c.2 0 .4 0 .6-.1.1-.1.2-.1.4-.1s.5.3 1 .8.7.8.7 1.1c0 .1-.1.3-.3.4-.2.1-.4.4-.7.8-.9 1.3-1.8 2.3-2.7 3.2 1.6.7 3.6 1.3 6 1.8-.3.4-.6.9-.9 1.7-.2.5-.4.7-.5.7-.1 0-.3 0-.6-.1-2.3-.6-4.3-1.4-6-2.4-1.5 1-3.3 1.9-5.3 2.5-.3.1-.5.2-.6.2-.1 0-.3-.2-.5-.6-.3-.5-.6-1-1-1.5 2.1-.5 3.9-1.2 5.4-2.1-.9-.8-1.7-1.7-2.4-2.7-1.1 2.3-2.6 4.2-4.5 5.9-.3.3-.5.4-.6.4-.1 0-.3-.2-.5-.5-.7-.3-1.2-.8-1.7-1.2zm16.1-23.5c.6.4 1.3.9 1.9 1.5.2.2.3.4.3.5 0 .2-.2.3-.6.3-.2 0-.6.1-1.2.2-3.3.6-7.3 1.1-11.9 1.4h-.5c-.2 0-.4-.1-.5-.2-.1-.1-.2-.3-.3-.6-.2-.6-.5-1.1-.8-1.5 4.6 0 8.6-.4 12-1.1.6-.1 1.1-.3 1.6-.5zm-9.8 4.2c.4.6.9 1.4 1.3 2.4 0 .1.1.2.1.2 0 .1-.1.2-.3.3l-1.5.6c-.2.1-.3.1-.3.1-.1 0-.2-.1-.2-.3-.3-.8-.7-1.6-1.2-2.4-.1-.1-.1-.2-.1-.2 0-.1.1-.1.3-.2l1.5-.6c.2-.1.3-.1.3-.1-.1 0 0 .1.1.2zm7.3 13.3h-5.1c.8 1.1 1.7 2 2.8 2.8.9-.8 1.7-1.7 2.3-2.8zm-4.8-12.8v-.1c0-.1.1-.2.4-.3l1.3-.5c.1-.1.3-.1.3-.1.1 0 .2.1.3.2.5.8 1 1.7 1.3 2.6v.2c0 .1-.1.2-.3.3l-1.5.6c-.2.1-.3.1-.3.1-.1 0-.2-.1-.2-.3-.3-.8-.7-1.7-1.3-2.7z" transform="translate(-317.5 -5195)"/></g><path class="st5" d="M319 5276.7v60.8M1619 5276.7v60.8M318.5 5307.5H478M820 5307.5h377M1377 5307.5h242" transform="translate(-317.5 -5195)"/><path class="st6" d="M319 5307.5v159.7" transform="translate(-317.5 -5195)"/><path class="st1" d="M693 5195h540v60H693z" transform="translate(-312 -5195)"/><g class="st0"><path class="st7" d="M730.3 5223.7c-.1 1.8-.3 3.3-.6 4.5-.3 1.1-.7 2.1-1.2 3.2-.6 1.2-1.5 2.4-2.5 3.5-.9.9-1.8 1.6-2.7 2.2-.4.2-.7.4-.9.4-.2 0-.4-.1-.6-.3-.6-.6-1.5-1.2-2.7-1.6 1.6-.9 2.9-1.7 3.8-2.6.9-.8 1.6-1.7 2.2-2.8.6-1 1-2 1.2-3.1.2-.8.3-2 .4-3.4H721c-1 0-2.5.1-4.5.2-.2 0-.4-.2-.4-.6-.2-.9-.2-1.8-.2-2.9 1.1.1 2.8.1 5.1.1h13.5c2.1 0 4.1-.1 5.8-.2.2 0 .3.2.3.6v2.3c0 .3-.1.5-.4.5-2.1-.1-4-.1-5.7-.1h-4.2zm-10.9-10.2c1.7.1 3.4.1 5 .1h5.5c2.1 0 3.7 0 5.1-.1.2 0 .4.2.4.6v2.2c0 .4-.1.6-.4.6-1.6-.1-3.3-.1-5-.1h-5.5c-.6 0-2 0-4.3.1-.3 0-.5-.2-.5-.5s-.1-.7-.1-1.4c-.1-.7-.2-1.2-.2-1.5zm16.2-1 1.7-1h.2c.1 0 .2 0 .3.1.9.8 1.8 2 2.5 3.5 0 .1.1.1.1.2s-.1.2-.2.3l-1.3.8c-.1 0-.1.1-.2.1s-.2-.1-.3-.2c-.9-1.6-1.8-2.8-2.8-3.8zm2.9-1.7 1.6-.9c.1 0 .1-.1.2-.1s.1.1.2.2c1.1 1 1.9 2.1 2.5 3.4 0 .1.1.2.1.2 0 .1-.1.2-.2.3l-1.3.8c-.1 0-.2.1-.2.1-.1 0-.2-.1-.3-.2-.6-1.5-1.5-2.8-2.6-3.8zM774.7 5219.1h1.1c1.6 0 3.1 0 4.5-.1h.1c.2 0 .3.2.4.5v2.4c0 .3-.2.5-.4.5h-5.6c-.1 2.3-.3 4.1-.7 5.6-.4 1.3-.9 2.5-1.6 3.6-1.4 2.4-3.8 4.2-7.1 5.6-.4.2-.7.3-.8.3-.2 0-.3-.1-.6-.3-.8-.8-1.6-1.4-2.5-1.8 2.3-.7 4-1.5 5.3-2.4 1.1-.8 2.1-1.8 2.8-2.9.6-1 1.1-2.2 1.3-3.4.2-1.1.4-2.5.4-4.2h-6.4v1.1c0 2.3 0 3.9.1 5 0 .3-.2.4-.5.4h-2.6c-.4 0-.5-.1-.5-.4v-.1c.1-1.7.2-3.3.2-4.9v-1.1h-.9c-1.7 0-3.4 0-5 .1-.2 0-.3-.2-.4-.6-.1-.3-.1-1.3-.2-2.9 1.4.1 3.2.1 5.5.1h.9v-2.2c0-1.5-.1-3-.4-4.4 2 .2 3.2.4 3.7.5.3 0 .5.2.5.4 0 .1-.1.3-.2.6-.1.4-.2 1.3-.2 2.9v2.2h6.4v-3.5c0-1.4-.1-2.6-.3-3.5 1.8.2 3 .4 3.5.5.4.1.5.2.5.5 0 .1 0 .3-.1.5-.2.4-.2 1.3-.2 2.6v2.8zm.9-6.6 1.6-.7h.1c.1 0 .2.1.3.2.9.9 1.7 2.2 2.3 3.6v.2c0 .1-.1.2-.2.3l-1.2.6c-.1 0-.2.1-.2.1-.1 0-.2-.1-.3-.2-.7-1.7-1.5-3-2.4-4.1zm2.9-1.3 1.6-.7c.1 0 .1-.1.2-.1s.2.1.3.2c1 1.1 1.8 2.2 2.3 3.5 0 .1.1.1.1.2s-.1.2-.2.3l-1.2.6c-.1 0-.1.1-.2.1s-.2-.1-.3-.2c-.8-1.5-1.6-2.8-2.6-3.9zM809.5 5220.5v9.9c0 1.8 0 3.8.1 6.2v.1c0 .3-.2.4-.5.4h-3c-.3 0-.4-.1-.4-.4v-.1c0-.5 0-1.6.1-3.3v-9.8c-3 2.5-5.8 4.5-8.2 5.8-.1.1-.3.1-.5.1s-.4-.1-.6-.3c-.6-.6-1.4-1.2-2.6-1.8 3.5-1.8 6.7-3.9 9.4-6.2 2.4-2 4.6-4.1 6.4-6.3.9-1 1.5-2.1 1.9-3.1 1.6.9 2.7 1.6 3.3 2.1.2.1.2.3.2.4 0 .3-.1.5-.4.7-.4.3-1 .8-1.8 1.7-1 1.3-2.1 2.6-3.4 3.9zM829.1 5217.3c.5-.6 1.2-1.4 2.1-2.3.1-.2.3-.2.4-.2.1 0 .2 0 .4.1 1.9 1 3.8 2.4 5.7 4.3.2.2.3.3.3.4s-.1.2-.2.4c-.7.9-1.3 1.6-1.9 2.3-.2.2-.3.2-.4.2-.1 0-.2-.1-.4-.2-1.7-2-3.8-3.6-6-5zm.6 15c1.6-.4 3-.9 4.1-1.5 1.9-1 3.5-1.9 4.8-2.8 1.1-.7 2.4-1.7 3.8-2.8 2-1.6 3.6-3 4.8-4.2 1.1-1.1 2.3-2.4 3.4-3.9.2 1.3.4 2.5.8 3.5.1.2.1.4.1.6 0 .2-.2.5-.5.9-1.7 2-4 4.2-6.9 6.4-2.5 1.9-5.5 3.9-9.1 5.9-1.1.6-1.7 1.1-2 1.4-.2.2-.4.3-.5.3s-.3-.1-.5-.3c-.8-1.2-1.6-2.3-2.3-3.5zM864 5231.2c2.8-2.5 5-5.5 6.5-8.9.8-1.8 1.3-3.3 1.4-4.4 1.7.6 2.9 1.1 3.7 1.5.2.1.4.3.4.5s-.1.4-.3.6c-.3.3-.6.9-1 1.8-1.8 4.2-4 7.5-6.4 10.1-.3.3-.6.5-.8.5-.2 0-.5-.1-.7-.3-.9-.6-1.7-1.1-2.8-1.4zm15.3-11.4c.3-.2.8-.6 1.5-1 .4-.3.7-.5.9-.6.2-.1.3-.2.4-.2.1 0 .3.1.5.2 3.1 3.1 5.6 6.8 7.5 11 .1.1.1.3.1.4 0 .2-.1.3-.3.5-.7.5-1.5 1.1-2.5 1.6-.1.1-.3.1-.4.1-.2 0-.3-.1-.4-.4-2-4.7-4.5-8.6-7.3-11.6zm9.2-6.9c1 0 1.8.4 2.4 1.1.6.6.8 1.3.8 2.2 0 1-.4 1.8-1.1 2.4-.6.5-1.3.8-2.2.8-1 0-1.8-.4-2.4-1.1-.6-.6-.8-1.3-.8-2.2 0-1 .4-1.8 1.1-2.4.7-.5 1.4-.8 2.2-.8zm0 1.5c-.5 0-1 .2-1.3.6-.3.3-.4.7-.4 1.2 0 .6.2 1 .6 1.3.3.3.7.4 1.2.4.6 0 1-.2 1.3-.6.3-.3.4-.7.4-1.2s-.2-1-.6-1.3c-.3-.3-.7-.4-1.2-.4zM903.8 5222.8c1.6.2 3.7.4 6.5.4H923.7c1.9 0 3 0 3.2-.1h.1c.3 0 .4.1.4.4v2.8c0 .3-.1.5-.4.5h-.1c-3 0-5.2-.1-6.7-.1h-10.8l-4.4.4c-.4 0-.6-.2-.7-.6-.2-.8-.4-2-.5-3.7zM948.1 5220.6c3.8 1.2 6.9 2.5 9.5 4.1.3.1.4.3.4.5 0 .1 0 .2-.1.3-.4.9-.8 1.8-1.3 2.6-.1.2-.3.3-.4.3-.1 0-.2 0-.3-.1-2.8-1.8-5.4-3.1-7.9-3.9v6.6c0 1.1 0 3.1.1 5.9v.1c0 .2-.2.4-.5.4H945c-.4 0-.6-.2-.6-.5.1-1.9.1-3.9.1-5.9v-14.8c0-1.8-.1-3.3-.3-4.4 1.8.1 3 .3 3.8.5.4.1.6.2.6.5 0 .2-.1.4-.2.7-.1.3-.2 1.2-.2 2.8v4.3zM985.4 5219.7h4c1.4 0 3.1 0 5.2-.1h.1c.3 0 .4.2.4.5v2.4c0 .3 0 .4-.1.5-.1.1-.2.1-.4.1l-5-.1h-4.3c-.2 2.3-.4 4-.7 5.2-.3 1-.7 2-1.3 3-1.5 2.5-3.6 4.5-6.4 5.9-.2.1-.5.2-.7.2-.2 0-.5-.1-.7-.3-.8-.7-1.6-1.2-2.5-1.6 3.2-1.5 5.4-3.3 6.8-5.4 1.1-1.7 1.7-4 1.8-6.9h-5.8c-.6 0-1.4 0-2.4.1-1 0-1.6.1-1.9.1h-.1c-.2 0-.4-.2-.5-.6 0-.3-.1-1.3-.2-3 1.3.1 3 .1 5.1.1h5.9v-4.4c0-1.2-.2-2.2-.4-3 1.8.1 3.2.2 4 .4.3.1.5.2.5.4 0 .1-.1.3-.2.7-.2.4-.2 1-.2 1.8.1 1.5.1 2.9 0 4zM1008 5222.8c1.6.2 3.7.4 6.5.4H1027.9c1.9 0 3 0 3.2-.1h.1c.3 0 .4.1.4.4v2.8c0 .3-.1.5-.4.5h-.1c-3 0-5.2-.1-6.7-.1h-10.8l-4.4.4c-.4 0-.6-.2-.7-.6-.2-.8-.3-2-.5-3.7zM1064 5219.1h1.1c1.6 0 3.1 0 4.5-.1h.1c.2 0 .3.2.4.5v2.4c0 .3-.2.5-.4.5h-5.6c-.1 2.3-.3 4.1-.7 5.6-.4 1.3-.9 2.5-1.6 3.6-1.4 2.4-3.8 4.2-7.1 5.6-.4.2-.7.3-.8.3-.2 0-.3-.1-.6-.3-.8-.8-1.6-1.4-2.5-1.8 2.3-.7 4-1.5 5.3-2.4 1.1-.8 2.1-1.8 2.8-2.9.6-1 1.1-2.2 1.3-3.4.2-1.1.4-2.5.4-4.2h-6.4v1.1c0 2.3 0 3.9.1 5 0 .3-.2.4-.5.4h-2.6c-.4 0-.5-.1-.5-.4v-.1c.1-1.7.2-3.3.2-4.9v-1.1h-.9c-1.7 0-3.4 0-5 .1-.2 0-.3-.2-.4-.6-.1-.3-.1-1.3-.2-2.9 1.4.1 3.2.1 5.5.1h.9v-2.2c0-1.6-.1-3-.4-4.4 2 .2 3.2.3 3.7.5.3.1.5.2.5.4 0 .1-.1.3-.2.6-.1.4-.2 1.3-.2 2.9v2.2h6.4v-3.5c0-1.4-.1-2.6-.3-3.5 1.8.2 3 .4 3.5.5.4.1.5.2.5.5 0 .1 0 .3-.1.5-.2.4-.2 1.3-.2 2.6v2.8zM1082.8 5222.8c1.6.2 3.7.4 6.5.4H1102.7c1.9 0 3 0 3.2-.1h.1c.3 0 .4.1.4.4v2.8c0 .3-.1.5-.4.5h-.1c-3 0-5.2-.1-6.7-.1h-10.8l-4.4.4c-.4 0-.6-.2-.7-.6-.2-.8-.3-2-.5-3.7zM1125.2 5222.3c2.8-.9 5.2-1.9 7.3-2.9 1.4-.7 2.5-1.4 3.2-2.2.8.7 1.7 1.6 2.5 2.7.2.2.2.4.2.5 0 .3-.2.5-.5.5-.4.1-1.2.4-2.5 1-2.9 1.3-6.3 2.5-10.3 3.7v4c0 .8.1 1.3.2 1.6.1.3.4.4.8.6.8.2 2.1.3 3.8.3 2.6 0 5.5-.2 8.5-.7h.2c.2 0 .3.1.4.4.1 1.1.2 2 .2 2.6 0 .3-.2.5-.6.5-2.9.4-5.9.5-8.9.5-2.5 0-4.5-.3-5.7-.8-1.4-.6-2.1-2.1-2.1-4.5V5219c0-2.4-.1-4.2-.3-5.5 1.8.2 3 .4 3.8.6.3.1.5.2.5.5 0 .2-.1.4-.2.6-.2.4-.3 1.3-.3 2.7v4.4zm11-7.5 1.6-1.1c.1 0 .1-.1.2-.1s.2 0 .3.1c1 .8 2 1.9 2.8 3.2.1.1.1.1.1.2s-.1.2-.2.3l-1.3.9c-.1.1-.2.1-.2.1-.1 0-.2-.1-.3-.2-1-1.4-2-2.5-3-3.4zm2.7-2 1.5-1.1c.1 0 .1-.1.2-.1s.2 0 .3.1c1.2.9 2.1 1.9 2.9 3.1.1.1.1.2.1.2 0 .1-.1.2-.2.3l-1.2.9c-.1.1-.2.1-.2.1-.1 0-.2-.1-.3-.2-.9-1.2-1.9-2.3-3.1-3.3zM1171 5225c2.8 2.1 5.6 4.5 8.3 7.3.2.2.2.3.2.4s-.1.3-.2.4c-.6.8-1.3 1.5-2 2.1-.1.1-.2.2-.4.2s-.3-.1-.4-.2c-2.3-2.6-4.9-5.1-7.8-7.4-3.1 3.3-6.5 5.9-10.1 7.9-.4.2-.6.2-.7.2-.2 0-.4-.1-.5-.3-.6-.7-1.4-1.3-2.5-2 2.4-1.2 4.5-2.5 6.2-3.8 1.4-1.1 2.9-2.3 4.4-3.9 2.1-2.2 4-4.7 5.6-7.5h-7.7c-1.5 0-3.1.1-4.7.2-.2 0-.3-.2-.4-.5-.2-.8-.3-1.8-.3-3.1 1.1.1 2.8.1 5.1.1h8.2c1 0 1.7-.1 2.1-.3.1-.1.2-.1.3-.1.1 0 .3.1.5.2.6.5 1.3 1.2 1.9 2.1.1.2.1.3.1.4 0 .2-.1.4-.4.6-.4.4-.8.8-1.1 1.3-1 2-2.3 3.9-3.7 5.7z" transform="translate(-312 -5195)"/></g><path class="st6" d="M1619 5307.5v159.7" transform="translate(-317.5 -5195)"/></svg>