<svg width="1675" height="322" viewBox="0 0 1675 322" fill="none" xmlns="http://www.w3.org/2000/svg">
<circle cx="150" cy="150" r="147" stroke="black" stroke-width="6"/>
<path d="M124.264 153.178L120.764 153.232C120.581 153.232 120.49 153.132 120.49 152.932V150.758C120.49 150.557 120.581 150.457 120.764 150.457L124.264 150.512H126.93V145.057H125.945L122.199 145.111C122.053 145.111 121.962 145.089 121.926 145.043C121.898 145.007 121.885 144.915 121.885 144.77V142.609C121.885 142.427 121.99 142.336 122.199 142.336L125.945 142.391H126.93V140.955C126.93 139.287 126.866 137.965 126.738 136.99C128.087 137.027 129.094 137.081 129.76 137.154C130.042 137.182 130.184 137.282 130.184 137.455C130.184 137.555 130.115 137.801 129.979 138.193C129.906 138.421 129.869 139.342 129.869 140.955V142.391H135.775V140.955C135.775 139.287 135.712 137.965 135.584 136.99C136.906 137.018 137.913 137.072 138.605 137.154C138.888 137.182 139.029 137.282 139.029 137.455C139.029 137.546 138.961 137.792 138.824 138.193C138.751 138.412 138.715 139.333 138.715 140.955V142.391H140.082L143.842 142.336C144.042 142.336 144.143 142.427 144.143 142.609V144.77C144.143 144.934 144.124 145.034 144.088 145.07C144.051 145.098 143.969 145.111 143.842 145.111L140.082 145.057H138.715V150.512H141.709L145.182 150.457C145.327 150.457 145.419 150.475 145.455 150.512C145.482 150.548 145.496 150.63 145.496 150.758V152.932C145.496 153.068 145.478 153.155 145.441 153.191C145.414 153.219 145.327 153.232 145.182 153.232L141.709 153.178H124.264ZM129.869 150.512H135.775V145.057H129.869V150.512ZM145.209 159.467C144.671 159.968 144.197 160.565 143.787 161.258C143.523 161.704 143.318 161.928 143.172 161.928C143.09 161.928 142.885 161.855 142.557 161.709C139.531 160.141 137.065 158.163 135.16 155.775C135.087 155.666 135.051 155.584 135.051 155.529C135.051 155.456 135.151 155.361 135.352 155.242L137.033 154.258C137.152 154.176 137.243 154.135 137.307 154.135C137.38 154.135 137.475 154.194 137.594 154.312C139.681 156.609 142.219 158.327 145.209 159.467ZM128.023 154.039C128.971 154.449 129.773 154.859 130.43 155.27C130.676 155.406 130.799 155.548 130.799 155.693C130.799 155.867 130.658 156.031 130.375 156.186C130.156 156.331 129.878 156.587 129.541 156.951C128.064 158.683 125.982 160.26 123.293 161.682C122.965 161.827 122.751 161.9 122.65 161.9C122.505 161.9 122.29 161.695 122.008 161.285C121.57 160.592 121.074 160.032 120.518 159.604C123.215 158.537 125.335 157.215 126.875 155.639C127.395 155.092 127.777 154.559 128.023 154.039ZM176.312 136.594C176.951 137.113 177.529 137.719 178.049 138.412C178.122 138.503 178.158 138.581 178.158 138.645C178.158 138.717 178.076 138.818 177.912 138.945L177.27 139.369L179.648 139.314C179.849 139.314 179.949 139.406 179.949 139.588V141.475C179.949 141.62 179.931 141.707 179.895 141.734C179.858 141.762 179.776 141.775 179.648 141.775L175.889 141.721H173.154C173.391 143.781 173.783 145.544 174.33 147.012C174.768 146.355 175.214 145.535 175.67 144.551C175.916 143.895 176.094 143.316 176.203 142.814C177.014 143.051 177.766 143.339 178.459 143.676C178.687 143.794 178.801 143.926 178.801 144.072C178.801 144.182 178.719 144.323 178.555 144.496C178.409 144.633 178.222 144.911 177.994 145.33C177.201 146.98 176.381 148.37 175.533 149.5C176.308 150.676 176.996 151.264 177.598 151.264C177.953 151.264 178.231 151.022 178.432 150.539C178.587 150.165 178.751 149.509 178.924 148.57C179.307 148.935 179.771 149.245 180.318 149.5C180.801 149.728 181.043 149.942 181.043 150.143C181.043 150.243 180.997 150.448 180.906 150.758C180.523 152.025 180.063 152.918 179.525 153.438C179.033 153.911 178.418 154.148 177.68 154.148C176.322 154.148 175.009 153.292 173.742 151.578C172.977 152.335 172.266 152.945 171.609 153.41C171.245 153.656 171.021 153.779 170.939 153.779C170.83 153.779 170.625 153.602 170.324 153.246C169.987 152.882 169.677 152.585 169.395 152.357C169.376 152.449 169.276 152.494 169.094 152.494L166.715 152.439H164.076L161.697 152.494C161.551 152.494 161.465 152.476 161.438 152.439C161.41 152.403 161.396 152.316 161.396 152.18L161.451 150.402V148.543L161.396 146.752C161.396 146.606 161.415 146.52 161.451 146.492C161.488 146.465 161.57 146.451 161.697 146.451L164.076 146.506H166.715L169.08 146.451C169.235 146.451 169.326 146.469 169.354 146.506C169.381 146.542 169.395 146.624 169.395 146.752L169.34 148.543V150.402L169.367 151.934C170.507 151.25 171.536 150.421 172.457 149.445C171.564 147.604 170.898 145.029 170.461 141.721H160.494V143.594C160.494 145.79 160.326 147.668 159.988 149.227C159.569 151.113 158.945 152.745 158.115 154.121C157.906 154.495 157.737 154.682 157.609 154.682C157.527 154.682 157.331 154.54 157.021 154.258C156.447 153.738 155.85 153.337 155.23 153.055C156.224 151.688 156.894 150.202 157.24 148.598C157.596 147.103 157.773 145.12 157.773 142.65L157.719 139.588C157.719 139.46 157.742 139.383 157.787 139.355C157.824 139.328 157.915 139.314 158.061 139.314L161.834 139.369H170.215C170.014 137.592 169.9 136.639 169.873 136.512C170.73 136.539 171.673 136.603 172.703 136.703C172.986 136.74 173.127 136.844 173.127 137.018C173.127 137.118 173.077 137.286 172.977 137.523C172.94 137.66 172.922 137.883 172.922 138.193C172.922 138.285 172.931 138.676 172.949 139.369H175.643C175.223 138.84 174.795 138.357 174.357 137.92C174.266 137.847 174.221 137.76 174.221 137.66C174.221 137.551 174.294 137.46 174.439 137.387L175.725 136.566C175.852 136.493 175.952 136.457 176.025 136.457C176.107 136.457 176.203 136.503 176.312 136.594ZM167.043 150.484V148.434H163.721V150.484H167.043ZM172.389 156.582C172.899 156.91 173.574 157.193 174.412 157.43C174.722 157.521 174.909 157.594 174.973 157.648C175.055 157.712 175.096 157.817 175.096 157.963C175.096 158.027 175.082 158.173 175.055 158.4C174.863 159.758 174.353 160.674 173.523 161.148C172.694 161.595 170.862 161.818 168.027 161.818C165.521 161.818 163.908 161.632 163.188 161.258C162.495 160.866 162.148 160.055 162.148 158.824V156.363C162.148 155.488 162.103 154.777 162.012 154.23C163.042 154.23 163.962 154.285 164.773 154.395C165.111 154.458 165.279 154.545 165.279 154.654C165.279 154.782 165.234 154.941 165.143 155.133C165.033 155.379 164.979 155.712 164.979 156.131V157.922C164.979 158.496 165.124 158.874 165.416 159.057C165.753 159.221 166.697 159.303 168.246 159.303C169.531 159.303 170.32 159.289 170.611 159.262C171.058 159.225 171.409 159.134 171.664 158.988C172.12 158.751 172.361 157.949 172.389 156.582ZM169.477 142.979C169.613 142.979 169.695 142.997 169.723 143.033C169.75 143.079 169.764 143.174 169.764 143.32V144.934C169.764 145.143 169.668 145.248 169.477 145.248L166.961 145.193H164.104L161.615 145.248C161.469 145.248 161.378 145.23 161.342 145.193C161.314 145.157 161.301 145.07 161.301 144.934V143.32C161.301 143.156 161.324 143.056 161.369 143.02C161.396 142.992 161.479 142.979 161.615 142.979L164.104 143.033H166.961L169.477 142.979ZM177.16 154.367C178.445 155.771 179.548 157.329 180.469 159.043C180.523 159.161 180.551 159.243 180.551 159.289C180.551 159.371 180.446 159.476 180.236 159.604L178.5 160.67C178.309 160.788 178.181 160.848 178.117 160.848C178.053 160.848 177.994 160.779 177.939 160.643C177.146 158.783 176.148 157.17 174.945 155.803C174.845 155.702 174.795 155.625 174.795 155.57C174.795 155.497 174.891 155.406 175.082 155.297L176.572 154.34C176.755 154.249 176.864 154.203 176.9 154.203C176.955 154.203 177.042 154.258 177.16 154.367ZM158.539 154.9C158.594 154.736 158.662 154.654 158.744 154.654C158.799 154.654 158.917 154.691 159.1 154.764L160.74 155.488C160.977 155.598 161.096 155.702 161.096 155.803C161.096 155.839 161.082 155.903 161.055 155.994C160.353 157.79 159.4 159.471 158.197 161.039C158.106 161.158 158.024 161.217 157.951 161.217C157.887 161.217 157.783 161.176 157.637 161.094L155.873 160.109C155.691 160 155.6 159.9 155.6 159.809C155.6 159.754 155.636 159.676 155.709 159.576C156.894 158.245 157.837 156.687 158.539 154.9ZM168.506 153.191C169.399 153.921 170.279 154.846 171.145 155.967C171.227 156.067 171.268 156.14 171.268 156.186C171.268 156.24 171.195 156.318 171.049 156.418L169.6 157.539C169.436 157.667 169.312 157.73 169.23 157.73C169.158 157.73 169.085 157.667 169.012 157.539C168.374 156.591 167.558 155.62 166.564 154.627C166.464 154.518 166.414 154.445 166.414 154.408C166.414 154.354 166.505 154.258 166.688 154.121L167.918 153.219C168.055 153.118 168.164 153.068 168.246 153.068C168.31 153.068 168.396 153.109 168.506 153.191Z" fill="black"/>
<circle cx="425" cy="150" r="147" stroke="black" stroke-width="6"/>
<path d="M371.797 141.215L367.955 141.27C367.809 141.27 367.723 141.251 367.695 141.215C367.668 141.178 367.654 141.092 367.654 140.955V138.891C367.654 138.727 367.673 138.626 367.709 138.59C367.745 138.562 367.827 138.549 367.955 138.549L371.797 138.604H381.695L385.537 138.549C385.683 138.549 385.774 138.572 385.811 138.617C385.838 138.654 385.852 138.745 385.852 138.891V140.955C385.852 141.11 385.829 141.201 385.783 141.229C385.756 141.256 385.674 141.27 385.537 141.27L381.695 141.215H379.918V145.521H380.779L384.662 145.467C384.817 145.467 384.908 145.485 384.936 145.521C384.963 145.558 384.977 145.64 384.977 145.768L384.922 150.361V155.242L384.977 161.367C384.977 161.513 384.958 161.604 384.922 161.641C384.885 161.668 384.803 161.682 384.676 161.682H382.488C382.333 161.682 382.242 161.659 382.215 161.613C382.188 161.586 382.174 161.504 382.174 161.367V160.191H370.457V161.477C370.457 161.622 370.439 161.714 370.402 161.75C370.366 161.777 370.279 161.791 370.143 161.791H367.982C367.837 161.791 367.75 161.773 367.723 161.736C367.695 161.7 367.682 161.613 367.682 161.477L367.736 155.324V150.895L367.682 145.768C367.682 145.622 367.7 145.535 367.736 145.508C367.773 145.48 367.859 145.467 367.996 145.467L371.824 145.521H372.549V141.215H371.797ZM382.174 147.982H379.918V157.703H382.174V147.982ZM375.146 157.703H377.32V147.982H375.146V157.703ZM370.457 157.703H372.549V147.982H370.457V157.703ZM375.146 145.521H377.32V141.215H375.146V145.521ZM359.588 147.518C361.566 145.202 363.161 142.195 364.373 138.494C364.61 137.692 364.76 137.022 364.824 136.484C365.954 136.822 366.811 137.136 367.395 137.428C367.695 137.546 367.846 137.715 367.846 137.934C367.846 138.07 367.741 138.239 367.531 138.439C367.385 138.567 367.203 138.941 366.984 139.561C366.419 141.146 365.886 142.482 365.385 143.566V157.73L365.439 161.955C365.439 162.101 365.421 162.192 365.385 162.229C365.348 162.256 365.266 162.27 365.139 162.27H362.855C362.71 162.27 362.623 162.251 362.596 162.215C362.568 162.178 362.555 162.092 362.555 161.955L362.609 157.73V151.797C362.609 150.284 362.618 149.126 362.637 148.324C362.336 148.771 361.871 149.377 361.242 150.143C361.005 150.407 360.837 150.539 360.736 150.539C360.59 150.539 360.486 150.38 360.422 150.061C360.24 149.021 359.962 148.174 359.588 147.518ZM407.645 141.83L403.816 141.885C403.671 141.885 403.584 141.862 403.557 141.816C403.538 141.789 403.529 141.702 403.529 141.557V139.643C403.529 139.506 403.548 139.428 403.584 139.41C403.611 139.383 403.689 139.369 403.816 139.369L407.645 139.424H410.98L411.09 138.617C411.172 137.888 411.213 137.323 411.213 136.922C411.213 136.785 411.208 136.685 411.199 136.621C412.202 136.676 413.145 136.762 414.029 136.881C414.312 136.881 414.453 136.99 414.453 137.209C414.453 137.346 414.385 137.496 414.248 137.66C414.093 137.888 413.993 138.157 413.947 138.467C413.874 138.859 413.829 139.178 413.811 139.424H416.545L420.346 139.369C420.555 139.369 420.66 139.46 420.66 139.643V141.557C420.66 141.712 420.642 141.807 420.605 141.844C420.569 141.871 420.482 141.885 420.346 141.885L416.545 141.83H413.387C413.378 141.857 413.236 142.536 412.963 143.867H415.26L418.391 143.812C418.555 143.812 418.65 143.831 418.678 143.867C418.714 143.904 418.732 143.99 418.732 144.127L418.678 147.176V153.479L418.732 156.486C418.732 156.632 418.714 156.723 418.678 156.76C418.641 156.787 418.546 156.801 418.391 156.801L415.26 156.746H411.117L407.959 156.801C407.813 156.801 407.727 156.783 407.699 156.746C407.672 156.71 407.658 156.623 407.658 156.486L407.713 153.479V147.176L407.658 144.127C407.658 143.972 407.676 143.881 407.713 143.854C407.749 143.826 407.831 143.812 407.959 143.812L410.201 143.867C410.265 143.594 410.342 143.22 410.434 142.746C410.516 142.318 410.575 142.012 410.611 141.83H407.645ZM415.984 154.668V153.027H410.365V154.668H415.984ZM410.365 151.072H415.984V149.445H410.365V151.072ZM410.365 145.918V147.518H415.984V145.918H410.365ZM402.627 144.264C403.611 144.291 404.577 144.359 405.525 144.469C405.844 144.496 406.004 144.615 406.004 144.824C406.004 144.842 405.936 145.048 405.799 145.439C405.689 145.749 405.635 146.561 405.635 147.873V158.291H416.832L420.496 158.236C420.642 158.236 420.733 158.255 420.77 158.291C420.797 158.337 420.811 158.428 420.811 158.564V160.561C420.811 160.697 420.792 160.779 420.756 160.807C420.729 160.843 420.642 160.861 420.496 160.861L416.832 160.807H405.635V161.818C405.635 161.964 405.612 162.051 405.566 162.078C405.539 162.105 405.457 162.119 405.32 162.119H403.078C402.932 162.119 402.846 162.101 402.818 162.064C402.791 162.028 402.777 161.946 402.777 161.818L402.832 158.852V147.9C402.832 146.469 402.764 145.257 402.627 144.264ZM394.547 147.367C396.743 144.924 398.443 141.958 399.646 138.467C399.893 137.729 400.052 137.077 400.125 136.512C401.219 136.785 402.076 137.045 402.695 137.291C402.996 137.4 403.146 137.542 403.146 137.715C403.146 137.861 403.051 138.029 402.859 138.221C402.677 138.376 402.481 138.758 402.271 139.369C401.779 140.709 401.232 142.012 400.631 143.279V157.621L400.686 161.873C400.686 162.019 400.663 162.11 400.617 162.146C400.59 162.174 400.508 162.188 400.371 162.188H398.047C397.865 162.188 397.773 162.083 397.773 161.873L397.828 157.621V151.551C397.828 149.938 397.837 148.702 397.855 147.846C397.29 148.593 396.757 149.254 396.256 149.828C396.019 150.092 395.85 150.225 395.75 150.225C395.632 150.225 395.531 150.056 395.449 149.719C395.167 148.689 394.866 147.905 394.547 147.367ZM442.48 152.768L438.666 152.822C438.52 152.822 438.429 152.804 438.393 152.768C438.365 152.731 438.352 152.649 438.352 152.521V150.84C438.297 150.913 438.16 151.004 437.941 151.113C437.158 151.451 436.561 151.697 436.15 151.852V153.137L436.232 158.742C436.232 160.146 435.932 161.066 435.33 161.504C434.765 161.923 433.794 162.133 432.418 162.133C432.245 162.133 432.131 162.133 432.076 162.133C431.794 162.133 431.616 162.074 431.543 161.955C431.479 161.864 431.415 161.641 431.352 161.285C431.251 160.665 431.028 159.986 430.682 159.248C431.229 159.321 431.93 159.357 432.787 159.357C433.197 159.357 433.402 159.093 433.402 158.564V152.877L432.363 153.219C431.935 153.383 431.607 153.542 431.379 153.697C431.242 153.807 431.083 153.861 430.9 153.861C430.736 153.861 430.627 153.747 430.572 153.52C430.39 152.854 430.221 151.961 430.066 150.84C430.951 150.749 431.816 150.58 432.664 150.334L433.402 150.143V144.688H432.924L430.518 144.742C430.372 144.742 430.281 144.724 430.244 144.688C430.217 144.651 430.203 144.569 430.203 144.441V142.391C430.203 142.245 430.221 142.158 430.258 142.131C430.294 142.104 430.381 142.09 430.518 142.09L432.924 142.145H433.402V140.736C433.402 139.232 433.325 137.906 433.17 136.758C434.218 136.794 435.175 136.863 436.041 136.963C436.342 136.99 436.492 137.09 436.492 137.264C436.492 137.355 436.424 137.551 436.287 137.852C436.196 138.079 436.15 139.023 436.15 140.682V142.145L437.709 142.09C437.864 142.09 437.955 142.108 437.982 142.145C438.01 142.181 438.023 142.263 438.023 142.391V144.441C438.023 144.587 438.005 144.674 437.969 144.701C437.932 144.729 437.846 144.742 437.709 144.742C437.673 144.742 437.499 144.738 437.189 144.729C436.861 144.71 436.515 144.697 436.15 144.688V149.158C437.071 148.803 437.891 148.461 438.611 148.133C438.52 148.652 438.475 149.322 438.475 150.143V150.334C438.511 150.316 438.575 150.307 438.666 150.307L442.48 150.361H445.215V149.883C445.215 148.671 445.151 147.75 445.023 147.121C445.862 147.148 446.728 147.203 447.621 147.285C447.384 146.957 447.266 146.483 447.266 145.863V143.99C447.266 142.66 447.206 141.671 447.088 141.023C447.844 141.023 448.688 141.069 449.617 141.16C449.936 141.188 450.096 141.288 450.096 141.461C450.096 141.579 450.036 141.748 449.918 141.967C449.845 142.104 449.809 142.618 449.809 143.512V144.66C449.809 145.107 449.854 145.367 449.945 145.439C450.064 145.549 450.456 145.604 451.121 145.604C451.85 145.604 452.32 145.503 452.529 145.303C452.785 145.048 452.921 144.478 452.939 143.594C453.404 143.885 453.974 144.1 454.648 144.236C454.949 144.309 455.141 144.373 455.223 144.428C455.305 144.492 455.346 144.596 455.346 144.742C455.346 144.824 455.327 144.975 455.291 145.193C455.145 146.187 454.822 146.902 454.32 147.34C453.801 147.805 452.698 148.037 451.012 148.037C449.562 148.037 448.637 147.946 448.236 147.764C448.218 147.873 448.163 148.005 448.072 148.16C447.981 148.361 447.936 148.835 447.936 149.582V150.361H451.326L455.154 150.307C455.3 150.307 455.391 150.325 455.428 150.361C455.455 150.398 455.469 150.484 455.469 150.621V152.521C455.469 152.658 455.451 152.745 455.414 152.781C455.387 152.809 455.3 152.822 455.154 152.822L451.326 152.768H449.057C450.761 154.928 453.158 156.646 456.248 157.922C455.583 158.688 455.118 159.353 454.854 159.918C454.635 160.346 454.448 160.561 454.293 160.561C454.193 160.561 453.969 160.456 453.623 160.246C451.126 158.733 449.212 156.896 447.881 154.736L447.99 161.9C447.99 162.092 447.885 162.188 447.676 162.188H445.475C445.265 162.188 445.16 162.092 445.16 161.9C445.16 161.745 445.178 160.775 445.215 158.988C445.242 157.348 445.26 155.921 445.27 154.709C443.857 156.887 441.861 158.742 439.281 160.273C438.99 160.465 438.785 160.561 438.666 160.561C438.538 160.561 438.352 160.346 438.105 159.918C437.704 159.243 437.294 158.683 436.875 158.236C439.883 156.896 442.207 155.074 443.848 152.768H442.48ZM451.053 137.742L454.895 137.688C455.04 137.688 455.132 137.706 455.168 137.742C455.195 137.779 455.209 137.865 455.209 138.002L455.141 139.137V140.039L455.209 142.582C455.209 142.746 455.186 142.846 455.141 142.883C455.113 142.91 455.031 142.924 454.895 142.924H452.939C452.785 142.924 452.693 142.901 452.666 142.855C452.639 142.819 452.625 142.728 452.625 142.582V140.094H441.373V142.582C441.373 142.746 441.35 142.846 441.305 142.883C441.268 142.91 441.177 142.924 441.031 142.924H439.076C438.949 142.924 438.867 142.901 438.83 142.855C438.812 142.819 438.803 142.728 438.803 142.582L438.857 140.039V139.342L438.803 138.002C438.803 137.792 438.894 137.688 439.076 137.688L442.904 137.742H451.053ZM443.219 140.982C444.467 141.229 445.311 141.415 445.748 141.543C446.012 141.616 446.145 141.73 446.145 141.885C446.145 142.031 446.085 142.172 445.967 142.309C445.775 142.564 445.63 142.896 445.529 143.307C444.91 145.549 443.533 147.299 441.4 148.557C441.081 148.739 440.849 148.83 440.703 148.83C440.548 148.83 440.361 148.652 440.143 148.297C439.824 147.786 439.372 147.29 438.789 146.807C440.94 145.977 442.312 144.633 442.904 142.773C443.077 142.254 443.182 141.657 443.219 140.982ZM469.564 144.387L465.982 144.441C465.855 144.441 465.777 144.428 465.75 144.4C465.723 144.373 465.709 144.286 465.709 144.141V141.939C465.709 141.775 465.723 141.68 465.75 141.652C465.777 141.625 465.855 141.611 465.982 141.611L469.564 141.666H476.4V139.957C476.4 138.435 476.337 137.305 476.209 136.566C477.376 136.603 478.392 136.671 479.258 136.771C479.522 136.79 479.654 136.89 479.654 137.072C479.654 137.273 479.609 137.514 479.518 137.797C479.417 138.107 479.367 138.809 479.367 139.902V141.666H486.094L489.676 141.611C489.822 141.611 489.908 141.634 489.936 141.68C489.963 141.716 489.977 141.803 489.977 141.939V144.141C489.977 144.286 489.958 144.373 489.922 144.4C489.885 144.428 489.803 144.441 489.676 144.441L486.094 144.387H479.627C480.165 146.201 480.939 147.896 481.951 149.473C483.118 148.452 484.134 147.426 485 146.396C485.355 145.986 485.652 145.54 485.889 145.057C486.809 145.631 487.538 146.16 488.076 146.643C488.304 146.852 488.418 147.039 488.418 147.203C488.418 147.376 488.286 147.527 488.021 147.654C487.657 147.837 487.183 148.219 486.6 148.803C485.706 149.723 484.658 150.658 483.455 151.605C485.314 153.875 487.725 155.766 490.688 157.279C490.122 157.844 489.617 158.519 489.17 159.303C488.924 159.731 488.746 159.945 488.637 159.945C488.564 159.945 488.35 159.831 487.994 159.604C483.719 156.869 480.798 153.173 479.23 148.516C479.358 154.076 479.422 157.503 479.422 158.797C479.422 160.073 479.066 160.925 478.355 161.354C477.736 161.736 476.451 161.941 474.5 161.969C474.382 161.969 474.281 161.969 474.199 161.969C473.926 161.969 473.748 161.91 473.666 161.791C473.62 161.727 473.543 161.504 473.434 161.121C473.133 160.146 472.786 159.426 472.395 158.961C473.397 159.061 474.126 159.111 474.582 159.111C475.375 159.111 475.881 159.034 476.1 158.879C476.3 158.742 476.4 158.464 476.4 158.045V144.387H469.564ZM474.924 151.182C474.951 151.747 475.042 152.408 475.197 153.164C475.27 153.501 475.307 153.72 475.307 153.82C475.307 154.003 475.102 154.253 474.691 154.572C472.723 156.031 470.69 157.343 468.594 158.51C468.366 158.637 468.097 158.824 467.787 159.07C467.623 159.262 467.473 159.357 467.336 159.357C467.172 159.357 467.031 159.234 466.912 158.988C466.475 158.204 466.074 157.357 465.709 156.445C466.32 156.263 467.076 155.953 467.979 155.516C470.403 154.285 472.718 152.84 474.924 151.182ZM469.934 145.357C471.319 146.296 472.609 147.445 473.803 148.803C473.912 148.912 473.967 149.003 473.967 149.076C473.967 149.122 473.912 149.217 473.803 149.363L472.258 150.922C472.085 151.104 471.966 151.195 471.902 151.195C471.848 151.195 471.779 151.145 471.697 151.045C470.64 149.66 469.4 148.434 467.979 147.367C467.851 147.267 467.787 147.194 467.787 147.148C467.787 147.094 467.869 146.98 468.033 146.807L469.373 145.467C469.519 145.321 469.628 145.248 469.701 145.248C469.756 145.248 469.833 145.285 469.934 145.357ZM484.016 136.812C484.918 137.396 485.952 138.294 487.119 139.506C487.201 139.57 487.242 139.633 487.242 139.697C487.242 139.798 487.146 139.921 486.955 140.066L485.615 141.188C485.451 141.315 485.342 141.379 485.287 141.379C485.214 141.379 485.118 141.306 485 141.16C484.253 140.221 483.264 139.287 482.033 138.357C481.924 138.275 481.869 138.212 481.869 138.166C481.869 138.111 481.951 138.016 482.115 137.879L483.373 136.812C483.492 136.721 483.592 136.676 483.674 136.676C483.738 136.676 483.852 136.721 484.016 136.812Z" fill="black"/>
<circle cx="700" cy="150" r="147" stroke="black" stroke-width="6"/>
<path d="M646.797 141.215L642.955 141.27C642.809 141.27 642.723 141.251 642.695 141.215C642.668 141.178 642.654 141.092 642.654 140.955V138.891C642.654 138.727 642.673 138.626 642.709 138.59C642.745 138.562 642.827 138.549 642.955 138.549L646.797 138.604H656.695L660.537 138.549C660.683 138.549 660.774 138.572 660.811 138.617C660.838 138.654 660.852 138.745 660.852 138.891V140.955C660.852 141.11 660.829 141.201 660.783 141.229C660.756 141.256 660.674 141.27 660.537 141.27L656.695 141.215H654.918V145.521H655.779L659.662 145.467C659.817 145.467 659.908 145.485 659.936 145.521C659.963 145.558 659.977 145.64 659.977 145.768L659.922 150.361V155.242L659.977 161.367C659.977 161.513 659.958 161.604 659.922 161.641C659.885 161.668 659.803 161.682 659.676 161.682H657.488C657.333 161.682 657.242 161.659 657.215 161.613C657.188 161.586 657.174 161.504 657.174 161.367V160.191H645.457V161.477C645.457 161.622 645.439 161.714 645.402 161.75C645.366 161.777 645.279 161.791 645.143 161.791H642.982C642.837 161.791 642.75 161.773 642.723 161.736C642.695 161.7 642.682 161.613 642.682 161.477L642.736 155.324V150.895L642.682 145.768C642.682 145.622 642.7 145.535 642.736 145.508C642.773 145.48 642.859 145.467 642.996 145.467L646.824 145.521H647.549V141.215H646.797ZM657.174 147.982H654.918V157.703H657.174V147.982ZM650.146 157.703H652.32V147.982H650.146V157.703ZM645.457 157.703H647.549V147.982H645.457V157.703ZM650.146 145.521H652.32V141.215H650.146V145.521ZM634.588 147.518C636.566 145.202 638.161 142.195 639.373 138.494C639.61 137.692 639.76 137.022 639.824 136.484C640.954 136.822 641.811 137.136 642.395 137.428C642.695 137.546 642.846 137.715 642.846 137.934C642.846 138.07 642.741 138.239 642.531 138.439C642.385 138.567 642.203 138.941 641.984 139.561C641.419 141.146 640.886 142.482 640.385 143.566V157.73L640.439 161.955C640.439 162.101 640.421 162.192 640.385 162.229C640.348 162.256 640.266 162.27 640.139 162.27H637.855C637.71 162.27 637.623 162.251 637.596 162.215C637.568 162.178 637.555 162.092 637.555 161.955L637.609 157.73V151.797C637.609 150.284 637.618 149.126 637.637 148.324C637.336 148.771 636.871 149.377 636.242 150.143C636.005 150.407 635.837 150.539 635.736 150.539C635.59 150.539 635.486 150.38 635.422 150.061C635.24 149.021 634.962 148.174 634.588 147.518ZM682.645 141.83L678.816 141.885C678.671 141.885 678.584 141.862 678.557 141.816C678.538 141.789 678.529 141.702 678.529 141.557V139.643C678.529 139.506 678.548 139.428 678.584 139.41C678.611 139.383 678.689 139.369 678.816 139.369L682.645 139.424H685.98L686.09 138.617C686.172 137.888 686.213 137.323 686.213 136.922C686.213 136.785 686.208 136.685 686.199 136.621C687.202 136.676 688.145 136.762 689.029 136.881C689.312 136.881 689.453 136.99 689.453 137.209C689.453 137.346 689.385 137.496 689.248 137.66C689.093 137.888 688.993 138.157 688.947 138.467C688.874 138.859 688.829 139.178 688.811 139.424H691.545L695.346 139.369C695.555 139.369 695.66 139.46 695.66 139.643V141.557C695.66 141.712 695.642 141.807 695.605 141.844C695.569 141.871 695.482 141.885 695.346 141.885L691.545 141.83H688.387C688.378 141.857 688.236 142.536 687.963 143.867H690.26L693.391 143.812C693.555 143.812 693.65 143.831 693.678 143.867C693.714 143.904 693.732 143.99 693.732 144.127L693.678 147.176V153.479L693.732 156.486C693.732 156.632 693.714 156.723 693.678 156.76C693.641 156.787 693.546 156.801 693.391 156.801L690.26 156.746H686.117L682.959 156.801C682.813 156.801 682.727 156.783 682.699 156.746C682.672 156.71 682.658 156.623 682.658 156.486L682.713 153.479V147.176L682.658 144.127C682.658 143.972 682.676 143.881 682.713 143.854C682.749 143.826 682.831 143.812 682.959 143.812L685.201 143.867C685.265 143.594 685.342 143.22 685.434 142.746C685.516 142.318 685.575 142.012 685.611 141.83H682.645ZM690.984 154.668V153.027H685.365V154.668H690.984ZM685.365 151.072H690.984V149.445H685.365V151.072ZM685.365 145.918V147.518H690.984V145.918H685.365ZM677.627 144.264C678.611 144.291 679.577 144.359 680.525 144.469C680.844 144.496 681.004 144.615 681.004 144.824C681.004 144.842 680.936 145.048 680.799 145.439C680.689 145.749 680.635 146.561 680.635 147.873V158.291H691.832L695.496 158.236C695.642 158.236 695.733 158.255 695.77 158.291C695.797 158.337 695.811 158.428 695.811 158.564V160.561C695.811 160.697 695.792 160.779 695.756 160.807C695.729 160.843 695.642 160.861 695.496 160.861L691.832 160.807H680.635V161.818C680.635 161.964 680.612 162.051 680.566 162.078C680.539 162.105 680.457 162.119 680.32 162.119H678.078C677.932 162.119 677.846 162.101 677.818 162.064C677.791 162.028 677.777 161.946 677.777 161.818L677.832 158.852V147.9C677.832 146.469 677.764 145.257 677.627 144.264ZM669.547 147.367C671.743 144.924 673.443 141.958 674.646 138.467C674.893 137.729 675.052 137.077 675.125 136.512C676.219 136.785 677.076 137.045 677.695 137.291C677.996 137.4 678.146 137.542 678.146 137.715C678.146 137.861 678.051 138.029 677.859 138.221C677.677 138.376 677.481 138.758 677.271 139.369C676.779 140.709 676.232 142.012 675.631 143.279V157.621L675.686 161.873C675.686 162.019 675.663 162.11 675.617 162.146C675.59 162.174 675.508 162.188 675.371 162.188H673.047C672.865 162.188 672.773 162.083 672.773 161.873L672.828 157.621V151.551C672.828 149.938 672.837 148.702 672.855 147.846C672.29 148.593 671.757 149.254 671.256 149.828C671.019 150.092 670.85 150.225 670.75 150.225C670.632 150.225 670.531 150.056 670.449 149.719C670.167 148.689 669.866 147.905 669.547 147.367ZM704.82 159.07C705.905 157.548 706.661 155.935 707.09 154.23C707.5 152.708 707.705 150.799 707.705 148.502L707.678 145.344C707.678 145.143 707.769 145.043 707.951 145.043L711.178 145.098H715.717L718.902 145.043C719.048 145.043 719.139 145.061 719.176 145.098C719.203 145.134 719.217 145.216 719.217 145.344L719.162 147.627V150.648L719.217 152.891C719.217 153.036 719.194 153.123 719.148 153.15C719.121 153.178 719.039 153.191 718.902 153.191L715.717 153.137H710.029C709.838 154.349 709.633 155.365 709.414 156.186C709.049 157.562 708.407 159.038 707.486 160.615C707.286 160.952 707.126 161.121 707.008 161.121C706.917 161.121 706.73 160.952 706.447 160.615C705.919 159.95 705.376 159.435 704.82 159.07ZM716.551 151.154V150.033H710.33L710.248 151.154H716.551ZM716.551 147.053H710.371V148.16H716.551V147.053ZM722.539 158.715C723.478 158.806 724.485 158.852 725.561 158.852C726.053 158.852 726.385 158.765 726.559 158.592C726.723 158.428 726.805 158.141 726.805 157.73V140.928C726.805 139.26 726.727 137.924 726.572 136.922C727.675 136.958 728.669 137.027 729.553 137.127C729.835 137.154 729.977 137.255 729.977 137.428C729.977 137.51 729.926 137.715 729.826 138.043C729.717 138.271 729.662 139.214 729.662 140.873V152.727L729.717 158.291C729.717 159.066 729.639 159.654 729.484 160.055C729.329 160.456 729.07 160.784 728.705 161.039C728.268 161.322 727.748 161.508 727.146 161.6C726.554 161.691 725.665 161.736 724.48 161.736C724.043 161.736 723.779 161.686 723.688 161.586C723.615 161.504 723.533 161.253 723.441 160.834C723.223 159.932 722.922 159.225 722.539 158.715ZM712.203 136.402C713.069 136.53 713.93 136.689 714.787 136.881C715.033 136.936 715.156 137.054 715.156 137.236C715.156 137.373 715.056 137.496 714.855 137.605C715.794 138.654 716.788 139.506 717.836 140.162C718.602 140.654 719.636 141.183 720.939 141.748C720.557 142.268 720.247 142.865 720.01 143.539C719.855 143.986 719.718 144.209 719.6 144.209C719.49 144.209 719.281 144.127 718.971 143.963C718.141 143.516 717.357 143.01 716.619 142.445V143.785C716.619 143.94 716.601 144.031 716.564 144.059C716.528 144.086 716.446 144.1 716.318 144.1L714.418 144.045H712.791L710.891 144.1C710.727 144.1 710.626 144.081 710.59 144.045C710.562 144.008 710.549 143.922 710.549 143.785V142.609C709.318 143.694 708.133 144.555 706.994 145.193C706.648 145.376 706.434 145.467 706.352 145.467C706.233 145.467 706.074 145.253 705.873 144.824C705.6 144.159 705.253 143.571 704.834 143.061C707.623 141.775 709.806 140.039 711.383 137.852C711.766 137.332 712.039 136.849 712.203 136.402ZM711.273 141.939C711.465 141.958 711.971 141.967 712.791 141.967H714.418C715.293 141.967 715.812 141.958 715.977 141.939C715.12 141.238 714.29 140.39 713.488 139.396C712.741 140.39 712.003 141.238 711.273 141.939ZM719.777 161.654C719.777 161.846 719.668 161.941 719.449 161.941H717.357C717.148 161.941 717.043 161.846 717.043 161.654V161.012H712.504V161.846C712.504 162.001 712.486 162.092 712.449 162.119C712.413 162.146 712.331 162.16 712.203 162.16H710.18C710.043 162.16 709.956 162.142 709.92 162.105C709.902 162.069 709.893 161.982 709.893 161.846L709.934 158.537V156.938L709.893 154.873C709.893 154.718 709.911 154.627 709.947 154.6C709.984 154.572 710.066 154.559 710.193 154.559L713.119 154.613H716.51L719.463 154.559C719.609 154.559 719.7 154.577 719.736 154.613C719.764 154.65 719.777 154.736 719.777 154.873L719.709 156.609V158.373L719.777 161.654ZM717.043 156.664H712.504V158.961H717.043V156.664ZM724.576 139.479C724.576 139.497 724.521 139.702 724.412 140.094C724.357 140.358 724.33 141.356 724.33 143.088V150.812L724.357 154.518C724.357 154.663 724.339 154.755 724.303 154.791C724.275 154.827 724.198 154.846 724.07 154.846H721.773C721.637 154.846 721.555 154.827 721.527 154.791C721.509 154.745 721.5 154.654 721.5 154.518L721.555 150.812V143.115C721.555 141.229 721.486 139.848 721.35 138.973C722.352 139 723.305 139.064 724.207 139.164C724.453 139.191 724.576 139.296 724.576 139.479ZM766.385 158.264C766.011 158.838 765.76 159.558 765.633 160.424C765.56 160.889 765.473 161.158 765.373 161.23C765.282 161.303 765.022 161.349 764.594 161.367C761.559 161.54 758.273 161.627 754.736 161.627C751.628 161.627 749.445 161.367 748.188 160.848C747.076 160.383 746.16 159.549 745.439 158.346C744.51 159.248 743.566 160.073 742.609 160.82C742.345 161.03 742.158 161.212 742.049 161.367C741.93 161.54 741.794 161.627 741.639 161.627C741.484 161.627 741.352 161.513 741.242 161.285C740.941 160.729 740.559 159.854 740.094 158.66C740.777 158.341 741.329 158.049 741.748 157.785C742.413 157.375 743.188 156.778 744.072 155.994V149.773H742.732L740.709 149.842C740.545 149.842 740.449 149.819 740.422 149.773C740.385 149.737 740.367 149.646 740.367 149.5V147.367C740.367 147.221 740.39 147.135 740.436 147.107C740.472 147.08 740.563 147.066 740.709 147.066L742.732 147.121H744.455L746.561 147.066C746.706 147.066 746.798 147.085 746.834 147.121C746.861 147.158 746.875 147.24 746.875 147.367L746.82 150.033V155.967C747.413 157.124 748.178 157.899 749.117 158.291C750.047 158.665 751.774 158.852 754.299 158.852C758.464 158.852 762.493 158.656 766.385 158.264ZM752.016 147.818L748.215 147.873C748.051 147.873 747.955 147.855 747.928 147.818C747.891 147.791 747.873 147.718 747.873 147.6V145.631C747.873 145.485 747.896 145.398 747.941 145.371C747.978 145.344 748.069 145.33 748.215 145.33L752.016 145.385H755.133V142.582H751.551C751.259 143.083 750.885 143.662 750.43 144.318C750.138 144.692 749.942 144.879 749.842 144.879C749.714 144.879 749.509 144.747 749.227 144.482C748.698 144.045 748.137 143.703 747.545 143.457C748.666 142.217 749.6 140.741 750.348 139.027C750.585 138.398 750.74 137.811 750.812 137.264C751.505 137.4 752.33 137.642 753.287 137.988C753.57 138.098 753.711 138.221 753.711 138.357C753.711 138.467 753.633 138.594 753.479 138.74C753.314 138.913 753.128 139.242 752.918 139.725L752.754 140.148H755.133V139.643C755.133 138.467 755.064 137.478 754.928 136.676C755.903 136.676 756.86 136.721 757.799 136.812C758.081 136.849 758.223 136.954 758.223 137.127C758.223 137.273 758.173 137.428 758.072 137.592C757.963 137.82 757.908 138.458 757.908 139.506V140.148H760.15L763.596 140.094C763.742 140.094 763.828 140.117 763.855 140.162C763.883 140.199 763.896 140.285 763.896 140.422V142.336C763.896 142.482 763.878 142.568 763.842 142.596C763.805 142.623 763.723 142.637 763.596 142.637L760.15 142.582H757.908V145.385H761.203L765.045 145.33C765.209 145.33 765.305 145.348 765.332 145.385C765.368 145.421 765.387 145.503 765.387 145.631V147.6C765.387 147.727 765.364 147.805 765.318 147.832C765.282 147.859 765.191 147.873 765.045 147.873L761.203 147.818H752.016ZM759.385 149.555L762.885 149.5C763.031 149.5 763.122 149.518 763.158 149.555C763.186 149.591 763.199 149.678 763.199 149.814L763.145 151.961V154.654L763.199 156.814C763.199 156.951 763.181 157.038 763.145 157.074C763.117 157.102 763.031 157.115 762.885 157.115L759.385 157.061H753.848L750.307 157.115C750.161 157.115 750.074 157.097 750.047 157.061C750.02 157.024 750.006 156.942 750.006 156.814L750.061 154.654V151.961L750.006 149.814C750.006 149.66 750.024 149.568 750.061 149.541C750.097 149.514 750.179 149.5 750.307 149.5L753.848 149.555H759.385ZM760.314 154.654V151.934H752.836V154.654H760.314ZM743.361 137.51C744.747 138.831 745.913 140.217 746.861 141.666C746.943 141.757 746.984 141.83 746.984 141.885C746.984 141.958 746.889 142.072 746.697 142.227L745.125 143.457C744.97 143.585 744.861 143.648 744.797 143.648C744.715 143.648 744.628 143.576 744.537 143.43C743.489 141.725 742.345 140.276 741.105 139.082C741.023 138.991 740.982 138.918 740.982 138.863C740.982 138.799 741.069 138.704 741.242 138.576L742.746 137.51C742.892 137.4 743.006 137.346 743.088 137.346C743.161 137.346 743.252 137.4 743.361 137.51Z" fill="black"/>
<circle cx="975" cy="150" r="147" stroke="black" stroke-width="6"/>
<path d="M971.07 159.33C970.569 159.959 970.168 160.615 969.867 161.299C969.63 161.8 969.443 162.051 969.307 162.051C969.234 162.051 969.02 161.987 968.664 161.859C966.422 160.975 964.526 159.891 962.977 158.605C961.336 159.982 959.431 161.112 957.262 161.996C956.979 162.124 956.765 162.188 956.619 162.188C956.464 162.188 956.268 161.955 956.031 161.49C955.648 160.779 955.211 160.228 954.719 159.836C954.728 160.301 954.742 160.706 954.76 161.053C954.769 161.29 954.773 161.417 954.773 161.436C954.773 161.581 954.755 161.668 954.719 161.695C954.682 161.723 954.6 161.736 954.473 161.736H952.49C952.335 161.736 952.244 161.718 952.217 161.682C952.189 161.645 952.176 161.563 952.176 161.436V160.506H949.141V161.955C949.141 162.11 949.122 162.201 949.086 162.229C949.049 162.256 948.963 162.27 948.826 162.27H946.844C946.68 162.27 946.579 162.251 946.543 162.215C946.516 162.178 946.502 162.092 946.502 161.955L946.57 157.73V155.939L946.502 153.314C946.502 153.16 946.525 153.068 946.57 153.041C946.607 153.014 946.698 153 946.844 153L949.4 153.055H951.889L954.473 153C954.618 153 954.705 153.018 954.732 153.055C954.76 153.091 954.773 153.178 954.773 153.314L954.719 155.461V159.809C957.052 159.116 959.135 158.068 960.967 156.664C959.508 154.987 958.406 153.046 957.658 150.84L956.4 150.867C956.255 150.867 956.163 150.844 956.127 150.799C956.1 150.762 956.086 150.676 956.086 150.539V148.57C956.086 148.388 956.191 148.297 956.4 148.297L959.818 148.352H966.34C966.559 148.352 966.764 148.315 966.955 148.242C967.146 148.151 967.288 148.105 967.379 148.105C967.561 148.105 967.912 148.365 968.432 148.885C969.015 149.486 969.307 149.878 969.307 150.061C969.307 150.27 969.202 150.439 968.992 150.566C968.746 150.721 968.523 151.008 968.322 151.428C967.493 153.314 966.385 155.051 965 156.637C966.686 157.822 968.71 158.719 971.07 159.33ZM965.588 150.812H960.406C961.044 152.38 961.892 153.734 962.949 154.873C964.07 153.67 964.95 152.316 965.588 150.812ZM952.176 155.379H949.141V158.182H952.176V155.379ZM955.32 145.932C956.378 145.212 957.13 144.364 957.576 143.389C958.014 142.441 958.232 141.256 958.232 139.834L958.178 137.756C958.178 137.61 958.201 137.523 958.246 137.496C958.283 137.469 958.374 137.455 958.52 137.455L960.98 137.51H963.783L966.299 137.455C966.454 137.455 966.545 137.473 966.572 137.51C966.6 137.546 966.613 137.628 966.613 137.756L966.559 140.025V142.938C966.559 143.439 966.622 143.758 966.75 143.895C966.868 144.004 967.133 144.059 967.543 144.059C967.871 144.059 968.122 143.926 968.295 143.662C968.432 143.443 968.523 142.605 968.568 141.146C969.079 141.456 969.63 141.707 970.223 141.898C970.523 141.999 970.71 142.085 970.783 142.158C970.847 142.231 970.879 142.363 970.879 142.555C970.879 142.6 970.874 142.719 970.865 142.91C970.792 144.414 970.455 145.412 969.854 145.904C969.398 146.333 968.45 146.547 967.01 146.547C965.834 146.547 965.036 146.415 964.617 146.15C964.116 145.822 963.865 145.18 963.865 144.223V140.107H960.953C960.926 141.903 960.639 143.411 960.092 144.633C959.663 145.59 959.035 146.46 958.205 147.244C957.904 147.545 957.681 147.695 957.535 147.695C957.389 147.695 957.166 147.518 956.865 147.162C956.382 146.615 955.867 146.205 955.32 145.932ZM948.703 141.488H952.34L955.334 141.434C955.48 141.434 955.571 141.452 955.607 141.488C955.635 141.525 955.648 141.607 955.648 141.734V143.73C955.648 143.885 955.626 143.981 955.58 144.018C955.553 144.045 955.471 144.059 955.334 144.059L952.34 144.004H948.703L945.736 144.059C945.581 144.059 945.49 144.036 945.463 143.99C945.436 143.954 945.422 143.867 945.422 143.73V141.734C945.422 141.589 945.44 141.502 945.477 141.475C945.513 141.447 945.6 141.434 945.736 141.434L948.703 141.488ZM949.455 137.66H951.998L954.527 137.605C954.682 137.605 954.778 137.624 954.814 137.66C954.842 137.697 954.855 137.779 954.855 137.906V139.779C954.855 139.934 954.837 140.025 954.801 140.053C954.764 140.08 954.673 140.094 954.527 140.094L951.998 140.039H949.455L946.912 140.094C946.757 140.094 946.666 140.076 946.639 140.039C946.611 140.003 946.598 139.916 946.598 139.779V137.906C946.598 137.76 946.616 137.674 946.652 137.646C946.689 137.619 946.775 137.605 946.912 137.605L949.455 137.66ZM949.564 145.494H951.779L954.131 145.439C954.295 145.439 954.391 145.458 954.418 145.494C954.454 145.521 954.473 145.599 954.473 145.727V147.545C954.473 147.691 954.45 147.777 954.404 147.805C954.368 147.832 954.277 147.846 954.131 147.846L951.779 147.791H949.564L947.186 147.846C947.04 147.846 946.949 147.827 946.912 147.791C946.885 147.755 946.871 147.673 946.871 147.545V145.727C946.871 145.535 946.976 145.439 947.186 145.439L949.564 145.494ZM949.564 149.254H951.779L954.131 149.186C954.295 149.186 954.391 149.204 954.418 149.24C954.454 149.277 954.473 149.363 954.473 149.5V151.291C954.473 151.446 954.45 151.537 954.404 151.564C954.368 151.592 954.277 151.605 954.131 151.605L951.779 151.551H949.564L947.186 151.605C947.04 151.605 946.949 151.587 946.912 151.551C946.885 151.514 946.871 151.428 946.871 151.291V149.5C946.871 149.354 946.894 149.263 946.939 149.227C946.967 149.199 947.049 149.186 947.186 149.186L949.564 149.254ZM997.115 136.539C998.364 136.566 999.389 136.63 1000.19 136.73C1000.49 136.758 1000.64 136.863 1000.64 137.045C1000.64 137.118 1000.62 137.214 1000.59 137.332C1000.54 137.469 1000.51 137.56 1000.51 137.605C1000.37 137.915 1000.3 138.95 1000.3 140.709V145.727H1002.09L1005.65 145.658C1005.81 145.658 1005.91 145.681 1005.95 145.727C1005.97 145.763 1005.99 145.854 1005.99 146V148.27C1005.99 148.415 1005.97 148.502 1005.92 148.529C1005.88 148.557 1005.79 148.57 1005.65 148.57L1002.09 148.516H1000.3V156.979L1000.36 161.873C1000.36 162.037 1000.34 162.137 1000.3 162.174C1000.27 162.201 1000.2 162.215 1000.08 162.215H997.553C997.425 162.215 997.348 162.192 997.32 162.146C997.293 162.11 997.279 162.019 997.279 161.873L997.334 157.006V148.516H995.762L992.18 148.57C992.016 148.57 991.92 148.552 991.893 148.516C991.865 148.479 991.852 148.397 991.852 148.27V146C991.852 145.836 991.87 145.736 991.906 145.699C991.943 145.672 992.034 145.658 992.18 145.658L995.762 145.727H997.334V140.764C997.334 139.014 997.261 137.605 997.115 136.539ZM990.977 161.436C990.977 161.581 990.958 161.668 990.922 161.695C990.885 161.723 990.799 161.736 990.662 161.736H988.447C988.301 161.736 988.215 161.718 988.188 161.682C988.16 161.645 988.146 161.563 988.146 161.436V160.533H984.592V161.928C984.592 162.083 984.574 162.174 984.537 162.201C984.501 162.229 984.414 162.242 984.277 162.242H982.104C981.939 162.242 981.839 162.224 981.803 162.188C981.775 162.151 981.762 162.064 981.762 161.928L981.816 157.73V155.885L981.762 153.26C981.762 153.105 981.785 153.014 981.83 152.986C981.867 152.959 981.958 152.945 982.104 152.945L984.646 153H988.092L990.662 152.945C990.817 152.945 990.908 152.964 990.936 153C990.963 153.036 990.977 153.123 990.977 153.26L990.922 155.406V157.402L990.977 161.436ZM988.146 155.379H984.592V158.154H988.146V155.379ZM983.648 141.434H988.789L991.797 141.379C991.979 141.379 992.07 141.479 992.07 141.68V143.676C992.07 143.831 992.052 143.926 992.016 143.963C991.988 143.99 991.915 144.004 991.797 144.004L988.789 143.949H983.648L980.682 144.004C980.527 144.004 980.436 143.986 980.408 143.949C980.381 143.904 980.367 143.812 980.367 143.676V141.68C980.367 141.534 980.385 141.447 980.422 141.42C980.458 141.393 980.545 141.379 980.682 141.379L983.648 141.434ZM984.729 137.66H988.229L990.758 137.605C990.922 137.605 991.018 137.624 991.045 137.66C991.072 137.697 991.086 137.779 991.086 137.906V139.766C991.086 139.911 991.068 139.998 991.031 140.025C990.995 140.053 990.904 140.066 990.758 140.066L988.229 140.012H984.729L982.186 140.066C982.04 140.066 981.953 140.048 981.926 140.012C981.898 139.975 981.885 139.893 981.885 139.766V137.906C981.885 137.76 981.903 137.674 981.939 137.646C981.976 137.619 982.058 137.605 982.186 137.605L984.729 137.66ZM984.824 145.412H987.928L990.279 145.357C990.443 145.357 990.539 145.376 990.566 145.412C990.603 145.449 990.621 145.531 990.621 145.658V147.49C990.621 147.636 990.598 147.723 990.553 147.75C990.516 147.777 990.425 147.791 990.279 147.791L987.928 147.736H984.824L982.445 147.791C982.29 147.791 982.199 147.773 982.172 147.736C982.145 147.7 982.131 147.618 982.131 147.49V145.658C982.131 145.512 982.149 145.426 982.186 145.398C982.222 145.371 982.309 145.357 982.445 145.357L984.824 145.412ZM984.824 149.186H987.928L990.279 149.131C990.443 149.131 990.539 149.149 990.566 149.186C990.603 149.222 990.621 149.304 990.621 149.432V151.236C990.621 151.382 990.598 151.469 990.553 151.496C990.516 151.523 990.425 151.537 990.279 151.537L987.928 151.482H984.824L982.445 151.537C982.29 151.537 982.199 151.519 982.172 151.482C982.145 151.446 982.131 151.364 982.131 151.236V149.432C982.131 149.286 982.149 149.199 982.186 149.172C982.222 149.145 982.309 149.131 982.445 149.131L984.824 149.186Z" fill="black"/>
<circle cx="1250" cy="150" r="147" stroke="black" stroke-width="6"/>
<path d="M1185.66 158.947C1186.31 159.038 1186.99 159.084 1187.7 159.084C1188.18 159.084 1188.5 158.997 1188.65 158.824C1188.78 158.669 1188.85 158.396 1188.85 158.004V146.465H1184.27L1181.19 146.52C1181.03 146.52 1180.93 146.501 1180.89 146.465C1180.86 146.428 1180.85 146.346 1180.85 146.219L1180.9 143.785V140.039L1180.85 137.578C1180.85 137.423 1180.87 137.332 1180.92 137.305C1180.95 137.277 1181.04 137.264 1181.19 137.264L1184.27 137.318H1188.37L1191.48 137.264C1191.63 137.264 1191.72 137.282 1191.74 137.318C1191.77 137.355 1191.79 137.441 1191.79 137.578L1191.73 141.406V153.41L1191.84 158.523C1191.84 159.262 1191.78 159.818 1191.65 160.191C1191.53 160.547 1191.32 160.852 1191.03 161.107C1190.68 161.408 1190.22 161.609 1189.67 161.709C1189.15 161.809 1188.37 161.859 1187.33 161.859C1186.87 161.859 1186.6 161.814 1186.52 161.723C1186.44 161.641 1186.37 161.399 1186.3 160.998C1186.18 160.232 1185.96 159.549 1185.66 158.947ZM1188.85 144.482V142.855H1183.64V144.482H1188.85ZM1188.85 139.396H1183.64V140.982H1188.85V139.396ZM1175.8 137.318L1178.62 137.264C1178.81 137.264 1178.91 137.368 1178.91 137.578L1178.85 140.258V143.553L1178.91 146.219C1178.91 146.419 1178.81 146.52 1178.62 146.52L1175.8 146.465H1171.21V155.816L1171.26 161.859C1171.26 162.014 1171.25 162.105 1171.21 162.133C1171.17 162.16 1171.09 162.174 1170.96 162.174H1168.57C1168.43 162.174 1168.35 162.156 1168.31 162.119C1168.28 162.092 1168.27 162.005 1168.27 161.859L1168.32 155.816V143.662L1168.27 137.578C1168.27 137.423 1168.29 137.332 1168.32 137.305C1168.36 137.277 1168.45 137.264 1168.58 137.264L1171.91 137.318H1175.8ZM1176.1 144.482V142.855H1171.21V144.482H1176.1ZM1176.1 139.396H1171.21V140.982H1176.1V139.396ZM1172.75 159.973C1174.32 158.979 1175.32 157.607 1175.75 155.857L1175.8 155.352C1174.9 155.361 1174.11 155.374 1173.44 155.393C1173.39 155.393 1173.22 155.397 1172.92 155.406C1172.83 155.406 1172.77 155.406 1172.75 155.406C1172.61 155.406 1172.52 155.383 1172.48 155.338C1172.45 155.301 1172.44 155.215 1172.44 155.078V153.383C1172.44 153.237 1172.46 153.15 1172.49 153.123C1172.53 153.096 1172.62 153.082 1172.75 153.082L1175.94 153.137C1175.98 152.207 1175.99 151.359 1175.99 150.594C1175.3 150.603 1174.67 150.617 1174.11 150.635C1173.74 150.644 1173.55 150.648 1173.53 150.648C1173.37 150.648 1173.27 150.63 1173.25 150.594C1173.21 150.557 1173.19 150.475 1173.19 150.348V148.639C1173.19 148.484 1173.21 148.393 1173.26 148.365C1173.3 148.338 1173.39 148.324 1173.53 148.324L1177.03 148.379H1183.02L1186.52 148.324C1186.67 148.324 1186.76 148.342 1186.79 148.379C1186.82 148.415 1186.84 148.502 1186.84 148.639V150.348C1186.84 150.493 1186.82 150.58 1186.78 150.607C1186.74 150.635 1186.66 150.648 1186.52 150.648C1186.49 150.648 1186.38 150.644 1186.18 150.635C1185.49 150.617 1184.74 150.603 1183.95 150.594V153.137L1187.14 153.082C1187.28 153.082 1187.37 153.1 1187.41 153.137C1187.44 153.173 1187.45 153.255 1187.45 153.383V155.078C1187.45 155.224 1187.43 155.315 1187.4 155.352C1187.37 155.388 1187.28 155.406 1187.14 155.406L1183.95 155.352V157.949L1184.01 160.984C1184.01 161.139 1183.99 161.235 1183.95 161.271C1183.91 161.299 1183.83 161.312 1183.69 161.312H1181.63C1181.47 161.312 1181.38 161.294 1181.35 161.258C1181.33 161.221 1181.31 161.13 1181.31 160.984L1181.37 157.949V155.352H1178.43C1178.36 155.871 1178.3 156.272 1178.24 156.555C1177.84 158.368 1176.96 159.936 1175.58 161.258C1175.29 161.522 1175.11 161.654 1175.05 161.654C1174.95 161.654 1174.74 161.486 1174.41 161.148C1173.97 160.72 1173.42 160.328 1172.75 159.973ZM1178.61 153.137H1181.37V150.594H1178.66C1178.66 151.323 1178.64 152.171 1178.61 153.137ZM1224.49 155.967C1225.03 156.313 1225.66 156.573 1226.39 156.746C1226.73 156.837 1226.93 156.91 1227 156.965C1227.1 157.029 1227.14 157.138 1227.14 157.293C1227.14 157.384 1227.13 157.521 1227.1 157.703C1226.94 158.76 1226.75 159.535 1226.51 160.027C1226.3 160.474 1226 160.82 1225.61 161.066C1224.89 161.531 1223.54 161.764 1221.58 161.764C1219.28 161.764 1217.83 161.559 1217.24 161.148C1216.87 160.893 1216.63 160.592 1216.52 160.246C1216.42 159.936 1216.37 159.453 1216.37 158.797V154.176H1212.92C1212.51 156.227 1211.65 157.863 1210.34 159.084C1209.2 160.132 1207.54 161.053 1205.36 161.846C1205.01 161.973 1204.8 162.037 1204.75 162.037C1204.59 162.037 1204.39 161.805 1204.13 161.34C1203.72 160.574 1203.25 159.968 1202.71 159.521C1205.08 158.902 1206.8 158.173 1207.86 157.334C1208.85 156.55 1209.53 155.497 1209.9 154.176H1207.79L1204.05 154.23C1203.88 154.23 1203.78 154.212 1203.75 154.176C1203.72 154.139 1203.71 154.057 1203.71 153.93V151.906C1203.71 151.76 1203.73 151.674 1203.78 151.646C1203.81 151.619 1203.9 151.605 1204.05 151.605L1207.79 151.66H1210.32C1210.36 150.84 1210.38 150.156 1210.38 149.609V148.652C1209.89 148.661 1209.43 148.675 1209 148.693C1208.72 148.702 1208.58 148.707 1208.56 148.707C1208.4 148.707 1208.3 148.689 1208.26 148.652C1208.23 148.616 1208.22 148.534 1208.22 148.406V147.34C1207.2 147.996 1205.95 148.689 1204.47 149.418C1204.14 149.564 1203.92 149.637 1203.82 149.637C1203.67 149.637 1203.47 149.395 1203.23 148.912C1202.95 148.356 1202.57 147.841 1202.09 147.367C1204.01 146.62 1205.73 145.763 1207.26 144.797C1206.33 143.749 1205.39 142.842 1204.43 142.076C1204.29 141.958 1204.21 141.862 1204.21 141.789C1204.21 141.743 1204.29 141.661 1204.43 141.543L1205.84 140.422C1205.99 140.303 1206.1 140.244 1206.15 140.244C1206.21 140.244 1206.29 140.285 1206.4 140.367C1207.42 141.206 1208.44 142.149 1209.45 143.197C1210.69 142.176 1211.73 141.064 1212.58 139.861H1209.45L1206.51 139.916C1206.35 139.916 1206.25 139.898 1206.22 139.861C1206.19 139.825 1206.17 139.743 1206.17 139.615V137.674C1206.17 137.528 1206.19 137.441 1206.24 137.414C1206.27 137.387 1206.36 137.373 1206.51 137.373L1209.45 137.428H1213.32L1215.86 137.373C1216.08 137.373 1216.24 137.487 1216.34 137.715C1216.66 138.617 1217.09 139.419 1217.62 140.121C1217.64 140.148 1217.78 140.331 1218.02 140.668C1218.71 140.039 1219.27 139.442 1219.7 138.877C1219.96 138.567 1220.22 138.18 1220.48 137.715C1221.07 138.007 1221.79 138.435 1222.64 139C1222.84 139.137 1222.94 139.283 1222.94 139.438C1222.94 139.611 1222.82 139.752 1222.57 139.861C1222.25 140.025 1221.93 140.276 1221.63 140.613C1220.94 141.342 1220.3 141.962 1219.7 142.473C1220.38 143.065 1220.89 143.493 1221.23 143.758C1222.15 142.983 1222.94 142.208 1223.63 141.434C1223.97 140.978 1224.23 140.577 1224.41 140.23C1225.3 140.723 1226.02 141.151 1226.58 141.516C1226.81 141.661 1226.92 141.821 1226.92 141.994C1226.92 142.158 1226.8 142.286 1226.55 142.377C1226.27 142.495 1225.95 142.751 1225.58 143.143C1224.96 143.753 1224.24 144.414 1223.42 145.125C1224.75 145.845 1226.27 146.479 1227.99 147.025C1227.58 147.572 1227.24 148.165 1226.98 148.803C1226.78 149.286 1226.6 149.527 1226.44 149.527C1226.31 149.527 1226.09 149.464 1225.8 149.336C1224.11 148.598 1222.68 147.846 1221.49 147.08V148.406C1221.49 148.552 1221.48 148.639 1221.44 148.666C1221.4 148.693 1221.32 148.707 1221.18 148.707C1221.16 148.707 1220.96 148.702 1220.56 148.693C1220.15 148.675 1219.71 148.661 1219.22 148.652V151.66H1222.05L1225.83 151.605C1225.97 151.605 1226.07 151.624 1226.1 151.66C1226.13 151.697 1226.14 151.779 1226.14 151.906V153.93C1226.14 154.066 1226.12 154.153 1226.09 154.189C1226.06 154.217 1225.97 154.23 1225.83 154.23L1222.05 154.176H1219.22V157.949C1219.22 158.46 1219.32 158.788 1219.53 158.934C1219.77 159.125 1220.46 159.221 1221.58 159.221C1222.72 159.221 1223.46 159.07 1223.79 158.77C1224.16 158.423 1224.4 157.489 1224.49 155.967ZM1215.11 140.559C1213.81 142.646 1212.05 144.523 1209.85 146.191H1220.18C1218.14 144.669 1216.45 142.792 1215.11 140.559ZM1213.24 151.66H1216.37V148.652H1213.29V149.609C1213.29 150.111 1213.27 150.794 1213.24 151.66ZM1249.97 146.561C1250.8 146.561 1251.49 146.87 1252.05 147.49C1252.53 148.019 1252.78 148.643 1252.78 149.363C1252.78 150.193 1252.47 150.885 1251.85 151.441C1251.32 151.924 1250.69 152.166 1249.97 152.166C1249.14 152.166 1248.45 151.856 1247.89 151.236C1247.41 150.708 1247.17 150.083 1247.17 149.363C1247.17 148.534 1247.48 147.841 1248.1 147.285C1248.63 146.802 1249.25 146.561 1249.97 146.561ZM1277.04 154.682L1273.43 154.736C1273.29 154.736 1273.2 154.718 1273.16 154.682C1273.13 154.645 1273.12 154.563 1273.12 154.436V152.604C1273.12 152.449 1273.14 152.353 1273.17 152.316C1273.21 152.289 1273.3 152.275 1273.43 152.275L1277.04 152.33H1283.11C1283.21 151.856 1283.28 151.286 1283.32 150.621H1280.62L1276.82 150.676C1276.67 150.676 1276.58 150.658 1276.55 150.621C1276.52 150.585 1276.51 150.503 1276.51 150.375V148.598C1276.51 148.443 1276.53 148.347 1276.56 148.311C1276.6 148.283 1276.69 148.27 1276.82 148.27L1280.62 148.324H1283.4V146.67H1280.82L1277.12 146.725C1276.98 146.725 1276.89 146.702 1276.87 146.656C1276.84 146.62 1276.82 146.533 1276.82 146.396V144.66C1276.82 144.496 1276.84 144.396 1276.88 144.359C1276.91 144.332 1276.99 144.318 1277.12 144.318L1280.82 144.373H1283.37C1283.35 143.917 1283.3 143.225 1283.2 142.295C1284.57 142.34 1285.52 142.4 1286.05 142.473C1286.39 142.527 1286.56 142.646 1286.56 142.828C1286.56 142.965 1286.5 143.161 1286.39 143.416C1286.3 143.635 1286.26 143.954 1286.26 144.373H1289.14L1292.81 144.318C1292.97 144.318 1293.07 144.341 1293.09 144.387C1293.13 144.423 1293.15 144.514 1293.15 144.66V146.396C1293.15 146.551 1293.13 146.647 1293.08 146.684C1293.04 146.711 1292.95 146.725 1292.81 146.725L1289.14 146.67H1286.26V148.324H1289.28L1293.05 148.27C1293.22 148.27 1293.32 148.292 1293.35 148.338C1293.38 148.374 1293.39 148.461 1293.39 148.598V150.375C1293.39 150.521 1293.37 150.607 1293.33 150.635C1293.29 150.662 1293.2 150.676 1293.05 150.676L1289.28 150.621H1286.2C1286.19 150.749 1286.13 151.318 1286.03 152.33H1293.08L1296.7 152.275C1296.86 152.275 1296.95 152.298 1296.99 152.344C1297.02 152.38 1297.03 152.467 1297.03 152.604V154.436C1297.03 154.572 1297.01 154.659 1296.98 154.695C1296.95 154.723 1296.86 154.736 1296.7 154.736L1293.08 154.682H1287.23C1289.25 157.106 1292.78 158.61 1297.82 159.193C1297.35 159.786 1296.99 160.488 1296.76 161.299C1296.61 161.8 1296.43 162.051 1296.2 162.051C1295.97 162.051 1295.76 162.033 1295.58 161.996C1290.88 161.203 1287.32 159.157 1284.9 155.857C1284.69 156.222 1284.47 156.55 1284.23 156.842C1283.2 158.173 1281.82 159.266 1280.08 160.123C1278.63 160.834 1276.82 161.44 1274.66 161.941C1274.29 162.014 1274.08 162.051 1274.02 162.051C1273.84 162.051 1273.66 161.8 1273.49 161.299C1273.28 160.633 1272.92 159.995 1272.42 159.385C1274.92 159.029 1277.05 158.432 1278.81 157.594C1280.32 156.874 1281.4 156.044 1282.06 155.105L1282.31 154.682H1277.04ZM1292.78 139.273L1296.48 139.219C1296.63 139.219 1296.72 139.237 1296.74 139.273C1296.77 139.31 1296.79 139.396 1296.79 139.533L1296.73 140.928V142.104L1296.79 145.125C1296.79 145.271 1296.77 145.357 1296.73 145.385C1296.69 145.412 1296.61 145.426 1296.48 145.426H1294.19C1294.03 145.426 1293.94 145.408 1293.91 145.371C1293.89 145.335 1293.87 145.253 1293.87 145.125V141.734H1276.09V145.125C1276.09 145.271 1276.06 145.357 1276.02 145.385C1275.98 145.412 1275.89 145.426 1275.74 145.426H1273.49C1273.33 145.426 1273.24 145.408 1273.21 145.371C1273.19 145.335 1273.17 145.253 1273.17 145.125L1273.23 142.104V141.146L1273.17 139.533C1273.17 139.378 1273.19 139.287 1273.23 139.26C1273.26 139.232 1273.35 139.219 1273.49 139.219L1277.18 139.273H1283.28V139.137C1283.28 137.979 1283.2 137.09 1283.06 136.471C1284.13 136.498 1285.14 136.553 1286.08 136.635C1286.38 136.662 1286.53 136.749 1286.53 136.895C1286.53 136.967 1286.48 137.154 1286.37 137.455C1286.28 137.701 1286.23 138.262 1286.23 139.137V139.273H1292.78ZM1322.9 157.689C1322.78 158.291 1322.72 158.888 1322.72 159.48C1322.71 159.79 1322.66 159.977 1322.56 160.041C1322.48 160.096 1322.23 160.173 1321.8 160.273C1319.59 160.775 1316.74 161.303 1313.26 161.859C1312.72 161.96 1312.38 162.064 1312.22 162.174C1312.07 162.283 1311.93 162.338 1311.8 162.338C1311.6 162.338 1311.45 162.206 1311.35 161.941C1311.23 161.522 1311.02 160.725 1310.73 159.549C1310.99 159.531 1311.99 159.426 1313.72 159.234L1314.54 159.152V156.295C1312.99 157.115 1311.26 157.826 1309.36 158.428C1309.02 158.519 1308.8 158.564 1308.72 158.564C1308.55 158.564 1308.35 158.332 1308.13 157.867C1307.75 157.165 1307.39 156.65 1307.07 156.322C1310.73 155.511 1313.62 154.344 1315.75 152.822H1311.29L1307.79 152.877C1307.61 152.877 1307.52 152.777 1307.52 152.576V150.607C1307.52 150.407 1307.61 150.307 1307.79 150.307L1311.29 150.361H1318.61C1318.61 149.915 1318.56 149.222 1318.47 148.283C1319.57 148.347 1320.51 148.415 1321.27 148.488C1321.59 148.507 1321.75 148.616 1321.75 148.816C1321.75 148.926 1321.69 149.131 1321.57 149.432C1321.5 149.587 1321.46 149.896 1321.46 150.361H1328.78L1332.28 150.307C1332.42 150.307 1332.51 150.325 1332.54 150.361C1332.56 150.398 1332.58 150.48 1332.58 150.607V152.576C1332.58 152.713 1332.56 152.799 1332.52 152.836C1332.5 152.863 1332.41 152.877 1332.28 152.877L1328.78 152.822H1328.72C1329.29 153.205 1329.82 153.588 1330.31 153.971C1330.48 154.107 1330.57 154.249 1330.57 154.395C1330.57 154.568 1330.45 154.686 1330.2 154.75C1329.96 154.832 1329.67 155.01 1329.31 155.283C1328.77 155.702 1327.94 156.299 1326.81 157.074C1328.57 158.15 1330.75 158.943 1333.36 159.453C1332.87 160.018 1332.46 160.656 1332.13 161.367C1331.92 161.823 1331.71 162.051 1331.51 162.051C1331.41 162.051 1331.21 162.01 1330.9 161.928C1325.55 160.287 1321.91 157.252 1319.99 152.822H1319.59C1319 153.387 1318.21 154.012 1317.24 154.695V158.783C1319.42 158.428 1321.3 158.063 1322.9 157.689ZM1324.91 155.652C1325.87 154.978 1326.69 154.312 1327.37 153.656C1327.6 153.456 1327.83 153.178 1328.07 152.822H1322.72C1323.29 153.907 1324.02 154.85 1324.91 155.652ZM1321.64 147.764L1318.21 147.818C1318.04 147.818 1317.94 147.8 1317.91 147.764C1317.88 147.727 1317.87 147.645 1317.87 147.518V145.576C1317.87 145.439 1317.89 145.357 1317.94 145.33C1317.96 145.312 1318.05 145.303 1318.21 145.303L1321.64 145.33H1323.02V142.281H1321.2L1317.5 142.336C1317.35 142.336 1317.27 142.318 1317.24 142.281C1317.21 142.245 1317.2 142.158 1317.2 142.021V140.094C1317.2 139.93 1317.22 139.829 1317.25 139.793C1317.29 139.766 1317.37 139.752 1317.5 139.752L1321.2 139.807H1323.02V139.246C1323.02 138.152 1322.95 137.259 1322.82 136.566C1323.47 136.585 1324.45 136.648 1325.74 136.758C1326.04 136.785 1326.19 136.89 1326.19 137.072C1326.19 137.218 1326.14 137.387 1326.04 137.578C1325.93 137.779 1325.88 138.307 1325.88 139.164V139.807H1328.29L1331.98 139.752C1332.12 139.752 1332.21 139.775 1332.25 139.82C1332.28 139.857 1332.29 139.948 1332.29 140.094V142.021C1332.29 142.176 1332.27 142.268 1332.24 142.295C1332.2 142.322 1332.11 142.336 1331.98 142.336L1328.29 142.281H1325.88V145.33H1327.41L1330.88 145.303C1331.06 145.303 1331.16 145.316 1331.18 145.344C1331.21 145.371 1331.22 145.449 1331.22 145.576V147.518C1331.22 147.663 1331.2 147.75 1331.16 147.777C1331.12 147.805 1331.03 147.818 1330.88 147.818L1327.41 147.764H1321.64ZM1313.15 136.621C1314.23 136.648 1315.2 136.712 1316.06 136.812C1316.35 136.849 1316.49 136.945 1316.49 137.1C1316.49 137.227 1316.43 137.405 1316.31 137.633C1316.2 137.833 1316.14 138.54 1316.14 139.752V145.836L1316.2 148.994C1316.2 149.204 1316.1 149.309 1315.91 149.309H1313.56C1313.42 149.309 1313.34 149.286 1313.31 149.24C1313.3 149.213 1313.29 149.131 1313.29 148.994L1313.31 146.082C1312.15 146.638 1310.97 147.153 1309.79 147.627C1309.35 147.791 1309.07 147.923 1308.94 148.023C1308.77 148.169 1308.62 148.242 1308.5 148.242C1308.37 148.242 1308.25 148.119 1308.13 147.873C1307.88 147.308 1307.58 146.488 1307.23 145.412C1307.8 145.339 1308.57 145.161 1309.55 144.879C1311.07 144.368 1312.32 143.895 1313.31 143.457V139.807C1313.31 138.485 1313.26 137.423 1313.15 136.621ZM1310.03 138.139C1311.32 139.296 1312.22 140.189 1312.74 140.818C1312.83 140.928 1312.88 141.01 1312.88 141.064C1312.88 141.137 1312.79 141.242 1312.63 141.379L1311.21 142.691C1311.03 142.846 1310.9 142.924 1310.84 142.924C1310.79 142.924 1310.72 142.86 1310.62 142.732C1309.85 141.63 1309.01 140.677 1308.11 139.875C1308.01 139.793 1307.96 139.725 1307.96 139.67C1307.96 139.606 1308.03 139.506 1308.19 139.369L1309.47 138.193C1309.61 138.066 1309.71 138.002 1309.77 138.002C1309.83 138.002 1309.91 138.048 1310.03 138.139Z" fill="black"/>
<circle cx="1525" cy="150" r="147" stroke="black" stroke-width="6"/>
<path d="M1466.36 162.023H1463.92C1463.79 162.023 1463.7 162.005 1463.66 161.969C1463.63 161.941 1463.62 161.855 1463.62 161.709L1463.68 152.576V147.408L1463.62 140.449C1463.62 140.303 1463.64 140.217 1463.68 140.189C1463.71 140.162 1463.8 140.148 1463.94 140.148L1467.82 140.203H1469.64C1469.96 139.565 1470.3 138.69 1470.68 137.578C1470.79 137.277 1470.89 136.835 1470.98 136.252C1471.74 136.325 1472.74 136.466 1473.97 136.676C1474.24 136.73 1474.37 136.854 1474.37 137.045C1474.37 137.154 1474.29 137.282 1474.15 137.428C1473.94 137.674 1473.8 137.897 1473.72 138.098C1473.39 138.909 1473.06 139.611 1472.75 140.203H1478.21L1482.11 140.148C1482.25 140.148 1482.34 140.167 1482.37 140.203C1482.39 140.24 1482.41 140.322 1482.41 140.449L1482.35 146.643V152.549L1482.41 161.654C1482.41 161.8 1482.39 161.891 1482.35 161.928C1482.32 161.955 1482.23 161.969 1482.11 161.969H1479.62C1479.46 161.969 1479.37 161.946 1479.34 161.9C1479.32 161.873 1479.3 161.791 1479.3 161.654V160.396H1466.67V161.709C1466.67 161.855 1466.65 161.946 1466.62 161.982C1466.58 162.01 1466.49 162.023 1466.36 162.023ZM1466.67 157.703H1479.3V154.34H1466.67V157.703ZM1466.67 151.701H1479.3V148.584H1466.67V151.701ZM1466.67 142.896V145.945H1479.3V142.896H1466.67ZM1499.46 148.57L1495.93 148.625C1495.78 148.625 1495.7 148.607 1495.67 148.57C1495.64 148.534 1495.63 148.452 1495.63 148.324V146.246C1495.63 146.1 1495.65 146.014 1495.68 145.986C1495.72 145.959 1495.8 145.945 1495.93 145.945L1499.46 146H1506.32V142.883H1502.18L1498.31 142.938C1498.12 142.938 1498.03 142.837 1498.03 142.637V140.559C1498.03 140.358 1498.12 140.258 1498.31 140.258L1502.18 140.312H1506.32V139.998C1506.32 138.558 1506.25 137.423 1506.13 136.594C1507.34 136.621 1508.36 136.685 1509.2 136.785C1509.49 136.812 1509.63 136.913 1509.63 137.086C1509.63 137.168 1509.57 137.355 1509.46 137.646C1509.34 137.92 1509.29 138.649 1509.29 139.834V140.312H1513.73L1517.58 140.258C1517.73 140.258 1517.82 140.276 1517.86 140.312C1517.88 140.349 1517.9 140.431 1517.9 140.559V142.637C1517.9 142.783 1517.88 142.869 1517.83 142.896C1517.8 142.924 1517.72 142.938 1517.58 142.938L1513.73 142.883H1509.29V146H1516.49L1520.02 145.945C1520.16 145.945 1520.25 145.964 1520.29 146C1520.32 146.036 1520.33 146.118 1520.33 146.246V148.324C1520.33 148.47 1520.31 148.557 1520.28 148.584C1520.24 148.611 1520.15 148.625 1520.02 148.625L1516.49 148.57H1509.35V151.879H1513.25L1516.64 151.824C1516.8 151.824 1516.89 151.847 1516.93 151.893C1516.96 151.929 1516.97 152.016 1516.97 152.152V154.203C1516.97 154.34 1516.95 154.426 1516.91 154.463C1516.88 154.49 1516.79 154.504 1516.64 154.504L1513.25 154.449H1509.35V158.646C1510.41 158.774 1511.79 158.838 1513.5 158.838C1515.69 158.838 1518.1 158.692 1520.73 158.4C1520.44 158.956 1520.24 159.654 1520.14 160.492C1520.06 160.957 1519.97 161.23 1519.88 161.312C1519.79 161.376 1519.54 161.422 1519.13 161.449C1517.67 161.577 1515.85 161.641 1513.66 161.641C1511.06 161.641 1509.01 161.472 1507.51 161.135C1506.12 160.816 1504.93 160.305 1503.94 159.604C1502.74 158.756 1501.8 157.858 1501.14 156.91C1500.35 158.651 1499.31 160.173 1498.01 161.477C1497.71 161.777 1497.5 161.928 1497.39 161.928C1497.29 161.928 1497.09 161.768 1496.8 161.449C1496.28 160.902 1495.7 160.428 1495.07 160.027C1497.58 157.84 1499.18 155.087 1499.85 151.77C1499.99 151.177 1500.07 150.521 1500.1 149.801C1501.02 149.947 1501.88 150.124 1502.68 150.334C1503.07 150.434 1503.27 150.566 1503.27 150.73C1503.27 150.876 1503.18 151.036 1503.01 151.209C1502.87 151.364 1502.74 151.729 1502.6 152.303C1502.49 152.831 1502.33 153.483 1502.12 154.258C1502.77 155.324 1503.67 156.263 1504.83 157.074C1505.38 157.457 1505.92 157.749 1506.47 157.949V148.57H1499.46ZM1534.52 143.43L1530.97 143.484C1530.82 143.484 1530.74 143.466 1530.71 143.43C1530.68 143.393 1530.67 143.311 1530.67 143.184V140.955C1530.67 140.8 1530.69 140.704 1530.72 140.668C1530.76 140.641 1530.84 140.627 1530.97 140.627L1534.52 140.682H1541.25V140.23C1541.25 138.827 1541.17 137.633 1541.02 136.648C1542.32 136.685 1543.39 136.749 1544.22 136.84C1544.52 136.876 1544.67 136.981 1544.67 137.154C1544.67 137.236 1544.6 137.432 1544.46 137.742C1544.35 138.116 1544.3 138.854 1544.3 139.957V140.682H1551.44L1554.99 140.627C1555.14 140.627 1555.23 140.65 1555.26 140.695C1555.29 140.732 1555.3 140.818 1555.3 140.955V143.184C1555.3 143.329 1555.28 143.416 1555.24 143.443C1555.21 143.471 1555.13 143.484 1554.99 143.484L1551.44 143.43H1544.3V146.902H1548.39C1548.74 146.902 1549.01 146.866 1549.19 146.793C1549.35 146.72 1549.47 146.684 1549.56 146.684C1549.73 146.684 1550.1 146.975 1550.67 147.559C1551.25 148.105 1551.54 148.507 1551.54 148.762C1551.54 148.889 1551.41 149.058 1551.15 149.268C1550.88 149.477 1550.65 149.728 1550.48 150.02C1548.97 152.389 1547.27 154.376 1545.37 155.98C1547.93 157.421 1551.39 158.473 1555.77 159.139C1555.33 159.731 1554.93 160.483 1554.57 161.395C1554.4 161.878 1554.21 162.119 1553.98 162.119C1553.85 162.119 1553.65 162.092 1553.36 162.037C1548.94 161.025 1545.41 159.64 1542.75 157.881C1540.07 159.576 1536.7 160.952 1532.62 162.01C1532.38 162.083 1532.17 162.119 1532.01 162.119C1531.82 162.119 1531.63 161.878 1531.45 161.395C1531.15 160.629 1530.76 159.964 1530.3 159.398C1534.56 158.533 1537.92 157.411 1540.4 156.035C1538.52 154.258 1537.01 152.102 1535.88 149.568C1535.07 149.577 1534.36 149.591 1533.74 149.609L1533.1 149.623C1532.96 149.623 1532.86 149.605 1532.83 149.568C1532.8 149.532 1532.79 149.445 1532.79 149.309V147.162C1532.79 147.007 1532.81 146.916 1532.86 146.889C1532.88 146.861 1532.96 146.848 1533.1 146.848L1536.9 146.902H1541.25V143.43H1534.52ZM1547.1 149.568H1539.09C1540.11 151.446 1541.4 153.032 1542.96 154.326C1544.58 153.032 1545.96 151.446 1547.1 149.568ZM1571.4 159.945C1574.44 157.703 1576.46 154.531 1577.44 150.43C1576.58 150.439 1575.81 150.452 1575.13 150.471C1574.68 150.48 1574.45 150.484 1574.45 150.484C1574.3 150.484 1574.21 150.462 1574.17 150.416C1574.14 150.38 1574.13 150.293 1574.13 150.156V148.324C1574.13 148.178 1574.15 148.092 1574.2 148.064C1574.23 148.037 1574.31 148.023 1574.45 148.023L1577.89 148.078C1577.93 147.777 1577.96 147.271 1578 146.561L1574.69 146.615C1574.55 146.615 1574.46 146.597 1574.43 146.561C1574.4 146.515 1574.39 146.424 1574.39 146.287V144.688C1574.39 144.542 1574.41 144.451 1574.45 144.414C1574.48 144.387 1574.56 144.373 1574.69 144.373L1578.34 144.428H1584.36C1584.95 143.434 1585.45 142.418 1585.86 141.379C1586.08 140.777 1586.22 140.271 1586.29 139.861C1587.35 140.08 1588.18 140.303 1588.77 140.531C1589.02 140.622 1589.14 140.755 1589.14 140.928C1589.14 141.074 1589.06 141.215 1588.88 141.352C1588.72 141.47 1588.57 141.648 1588.45 141.885C1587.7 143.325 1587.25 144.173 1587.11 144.428L1589.81 144.373C1589.96 144.373 1590.05 144.391 1590.09 144.428C1590.11 144.464 1590.13 144.551 1590.13 144.688V146.287C1590.13 146.442 1590.11 146.538 1590.07 146.574C1590.04 146.602 1589.95 146.615 1589.81 146.615L1586.15 146.561H1580.72C1580.65 147.226 1580.58 147.732 1580.52 148.078H1586.57L1590.29 148.023C1590.48 148.023 1590.58 148.124 1590.58 148.324V150.156C1590.58 150.311 1590.56 150.407 1590.54 150.443C1590.51 150.471 1590.43 150.484 1590.29 150.484L1586.57 150.43H1580.11C1580.02 150.785 1579.89 151.3 1579.71 151.975H1586.07C1586.27 151.975 1586.46 151.938 1586.65 151.865C1586.76 151.811 1586.89 151.783 1587.02 151.783C1587.24 151.783 1587.57 152.034 1587.99 152.535C1588.47 153.027 1588.71 153.383 1588.71 153.602C1588.71 153.738 1588.6 153.866 1588.39 153.984C1588.19 154.112 1587.95 154.395 1587.67 154.832C1586.75 156.108 1585.84 157.17 1584.95 158.018C1586.5 158.756 1588.5 159.344 1590.93 159.781C1590.64 160.146 1590.35 160.725 1590.07 161.518C1589.89 162.01 1589.71 162.256 1589.53 162.256C1589.43 162.256 1589.23 162.215 1588.92 162.133C1586.6 161.531 1584.59 160.72 1582.89 159.699C1581.38 160.747 1579.61 161.586 1577.58 162.215C1577.27 162.324 1577.05 162.379 1576.93 162.379C1576.8 162.379 1576.62 162.165 1576.4 161.736C1576.14 161.208 1575.79 160.715 1575.36 160.26C1577.42 159.804 1579.24 159.102 1580.8 158.154C1579.86 157.316 1579.06 156.432 1578.4 155.502C1577.28 157.79 1575.78 159.745 1573.88 161.367C1573.57 161.632 1573.36 161.764 1573.27 161.764C1573.14 161.764 1572.96 161.604 1572.74 161.285C1572.4 160.829 1571.95 160.383 1571.4 159.945ZM1585.05 153.957H1579.93C1580.71 155.033 1581.65 155.958 1582.73 156.732C1583.61 155.958 1584.39 155.033 1585.05 153.957ZM1565.44 159.111C1565.85 159.166 1566.65 159.193 1567.84 159.193C1568.23 159.193 1568.43 158.934 1568.43 158.414V152.836L1567.34 153.178C1566.97 153.296 1566.64 153.456 1566.35 153.656C1566.21 153.766 1566.06 153.82 1565.87 153.82C1565.72 153.82 1565.6 153.706 1565.52 153.479C1565.34 152.758 1565.18 151.874 1565.04 150.826C1566 150.689 1566.86 150.512 1567.64 150.293L1568.43 150.061V144.633H1567.92L1565.52 144.688C1565.37 144.688 1565.28 144.669 1565.24 144.633C1565.22 144.596 1565.2 144.51 1565.2 144.373V142.336C1565.2 142.19 1565.23 142.099 1565.27 142.062C1565.3 142.035 1565.38 142.021 1565.52 142.021L1567.92 142.09H1568.43V140.6C1568.43 139.15 1568.36 137.824 1568.22 136.621C1569.28 136.648 1570.23 136.717 1571.07 136.826C1571.39 136.854 1571.55 136.954 1571.55 137.127C1571.55 137.218 1571.48 137.414 1571.34 137.715C1571.23 137.943 1571.18 138.886 1571.18 140.545V142.09L1573.27 142.021C1573.42 142.021 1573.52 142.04 1573.54 142.076C1573.57 142.113 1573.58 142.199 1573.58 142.336V144.373C1573.58 144.528 1573.57 144.619 1573.53 144.646C1573.49 144.674 1573.41 144.688 1573.27 144.688L1571.18 144.633V149.117C1571.48 149.008 1572.21 148.716 1573.37 148.242C1573.26 148.771 1573.21 149.445 1573.21 150.266C1573.21 150.63 1573.17 150.863 1573.09 150.963C1573.04 151.036 1572.88 151.127 1572.63 151.236C1572.23 151.428 1571.74 151.633 1571.18 151.852V153L1571.26 158.578C1571.26 160 1570.97 160.921 1570.38 161.34C1569.86 161.75 1568.79 161.955 1567.17 161.955C1566.99 161.964 1566.88 161.969 1566.83 161.969C1566.55 161.969 1566.37 161.91 1566.28 161.791C1566.22 161.7 1566.16 161.477 1566.11 161.121C1566 160.465 1565.77 159.795 1565.44 159.111ZM1587.52 136.484C1588.15 136.895 1588.78 137.405 1589.39 138.016C1589.6 138.225 1589.7 138.385 1589.7 138.494C1589.7 138.722 1589.51 138.836 1589.12 138.836C1588.92 138.836 1588.51 138.891 1587.88 139C1584.55 139.647 1580.59 140.121 1576 140.422C1575.76 140.44 1575.59 140.449 1575.51 140.449C1575.28 140.449 1575.12 140.395 1575.02 140.285C1574.95 140.185 1574.86 139.98 1574.75 139.67C1574.55 139.077 1574.28 138.567 1573.94 138.139C1578.58 138.102 1582.58 137.729 1585.96 137.018C1586.55 136.881 1587.07 136.703 1587.52 136.484ZM1580.21 141.133C1580.19 141.087 1580.17 141.046 1580.17 141.01C1580.17 140.91 1580.32 140.809 1580.6 140.709L1581.87 140.23C1582.01 140.167 1582.13 140.135 1582.21 140.135C1582.3 140.135 1582.39 140.203 1582.48 140.34C1583.01 141.169 1583.44 142.021 1583.77 142.896C1583.8 142.969 1583.81 143.029 1583.81 143.074C1583.81 143.184 1583.7 143.279 1583.48 143.361L1581.98 143.99C1581.81 144.063 1581.69 144.1 1581.64 144.1C1581.55 144.1 1581.48 144.004 1581.42 143.812C1581.18 143.083 1580.78 142.19 1580.21 141.133ZM1577.71 140.709C1578.14 141.301 1578.57 142.085 1579.01 143.061C1579.05 143.161 1579.07 143.234 1579.07 143.279C1579.07 143.361 1578.95 143.448 1578.72 143.539L1577.19 144.182C1577.03 144.245 1576.92 144.277 1576.87 144.277C1576.77 144.277 1576.7 144.191 1576.63 144.018C1576.35 143.188 1575.96 142.386 1575.46 141.611C1575.38 141.502 1575.33 141.429 1575.33 141.393C1575.33 141.338 1575.44 141.27 1575.65 141.188L1577.12 140.6C1577.28 140.545 1577.39 140.518 1577.45 140.518C1577.54 140.518 1577.62 140.581 1577.71 140.709Z" fill="black"/>
</svg>
