<svg xmlns="http://www.w3.org/2000/svg" width="276" height="538.483" viewBox="0 0 276 538.483"><g transform="translate(-285.5 -4668.084)"><g transform="translate(309.197 4659.598)"><g transform="translate(3)"><text transform="translate(0.838 84.032)" fill="#222" font-size="10" font-family="YuGothic-Bold, Yu Gothic" font-weight="700" letter-spacing="0.05em"><tspan x="0" y="0">経</tspan><tspan x="0" y="13">営</tspan><tspan x="0" y="26">領</tspan><tspan x="0" y="39">域</tspan></text><text transform="translate(5.802 487.915)" fill="#222" font-size="10" font-family="YuGothic-Bold, Yu Gothic" font-weight="700" letter-spacing="0.05em"><tspan x="-5.714" y="0">UI</tspan><tspan x="-2.5" y="12">/</tspan><tspan x="-7.525" y="24">UX</tspan><tspan x="-5" y="36">領</tspan><tspan x="-5" y="48">域</tspan></text><g transform="translate(0 10)"><g transform="translate(57.803 54.469)" fill="none" stroke="#000" stroke-width="3"><circle cx="45" cy="45" r="45" stroke="none"/><circle cx="45" cy="45" r="43.5" fill="none"/></g><text transform="translate(102.803 94.469)" fill="#222" font-size="12" font-family="YuGothic-Bold, Yu Gothic" font-weight="700"><tspan x="-24" y="0">ビジョン</tspan><tspan x="-6" y="10">・</tspan><tspan x="-24" y="20">パーパス</tspan></text></g><g transform="translate(0 88)"><g transform="translate(57.803 54.469)" fill="none" stroke="#000" stroke-width="3"><circle cx="45" cy="45" r="45" stroke="none"/><circle cx="45" cy="45" r="43.5" fill="none"/></g><text transform="translate(102.803 103.469)" fill="#222" font-size="12" font-family="YuGothic-Bold, Yu Gothic" font-weight="700"><tspan x="-24" y="0">価値探求</tspan></text></g><g transform="translate(0 166)"><g transform="translate(57.803 54.469)" fill="none" stroke="#000" stroke-width="3"><circle cx="45" cy="45" r="45" stroke="none"/><circle cx="45" cy="45" r="43.5" fill="none"/></g><text transform="translate(102.803 103.469)" fill="#222" font-size="12" font-family="YuGothic-Bold, Yu Gothic" font-weight="700"><tspan x="-12" y="0">戦略</tspan></text></g><g transform="translate(0 245)"><g transform="translate(57.803 54.469)" fill="none" stroke="#000" stroke-width="3"><circle cx="45" cy="45" r="45" stroke="none"/><circle cx="45" cy="45" r="43.5" fill="none"/></g><text transform="translate(102.803 103.469)" fill="#222" font-size="12" font-family="YuGothic-Bold, Yu Gothic" font-weight="700"><tspan x="-12" y="0">設計</tspan></text></g><g transform="translate(0 324)"><g transform="translate(57.803 54.469)" fill="none" stroke="#000" stroke-width="3"><circle cx="45" cy="45" r="45" stroke="none"/><circle cx="45" cy="45" r="43.5" fill="none"/></g><text transform="translate(102.803 103.469)" fill="#222" font-size="12" font-family="YuGothic-Bold, Yu Gothic" font-weight="700"><tspan x="-12" y="0">開発</tspan></text></g><g transform="translate(0 402)"><g transform="translate(57.803 54.469)" fill="none" stroke="#000" stroke-width="3"><circle cx="45" cy="45" r="45" stroke="none"/><circle cx="45" cy="45" r="43.5" fill="none"/></g><text transform="translate(102.803 103.469)" fill="#222" font-size="12" font-family="YuGothic-Bold, Yu Gothic" font-weight="700"><tspan x="-24" y="0">自走支援</tspan></text></g><line x2="7.276" transform="translate(155.538 227.181)" fill="none" stroke="#000" stroke-width="1"/><line x2="7.276" transform="translate(155.538 384.181)" fill="none" stroke="#000" stroke-width="1"/><line x2="12" transform="translate(147.538 109.468)" fill="none" stroke="#000" stroke-width="1"/><line x2="12" transform="translate(147.538 501.968)" fill="none" stroke="#000" stroke-width="1"/><path d="M-23,0V8.054H55.589V0" transform="translate(147.76 243.057) rotate(-90)" fill="none" stroke="#000" stroke-width="1"/><path d="M-23,0V8.054H55.589V0" transform="translate(147.76 400.057) rotate(-90)" fill="none" stroke="#000" stroke-width="1"/><text transform="translate(172.038 381.468)" fill="#222" font-size="10" font-family="Montserrat-BoldItalic, Montserrat" font-weight="700" font-style="italic" letter-spacing="0.05em"><tspan x="0" y="0">Service</tspan><tspan x="0" y="12">Design</tspan></text><text transform="translate(171.866 223.969)" fill="#222" font-size="10" font-family="Montserrat-BoldItalic, Montserrat" font-weight="700" font-style="italic" letter-spacing="0.05em"><tspan x="0" y="0">Business</tspan><tspan x="0" y="12">Design</tspan></text><text transform="translate(171.862 108.552)" fill="#222" font-size="10" font-family="Montserrat-BoldItalic, Montserrat" font-weight="700" font-style="italic" letter-spacing="0.05em"><tspan x="0" y="0">Vision</tspan><tspan x="0" y="12">Design</tspan></text><text transform="translate(172.038 499.968)" fill="#222" font-size="10" font-family="Montserrat-BoldItalic, Montserrat" font-weight="700" font-style="italic" letter-spacing="0.05em"><tspan x="0" y="0">Management</tspan><tspan x="0" y="12">Design</tspan></text><text transform="translate(33.458 125.969)" fill="#222" font-size="14" font-family="YuGothic-Bold, Yu Gothic" font-weight="700" letter-spacing="0.08em"><tspan x="-7" y="0">デ</tspan><tspan x="-7" y="18">ザ</tspan><tspan x="-7" y="36">イ</tspan><tspan x="-7" y="54">ン</tspan><tspan x="-7" y="72">経</tspan><tspan x="-7" y="90">営</tspan><tspan x="-7" y="108">支</tspan><tspan x="-7" y="126">援</tspan></text><text transform="translate(33.134 389.502)" fill="#222" font-size="14" font-family="YuGothic-Bold, Yu Gothic" font-weight="700" letter-spacing="0.08em"><tspan x="-10.646" y="0">DX</tspan><tspan x="-7" y="18">支</tspan><tspan x="-7" y="36">援</tspan></text><line x2="44" transform="translate(12.803 66.549)" fill="none" stroke="#000" stroke-width="1"/><line x2="44" transform="translate(12.803 305.535)" fill="none" stroke="#000" stroke-width="1"/><line x2="20.5" transform="translate(56.803 305.535)" fill="none" stroke="#222" stroke-width="1" stroke-dasharray="3"/><line x2="33.5" transform="translate(56.803 66.549)" fill="none" stroke="#222" stroke-width="1" stroke-dasharray="3"/><line x2="33.5" transform="translate(56.803 546.469)" fill="none" stroke="#222" stroke-width="1" stroke-dasharray="3"/><line x2="44" transform="translate(12.803 546.469)" fill="none" stroke="#000" stroke-width="1"/><line y2="67.99" transform="translate(34.107 271.54)" fill="none" stroke="#000" stroke-width="1"/><line y1="32" transform="translate(34.107 66.551)" fill="none" stroke="#000" stroke-width="1"/><line y1="85.105" transform="translate(34.107 461.863)" fill="none" stroke="#000" stroke-width="1"/></g><rect width="276" height="28" transform="translate(-23.697 8.486)"/><text transform="translate(114.713 29.746)" fill="#fff" font-size="18" font-family="YuGothic-Bold, Yu Gothic" font-weight="700" letter-spacing="0.1em"><tspan x="-127.8" y="0">デザインパートナーサービス</tspan></text></g></g></svg>