<svg xmlns="http://www.w3.org/2000/svg" width="508" height="440"><defs><clipPath id="a"><circle cx="130" cy="130" r="130" fill="#222" transform="translate(697.5 2949.289)"/></clipPath><clipPath id="b"><circle cx="130" cy="130" r="130" fill="#222" transform="translate(577.5 2942)"/></clipPath></defs><g transform="rotate(-90 -908.25 1785.75)"><g fill="none" stroke="#222" stroke-width="5" transform="translate(557.5 2734)"><circle cx="100" cy="100" r="100" stroke="none"/><circle cx="100" cy="100" r="97.5"/></g><circle cx="60" cy="60" r="60" fill="#222" transform="translate(517.5 2694)"/><g fill="none" stroke="#222" stroke-width="5" transform="translate(477.5 2694)"><circle cx="40" cy="40" r="40" stroke="none"/><circle cx="40" cy="40" r="37.5"/></g><circle cx="30" cy="30" r="30" fill="#222" transform="translate(447.5 2734)"/><g fill="none" stroke="#222" stroke-width="5" transform="translate(437.5 2774)"><circle cx="20" cy="20" r="20" stroke="none"/><circle cx="20" cy="20" r="17.5"/></g><g fill="none" stroke="#222" stroke-width="5" transform="translate(447.5 2852)"><circle cx="110" cy="110" r="110" stroke="none"/><circle cx="110" cy="110" r="107.5"/></g><circle cx="130" cy="130" r="130" fill="#222" transform="translate(577.5 2942)"/><g fill="none" stroke="#222" stroke-width="5" transform="translate(797.5 3112)"><circle cx="40" cy="40" r="40" stroke="none"/><circle cx="40" cy="40" r="37.5"/></g><path fill="none" stroke="#222" stroke-width="5" d="m837.5 2949.289-91.924 91.924M837.5 2928.864l-113.137 113.137M447.498 3086.427l63.64-63.639M447.498 3106.853l84.854-84.852M738.504 2834l42.427-42.426"/><g clip-path="url(#a)" transform="translate(-120 -7.289)"><g fill="none" stroke="#fff" stroke-width="5" transform="translate(917.5 3119.289)"><circle cx="40" cy="40" r="40" stroke="none"/><circle cx="40" cy="40" r="37.5"/></g></g><g fill="none" stroke="#fff" stroke-width="5" clip-path="url(#b)"><path d="m837.5 2949.289-91.924 91.924M837.5 2928.863 724.363 3042"/></g></g></svg>