<svg xmlns="http://www.w3.org/2000/svg" width="1390.157" height="256.664"><path fill="#ccc" d="M1301.132 256.664a132.1 132.1 0 0 1-26.011-2.509 115.6 115.6 0 0 1-23.836-7.531 94.827 94.827 0 0 1-20.23-11.963 76.829 76.829 0 0 1-15.18-15.8 66.545 66.545 0 0 1-9.492-19.2 75.46 75.46 0 0 1-3.162-22.107v-.5h44.237v.5a47.208 47.208 0 0 0 3.464 18.6 36.208 36.208 0 0 0 4.319 7.5 37.39 37.39 0 0 0 6.05 6.324 46.356 46.356 0 0 0 16.867 8.62 83.258 83.258 0 0 0 22.975 2.885 76.213 76.213 0 0 0 19.63-2.268 37.787 37.787 0 0 0 13.979-6.764 29.553 29.553 0 0 0 8.385-10.44 31.158 31.158 0 0 0 2.794-13.352 34.327 34.327 0 0 0-2.839-14.319 27.909 27.909 0 0 0-8.5-10.578 76.645 76.645 0 0 0-16.064-8.867 240.808 240.808 0 0 0-25.389-8.995 273 273 0 0 1-27.052-9.589 148.777 148.777 0 0 1-20.92-10.632 92.1 92.1 0 0 1-14.961-11.557 66.95 66.95 0 0 1-10.708-13.216 57.783 57.783 0 0 1-6.432-14.869 62.581 62.581 0 0 1-2.143-16.5 66.554 66.554 0 0 1 1.545-14.486 58.474 58.474 0 0 1 4.638-13.165 60.636 60.636 0 0 1 7.728-11.826 73.394 73.394 0 0 1 10.8-10.476 82.162 82.162 0 0 1 13.256-8.576 90.151 90.151 0 0 1 15.085-6.122 108.289 108.289 0 0 1 16.906-3.67 138.333 138.333 0 0 1 18.723-1.222 122.29 122.29 0 0 1 24.668 2.4 97.9 97.9 0 0 1 21.858 7.215 81.729 81.729 0 0 1 18.27 11.672 74.388 74.388 0 0 1 13.893 15.764 70.918 70.918 0 0 1 8.777 18.782 72.874 72.874 0 0 1 2.926 20.714v.5h-44.066v-.5a46.125 46.125 0 0 0-3.019-17.182 34.661 34.661 0 0 0-9.036-12.944 39.287 39.287 0 0 0-14.662-8.161 66.686 66.686 0 0 0-19.952-2.732 70.923 70.923 0 0 0-18.687 2.246 39.8 39.8 0 0 0-13.9 6.707 28.677 28.677 0 0 0-8.633 10.666 33.674 33.674 0 0 0-2.88 14.231 25.052 25.052 0 0 0 3.1 12.3 31.6 31.6 0 0 0 9.341 10.113 87.394 87.394 0 0 0 16.651 8.96 235.942 235.942 0 0 0 24.9 8.739 255.789 255.789 0 0 1 26.242 9.247 144.987 144.987 0 0 1 20.537 10.462 90.578 90.578 0 0 1 15.337 11.9 63.3 63.3 0 0 1 10.637 13.566 60.015 60.015 0 0 1 6.2 15.618 75.849 75.849 0 0 1 2.065 18.042 71.387 71.387 0 0 1-1.5 14.861 58.954 58.954 0 0 1-4.509 13.277 57.226 57.226 0 0 1-7.516 11.675 65.9 65.9 0 0 1-10.51 10.059 76.961 76.961 0 0 1-13.068 8.09 91.117 91.117 0 0 1-15.193 5.771 116.879 116.879 0 0 1-17.308 3.46 156.794 156.794 0 0 1-19.425 1.152Zm-96.91-78.618a74.25 74.25 0 0 0 3.117 21.314 65.554 65.554 0 0 0 9.35 18.911 75.837 75.837 0 0 0 14.983 15.6 93.828 93.828 0 0 0 20.017 11.835 114.594 114.594 0 0 0 23.63 7.466 131.1 131.1 0 0 0 25.814 2.49 155.814 155.814 0 0 0 19.3-1.144 115.921 115.921 0 0 0 17.16-3.43 90.118 90.118 0 0 0 15.025-5.709 75.96 75.96 0 0 0 12.9-7.985 64.913 64.913 0 0 0 10.351-9.9 56.225 56.225 0 0 0 7.384-11.471 57.95 57.95 0 0 0 4.431-13.052 70.389 70.389 0 0 0 1.479-14.652 74.855 74.855 0 0 0-2.036-17.8 59.028 59.028 0 0 0-6.1-15.358 62.3 62.3 0 0 0-10.47-13.35 89.566 89.566 0 0 0-15.168-11.768 144.013 144.013 0 0 0-20.394-10.388 254.8 254.8 0 0 0-26.138-9.21 236.912 236.912 0 0 1-25.005-8.778 88.359 88.359 0 0 1-16.845-9.069 32.591 32.591 0 0 1-9.63-10.438 26.04 26.04 0 0 1-3.224-12.782 34.663 34.663 0 0 1 2.973-14.651 29.665 29.665 0 0 1 8.928-11.037 40.8 40.8 0 0 1 14.251-6.88 71.907 71.907 0 0 1 18.953-2.282 67.682 67.682 0 0 1 20.253 2.779 40.276 40.276 0 0 1 15.031 8.373 35.652 35.652 0 0 1 9.294 13.323 46.8 46.8 0 0 1 3.089 17.053h42.066a71.745 71.745 0 0 0-2.883-19.93 69.915 69.915 0 0 0-8.654-18.517 73.391 73.391 0 0 0-13.707-15.553 80.735 80.735 0 0 0-18.047-11.528 96.913 96.913 0 0 0-21.635-7.141 121.3 121.3 0 0 0-24.465-2.382 137.333 137.333 0 0 0-18.587 1.213 107.285 107.285 0 0 0-16.75 3.636 89.141 89.141 0 0 0-14.918 6.054 81.166 81.166 0 0 0-13.094 8.471 72.4 72.4 0 0 0-10.656 10.332 59.619 59.619 0 0 0-7.6 11.63 57.461 57.461 0 0 0-4.558 12.94 65.542 65.542 0 0 0-1.521 14.268 61.588 61.588 0 0 0 2.108 16.232 56.788 56.788 0 0 0 6.321 14.611 65.948 65.948 0 0 0 10.548 13.017 91.093 91.093 0 0 0 14.8 11.429 147.782 147.782 0 0 0 20.777 10.558 272.023 272.023 0 0 0 26.952 9.553 241.788 241.788 0 0 1 25.5 9.034 77.592 77.592 0 0 1 16.278 8.993 28.894 28.894 0 0 1 8.8 10.955 35.314 35.314 0 0 1 2.929 14.734 32.144 32.144 0 0 1-2.889 13.778 30.543 30.543 0 0 1-8.663 10.794 38.774 38.774 0 0 1-14.346 6.951 77.191 77.191 0 0 1-19.89 2.3 84.239 84.239 0 0 1-23.253-2.925 47.344 47.344 0 0 1-17.236-8.817 37.392 37.392 0 0 1-10.651-14.2 47.9 47.9 0 0 1-3.542-18.5Zm-730.34 78.614a108.739 108.739 0 0 1-28.737-3.714 95.864 95.864 0 0 1-25.447-11.145 93.482 93.482 0 0 1-21.091-18.019 106 106 0 0 1-15.669-24.318 132.134 132.134 0 0 1-9.757-29.549 170.759 170.759 0 0 1-3.365-33.723V122.18a175.214 175.214 0 0 1 3.236-34.364 134.842 134.842 0 0 1 9.714-30.1 107.612 107.612 0 0 1 15.625-24.7 91.883 91.883 0 0 1 20.963-18.149A94.509 94.509 0 0 1 444.717 3.72 109.09 109.09 0 0 1 473.539.007a110.28 110.28 0 0 1 28.82 3.671 95.083 95.083 0 0 1 25.363 11.017 91.494 91.494 0 0 1 20.943 17.906 105.408 105.408 0 0 1 15.562 24.34 133.089 133.089 0 0 1 9.692 29.784 176.67 176.67 0 0 1 3.343 34.256v13.845a178.779 178.779 0 0 1-3.171 34.426 134.3 134.3 0 0 1-9.521 29.955 105.221 105.221 0 0 1-15.433 24.512 91.42 91.42 0 0 1-20.9 18.086 94.4 94.4 0 0 1-25.406 11.141 109.893 109.893 0 0 1-28.95 3.718ZM473.54.995a108.082 108.082 0 0 0-28.557 3.678 93.5 93.5 0 0 0-25.095 11.029 90.887 90.887 0 0 0-20.735 17.952 106.621 106.621 0 0 0-15.479 24.473 133.841 133.841 0 0 0-9.641 29.881 174.191 174.191 0 0 0-3.216 34.167v14.014a169.76 169.76 0 0 0 3.348 33.527 131.146 131.146 0 0 0 9.683 29.325 105.009 105.009 0 0 0 15.52 24.089 92.486 92.486 0 0 0 20.865 17.827 94.868 94.868 0 0 0 25.181 11.029 107.742 107.742 0 0 0 28.472 3.678 108.9 108.9 0 0 0 28.679-3.678 93.407 93.407 0 0 0 25.137-11.028 90.423 90.423 0 0 0 20.672-17.888 104.226 104.226 0 0 0 15.285-24.28 133.3 133.3 0 0 0 9.449-29.731 177.785 177.785 0 0 0 3.152-34.232v-13.844a175.667 175.667 0 0 0-3.323-34.059 132.1 132.1 0 0 0-9.618-29.561 104.415 104.415 0 0 0-15.413-24.11 90.5 90.5 0 0 0-20.713-17.718 94.093 94.093 0 0 0-25.1-10.9A109.286 109.286 0 0 0 473.539 1Zm668.225 252.251h-52.5l-.149-.214-74.5-106.99-27.639 29.315v77.889h-44.238V3.418h44.238v115.811l23.042-28.473 72.953-87.338h53.6l-92.9 110.756Zm-51.974-1h50.045l-97.421-138.125.248-.295L1134.43 4.418h-50.989l-72.653 86.979-24.809 30.657V4.418h-42.238v247.828h42.238V174.96l.136-.145 28.62-30.355.352.505Zm-229.311 1h-47.116l-.14-.269-49.768-95.431h-47.391v95.7h-44.237V3.418h88a163.1 163.1 0 0 1 20.368 1.212 117.27 117.27 0 0 1 17.925 3.64 87.935 87.935 0 0 1 15.48 6.075 71.961 71.961 0 0 1 13.025 8.515 61.043 61.043 0 0 1 17.7 23.839 73.125 73.125 0 0 1 4.421 15.167 97.466 97.466 0 0 1 1.471 17.312 83.525 83.525 0 0 1-3.032 23.079 62.181 62.181 0 0 1-9.11 19.031 71.544 71.544 0 0 1-14.521 15.006 86.062 86.062 0 0 1-18.767 10.861l55.683 103.246Zm-46.51-1h45.51v-1.593l-56.085-103.991.507-.214a85.35 85.35 0 0 0 19.05-10.945 70.544 70.544 0 0 0 14.319-14.8 61.184 61.184 0 0 0 8.962-18.726 82.53 82.53 0 0 0 2.993-22.8 96.487 96.487 0 0 0-1.461-17.131 72.122 72.122 0 0 0-4.359-14.959 60.038 60.038 0 0 0-17.417-23.454 70.958 70.958 0 0 0-12.844-8.4 86.94 86.94 0 0 0-15.3-6 116.246 116.246 0 0 0-17.771-3.608 162.062 162.062 0 0 0-20.242-1.2h-87v247.821h42.233v-95.7h49l.14.269Zm-576.927 1h-42.147l-.1-.374-46.858-179.826-47.973 180.2h-42.31l-.089-.388L0 3.418h43.932l.082.4 38.184 184.837L129.265 3.418h37.009l.095.378 46.466 185.173L250.758 3.418h43.932l-.141.612Zm-41.369-1h40.573L293.438 4.418h-41.864l-38.2 186.9-.975.021-46.9-186.926h-35.453L82.633 191.004l-.974-.022L43.117 4.418H1.257l57.192 247.828h40.746l48.753-183.128.479 1.837Zm278.212-31.129a62.683 62.683 0 0 1-13.521-1.411 51.111 51.111 0 0 1-11.979-4.239 49.691 49.691 0 0 1-10.418-7.067 58.14 58.14 0 0 1-8.841-9.879 70.864 70.864 0 0 1-7.041-12.446 92.163 92.163 0 0 1-5.021-14.767 127.04 127.04 0 0 1-3.008-17.083 178.753 178.753 0 0 1-1-19.4v-14.354a175.616 175.616 0 0 1 1.141-19 125.285 125.285 0 0 1 3.083-16.735 91.275 91.275 0 0 1 5.032-14.473 70.416 70.416 0 0 1 6.987-12.2 57.256 57.256 0 0 1 8.745-9.692 49.168 49.168 0 0 1 10.3-6.933 50.774 50.774 0 0 1 11.839-4.159 62.378 62.378 0 0 1 13.357-1.384 64.646 64.646 0 0 1 13.645 1.389 51.5 51.5 0 0 1 12.021 4.174 48.727 48.727 0 0 1 10.376 6.961 55.775 55.775 0 0 1 8.714 9.732 69.062 69.062 0 0 1 6.892 12.319 92.064 92.064 0 0 1 4.914 14.724 129.411 129.411 0 0 1 2.944 17.124 184.671 184.671 0 0 1 .98 19.525v12.983a191.853 191.853 0 0 1-.969 19.812 132.591 132.591 0 0 1-2.911 17.3 92.508 92.508 0 0 1-4.86 14.8 67.75 67.75 0 0 1-6.817 12.288 54.857 54.857 0 0 1-8.641 9.658 48.245 48.245 0 0 1-10.324 6.908 51.415 51.415 0 0 1-11.989 4.142 64.98 64.98 0 0 1-13.635 1.383Zm-.342-184.228a61.386 61.386 0 0 0-13.143 1.361 49.781 49.781 0 0 0-11.606 4.076 48.175 48.175 0 0 0-10.09 6.792 56.254 56.254 0 0 0-8.591 9.523 69.405 69.405 0 0 0-6.887 12.031 90.274 90.274 0 0 0-4.976 14.313 124.3 124.3 0 0 0-3.058 16.6 174.6 174.6 0 0 0-1.134 18.889v14.352a177.7 177.7 0 0 0 1 19.289 126.05 126.05 0 0 0 2.984 16.947 91.156 91.156 0 0 0 4.966 14.606 69.87 69.87 0 0 0 6.94 12.27 57.136 57.136 0 0 0 8.688 9.71 48.688 48.688 0 0 0 10.208 6.925 50.109 50.109 0 0 0 11.744 4.156 61.683 61.683 0 0 0 13.3 1.387 63.969 63.969 0 0 0 13.422-1.356 50.409 50.409 0 0 0 11.755-4.061 47.243 47.243 0 0 0 10.11-6.765 53.873 53.873 0 0 0 8.482-9.483 66.738 66.738 0 0 0 6.707-12.105 91.525 91.525 0 0 0 4.807-14.638 131.606 131.606 0 0 0 2.889-17.174 190.9 190.9 0 0 0 .964-19.708v-12.988a183.644 183.644 0 0 0-.975-19.419 128.412 128.412 0 0 0-2.92-16.991 91.062 91.062 0 0 0-4.859-14.564 68.066 68.066 0 0 0-6.791-12.141 54.786 54.786 0 0 0-8.557-9.558 47.733 47.733 0 0 0-10.163-6.818 50.5 50.5 0 0 0-11.787-4.093 63.649 63.649 0 0 0-13.434-1.365Zm286.46 85.791h-44.939v-84.4h46.138a66.686 66.686 0 0 1 19.91 3.016 37.49 37.49 0 0 1 14.353 8.4 35.254 35.254 0 0 1 8.646 13.389 51.965 51.965 0 0 1 2.872 17.9 45.675 45.675 0 0 1-3.113 17.3 35.8 35.8 0 0 1-9.358 13.236 40.881 40.881 0 0 1-14.877 8.371 64.2 64.2 0 0 1-19.637 2.788Zm-43.934-1h43.934a63.2 63.2 0 0 0 19.329-2.732 39.887 39.887 0 0 0 14.516-8.164 34.809 34.809 0 0 0 9.1-12.869 44.683 44.683 0 0 0 3.039-16.922 50.98 50.98 0 0 0-2.81-17.558 34.263 34.263 0 0 0-8.4-13.014 36.5 36.5 0 0 0-13.974-8.175 65.694 65.694 0 0 0-19.61-2.965h-45.129Z" data-name="交差 1"/></svg>