<svg xmlns="http://www.w3.org/2000/svg" width="123.667" height="186.782"><path stroke="#fff" stroke-width="2" d="M31.503 142.305c0-18.934-7.714-29.453-15.076-39.972C8.713 91.461 1 80.591 1 62.005a59.8 59.8 0 0 1 17.882-43.126A59.8 59.8 0 0 1 62.009 1.005a60.46 60.46 0 0 1 60.656 61c0 18.584-7.363 29.453-15.427 40.322-7.362 10.522-15.073 21.041-15.073 39.978a3.979 3.979 0 0 1-3.857 4.207H35.714a4.051 4.051 0 0 1-4.207-4.207Zm18.584-3.857V88.305H46.23a11.615 11.615 0 0 1-8.415-3.5 11.853 11.853 0 0 1 0-16.831 11.613 11.613 0 0 1 8.415-3.506 12.94 12.94 0 0 1 8.415 3.506 11.944 11.944 0 0 1 3.155 8.415v3.857h8.065v-3.86a11.9 11.9 0 1 1 11.922 11.919H73.93v50.14h10.519c1.052-18.934 8.766-29.8 16.479-40.675 7.013-9.817 14.025-19.635 14.025-35.765A52.674 52.674 0 0 0 62.009 9.062c-14.726 0-28.05 5.609-37.517 15.427C14.674 33.956 9.065 47.28 9.065 62.005c0 16.128 6.662 25.946 14.025 35.765 7.363 10.869 15.427 21.739 16.479 40.675h10.519Zm15.778 0V88.305H57.8v50.14Zm-15.778-58.2v-3.862a3.619 3.619 0 0 0-3.856-3.856 3.451 3.451 0 0 0-2.8 1.052 4.328 4.328 0 0 0-1.4 2.8 4.328 4.328 0 0 0 1.4 2.8 3.451 3.451 0 0 0 2.8 1.052Zm23.842 0h3.857a3.97 3.97 0 1 0-3.856-3.856ZM49.035 185.782a3.857 3.857 0 0 1 0-7.713h25.6a3.871 3.871 0 1 1 0 7.713Zm-12.97-19.636a3.891 3.891 0 0 1-3.857-3.857 3.979 3.979 0 0 1 3.857-4.207h51.54a3.979 3.979 0 0 1 3.857 4.207 3.891 3.891 0 0 1-3.857 3.857Z"/></svg>