<svg xmlns="http://www.w3.org/2000/svg" width="163.943" height="163.943"><path d="M81.972 163.943A81.972 81.972 0 1 0 0 81.972a82.066 82.066 0 0 0 81.972 81.971Zm-76.413-78.2 13.567-13.567 13.869 13.869a49.2 49.2 0 0 0 45.3 44.927L66.38 142.886a2.728 2.728 0 0 0 0 3.863l11.626 11.626A76.61 76.61 0 0 1 5.559 85.74Zm76.413-47.487a43.718 43.718 0 1 1-43.718 43.718 43.77 43.77 0 0 1 43.718-43.721Zm3.768 120.131L72.173 144.82l13.867-13.867a49.217 49.217 0 0 0 44.683-42.81l12.159 12.157a2.736 2.736 0 0 0 3.867 0l11.4-11.4a76.609 76.609 0 0 1-72.413 69.487Zm72.713-77.516L144.817 94.5 131.1 80.783a49.2 49.2 0 0 0-42.956-47.562l12.156-12.16a2.728 2.728 0 0 0 0-3.863L88.9 5.8a76.593 76.593 0 0 1 69.556 75.074ZM80.868 5.493 94.5 19.128 80.782 32.85a49.192 49.192 0 0 0-47.806 45.445L21.059 66.378a2.728 2.728 0 0 0-3.863 0L5.57 78a76.589 76.589 0 0 1 75.3-72.513Z"/><path d="M88.375 57.025a6.437 6.437 0 1 1-6.437-6.437 6.436 6.436 0 0 1 6.437 6.437M88.55 65.215H75.325a4.132 4.132 0 0 0-4.131 4.132v14.924a4.133 4.133 0 0 0 4.131 4.134h1v21.766a3.187 3.187 0 0 0 3.186 3.186h4.845a3.187 3.187 0 0 0 3.186-3.186V88.407h1a4.132 4.132 0 0 0 4.131-4.134V69.347a4.132 4.132 0 0 0-4.133-4.131Z"/></svg>