<svg xmlns="http://www.w3.org/2000/svg" width="323.072" height="107.804"><path fill="#060606" d="m53.902 0 53.9 53.9-53.9 53.9Z"/><g fill="#fff"><path d="M49.902 9.656v88.49L5.657 53.901 49.902 9.656Z"/><path fill="#000" d="M45.902 19.313 11.314 53.901 45.902 88.49V19.313m8-19.313v107.803L0 53.901 53.902 0Z"/></g><path fill="#fff" d="M53.902 99.013 9.244 53.776 53.902 8.539Z"/><path fill="#060606" d="m161.366 0 53.9 53.9-53.9 53.9Z"/><g fill="#fff"><path d="M157.366 9.656v88.49l-44.245-44.245 44.245-44.245Z"/><path fill="#000" d="m153.366 19.313-34.588 34.588 34.588 34.588V19.313m8-19.313v107.803l-53.902-53.902L161.366 0Z"/></g><path fill="#fff" d="m161.366 99.013-44.658-45.237 44.658-45.237Z"/><path fill="#060606" d="m269.17 0 53.9 53.9-53.9 53.9Z"/><g fill="#fff"><path d="M265.17 9.656v88.49l-44.245-44.245L265.17 9.656Z"/><path fill="#000" d="m261.17 19.313-34.588 34.588L261.17 88.49V19.313m8-19.313v107.803l-53.902-53.902L269.17 0Z"/></g><path fill="#fff" d="m269.17 99.013-44.658-45.237L269.17 8.539Z"/></svg>