<svg width="62" height="62" viewBox="0 0 62 62" fill="none" xmlns="http://www.w3.org/2000/svg">
<path d="M37.0952 24.297L37.6467 20.8883L38.2171 23.2451C38.2386 23.3285 38.2521 23.3689 38.2574 23.4092C38.279 23.463 38.3059 23.533 38.3328 23.5733C38.3677 23.6271 38.3812 23.6433 38.3946 23.6487C38.4296 23.6702 38.505 23.6836 38.6153 23.6487C39.078 23.5249 39.3524 22.9519 39.4547 22.4568C39.5085 22.2147 39.5381 21.9752 39.565 21.7331C39.5865 21.5878 39.6 21.4425 39.6188 21.2999C39.6538 21.0524 39.7157 20.7134 39.826 20.3852L39.8529 20.3233C39.8529 20.3233 39.8879 20.2211 39.9228 20.1431C39.9632 20.0408 40.0062 19.944 40.0251 19.839V19.7153V19.6937L39.9982 19.6319C39.9982 19.6319 39.9444 19.5834 39.9228 19.57L39.8744 19.5431C39.7237 19.4731 39.2744 19.8041 38.8413 20.4928L38.3113 21.3268L37.975 20.3959C37.8727 20.1134 37.8566 19.7825 37.9212 19.4865C37.9561 19.3278 38.01 19.1637 38.0665 19.005C38.1364 18.8113 38.1902 18.6391 38.2037 18.4803V18.3297C38.1633 18.0606 37.8943 17.8346 37.5849 17.571C37.3374 17.3638 37.0818 17.1432 36.8827 16.8607C36.6486 16.5298 36.5383 16.172 36.4361 15.8196C36.3661 15.5989 36.3043 15.3918 36.2155 15.2196C35.9249 14.6277 35.403 14.3452 34.7976 14.0143C34.4398 13.8206 34.0685 13.6161 33.7242 13.3336C33.6408 13.2637 33.5735 13.2099 33.517 13.1614C33.5036 13.148 33.482 13.1345 33.4767 13.1211C33.4417 13.1345 33.4013 13.148 33.3529 13.1695L33.2157 13.2179C32.0938 13.6323 31.1225 13.7829 30.1648 13.713C29.1047 13.6296 28.12 13.5623 27.1758 13.939C26.1346 14.3587 25.2817 15.3702 24.8405 16.7209C24.7087 17.1406 24.6065 17.5898 24.5365 18.0499C24.5231 18.1253 24.515 18.2006 24.5096 18.2705C24.4262 19.0077 24.4477 19.7502 24.5715 20.5627V20.6381L24.6334 20.899L25.1015 23.7912C25.2199 24.4799 25.3275 25.1337 25.5696 25.7471L25.6315 25.8978C25.914 26.5031 26.6512 27.4555 26.8502 27.695L27.0977 27.999C27.3184 28.2815 27.5874 28.6043 27.7784 28.833C27.8538 28.9218 27.9156 28.9917 27.9587 29.0401C27.9802 29.067 27.999 29.0886 28.0071 29.0939C28.1793 29.2661 28.5452 29.5002 28.868 29.7073C29.1102 29.8661 29.3362 30.0114 29.4949 30.1351C29.6456 30.2535 29.8043 30.3476 29.9711 30.4257C30.6598 30.7431 31.5826 30.7431 32.3736 30.4122C32.8014 30.232 33.1511 29.8741 33.5171 29.4894C33.7431 29.2554 33.9798 29.0079 34.2462 28.7927C34.865 28.2895 35.3627 27.808 35.7609 27.3264L35.8577 27.208C36.2371 26.7264 36.533 26.2367 36.7267 25.7417C36.8854 25.3436 37.0011 24.8943 37.106 24.2889L37.0952 24.297Z" fill="#222222"/>
<path d="M27.3775 31.4741H27.3021C27.1515 32.2247 26.869 32.7197 26.6618 33.0587C26.7318 33.1475 26.799 33.239 26.869 33.3278C26.8905 33.3547 26.9093 33.3762 26.9308 33.3977C26.9793 33.4515 27.0277 33.4999 27.0681 33.543C27.0896 33.5645 27.103 33.578 27.1219 33.5968C27.1837 33.6587 27.2537 33.7152 27.3075 33.7555C27.6599 34.0165 28.0581 34.2183 28.4724 34.3689C29.4706 34.7348 30.5871 34.8236 31.4696 34.8155H31.5583C31.8543 34.8155 32.3574 34.794 32.9439 34.7133H32.9573C33.0676 34.6999 33.1779 34.6864 33.2936 34.6649C33.3071 34.6649 33.3205 34.6649 33.334 34.6568C33.4362 34.6353 33.5465 34.6218 33.6568 34.5949C33.6784 34.5949 33.6972 34.5869 33.7187 34.5815C33.821 34.56 33.9259 34.533 34.0281 34.5115C34.055 34.5115 34.0765 34.4981 34.1034 34.49C34.2003 34.4631 34.3025 34.4362 34.3994 34.4066C34.4263 34.3985 34.4532 34.3851 34.4882 34.3797C34.585 34.3528 34.6738 34.3178 34.7626 34.2829C34.7976 34.2694 34.8245 34.2613 34.8595 34.2479C34.9482 34.2129 35.0316 34.1779 35.115 34.1376C35.15 34.1241 35.185 34.1107 35.2119 34.0891C35.2953 34.0488 35.3706 34.0057 35.4459 33.9654C35.4809 33.9439 35.5159 33.9304 35.5482 33.9116C35.6235 33.8712 35.6935 33.8228 35.7607 33.7744C35.7957 33.7528 35.8307 33.7259 35.8576 33.7044C35.9195 33.656 35.9813 33.6022 36.0432 33.5538C36.0701 33.5268 36.1051 33.4999 36.132 33.4704C36.1858 33.4165 36.2342 33.36 36.2907 33.2982C36.3176 33.2632 36.3445 33.2363 36.3741 33.2013C36.3822 33.1879 36.3876 33.1798 36.3957 33.1663C36.2988 33.0345 36.2154 32.9108 36.1616 32.822C35.8872 32.3807 35.7069 31.6651 35.6235 30.6374H35.6154L35.5939 30.1423V30.1154C35.5858 29.9163 35.5805 29.7172 35.5805 29.5235V29.3863V28.9585V28.9316C35.5589 28.9532 35.532 28.972 35.5105 28.9935C35.3034 29.1792 35.0908 29.3729 34.8568 29.5639C34.6361 29.7441 34.429 29.9567 34.2164 30.1773C33.7967 30.6185 33.3636 31.0651 32.7421 31.3288C32.4193 31.466 32.0803 31.5494 31.7359 31.6032C31.666 31.6167 31.5907 31.6301 31.5234 31.6382H31.4696C31.3512 31.6463 31.2275 31.6597 31.1118 31.6597C30.5602 31.6597 30.0168 31.5494 29.5487 31.3369C29.3227 31.2266 29.1021 31.0947 28.8949 30.9387C28.7496 30.8284 28.5425 30.6966 28.3299 30.554C28.2465 30.5002 28.1577 30.4437 28.0743 30.3898C28.034 30.3629 27.999 30.3414 27.964 30.3145C27.9156 30.2795 27.8618 30.2446 27.8134 30.2123C27.7784 30.1854 27.7434 30.1585 27.7031 30.1369C27.6546 30.102 27.6143 30.067 27.5712 30.0401C27.5363 30.0132 27.5093 29.9863 27.4744 29.9648C27.4475 29.9432 27.4206 29.9244 27.399 29.9029V29.9298C27.4071 30.1235 27.4125 30.3145 27.399 30.4948C27.4071 30.7019 27.399 30.8876 27.3721 31.0517V31.4983L27.3775 31.4741Z" fill="#222222"/>
<path d="M38.2873 28.6362C38.9007 28.2569 39.5276 27.8641 40.1947 27.63C42.0968 26.9628 43.2241 26.04 43.5631 24.8751C43.8537 23.8634 43.5147 22.7819 43.1569 21.6439C43.0681 21.348 42.9712 21.052 42.8959 20.7615C42.764 20.2664 42.6618 19.7687 42.565 19.2872C42.4412 18.6738 42.3228 18.1034 42.1506 17.5384C41.8063 16.3734 41.2817 15.5259 40.5875 15.0094L40.4692 14.926L40.4207 14.7888C39.5679 12.502 38.0801 10.5676 36.2345 9.34883C34.7817 8.39107 33.0652 7.87451 31.4214 7.87451C30.8214 7.87451 30.2376 7.94446 29.6726 8.0736C27.7382 8.54173 25.8845 9.83581 24.4586 11.7298C23.3152 13.2526 22.4139 15.1601 21.6202 17.7294C20.9315 19.9678 20.4364 22.2896 20.1459 24.6382C19.9603 26.2013 19.8984 27.9581 20.8562 29.1553C21.4265 29.871 22.3789 30.3687 23.5358 30.5543C24.4801 30.6996 25.4648 30.6377 26.436 30.5543V30.4575C26.4441 30.1965 26.436 29.9059 26.401 29.61C26.401 29.5831 26.401 29.5562 26.3929 29.5266C26.358 29.2441 26.3042 28.9401 26.2342 28.6253C26.2342 28.5984 26.2208 28.5715 26.2127 28.5419H26.1992L26.0755 28.3159C25.9033 28.1034 25.0962 27.0837 24.733 26.3115L24.7061 26.2362C24.6846 26.1878 24.6657 26.1393 24.6523 26.0909C24.4586 25.6013 24.3429 25.0847 24.246 24.5762C23.9985 24.6785 23.7079 24.6946 23.4066 24.6112C22.6641 24.404 22.0829 23.6884 21.8703 22.6822C21.8085 22.4078 21.7735 22.1172 21.7385 21.8347C21.6901 21.4365 21.6497 21.0625 21.526 20.7182C21.4991 20.6482 21.4775 20.5863 21.4506 20.5245C21.3968 20.3872 21.3269 20.2285 21.2919 20.0429C21.2166 19.6501 21.3054 19.2788 21.534 19.0232C21.8865 18.625 22.2766 18.5604 22.5402 18.582C22.6236 18.59 23.3258 18.9129 23.3527 18.9344C23.3877 18.9613 23.4281 18.9882 23.463 19.0178C23.4846 18.7219 23.5115 18.4474 23.5464 18.1919V18.1838V18.1569C23.5464 18.095 23.5599 18.0116 23.5733 17.9309C23.6487 17.4063 23.7671 16.9112 23.9177 16.435C24.4558 14.802 25.5077 13.5697 26.8179 13.0451C27.9694 12.5824 29.1182 12.6738 30.2347 12.7546C31.0606 12.8164 31.9028 12.6792 32.8928 12.3133L33.03 12.2649C33.5601 12.0712 33.7457 12.0712 34.1654 12.4371C34.2138 12.4774 34.2757 12.5339 34.351 12.5958C34.6254 12.8218 34.9429 12.994 35.2819 13.1743C35.9357 13.5321 36.6863 13.9383 37.106 14.8073C37.2297 15.0495 37.3051 15.3024 37.3804 15.5499C37.4692 15.8404 37.5526 16.1148 37.6979 16.3139C37.8297 16.4942 38.0207 16.6664 38.2279 16.844C38.626 17.1803 39.0807 17.5731 39.1776 18.1999C39.2125 18.4071 39.1991 18.6062 39.156 18.7918C39.5488 18.5658 39.9416 18.5174 40.3076 18.6815L40.4932 18.7918C40.59 18.8618 40.6734 18.929 40.7542 19.0259L40.9129 19.268C40.9398 19.3165 40.9667 19.3783 40.9828 19.4483C41.0044 19.5102 40.8994 20.398 40.8376 20.5352C40.8107 20.5971 40.7891 20.659 40.7676 20.7208L40.7407 20.7827C40.6923 20.9334 40.6439 21.154 40.5954 21.4714C40.5739 21.6087 40.5604 21.7405 40.547 21.8777C40.512 22.1467 40.4851 22.4158 40.4232 22.6902C40.2161 23.6883 39.6377 24.404 38.887 24.6112C38.5911 24.6946 38.3005 24.6811 38.0476 24.5762C37.9292 25.195 37.8054 25.6793 37.6332 26.1178C37.5794 26.2685 37.5095 26.4138 37.4395 26.5644C37.418 26.6048 37.3992 26.6478 37.3696 26.6882C37.3158 26.7904 37.2593 26.9007 37.1974 27.0056C37.1705 27.0594 37.1275 27.1079 37.1006 27.1644C37.0467 27.2612 36.9822 27.35 36.9203 27.4388C36.8799 27.5007 36.8369 27.5572 36.7885 27.611C36.74 27.6809 36.6916 27.7482 36.6378 27.8181C36.6243 27.8666 36.6163 27.9069 36.6109 27.9554C36.5974 28.2029 36.5759 28.5822 36.5705 29.0288V29.0826V29.5104V29.5454C37.114 29.3732 37.6924 29.0154 38.3005 28.6441L38.2873 28.6362Z" fill="#222222"/>
<path d="M26.0833 33.9043C25.1606 35.0612 23.818 36.0593 22.0693 36.8584C21.0846 37.305 20.0649 37.6655 19.0722 38.0153C18.3484 38.2708 17.5978 38.5318 16.8822 38.8278C15.7953 39.2824 14.6841 39.8394 13.955 40.7702C13.0672 41.9055 12.8601 43.4633 12.6529 44.9726L12.6179 45.2417C12.4377 46.5922 12.2036 48.0181 11.9077 49.6001C11.6521 50.9507 11.3696 52.2851 11.0952 53.6303L11.0817 53.7137C11.0279 53.9747 10.9849 54.2841 10.9445 54.6231C16.3522 59.2183 23.3501 62.0002 31.0069 62.0002C38.6663 62.0002 46.248 58.9896 51.7393 54.039C51.7124 53.7565 51.6775 53.4956 51.6371 53.2803C51.3815 52.0616 51.1286 50.8347 50.8946 49.6106C50.5367 47.7516 50.2812 46.2288 50.0955 44.8164L50.0551 44.5258C49.856 43.0246 49.6489 41.4668 48.7611 40.3449C47.997 39.3818 46.7917 38.8033 45.8258 38.4105C45.0833 38.1012 44.3165 37.8321 43.566 37.5711C42.5947 37.2267 41.5966 36.8743 40.6388 36.4358C39.1376 35.7551 37.9323 34.9211 37.0444 33.9714L37.0363 33.9795C36.9879 34.0333 36.9341 34.0817 36.8857 34.1301C36.8453 34.1705 36.7969 34.2189 36.7538 34.262C36.692 34.3158 36.6301 34.3642 36.5682 34.4126C36.5278 34.4476 36.4848 34.4826 36.4364 34.5149C36.3664 34.5633 36.2992 34.6117 36.2238 34.6602C36.1835 34.6871 36.1404 34.714 36.1001 34.7436C36.0247 34.792 35.9413 34.8323 35.866 34.8754C35.8257 34.8969 35.7826 34.9157 35.7423 34.9373C35.6588 34.9776 35.5701 35.0207 35.4867 35.0556C35.4463 35.0772 35.4113 35.0906 35.3683 35.1041C35.2795 35.139 35.188 35.1794 35.0939 35.2063C35.0589 35.2198 35.0185 35.2332 34.9836 35.2467C34.8867 35.2816 34.7898 35.3085 34.693 35.3435C34.658 35.3516 34.623 35.365 34.5961 35.3704C34.4939 35.3973 34.397 35.4242 34.2921 35.4538C34.2652 35.4619 34.2383 35.4673 34.2087 35.4753C34.1065 35.5022 34.0016 35.5238 33.8993 35.5453C33.8778 35.5453 33.8509 35.5534 33.8294 35.5587C33.7191 35.5803 33.6168 35.5991 33.5065 35.6206C33.4931 35.6206 33.4716 35.6206 33.4581 35.6287C33.3478 35.6502 33.2375 35.6637 33.1272 35.6771H33.1057C32.5057 35.7605 31.9703 35.7794 31.5829 35.7874H31.3408H31.0664H31.0045C30.8323 35.7874 30.652 35.774 30.4664 35.7605H30.4126C30.2323 35.7471 30.0548 35.7256 29.8691 35.7067C29.8422 35.7067 29.8073 35.6986 29.7804 35.6933C29.6082 35.6664 29.436 35.6395 29.2557 35.6045C29.2154 35.5964 29.1723 35.591 29.1374 35.583C28.9652 35.548 28.8011 35.4996 28.6289 35.4511C28.5885 35.4377 28.5455 35.4296 28.5051 35.4161C28.3249 35.3623 28.1473 35.2978 27.9751 35.2305C27.9482 35.2171 27.9213 35.209 27.8917 35.2036C27.4855 35.0314 27.0926 34.8243 26.7348 34.5552C26.646 34.4853 26.5411 34.3965 26.4389 34.2943C26.3985 34.2539 26.3555 34.2109 26.3151 34.1624C26.2532 34.1005 26.1967 34.0387 26.1349 33.9687C26.1214 33.9553 26.108 33.9418 26.0945 33.9203L26.0833 33.9043Z" fill="#222222"/>
<path d="M23.4707 20.557C23.051 19.8817 22.6502 19.5589 22.4457 19.5454H22.4322C22.3973 19.5454 22.3434 19.5589 22.26 19.6557C22.2466 19.6692 22.2251 19.7391 22.2466 19.8494C22.2681 19.9517 22.3085 20.0485 22.3488 20.1534C22.3838 20.2288 22.4107 20.3122 22.4376 20.3875C22.5963 20.8207 22.6501 21.2754 22.6986 21.7112C22.7255 21.9668 22.7605 22.2197 22.817 22.4699C22.9273 22.9649 23.2017 23.538 23.6564 23.6618C23.7586 23.6887 23.8367 23.6833 23.8689 23.6618C23.9039 23.6403 23.9658 23.5649 24.0142 23.3874C24.0277 23.3336 24.0411 23.304 24.0492 23.269L24.3182 22.1525L23.6429 20.8772C23.5945 20.7803 23.5326 20.67 23.4627 20.5597L23.4707 20.557Z" fill="#222222"/>
<path d="M30.9933 0.00496436C13.8768 0.00496436 0 13.8817 0 30.9983C0 40.0408 3.87685 48.1817 10.057 53.8452C10.0785 53.7268 10.092 53.6112 10.1189 53.5008L10.1323 53.4174C10.4067 52.0803 10.6892 50.7513 10.9448 49.4088C11.2408 47.8457 11.4695 46.4332 11.647 45.0961L11.682 44.827C11.9026 43.194 12.1286 41.5017 13.1832 40.1566C14.0522 39.04 15.3463 38.3943 16.5032 37.9101C17.2457 37.6061 18.0044 37.3397 18.7416 37.0842C19.7128 36.7479 20.711 36.3874 21.6553 35.9623C23.3637 35.1767 24.6443 34.2135 25.4703 33.0835C25.4703 33.0755 25.4918 33.0486 25.5053 33.0297L25.4918 33.0028L25.7044 32.7122L25.8981 32.4082C26.0299 32.1876 26.1671 31.9051 26.2693 31.5339C25.7743 31.5742 25.2712 31.6092 24.7681 31.6092C24.3 31.6092 23.8372 31.5823 23.3691 31.5124C21.9702 31.2917 20.8078 30.6649 20.0842 29.7636C18.9004 28.2893 18.9542 26.2849 19.1695 24.5227C19.46 22.1201 19.9685 19.7365 20.6788 17.4417C21.5128 14.7621 22.4625 12.7577 23.6678 11.1462C25.2309 9.07194 27.2756 7.64067 29.4333 7.12411C31.8573 6.53761 34.5289 7.05417 36.767 8.52853C38.7498 9.83603 40.3479 11.8888 41.2788 14.3128C42.0859 14.9612 42.6913 15.9459 43.076 17.2534C43.2616 17.8588 43.3935 18.4857 43.5092 19.0937C43.606 19.5618 43.7029 20.0434 43.8266 20.5061C43.902 20.7806 43.9907 21.0631 44.0822 21.3536C44.4669 22.5804 44.8597 23.8476 44.4965 25.1417C44.0688 26.6295 42.7343 27.7783 40.5148 28.5504C39.9498 28.7495 39.3633 29.1154 38.7929 29.4651C38.0827 29.9064 37.3455 30.353 36.5895 30.5332C36.6783 31.6632 36.8639 32.1313 36.9823 32.3089C37.0657 32.4407 37.2298 32.6667 37.3751 32.8524L37.5688 33.0945C38.3679 34.0308 39.5328 34.8513 41.0259 35.532C41.9487 35.9517 42.928 36.2961 43.8777 36.6351C44.6365 36.9041 45.4194 37.1786 46.178 37.496C47.2461 37.9292 48.5966 38.5829 49.5033 39.7264C50.5499 41.0635 50.7786 42.7504 50.9992 44.3834L51.0395 44.674C51.2252 46.073 51.4727 47.5742 51.8305 49.4118C52.0646 50.6305 52.3201 51.8574 52.573 53.068C52.5811 53.1084 52.5865 53.1568 52.5945 53.2052C58.3789 47.5715 61.9814 39.7045 61.9814 30.9933C61.9814 13.8768 48.1046 0 30.9881 0L30.9933 0.00496436Z" fill="#222222"/>
</svg>
