<svg width="59" height="62" viewBox="0 0 59 62" fill="none" xmlns="http://www.w3.org/2000/svg">
<path d="M22.8911 22.384L22.9419 23.3071C22.9673 23.7404 23.0206 24.1763 23.1119 24.6231C23.2363 25.2018 23.4113 25.732 23.6372 26.2352L24.3198 27.414C24.4949 27.6616 24.6826 27.9092 24.9034 28.1648L25.2028 28.5012C25.7408 29.0799 26.2737 29.5347 26.8345 29.9007C26.9131 29.9491 26.9842 29.9976 27.0552 30.038L27.139 30.0864C27.5551 30.334 27.9764 30.5143 28.4179 30.6516C28.9635 30.8157 29.3213 30.9072 29.7374 30.7404C29.9074 30.6785 30.0825 30.6085 30.25 30.5547C30.5672 30.4443 30.8742 30.3421 31.1533 30.1833C31.9577 29.75 32.7519 29.0879 33.5183 28.2186C33.5969 28.1298 33.668 28.0383 33.7314 27.9495L33.9015 27.7369C33.9471 27.683 33.9928 27.6184 34.0309 27.5646L34.1019 27.4623C34.1476 27.4004 34.1983 27.3305 34.2389 27.2686C34.4343 26.9779 34.5967 26.6899 34.7465 26.3939C35.0916 25.6969 35.3174 24.9406 35.4417 24.0794C35.4798 23.8237 35.4925 23.5707 35.5128 23.3069L35.5711 22.4107L36.241 22.9624C36.2867 23.0028 36.3324 23.0109 36.3451 23.0109C36.3451 23.0109 36.4491 22.9705 36.5328 22.5426C36.7917 21.3234 36.9693 20.0827 37.0581 18.8555C37.0124 18.9254 36.9744 18.9927 36.9287 19.0546C36.7333 19.3641 35.5711 19.5579 35.5711 19.5579L35.2387 16.2502C35.1728 15.6097 34.9977 14.9827 34.7058 14.3825C34.3303 13.6047 33.7822 12.8323 32.9702 11.9711C32.3713 11.3305 31.846 10.9376 31.3131 10.7384C30.7346 10.5124 30.288 10.62 29.6308 10.8272C29.1639 10.9645 28.7934 10.986 28.3646 11.0076L28.1514 11.021C27.1973 11.0695 26.2609 11.3655 25.4363 11.8822C23.7462 12.9372 22.6881 14.8642 22.6754 16.9043C22.6754 17.4129 22.7211 17.9297 22.7871 18.4814L22.8125 18.7075C22.9419 19.9832 23.0129 21.2077 22.442 22.3165L22.0918 23.0055C22.0918 23.0055 22.1375 22.984 22.1705 22.9571L22.8531 22.3785L22.8911 22.384Z" fill="#222222"/>
<path d="M25.0182 11.056C25.9724 10.4558 27.0508 10.1113 28.1495 10.0575H28.3576C28.7611 10.0225 29.058 10.0171 29.4234 9.90678C30.1846 9.67264 30.8266 9.51385 31.664 9.8368C32.3339 10.0844 32.9708 10.5527 33.6585 11.2982C34.5365 12.2429 35.1404 13.0825 35.5566 13.9572C35.8941 14.6597 36.1021 15.3971 36.1808 16.1614L36.394 18.2553C36.4143 18.2149 36.4396 18.1799 36.4523 18.1369L36.5107 18.0265C36.9015 17.2137 36.7188 16.1803 36.465 15.1064C36.1656 13.8307 35.8611 12.5631 35.3536 11.4274C34.7877 10.1813 34.029 9.22324 33.151 8.67957C32.0015 7.96365 30.6033 7.83984 29.3701 7.83984H29.195C27.7004 7.86137 25.7846 8.02016 24.2976 9.08056C22.7066 10.2163 21.6737 12.4232 21.5367 14.9772C21.4911 15.9353 21.5367 16.9554 21.7194 18.0911C21.8032 18.6778 21.9199 19.2698 22.0442 19.8485C22.0316 19.5175 22.0062 19.173 21.9656 18.8151L21.9402 18.589C21.8818 18.0373 21.8159 17.4667 21.8235 16.9069C21.8362 14.5305 23.0644 12.2913 25.0259 11.064L25.0182 11.056Z" fill="#222222"/>
<path d="M8.60728 49.5014C8.63266 48.441 8.65296 47.5179 8.65803 46.8074C8.6961 44.6166 8.98284 42.4178 9.52838 40.2701C9.81512 39.1613 10.2287 37.9287 11.1524 37.1563C12.0304 36.4135 13.1596 36.2547 14.167 36.1148L14.3547 36.0879C16.1538 35.8322 17.9657 35.4204 19.7521 34.8687C20.4854 34.6426 21.2518 34.3735 21.9014 33.9187C21.9394 33.8918 21.9724 33.8702 22.013 33.8433C22.0333 33.0925 22.1424 32.5192 22.3505 31.989C22.4419 31.7683 22.5637 31.4992 22.7794 31.3C22.9164 31.1628 23.2463 30.9905 23.5533 30.9152C23.5533 30.8398 23.5736 30.7698 23.5787 30.6891C23.67 29.731 23.5787 28.7729 23.467 27.7959C22.8631 26.8863 22.4672 25.9228 22.2338 24.8408C22.1831 24.5502 22.1298 24.2703 22.1044 23.9877C22.0257 23.9877 21.9496 23.9662 21.8709 23.9473C21.2467 23.7535 21.097 23.0027 21.0513 22.7631C20.7773 21.4551 20.5895 20.1094 20.4981 18.78C20.4601 18.3817 20.5565 18.0641 20.7646 17.8784C20.6225 16.8234 20.5768 15.8465 20.6276 14.9287C20.7823 12.084 21.9648 9.60259 23.7919 8.30001C25.4869 7.08624 27.5652 6.90862 29.1892 6.89511C30.5138 6.8682 32.2088 6.98393 33.6197 7.85858C34.6652 8.51257 35.5305 9.58103 36.1851 11.029C36.7307 12.2481 37.0428 13.5642 37.3346 14.8399C37.53 15.6526 37.7838 16.748 37.563 17.768C37.8802 17.9053 38.0502 18.2847 38.0172 18.7934C37.9208 20.1229 37.7305 21.4605 37.464 22.7765C37.4184 23.0188 37.2636 23.7696 36.6394 23.9608C36.5683 23.9877 36.4896 24.0011 36.4059 24.0011C36.4059 24.0846 36.3856 24.1734 36.3729 24.2568C36.2435 25.2203 35.9821 26.0761 35.5863 26.8674C35.4442 27.1715 35.2742 27.4541 35.0864 27.7421C34.9621 28.7621 34.8783 29.6906 34.9621 30.6218C35.599 31.2139 36.2359 32.3792 36.3324 33.1354C36.3577 33.3158 36.3704 33.5149 36.378 33.7275C36.4161 33.7544 36.4491 33.7814 36.4948 33.811C37.1774 34.3412 38.0401 34.6372 38.7887 34.8714C40.5675 35.4285 42.3869 35.8348 44.186 36.0905L44.3738 36.1174C45.3736 36.2547 46.5104 36.4215 47.3883 37.159C48.3171 37.9314 48.7205 39.1721 49.0048 40.2728C49.5427 42.3882 49.8294 44.5923 49.8751 46.81C49.8878 47.4021 49.9005 48.0911 49.9132 48.842L49.9335 49.5094C49.9588 50.5214 49.9842 51.6463 50.0172 52.817C55.2471 47.2164 58.4822 39.506 58.4822 31.004C58.4822 13.8815 45.3939 3.91796e-07 29.2499 3.91796e-07C13.1162 -0.00269144 0 13.8657 0 30.9882C0 39.5301 3.25564 47.2625 8.5235 52.8715C8.55649 51.6577 8.5819 50.5079 8.60728 49.5014Z" fill="#222222"/>
<path d="M22.9059 34.0748V34.2201C22.9059 34.4408 22.9059 34.648 22.9186 34.8606V35.0598C22.9516 35.7084 22.977 36.3677 23.0607 37.0083C23.1064 37.3259 23.1572 37.6488 23.2358 37.9583C23.3145 38.2678 23.4109 38.5719 23.5353 38.8599C23.5733 38.9487 23.6139 39.0402 23.6596 39.129C23.7433 39.3013 23.8423 39.4816 23.9463 39.6539C23.9971 39.7427 24.0504 39.8342 24.1011 39.923C24.3295 40.3213 24.568 40.7223 24.7431 41.1691C24.7761 41.2444 24.8091 41.3198 24.8396 41.4032C25.4968 40.8461 26.1514 40.2944 26.8086 39.7426C26.9203 39.6538 27.0218 39.5623 27.1334 39.4681C27.2502 39.3712 27.3618 39.2824 27.4836 39.1936C27.5953 39.1102 27.6968 39.0348 27.816 38.9595C27.8363 38.946 27.8617 38.9325 27.8744 38.9191C27.8541 38.8976 27.8414 38.8787 27.8363 38.8653C27.8237 38.8437 27.811 38.8249 27.7983 38.8114C27.7323 38.7361 27.6689 38.6526 27.6029 38.5854C27.2857 38.2759 26.9279 38.0148 26.4787 37.7161L26.1463 37.49C25.4054 36.9948 24.634 36.4835 24.0605 35.7057C23.553 35.0087 23.2155 34.1205 23.0074 32.9229C22.9414 33.2458 22.9034 33.6253 22.9034 34.0748L22.9059 34.0748Z" fill="#222222"/>
<path d="M24.4564 30.8988C24.4361 31.063 24.4107 31.2433 24.3726 31.4155C24.3599 31.4909 24.3473 31.5609 24.3346 31.6362C24.2432 32.0695 24.1062 32.4894 23.926 32.8689C23.9717 33.1245 24.0301 33.3641 24.0884 33.5793C24.1138 33.6816 24.1392 33.7785 24.1722 33.87C24.327 34.3652 24.535 34.7797 24.7837 35.1161C25.2582 35.7647 25.9586 36.233 26.6361 36.6797L26.9686 36.9058C27.3898 37.1803 27.8313 37.4925 28.2221 37.8774C28.3185 37.9743 28.4099 38.0846 28.4962 38.195C28.5291 38.2353 28.5469 38.2703 28.5799 38.3053L29.2219 37.9205C29.3259 37.8666 29.4224 37.7966 29.5213 37.7401C31.0667 36.7955 32.6146 35.7216 33.7768 34.2602V34.2468L33.9189 34.0665C33.9569 34.018 33.9696 33.9911 33.9975 33.9642C34.0178 33.9373 34.0356 33.9158 34.0483 33.8888C34.1726 33.7166 34.2817 33.5444 34.3807 33.364L34.4061 33.3156C34.4441 33.2456 34.4721 33.1703 34.4974 33.0949C34.5304 33.0115 34.5482 32.9307 34.5761 32.8392C34.5888 32.7908 34.5964 32.7423 34.6091 32.6939C34.6294 32.6105 34.6345 32.5432 34.6471 32.4678C34.6674 32.2875 34.5228 31.8488 34.1523 31.2756L34.1193 31.2217L34.094 31.1867L34.0153 31.0629L33.8859 30.67C33.8859 30.67 34.0153 29.362 34.028 29.0498C33.8326 29.2624 33.6372 29.4643 33.4443 29.65C33.3657 29.7253 33.2896 29.7953 33.2109 29.8707C32.6729 30.3524 32.1324 30.7399 31.5742 31.0414C31.224 31.2405 30.8739 31.3589 30.5287 31.4747C30.3739 31.5285 30.2166 31.585 30.0618 31.6469C29.3285 31.9376 28.7119 31.7438 28.1637 31.5769C27.6689 31.4316 27.1767 31.2109 26.6894 30.9283L26.6057 30.8745C26.522 30.8261 26.4357 30.7722 26.352 30.7238C25.7353 30.3174 25.1491 29.8141 24.5453 29.1817L24.4793 29.1063C24.5123 29.658 24.5123 30.2098 24.4539 30.7749C24.4539 30.8153 24.4539 30.8637 24.4412 30.9122L24.4564 30.8988Z" fill="#222222"/>
<path d="M22.3651 38.2359C22.2535 37.8026 22.1824 37.3612 22.1368 36.9198C22.1114 36.6937 22.0911 36.4784 22.0784 36.2577C22.0657 36.0317 22.053 35.8244 22.0403 35.6037C22.0276 35.4315 22.02 35.2673 22.015 35.1005V34.9498C21.3577 35.3346 20.6371 35.5849 20.0001 35.784C18.1756 36.3546 16.3156 36.7691 14.4709 37.0301L14.2831 37.057C13.3543 37.1943 12.3926 37.3316 11.7101 37.9048C10.9894 38.505 10.6519 39.5169 10.3906 40.5235C9.87038 42.5985 9.58616 44.7192 9.5583 46.8265C9.54561 47.5425 9.52531 48.4656 9.50754 49.5286C9.48217 50.7747 9.44157 52.2442 9.4035 53.7729C14.613 58.8784 21.5759 62 29.2295 62C36.8832 62 43.8964 58.8511 49.1134 53.7185C49.0753 52.2301 49.0423 50.7984 49.0093 49.5308L48.989 48.8633C48.9687 48.1044 48.956 47.4235 48.951 46.8314C48.9129 44.6945 48.6338 42.5657 48.1136 40.5284C47.8598 39.5218 47.5299 38.5099 46.8067 37.9097C46.1241 37.3391 45.1625 37.1992 44.2337 37.0619L44.0459 37.035C42.2012 36.7739 40.3437 36.3595 38.5167 35.7889C37.8087 35.5628 37.017 35.2937 36.309 34.8389C36.309 34.8873 36.2887 34.9411 36.2837 34.9896C36.2837 35.038 36.271 35.0999 36.2583 35.1538C36.2329 35.291 36.2126 35.4363 36.1746 35.5736C36.1746 35.614 36.1543 35.6436 36.1492 35.6839C36.1035 35.8696 36.0528 36.0553 35.9944 36.2357C35.9487 36.3864 35.8903 36.5452 35.8396 36.6986C35.7939 36.8224 35.7432 36.9408 35.6899 37.0646C35.6391 37.2018 35.5655 37.3391 35.5021 37.471C35.4437 37.6082 35.3727 37.7401 35.294 37.8774C35.1824 38.0846 35.0657 38.2837 34.9312 38.491C34.548 39.0911 34.1065 39.6348 33.6396 40.1434C33.4898 40.3157 33.3274 40.4745 33.1726 40.6386C32.5357 41.2738 31.8734 41.8363 31.2568 42.3341L30.828 42.6786L30.5818 42.17C30.3484 41.6748 30.016 41.2469 29.6328 40.8458C29.4501 40.6467 29.2497 40.4475 29.0416 40.2591C28.8284 40.0734 28.6203 39.8931 28.4047 39.7155C28.3387 39.7639 28.2676 39.7989 28.1966 39.8527C27.9961 39.99 27.8007 40.1488 27.6129 40.3076C27.5292 40.3695 27.4429 40.4448 27.3668 40.5148C26.6055 41.1553 25.8469 41.8039 25.0805 42.4499L24.3345 43.085L24.3142 43.0985L24.1721 42.3261C24.1467 42.2076 24.1213 42.1 24.0757 41.9896C24.0554 41.9358 24.03 41.8658 24.0097 41.8093C23.9843 41.7555 23.964 41.6855 23.9386 41.629C23.893 41.5187 23.8473 41.4164 23.8016 41.3114C23.7559 41.2092 23.7052 41.1123 23.6519 41.0154C23.5555 40.8216 23.4438 40.6359 23.3347 40.4448C23.284 40.356 23.2231 40.2591 23.1723 40.1622C23.0099 39.8796 22.8602 39.5836 22.7181 39.2741C22.576 38.943 22.4643 38.5985 22.373 38.2487L22.3651 38.2359Z" fill="#222222"/>
<path d="M30.3036 40.187C30.4584 40.3512 30.603 40.5234 30.7451 40.7037C30.7959 40.7737 30.8568 40.841 30.8999 40.9164C30.971 41.0186 31.042 41.1236 31.108 41.2339C32.1788 40.3377 33.3359 39.2639 34.186 37.9479C34.2901 37.7891 34.3865 37.6303 34.4778 37.458C34.6605 37.1351 34.8153 36.796 34.9524 36.4596C35.0183 36.2873 35.0818 36.1232 35.1351 35.9509C35.3482 35.2754 35.4599 34.5945 35.4599 33.9324V33.7467C35.4599 33.561 35.4472 33.3942 35.4218 33.2434V33.23C35.4015 33.3134 35.3761 33.3888 35.3431 33.4722C35.3102 33.5556 35.2772 33.631 35.2391 33.7144L35.1883 33.8248C35.0589 34.0804 34.9219 34.2931 34.7798 34.4788C34.7341 34.5487 34.6834 34.6106 34.6377 34.6725L34.4829 34.8717C33.2624 36.5672 31.7221 37.5442 30.0651 38.5238C29.9356 38.5992 29.8062 38.6745 29.6743 38.7499C29.5499 38.8252 29.4408 38.8952 29.3165 38.9706L29.1338 39.0728C29.4332 39.3285 29.7377 39.5977 30.0295 39.8856C30.126 39.9825 30.2249 40.0794 30.3163 40.1817L30.3036 40.187Z" fill="#222222"/>
</svg>
