<svg width="62" height="63" viewBox="0 0 62 63" fill="none" xmlns="http://www.w3.org/2000/svg">
<path d="M25.395 28.5668C25.6158 28.9329 25.858 29.2424 26.1326 29.5251C26.7032 30.1173 27.3869 30.5372 28.2753 30.8494C29.9011 31.4282 31.7611 31.3663 33.5189 30.6852C34.5445 30.2788 35.3601 29.8319 35.9388 29.342C36.2295 29.0944 36.4556 28.8333 36.6198 28.5695C37.3304 27.4336 37.4328 25.9773 37.4812 24.4618L37.5027 23.9181L38.0411 24.0069C38.0949 23.9854 38.1649 23.875 38.1999 23.7512C38.2403 23.5789 38.2349 23.3717 38.2268 23.1509C38.2188 22.9302 38.2188 22.731 38.2268 22.5238H38.2134L38.2268 22.3596C38.2268 22.1119 38.2484 21.8777 38.2753 21.6435V21.622V21.6004C38.2888 21.4147 38.3103 21.2074 38.3372 21.0082C38.3507 20.906 38.391 20.766 38.4395 20.6099C38.4879 20.451 38.5983 20.0661 38.5983 19.8858L37.5377 23.1859L37.6615 19.7889C37.6615 19.6247 37.675 19.4578 37.675 19.299C37.6885 18.8575 37.7369 18.3972 37.7854 17.9073C37.9092 16.6476 38.0545 15.2209 37.6535 14.2357C37.2201 13.1671 36.1784 12.2438 34.8621 11.762C33.2901 11.1967 29.9011 10.5695 28.784 11.5897C28.3991 11.9424 28.1783 12.4861 27.963 13.0164C27.7369 13.587 27.4543 14.3057 26.889 14.801C26.496 15.159 26.0276 15.3582 25.5808 15.552C25.422 15.622 25.2631 15.6893 25.1124 15.7646C24.1406 16.233 24.1676 17.081 24.2914 18.4241C24.3183 18.7068 24.3399 18.9948 24.3533 19.2775L24.4852 23.2048L23.4381 19.945C23.4597 20.1442 23.5485 20.4618 23.5889 20.5991C23.6373 20.7579 23.6723 20.8952 23.6912 20.9921C23.7127 21.1294 23.7315 21.2667 23.745 21.412L23.8284 22.2815L23.8015 22.268C23.8096 22.5372 23.8096 22.8064 23.8015 23.0756C23.7881 23.3582 23.78 23.5655 23.8231 23.7297C23.8581 23.8616 23.9254 23.9638 24.0034 23.9908L24.5418 23.9019V24.4457C24.5902 25.9611 24.6925 27.4147 25.4112 28.5533L25.395 28.5668Z" fill="#222222"/>
<path d="M8.98523 49.4446C9.0606 49.0597 9.14404 48.6936 9.23288 48.384C9.90852 46.061 10.7619 43.7864 11.7686 41.6303C13.1198 38.7285 15.8817 38.0394 18.5492 37.3638C20.175 36.9492 21.712 36.5643 22.9529 35.711C23.4294 35.3799 23.8224 35.0085 24.1508 34.5805C25.1144 33.3261 25.5424 31.6438 25.3163 30.061C25.0418 29.7649 24.786 29.4418 24.5572 29.0758C23.7847 27.8429 23.6205 26.3894 23.5586 24.8711C23.2221 24.7204 22.9664 24.3947 22.856 23.9828C22.7726 23.6786 22.786 23.3772 22.8022 23.108C22.8157 22.6316 22.8022 22.1928 22.7672 21.7513C22.2423 21.4337 21.852 21.0218 21.6097 20.5184C21.3352 19.9262 21.2921 19.291 21.2733 18.6449C21.1763 15.6059 21.5209 13.4417 22.4711 11.1889C22.8291 10.3409 23.3594 9.2804 24.2773 8.58324C25.9516 7.30193 27.957 6.70165 29.6393 6.97088C30.0458 7.0328 30.4173 7.12163 30.7834 7.21315C31.6367 7.41234 32.3823 7.59269 33.2356 7.37196C33.4213 7.32351 33.6017 7.2616 33.7793 7.19969C34.3365 7.00588 34.9718 6.77976 35.6959 7.00588C36.315 7.19969 36.848 7.85919 37.3164 8.44596C37.529 8.70707 37.7228 8.95471 37.887 9.10814C38.3419 9.52268 40.6165 11.6923 40.5196 13.6277C40.4657 14.7448 40.3608 15.8753 40.2585 16.9709C40.175 17.8538 40.0997 18.7287 40.0378 19.6035C39.9839 20.4245 39.8655 21.3397 39.1844 21.9131C39.1575 22.2926 39.1441 22.6775 39.1575 23.0652C39.171 23.3882 39.1844 23.6924 39.1037 23.9966C39.0014 24.403 38.7376 24.726 38.4011 24.8849C38.3392 26.4003 38.1804 27.8539 37.4025 29.0895C37.2168 29.3856 36.9611 29.6682 36.665 29.9374C36.3958 31.5633 36.8157 33.2941 37.8171 34.5888C37.949 34.753 38.0916 34.9199 38.2639 35.0976L38.2774 35.111C39.5937 36.4139 41.4537 36.8822 43.4241 37.3776C46.0917 38.0451 48.8535 38.7423 50.2047 41.6441C51.198 43.7732 52.0513 46.0398 52.7404 48.3978C52.8292 48.7154 52.9207 49.0869 52.9961 49.4664C53.1469 50.2444 53.3057 51.2511 53.4645 52.3682C58.735 46.8069 61.9811 39.3022 61.9811 31.0412C61.9811 13.9157 48.0971 0.0317418 30.9716 0.0317418C13.844 0.0236662 0 13.8944 0 31.0199C0 39.2891 3.24628 46.7989 8.51658 52.3551C8.6754 51.2326 8.82614 50.2259 8.98496 49.4479L8.98523 49.4446Z" fill="#222222"/>
<path d="M24.0834 36.0562C26.0969 37.2701 28.0941 38.468 30.1049 39.6739C30.4091 39.8543 30.786 40.0804 31.1305 40.0939C31.5155 40.1208 31.895 39.9081 32.2746 39.6039C32.4065 39.5017 32.5437 39.3832 32.673 39.2675C33.4374 38.5918 34.3607 37.8193 35.249 37.0763C35.9462 36.4976 36.6353 35.9189 37.2625 35.3805C37.2006 35.3052 37.1387 35.2298 37.0821 35.1544C36.1185 33.9001 35.6151 32.2958 35.6555 30.6968C35.6151 30.7183 35.5721 30.7372 35.5317 30.7668C35.3675 30.8637 35.1952 30.9606 35.0068 31.0494C34.9179 31.0898 34.8345 31.1382 34.7457 31.1813C34.4711 31.3132 34.175 31.4424 33.8628 31.5662C33.6071 31.6631 33.346 31.752 33.0849 31.8273C32.988 31.8543 32.8991 31.8758 32.8022 31.8973C32.638 31.9377 32.4658 31.9862 32.2989 32.0158C32.1885 32.0373 32.0728 32.0508 31.9624 32.0696C31.8116 32.0911 31.6663 32.118 31.5155 32.1315C31.3971 32.145 31.2733 32.153 31.1575 32.1584C31.0122 32.1665 30.8749 32.18 30.7295 32.18H30.5976C30.4954 32.18 30.3904 32.1719 30.2935 32.1665C30.2046 32.1665 30.1131 32.1665 30.0243 32.153C29.8655 32.1396 29.7147 32.1261 29.5613 32.1046C29.4779 32.0911 29.3971 32.0831 29.3137 32.0777C29.1495 32.0508 28.9826 32.0158 28.8237 31.9808C28.7538 31.9673 28.6865 31.9538 28.6165 31.9404C28.3904 31.8866 28.1616 31.8166 27.9408 31.7331C27.6582 31.6362 27.3971 31.5205 27.1495 31.402C27.0741 31.367 26.9987 31.3186 26.9287 31.2782C26.7646 31.1894 26.5977 31.0979 26.4388 30.9956C26.4119 30.974 26.3689 30.9606 26.3419 30.9417C26.3285 32.4518 25.8251 33.9673 24.9153 35.1517C24.6676 35.4747 24.385 35.7708 24.0674 36.0481L24.0834 36.0562Z" fill="#222222"/>
<path d="M18.7921 38.2954C16.2295 38.9441 13.8096 39.5497 12.6521 42.037C11.6669 44.1527 10.8271 46.3789 10.1649 48.6534C10.0814 48.9361 10.0061 49.2725 9.9307 49.6333C9.74497 50.5646 9.55924 51.819 9.3735 53.2241C14.9617 58.6669 22.5904 62.0315 31.0099 62.0315C39.4293 62.0315 47.0666 58.6694 52.6545 53.2186C52.4687 51.8189 52.283 50.5644 52.0973 49.6358C52.0273 49.2778 51.9465 48.9386 51.8631 48.6506C51.1875 46.3491 50.3476 44.123 49.3759 42.0341C48.2184 39.5469 45.7931 38.9413 43.2278 38.2925C41.3543 37.8242 39.4162 37.3343 37.9491 36.0664C37.8953 36.1149 37.8388 36.1633 37.7849 36.2118C37.5642 36.4056 37.3381 36.5967 37.1039 36.7905C36.9101 36.9547 36.7109 37.1216 36.5117 37.2858L36.4983 37.2992C36.3044 37.4581 36.1133 37.6223 35.9195 37.7811C35.0178 38.5321 34.0864 39.3101 33.322 39.9856C33.1228 40.166 32.8805 40.3706 32.6059 40.5563C32.5925 40.5698 32.5709 40.5778 32.5575 40.5913C32.4956 40.6317 32.4336 40.6747 32.3717 40.7097C32.0137 40.917 31.6342 41.0543 31.2062 41.0543H31.0877C30.5171 41.0193 30.0191 40.7313 29.6207 40.4971L23.2466 36.6667C21.9168 37.5011 20.3313 37.8995 18.7943 38.2871L18.7921 38.2954Z" fill="#222222"/>
<path d="M24.6838 14.9089C24.848 14.8254 25.0203 14.7501 25.2007 14.6828C25.5991 14.5105 25.9732 14.3517 26.2478 14.096C26.6461 13.7433 26.8615 13.1996 27.0687 12.6693C27.311 12.0637 27.5856 11.3799 28.1293 10.8847C29.7686 9.38803 33.8682 10.3948 35.1788 10.8632C36.7508 11.4338 38.0052 12.5644 38.5355 13.8807C39.0173 15.0866 38.8666 16.637 38.7293 18.0072C38.6943 18.3248 38.6674 18.6344 38.6459 18.9304C38.7347 18.9304 38.8262 18.952 38.9204 18.9789C39.0039 19.0058 39.0712 19.0327 39.1331 19.0677H39.1412C39.195 18.3382 39.2596 17.6061 39.3269 16.8685C39.4238 15.7811 39.5261 14.6559 39.5826 13.5684C39.6311 12.4728 38.4521 10.8874 37.2596 9.79982C37.0389 9.60063 36.8181 9.32337 36.5839 9.03533C36.2179 8.58041 35.763 8.01512 35.4265 7.91286C35.0065 7.78096 34.6135 7.91286 34.1183 8.09321C33.911 8.16319 33.7037 8.23857 33.4992 8.2924C32.4171 8.57504 31.4857 8.35431 30.5839 8.14166C30.2394 8.05822 29.8814 7.97746 29.5099 7.91555C29.2892 7.88056 29.0631 7.86172 28.8343 7.86172C27.5583 7.86172 26.1263 8.392 24.8854 9.34218C24.1559 9.89938 23.7145 10.7742 23.3833 11.5548C22.487 13.6759 22.164 15.7163 22.2609 18.6098C22.2743 19.1401 22.3093 19.622 22.4735 20.023V19.9961V19.8588V19.7565C22.4735 19.7081 22.487 19.6596 22.5004 19.6112C22.5004 19.5842 22.5085 19.5493 22.522 19.5223C22.5354 19.4739 22.5623 19.4254 22.592 19.377C22.6054 19.3554 22.6135 19.3285 22.6269 19.307C22.6673 19.237 22.7238 19.1832 22.7911 19.1266C22.8396 19.0782 22.9419 19.0163 23.0819 18.9678C23.1842 18.9409 23.2811 18.9274 23.378 18.9194C23.3645 18.7821 23.3564 18.6448 23.343 18.5048C23.2245 17.2451 23.0872 15.6784 24.6997 14.8951L24.6838 14.9089Z" fill="#222222"/>
</svg>
